%FSLAX23Y23*%
%MOIN*%
G04 EasyPC Gerber Version 12.0.1 Build 2704 *
%ADD24R,0.07000X0.09000*%
%ADD26R,0.07000X0.07000*%
%ADD95C,0.00800*%
%ADD74C,0.04200*%
%ADD75C,0.06600*%
%ADD72C,0.07000*%
%ADD25C,0.07000*%
X0Y0D02*
D02*
D24*
X1925Y3331D03*
X1825D03*
D02*
D25*
X3726Y3114D03*
X3657Y969D03*
Y1269D03*
X3618Y2450D03*
Y2750D03*
X3545Y1860D03*
X3456Y266D03*
X3447Y1417D03*
X3426Y3114D03*
X3411Y2445D03*
Y2745D03*
X3245Y1860D03*
X3211Y2622D03*
X3156Y266D03*
X3147Y1417D03*
X3106Y2770D03*
X2811Y2622D03*
X2806Y2770D03*
X2771Y1756D03*
Y2056D03*
X2768Y2199D03*
X2568Y2406D03*
X2564Y2758D03*
Y2911D03*
Y3211D03*
X2555Y3469D03*
X2368Y1756D03*
Y2056D03*
Y2199D03*
Y2406D03*
X2364Y2758D03*
X2358Y2911D03*
Y3211D03*
X2275Y266D03*
X2255Y3469D03*
X2151Y2517D03*
Y2817D03*
X2082Y2929D03*
Y3329D03*
X1975Y266D03*
X1931Y2234D03*
X1865Y2915D03*
X1784Y545D03*
Y752D03*
X1758Y3154D03*
X1631Y2234D03*
X1565Y2915D03*
X1413Y2435D03*
Y2735D03*
X1384Y545D03*
Y752D03*
X1358Y3154D03*
X1344Y1904D03*
X1330Y1083D03*
X1262Y3104D03*
X1044Y1904D03*
X1030Y1083D03*
X862Y3104D03*
X832Y1485D03*
Y1785D03*
Y3257D03*
Y3557D03*
X830Y903D03*
Y1203D03*
X823Y304D03*
Y604D03*
Y2076D03*
Y2376D03*
Y2667D03*
Y2967D03*
D02*
D26*
X3619Y3321D03*
X3519D03*
X1447Y3537D03*
X1347D03*
X1247D03*
X1147D03*
X222Y3341D03*
Y3441D03*
X212Y1569D03*
Y1669D03*
Y2160D03*
Y2260D03*
Y2740D03*
Y2840D03*
X206Y992D03*
Y1092D03*
X203Y378D03*
Y478D03*
D02*
D72*
X3462Y460D03*
Y1260D03*
X3362Y460D03*
Y1260D03*
X3262Y460D03*
Y1260D03*
X3162Y460D03*
Y1260D03*
X3062Y460D03*
Y1260D03*
X2962Y460D03*
Y1260D03*
X2862Y460D03*
Y1260D03*
X2762Y460D03*
Y1260D03*
X2662Y460D03*
Y1260D03*
X2562Y460D03*
Y1260D03*
X2462Y460D03*
Y1260D03*
X2362Y460D03*
Y1260D03*
X2262Y460D03*
Y1260D03*
X2162Y460D03*
Y1260D03*
X2062Y460D03*
Y1260D03*
X1962Y460D03*
Y1260D03*
D02*
D74*
X2299Y2573D03*
X2122Y2209D03*
X2092Y2563D03*
X2014Y2100D03*
Y2730D03*
X1895Y2839D03*
X1689Y2356D03*
X1531Y2701D03*
D02*
D75*
X2161Y2327D03*
X1945D03*
D02*
D95*
X3982Y4D02*
X45D01*
Y3941*
X3982*
Y4*
X0Y0D02*
M02*
