%FSLAX23Y23*%
%MOIN*%
G04 EasyPC Gerber Version 12.0.1 Build 2704 *
%ADD12C,0.00500*%
%ADD94C,0.10000*%
X0Y0D02*
D02*
D12*
X382Y3192D02*
X388Y3189D01*
X391Y3183*
X388Y3177*
X382Y3174*
X360*
Y3211*
X382*
X388Y3208*
X391Y3202*
X388Y3195*
X382Y3192*
X360*
X451Y1047D02*
X457Y1044D01*
X460Y1037*
X457Y1031*
X451Y1028*
X429*
Y1065*
X451*
X457Y1062*
X460Y1056*
X457Y1050*
X451Y1047*
X429*
X451Y1347D02*
X457Y1344D01*
X460Y1337*
X457Y1331*
X451Y1328*
X429*
Y1365*
X451*
X457Y1362*
X460Y1356*
X457Y1350*
X451Y1347*
X429*
X498Y3387D02*
X495Y3383D01*
X488Y3380*
X479*
X473Y3383*
X470Y3387*
X467Y3393*
Y3405*
X470Y3412*
X473Y3415*
X479Y3418*
X488*
X495Y3415*
X498Y3412*
X490Y2528D02*
X496Y2525D01*
X499Y2519*
X496Y2513*
X490Y2509*
X468*
Y2547*
X490*
X496Y2544*
X499Y2538*
X496Y2531*
X490Y2528*
X468*
X490Y2828D02*
X496Y2825D01*
X499Y2819*
X496Y2813*
X490Y2809*
X468*
Y2847*
X490*
X496Y2844*
X499Y2838*
X496Y2831*
X490Y2828*
X468*
X563Y1938D02*
X569Y1935D01*
X572Y1929*
X569Y1923*
X563Y1920*
X541*
Y1957*
X563*
X569Y1954*
X572Y1948*
X569Y1942*
X563Y1938*
X541*
X598Y3387D02*
X595Y3383D01*
X588Y3380*
X579*
X573Y3383*
X570Y3387*
X567Y3393*
Y3405*
X570Y3412*
X573Y3415*
X579Y3418*
X588*
X595Y3415*
X598Y3412*
X624Y520D02*
X639Y557D01*
X655Y520*
X630Y535D02*
X649D01*
X624Y1320D02*
X639Y1357D01*
X655Y1320*
X630Y1335D02*
X649D01*
X651Y344D02*
X658Y341D01*
X661Y335*
X658Y328*
X651Y325*
X630*
Y363*
X651*
X658Y360*
X661Y353*
X658Y347*
X651Y344*
X630*
X661Y1496D02*
X668Y1492D01*
X671Y1486*
X668Y1480*
X661Y1477*
X639*
Y1514*
X661*
X668Y1511*
X671Y1505*
X668Y1499*
X661Y1496*
X639*
X682Y3192D02*
X688Y3189D01*
X691Y3183*
X688Y3177*
X682Y3174*
X660*
Y3211*
X682*
X688Y3208*
X691Y3202*
X688Y3195*
X682Y3192*
X660*
X697Y2523D02*
X703Y2520D01*
X706Y2514*
X703Y2507*
X697Y2504*
X675*
Y2542*
X697*
X703Y2539*
X706Y2532*
X703Y2526*
X697Y2523*
X675*
X697Y2823D02*
X703Y2820D01*
X706Y2814*
X703Y2807*
X697Y2804*
X675*
Y2842*
X697*
X703Y2839*
X706Y2832*
X703Y2826*
X697Y2823*
X675*
X724Y520D02*
X739Y557D01*
X755Y520*
X730Y535D02*
X749D01*
X724Y1320D02*
X739Y1357D01*
X755Y1320*
X730Y1335D02*
X749D01*
X824Y520D02*
X839Y557D01*
X855Y520*
X830Y535D02*
X849D01*
X824Y1320D02*
X839Y1357D01*
X855Y1320*
X830Y1335D02*
X849D01*
X863Y1938D02*
X869Y1935D01*
X872Y1929*
X869Y1923*
X863Y1920*
X841*
Y1957*
X863*
X869Y1954*
X872Y1948*
X869Y1942*
X863Y1938*
X841*
X897Y2700D02*
X903Y2697D01*
X907Y2691*
X903Y2685*
X897Y2681*
X875*
Y2719*
X897*
X903Y2716*
X907Y2710*
X903Y2703*
X897Y2700*
X875*
X924Y520D02*
X939Y557D01*
X955Y520*
X930Y535D02*
X949D01*
X924Y1320D02*
X939Y1357D01*
X955Y1320*
X930Y1335D02*
X949D01*
X951Y344D02*
X958Y341D01*
X961Y335*
X958Y328*
X951Y325*
X930*
Y363*
X951*
X958Y360*
X961Y353*
X958Y347*
X951Y344*
X930*
X961Y1496D02*
X968Y1492D01*
X971Y1486*
X968Y1480*
X961Y1477*
X939*
Y1514*
X961*
X968Y1511*
X971Y1505*
X968Y1499*
X961Y1496*
X939*
X1002Y2848D02*
X1008Y2845D01*
X1011Y2838*
X1008Y2832*
X1002Y2829*
X980*
Y2867*
X1002*
X1008Y2864*
X1011Y2857*
X1008Y2851*
X1002Y2848*
X980*
X1024Y520D02*
X1039Y557D01*
X1055Y520*
X1030Y535D02*
X1049D01*
X1024Y1320D02*
X1039Y1357D01*
X1055Y1320*
X1030Y1335D02*
X1049D01*
X1124Y520D02*
X1139Y557D01*
X1155Y520*
X1130Y535D02*
X1149D01*
X1124Y1320D02*
X1139Y1357D01*
X1155Y1320*
X1130Y1335D02*
X1149D01*
X1224Y520D02*
X1239Y557D01*
X1255Y520*
X1230Y535D02*
X1249D01*
X1224Y1320D02*
X1239Y1357D01*
X1255Y1320*
X1230Y1335D02*
X1249D01*
X1297Y2700D02*
X1303Y2697D01*
X1307Y2691*
X1303Y2685*
X1297Y2681*
X1275*
Y2719*
X1297*
X1303Y2716*
X1307Y2710*
X1303Y2703*
X1297Y2700*
X1275*
X1302Y2848D02*
X1308Y2845D01*
X1311Y2838*
X1308Y2832*
X1302Y2829*
X1280*
Y2867*
X1302*
X1308Y2864*
X1311Y2857*
X1308Y2851*
X1302Y2848*
X1280*
X1337Y1834D02*
X1343Y1831D01*
X1346Y1825*
X1343Y1818*
X1337Y1815*
X1315*
Y1853*
X1337*
X1343Y1850*
X1346Y1843*
X1343Y1837*
X1337Y1834*
X1315*
X1337Y2134D02*
X1343Y2131D01*
X1346Y2125*
X1343Y2118*
X1337Y2115*
X1315*
Y2153*
X1337*
X1343Y2150*
X1346Y2143*
X1343Y2137*
X1337Y2134*
X1315*
X1340Y2277D02*
X1346Y2274D01*
X1349Y2268*
X1346Y2261*
X1340Y2258*
X1318*
Y2296*
X1340*
X1346Y2293*
X1349Y2286*
X1346Y2280*
X1340Y2277*
X1318*
X1324Y520D02*
X1339Y557D01*
X1355Y520*
X1330Y535D02*
X1349D01*
X1324Y1320D02*
X1339Y1357D01*
X1355Y1320*
X1330Y1335D02*
X1349D01*
X1424Y520D02*
X1439Y557D01*
X1455Y520*
X1430Y535D02*
X1449D01*
X1424Y1320D02*
X1439Y1357D01*
X1455Y1320*
X1430Y1335D02*
X1449D01*
X1540Y2484D02*
X1546Y2481D01*
X1549Y2474*
X1546Y2468*
X1540Y2465*
X1518*
Y2502*
X1540*
X1546Y2499*
X1549Y2493*
X1546Y2487*
X1540Y2484*
X1518*
X1544Y2836D02*
X1550Y2833D01*
X1553Y2827*
X1550Y2820*
X1544Y2817*
X1522*
Y2855*
X1544*
X1550Y2852*
X1553Y2845*
X1550Y2839*
X1544Y2836*
X1522*
X1544Y2989D02*
X1550Y2986D01*
X1553Y2979*
X1550Y2973*
X1544Y2970*
X1522*
Y3008*
X1544*
X1550Y3004*
X1553Y2998*
X1550Y2992*
X1544Y2989*
X1522*
X1544Y3289D02*
X1550Y3286D01*
X1553Y3279*
X1550Y3273*
X1544Y3270*
X1522*
Y3308*
X1544*
X1550Y3304*
X1553Y3298*
X1550Y3292*
X1544Y3289*
X1522*
X1524Y520D02*
X1539Y557D01*
X1555Y520*
X1530Y535D02*
X1549D01*
X1524Y1320D02*
X1539Y1357D01*
X1555Y1320*
X1530Y1335D02*
X1549D01*
X1553Y3547D02*
X1559Y3544D01*
X1562Y3537*
X1559Y3531*
X1553Y3528*
X1531*
Y3565*
X1553*
X1559Y3562*
X1562Y3556*
X1559Y3550*
X1553Y3547*
X1531*
X1624Y520D02*
X1639Y557D01*
X1655Y520*
X1630Y535D02*
X1649D01*
X1624Y1320D02*
X1639Y1357D01*
X1655Y1320*
X1630Y1335D02*
X1649D01*
X1740Y1834D02*
X1746Y1831D01*
X1749Y1825*
X1746Y1818*
X1740Y1815*
X1718*
Y1853*
X1740*
X1746Y1850*
X1749Y1843*
X1746Y1837*
X1740Y1834*
X1718*
X1740Y2134D02*
X1746Y2131D01*
X1749Y2125*
X1746Y2118*
X1740Y2115*
X1718*
Y2153*
X1740*
X1746Y2150*
X1749Y2143*
X1746Y2137*
X1740Y2134*
X1718*
X1740Y2277D02*
X1746Y2274D01*
X1749Y2268*
X1746Y2261*
X1740Y2258*
X1718*
Y2296*
X1740*
X1746Y2293*
X1749Y2286*
X1746Y2280*
X1740Y2277*
X1718*
X1740Y2484D02*
X1746Y2481D01*
X1749Y2474*
X1746Y2468*
X1740Y2465*
X1718*
Y2502*
X1740*
X1746Y2499*
X1749Y2493*
X1746Y2487*
X1740Y2484*
X1718*
X1744Y2836D02*
X1750Y2833D01*
X1753Y2827*
X1750Y2820*
X1744Y2817*
X1722*
Y2855*
X1744*
X1750Y2852*
X1753Y2845*
X1750Y2839*
X1744Y2836*
X1722*
X1724Y520D02*
X1739Y557D01*
X1755Y520*
X1730Y535D02*
X1749D01*
X1724Y1320D02*
X1739Y1357D01*
X1755Y1320*
X1730Y1335D02*
X1749D01*
X1750Y2989D02*
X1757Y2986D01*
X1760Y2979*
X1757Y2973*
X1750Y2970*
X1728*
Y3008*
X1750*
X1757Y3004*
X1760Y2998*
X1757Y2992*
X1750Y2989*
X1728*
X1750Y3289D02*
X1757Y3286D01*
X1760Y3279*
X1757Y3273*
X1750Y3270*
X1728*
Y3308*
X1750*
X1757Y3304*
X1760Y3298*
X1757Y3292*
X1750Y3289*
X1728*
X1787Y2632D02*
Y2670D01*
X1806*
X1812Y2667*
X1815Y2664*
X1818Y2657*
Y2645*
X1815Y2639*
X1812Y2635*
X1806Y2632*
X1787*
X1833Y344D02*
X1839Y341D01*
X1842Y335*
X1839Y328*
X1833Y325*
X1811*
Y363*
X1833*
X1839Y360*
X1842Y353*
X1839Y347*
X1833Y344*
X1811*
X1824Y520D02*
X1839Y557D01*
X1855Y520*
X1830Y535D02*
X1849D01*
X1824Y1320D02*
X1839Y1357D01*
X1855Y1320*
X1830Y1335D02*
X1849D01*
X1853Y3547D02*
X1859Y3544D01*
X1862Y3537*
X1859Y3531*
X1853Y3528*
X1831*
Y3565*
X1853*
X1859Y3562*
X1862Y3556*
X1859Y3550*
X1853Y3547*
X1831*
X1924Y520D02*
X1939Y557D01*
X1955Y520*
X1930Y535D02*
X1949D01*
X1924Y1320D02*
X1939Y1357D01*
X1955Y1320*
X1930Y1335D02*
X1949D01*
X1947Y2405D02*
X1953Y2402D01*
X1956Y2396*
X1953Y2389*
X1947Y2386*
X1925*
Y2424*
X1947*
X1953Y2421*
X1956Y2414*
X1953Y2408*
X1947Y2405*
X1925*
X1957Y2595D02*
X1963Y2592D01*
X1966Y2586*
X1963Y2579*
X1957Y2576*
X1935*
Y2614*
X1957*
X1963Y2611*
X1966Y2604*
X1963Y2598*
X1957Y2595*
X1935*
X1957Y2895D02*
X1963Y2892D01*
X1966Y2886*
X1963Y2879*
X1957Y2876*
X1935*
Y2914*
X1957*
X1963Y2911*
X1966Y2904*
X1963Y2898*
X1957Y2895*
X1935*
X1964Y2268D02*
Y2306D01*
X1983*
X1989Y2302*
X1992Y2299*
X1995Y2293*
Y2281*
X1992Y2274*
X1989Y2271*
X1983Y2268*
X1964*
X1994Y2622D02*
Y2660D01*
X2013*
X2019Y2657*
X2022Y2654*
X2025Y2647*
Y2635*
X2022Y2629*
X2019Y2626*
X2013Y2622*
X1994*
X2026Y3007D02*
X2032Y3004D01*
X2035Y2998*
X2032Y2991*
X2026Y2988*
X2004*
Y3026*
X2026*
X2032Y3023*
X2035Y3016*
X2032Y3010*
X2026Y3007*
X2004*
X2026Y3407D02*
X2032Y3404D01*
X2035Y3398*
X2032Y3391*
X2026Y3388*
X2004*
Y3426*
X2026*
X2032Y3423*
X2035Y3416*
X2032Y3410*
X2026Y3407*
X2004*
X2024Y520D02*
X2039Y557D01*
X2055Y520*
X2030Y535D02*
X2049D01*
X2024Y1320D02*
X2039Y1357D01*
X2055Y1320*
X2030Y1335D02*
X2049D01*
X2073Y2160D02*
Y2197D01*
X2091*
X2098Y2194*
X2101Y2191*
X2104Y2185*
Y2172*
X2101Y2166*
X2098Y2163*
X2091Y2160*
X2073*
Y2790D02*
Y2827D01*
X2091*
X2098Y2824*
X2101Y2821*
X2104Y2815*
Y2802*
X2101Y2796*
X2098Y2793*
X2091Y2790*
X2073*
X2133Y344D02*
X2139Y341D01*
X2142Y335*
X2139Y328*
X2133Y325*
X2111*
Y363*
X2133*
X2139Y360*
X2142Y353*
X2139Y347*
X2133Y344*
X2111*
X2124Y520D02*
X2139Y557D01*
X2155Y520*
X2130Y535D02*
X2149D01*
X2124Y1320D02*
X2139Y1357D01*
X2155Y1320*
X2130Y1335D02*
X2149D01*
X2163Y2405D02*
X2170Y2402D01*
X2173Y2396*
X2170Y2389*
X2163Y2386*
X2141*
Y2424*
X2163*
X2170Y2421*
X2173Y2414*
X2170Y2408*
X2163Y2405*
X2141*
X2177Y2312D02*
X2183Y2309D01*
X2186Y2303*
X2183Y2297*
X2177Y2294*
X2155*
Y2331*
X2177*
X2183Y2328*
X2186Y2322*
X2183Y2316*
X2177Y2312*
X2155*
X2161Y3390D02*
X2177Y3428D01*
X2192Y3390*
X2167Y3406D02*
X2186D01*
X2191Y2898D02*
Y2936D01*
X2209*
X2216Y2932*
X2219Y2929*
X2222Y2923*
Y2911*
X2219Y2904*
X2216Y2901*
X2209Y2898*
X2191*
X2242Y2994D02*
X2249Y2990D01*
X2252Y2984*
X2249Y2978*
X2242Y2975*
X2221*
Y3012*
X2242*
X2249Y3009*
X2252Y3003*
X2249Y2997*
X2242Y2994*
X2221*
X2261Y3390D02*
X2277Y3428D01*
X2292Y3390*
X2267Y3406D02*
X2286D01*
X2324Y623D02*
X2331Y620D01*
X2334Y614*
X2331Y608*
X2324Y605*
X2302*
Y642*
X2324*
X2331Y639*
X2334Y633*
X2331Y627*
X2324Y623*
X2302*
X2324Y830D02*
X2331Y827D01*
X2334Y821*
X2331Y815*
X2324Y811*
X2302*
Y849*
X2324*
X2331Y846*
X2334Y840*
X2331Y833*
X2324Y830*
X2302*
X2350Y3232D02*
X2357Y3229D01*
X2360Y3222*
X2357Y3216*
X2350Y3213*
X2328*
Y3250*
X2350*
X2357Y3247*
X2360Y3241*
X2357Y3235*
X2350Y3232*
X2328*
X2397Y2416D02*
Y2453D01*
X2416*
X2422Y2450*
X2425Y2447*
X2429Y2441*
Y2428*
X2425Y2422*
X2422Y2419*
X2416Y2416*
X2397*
X2477Y2312D02*
X2483Y2309D01*
X2486Y2303*
X2483Y2297*
X2477Y2294*
X2455*
Y2331*
X2477*
X2483Y2328*
X2486Y2322*
X2483Y2316*
X2477Y2312*
X2455*
X2542Y2994D02*
X2549Y2990D01*
X2552Y2984*
X2549Y2978*
X2542Y2975*
X2521*
Y3012*
X2542*
X2549Y3009*
X2552Y3003*
X2549Y2997*
X2542Y2994*
X2521*
X2555Y2760D02*
Y2798D01*
X2574*
X2580Y2795*
X2583Y2791*
X2586Y2785*
Y2773*
X2583Y2766*
X2580Y2763*
X2574Y2760*
X2555*
X2670Y3603D02*
X2667Y3600D01*
X2661Y3597*
X2651*
X2645Y3600*
X2642Y3603*
X2639Y3609*
Y3622*
X2642Y3628*
X2645Y3631*
X2651Y3634*
X2661*
X2667Y3631*
X2670Y3628*
X2695Y2513D02*
X2701Y2510D01*
X2704Y2504*
X2701Y2498*
X2695Y2494*
X2673*
Y2532*
X2695*
X2701Y2529*
X2704Y2523*
X2701Y2516*
X2695Y2513*
X2673*
X2695Y2813D02*
X2701Y2810D01*
X2704Y2804*
X2701Y2798*
X2695Y2794*
X2673*
Y2832*
X2695*
X2701Y2829*
X2704Y2823*
X2701Y2816*
X2695Y2813*
X2673*
X2724Y623D02*
X2731Y620D01*
X2734Y614*
X2731Y608*
X2724Y605*
X2702*
Y642*
X2724*
X2731Y639*
X2734Y633*
X2731Y627*
X2724Y623*
X2702*
X2724Y830D02*
X2731Y827D01*
X2734Y821*
X2731Y815*
X2724Y811*
X2702*
Y849*
X2724*
X2731Y846*
X2734Y840*
X2731Y833*
X2724Y830*
X2702*
X2750Y3232D02*
X2757Y3229D01*
X2760Y3222*
X2757Y3216*
X2750Y3213*
X2728*
Y3250*
X2750*
X2757Y3247*
X2760Y3241*
X2757Y3235*
X2750Y3232*
X2728*
X2770Y3603D02*
X2767Y3600D01*
X2761Y3597*
X2751*
X2745Y3600*
X2742Y3603*
X2739Y3609*
Y3622*
X2742Y3628*
X2745Y3631*
X2751Y3634*
X2761*
X2767Y3631*
X2770Y3628*
X2764Y1982D02*
X2770Y1979D01*
X2773Y1972*
X2770Y1966*
X2764Y1963*
X2742*
Y2000*
X2764*
X2770Y1997*
X2773Y1991*
X2770Y1985*
X2764Y1982*
X2742*
X2777Y1161D02*
X2784Y1158D01*
X2787Y1151*
X2784Y1145*
X2777Y1142*
X2756*
Y1180*
X2777*
X2784Y1176*
X2787Y1170*
X2784Y1164*
X2777Y1161*
X2756*
X2846Y3183D02*
X2852Y3179D01*
X2855Y3173*
X2852Y3167*
X2846Y3164*
X2824*
Y3201*
X2846*
X2852Y3198*
X2855Y3192*
X2852Y3186*
X2846Y3183*
X2824*
X2870Y3603D02*
X2867Y3600D01*
X2861Y3597*
X2851*
X2845Y3600*
X2842Y3603*
X2839Y3609*
Y3622*
X2842Y3628*
X2845Y3631*
X2851Y3634*
X2861*
X2867Y3631*
X2870Y3628*
X2970Y3603D02*
X2967Y3600D01*
X2961Y3597*
X2951*
X2945Y3600*
X2942Y3603*
X2939Y3609*
Y3622*
X2942Y3628*
X2945Y3631*
X2951Y3634*
X2961*
X2967Y3631*
X2970Y3628*
X3064Y1982D02*
X3070Y1979D01*
X3073Y1972*
X3070Y1966*
X3064Y1963*
X3042*
Y2000*
X3064*
X3070Y1997*
X3073Y1991*
X3070Y1985*
X3064Y1982*
X3042*
X3077Y1161D02*
X3084Y1158D01*
X3087Y1151*
X3084Y1145*
X3077Y1142*
X3056*
Y1180*
X3077*
X3084Y1176*
X3087Y1170*
X3084Y1164*
X3077Y1161*
X3056*
X3246Y3183D02*
X3252Y3179D01*
X3255Y3173*
X3252Y3167*
X3246Y3164*
X3224*
Y3201*
X3246*
X3252Y3198*
X3255Y3192*
X3252Y3186*
X3246Y3183*
X3224*
X3275Y1564D02*
X3282Y1560D01*
X3285Y1554*
X3282Y1548*
X3275Y1545*
X3254*
Y1582*
X3275*
X3282Y1579*
X3285Y1573*
X3282Y1567*
X3275Y1564*
X3254*
X3275Y1864D02*
X3282Y1860D01*
X3285Y1854*
X3282Y1848*
X3275Y1845*
X3254*
Y1882*
X3275*
X3282Y1879*
X3285Y1873*
X3282Y1867*
X3275Y1864*
X3254*
X3275Y3335D02*
X3282Y3332D01*
X3285Y3326*
X3282Y3320*
X3275Y3317*
X3254*
Y3354*
X3275*
X3282Y3351*
X3285Y3345*
X3282Y3338*
X3275Y3335*
X3254*
X3275Y3635D02*
X3282Y3632D01*
X3285Y3626*
X3282Y3620*
X3275Y3617*
X3254*
Y3654*
X3275*
X3282Y3651*
X3285Y3645*
X3282Y3638*
X3275Y3635*
X3254*
X3277Y981D02*
X3284Y978D01*
X3287Y972*
X3284Y965*
X3277Y962*
X3256*
Y1000*
X3277*
X3284Y997*
X3287Y990*
X3284Y984*
X3277Y981*
X3256*
X3277Y1281D02*
X3284Y1278D01*
X3287Y1272*
X3284Y1265*
X3277Y1262*
X3256*
Y1300*
X3277*
X3284Y1297*
X3287Y1290*
X3284Y1284*
X3277Y1281*
X3256*
X3285Y383D02*
X3292Y379D01*
X3295Y373*
X3292Y367*
X3285Y364*
X3263*
Y401*
X3285*
X3292Y398*
X3295Y392*
X3292Y386*
X3285Y383*
X3263*
X3285Y683D02*
X3292Y679D01*
X3295Y673*
X3292Y667*
X3285Y664*
X3263*
Y701*
X3285*
X3292Y698*
X3295Y692*
X3292Y686*
X3285Y683*
X3263*
X3285Y2154D02*
X3292Y2151D01*
X3295Y2145*
X3292Y2139*
X3285Y2135*
X3263*
Y2173*
X3285*
X3292Y2170*
X3295Y2164*
X3292Y2157*
X3285Y2154*
X3263*
X3285Y2454D02*
X3292Y2451D01*
X3295Y2445*
X3292Y2439*
X3285Y2435*
X3263*
Y2473*
X3285*
X3292Y2470*
X3295Y2464*
X3292Y2457*
X3285Y2454*
X3263*
X3285Y2745D02*
X3292Y2742D01*
X3295Y2735*
X3292Y2729*
X3285Y2726*
X3263*
Y2763*
X3285*
X3292Y2760*
X3295Y2754*
X3292Y2748*
X3285Y2745*
X3263*
X3285Y3045D02*
X3292Y3042D01*
X3295Y3035*
X3292Y3029*
X3285Y3026*
X3263*
Y3063*
X3285*
X3292Y3060*
X3295Y3054*
X3292Y3048*
X3285Y3045*
X3263*
X3895Y3406D02*
X3892Y3403D01*
X3886Y3400*
X3876*
X3870Y3403*
X3867Y3406*
X3864Y3412*
Y3425*
X3867Y3431*
X3870Y3434*
X3876Y3437*
X3886*
X3892Y3434*
X3895Y3431*
Y3506D02*
X3892Y3503D01*
X3886Y3500*
X3876*
X3870Y3503*
X3867Y3506*
X3864Y3512*
Y3525*
X3867Y3531*
X3870Y3534*
X3876Y3537*
X3886*
X3892Y3534*
X3895Y3531*
X3905Y1635D02*
X3902Y1631D01*
X3896Y1628*
X3886*
X3880Y1631*
X3877Y1635*
X3874Y1641*
Y1653*
X3877Y1660*
X3880Y1663*
X3886Y1666*
X3896*
X3902Y1663*
X3905Y1660*
Y1735D02*
X3902Y1731D01*
X3896Y1728*
X3886*
X3880Y1731*
X3877Y1735*
X3874Y1741*
Y1753*
X3877Y1760*
X3880Y1763*
X3886Y1766*
X3896*
X3902Y1763*
X3905Y1760*
Y2225D02*
X3902Y2222D01*
X3896Y2219*
X3886*
X3880Y2222*
X3877Y2225*
X3874Y2231*
Y2244*
X3877Y2250*
X3880Y2253*
X3886Y2256*
X3896*
X3902Y2253*
X3905Y2250*
Y2325D02*
X3902Y2322D01*
X3896Y2319*
X3886*
X3880Y2322*
X3877Y2325*
X3874Y2331*
Y2344*
X3877Y2350*
X3880Y2353*
X3886Y2356*
X3896*
X3902Y2353*
X3905Y2350*
Y2806D02*
X3902Y2803D01*
X3896Y2800*
X3886*
X3880Y2803*
X3877Y2806*
X3874Y2812*
Y2825*
X3877Y2831*
X3880Y2834*
X3886Y2837*
X3896*
X3902Y2834*
X3905Y2831*
Y2906D02*
X3902Y2903D01*
X3896Y2900*
X3886*
X3880Y2903*
X3877Y2906*
X3874Y2912*
Y2925*
X3877Y2931*
X3880Y2934*
X3886Y2937*
X3896*
X3902Y2934*
X3905Y2931*
X3911Y1058D02*
X3908Y1055D01*
X3901Y1052*
X3892*
X3886Y1055*
X3883Y1058*
X3880Y1064*
Y1077*
X3883Y1083*
X3886Y1086*
X3892Y1089*
X3901*
X3908Y1086*
X3911Y1083*
Y1158D02*
X3908Y1155D01*
X3901Y1152*
X3892*
X3886Y1155*
X3883Y1158*
X3880Y1164*
Y1177*
X3883Y1183*
X3886Y1186*
X3892Y1189*
X3901*
X3908Y1186*
X3911Y1183*
X3915Y444D02*
X3912Y441D01*
X3905Y437*
X3896*
X3890Y441*
X3887Y444*
X3884Y450*
Y462*
X3887Y469*
X3890Y472*
X3896Y475*
X3905*
X3912Y472*
X3915Y469*
Y544D02*
X3912Y541D01*
X3905Y537*
X3896*
X3890Y541*
X3887Y544*
X3884Y550*
Y562*
X3887Y569*
X3890Y572*
X3896Y575*
X3905*
X3912Y572*
X3915Y569*
D02*
D94*
X260Y3114D03*
X329Y969D03*
Y1269D03*
X367Y3321D03*
X368Y2450D03*
Y2750D03*
X441Y1860D03*
X467Y3321D03*
X524Y460D03*
Y1260D03*
X530Y266D03*
X539Y1417D03*
X560Y3114D03*
X575Y2445D03*
Y2745D03*
X624Y460D03*
Y1260D03*
X724Y460D03*
Y1260D03*
X741Y1860D03*
X775Y2622D03*
X824Y460D03*
Y1260D03*
X830Y266D03*
X839Y1417D03*
X880Y2770D03*
X924Y460D03*
Y1260D03*
X1024Y460D03*
Y1260D03*
X1124Y460D03*
Y1260D03*
X1175Y2622D03*
X1180Y2770D03*
X1215Y1756D03*
Y2056D03*
X1218Y2199D03*
X1224Y460D03*
Y1260D03*
X1324Y460D03*
Y1260D03*
X1418Y2406D03*
X1422Y2758D03*
Y2911D03*
Y3211D03*
X1424Y460D03*
Y1260D03*
X1431Y3469D03*
X1524Y460D03*
Y1260D03*
X1618Y1756D03*
Y2056D03*
Y2199D03*
Y2406D03*
X1622Y2758D03*
X1624Y460D03*
Y1260D03*
X1628Y2911D03*
Y3211D03*
X1687Y2573D03*
X1711Y266D03*
X1724Y460D03*
Y1260D03*
X1731Y3469D03*
X1824Y460D03*
Y1260D03*
X1825Y2327D03*
X1835Y2517D03*
Y2817D03*
X1864Y2209D03*
X1894Y2563D03*
X1904Y2929D03*
Y3329D03*
X1924Y460D03*
Y1260D03*
X1973Y2100D03*
Y2730D03*
X2011Y266D03*
X2024Y460D03*
Y1260D03*
X2041Y2327D03*
X2055Y2234D03*
X2061Y3331D03*
X2091Y2839D03*
X2121Y2915D03*
X2161Y3331D03*
X2202Y545D03*
Y752D03*
X2228Y3154D03*
X2297Y2356D03*
X2355Y2234D03*
X2421Y2915D03*
X2455Y2701D03*
X2539Y3537D03*
X2573Y2435D03*
Y2735D03*
X2602Y545D03*
Y752D03*
X2628Y3154D03*
X2639Y3537D03*
X2642Y1904D03*
X2656Y1083D03*
X2724Y3104D03*
X2739Y3537D03*
X2839D03*
X2942Y1904D03*
X2956Y1083D03*
X3124Y3104D03*
X3154Y1485D03*
Y1785D03*
Y3257D03*
Y3557D03*
X3156Y903D03*
Y1203D03*
X3163Y304D03*
Y604D03*
Y2076D03*
Y2376D03*
Y2667D03*
Y2967D03*
X3764Y3341D03*
Y3441D03*
X3774Y1569D03*
Y1669D03*
Y2160D03*
Y2260D03*
Y2740D03*
Y2840D03*
X3780Y992D03*
Y1092D03*
X3784Y378D03*
Y478D03*
X0Y0D02*
M02*
