%FSLAX23Y23*%
%MOIN*%
G04 EasyPC Gerber Version 12.0.1 Build 2704 *
%ADD11C,0.00100*%
%ADD10C,0.00394*%
%ADD12C,0.00500*%
%ADD14C,0.00700*%
%ADD95C,0.00800*%
%ADD13C,0.01000*%
X0Y0D02*
D02*
D10*
X385Y3577D02*
X356Y3565D01*
X385Y3552*
X363Y3537D02*
X358Y3535D01*
X356Y3530*
Y3525*
X358Y3520*
X363Y3518*
X368*
X373Y3520*
X376Y3525*
Y3530*
X373Y3535*
X368Y3537*
X356D02*
X385D01*
X373Y3498D02*
X376Y3493D01*
Y3486*
X373Y3481*
X368Y3478*
X361*
X358Y3481*
X356Y3486*
Y3491*
X358Y3496*
X361Y3498*
X363*
X366Y3496*
X368Y3491*
Y3486*
X366Y3481*
X363Y3478*
X361D02*
X356D01*
X376Y3454D02*
Y3444D01*
X380Y3449D02*
X358D01*
X356Y3446*
Y3444*
X358Y3442*
X366Y3419D02*
Y3400D01*
X484Y3577D02*
X454Y3565D01*
X484Y3552*
X462Y3537D02*
X457Y3535D01*
X454Y3530*
Y3525*
X457Y3520*
X462Y3518*
X467*
X472Y3520*
X474Y3525*
Y3530*
X472Y3535*
X467Y3537*
X454D02*
X484D01*
X472Y3498D02*
X474Y3493D01*
Y3486*
X472Y3481*
X467Y3478*
X459*
X457Y3481*
X454Y3486*
Y3491*
X457Y3496*
X459Y3498*
X462*
X464Y3496*
X467Y3491*
Y3486*
X464Y3481*
X462Y3478*
X459D02*
X454D01*
X474Y3454D02*
Y3444D01*
X479Y3449D02*
X457D01*
X454Y3446*
Y3444*
X457Y3442*
X464Y3419D02*
Y3400D01*
X454Y3410D02*
X474D01*
X2526Y3664D02*
Y3660D01*
X2525*
X2522Y3661*
X2520Y3663*
X2519Y3666*
Y3669*
X2520Y3672*
X2522Y3674*
X2525Y3675*
X2531*
X2534Y3674*
X2536Y3672*
X2537Y3669*
Y3666*
X2536Y3663*
X2534Y3661*
X2531Y3660*
X2519Y3650D02*
X2537D01*
X2519Y3635*
X2537*
X2519Y3625D02*
X2537D01*
Y3616*
X2536Y3613*
X2534Y3611*
X2531Y3610*
X2525*
X2522Y3611*
X2520Y3613*
X2519Y3616*
Y3625*
X2631Y3724D02*
X2628Y3723D01*
X2627Y3720*
Y3714*
X2628Y3710*
X2631Y3709*
X2635Y3710*
X2636Y3714*
Y3720*
X2638Y3723*
X2641Y3724*
X2644Y3723*
X2646Y3720*
Y3714*
X2644Y3710*
X2641Y3709*
X2646Y3699D02*
X2627Y3698D01*
X2636Y3692*
X2627Y3685*
X2646Y3684*
X2630Y3659D02*
X2628Y3660D01*
X2627Y3664*
Y3668*
X2628Y3671*
X2630Y3673*
X2633Y3674*
X2639*
X2642Y3673*
X2644Y3671*
X2646Y3668*
Y3664*
X2644Y3660*
X2642Y3659*
X2646Y3649D02*
X2627D01*
Y3634*
Y3624D02*
X2646D01*
X2636D02*
Y3620D01*
X2646Y3609*
X2636Y3620D02*
X2627Y3609D01*
X2730Y3724D02*
X2727Y3723D01*
X2725Y3720*
Y3714*
X2727Y3710*
X2730Y3709*
X2733Y3710*
X2735Y3714*
Y3720*
X2736Y3723*
X2739Y3724*
X2742Y3723*
X2744Y3720*
Y3714*
X2742Y3710*
X2739Y3709*
X2744Y3699D02*
X2725Y3698D01*
X2735Y3692*
X2725Y3685*
X2744Y3684*
X2725Y3674D02*
X2744D01*
Y3665*
X2742Y3662*
X2741Y3660*
X2738Y3659*
X2731*
X2728Y3660*
X2727Y3662*
X2725Y3665*
Y3674*
Y3645D02*
Y3639D01*
Y3642D02*
X2744D01*
Y3645D02*
Y3639D01*
X2731Y3624D02*
X2738D01*
X2741Y3623*
X2742Y3621*
X2744Y3618*
Y3615*
X2742Y3612*
X2741Y3610*
X2738Y3609*
X2731*
X2728Y3610*
X2727Y3612*
X2725Y3615*
Y3618*
X2727Y3621*
X2728Y3623*
X2731Y3624*
X2852Y3675D02*
X2833Y3667D01*
X2852Y3660*
X2844Y3638D02*
X2846Y3641D01*
Y3646*
X2844Y3649*
X2841Y3650*
X2838*
X2835Y3649*
X2833Y3646*
Y3641*
X2835Y3638*
X2844Y3613D02*
X2846Y3616D01*
Y3621*
X2844Y3624*
X2841Y3625*
X2838*
X2835Y3624*
X2833Y3621*
Y3616*
X2835Y3613*
D02*
D11*
X712Y3823D02*
Y3793D01*
X711Y3787*
X709Y3784*
X704Y3780*
X699Y3780*
X697*
X693Y3780*
X691Y3781*
X689Y3782*
Y3787*
X694Y3785*
X699Y3784*
X702Y3785*
X704Y3787*
X705Y3789*
X706Y3793*
Y3818*
X690*
Y3823*
X712*
X754Y3818D02*
X741D01*
Y3780*
X736*
Y3818*
X723*
Y3823*
X754*
Y3818*
X827Y3803D02*
X826Y3795D01*
X824Y3788*
X830Y3780*
X823*
X820Y3784*
X815Y3780*
X809Y3780*
X804Y3780*
X799Y3783*
X797Y3787*
X796Y3792*
X797Y3796*
X798Y3800*
X801Y3803*
X804Y3805*
X804Y3806*
X800Y3811*
X800Y3816*
X800Y3820*
X803Y3824*
X806Y3826*
X811Y3827*
X815Y3826*
X819Y3824*
X821Y3821*
X822Y3817*
X821Y3813*
X819Y3810*
X815Y3806*
X811Y3805*
X820Y3793*
X822Y3798*
Y3803*
X827*
X802Y3792D02*
X803Y3789D01*
X804Y3787*
X807Y3785*
X810Y3784*
X814Y3785*
X817Y3787*
X807Y3802*
X805Y3799*
X804Y3798*
X802Y3795*
Y3792*
X816Y3817D02*
Y3819D01*
X815Y3821*
X811Y3822*
X808Y3821*
X807Y3821*
X805Y3818*
Y3817*
X806Y3813*
X808Y3810*
Y3808*
X811Y3810*
X814Y3812*
X815Y3813*
X816Y3817*
X883Y3780D02*
X877Y3782D01*
X873Y3786*
X871Y3793*
X870Y3801*
Y3806*
X871Y3811*
X874Y3818*
X880Y3822*
X886Y3824*
X893Y3822*
X899Y3818*
X902Y3811*
X903Y3802*
X902Y3793*
X899Y3786*
X894Y3782*
X889Y3780*
X891Y3775*
X893Y3773*
X896*
X899Y3774*
X902Y3776*
X904Y3772*
X900Y3769*
X896Y3769*
X891Y3769*
X887Y3771*
X885Y3775*
X883Y3780*
X897Y3801D02*
X896Y3808D01*
X894Y3813*
X891Y3817*
X886Y3818*
X882Y3817*
X878Y3813*
X877Y3808*
X876Y3802*
X877Y3795*
X878Y3789*
X882Y3785*
X886Y3784*
X891Y3786*
X894Y3789*
X896Y3795*
X897Y3801*
X938Y3782D02*
X933Y3780D01*
X927Y3780*
X919Y3781*
X913Y3785*
X910Y3791*
X908Y3801*
X910Y3810*
X914Y3817*
X919Y3822*
X928Y3824*
X934Y3823*
X938Y3821*
Y3816*
X934Y3817*
X928Y3818*
X923Y3817*
X919Y3813*
X915Y3809*
X915Y3802*
X915Y3795*
X918Y3789*
X923Y3786*
X928Y3785*
X934Y3786*
X938Y3787*
Y3782*
X891Y3769D02*
X900D01*
X888Y3770D02*
X902D01*
X887Y3771D02*
X904D01*
X886Y3772D02*
X904D01*
X886Y3773D02*
X903D01*
X885Y3774D02*
X892D01*
X899D02*
X903D01*
X885Y3775D02*
X891D01*
X901D02*
X902D01*
X884Y3776D02*
X890D01*
X884Y3777D02*
X890D01*
X884Y3778D02*
X889D01*
X883Y3779D02*
X889D01*
X696Y3780D02*
X700D01*
X808D02*
X811D01*
X883D02*
X889D01*
X926D02*
X928D01*
X692Y3781D02*
X705D01*
X736D02*
X741D01*
X803D02*
X816D01*
X822D02*
X830D01*
X880D02*
X891D01*
X922D02*
X934D01*
X690Y3782D02*
X706D01*
X736D02*
X741D01*
X801D02*
X817D01*
X822D02*
X829D01*
X878D02*
X893D01*
X919D02*
X937D01*
X689Y3783D02*
X708D01*
X736D02*
X741D01*
X799D02*
X819D01*
X821D02*
X829D01*
X876D02*
X895D01*
X917D02*
X938D01*
X689Y3784D02*
X709D01*
X736D02*
X741D01*
X798D02*
X828D01*
X875D02*
X896D01*
X916D02*
X938D01*
X689Y3784D02*
X698D01*
X699D02*
X710D01*
X736D02*
X741D01*
X798D02*
X809D01*
X811D02*
X827D01*
X874D02*
X885D01*
X887D02*
X897D01*
X914D02*
X938D01*
X689Y3785D02*
X694D01*
X702D02*
X710D01*
X736D02*
X741D01*
X797D02*
X806D01*
X814D02*
X826D01*
X873D02*
X881D01*
X890D02*
X898D01*
X913D02*
X926D01*
X930D02*
X938D01*
X689Y3786D02*
X692D01*
X704D02*
X711D01*
X736D02*
X741D01*
X797D02*
X805D01*
X815D02*
X826D01*
X873D02*
X881D01*
X891D02*
X899D01*
X912D02*
X922D01*
X935D02*
X938D01*
X689Y3787D02*
X690D01*
X705D02*
X711D01*
X736D02*
X741D01*
X796D02*
X804D01*
X817D02*
X825D01*
X872D02*
X880D01*
X892D02*
X899D01*
X912D02*
X920D01*
X938D02*
X938D01*
X705Y3788D02*
X712D01*
X736D02*
X741D01*
X796D02*
X803D01*
X816D02*
X824D01*
X872D02*
X879D01*
X893D02*
X900D01*
X912D02*
X919D01*
X705Y3789D02*
X712D01*
X736D02*
X741D01*
X796D02*
X803D01*
X816D02*
X824D01*
X872D02*
X878D01*
X894D02*
X900D01*
X911D02*
X918D01*
X705Y3790D02*
X712D01*
X736D02*
X741D01*
X796D02*
X803D01*
X815D02*
X825D01*
X872D02*
X878D01*
X894D02*
X901D01*
X911D02*
X917D01*
X706Y3791D02*
X712D01*
X736D02*
X741D01*
X796D02*
X802D01*
X814D02*
X825D01*
X871D02*
X878D01*
X895D02*
X901D01*
X910D02*
X917D01*
X706Y3792D02*
X712D01*
X736D02*
X741D01*
X796D02*
X802D01*
X814D02*
X825D01*
X871D02*
X878D01*
X895D02*
X902D01*
X910D02*
X917D01*
X706Y3793D02*
X712D01*
X736D02*
X741D01*
X796D02*
X802D01*
X813D02*
X826D01*
X871D02*
X877D01*
X895D02*
X902D01*
X910D02*
X916D01*
X706Y3794D02*
X712D01*
X736D02*
X741D01*
X796D02*
X802D01*
X812D02*
X820D01*
X820D02*
X826D01*
X870D02*
X877D01*
X896D02*
X902D01*
X909D02*
X916D01*
X706Y3795D02*
X712D01*
X736D02*
X741D01*
X796D02*
X802D01*
X812D02*
X819D01*
X821D02*
X826D01*
X870D02*
X877D01*
X896D02*
X902D01*
X909D02*
X915D01*
X706Y3796D02*
X712D01*
X736D02*
X741D01*
X796D02*
X802D01*
X811D02*
X818D01*
X821D02*
X826D01*
X870D02*
X877D01*
X896D02*
X902D01*
X909D02*
X915D01*
X706Y3797D02*
X712D01*
X736D02*
X741D01*
X797D02*
X803D01*
X810D02*
X817D01*
X821D02*
X827D01*
X870D02*
X877D01*
X896D02*
X902D01*
X909D02*
X915D01*
X706Y3798D02*
X712D01*
X736D02*
X741D01*
X797D02*
X804D01*
X810D02*
X817D01*
X822D02*
X827D01*
X870D02*
X876D01*
X896D02*
X902D01*
X909D02*
X915D01*
X706Y3799D02*
X712D01*
X736D02*
X741D01*
X797D02*
X804D01*
X809D02*
X816D01*
X822D02*
X827D01*
X870D02*
X876D01*
X896D02*
X903D01*
X909D02*
X915D01*
X706Y3799D02*
X712D01*
X736D02*
X741D01*
X798D02*
X805D01*
X808D02*
X815D01*
X822D02*
X827D01*
X870D02*
X876D01*
X896D02*
X903D01*
X909D02*
X915D01*
X706Y3800D02*
X712D01*
X736D02*
X741D01*
X798D02*
X806D01*
X808D02*
X815D01*
X822D02*
X827D01*
X870D02*
X876D01*
X896D02*
X903D01*
X908D02*
X915D01*
X706Y3801D02*
X712D01*
X736D02*
X741D01*
X799D02*
X807D01*
X807D02*
X814D01*
X822D02*
X827D01*
X870D02*
X876D01*
X896D02*
X903D01*
X908D02*
X915D01*
X706Y3802D02*
X712D01*
X736D02*
X741D01*
X800D02*
X813D01*
X822D02*
X827D01*
X870D02*
X876D01*
X896D02*
X903D01*
X909D02*
X915D01*
X706Y3803D02*
X712D01*
X736D02*
X741D01*
X801D02*
X813D01*
X870D02*
X876D01*
X896D02*
X903D01*
X909D02*
X915D01*
X706Y3804D02*
X712D01*
X736D02*
X741D01*
X803D02*
X812D01*
X870D02*
X876D01*
X896D02*
X903D01*
X909D02*
X915D01*
X706Y3805D02*
X712D01*
X736D02*
X741D01*
X804D02*
X812D01*
X870D02*
X876D01*
X896D02*
X903D01*
X909D02*
X915D01*
X706Y3806D02*
X712D01*
X736D02*
X741D01*
X804D02*
X815D01*
X870D02*
X877D01*
X896D02*
X902D01*
X909D02*
X915D01*
X706Y3807D02*
X712D01*
X736D02*
X741D01*
X803D02*
X816D01*
X870D02*
X877D01*
X896D02*
X902D01*
X909D02*
X915D01*
X706Y3808D02*
X712D01*
X736D02*
X741D01*
X803D02*
X817D01*
X870D02*
X877D01*
X896D02*
X902D01*
X910D02*
X915D01*
X706Y3809D02*
X712D01*
X736D02*
X741D01*
X802D02*
X808D01*
X810D02*
X818D01*
X871D02*
X877D01*
X895D02*
X902D01*
X910D02*
X915D01*
X706Y3810D02*
X712D01*
X736D02*
X741D01*
X801D02*
X808D01*
X812D02*
X819D01*
X871D02*
X877D01*
X895D02*
X902D01*
X910D02*
X916D01*
X706Y3811D02*
X712D01*
X736D02*
X741D01*
X801D02*
X807D01*
X813D02*
X819D01*
X871D02*
X878D01*
X895D02*
X902D01*
X910D02*
X917D01*
X706Y3812D02*
X712D01*
X736D02*
X741D01*
X800D02*
X807D01*
X814D02*
X820D01*
X872D02*
X878D01*
X895D02*
X902D01*
X911D02*
X917D01*
X706Y3813D02*
X712D01*
X736D02*
X741D01*
X800D02*
X806D01*
X815D02*
X821D01*
X872D02*
X878D01*
X894D02*
X901D01*
X911D02*
X918D01*
X706Y3814D02*
X712D01*
X736D02*
X741D01*
X800D02*
X806D01*
X815D02*
X821D01*
X872D02*
X878D01*
X894D02*
X901D01*
X912D02*
X919D01*
X706Y3814D02*
X712D01*
X736D02*
X741D01*
X800D02*
X806D01*
X816D02*
X821D01*
X873D02*
X879D01*
X893D02*
X901D01*
X912D02*
X920D01*
X706Y3815D02*
X712D01*
X736D02*
X741D01*
X800D02*
X805D01*
X816D02*
X821D01*
X873D02*
X880D01*
X892D02*
X900D01*
X913D02*
X921D01*
X706Y3816D02*
X712D01*
X736D02*
X741D01*
X800D02*
X805D01*
X816D02*
X822D01*
X874D02*
X881D01*
X891D02*
X900D01*
X913D02*
X922D01*
X937D02*
X938D01*
X706Y3817D02*
X712D01*
X736D02*
X741D01*
X800D02*
X805D01*
X816D02*
X822D01*
X874D02*
X884D01*
X889D02*
X899D01*
X914D02*
X925D01*
X934D02*
X938D01*
X690Y3818D02*
X712D01*
X723D02*
X754D01*
X800D02*
X805D01*
X816D02*
X822D01*
X874D02*
X899D01*
X915D02*
X938D01*
X690Y3819D02*
X712D01*
X723D02*
X754D01*
X800D02*
X806D01*
X816D02*
X821D01*
X876D02*
X898D01*
X916D02*
X938D01*
X690Y3820D02*
X712D01*
X723D02*
X754D01*
X801D02*
X806D01*
X815D02*
X821D01*
X877D02*
X896D01*
X917D02*
X938D01*
X690Y3821D02*
X712D01*
X723D02*
X754D01*
X801D02*
X808D01*
X813D02*
X821D01*
X878D02*
X895D01*
X918D02*
X938D01*
X690Y3822D02*
X712D01*
X723D02*
X754D01*
X802D02*
X810D01*
X811D02*
X820D01*
X880D02*
X894D01*
X919D02*
X936D01*
X690Y3823D02*
X712D01*
X723D02*
X754D01*
X802D02*
X820D01*
X883D02*
X890D01*
X924D02*
X934D01*
X803Y3824D02*
X819D01*
X804Y3825D02*
X818D01*
X805Y3826D02*
X816D01*
X810Y3827D02*
X813D01*
X719Y3686D02*
X713D01*
X712Y3713*
Y3723*
X710Y3717*
X704Y3700*
X700*
X693Y3717*
X692Y3723*
X691Y3713*
Y3686*
X685*
X687Y3728*
X694*
X700Y3712*
X702Y3706*
X704Y3712*
X710Y3728*
X717*
X719Y3686*
X747D02*
Y3691D01*
X744Y3687*
X741Y3686*
X735Y3685*
X730Y3686*
X727Y3687*
X726Y3691*
X725Y3695*
X726Y3699*
X729Y3702*
X733Y3705*
X739Y3706*
X746*
Y3709*
X745Y3711*
X745Y3713*
X742Y3714*
X738Y3715*
X733Y3714*
X727Y3713*
Y3718*
X730Y3719*
X733*
X736Y3720*
X739*
X745Y3719*
X748Y3717*
X751Y3713*
X752Y3709*
Y3686*
X747*
X746Y3701D02*
X739D01*
X736Y3700*
X733Y3699*
X732Y3697*
X731Y3695*
Y3693*
X733Y3691*
X734Y3690*
X737*
X741Y3691*
X744Y3692*
X746Y3695*
Y3701*
X792Y3719D02*
X780Y3690D01*
X778Y3685*
X777Y3681*
X773Y3676*
X768Y3673*
X762Y3672*
X760*
X760Y3671*
Y3676*
X760*
X763*
X765Y3677*
X768Y3679*
X771Y3681*
X772Y3686*
X760Y3719*
X766*
X774Y3697*
X776Y3692*
X778Y3697*
X785Y3719*
X792*
X863Y3686D02*
X860Y3685D01*
X856*
X850Y3686*
X846Y3688*
X844Y3691*
X843Y3697*
Y3714*
X834*
Y3719*
X843*
Y3728*
X848Y3729*
Y3719*
X863*
Y3714*
X848*
Y3697*
Y3694*
X850Y3691*
X852Y3690*
X856*
X860*
X863Y3691*
Y3686*
X900D02*
X894D01*
Y3707*
Y3710*
X893Y3713*
X891Y3714*
X889Y3715*
X886*
X885Y3713*
X882Y3711*
X879Y3708*
Y3686*
X874*
Y3732*
X879*
Y3719*
Y3714*
X882Y3717*
X884Y3718*
X887Y3720*
X889*
X894Y3719*
X897Y3717*
X899Y3713*
X900Y3708*
Y3686*
X938Y3704D02*
Y3702D01*
Y3701*
X915*
X916Y3696*
X919Y3693*
X922Y3691*
X926Y3690*
X929*
X932Y3691*
X934*
X937Y3691*
Y3687*
X931Y3685*
X926*
X918Y3686*
X913Y3690*
X910Y3695*
X909Y3702*
X910Y3709*
X913Y3714*
X918Y3718*
X924Y3720*
X930Y3719*
X934Y3716*
X937Y3711*
X938Y3704*
X932Y3706D02*
Y3710D01*
X930Y3713*
X927Y3714*
X924Y3715*
X920Y3714*
X918Y3713*
X916Y3710*
X915Y3706*
X932*
X1011Y3724D02*
X993D01*
Y3710*
X1010*
Y3705*
X993*
Y3686*
X986*
Y3728*
X1011*
Y3724*
X1050Y3702D02*
X1049Y3695D01*
X1046Y3690*
X1041Y3687*
X1034Y3685*
X1028Y3686*
X1023Y3689*
X1020Y3695*
X1019Y3702*
X1020Y3710*
X1023Y3715*
X1029Y3718*
X1035Y3720*
X1041Y3718*
X1046Y3715*
X1049Y3710*
X1050Y3702*
X1045D02*
X1044Y3708D01*
X1042Y3712*
X1039Y3714*
X1035Y3715*
X1030Y3714*
X1027Y3711*
X1026Y3707*
X1025Y3702*
X1026Y3697*
X1027Y3693*
X1030Y3691*
X1035Y3690*
X1039Y3691*
X1042Y3694*
X1044Y3698*
X1045Y3702*
X1060Y3719D02*
X1064D01*
X1065Y3713*
X1067Y3716*
X1071Y3718*
X1073Y3719*
X1076Y3720*
X1081Y3719*
X1084Y3717*
X1085Y3712*
X1086Y3706*
X1081*
Y3710*
X1079Y3713*
X1078Y3714*
X1075Y3715*
X1073Y3714*
X1071Y3713*
X1068Y3710*
X1065Y3707*
Y3686*
X1060*
Y3719*
X1121Y3687D02*
X1116Y3685D01*
X1111*
X1105Y3686*
X1100Y3689*
X1097Y3695*
X1096Y3702*
X1097Y3710*
X1100Y3715*
X1105Y3718*
X1112Y3720*
X1117Y3719*
X1121Y3718*
Y3713*
X1117Y3714*
X1112Y3715*
X1108Y3714*
X1105Y3712*
X1103Y3707*
X1102Y3702*
X1103Y3697*
X1105Y3693*
X1108Y3691*
X1112Y3690*
X1117Y3691*
X1121Y3692*
Y3687*
X1160Y3704D02*
Y3702D01*
Y3701*
X1137*
X1138Y3696*
X1141Y3693*
X1144Y3691*
X1148Y3690*
X1151*
X1154Y3691*
X1156*
X1159Y3691*
Y3687*
X1153Y3685*
X1148*
X1140Y3686*
X1135Y3690*
X1132Y3695*
X1131Y3702*
X1132Y3709*
X1135Y3714*
X1140Y3718*
X1146Y3720*
X1152Y3719*
X1156Y3716*
X1160Y3711*
X1160Y3704*
X1154Y3706D02*
Y3710D01*
X1152Y3713*
X1149Y3714*
X1146Y3715*
X1142Y3714*
X1140Y3713*
X1138Y3710*
X1137Y3706*
X1154*
X1234Y3703D02*
X1234Y3695D01*
X1230Y3690*
X1225Y3686*
X1219Y3685*
X1213Y3686*
X1207Y3687*
Y3732*
X1212*
Y3720*
Y3713*
X1215Y3717*
X1217Y3718*
X1223Y3720*
X1228Y3718*
X1231Y3715*
X1234Y3710*
X1234Y3703*
X1229Y3702D02*
Y3708D01*
X1227Y3712*
X1225Y3714*
X1222Y3715*
X1220Y3714*
X1218Y3713*
X1215Y3711*
X1212Y3708*
Y3691*
X1215Y3690*
X1219*
X1223Y3691*
X1226Y3692*
X1228Y3697*
X1229Y3702*
X1271Y3704D02*
Y3702D01*
Y3701*
X1248*
X1249Y3696*
X1252Y3693*
X1255Y3691*
X1260Y3690*
X1262*
X1265Y3691*
X1267*
X1270Y3691*
Y3687*
X1264Y3685*
X1259*
X1251Y3686*
X1246Y3690*
X1243Y3695*
X1242Y3702*
X1243Y3709*
X1246Y3714*
X1251Y3718*
X1257Y3720*
X1263Y3719*
X1267Y3716*
X1271Y3711*
X1271Y3704*
X1265Y3706D02*
Y3710D01*
X1263Y3713*
X1260Y3714*
X1257Y3715*
X1253Y3714*
X1251Y3713*
X1249Y3710*
X1248Y3706*
X1265*
X1348Y3719D02*
X1343Y3686D01*
X1337*
X1332Y3700*
X1331Y3704*
X1330Y3700*
X1325Y3686*
X1318*
X1314Y3719*
X1319*
X1322Y3696*
X1323Y3691*
X1323Y3695*
X1329Y3711*
X1333*
X1338Y3696*
X1340Y3691*
Y3696*
X1342Y3719*
X1348*
X1366Y3714D02*
X1356D01*
Y3719*
X1371*
Y3691*
X1381*
Y3686*
X1355*
Y3691*
X1366*
Y3714*
X1368Y3732D02*
X1370Y3732D01*
X1371Y3731*
X1372Y3730*
Y3728*
Y3726*
X1371Y3725*
X1370Y3724*
X1368*
X1366*
X1365Y3725*
X1363Y3726*
Y3728*
Y3730*
X1365Y3731*
X1366Y3732*
X1368Y3732*
X1419Y3686D02*
X1415Y3685D01*
X1411*
X1405Y3686*
X1401Y3688*
X1399Y3691*
X1398Y3697*
Y3714*
X1389*
Y3719*
X1398*
Y3728*
X1404Y3729*
Y3719*
X1419*
Y3714*
X1404*
Y3697*
Y3694*
X1405Y3691*
X1408Y3690*
X1411*
X1415*
X1419Y3691*
Y3686*
X1455D02*
X1449D01*
Y3707*
Y3710*
X1448Y3713*
X1446Y3714*
X1444Y3715*
X1441*
X1440Y3713*
X1437Y3711*
X1434Y3708*
Y3686*
X1429*
Y3732*
X1434*
Y3719*
Y3714*
X1437Y3717*
X1439Y3718*
X1442Y3720*
X1445*
X1449Y3719*
X1452Y3717*
X1454Y3713*
X1455Y3708*
Y3686*
X1532Y3719D02*
X1520Y3690D01*
X1519Y3685*
X1517Y3681*
X1513Y3676*
X1508Y3673*
X1502Y3672*
X1500*
X1500Y3671*
Y3676*
X1500*
X1503*
X1505Y3677*
X1508Y3679*
X1511Y3681*
X1512Y3686*
X1500Y3719*
X1506*
X1514Y3697*
X1516Y3692*
X1518Y3697*
X1526Y3719*
X1532*
X1568Y3702D02*
X1567Y3695D01*
X1564Y3690*
X1559Y3687*
X1552Y3685*
X1546Y3686*
X1541Y3689*
X1538Y3695*
X1537Y3702*
X1538Y3710*
X1541Y3715*
X1547Y3718*
X1553Y3720*
X1560Y3718*
X1564Y3715*
X1567Y3710*
X1568Y3702*
X1563D02*
X1562Y3708D01*
X1560Y3712*
X1557Y3714*
X1553Y3715*
X1548Y3714*
X1545Y3711*
X1544Y3707*
X1543Y3702*
X1544Y3697*
X1545Y3693*
X1548Y3691*
X1553Y3690*
X1557Y3691*
X1560Y3694*
X1562Y3698*
X1563Y3702*
X1603Y3686D02*
X1598D01*
X1597Y3691*
X1595Y3688*
X1593Y3687*
X1589Y3685*
X1587*
X1582Y3686*
X1579Y3688*
X1578Y3691*
X1577Y3697*
Y3719*
X1582*
Y3698*
Y3694*
X1584Y3691*
X1585Y3691*
X1588Y3690*
X1590*
X1592Y3691*
X1594Y3693*
X1597Y3697*
Y3719*
X1603*
Y3686*
X760Y3671D02*
X760D01*
X1500D02*
X1500D01*
X760Y3672D02*
X764D01*
X1500D02*
X1504D01*
X760Y3673D02*
X769D01*
X1500D02*
X1509D01*
X760Y3674D02*
X770D01*
X1500D02*
X1510D01*
X760Y3675D02*
X772D01*
X1500D02*
X1512D01*
X760Y3676D02*
X773D01*
X1500D02*
X1513D01*
X763Y3677D02*
X774D01*
X1504D02*
X1514D01*
X766Y3678D02*
X774D01*
X1506D02*
X1514D01*
X768Y3679D02*
X775D01*
X1508D02*
X1515D01*
X769Y3680D02*
X776D01*
X1509D02*
X1516D01*
X770Y3680D02*
X776D01*
X1510D02*
X1516D01*
X771Y3681D02*
X777D01*
X1511D02*
X1517D01*
X771Y3682D02*
X777D01*
X1511D02*
X1517D01*
X771Y3683D02*
X778D01*
X1511D02*
X1518D01*
X772Y3684D02*
X778D01*
X1512D02*
X1518D01*
X735Y3685D02*
X735D01*
X772D02*
X778D01*
X855D02*
X860D01*
X925D02*
X931D01*
X1034D02*
X1034D01*
X1111D02*
X1116D01*
X1147D02*
X1153D01*
X1218D02*
X1219D01*
X1258D02*
X1264D01*
X1410D02*
X1415D01*
X1512D02*
X1519D01*
X1552D02*
X1553D01*
X1587D02*
X1589D01*
X686Y3686D02*
X691D01*
X713D02*
X719D01*
X730D02*
X742D01*
X747D02*
X752D01*
X772D02*
X779D01*
X850D02*
X863D01*
X874D02*
X879D01*
X894D02*
X900D01*
X918D02*
X935D01*
X986D02*
X993D01*
X1028D02*
X1038D01*
X1060D02*
X1065D01*
X1105D02*
X1119D01*
X1140D02*
X1157D01*
X1212D02*
X1225D01*
X1251D02*
X1268D01*
X1318D02*
X1325D01*
X1337D02*
X1343D01*
X1355D02*
X1381D01*
X1405D02*
X1419D01*
X1429D02*
X1434D01*
X1449D02*
X1455D01*
X1512D02*
X1519D01*
X1546D02*
X1556D01*
X1582D02*
X1591D01*
X1598D02*
X1603D01*
X686Y3687D02*
X691D01*
X713D02*
X719D01*
X728D02*
X743D01*
X747D02*
X752D01*
X772D02*
X779D01*
X848D02*
X863D01*
X874D02*
X879D01*
X894D02*
X900D01*
X916D02*
X937D01*
X986D02*
X993D01*
X1026D02*
X1041D01*
X1060D02*
X1065D01*
X1103D02*
X1121D01*
X1138D02*
X1159D01*
X1209D02*
X1226D01*
X1250D02*
X1270D01*
X1318D02*
X1325D01*
X1336D02*
X1343D01*
X1355D02*
X1381D01*
X1403D02*
X1419D01*
X1429D02*
X1434D01*
X1449D02*
X1455D01*
X1512D02*
X1519D01*
X1544D02*
X1559D01*
X1581D02*
X1593D01*
X1598D02*
X1603D01*
X686Y3688D02*
X691D01*
X713D02*
X718D01*
X727D02*
X744D01*
X747D02*
X752D01*
X771D02*
X779D01*
X847D02*
X863D01*
X874D02*
X879D01*
X894D02*
X900D01*
X915D02*
X937D01*
X986D02*
X993D01*
X1025D02*
X1043D01*
X1060D02*
X1065D01*
X1102D02*
X1121D01*
X1137D02*
X1159D01*
X1207D02*
X1228D01*
X1248D02*
X1270D01*
X1318D02*
X1326D01*
X1336D02*
X1343D01*
X1355D02*
X1381D01*
X1402D02*
X1419D01*
X1429D02*
X1434D01*
X1449D02*
X1455D01*
X1511D02*
X1520D01*
X1543D02*
X1561D01*
X1580D02*
X1594D01*
X1598D02*
X1603D01*
X686Y3689D02*
X691D01*
X713D02*
X718D01*
X727D02*
X745D01*
X747D02*
X752D01*
X771D02*
X780D01*
X846D02*
X863D01*
X874D02*
X879D01*
X894D02*
X900D01*
X914D02*
X937D01*
X986D02*
X993D01*
X1024D02*
X1044D01*
X1060D02*
X1065D01*
X1100D02*
X1121D01*
X1136D02*
X1159D01*
X1207D02*
X1229D01*
X1247D02*
X1270D01*
X1317D02*
X1326D01*
X1336D02*
X1343D01*
X1355D02*
X1381D01*
X1401D02*
X1419D01*
X1429D02*
X1434D01*
X1449D02*
X1455D01*
X1511D02*
X1520D01*
X1542D02*
X1563D01*
X1579D02*
X1595D01*
X1598D02*
X1603D01*
X686Y3690D02*
X691D01*
X713D02*
X718D01*
X726D02*
X734D01*
X737D02*
X746D01*
X747D02*
X752D01*
X771D02*
X780D01*
X845D02*
X852D01*
X859D02*
X863D01*
X874D02*
X879D01*
X894D02*
X900D01*
X913D02*
X926D01*
X929D02*
X937D01*
X986D02*
X993D01*
X1023D02*
X1035D01*
X1035D02*
X1046D01*
X1060D02*
X1065D01*
X1099D02*
X1112D01*
X1112D02*
X1121D01*
X1135D02*
X1148D01*
X1151D02*
X1159D01*
X1207D02*
X1215D01*
X1219D02*
X1230D01*
X1246D02*
X1260D01*
X1262D02*
X1270D01*
X1317D02*
X1326D01*
X1335D02*
X1344D01*
X1355D02*
X1381D01*
X1400D02*
X1408D01*
X1415D02*
X1419D01*
X1429D02*
X1434D01*
X1449D02*
X1455D01*
X1511D02*
X1520D01*
X1541D02*
X1553D01*
X1553D02*
X1564D01*
X1578D02*
X1588D01*
X1590D02*
X1596D01*
X1598D02*
X1603D01*
X686Y3691D02*
X691D01*
X713D02*
X718D01*
X726D02*
X733D01*
X741D02*
X752D01*
X770D02*
X780D01*
X844D02*
X851D01*
X874D02*
X879D01*
X894D02*
X900D01*
X913D02*
X922D01*
X935D02*
X937D01*
X986D02*
X993D01*
X1022D02*
X1030D01*
X1039D02*
X1047D01*
X1060D02*
X1065D01*
X1099D02*
X1108D01*
X1117D02*
X1121D01*
X1135D02*
X1144D01*
X1157D02*
X1159D01*
X1207D02*
X1214D01*
X1223D02*
X1231D01*
X1246D02*
X1255D01*
X1268D02*
X1270D01*
X1317D02*
X1326D01*
X1335D02*
X1344D01*
X1366D02*
X1371D01*
X1399D02*
X1406D01*
X1429D02*
X1434D01*
X1449D02*
X1455D01*
X1510D02*
X1521D01*
X1540D02*
X1548D01*
X1557D02*
X1565D01*
X1578D02*
X1585D01*
X1591D02*
X1597D01*
X1597D02*
X1603D01*
X686Y3692D02*
X691D01*
X713D02*
X718D01*
X725D02*
X732D01*
X743D02*
X752D01*
X770D02*
X781D01*
X844D02*
X850D01*
X874D02*
X879D01*
X894D02*
X900D01*
X912D02*
X920D01*
X986D02*
X993D01*
X1022D02*
X1029D01*
X1040D02*
X1047D01*
X1060D02*
X1065D01*
X1098D02*
X1107D01*
X1120D02*
X1121D01*
X1134D02*
X1142D01*
X1207D02*
X1212D01*
X1225D02*
X1231D01*
X1245D02*
X1253D01*
X1317D02*
X1322D01*
X1323D02*
X1327D01*
X1335D02*
X1340D01*
X1340D02*
X1344D01*
X1366D02*
X1371D01*
X1399D02*
X1405D01*
X1429D02*
X1434D01*
X1449D02*
X1455D01*
X1510D02*
X1521D01*
X1540D02*
X1547D01*
X1558D02*
X1565D01*
X1578D02*
X1584D01*
X1592D02*
X1603D01*
X686Y3693D02*
X691D01*
X713D02*
X718D01*
X725D02*
X732D01*
X744D02*
X752D01*
X770D02*
X776D01*
X776D02*
X781D01*
X844D02*
X849D01*
X874D02*
X879D01*
X894D02*
X900D01*
X911D02*
X919D01*
X986D02*
X993D01*
X1021D02*
X1028D01*
X1041D02*
X1048D01*
X1060D02*
X1065D01*
X1098D02*
X1106D01*
X1134D02*
X1141D01*
X1207D02*
X1212D01*
X1226D02*
X1232D01*
X1245D02*
X1252D01*
X1317D02*
X1322D01*
X1323D02*
X1327D01*
X1334D02*
X1339D01*
X1340D02*
X1344D01*
X1366D02*
X1371D01*
X1399D02*
X1404D01*
X1429D02*
X1434D01*
X1449D02*
X1455D01*
X1510D02*
X1516D01*
X1516D02*
X1521D01*
X1539D02*
X1546D01*
X1559D02*
X1566D01*
X1577D02*
X1583D01*
X1594D02*
X1603D01*
X686Y3694D02*
X691D01*
X713D02*
X718D01*
X725D02*
X731D01*
X745D02*
X752D01*
X769D02*
X775D01*
X777D02*
X781D01*
X843D02*
X849D01*
X874D02*
X879D01*
X894D02*
X900D01*
X911D02*
X918D01*
X986D02*
X993D01*
X1021D02*
X1027D01*
X1042D02*
X1048D01*
X1060D02*
X1065D01*
X1097D02*
X1105D01*
X1133D02*
X1140D01*
X1207D02*
X1212D01*
X1226D02*
X1233D01*
X1244D02*
X1251D01*
X1317D02*
X1322D01*
X1323D02*
X1327D01*
X1334D02*
X1339D01*
X1340D02*
X1344D01*
X1366D02*
X1371D01*
X1399D02*
X1404D01*
X1429D02*
X1434D01*
X1449D02*
X1455D01*
X1509D02*
X1516D01*
X1517D02*
X1522D01*
X1539D02*
X1545D01*
X1560D02*
X1566D01*
X1577D02*
X1582D01*
X1595D02*
X1603D01*
X686Y3695D02*
X691D01*
X713D02*
X718D01*
X725D02*
X731D01*
X746D02*
X752D01*
X769D02*
X775D01*
X777D02*
X782D01*
X843D02*
X848D01*
X874D02*
X879D01*
X894D02*
X900D01*
X910D02*
X917D01*
X986D02*
X993D01*
X1020D02*
X1027D01*
X1042D02*
X1049D01*
X1060D02*
X1065D01*
X1097D02*
X1104D01*
X1132D02*
X1139D01*
X1207D02*
X1212D01*
X1227D02*
X1233D01*
X1243D02*
X1250D01*
X1317D02*
X1322D01*
X1323D02*
X1328D01*
X1334D02*
X1339D01*
X1340D02*
X1344D01*
X1366D02*
X1371D01*
X1398D02*
X1404D01*
X1429D02*
X1434D01*
X1449D02*
X1455D01*
X1509D02*
X1515D01*
X1517D02*
X1522D01*
X1538D02*
X1545D01*
X1561D02*
X1567D01*
X1577D02*
X1582D01*
X1595D02*
X1603D01*
X686Y3695D02*
X691D01*
X713D02*
X718D01*
X725D02*
X731D01*
X746D02*
X752D01*
X768D02*
X774D01*
X777D02*
X782D01*
X843D02*
X848D01*
X874D02*
X879D01*
X894D02*
X900D01*
X910D02*
X917D01*
X986D02*
X993D01*
X1020D02*
X1026D01*
X1043D02*
X1049D01*
X1060D02*
X1065D01*
X1096D02*
X1104D01*
X1132D02*
X1139D01*
X1207D02*
X1212D01*
X1227D02*
X1234D01*
X1243D02*
X1250D01*
X1317D02*
X1322D01*
X1323D02*
X1328D01*
X1333D02*
X1338D01*
X1340D02*
X1345D01*
X1366D02*
X1371D01*
X1398D02*
X1404D01*
X1429D02*
X1434D01*
X1449D02*
X1455D01*
X1509D02*
X1515D01*
X1517D02*
X1522D01*
X1538D02*
X1544D01*
X1561D02*
X1567D01*
X1577D02*
X1582D01*
X1596D02*
X1603D01*
X686Y3696D02*
X691D01*
X713D02*
X718D01*
X725D02*
X732D01*
X746D02*
X752D01*
X768D02*
X774D01*
X777D02*
X783D01*
X843D02*
X848D01*
X874D02*
X879D01*
X894D02*
X900D01*
X910D02*
X916D01*
X986D02*
X993D01*
X1020D02*
X1026D01*
X1043D02*
X1049D01*
X1060D02*
X1065D01*
X1096D02*
X1103D01*
X1132D02*
X1138D01*
X1207D02*
X1212D01*
X1228D02*
X1234D01*
X1243D02*
X1249D01*
X1317D02*
X1322D01*
X1324D02*
X1328D01*
X1333D02*
X1338D01*
X1340D02*
X1345D01*
X1366D02*
X1371D01*
X1398D02*
X1404D01*
X1429D02*
X1434D01*
X1449D02*
X1455D01*
X1508D02*
X1514D01*
X1518D02*
X1523D01*
X1538D02*
X1544D01*
X1561D02*
X1568D01*
X1577D02*
X1582D01*
X1597D02*
X1603D01*
X686Y3697D02*
X691D01*
X713D02*
X718D01*
X725D02*
X732D01*
X746D02*
X752D01*
X768D02*
X774D01*
X778D02*
X783D01*
X843D02*
X848D01*
X874D02*
X879D01*
X894D02*
X900D01*
X910D02*
X916D01*
X986D02*
X993D01*
X1020D02*
X1026D01*
X1044D02*
X1049D01*
X1060D02*
X1065D01*
X1096D02*
X1103D01*
X1132D02*
X1138D01*
X1207D02*
X1212D01*
X1228D02*
X1234D01*
X1243D02*
X1249D01*
X1316D02*
X1322D01*
X1324D02*
X1329D01*
X1333D02*
X1338D01*
X1340D02*
X1345D01*
X1366D02*
X1371D01*
X1398D02*
X1404D01*
X1429D02*
X1434D01*
X1449D02*
X1455D01*
X1508D02*
X1514D01*
X1518D02*
X1523D01*
X1538D02*
X1544D01*
X1562D02*
X1568D01*
X1577D02*
X1582D01*
X1597D02*
X1603D01*
X686Y3698D02*
X691D01*
X713D02*
X718D01*
X725D02*
X732D01*
X746D02*
X752D01*
X767D02*
X773D01*
X778D02*
X783D01*
X843D02*
X848D01*
X874D02*
X879D01*
X894D02*
X900D01*
X910D02*
X916D01*
X986D02*
X993D01*
X1020D02*
X1025D01*
X1044D02*
X1050D01*
X1060D02*
X1065D01*
X1096D02*
X1103D01*
X1132D02*
X1138D01*
X1207D02*
X1212D01*
X1228D02*
X1234D01*
X1243D02*
X1249D01*
X1316D02*
X1321D01*
X1324D02*
X1329D01*
X1333D02*
X1337D01*
X1340D02*
X1345D01*
X1366D02*
X1371D01*
X1398D02*
X1404D01*
X1429D02*
X1434D01*
X1449D02*
X1455D01*
X1508D02*
X1513D01*
X1518D02*
X1524D01*
X1538D02*
X1544D01*
X1562D02*
X1568D01*
X1577D02*
X1582D01*
X1597D02*
X1603D01*
X686Y3699D02*
X691D01*
X713D02*
X718D01*
X726D02*
X733D01*
X746D02*
X752D01*
X767D02*
X773D01*
X778D02*
X784D01*
X843D02*
X848D01*
X874D02*
X879D01*
X894D02*
X900D01*
X909D02*
X916D01*
X986D02*
X993D01*
X1020D02*
X1025D01*
X1044D02*
X1050D01*
X1060D02*
X1065D01*
X1096D02*
X1102D01*
X1132D02*
X1138D01*
X1207D02*
X1212D01*
X1228D02*
X1234D01*
X1243D02*
X1249D01*
X1316D02*
X1321D01*
X1325D02*
X1329D01*
X1332D02*
X1337D01*
X1340D02*
X1345D01*
X1366D02*
X1371D01*
X1398D02*
X1404D01*
X1429D02*
X1434D01*
X1449D02*
X1455D01*
X1507D02*
X1513D01*
X1519D02*
X1524D01*
X1538D02*
X1543D01*
X1562D02*
X1568D01*
X1577D02*
X1582D01*
X1597D02*
X1603D01*
X686Y3700D02*
X691D01*
X700D02*
X704D01*
X713D02*
X718D01*
X727D02*
X736D01*
X746D02*
X752D01*
X767D02*
X773D01*
X779D02*
X784D01*
X843D02*
X848D01*
X874D02*
X879D01*
X894D02*
X900D01*
X909D02*
X916D01*
X986D02*
X993D01*
X1020D02*
X1025D01*
X1044D02*
X1050D01*
X1060D02*
X1065D01*
X1096D02*
X1102D01*
X1131D02*
X1138D01*
X1207D02*
X1212D01*
X1228D02*
X1234D01*
X1242D02*
X1249D01*
X1316D02*
X1321D01*
X1325D02*
X1330D01*
X1332D02*
X1337D01*
X1340D02*
X1345D01*
X1366D02*
X1371D01*
X1398D02*
X1404D01*
X1429D02*
X1434D01*
X1449D02*
X1455D01*
X1507D02*
X1513D01*
X1519D02*
X1524D01*
X1538D02*
X1543D01*
X1562D02*
X1568D01*
X1577D02*
X1582D01*
X1597D02*
X1603D01*
X686Y3701D02*
X691D01*
X699D02*
X704D01*
X713D02*
X718D01*
X727D02*
X752D01*
X766D02*
X772D01*
X779D02*
X785D01*
X843D02*
X848D01*
X874D02*
X879D01*
X894D02*
X900D01*
X909D02*
X938D01*
X986D02*
X993D01*
X1019D02*
X1025D01*
X1044D02*
X1050D01*
X1060D02*
X1065D01*
X1096D02*
X1102D01*
X1131D02*
X1160D01*
X1207D02*
X1212D01*
X1229D02*
X1234D01*
X1242D02*
X1271D01*
X1316D02*
X1321D01*
X1325D02*
X1330D01*
X1332D02*
X1336D01*
X1340D02*
X1346D01*
X1366D02*
X1371D01*
X1398D02*
X1404D01*
X1429D02*
X1434D01*
X1449D02*
X1455D01*
X1506D02*
X1512D01*
X1519D02*
X1525D01*
X1538D02*
X1543D01*
X1562D02*
X1568D01*
X1577D02*
X1582D01*
X1597D02*
X1603D01*
X686Y3702D02*
X691D01*
X699D02*
X704D01*
X713D02*
X718D01*
X728D02*
X752D01*
X766D02*
X772D01*
X779D02*
X785D01*
X843D02*
X848D01*
X874D02*
X879D01*
X894D02*
X900D01*
X909D02*
X938D01*
X986D02*
X993D01*
X1019D02*
X1025D01*
X1044D02*
X1050D01*
X1060D02*
X1065D01*
X1096D02*
X1102D01*
X1131D02*
X1160D01*
X1207D02*
X1212D01*
X1229D02*
X1234D01*
X1242D02*
X1271D01*
X1316D02*
X1321D01*
X1326D02*
X1330D01*
X1332D02*
X1336D01*
X1340D02*
X1346D01*
X1366D02*
X1371D01*
X1398D02*
X1404D01*
X1429D02*
X1434D01*
X1449D02*
X1455D01*
X1506D02*
X1512D01*
X1520D02*
X1525D01*
X1538D02*
X1543D01*
X1563D02*
X1568D01*
X1577D02*
X1582D01*
X1597D02*
X1603D01*
X686Y3703D02*
X691D01*
X699D02*
X705D01*
X713D02*
X718D01*
X730D02*
X752D01*
X766D02*
X772D01*
X780D02*
X785D01*
X843D02*
X848D01*
X874D02*
X879D01*
X894D02*
X900D01*
X909D02*
X938D01*
X986D02*
X993D01*
X1019D02*
X1025D01*
X1044D02*
X1050D01*
X1060D02*
X1065D01*
X1096D02*
X1102D01*
X1131D02*
X1160D01*
X1207D02*
X1212D01*
X1229D02*
X1234D01*
X1242D02*
X1271D01*
X1316D02*
X1321D01*
X1326D02*
X1331D01*
X1331D02*
X1336D01*
X1341D02*
X1346D01*
X1366D02*
X1371D01*
X1398D02*
X1404D01*
X1429D02*
X1434D01*
X1449D02*
X1455D01*
X1506D02*
X1512D01*
X1520D02*
X1525D01*
X1538D02*
X1543D01*
X1563D02*
X1568D01*
X1577D02*
X1582D01*
X1597D02*
X1603D01*
X686Y3704D02*
X691D01*
X698D02*
X705D01*
X713D02*
X718D01*
X731D02*
X752D01*
X765D02*
X771D01*
X780D02*
X786D01*
X843D02*
X848D01*
X874D02*
X879D01*
X894D02*
X900D01*
X909D02*
X938D01*
X986D02*
X993D01*
X1020D02*
X1025D01*
X1044D02*
X1050D01*
X1060D02*
X1065D01*
X1096D02*
X1102D01*
X1131D02*
X1160D01*
X1207D02*
X1212D01*
X1229D02*
X1234D01*
X1242D02*
X1271D01*
X1316D02*
X1321D01*
X1326D02*
X1331D01*
X1331D02*
X1335D01*
X1341D02*
X1346D01*
X1366D02*
X1371D01*
X1398D02*
X1404D01*
X1429D02*
X1434D01*
X1449D02*
X1455D01*
X1505D02*
X1511D01*
X1520D02*
X1526D01*
X1538D02*
X1543D01*
X1562D02*
X1568D01*
X1577D02*
X1582D01*
X1597D02*
X1603D01*
X686Y3705D02*
X691D01*
X698D02*
X705D01*
X713D02*
X718D01*
X733D02*
X752D01*
X765D02*
X771D01*
X780D02*
X786D01*
X843D02*
X848D01*
X874D02*
X879D01*
X894D02*
X900D01*
X909D02*
X938D01*
X986D02*
X1010D01*
X1020D02*
X1025D01*
X1044D02*
X1050D01*
X1060D02*
X1065D01*
X1096D02*
X1102D01*
X1131D02*
X1160D01*
X1207D02*
X1212D01*
X1229D02*
X1234D01*
X1242D02*
X1271D01*
X1316D02*
X1321D01*
X1327D02*
X1335D01*
X1341D02*
X1346D01*
X1366D02*
X1371D01*
X1398D02*
X1404D01*
X1429D02*
X1434D01*
X1449D02*
X1455D01*
X1505D02*
X1511D01*
X1521D02*
X1526D01*
X1538D02*
X1543D01*
X1562D02*
X1568D01*
X1577D02*
X1582D01*
X1597D02*
X1603D01*
X686Y3706D02*
X691D01*
X698D02*
X706D01*
X712D02*
X718D01*
X746D02*
X752D01*
X765D02*
X771D01*
X781D02*
X786D01*
X843D02*
X848D01*
X874D02*
X879D01*
X894D02*
X900D01*
X910D02*
X915D01*
X932D02*
X938D01*
X986D02*
X1010D01*
X1020D02*
X1025D01*
X1044D02*
X1050D01*
X1060D02*
X1065D01*
X1096D02*
X1103D01*
X1132D02*
X1138D01*
X1154D02*
X1160D01*
X1207D02*
X1212D01*
X1229D02*
X1234D01*
X1243D02*
X1249D01*
X1265D02*
X1271D01*
X1315D02*
X1321D01*
X1327D02*
X1335D01*
X1341D02*
X1346D01*
X1366D02*
X1371D01*
X1398D02*
X1404D01*
X1429D02*
X1434D01*
X1449D02*
X1455D01*
X1505D02*
X1511D01*
X1521D02*
X1527D01*
X1538D02*
X1544D01*
X1562D02*
X1568D01*
X1577D02*
X1582D01*
X1597D02*
X1603D01*
X686Y3707D02*
X691D01*
X697D02*
X702D01*
X702D02*
X706D01*
X712D02*
X718D01*
X746D02*
X752D01*
X764D02*
X770D01*
X781D02*
X787D01*
X843D02*
X848D01*
X874D02*
X879D01*
X894D02*
X900D01*
X910D02*
X916D01*
X932D02*
X938D01*
X986D02*
X1010D01*
X1020D02*
X1026D01*
X1044D02*
X1050D01*
X1060D02*
X1065D01*
X1081D02*
X1086D01*
X1097D02*
X1103D01*
X1132D02*
X1138D01*
X1154D02*
X1160D01*
X1207D02*
X1212D01*
X1229D02*
X1234D01*
X1243D02*
X1249D01*
X1265D02*
X1271D01*
X1315D02*
X1321D01*
X1327D02*
X1334D01*
X1341D02*
X1346D01*
X1366D02*
X1371D01*
X1398D02*
X1404D01*
X1429D02*
X1434D01*
X1449D02*
X1455D01*
X1504D02*
X1510D01*
X1521D02*
X1527D01*
X1538D02*
X1544D01*
X1562D02*
X1568D01*
X1577D02*
X1582D01*
X1597D02*
X1603D01*
X686Y3708D02*
X691D01*
X697D02*
X701D01*
X702D02*
X706D01*
X712D02*
X718D01*
X746D02*
X752D01*
X764D02*
X770D01*
X781D02*
X787D01*
X843D02*
X848D01*
X874D02*
X879D01*
X894D02*
X900D01*
X910D02*
X916D01*
X932D02*
X938D01*
X986D02*
X1010D01*
X1020D02*
X1026D01*
X1044D02*
X1050D01*
X1060D02*
X1065D01*
X1081D02*
X1086D01*
X1097D02*
X1103D01*
X1132D02*
X1138D01*
X1154D02*
X1160D01*
X1207D02*
X1212D01*
X1229D02*
X1234D01*
X1243D02*
X1249D01*
X1265D02*
X1271D01*
X1315D02*
X1321D01*
X1328D02*
X1334D01*
X1341D02*
X1347D01*
X1366D02*
X1371D01*
X1398D02*
X1404D01*
X1429D02*
X1434D01*
X1449D02*
X1455D01*
X1504D02*
X1510D01*
X1522D02*
X1527D01*
X1538D02*
X1544D01*
X1562D02*
X1568D01*
X1577D02*
X1582D01*
X1597D02*
X1603D01*
X686Y3709D02*
X691D01*
X696D02*
X701D01*
X703D02*
X707D01*
X712D02*
X718D01*
X746D02*
X752D01*
X763D02*
X770D01*
X782D02*
X788D01*
X843D02*
X848D01*
X874D02*
X880D01*
X894D02*
X900D01*
X910D02*
X916D01*
X932D02*
X938D01*
X986D02*
X1010D01*
X1020D02*
X1026D01*
X1044D02*
X1049D01*
X1060D02*
X1066D01*
X1081D02*
X1086D01*
X1097D02*
X1104D01*
X1132D02*
X1138D01*
X1154D02*
X1160D01*
X1207D02*
X1213D01*
X1229D02*
X1234D01*
X1243D02*
X1249D01*
X1265D02*
X1271D01*
X1315D02*
X1320D01*
X1328D02*
X1334D01*
X1341D02*
X1347D01*
X1366D02*
X1371D01*
X1398D02*
X1404D01*
X1429D02*
X1435D01*
X1449D02*
X1455D01*
X1504D02*
X1510D01*
X1522D02*
X1528D01*
X1538D02*
X1544D01*
X1562D02*
X1568D01*
X1577D02*
X1582D01*
X1597D02*
X1603D01*
X686Y3709D02*
X691D01*
X696D02*
X701D01*
X703D02*
X707D01*
X712D02*
X718D01*
X746D02*
X752D01*
X763D02*
X769D01*
X782D02*
X788D01*
X843D02*
X848D01*
X874D02*
X881D01*
X894D02*
X899D01*
X910D02*
X916D01*
X932D02*
X938D01*
X986D02*
X993D01*
X1020D02*
X1027D01*
X1043D02*
X1049D01*
X1060D02*
X1067D01*
X1081D02*
X1086D01*
X1097D02*
X1104D01*
X1132D02*
X1138D01*
X1154D02*
X1160D01*
X1207D02*
X1214D01*
X1228D02*
X1234D01*
X1243D02*
X1249D01*
X1265D02*
X1271D01*
X1315D02*
X1320D01*
X1328D02*
X1333D01*
X1341D02*
X1347D01*
X1366D02*
X1371D01*
X1398D02*
X1404D01*
X1429D02*
X1436D01*
X1449D02*
X1455D01*
X1503D02*
X1509D01*
X1522D02*
X1528D01*
X1538D02*
X1545D01*
X1561D02*
X1567D01*
X1577D02*
X1582D01*
X1597D02*
X1603D01*
X686Y3710D02*
X691D01*
X696D02*
X700D01*
X703D02*
X707D01*
X712D02*
X718D01*
X746D02*
X751D01*
X763D02*
X769D01*
X782D02*
X788D01*
X843D02*
X848D01*
X874D02*
X882D01*
X894D02*
X899D01*
X911D02*
X917D01*
X931D02*
X938D01*
X986D02*
X993D01*
X1021D02*
X1027D01*
X1043D02*
X1049D01*
X1060D02*
X1068D01*
X1081D02*
X1086D01*
X1098D02*
X1104D01*
X1133D02*
X1139D01*
X1154D02*
X1160D01*
X1207D02*
X1215D01*
X1228D02*
X1233D01*
X1244D02*
X1250D01*
X1265D02*
X1271D01*
X1315D02*
X1320D01*
X1329D02*
X1333D01*
X1341D02*
X1347D01*
X1366D02*
X1371D01*
X1398D02*
X1404D01*
X1429D02*
X1437D01*
X1449D02*
X1454D01*
X1503D02*
X1509D01*
X1523D02*
X1528D01*
X1539D02*
X1545D01*
X1561D02*
X1567D01*
X1577D02*
X1582D01*
X1597D02*
X1603D01*
X686Y3711D02*
X691D01*
X695D02*
X700D01*
X703D02*
X708D01*
X712D02*
X718D01*
X745D02*
X751D01*
X762D02*
X769D01*
X783D02*
X789D01*
X843D02*
X848D01*
X874D02*
X883D01*
X893D02*
X899D01*
X911D02*
X917D01*
X931D02*
X937D01*
X986D02*
X993D01*
X1021D02*
X1028D01*
X1042D02*
X1049D01*
X1060D02*
X1069D01*
X1080D02*
X1086D01*
X1098D02*
X1105D01*
X1133D02*
X1139D01*
X1153D02*
X1159D01*
X1207D02*
X1216D01*
X1227D02*
X1233D01*
X1244D02*
X1250D01*
X1264D02*
X1270D01*
X1315D02*
X1320D01*
X1341D02*
X1347D01*
X1366D02*
X1371D01*
X1398D02*
X1404D01*
X1429D02*
X1438D01*
X1449D02*
X1454D01*
X1503D02*
X1509D01*
X1523D02*
X1529D01*
X1539D02*
X1546D01*
X1561D02*
X1567D01*
X1577D02*
X1582D01*
X1597D02*
X1603D01*
X686Y3712D02*
X691D01*
X695D02*
X700D01*
X704D02*
X708D01*
X712D02*
X718D01*
X745D02*
X751D01*
X762D02*
X768D01*
X783D02*
X789D01*
X843D02*
X848D01*
X874D02*
X884D01*
X893D02*
X899D01*
X912D02*
X918D01*
X931D02*
X937D01*
X986D02*
X993D01*
X1022D02*
X1028D01*
X1042D02*
X1048D01*
X1060D02*
X1070D01*
X1079D02*
X1085D01*
X1099D02*
X1106D01*
X1134D02*
X1140D01*
X1153D02*
X1159D01*
X1207D02*
X1217D01*
X1227D02*
X1232D01*
X1245D02*
X1251D01*
X1264D02*
X1270D01*
X1315D02*
X1320D01*
X1341D02*
X1347D01*
X1366D02*
X1371D01*
X1398D02*
X1404D01*
X1429D02*
X1439D01*
X1448D02*
X1454D01*
X1502D02*
X1508D01*
X1523D02*
X1529D01*
X1540D02*
X1547D01*
X1560D02*
X1566D01*
X1577D02*
X1582D01*
X1597D02*
X1603D01*
X687Y3713D02*
X691D01*
X695D02*
X699D01*
X704D02*
X708D01*
X712D02*
X718D01*
X727D02*
X729D01*
X745D02*
X751D01*
X762D02*
X768D01*
X783D02*
X789D01*
X843D02*
X848D01*
X874D02*
X885D01*
X892D02*
X899D01*
X912D02*
X919D01*
X929D02*
X936D01*
X986D02*
X993D01*
X1022D02*
X1029D01*
X1040D02*
X1047D01*
X1060D02*
X1065D01*
X1065D02*
X1070D01*
X1079D02*
X1085D01*
X1099D02*
X1107D01*
X1119D02*
X1121D01*
X1135D02*
X1141D01*
X1151D02*
X1158D01*
X1207D02*
X1218D01*
X1226D02*
X1232D01*
X1246D02*
X1252D01*
X1262D02*
X1269D01*
X1315D02*
X1320D01*
X1342D02*
X1348D01*
X1366D02*
X1371D01*
X1398D02*
X1404D01*
X1429D02*
X1440D01*
X1447D02*
X1454D01*
X1502D02*
X1508D01*
X1524D02*
X1530D01*
X1540D02*
X1547D01*
X1558D02*
X1565D01*
X1577D02*
X1582D01*
X1597D02*
X1603D01*
X687Y3714D02*
X691D01*
X694D02*
X699D01*
X704D02*
X709D01*
X712D02*
X718D01*
X727D02*
X733D01*
X742D02*
X750D01*
X761D02*
X768D01*
X784D02*
X790D01*
X843D02*
X848D01*
X874D02*
X885D01*
X891D02*
X898D01*
X913D02*
X920D01*
X927D02*
X935D01*
X986D02*
X993D01*
X1023D02*
X1030D01*
X1039D02*
X1047D01*
X1060D02*
X1065D01*
X1066D02*
X1073D01*
X1078D02*
X1085D01*
X1100D02*
X1108D01*
X1117D02*
X1121D01*
X1135D02*
X1142D01*
X1149D02*
X1157D01*
X1207D02*
X1212D01*
X1213D02*
X1220D01*
X1225D02*
X1232D01*
X1246D02*
X1253D01*
X1260D02*
X1268D01*
X1314D02*
X1320D01*
X1342D02*
X1348D01*
X1366D02*
X1371D01*
X1398D02*
X1404D01*
X1429D02*
X1441D01*
X1446D02*
X1453D01*
X1501D02*
X1508D01*
X1524D02*
X1530D01*
X1541D02*
X1548D01*
X1557D02*
X1565D01*
X1577D02*
X1582D01*
X1597D02*
X1603D01*
X687Y3715D02*
X691D01*
X694D02*
X699D01*
X705D02*
X709D01*
X712D02*
X717D01*
X727D02*
X750D01*
X761D02*
X767D01*
X784D02*
X790D01*
X834D02*
X863D01*
X874D02*
X879D01*
X880D02*
X898D01*
X914D02*
X935D01*
X986D02*
X993D01*
X1023D02*
X1046D01*
X1060D02*
X1065D01*
X1067D02*
X1084D01*
X1101D02*
X1121D01*
X1136D02*
X1157D01*
X1207D02*
X1212D01*
X1214D02*
X1231D01*
X1247D02*
X1268D01*
X1314D02*
X1320D01*
X1342D02*
X1348D01*
X1356D02*
X1371D01*
X1389D02*
X1419D01*
X1429D02*
X1434D01*
X1435D02*
X1453D01*
X1501D02*
X1507D01*
X1524D02*
X1530D01*
X1542D02*
X1564D01*
X1577D02*
X1582D01*
X1597D02*
X1603D01*
X687Y3716D02*
X691D01*
X694D02*
X698D01*
X705D02*
X709D01*
X712D02*
X717D01*
X727D02*
X749D01*
X761D02*
X767D01*
X784D02*
X791D01*
X834D02*
X863D01*
X874D02*
X879D01*
X881D02*
X898D01*
X915D02*
X934D01*
X986D02*
X993D01*
X1025D02*
X1045D01*
X1060D02*
X1065D01*
X1068D02*
X1084D01*
X1102D02*
X1121D01*
X1137D02*
X1156D01*
X1207D02*
X1212D01*
X1214D02*
X1230D01*
X1248D02*
X1267D01*
X1314D02*
X1320D01*
X1342D02*
X1348D01*
X1356D02*
X1371D01*
X1389D02*
X1419D01*
X1429D02*
X1434D01*
X1436D02*
X1453D01*
X1501D02*
X1507D01*
X1525D02*
X1531D01*
X1543D02*
X1563D01*
X1577D02*
X1582D01*
X1597D02*
X1603D01*
X687Y3717D02*
X691D01*
X693D02*
X698D01*
X706D02*
X710D01*
X712D02*
X717D01*
X727D02*
X748D01*
X760D02*
X767D01*
X785D02*
X791D01*
X834D02*
X863D01*
X874D02*
X879D01*
X882D02*
X897D01*
X916D02*
X933D01*
X986D02*
X993D01*
X1027D02*
X1043D01*
X1060D02*
X1064D01*
X1069D02*
X1083D01*
X1103D02*
X1121D01*
X1138D02*
X1155D01*
X1207D02*
X1212D01*
X1215D02*
X1229D01*
X1249D02*
X1266D01*
X1314D02*
X1320D01*
X1342D02*
X1348D01*
X1356D02*
X1371D01*
X1389D02*
X1419D01*
X1429D02*
X1434D01*
X1437D02*
X1452D01*
X1500D02*
X1507D01*
X1525D02*
X1531D01*
X1545D02*
X1561D01*
X1577D02*
X1582D01*
X1597D02*
X1603D01*
X687Y3718D02*
X691D01*
X693D02*
X698D01*
X706D02*
X710D01*
X712D02*
X717D01*
X727D02*
X746D01*
X760D02*
X766D01*
X785D02*
X791D01*
X834D02*
X863D01*
X874D02*
X879D01*
X884D02*
X896D01*
X917D02*
X932D01*
X986D02*
X993D01*
X1028D02*
X1042D01*
X1060D02*
X1064D01*
X1070D02*
X1082D01*
X1105D02*
X1121D01*
X1140D02*
X1154D01*
X1207D02*
X1212D01*
X1217D02*
X1228D01*
X1251D02*
X1265D01*
X1314D02*
X1319D01*
X1342D02*
X1348D01*
X1356D02*
X1371D01*
X1389D02*
X1419D01*
X1429D02*
X1434D01*
X1439D02*
X1451D01*
X1500D02*
X1506D01*
X1525D02*
X1532D01*
X1546D02*
X1560D01*
X1577D02*
X1582D01*
X1597D02*
X1603D01*
X687Y3719D02*
X691D01*
X693D02*
X697D01*
X706D02*
X711D01*
X712D02*
X717D01*
X729D02*
X745D01*
X760D02*
X766D01*
X785D02*
X792D01*
X834D02*
X863D01*
X874D02*
X879D01*
X885D02*
X894D01*
X921D02*
X930D01*
X986D02*
X993D01*
X1032D02*
X1039D01*
X1060D02*
X1064D01*
X1073D02*
X1081D01*
X1108D02*
X1117D01*
X1143D02*
X1153D01*
X1207D02*
X1212D01*
X1220D02*
X1226D01*
X1254D02*
X1264D01*
X1314D02*
X1319D01*
X1342D02*
X1348D01*
X1356D02*
X1371D01*
X1389D02*
X1419D01*
X1429D02*
X1434D01*
X1440D02*
X1449D01*
X1500D02*
X1506D01*
X1526D02*
X1532D01*
X1550D02*
X1557D01*
X1577D02*
X1582D01*
X1597D02*
X1603D01*
X687Y3720D02*
X692D01*
X693D02*
X697D01*
X707D02*
X711D01*
X712D02*
X717D01*
X843D02*
X848D01*
X874D02*
X879D01*
X986D02*
X993D01*
X1207D02*
X1212D01*
X1398D02*
X1404D01*
X1429D02*
X1434D01*
X687Y3721D02*
X692D01*
X692D02*
X697D01*
X707D02*
X711D01*
X712D02*
X717D01*
X843D02*
X848D01*
X874D02*
X879D01*
X986D02*
X993D01*
X1207D02*
X1212D01*
X1398D02*
X1404D01*
X1429D02*
X1434D01*
X687Y3722D02*
X692D01*
X692D02*
X696D01*
X707D02*
X712D01*
X712D02*
X717D01*
X843D02*
X848D01*
X874D02*
X879D01*
X986D02*
X993D01*
X1207D02*
X1212D01*
X1398D02*
X1404D01*
X1429D02*
X1434D01*
X687Y3723D02*
X692D01*
X692D02*
X696D01*
X708D02*
X712D01*
X712D02*
X717D01*
X843D02*
X848D01*
X874D02*
X879D01*
X986D02*
X993D01*
X1207D02*
X1212D01*
X1398D02*
X1404D01*
X1429D02*
X1434D01*
X687Y3724D02*
X696D01*
X708D02*
X717D01*
X843D02*
X848D01*
X874D02*
X879D01*
X986D02*
X993D01*
X1207D02*
X1212D01*
X1398D02*
X1404D01*
X1429D02*
X1434D01*
X687Y3724D02*
X695D01*
X708D02*
X717D01*
X843D02*
X848D01*
X874D02*
X879D01*
X986D02*
X1011D01*
X1207D02*
X1212D01*
X1365D02*
X1370D01*
X1398D02*
X1404D01*
X1429D02*
X1434D01*
X687Y3725D02*
X695D01*
X709D02*
X717D01*
X843D02*
X848D01*
X874D02*
X879D01*
X986D02*
X1011D01*
X1207D02*
X1212D01*
X1365D02*
X1371D01*
X1398D02*
X1404D01*
X1429D02*
X1434D01*
X687Y3726D02*
X695D01*
X709D02*
X717D01*
X843D02*
X848D01*
X874D02*
X879D01*
X986D02*
X1011D01*
X1207D02*
X1212D01*
X1363D02*
X1372D01*
X1398D02*
X1404D01*
X1429D02*
X1434D01*
X687Y3727D02*
X695D01*
X709D02*
X717D01*
X843D02*
X848D01*
X874D02*
X879D01*
X986D02*
X1011D01*
X1207D02*
X1212D01*
X1363D02*
X1372D01*
X1398D02*
X1404D01*
X1429D02*
X1434D01*
X687Y3728D02*
X694D01*
X710D02*
X717D01*
X845D02*
X848D01*
X874D02*
X879D01*
X986D02*
X1011D01*
X1207D02*
X1212D01*
X1363D02*
X1372D01*
X1400D02*
X1404D01*
X1429D02*
X1434D01*
X848Y3729D02*
X848D01*
X874D02*
X879D01*
X1207D02*
X1212D01*
X1363D02*
X1372D01*
X1404D02*
X1404D01*
X1429D02*
X1434D01*
X874Y3730D02*
X879D01*
X1207D02*
X1212D01*
X1364D02*
X1372D01*
X1429D02*
X1434D01*
X874Y3731D02*
X879D01*
X1207D02*
X1212D01*
X1365D02*
X1370D01*
X1429D02*
X1434D01*
X874Y3732D02*
X879D01*
X1207D02*
X1212D01*
X1367D02*
X1369D01*
X1429D02*
X1434D01*
X716Y3591D02*
X688D01*
Y3597*
X699Y3607*
X704Y3612*
X706Y3616*
X708Y3619*
Y3622*
X707Y3625*
X706Y3628*
X704Y3629*
X700Y3630*
X695Y3628*
X691Y3625*
X688Y3629*
X693Y3633*
X701Y3635*
X706Y3634*
X710Y3632*
X713Y3628*
X714Y3622*
X713Y3617*
X711Y3613*
X708Y3610*
X703Y3605*
X695Y3597*
X716*
Y3591*
X754Y3613D02*
X753Y3603D01*
X750Y3597*
X745Y3592*
X742Y3591*
X738*
X732Y3592*
X727Y3596*
X726Y3598*
X724Y3602*
X723Y3607*
Y3613*
X724Y3621*
X727Y3628*
X732Y3633*
X739Y3635*
X745Y3633*
X750Y3629*
X753Y3622*
X754Y3613*
X748D02*
Y3614D01*
Y3617*
X730Y3603*
X731Y3600*
X733Y3598*
X736Y3596*
X739Y3595*
X743Y3596*
X746Y3599*
X748Y3605*
X748Y3613*
X729D02*
Y3610D01*
Y3609*
X747Y3622*
X746Y3625*
X744Y3628*
X741Y3629*
X739Y3630*
X734Y3629*
X731Y3625*
X730Y3620*
X729Y3613*
X790Y3591D02*
X762D01*
Y3597*
X773Y3607*
X778Y3612*
X780Y3616*
X782Y3619*
Y3622*
X781Y3625*
X780Y3628*
X778Y3629*
X774Y3630*
X769Y3628*
X765Y3625*
X762Y3629*
X767Y3633*
X775Y3635*
X780Y3634*
X784Y3632*
X787Y3628*
X788Y3622*
X787Y3617*
X785Y3613*
X782Y3610*
X777Y3605*
X769Y3597*
X790*
Y3591*
X828Y3613D02*
X827Y3603D01*
X824Y3597*
X819Y3592*
X816Y3591*
X812*
X806Y3592*
X801Y3596*
X800Y3598*
X798Y3602*
X797Y3607*
Y3613*
X798Y3621*
X801Y3628*
X806Y3633*
X813Y3635*
X819Y3633*
X824Y3629*
X827Y3622*
X828Y3613*
X823D02*
Y3614D01*
Y3617*
X804Y3603*
X805Y3600*
X807Y3598*
X810Y3596*
X813Y3595*
X817Y3596*
X820Y3599*
X822Y3605*
X823Y3613*
X803D02*
Y3610D01*
Y3609*
X821Y3622*
X820Y3625*
X818Y3628*
X815Y3629*
X813Y3630*
X808Y3629*
X805Y3625*
X804Y3620*
X803Y3613*
X849Y3602D02*
X852Y3601D01*
X853Y3600*
X854Y3598*
X855Y3596*
X854Y3594*
X853Y3592*
X852Y3591*
X849*
X847*
X845Y3592*
X845Y3594*
X844Y3596*
X845Y3598*
X845Y3600*
X847Y3601*
X849Y3602*
X902Y3613D02*
X901Y3603D01*
X898Y3597*
X893Y3592*
X890Y3591*
X886*
X880Y3592*
X875Y3596*
X874Y3598*
X872Y3602*
X871Y3607*
Y3613*
X872Y3621*
X875Y3628*
X880Y3633*
X887Y3635*
X893Y3633*
X898Y3629*
X901Y3622*
X902Y3613*
X897D02*
Y3614D01*
Y3617*
X878Y3603*
X879Y3600*
X881Y3598*
X884Y3596*
X887Y3595*
X891Y3596*
X894Y3599*
X896Y3605*
X897Y3613*
X877D02*
Y3610D01*
Y3609*
X895Y3622*
X894Y3625*
X892Y3628*
X889Y3629*
X887Y3630*
X882Y3629*
X879Y3625*
X878Y3620*
X877Y3613*
X941Y3601D02*
X933D01*
Y3591*
X927*
Y3601*
X907*
Y3606*
X925Y3634*
X933*
Y3606*
X941*
Y3601*
X927Y3628D02*
X912Y3606D01*
X927*
Y3628*
X960Y3602D02*
X963Y3601D01*
X964Y3600*
X965Y3598*
X966Y3596*
X965Y3594*
X964Y3592*
X963Y3591*
X960*
X958*
X956Y3592*
X956Y3594*
X955Y3596*
X956Y3598*
X956Y3600*
X958Y3601*
X960Y3602*
X1013Y3613D02*
X1012Y3603D01*
X1009Y3597*
X1004Y3592*
X1001Y3591*
X997*
X991Y3592*
X986Y3596*
X985Y3598*
X983Y3602*
X982Y3607*
Y3613*
X983Y3621*
X986Y3628*
X991Y3633*
X998Y3635*
X1004Y3633*
X1009Y3629*
X1012Y3622*
X1013Y3613*
X1008D02*
Y3614D01*
Y3617*
X989Y3603*
X990Y3600*
X992Y3598*
X995Y3596*
X998Y3595*
X1002Y3596*
X1005Y3599*
X1007Y3605*
X1008Y3613*
X988D02*
Y3610D01*
Y3609*
X1006Y3622*
X1005Y3625*
X1003Y3628*
X1000Y3629*
X998Y3630*
X993Y3629*
X990Y3625*
X989Y3620*
X988Y3613*
X1048Y3605D02*
X1046Y3599D01*
X1043Y3595*
X1037Y3591*
X1030Y3591*
X1028*
X1026*
X1023*
X1022*
Y3596*
X1026Y3595*
X1030*
X1035Y3596*
X1038Y3598*
X1041Y3601*
X1041Y3605*
X1041Y3608*
X1038Y3610*
X1035Y3612*
X1030Y3613*
X1023*
Y3634*
X1045*
Y3629*
X1028*
Y3617*
X1032*
X1037Y3617*
X1043Y3615*
X1046Y3611*
X1048Y3605*
X688Y3591D02*
X716D01*
X735D02*
X744D01*
X762D02*
X790D01*
X809D02*
X818D01*
X846D02*
X852D01*
X883D02*
X892D01*
X927D02*
X933D01*
X957D02*
X963D01*
X994D02*
X1003D01*
X1022D02*
X1037D01*
X688Y3592D02*
X716D01*
X732D02*
X746D01*
X762D02*
X790D01*
X806D02*
X820D01*
X845D02*
X853D01*
X880D02*
X894D01*
X927D02*
X933D01*
X956D02*
X964D01*
X991D02*
X1005D01*
X1022D02*
X1039D01*
X688Y3593D02*
X716D01*
X731D02*
X746D01*
X762D02*
X790D01*
X805D02*
X820D01*
X845D02*
X854D01*
X879D02*
X894D01*
X927D02*
X933D01*
X956D02*
X965D01*
X990D02*
X1006D01*
X1022D02*
X1040D01*
X688Y3594D02*
X716D01*
X729D02*
X747D01*
X762D02*
X790D01*
X804D02*
X821D01*
X844D02*
X854D01*
X878D02*
X895D01*
X927D02*
X933D01*
X955D02*
X965D01*
X989D02*
X1006D01*
X1022D02*
X1042D01*
X688Y3595D02*
X716D01*
X728D02*
X748D01*
X762D02*
X790D01*
X802D02*
X822D01*
X844D02*
X854D01*
X876D02*
X896D01*
X927D02*
X933D01*
X955D02*
X965D01*
X987D02*
X1007D01*
X1022D02*
X1043D01*
X688Y3596D02*
X716D01*
X727D02*
X736D01*
X743D02*
X749D01*
X762D02*
X790D01*
X801D02*
X810D01*
X817D02*
X823D01*
X844D02*
X855D01*
X875D02*
X884D01*
X891D02*
X897D01*
X927D02*
X933D01*
X955D02*
X966D01*
X986D02*
X995D01*
X1002D02*
X1008D01*
X1035D02*
X1044D01*
X688Y3597D02*
X695D01*
X727D02*
X734D01*
X744D02*
X750D01*
X762D02*
X769D01*
X801D02*
X808D01*
X818D02*
X824D01*
X844D02*
X854D01*
X875D02*
X882D01*
X892D02*
X898D01*
X927D02*
X933D01*
X955D02*
X966D01*
X986D02*
X993D01*
X1003D02*
X1009D01*
X1037D02*
X1045D01*
X689Y3598D02*
X696D01*
X726D02*
X733D01*
X745D02*
X751D01*
X763D02*
X770D01*
X800D02*
X807D01*
X819D02*
X825D01*
X844D02*
X854D01*
X874D02*
X881D01*
X893D02*
X899D01*
X927D02*
X933D01*
X955D02*
X965D01*
X985D02*
X992D01*
X1004D02*
X1010D01*
X1038D02*
X1045D01*
X690Y3599D02*
X697D01*
X725D02*
X732D01*
X746D02*
X751D01*
X764D02*
X771D01*
X799D02*
X806D01*
X820D02*
X825D01*
X845D02*
X854D01*
X874D02*
X880D01*
X894D02*
X899D01*
X927D02*
X933D01*
X956D02*
X965D01*
X985D02*
X991D01*
X1005D02*
X1010D01*
X1039D02*
X1046D01*
X691Y3600D02*
X698D01*
X725D02*
X731D01*
X746D02*
X752D01*
X765D02*
X772D01*
X799D02*
X805D01*
X820D02*
X826D01*
X845D02*
X853D01*
X873D02*
X879D01*
X894D02*
X900D01*
X927D02*
X933D01*
X956D02*
X964D01*
X984D02*
X990D01*
X1005D02*
X1011D01*
X1040D02*
X1046D01*
X692Y3601D02*
X699D01*
X725D02*
X731D01*
X747D02*
X752D01*
X766D02*
X773D01*
X799D02*
X805D01*
X821D02*
X826D01*
X847D02*
X852D01*
X873D02*
X879D01*
X895D02*
X900D01*
X927D02*
X933D01*
X958D02*
X963D01*
X984D02*
X990D01*
X1006D02*
X1011D01*
X1041D02*
X1047D01*
X693Y3602D02*
X700D01*
X724D02*
X731D01*
X747D02*
X752D01*
X767D02*
X774D01*
X798D02*
X805D01*
X821D02*
X826D01*
X872D02*
X879D01*
X895D02*
X901D01*
X907D02*
X941D01*
X983D02*
X990D01*
X1006D02*
X1012D01*
X1041D02*
X1047D01*
X694Y3603D02*
X701D01*
X724D02*
X731D01*
X747D02*
X753D01*
X768D02*
X775D01*
X798D02*
X805D01*
X821D02*
X827D01*
X872D02*
X879D01*
X895D02*
X901D01*
X907D02*
X941D01*
X983D02*
X990D01*
X1006D02*
X1012D01*
X1041D02*
X1047D01*
X695Y3604D02*
X702D01*
X724D02*
X731D01*
X747D02*
X753D01*
X769D02*
X776D01*
X798D02*
X805D01*
X821D02*
X827D01*
X872D02*
X879D01*
X895D02*
X901D01*
X907D02*
X941D01*
X983D02*
X990D01*
X1006D02*
X1012D01*
X1041D02*
X1047D01*
X696Y3605D02*
X703D01*
X724D02*
X732D01*
X748D02*
X753D01*
X770D02*
X777D01*
X798D02*
X806D01*
X822D02*
X827D01*
X872D02*
X880D01*
X896D02*
X901D01*
X907D02*
X941D01*
X983D02*
X991D01*
X1007D02*
X1012D01*
X1041D02*
X1048D01*
X697Y3605D02*
X704D01*
X724D02*
X733D01*
X748D02*
X753D01*
X771D02*
X778D01*
X798D02*
X807D01*
X822D02*
X827D01*
X872D02*
X881D01*
X896D02*
X901D01*
X907D02*
X941D01*
X983D02*
X993D01*
X1007D02*
X1012D01*
X1041D02*
X1048D01*
X698Y3606D02*
X704D01*
X723D02*
X735D01*
X748D02*
X753D01*
X772D02*
X778D01*
X797D02*
X809D01*
X822D02*
X827D01*
X871D02*
X883D01*
X896D02*
X902D01*
X907D02*
X913D01*
X927D02*
X933D01*
X982D02*
X994D01*
X1007D02*
X1013D01*
X1041D02*
X1047D01*
X699Y3607D02*
X705D01*
X723D02*
X736D01*
X748D02*
X754D01*
X773D02*
X779D01*
X797D02*
X810D01*
X822D02*
X828D01*
X871D02*
X884D01*
X896D02*
X902D01*
X908D02*
X913D01*
X927D02*
X933D01*
X982D02*
X995D01*
X1007D02*
X1013D01*
X1041D02*
X1047D01*
X700Y3608D02*
X706D01*
X723D02*
X737D01*
X748D02*
X754D01*
X774D02*
X780D01*
X797D02*
X811D01*
X822D02*
X828D01*
X871D02*
X885D01*
X896D02*
X902D01*
X908D02*
X914D01*
X927D02*
X933D01*
X982D02*
X996D01*
X1007D02*
X1013D01*
X1040D02*
X1047D01*
X701Y3609D02*
X707D01*
X723D02*
X729D01*
X729D02*
X739D01*
X748D02*
X754D01*
X775D02*
X781D01*
X797D02*
X803D01*
X804D02*
X813D01*
X822D02*
X828D01*
X871D02*
X877D01*
X878D02*
X887D01*
X896D02*
X902D01*
X909D02*
X915D01*
X927D02*
X933D01*
X982D02*
X988D01*
X989D02*
X998D01*
X1007D02*
X1013D01*
X1039D02*
X1047D01*
X702Y3610D02*
X708D01*
X723D02*
X729D01*
X731D02*
X740D01*
X748D02*
X754D01*
X776D02*
X782D01*
X797D02*
X803D01*
X805D02*
X814D01*
X822D02*
X828D01*
X871D02*
X877D01*
X879D02*
X888D01*
X896D02*
X902D01*
X910D02*
X915D01*
X927D02*
X933D01*
X982D02*
X988D01*
X990D02*
X999D01*
X1007D02*
X1013D01*
X1038D02*
X1046D01*
X703Y3611D02*
X709D01*
X723D02*
X729D01*
X732D02*
X741D01*
X748D02*
X754D01*
X777D02*
X783D01*
X797D02*
X803D01*
X806D02*
X815D01*
X822D02*
X828D01*
X871D02*
X877D01*
X880D02*
X889D01*
X896D02*
X902D01*
X910D02*
X916D01*
X927D02*
X933D01*
X982D02*
X988D01*
X991D02*
X1000D01*
X1007D02*
X1013D01*
X1037D02*
X1046D01*
X704Y3612D02*
X710D01*
X723D02*
X729D01*
X733D02*
X742D01*
X748D02*
X754D01*
X778D02*
X784D01*
X797D02*
X803D01*
X807D02*
X816D01*
X822D02*
X828D01*
X871D02*
X877D01*
X881D02*
X890D01*
X896D02*
X902D01*
X911D02*
X917D01*
X927D02*
X933D01*
X982D02*
X988D01*
X992D02*
X1001D01*
X1007D02*
X1013D01*
X1034D02*
X1045D01*
X704Y3613D02*
X711D01*
X723D02*
X729D01*
X735D02*
X744D01*
X748D02*
X754D01*
X778D02*
X785D01*
X797D02*
X803D01*
X809D02*
X818D01*
X823D02*
X828D01*
X871D02*
X877D01*
X883D02*
X892D01*
X897D02*
X902D01*
X911D02*
X917D01*
X927D02*
X933D01*
X982D02*
X988D01*
X994D02*
X1003D01*
X1008D02*
X1013D01*
X1023D02*
X1045D01*
X705Y3614D02*
X712D01*
X723D02*
X729D01*
X736D02*
X745D01*
X748D02*
X754D01*
X779D02*
X786D01*
X797D02*
X803D01*
X810D02*
X819D01*
X823D02*
X828D01*
X871D02*
X877D01*
X884D02*
X893D01*
X897D02*
X902D01*
X912D02*
X918D01*
X927D02*
X933D01*
X982D02*
X988D01*
X995D02*
X1004D01*
X1008D02*
X1013D01*
X1023D02*
X1044D01*
X705Y3615D02*
X712D01*
X723D02*
X729D01*
X737D02*
X746D01*
X748D02*
X754D01*
X779D02*
X786D01*
X798D02*
X803D01*
X811D02*
X820D01*
X823D02*
X828D01*
X872D02*
X877D01*
X885D02*
X894D01*
X897D02*
X902D01*
X913D02*
X918D01*
X927D02*
X933D01*
X983D02*
X988D01*
X996D02*
X1005D01*
X1008D02*
X1013D01*
X1023D02*
X1043D01*
X706Y3616D02*
X712D01*
X724D02*
X729D01*
X738D02*
X747D01*
X748D02*
X754D01*
X780D02*
X786D01*
X798D02*
X803D01*
X812D02*
X821D01*
X823D02*
X828D01*
X872D02*
X877D01*
X886D02*
X895D01*
X897D02*
X902D01*
X913D02*
X919D01*
X927D02*
X933D01*
X983D02*
X988D01*
X997D02*
X1006D01*
X1008D02*
X1013D01*
X1023D02*
X1040D01*
X706Y3617D02*
X713D01*
X724D02*
X729D01*
X740D02*
X754D01*
X780D02*
X787D01*
X798D02*
X803D01*
X814D02*
X828D01*
X872D02*
X877D01*
X888D02*
X902D01*
X914D02*
X920D01*
X927D02*
X933D01*
X983D02*
X988D01*
X999D02*
X1013D01*
X1023D02*
X1037D01*
X707Y3618D02*
X713D01*
X724D02*
X729D01*
X741D02*
X754D01*
X781D02*
X787D01*
X798D02*
X803D01*
X815D02*
X828D01*
X872D02*
X877D01*
X889D02*
X902D01*
X914D02*
X920D01*
X927D02*
X933D01*
X983D02*
X988D01*
X1000D02*
X1013D01*
X1023D02*
X1028D01*
X707Y3619D02*
X713D01*
X724D02*
X729D01*
X742D02*
X754D01*
X781D02*
X787D01*
X798D02*
X803D01*
X816D02*
X828D01*
X872D02*
X877D01*
X890D02*
X902D01*
X915D02*
X921D01*
X927D02*
X933D01*
X983D02*
X989D01*
X1001D02*
X1013D01*
X1023D02*
X1028D01*
X708Y3620D02*
X713D01*
X724D02*
X730D01*
X743D02*
X753D01*
X782D02*
X787D01*
X798D02*
X804D01*
X817D02*
X827D01*
X872D02*
X878D01*
X891D02*
X901D01*
X916D02*
X921D01*
X927D02*
X933D01*
X983D02*
X989D01*
X1002D02*
X1012D01*
X1023D02*
X1028D01*
X708Y3620D02*
X714D01*
X724D02*
X730D01*
X745D02*
X753D01*
X782D02*
X788D01*
X798D02*
X804D01*
X819D02*
X827D01*
X872D02*
X878D01*
X893D02*
X901D01*
X916D02*
X922D01*
X927D02*
X933D01*
X983D02*
X989D01*
X1004D02*
X1012D01*
X1023D02*
X1028D01*
X708Y3621D02*
X714D01*
X724D02*
X730D01*
X746D02*
X753D01*
X782D02*
X788D01*
X798D02*
X804D01*
X820D02*
X827D01*
X872D02*
X878D01*
X894D02*
X901D01*
X917D02*
X923D01*
X927D02*
X933D01*
X983D02*
X989D01*
X1005D02*
X1012D01*
X1023D02*
X1028D01*
X707Y3622D02*
X714D01*
X725D02*
X730D01*
X747D02*
X753D01*
X781D02*
X788D01*
X799D02*
X804D01*
X821D02*
X827D01*
X873D02*
X878D01*
X895D02*
X901D01*
X917D02*
X923D01*
X927D02*
X933D01*
X984D02*
X989D01*
X1006D02*
X1012D01*
X1023D02*
X1028D01*
X707Y3623D02*
X714D01*
X725D02*
X731D01*
X747D02*
X753D01*
X781D02*
X788D01*
X799D02*
X805D01*
X821D02*
X827D01*
X873D02*
X879D01*
X895D02*
X901D01*
X918D02*
X924D01*
X927D02*
X933D01*
X984D02*
X990D01*
X1006D02*
X1012D01*
X1023D02*
X1028D01*
X707Y3624D02*
X714D01*
X725D02*
X731D01*
X746D02*
X752D01*
X781D02*
X788D01*
X799D02*
X805D01*
X820D02*
X826D01*
X873D02*
X879D01*
X894D02*
X900D01*
X919D02*
X924D01*
X927D02*
X933D01*
X984D02*
X990D01*
X1005D02*
X1011D01*
X1023D02*
X1028D01*
X707Y3625D02*
X713D01*
X726D02*
X731D01*
X746D02*
X752D01*
X781D02*
X787D01*
X800D02*
X805D01*
X820D02*
X826D01*
X874D02*
X879D01*
X894D02*
X900D01*
X919D02*
X925D01*
X927D02*
X933D01*
X985D02*
X990D01*
X1005D02*
X1011D01*
X1023D02*
X1028D01*
X690Y3626D02*
X692D01*
X706D02*
X713D01*
X726D02*
X732D01*
X745D02*
X751D01*
X764D02*
X766D01*
X780D02*
X787D01*
X800D02*
X806D01*
X819D02*
X825D01*
X874D02*
X880D01*
X893D02*
X899D01*
X920D02*
X926D01*
X927D02*
X933D01*
X985D02*
X991D01*
X1004D02*
X1010D01*
X1023D02*
X1028D01*
X690Y3627D02*
X693D01*
X706D02*
X713D01*
X727D02*
X733D01*
X744D02*
X751D01*
X764D02*
X767D01*
X780D02*
X787D01*
X801D02*
X807D01*
X818D02*
X825D01*
X875D02*
X881D01*
X892D02*
X899D01*
X920D02*
X926D01*
X927D02*
X933D01*
X986D02*
X992D01*
X1003D02*
X1010D01*
X1023D02*
X1028D01*
X689Y3628D02*
X694D01*
X705D02*
X713D01*
X727D02*
X733D01*
X743D02*
X751D01*
X763D02*
X768D01*
X779D02*
X787D01*
X801D02*
X807D01*
X817D02*
X825D01*
X875D02*
X881D01*
X891D02*
X899D01*
X921D02*
X927D01*
X927D02*
X933D01*
X986D02*
X992D01*
X1002D02*
X1010D01*
X1023D02*
X1028D01*
X688Y3629D02*
X697D01*
X704D02*
X712D01*
X728D02*
X734D01*
X742D02*
X750D01*
X762D02*
X771D01*
X778D02*
X786D01*
X802D02*
X808D01*
X816D02*
X824D01*
X876D02*
X882D01*
X890D02*
X898D01*
X922D02*
X933D01*
X987D02*
X993D01*
X1001D02*
X1009D01*
X1023D02*
X1028D01*
X689Y3630D02*
X700D01*
X701D02*
X711D01*
X729D02*
X738D01*
X739D02*
X749D01*
X763D02*
X774D01*
X775D02*
X785D01*
X803D02*
X812D01*
X813D02*
X823D01*
X877D02*
X886D01*
X887D02*
X897D01*
X922D02*
X933D01*
X988D02*
X997D01*
X998D02*
X1008D01*
X1023D02*
X1045D01*
X690Y3631D02*
X711D01*
X730D02*
X748D01*
X764D02*
X785D01*
X804D02*
X822D01*
X878D02*
X896D01*
X923D02*
X933D01*
X989D02*
X1007D01*
X1023D02*
X1045D01*
X691Y3632D02*
X710D01*
X731D02*
X747D01*
X765D02*
X784D01*
X805D02*
X821D01*
X879D02*
X895D01*
X923D02*
X933D01*
X990D02*
X1006D01*
X1023D02*
X1045D01*
X693Y3633D02*
X708D01*
X731D02*
X746D01*
X767D02*
X782D01*
X805D02*
X820D01*
X880D02*
X894D01*
X924D02*
X933D01*
X991D02*
X1005D01*
X1023D02*
X1045D01*
X696Y3634D02*
X707D01*
X734D02*
X743D01*
X770D02*
X781D01*
X808D02*
X817D01*
X882D02*
X892D01*
X925D02*
X933D01*
X993D02*
X1003D01*
X1023D02*
X1045D01*
X700Y3635D02*
X702D01*
X738D02*
X740D01*
X774D02*
X776D01*
X812D02*
X814D01*
X886D02*
X888D01*
X997D02*
X999D01*
D02*
D12*
X240Y2866D02*
Y2838D01*
X243Y2831*
X250Y2828*
X262*
X268Y2831*
X271Y2838*
Y2866*
X290Y2838D02*
X293Y2844D01*
X300Y2847*
X306*
X312Y2844*
X315Y2838*
X312Y2831*
X306Y2828*
X300*
X293Y2831*
X290Y2838*
Y2847*
X293Y2856*
X300Y2863*
X306Y2866*
X251Y3396D02*
X288D01*
Y3374*
X285Y3368*
X279Y3365*
X273Y3368*
X270Y3374*
Y3396*
X288Y3346D02*
X251D01*
Y3315*
X270Y3287D02*
Y3280D01*
X273Y3274*
X279Y3271*
X285Y3274*
X288Y3280*
Y3287*
X285Y3293*
X279Y3296*
X273Y3293*
X270Y3287*
X267Y3293*
X260Y3296*
X254Y3293*
X251Y3287*
Y3280*
X254Y3274*
X260Y3271*
X267Y3274*
X270Y3280*
X238Y1112D02*
X241Y1109D01*
X244Y1103*
Y1094*
X241Y1087*
X238Y1084*
X232Y1081*
X219*
X213Y1084*
X210Y1087*
X207Y1094*
Y1103*
X210Y1109*
X213Y1112*
X244Y1137D02*
Y1150D01*
Y1144D02*
X207D01*
X213Y1137*
X244Y1206D02*
Y1181D01*
X223Y1203*
X216Y1206*
X210Y1203*
X207Y1197*
Y1187*
X210Y1181*
X310Y3114D02*
X360D01*
X318Y2650D02*
X418D01*
Y2550*
X318*
Y2650*
X329Y1019D02*
Y1069D01*
Y1169D02*
Y1219D01*
X360Y3064D02*
Y3164D01*
X460*
Y3064*
X360*
X368Y2550D02*
Y2500D01*
Y2700D02*
Y2650D01*
X404Y3205D02*
X401Y3202D01*
X394Y3199*
X385*
X379Y3202*
X376Y3205*
X372Y3211*
Y3224*
X376Y3230*
X379Y3233*
X385Y3236*
X394*
X401Y3233*
X404Y3230*
X432Y3217D02*
X438D01*
X444Y3220*
X447Y3227*
X444Y3233*
X438Y3236*
X432*
X426Y3233*
X422Y3227*
X426Y3220*
X432Y3217*
X426Y3214*
X422Y3208*
X426Y3202*
X432Y3199*
X438*
X444Y3202*
X447Y3208*
X444Y3214*
X438Y3217*
X379Y1069D02*
X279D01*
Y1169*
X379*
Y1069*
X459Y2606D02*
X456Y2609D01*
X453Y2616*
Y2625*
X456Y2631*
X459Y2634*
X465Y2638*
X478*
X484Y2634*
X487Y2631*
X490Y2625*
Y2616*
X487Y2609*
X484Y2606*
X453Y2578D02*
X456Y2572D01*
X462Y2566*
X471Y2563*
X481*
X487Y2566*
X490Y2572*
Y2578*
X487Y2584*
X481Y2588*
X474Y2584*
X471Y2578*
Y2572*
X474Y2566*
X481Y2563*
X460Y3114D02*
X510D01*
X476Y2827D02*
X339D01*
Y3008*
X476*
Y2922*
X472*
Y2912*
X476*
Y2827*
X491Y1860D02*
X541D01*
Y1810D02*
Y1910D01*
X641*
Y1810*
X541*
X585Y1951D02*
X582Y1948D01*
X575Y1945*
X566*
X560Y1948*
X557Y1951*
X554Y1957*
Y1970*
X557Y1976*
X560Y1979*
X566Y1982*
X575*
X582Y1979*
X585Y1976*
X629Y1945D02*
X604D01*
X625Y1967*
X629Y1973*
X625Y1979*
X619Y1982*
X610*
X604Y1979*
X654Y1945D02*
X679Y1982D01*
X654*
X575Y2495D02*
Y2545D01*
Y2645D02*
Y2695D01*
X580Y266D02*
X630D01*
X589Y1417D02*
X639D01*
X625Y2545D02*
X525D01*
Y2645*
X625*
Y2545*
X630Y216D02*
Y316D01*
X730*
Y216*
X630*
X639Y1367D02*
Y1467D01*
X739*
Y1367*
X639*
X641Y1860D02*
X691D01*
X673Y356D02*
X670Y353D01*
X664Y350*
X655*
X648Y353*
X645Y356*
X642Y363*
Y375*
X645Y381*
X648Y385*
X655Y388*
X664*
X670Y385*
X673Y381*
X698Y350D02*
X711D01*
X705D02*
Y388D01*
X698Y381*
X748Y350D02*
X761D01*
X755D02*
Y388D01*
X748Y381*
X683Y1508D02*
X680Y1505D01*
X674Y1502*
X664*
X658Y1505*
X655Y1508*
X652Y1514*
Y1527*
X655Y1533*
X658Y1536*
X664Y1539*
X674*
X680Y1536*
X683Y1533*
X708Y1502D02*
X721D01*
X714D02*
Y1539D01*
X708Y1533*
X768Y1502D02*
Y1539D01*
X752Y1514*
X777*
X687Y2555D02*
X690Y2552D01*
X693Y2546*
Y2536*
X690Y2530*
X687Y2527*
X681Y2524*
X668*
X662Y2527*
X659Y2530*
X656Y2536*
Y2546*
X659Y2552*
X662Y2555*
X693Y2580D02*
Y2592D01*
Y2586D02*
X656D01*
X662Y2580*
X690Y2627D02*
X693Y2633D01*
Y2639*
X690Y2646*
X684Y2649*
X665*
X659Y2646*
X656Y2639*
Y2633*
X659Y2627*
X665Y2624*
X684*
X690Y2627*
X659Y2646*
X730Y266D02*
X780D01*
X739Y1417D02*
X789D01*
X823Y2825D02*
X820Y2822D01*
X813Y2818*
X804*
X798Y2822*
X795Y2825*
X791Y2831*
Y2843*
X795Y2850*
X798Y2853*
X804Y2856*
X813*
X820Y2853*
X823Y2850*
X841Y2822D02*
X848Y2818D01*
X857*
X863Y2822*
X866Y2828*
Y2831*
X863Y2837*
X857Y2840*
X841*
Y2856*
X866*
X875Y2622D02*
X825D01*
X894Y3402D02*
Y3430D01*
X891Y3437*
X884Y3440*
X872*
X866Y3437*
X863Y3430*
Y3402*
X838Y3440D02*
X825D01*
X831D02*
Y3402D01*
X838Y3408*
X930Y2770D02*
X980D01*
X949Y2513D02*
Y2551D01*
X971*
X977Y2548*
X980Y2542*
X977Y2535*
X971Y2532*
X949*
X971D02*
X980Y2513D01*
X999Y2517D02*
X1005Y2513D01*
X1015*
X1021Y2517*
X1024Y2523*
Y2526*
X1021Y2532*
X1015Y2535*
X999*
Y2551*
X1024*
X980Y2720D02*
Y2820D01*
X1080*
Y2720*
X980*
X1075Y2672D02*
Y2572D01*
X875*
Y2672*
X1075*
X1080Y2770D02*
X1130D01*
X1125Y2622D02*
X1075D01*
X1124Y1900D02*
X1127Y1897D01*
X1130Y1890*
Y1881*
X1127Y1875*
X1124Y1872*
X1118Y1868*
X1105*
X1099Y1872*
X1096Y1875*
X1093Y1881*
Y1890*
X1096Y1897*
X1099Y1900*
X1130Y1925D02*
Y1937D01*
Y1931D02*
X1093D01*
X1099Y1925*
X1215Y1806D02*
Y1856D01*
Y1956D02*
Y2006D01*
X1230Y2884D02*
X904D01*
Y3364*
X1230*
Y3139*
X1216*
Y3109*
X1230*
Y2884*
X1265Y1856D02*
X1165D01*
Y1956*
X1265*
Y1856*
X1318Y2199D02*
X1268D01*
X1372Y3111D02*
X1472D01*
Y3011*
X1372*
Y3111*
X1411Y2297D02*
X1443Y2334D01*
X1411D02*
X1443Y2297D01*
X1477D02*
Y2334D01*
X1461D02*
X1493D01*
X1511Y2297D02*
X1527Y2334D01*
X1543Y2297*
X1518Y2312D02*
X1536D01*
X1561Y2334D02*
Y2297D01*
X1593*
X1618D02*
X1630D01*
X1624D02*
Y2334D01*
X1618Y2328*
X1412Y2826D02*
X1443Y2864D01*
X1412D02*
X1443Y2826D01*
X1478D02*
Y2864D01*
X1462D02*
X1493D01*
X1512Y2826D02*
X1528Y2864D01*
X1543Y2826*
X1518Y2842D02*
X1537D01*
X1562Y2864D02*
Y2826D01*
X1593*
X1637D02*
X1612D01*
X1634Y2848*
X1637Y2854*
X1634Y2861*
X1628Y2864*
X1618*
X1612Y2861*
X1422Y2708D02*
X1411Y2709D01*
X1400Y2713*
X1391Y2719*
X1383Y2727*
X1377Y2736*
X1373Y2747*
X1372Y2758*
X1373Y2769*
X1377Y2780*
X1383Y2789*
X1391Y2797*
X1400Y2803*
X1411Y2807*
X1422Y2808*
X1622*
X1633Y2807*
X1643Y2803*
X1653Y2797*
X1661Y2789*
X1667Y2780*
X1670Y2769*
X1672Y2758*
X1670Y2747*
X1667Y2736*
X1661Y2727*
X1653Y2719*
X1643Y2713*
X1633Y2709*
X1622Y2708*
X1422*
Y3011D02*
Y2961D01*
Y3161D02*
Y3111D01*
X1456Y2115D02*
Y2077D01*
X1434*
X1428Y2080*
X1424Y2086*
X1428Y2093*
X1434Y2096*
X1456*
X1434D02*
X1424Y2115D01*
X1381D02*
X1406D01*
X1384Y2093*
X1381Y2086*
X1384Y2080*
X1390Y2077*
X1399*
X1406Y2080*
X1481Y3469D02*
X1531D01*
X1512Y3067D02*
X1509Y3070D01*
X1506Y3076*
Y3086*
X1509Y3092*
X1512Y3095*
X1519Y3098*
X1531*
X1537Y3095*
X1540Y3092*
X1544Y3086*
Y3076*
X1540Y3070*
X1537Y3067*
X1506Y3033D02*
X1544D01*
X1519Y3048*
Y3023*
X1518Y2249D02*
Y2149D01*
X1318*
Y2249*
X1518*
X1531Y3419D02*
Y3519D01*
X1631*
Y3419*
X1531*
X1528Y1900D02*
X1531Y1897D01*
X1534Y1890*
Y1881*
X1531Y1875*
X1528Y1872*
X1521Y1868*
X1509*
X1503Y1872*
X1499Y1875*
X1496Y1881*
Y1890*
X1499Y1897*
X1503Y1900*
X1534Y1943D02*
Y1918D01*
X1512Y1940*
X1506Y1943*
X1499Y1940*
X1496Y1934*
Y1925*
X1499Y1918*
X1575Y3559D02*
X1572Y3556D01*
X1566Y3553*
X1556*
X1550Y3556*
X1547Y3559*
X1544Y3565*
Y3578*
X1547Y3584*
X1550Y3587*
X1556Y3590*
X1566*
X1572Y3587*
X1575Y3584*
X1619Y3553D02*
X1594D01*
X1616Y3575*
X1619Y3581*
X1616Y3587*
X1609Y3590*
X1600*
X1594Y3587*
X1659Y3553D02*
Y3590D01*
X1644Y3565*
X1669*
X1568Y2199D02*
X1518D01*
X1578Y3111D02*
X1678D01*
Y3011*
X1578*
Y3111*
X1618Y1806D02*
Y1856D01*
Y1956D02*
Y2006D01*
Y2456D02*
X1629Y2454D01*
X1640Y2451*
X1649Y2445*
X1657Y2437*
X1663Y2427*
X1667Y2417*
X1668Y2406*
X1667Y2394*
X1663Y2384*
X1657Y2374*
X1649Y2366*
X1640Y2361*
X1629Y2357*
X1618Y2356*
X1418*
X1407Y2357*
X1396Y2361*
X1387Y2366*
X1379Y2374*
X1373Y2384*
X1369Y2394*
X1368Y2406*
X1369Y2417*
X1373Y2427*
X1379Y2437*
X1387Y2445*
X1396Y2451*
X1407Y2454*
X1418Y2456*
X1618*
X1628Y3011D02*
Y2961D01*
Y3161D02*
Y3111D01*
X1631Y3469D02*
X1681D01*
X1668Y1856D02*
X1568D01*
Y1956*
X1668*
Y1856*
X1719Y3067D02*
X1716Y3070D01*
X1713Y3076*
Y3086*
X1716Y3092*
X1719Y3095*
X1725Y3098*
X1738*
X1744Y3095*
X1747Y3092*
X1750Y3086*
Y3076*
X1747Y3070*
X1744Y3067*
X1716Y3045D02*
X1713Y3039D01*
Y3033*
X1716Y3026*
X1722Y3023*
X1728Y3026*
X1732Y3033*
Y3039*
Y3033D02*
X1735Y3026D01*
X1741Y3023*
X1747Y3026*
X1750Y3033*
Y3039*
X1747Y3045*
X1761Y266D02*
X1811D01*
X1785Y2717D02*
X1885D01*
Y2617*
X1785*
Y2717*
X1780Y2457D02*
X1783Y2453D01*
X1786Y2447*
Y2438*
X1783Y2432*
X1780Y2428*
X1773Y2425*
X1761*
X1755Y2428*
X1752Y2432*
X1748Y2438*
Y2447*
X1752Y2453*
X1755Y2457*
X1786Y2500D02*
Y2475D01*
X1764Y2497*
X1758Y2500*
X1752Y2497*
X1748Y2491*
Y2482*
X1752Y2475*
X1786Y2550D02*
Y2525D01*
X1764Y2547*
X1758Y2550*
X1752Y2547*
X1748Y2541*
Y2532*
X1752Y2525*
X1811Y216D02*
Y316D01*
X1911*
Y216*
X1811*
X1854Y356D02*
X1851Y353D01*
X1845Y350*
X1836*
X1829Y353*
X1826Y356*
X1823Y363*
Y375*
X1826Y381*
X1829Y385*
X1836Y388*
X1845*
X1851Y385*
X1854Y381*
X1879Y350D02*
X1892D01*
X1886D02*
Y388D01*
X1879Y381*
X1926Y353D02*
X1933Y350D01*
X1939*
X1945Y353*
X1948Y360*
X1945Y366*
X1939Y369*
X1933*
X1939D02*
X1945Y372D01*
X1948Y378*
X1945Y385*
X1939Y388*
X1933*
X1926Y385*
X1835Y2617D02*
Y2567D01*
Y2767D02*
Y2717D01*
X1854Y3229D02*
X1954D01*
Y3029*
X1854*
Y3229*
X1904Y3029D02*
Y2979D01*
Y3279D02*
Y3229D01*
X1911Y266D02*
X1961D01*
X1988Y3166D02*
X2026D01*
Y3144*
X2023Y3138*
X2017Y3135*
X2010Y3138*
X2007Y3144*
Y3166*
Y3144D02*
X1988Y3135D01*
Y3110D02*
Y3098D01*
Y3104D02*
X2026D01*
X2020Y3110*
X1998Y2711D02*
X1999Y2708D01*
X2002Y2707*
X2005Y2708*
X2006Y2711*
X2005Y2714*
X2002Y2715*
X1999Y2714*
X1998Y2711*
X1999Y2708D02*
X2005D01*
X1998Y2711D02*
X2006D01*
X1999Y2714D02*
X2005D01*
X2006Y2813D02*
X2419D01*
Y2392*
X1998*
Y2805*
X2006Y2813*
X2079Y405D02*
X469D01*
Y1315*
X2079*
Y867*
X2072*
Y854*
X2079*
Y405*
X2094Y318D02*
Y347D01*
X2091Y353*
X2084Y356*
X2072*
X2066Y353*
X2062Y347*
Y318*
X2044Y353D02*
X2037Y356D01*
X2028*
X2022Y353*
X2019Y347*
Y343*
X2022Y337*
X2028Y334*
X2044*
Y318*
X2019*
X2105Y2234D02*
X2155D01*
X2111Y3221D02*
X2128Y3222D01*
X2145Y3226*
X2161Y3233*
X2176Y3242*
X2189Y3253*
X2200Y3266*
X2209Y3281*
X2216Y3297*
X2220Y3314*
X2221Y3331*
X2220Y3348*
X2216Y3365*
X2209Y3381*
X2200Y3395*
X2189Y3409*
X2176Y3420*
X2161Y3429*
X2145Y3435*
X2128Y3439*
X2111Y3441*
X2092Y3439*
X2073Y3436*
X2055Y3430*
X2038Y3421*
X2022Y3410*
X2008Y3398*
Y3264*
X2022Y3251*
X2038Y3241*
X2055Y3232*
X2073Y3226*
X2092Y3222*
X2111Y3221*
X2155Y2184D02*
Y2284D01*
X2255*
Y2184*
X2155*
X2199Y2325D02*
X2196Y2322D01*
X2190Y2319*
X2180*
X2174Y2322*
X2171Y2325*
X2168Y2331*
Y2344*
X2171Y2350*
X2174Y2353*
X2180Y2356*
X2190*
X2196Y2353*
X2199Y2350*
X2243Y2319D02*
X2218D01*
X2240Y2341*
X2243Y2347*
X2240Y2353*
X2233Y2356*
X2224*
X2218Y2353*
X2271Y2322D02*
X2277Y2319D01*
X2283*
X2290Y2322*
X2293Y2328*
X2290Y2334*
X2283Y2337*
X2277*
X2283D02*
X2290Y2341D01*
X2293Y2347*
X2290Y2353*
X2283Y2356*
X2277*
X2271Y2353*
X2171Y2915D02*
X2221D01*
Y2865D02*
Y2965D01*
X2321*
Y2865*
X2221*
X2264Y3006D02*
X2261Y3003D01*
X2255Y3000*
X2246*
X2239Y3003*
X2236Y3006*
X2233Y3012*
Y3025*
X2236Y3031*
X2239Y3034*
X2246Y3037*
X2255*
X2261Y3034*
X2264Y3031*
X2308Y3000D02*
X2283D01*
X2305Y3022*
X2308Y3028*
X2305Y3034*
X2299Y3037*
X2289*
X2283Y3034*
X2339Y3000D02*
X2352D01*
X2346D02*
Y3037D01*
X2339Y3031*
X2255Y2234D02*
X2305D01*
X2278Y3154D02*
X2328D01*
X2271Y3250D02*
X2308D01*
Y3281*
Y3300D02*
X2271D01*
Y3331*
X2289Y3325D02*
Y3300D01*
X2308D02*
Y3331D01*
Y3350D02*
X2271D01*
Y3369*
X2274Y3375*
X2277Y3378*
X2283Y3381*
X2296*
X2302Y3378*
X2305Y3375*
X2308Y3369*
Y3350*
Y3406D02*
Y3419D01*
Y3413D02*
X2271D01*
X2277Y3406*
X2321Y2915D02*
X2371D01*
X2328Y3104D02*
Y3204D01*
X2528*
Y3104*
X2328*
X2356Y2374D02*
Y2346D01*
X2359Y2339*
X2366Y2336*
X2378*
X2384Y2339*
X2388Y2346*
Y2374*
X2422Y2336D02*
Y2374D01*
X2406Y2349*
X2431*
X2391Y3238D02*
Y3275D01*
X2413*
X2419Y3272*
X2422Y3266*
X2419Y3260*
X2413Y3257*
X2391*
X2413D02*
X2422Y3238D01*
X2457D02*
Y3275D01*
X2441Y3250*
X2466*
X2423Y3612D02*
X2461D01*
Y3591*
X2457Y3584*
X2451Y3581*
X2445Y3584*
X2442Y3591*
Y3612*
X2461Y3562D02*
X2423D01*
Y3531*
Y3506D02*
Y3494D01*
Y3500D02*
X2461D01*
X2454Y3506*
X2452Y423D02*
Y461D01*
X2421*
X2387D02*
Y423D01*
X2402Y448*
X2377*
X2452Y630D02*
Y668D01*
X2421*
X2399Y665D02*
X2393Y668D01*
X2387*
X2381Y665*
X2377Y658*
X2381Y652*
X2387Y649*
X2393*
X2387D02*
X2381Y646D01*
X2377Y640*
X2381Y633*
X2387Y630*
X2393*
X2399Y633*
X2528Y3154D02*
X2578D01*
X2573Y2485D02*
Y2535D01*
Y2635D02*
Y2685D01*
X2637Y2632D02*
X2634Y2635D01*
X2631Y2642*
Y2651*
X2634Y2657*
X2637Y2660*
X2644Y2663*
X2656*
X2662Y2660*
X2665Y2657*
X2669Y2651*
Y2642*
X2665Y2635*
X2662Y2632*
X2631Y2588D02*
Y2613D01*
X2653Y2592*
X2659Y2588*
X2665Y2592*
X2669Y2598*
Y2607*
X2665Y2613*
X2634Y2560D02*
X2631Y2554D01*
Y2548*
X2634Y2542*
X2640Y2538*
X2659*
X2665Y2542*
X2669Y2548*
Y2554*
X2665Y2560*
X2659Y2563*
X2640*
X2634Y2560*
X2665Y2542*
X2623Y2535D02*
X2523D01*
Y2635*
X2623*
Y2535*
X2692Y1904D02*
X2742D01*
X2706Y1083D02*
X2756D01*
X2742Y1854D02*
Y1954D01*
X2842*
Y1854*
X2742*
X2786Y1994D02*
X2782Y1991D01*
X2776Y1988*
X2767*
X2761Y1991*
X2757Y1994*
X2754Y2000*
Y2013*
X2757Y2019*
X2761Y2022*
X2767Y2025*
X2776*
X2782Y2022*
X2786Y2019*
X2829Y1988D02*
X2804D01*
X2826Y2010*
X2829Y2016*
X2826Y2022*
X2820Y2025*
X2811*
X2804Y2022*
X2854Y1991D02*
X2861Y1988D01*
X2870*
X2876Y1991*
X2879Y1997*
Y2000*
X2876Y2007*
X2870Y2010*
X2854*
Y2025*
X2879*
X2756Y1033D02*
Y1133D01*
X2856*
Y1033*
X2756*
X2799Y1173D02*
X2796Y1170D01*
X2790Y1167*
X2781*
X2774Y1170*
X2771Y1173*
X2768Y1180*
Y1192*
X2771Y1198*
X2774Y1201*
X2781Y1205*
X2790*
X2796Y1201*
X2799Y1198*
X2843Y1167D02*
X2818D01*
X2840Y1189*
X2843Y1195*
X2840Y1201*
X2834Y1205*
X2824*
X2818Y1201*
X2868Y1176D02*
X2871Y1183D01*
X2877Y1186*
X2884*
X2890Y1183*
X2893Y1176*
X2890Y1170*
X2884Y1167*
X2877*
X2871Y1170*
X2868Y1176*
Y1186*
X2871Y1195*
X2877Y1201*
X2884Y1205*
X2824Y3104D02*
X2774D01*
X2842Y1904D02*
X2892D01*
X2856Y1083D02*
X2906D01*
X2888Y3183D02*
Y3220D01*
X2910*
X2916Y3217*
X2919Y3211*
X2916Y3205*
X2910Y3201*
X2888*
X2910D02*
X2919Y3183D01*
X2941Y3186D02*
X2947Y3183D01*
X2953*
X2960Y3186*
X2963Y3192*
X2960Y3198*
X2953Y3201*
X2947*
X2953D02*
X2960Y3205D01*
X2963Y3211*
X2960Y3217*
X2953Y3220*
X2947*
X2941Y3217*
X3024Y3154D02*
Y3054D01*
X2824*
Y3154*
X3024*
X3074Y3104D02*
X3024D01*
X3104Y1685D02*
X3204D01*
Y1585*
X3104*
Y1685*
Y3457D02*
X3204D01*
Y3357*
X3104*
Y3457*
X3106Y1103D02*
X3206D01*
Y1003*
X3106*
Y1103*
X3113Y504D02*
X3213D01*
Y404*
X3113*
Y504*
Y2276D02*
X3213D01*
Y2176*
X3113*
Y2276*
Y2867D02*
X3213D01*
Y2767*
X3113*
Y2867*
X3154Y1585D02*
Y1535D01*
Y1735D02*
Y1685D01*
Y3357D02*
Y3307D01*
Y3507D02*
Y3457D01*
X3156Y1003D02*
Y953D01*
Y1153D02*
Y1103D01*
X3163Y404D02*
Y354D01*
Y554D02*
Y504D01*
Y2176D02*
Y2126D01*
Y2326D02*
Y2276D01*
Y2767D02*
Y2717D01*
Y2917D02*
Y2867D01*
X3244Y1642D02*
X3241Y1645D01*
X3238Y1651*
Y1660*
X3241Y1667*
X3244Y1670*
X3250Y1673*
X3263*
X3269Y1670*
X3272Y1667*
X3275Y1660*
Y1651*
X3272Y1645*
X3269Y1642*
X3238Y1617D02*
Y1604D01*
Y1610D02*
X3275D01*
X3269Y1617*
X3247Y1573D02*
X3254Y1570D01*
X3257Y1564*
Y1557*
X3254Y1551*
X3247Y1548*
X3241Y1551*
X3238Y1557*
Y1564*
X3241Y1570*
X3247Y1573*
X3257*
X3266Y1570*
X3272Y1564*
X3275Y1557*
X3244Y3413D02*
X3241Y3417D01*
X3238Y3423*
Y3432*
X3241Y3438*
X3244Y3442*
X3250Y3445*
X3263*
X3269Y3442*
X3272Y3438*
X3275Y3432*
Y3423*
X3272Y3417*
X3269Y3413*
X3238Y3388D02*
Y3376D01*
Y3382D02*
X3275D01*
X3269Y3388*
X3238Y3335D02*
X3241Y3329D01*
X3247Y3323*
X3257Y3320*
X3266*
X3272Y3323*
X3275Y3329*
Y3335*
X3272Y3342*
X3266Y3345*
X3260Y3342*
X3257Y3335*
Y3329*
X3260Y3323*
X3266Y3320*
X3246Y1059D02*
X3243Y1062D01*
X3240Y1068*
Y1078*
X3243Y1084*
X3246Y1087*
X3252Y1090*
X3265*
X3271Y1087*
X3274Y1084*
X3277Y1078*
Y1068*
X3274Y1062*
X3271Y1059*
X3240Y1040D02*
X3277Y1015D01*
Y1040*
X3254Y461D02*
X3251Y464D01*
X3248Y470*
Y479*
X3251Y486*
X3254Y489*
X3260Y492*
X3273*
X3279Y489*
X3282Y486*
X3285Y479*
Y470*
X3282Y464*
X3279Y461*
X3257Y442D02*
X3263Y439D01*
X3267Y433*
Y426*
X3263Y420*
X3257Y417*
X3251Y420*
X3248Y426*
Y433*
X3251Y439*
X3257Y442*
X3267*
X3276Y439*
X3282Y433*
X3285Y426*
X3254Y2232D02*
X3251Y2235D01*
X3248Y2242*
Y2251*
X3251Y2257*
X3254Y2260*
X3260Y2264*
X3273*
X3279Y2260*
X3282Y2257*
X3285Y2251*
Y2242*
X3282Y2235*
X3279Y2232*
X3248Y2207D02*
Y2195D01*
Y2201D02*
X3285D01*
X3279Y2207*
X3248Y2164D02*
X3285Y2139D01*
Y2164*
X3254Y2823D02*
X3251Y2826D01*
X3248Y2832*
Y2842*
X3251Y2848*
X3254Y2851*
X3260Y2854*
X3273*
X3279Y2851*
X3282Y2848*
X3285Y2842*
Y2832*
X3282Y2826*
X3279Y2823*
X3248Y2798D02*
Y2785D01*
Y2792D02*
X3285D01*
X3279Y2798*
X3267Y2745D02*
Y2738D01*
X3270Y2732*
X3276Y2729*
X3282Y2732*
X3285Y2738*
Y2745*
X3282Y2751*
X3276Y2754*
X3270Y2751*
X3267Y2745*
X3263Y2751*
X3257Y2754*
X3251Y2751*
X3248Y2745*
Y2738*
X3251Y2732*
X3257Y2729*
X3263Y2732*
X3267Y2738*
X3305Y697D02*
X3632D01*
Y217*
X3305*
Y442*
X3320*
Y472*
X3305*
Y697*
Y1287D02*
X3632D01*
Y807*
X3305*
Y1033*
X3320*
Y1062*
X3305*
Y1287*
Y3630D02*
X3632D01*
Y3150*
X3305*
Y3375*
X3320*
Y3405*
X3305*
Y3630*
X3315Y1878D02*
X3642D01*
Y1398*
X3315*
Y1623*
X3330*
Y1653*
X3315*
Y1878*
Y2459D02*
X3642D01*
Y1978*
X3315*
Y2204*
X3330*
Y2233*
X3315*
Y2459*
Y3049D02*
X3642D01*
Y2569*
X3315*
Y2794*
X3330*
Y2824*
X3315*
Y3049*
X3642Y179D02*
Y151D01*
X3645Y144*
X3651Y141*
X3664*
X3670Y144*
X3673Y151*
Y179*
X3717Y141D02*
X3692D01*
X3714Y163*
X3717Y169*
X3714Y176*
X3707Y179*
X3698*
X3692Y176*
X3642Y769D02*
Y741D01*
X3645Y735*
X3651Y732*
X3664*
X3670Y735*
X3673Y741*
Y769*
X3695Y735D02*
X3701Y732D01*
X3707*
X3714Y735*
X3717Y741*
X3714Y747*
X3707Y750*
X3701*
X3707D02*
X3714Y754D01*
X3717Y760*
X3714Y766*
X3707Y769*
X3701*
X3695Y766*
X3642Y3112D02*
Y3084D01*
X3645Y3077*
X3651Y3074*
X3664*
X3670Y3077*
X3673Y3084*
Y3112*
X3698Y3074D02*
X3711D01*
X3704D02*
Y3112D01*
X3698Y3105*
X3745Y3077D02*
X3751Y3074D01*
X3757*
X3764Y3077*
X3767Y3084*
Y3102*
X3764Y3109*
X3757Y3112*
X3751*
X3745Y3109*
X3742Y3102*
Y3084*
X3745Y3077*
X3764Y3109*
X3652Y1360D02*
Y1332D01*
X3655Y1325*
X3661Y1322*
X3674*
X3680Y1325*
X3683Y1332*
Y1360*
X3702Y1322D02*
X3727Y1360D01*
X3702*
X3652Y1940D02*
Y1912D01*
X3655Y1906*
X3661Y1903*
X3674*
X3680Y1906*
X3683Y1912*
Y1940*
X3711Y1922D02*
X3717D01*
X3724Y1925*
X3727Y1931*
X3724Y1937*
X3717Y1940*
X3711*
X3705Y1937*
X3702Y1931*
X3705Y1925*
X3711Y1922*
X3705Y1919*
X3702Y1912*
X3705Y1906*
X3711Y1903*
X3717*
X3724Y1906*
X3727Y1912*
X3724Y1919*
X3717Y1922*
X3652Y2531D02*
Y2503D01*
X3655Y2497*
X3661Y2493*
X3674*
X3680Y2497*
X3683Y2503*
Y2531*
X3711Y2493D02*
X3717Y2497D01*
X3724Y2503*
X3727Y2512*
Y2522*
X3724Y2528*
X3717Y2531*
X3711*
X3705Y2528*
X3702Y2522*
X3705Y2515*
X3711Y2512*
X3717*
X3724Y2515*
X3727Y2522*
X3839Y3556D02*
Y3519D01*
X3817*
X3811Y3522*
X3808Y3528*
X3811Y3534*
X3817Y3537*
X3839*
X3789Y3519D02*
Y3556D01*
X3758*
X3739D02*
X3714Y3519D01*
X3739*
X3849Y1785D02*
Y1747D01*
X3827*
X3821Y1750*
X3817Y1756*
X3821Y1763*
X3827Y1766*
X3849*
X3799Y1747D02*
Y1785D01*
X3767*
X3733D02*
Y1747D01*
X3749Y1772*
X3724*
X3849Y2375D02*
Y2338D01*
X3827*
X3821Y2341*
X3817Y2347*
X3821Y2353*
X3827Y2356*
X3849*
X3799Y2338D02*
Y2375D01*
X3767*
X3749Y2372D02*
X3742Y2375D01*
X3733*
X3727Y2372*
X3724Y2366*
Y2363*
X3727Y2356*
X3733Y2353*
X3749*
Y2338*
X3724*
X3849Y2956D02*
Y2918D01*
X3827*
X3821Y2921*
X3817Y2928*
X3821Y2934*
X3827Y2937*
X3849*
X3799Y2918D02*
Y2956D01*
X3767*
X3749Y2946D02*
X3746Y2940D01*
X3739Y2937*
X3733*
X3727Y2940*
X3724Y2946*
X3727Y2953*
X3733Y2956*
X3739*
X3746Y2953*
X3749Y2946*
Y2937*
X3746Y2928*
X3739Y2921*
X3733Y2918*
X3855Y1208D02*
Y1170D01*
X3833*
X3826Y1173*
X3823Y1180*
X3826Y1186*
X3833Y1189*
X3855*
X3805Y1170D02*
Y1208D01*
X3773*
X3751Y1205D02*
X3745Y1208D01*
X3739*
X3733Y1205*
X3730Y1198*
X3733Y1192*
X3739Y1189*
X3745*
X3739D02*
X3733Y1186D01*
X3730Y1180*
X3733Y1173*
X3739Y1170*
X3745*
X3751Y1173*
X3859Y594D02*
Y556D01*
X3837*
X3830Y559*
X3827Y566*
X3830Y572*
X3837Y575*
X3859*
X3809Y556D02*
Y594D01*
X3777*
X3734D02*
X3759D01*
X3737Y572*
X3734Y566*
X3737Y559*
X3743Y556*
X3752*
X3759Y559*
D02*
D13*
X517Y3371D02*
X317D01*
Y3271*
X517*
Y3371*
X2889Y3587D02*
X2489D01*
Y3487*
X2889*
Y3587*
X3814Y3291D02*
Y3491D01*
X3714*
Y3291*
X3814*
X3824Y1519D02*
Y1719D01*
X3724*
Y1519*
X3824*
Y2110D02*
Y2310D01*
X3724*
Y2110*
X3824*
Y2690D02*
Y2890D01*
X3724*
Y2690*
X3824*
X3830Y942D02*
Y1142D01*
X3730*
Y942*
X3830*
X3834Y328D02*
Y528D01*
X3734*
Y328*
X3834*
D02*
D14*
X2302Y545D02*
X2252D01*
X2302Y752D02*
X2252D01*
X2502Y595D02*
Y495D01*
X2302*
Y595*
X2502*
Y802D02*
Y702D01*
X2302*
Y802*
X2502*
X2552Y545D02*
X2502D01*
X2552Y752D02*
X2502D01*
D02*
D95*
X4Y4D02*
X3941D01*
Y3941*
X4*
Y4*
X0Y0D02*
M02*
