%FSLAX23Y23*%
%MOIN*%
G04 EasyPC Gerber Version 12.0.1 Build 2704 *
%ADD15R,0.06000X0.08000*%
%ADD17R,0.06000X0.06000*%
%ADD12C,0.00500*%
%ADD95C,0.00800*%
%ADD13C,0.01000*%
%ADD22C,0.03200*%
%ADD23C,0.05600*%
%ADD71C,0.06000*%
%ADD16C,0.06000*%
X0Y0D02*
D02*
D12*
X171Y171D02*
X2287D01*
Y1500*
X171*
Y171*
X286Y969D02*
X288Y980D01*
X292Y990*
X299Y999*
X308Y1005*
X318Y1010*
X329Y1011*
X340Y1010*
X350Y1005*
X359Y999*
X366Y990*
X370Y980*
X371Y969*
X370Y958*
X366Y947*
X359Y939*
X350Y932*
X340Y928*
X329Y926*
X318Y928*
X308Y932*
X299Y939*
X292Y947*
X288Y958*
X286Y969*
X286Y1269D02*
X288Y1280D01*
X292Y1290*
X299Y1299*
X308Y1305*
X318Y1309*
X329Y1311*
X340Y1309*
X350Y1305*
X359Y1299*
X365Y1290*
X370Y1280*
X371Y1269*
X370Y1258*
X365Y1247*
X359Y1239*
X350Y1232*
X340Y1228*
X329Y1226*
X318Y1228*
X308Y1232*
X299Y1239*
X292Y1247*
X288Y1258*
X286Y1269*
X530Y308D02*
X541Y307D01*
X551Y302*
X560Y296*
X566Y287*
X570Y277*
X572Y266*
X570Y255*
X566Y245*
X560Y236*
X551Y229*
X541Y225*
X530Y223*
X519Y225*
X508Y229*
X500Y236*
X493Y245*
X489Y255*
X487Y266*
X489Y277*
X493Y287*
X500Y296*
X508Y302*
X519Y307*
X530Y308*
X539Y1460D02*
X550Y1458D01*
X561Y1454*
X569Y1447*
X576Y1439*
X580Y1428*
X582Y1417*
X580Y1406*
X576Y1396*
X569Y1387*
X561Y1381*
X550Y1376*
X539Y1375*
X528Y1376*
X518Y1381*
X509Y1387*
X503Y1396*
X499Y1406*
X497Y1417*
X499Y1428*
X503Y1439*
X509Y1447*
X518Y1454*
X528Y1458*
X539Y1460*
X566Y460D02*
X565Y449D01*
X560Y439*
X554Y430*
X545Y424*
X535Y419*
X524Y418*
X513Y419*
X503Y424*
X494Y430*
X487Y439*
X483Y449*
X481Y460*
X483Y471*
X487Y481*
X494Y490*
X503Y497*
X513Y501*
X524Y503*
X535Y501*
X545Y497*
X554Y490*
X560Y481*
X565Y471*
X566Y460*
X566Y1260D02*
X565Y1249D01*
X560Y1239*
X554Y1230*
X545Y1223*
X535Y1219*
X524Y1218*
X513Y1219*
X502Y1223*
X494Y1230*
X487Y1239*
X483Y1249*
X481Y1260*
X483Y1271*
X487Y1282*
X494Y1290*
X502Y1297*
X513Y1301*
X524Y1303*
X535Y1301*
X545Y1297*
X554Y1290*
X560Y1282*
X565Y1271*
X566Y1260*
X666Y460D02*
X665Y449D01*
X660Y439*
X654Y430*
X645Y424*
X635Y419*
X624Y418*
X613Y419*
X603Y424*
X594Y430*
X587Y439*
X583Y449*
X581Y460*
X583Y471*
X587Y481*
X594Y490*
X603Y497*
X613Y501*
X624Y503*
X635Y501*
X645Y497*
X654Y490*
X660Y481*
X665Y471*
X666Y460*
Y1260D02*
X665Y1249D01*
X660Y1239*
X654Y1230*
X645Y1224*
X635Y1219*
X624Y1218*
X613Y1219*
X603Y1224*
X594Y1230*
X587Y1239*
X583Y1249*
X581Y1260*
X583Y1271*
X587Y1281*
X594Y1290*
X603Y1297*
X613Y1301*
X624Y1303*
X635Y1301*
X645Y1297*
X654Y1290*
X660Y1281*
X665Y1271*
X666Y1260*
X766Y460D02*
X765Y449D01*
X760Y439*
X754Y430*
X745Y424*
X735Y419*
X724Y418*
X713Y419*
X703Y424*
X694Y430*
X687Y439*
X683Y449*
X681Y460*
X683Y471*
X687Y481*
X694Y490*
X703Y497*
X713Y501*
X724Y503*
X735Y501*
X745Y497*
X754Y490*
X760Y481*
X765Y471*
X766Y460*
Y1260D02*
X765Y1249D01*
X760Y1239*
X754Y1230*
X745Y1224*
X735Y1219*
X724Y1218*
X713Y1219*
X703Y1224*
X694Y1230*
X687Y1239*
X683Y1249*
X681Y1260*
X683Y1271*
X687Y1281*
X694Y1290*
X703Y1297*
X713Y1301*
X724Y1303*
X735Y1301*
X745Y1297*
X754Y1290*
X760Y1281*
X765Y1271*
X766Y1260*
X830Y308D02*
X841Y307D01*
X851Y303*
X860Y296*
X866Y287*
X871Y277*
X872Y266*
X871Y255*
X866Y245*
X860Y236*
X851Y229*
X841Y225*
X830Y223*
X819Y225*
X808Y229*
X800Y236*
X793Y245*
X789Y255*
X787Y266*
X789Y277*
X793Y287*
X800Y296*
X808Y303*
X819Y307*
X830Y308*
X839Y1460D02*
X850Y1458D01*
X861Y1454*
X869Y1447*
X876Y1439*
X880Y1428*
X882Y1417*
X880Y1406*
X876Y1396*
X869Y1387*
X861Y1381*
X850Y1376*
X839Y1375*
X828Y1376*
X818Y1381*
X809Y1387*
X803Y1396*
X798Y1406*
X797Y1417*
X798Y1428*
X803Y1439*
X809Y1447*
X818Y1454*
X828Y1458*
X839Y1460*
X866Y460D02*
X865Y449D01*
X860Y439*
X854Y430*
X845Y424*
X835Y419*
X824Y418*
X813Y419*
X803Y424*
X794Y430*
X787Y439*
X783Y449*
X781Y460*
X783Y471*
X787Y481*
X794Y490*
X803Y497*
X813Y501*
X824Y503*
X835Y501*
X845Y497*
X854Y490*
X860Y481*
X865Y471*
X866Y460*
Y1260D02*
X865Y1249D01*
X860Y1239*
X854Y1230*
X845Y1224*
X835Y1219*
X824Y1218*
X813Y1219*
X803Y1224*
X794Y1230*
X787Y1239*
X783Y1249*
X781Y1260*
X783Y1271*
X787Y1281*
X794Y1290*
X803Y1297*
X813Y1301*
X824Y1303*
X835Y1301*
X845Y1297*
X854Y1290*
X860Y1281*
X865Y1271*
X866Y1260*
X966Y460D02*
X965Y449D01*
X960Y439*
X954Y430*
X945Y424*
X935Y419*
X924Y418*
X913Y419*
X903Y424*
X894Y430*
X887Y439*
X883Y449*
X881Y460*
X883Y471*
X887Y481*
X894Y490*
X903Y497*
X913Y501*
X924Y503*
X935Y501*
X945Y497*
X954Y490*
X960Y481*
X965Y471*
X966Y460*
Y1260D02*
X965Y1249D01*
X960Y1239*
X954Y1230*
X945Y1224*
X935Y1219*
X924Y1218*
X913Y1219*
X903Y1224*
X894Y1230*
X887Y1239*
X883Y1249*
X881Y1260*
X883Y1271*
X887Y1281*
X894Y1290*
X903Y1297*
X913Y1301*
X924Y1303*
X935Y1301*
X945Y1297*
X954Y1290*
X960Y1281*
X965Y1271*
X966Y1260*
X1066Y460D02*
X1065Y449D01*
X1060Y439*
X1054Y430*
X1045Y424*
X1035Y419*
X1024Y418*
X1013Y419*
X1003Y424*
X994Y430*
X987Y439*
X983Y449*
X981Y460*
X983Y471*
X987Y481*
X994Y490*
X1003Y497*
X1013Y501*
X1024Y503*
X1035Y501*
X1045Y497*
X1054Y490*
X1060Y481*
X1065Y471*
X1066Y460*
Y1260D02*
X1065Y1249D01*
X1060Y1239*
X1054Y1230*
X1045Y1224*
X1035Y1219*
X1024Y1218*
X1013Y1219*
X1003Y1224*
X994Y1230*
X987Y1239*
X983Y1249*
X981Y1260*
X983Y1271*
X987Y1281*
X994Y1290*
X1003Y1297*
X1013Y1301*
X1024Y1303*
X1035Y1301*
X1045Y1297*
X1054Y1290*
X1060Y1281*
X1065Y1271*
X1066Y1260*
X1166Y460D02*
X1165Y449D01*
X1160Y439*
X1154Y430*
X1145Y424*
X1135Y419*
X1124Y418*
X1113Y419*
X1103Y424*
X1094Y430*
X1087Y439*
X1083Y449*
X1081Y460*
X1083Y471*
X1087Y481*
X1094Y490*
X1103Y497*
X1113Y501*
X1124Y503*
X1135Y501*
X1145Y497*
X1154Y490*
X1160Y481*
X1165Y471*
X1166Y460*
Y1260D02*
X1165Y1249D01*
X1160Y1239*
X1154Y1230*
X1145Y1224*
X1135Y1219*
X1124Y1218*
X1113Y1219*
X1103Y1224*
X1094Y1230*
X1087Y1239*
X1083Y1249*
X1081Y1260*
X1083Y1271*
X1087Y1281*
X1094Y1290*
X1103Y1297*
X1113Y1301*
X1124Y1303*
X1135Y1301*
X1145Y1297*
X1154Y1290*
X1160Y1281*
X1165Y1271*
X1166Y1260*
X1266Y460D02*
X1265Y449D01*
X1260Y439*
X1254Y430*
X1245Y424*
X1235Y419*
X1224Y418*
X1213Y419*
X1203Y424*
X1194Y430*
X1187Y439*
X1183Y449*
X1181Y460*
X1183Y471*
X1187Y481*
X1194Y490*
X1203Y497*
X1213Y501*
X1224Y503*
X1235Y501*
X1245Y497*
X1254Y490*
X1260Y481*
X1265Y471*
X1266Y460*
Y1260D02*
X1265Y1249D01*
X1260Y1239*
X1254Y1230*
X1245Y1224*
X1235Y1219*
X1224Y1218*
X1213Y1219*
X1203Y1224*
X1194Y1230*
X1187Y1239*
X1183Y1249*
X1181Y1260*
X1183Y1271*
X1187Y1281*
X1194Y1290*
X1203Y1297*
X1213Y1301*
X1224Y1303*
X1235Y1301*
X1245Y1297*
X1254Y1290*
X1260Y1281*
X1265Y1271*
X1266Y1260*
X1366Y460D02*
X1365Y449D01*
X1360Y439*
X1354Y430*
X1345Y424*
X1335Y419*
X1324Y418*
X1313Y419*
X1303Y424*
X1294Y430*
X1287Y439*
X1283Y449*
X1281Y460*
X1283Y471*
X1287Y481*
X1294Y490*
X1303Y497*
X1313Y501*
X1324Y503*
X1335Y501*
X1345Y497*
X1354Y490*
X1360Y481*
X1365Y471*
X1366Y460*
Y1260D02*
X1365Y1249D01*
X1360Y1239*
X1354Y1230*
X1345Y1224*
X1335Y1219*
X1324Y1218*
X1313Y1219*
X1303Y1224*
X1294Y1230*
X1287Y1239*
X1283Y1249*
X1281Y1260*
X1283Y1271*
X1287Y1281*
X1294Y1290*
X1303Y1297*
X1313Y1301*
X1324Y1303*
X1335Y1301*
X1345Y1297*
X1354Y1290*
X1360Y1281*
X1365Y1271*
X1366Y1260*
X1466Y460D02*
X1465Y449D01*
X1460Y439*
X1454Y430*
X1445Y424*
X1435Y419*
X1424Y418*
X1413Y419*
X1403Y424*
X1394Y430*
X1387Y439*
X1383Y449*
X1381Y460*
X1383Y471*
X1387Y481*
X1394Y490*
X1403Y497*
X1413Y501*
X1424Y503*
X1435Y501*
X1445Y497*
X1454Y490*
X1460Y481*
X1465Y471*
X1466Y460*
Y1260D02*
X1465Y1249D01*
X1460Y1239*
X1454Y1230*
X1445Y1224*
X1435Y1219*
X1424Y1218*
X1413Y1219*
X1403Y1224*
X1394Y1230*
X1387Y1239*
X1383Y1249*
X1381Y1260*
X1383Y1271*
X1387Y1281*
X1394Y1290*
X1403Y1297*
X1413Y1301*
X1424Y1303*
X1435Y1301*
X1445Y1297*
X1454Y1290*
X1460Y1281*
X1465Y1271*
X1466Y1260*
X1566Y460D02*
X1565Y449D01*
X1560Y439*
X1554Y430*
X1545Y424*
X1535Y419*
X1524Y418*
X1513Y419*
X1503Y424*
X1494Y430*
X1487Y439*
X1483Y449*
X1481Y460*
X1483Y471*
X1487Y481*
X1494Y490*
X1503Y497*
X1513Y501*
X1524Y503*
X1535Y501*
X1545Y497*
X1554Y490*
X1560Y481*
X1565Y471*
X1566Y460*
Y1260D02*
X1565Y1249D01*
X1560Y1239*
X1554Y1230*
X1545Y1224*
X1535Y1219*
X1524Y1218*
X1513Y1219*
X1503Y1224*
X1494Y1230*
X1487Y1239*
X1483Y1249*
X1481Y1260*
X1483Y1271*
X1487Y1281*
X1494Y1290*
X1503Y1297*
X1513Y1301*
X1524Y1303*
X1535Y1301*
X1545Y1297*
X1554Y1290*
X1560Y1281*
X1565Y1271*
X1566Y1260*
X1666Y460D02*
X1665Y449D01*
X1660Y439*
X1654Y430*
X1645Y424*
X1635Y419*
X1624Y418*
X1613Y419*
X1603Y424*
X1594Y430*
X1587Y439*
X1583Y449*
X1581Y460*
X1583Y471*
X1587Y481*
X1594Y490*
X1603Y497*
X1613Y501*
X1624Y503*
X1635Y501*
X1645Y497*
X1654Y490*
X1660Y481*
X1665Y471*
X1666Y460*
Y1260D02*
X1665Y1249D01*
X1660Y1239*
X1654Y1230*
X1645Y1224*
X1635Y1219*
X1624Y1218*
X1613Y1219*
X1603Y1224*
X1594Y1230*
X1587Y1239*
X1583Y1249*
X1581Y1260*
X1583Y1271*
X1587Y1281*
X1594Y1290*
X1603Y1297*
X1613Y1301*
X1624Y1303*
X1635Y1301*
X1645Y1297*
X1654Y1290*
X1660Y1281*
X1665Y1271*
X1666Y1260*
X1711Y308D02*
X1722Y307D01*
X1732Y302*
X1741Y296*
X1747Y287*
X1752Y277*
X1753Y266*
X1752Y255*
X1747Y245*
X1741Y236*
X1732Y229*
X1722Y225*
X1711Y223*
X1700Y225*
X1690Y229*
X1681Y236*
X1674Y245*
X1670Y255*
X1668Y266*
X1670Y277*
X1674Y287*
X1681Y296*
X1690Y302*
X1700Y307*
X1711Y308*
X1766Y460D02*
X1765Y449D01*
X1760Y439*
X1754Y430*
X1745Y424*
X1735Y419*
X1724Y418*
X1713Y419*
X1703Y424*
X1694Y430*
X1687Y439*
X1683Y449*
X1681Y460*
X1683Y471*
X1687Y481*
X1694Y490*
X1703Y497*
X1713Y501*
X1724Y503*
X1735Y501*
X1745Y497*
X1754Y490*
X1760Y481*
X1765Y471*
X1766Y460*
Y1260D02*
X1765Y1249D01*
X1760Y1239*
X1754Y1230*
X1745Y1224*
X1735Y1219*
X1724Y1218*
X1713Y1219*
X1703Y1224*
X1694Y1230*
X1687Y1239*
X1683Y1249*
X1681Y1260*
X1683Y1271*
X1687Y1281*
X1694Y1290*
X1703Y1297*
X1713Y1301*
X1724Y1303*
X1735Y1301*
X1745Y1297*
X1754Y1290*
X1760Y1281*
X1765Y1271*
X1766Y1260*
X1866Y460D02*
X1865Y449D01*
X1860Y439*
X1854Y430*
X1845Y424*
X1835Y419*
X1824Y418*
X1813Y419*
X1803Y424*
X1794Y430*
X1787Y439*
X1783Y449*
X1781Y460*
X1783Y471*
X1787Y481*
X1794Y490*
X1803Y497*
X1813Y501*
X1824Y503*
X1835Y501*
X1845Y497*
X1854Y490*
X1860Y481*
X1865Y471*
X1866Y460*
Y1260D02*
X1865Y1249D01*
X1860Y1239*
X1854Y1230*
X1845Y1224*
X1835Y1219*
X1824Y1218*
X1813Y1219*
X1803Y1224*
X1794Y1230*
X1787Y1239*
X1783Y1249*
X1781Y1260*
X1783Y1271*
X1787Y1281*
X1794Y1290*
X1803Y1297*
X1813Y1301*
X1824Y1303*
X1835Y1301*
X1845Y1297*
X1854Y1290*
X1860Y1281*
X1865Y1271*
X1866Y1260*
X1966Y460D02*
X1965Y449D01*
X1960Y439*
X1954Y430*
X1945Y424*
X1935Y419*
X1924Y418*
X1913Y419*
X1903Y424*
X1894Y430*
X1887Y439*
X1883Y449*
X1881Y460*
X1883Y471*
X1887Y481*
X1894Y490*
X1903Y497*
X1913Y501*
X1924Y503*
X1935Y501*
X1945Y497*
X1954Y490*
X1960Y481*
X1965Y471*
X1966Y460*
Y1260D02*
X1965Y1249D01*
X1960Y1239*
X1954Y1230*
X1945Y1224*
X1935Y1219*
X1924Y1218*
X1913Y1219*
X1903Y1224*
X1894Y1230*
X1887Y1239*
X1883Y1249*
X1881Y1260*
X1883Y1271*
X1887Y1281*
X1894Y1290*
X1903Y1297*
X1913Y1301*
X1924Y1303*
X1935Y1301*
X1945Y1297*
X1954Y1290*
X1960Y1281*
X1965Y1271*
X1966Y1260*
X2011Y308D02*
X2022Y307D01*
X2032Y303*
X2041Y296*
X2047Y287*
X2052Y277*
X2053Y266*
X2052Y255*
X2047Y245*
X2041Y236*
X2032Y229*
X2022Y225*
X2011Y223*
X2000Y225*
X1989Y229*
X1981Y236*
X1974Y245*
X1970Y255*
X1968Y266*
X1970Y277*
X1974Y287*
X1981Y296*
X1989Y303*
X2000Y307*
X2011Y308*
X2066Y460D02*
X2065Y449D01*
X2060Y439*
X2054Y430*
X2045Y424*
X2035Y419*
X2024Y418*
X2013Y419*
X2003Y424*
X1994Y430*
X1987Y439*
X1983Y449*
X1981Y460*
X1983Y471*
X1987Y481*
X1994Y490*
X2003Y497*
X2013Y501*
X2024Y503*
X2035Y501*
X2045Y497*
X2054Y490*
X2060Y481*
X2065Y471*
X2066Y460*
Y1260D02*
X2065Y1249D01*
X2060Y1239*
X2054Y1230*
X2045Y1224*
X2035Y1219*
X2024Y1218*
X2013Y1219*
X2003Y1224*
X1994Y1230*
X1987Y1239*
X1983Y1249*
X1981Y1260*
X1983Y1271*
X1987Y1281*
X1994Y1290*
X2003Y1297*
X2013Y1301*
X2024Y1303*
X2035Y1301*
X2045Y1297*
X2054Y1290*
X2060Y1281*
X2065Y1271*
X2066Y1260*
X2202Y503D02*
X2191Y504D01*
X2181Y509*
X2172Y515*
X2166Y524*
X2162Y534*
X2160Y545*
X2162Y556*
X2166Y567*
X2172Y575*
X2181Y582*
X2191Y586*
X2202Y588*
X2213Y586*
X2224Y582*
X2232Y575*
X2239Y567*
X2243Y556*
X2245Y545*
X2243Y534*
X2239Y524*
X2232Y515*
X2224Y509*
X2213Y504*
X2202Y503*
Y710D02*
X2191Y711D01*
X2181Y715*
X2172Y722*
X2166Y731*
X2161Y741*
X2160Y752*
X2161Y763*
X2166Y773*
X2172Y782*
X2181Y789*
X2191Y793*
X2202Y795*
X2213Y793*
X2224Y789*
X2232Y782*
X2239Y773*
X2243Y763*
X2245Y752*
X2243Y741*
X2239Y731*
X2232Y722*
X2224Y715*
X2213Y711*
X2202Y710*
X171Y171D02*
X2287D01*
X171Y174D02*
X2287D01*
X171Y177D02*
X2287D01*
X171Y180D02*
X2287D01*
X171Y183D02*
X2287D01*
X171Y186D02*
X2287D01*
X171Y189D02*
X2287D01*
X171Y192D02*
X2287D01*
X171Y195D02*
X2287D01*
X171Y198D02*
X2287D01*
X171Y201D02*
X2287D01*
X171Y204D02*
X2287D01*
X171Y207D02*
X2287D01*
X171Y210D02*
X2287D01*
X171Y213D02*
X2287D01*
X171Y216D02*
X2287D01*
X171Y219D02*
X2287D01*
X171Y222D02*
X2287D01*
X171Y225D02*
X517D01*
X542D02*
X817D01*
X843D02*
X1698D01*
X1723D02*
X1998D01*
X2024D02*
X2287D01*
X171Y228D02*
X510D01*
X549D02*
X810D01*
X850D02*
X1691D01*
X1730D02*
X1991D01*
X2031D02*
X2287D01*
X171Y231D02*
X505D01*
X554D02*
X805D01*
X854D02*
X1686D01*
X1735D02*
X1986D01*
X2036D02*
X2287D01*
X171Y234D02*
X501D01*
X558D02*
X801D01*
X858D02*
X1682D01*
X1739D02*
X1982D01*
X2039D02*
X2287D01*
X171Y237D02*
X498D01*
X561D02*
X798D01*
X861D02*
X1679D01*
X1742D02*
X1979D01*
X2042D02*
X2287D01*
X171Y240D02*
X496D01*
X563D02*
X796D01*
X864D02*
X1677D01*
X1745D02*
X1977D01*
X2045D02*
X2287D01*
X171Y243D02*
X494D01*
X565D02*
X794D01*
X866D02*
X1675D01*
X1747D02*
X1975D01*
X2047D02*
X2287D01*
X171Y246D02*
X492D01*
X567D02*
X792D01*
X867D02*
X1673D01*
X1748D02*
X1973D01*
X2048D02*
X2287D01*
X171Y249D02*
X491D01*
X569D02*
X790D01*
X869D02*
X1672D01*
X1750D02*
X1972D01*
X2050D02*
X2287D01*
X171Y252D02*
X489D01*
X570D02*
X789D01*
X870D02*
X1671D01*
X1751D02*
X1970D01*
X2051D02*
X2287D01*
X171Y255D02*
X489D01*
X571D02*
X788D01*
X871D02*
X1670D01*
X1752D02*
X1970D01*
X2052D02*
X2287D01*
X171Y258D02*
X488D01*
X571D02*
X788D01*
X871D02*
X1669D01*
X1752D02*
X1969D01*
X2053D02*
X2287D01*
X171Y261D02*
X487D01*
X572D02*
X787D01*
X872D02*
X1669D01*
X1753D02*
X1968D01*
X2053D02*
X2287D01*
X171Y264D02*
X487D01*
X572D02*
X787D01*
X872D02*
X1668D01*
X1753D02*
X1968D01*
X2053D02*
X2287D01*
X171Y267D02*
X487D01*
X572D02*
X787D01*
X872D02*
X1668D01*
X1753D02*
X1968D01*
X2053D02*
X2287D01*
X171Y270D02*
X487D01*
X572D02*
X787D01*
X872D02*
X1669D01*
X1753D02*
X1968D01*
X2053D02*
X2287D01*
X171Y273D02*
X488D01*
X571D02*
X788D01*
X871D02*
X1669D01*
X1752D02*
X1969D01*
X2053D02*
X2287D01*
X171Y276D02*
X489D01*
X571D02*
X788D01*
X871D02*
X1670D01*
X1752D02*
X1970D01*
X2052D02*
X2287D01*
X171Y279D02*
X489D01*
X570D02*
X789D01*
X870D02*
X1671D01*
X1751D02*
X1970D01*
X2051D02*
X2287D01*
X171Y282D02*
X491D01*
X569D02*
X790D01*
X869D02*
X1672D01*
X1750D02*
X1972D01*
X2050D02*
X2287D01*
X171Y285D02*
X492D01*
X567D02*
X792D01*
X867D02*
X1673D01*
X1748D02*
X1973D01*
X2048D02*
X2287D01*
X171Y288D02*
X494D01*
X565D02*
X794D01*
X866D02*
X1675D01*
X1747D02*
X1975D01*
X2047D02*
X2287D01*
X171Y291D02*
X496D01*
X563D02*
X796D01*
X864D02*
X1677D01*
X1744D02*
X1977D01*
X2045D02*
X2287D01*
X171Y294D02*
X498D01*
X561D02*
X798D01*
X861D02*
X1679D01*
X1742D02*
X1979D01*
X2042D02*
X2287D01*
X171Y297D02*
X501D01*
X558D02*
X801D01*
X858D02*
X1682D01*
X1739D02*
X1982D01*
X2039D02*
X2287D01*
X171Y300D02*
X505D01*
X554D02*
X805D01*
X854D02*
X1686D01*
X1735D02*
X1986D01*
X2035D02*
X2287D01*
X171Y303D02*
X510D01*
X549D02*
X810D01*
X850D02*
X1691D01*
X1730D02*
X1991D01*
X2031D02*
X2287D01*
X171Y306D02*
X517D01*
X542D02*
X817D01*
X842D02*
X1698D01*
X1723D02*
X1998D01*
X2024D02*
X2287D01*
X171Y309D02*
X2287D01*
X171Y312D02*
X2287D01*
X171Y315D02*
X2287D01*
X171Y318D02*
X2287D01*
X171Y321D02*
X2287D01*
X171Y324D02*
X2287D01*
X171Y327D02*
X2287D01*
X171Y330D02*
X2287D01*
X171Y333D02*
X2287D01*
X171Y336D02*
X2287D01*
X171Y339D02*
X2287D01*
X171Y342D02*
X2287D01*
X171Y345D02*
X2287D01*
X171Y348D02*
X2287D01*
X171Y351D02*
X2287D01*
X171Y354D02*
X2287D01*
X171Y357D02*
X2287D01*
X171Y360D02*
X2287D01*
X171Y363D02*
X2287D01*
X171Y366D02*
X2287D01*
X171Y369D02*
X2287D01*
X171Y372D02*
X2287D01*
X171Y375D02*
X2287D01*
X171Y378D02*
X2287D01*
X171Y381D02*
X2287D01*
X171Y384D02*
X2287D01*
X171Y387D02*
X2287D01*
X171Y390D02*
X2287D01*
X171Y393D02*
X2287D01*
X171Y396D02*
X2287D01*
X171Y399D02*
X2287D01*
X171Y402D02*
X2287D01*
X171Y405D02*
X2287D01*
X171Y408D02*
X2287D01*
X171Y411D02*
X2287D01*
X171Y414D02*
X2287D01*
X171Y417D02*
X2287D01*
X171Y420D02*
X510D01*
X538D02*
X610D01*
X638D02*
X710D01*
X738D02*
X810D01*
X838D02*
X910D01*
X938D02*
X1010D01*
X1038D02*
X1110D01*
X1138D02*
X1210D01*
X1238D02*
X1310D01*
X1338D02*
X1410D01*
X1438D02*
X1510D01*
X1538D02*
X1610D01*
X1638D02*
X1710D01*
X1738D02*
X1810D01*
X1838D02*
X1910D01*
X1938D02*
X2010D01*
X2038D02*
X2287D01*
X171Y423D02*
X503D01*
X544D02*
X603D01*
X644D02*
X703D01*
X744D02*
X803D01*
X844D02*
X903D01*
X944D02*
X1003D01*
X1044D02*
X1103D01*
X1144D02*
X1203D01*
X1244D02*
X1303D01*
X1344D02*
X1403D01*
X1444D02*
X1503D01*
X1544D02*
X1603D01*
X1644D02*
X1703D01*
X1744D02*
X1803D01*
X1844D02*
X1903D01*
X1944D02*
X2003D01*
X2044D02*
X2287D01*
X171Y426D02*
X498D01*
X549D02*
X598D01*
X649D02*
X698D01*
X749D02*
X798D01*
X849D02*
X898D01*
X949D02*
X998D01*
X1049D02*
X1098D01*
X1149D02*
X1198D01*
X1249D02*
X1298D01*
X1349D02*
X1398D01*
X1449D02*
X1498D01*
X1549D02*
X1598D01*
X1649D02*
X1698D01*
X1749D02*
X1798D01*
X1849D02*
X1898D01*
X1949D02*
X1998D01*
X2049D02*
X2287D01*
X171Y429D02*
X495D01*
X553D02*
X595D01*
X653D02*
X695D01*
X753D02*
X795D01*
X853D02*
X895D01*
X953D02*
X995D01*
X1053D02*
X1095D01*
X1153D02*
X1195D01*
X1253D02*
X1295D01*
X1353D02*
X1395D01*
X1453D02*
X1495D01*
X1553D02*
X1595D01*
X1653D02*
X1695D01*
X1753D02*
X1795D01*
X1853D02*
X1895D01*
X1953D02*
X1995D01*
X2053D02*
X2287D01*
X171Y432D02*
X492D01*
X555D02*
X592D01*
X655D02*
X692D01*
X755D02*
X792D01*
X855D02*
X892D01*
X955D02*
X992D01*
X1055D02*
X1092D01*
X1155D02*
X1192D01*
X1255D02*
X1292D01*
X1355D02*
X1392D01*
X1455D02*
X1492D01*
X1555D02*
X1592D01*
X1655D02*
X1692D01*
X1755D02*
X1792D01*
X1855D02*
X1892D01*
X1955D02*
X1992D01*
X2055D02*
X2287D01*
X171Y435D02*
X489D01*
X558D02*
X589D01*
X658D02*
X689D01*
X758D02*
X789D01*
X858D02*
X889D01*
X958D02*
X989D01*
X1058D02*
X1089D01*
X1158D02*
X1189D01*
X1258D02*
X1289D01*
X1358D02*
X1389D01*
X1458D02*
X1489D01*
X1558D02*
X1589D01*
X1658D02*
X1689D01*
X1758D02*
X1789D01*
X1858D02*
X1889D01*
X1958D02*
X1989D01*
X2058D02*
X2287D01*
X171Y438D02*
X487D01*
X560D02*
X587D01*
X660D02*
X687D01*
X760D02*
X787D01*
X860D02*
X887D01*
X960D02*
X987D01*
X1060D02*
X1087D01*
X1160D02*
X1187D01*
X1260D02*
X1287D01*
X1360D02*
X1387D01*
X1460D02*
X1487D01*
X1560D02*
X1587D01*
X1660D02*
X1687D01*
X1760D02*
X1787D01*
X1860D02*
X1887D01*
X1960D02*
X1987D01*
X2060D02*
X2287D01*
X171Y441D02*
X486D01*
X562D02*
X586D01*
X662D02*
X686D01*
X762D02*
X786D01*
X862D02*
X886D01*
X962D02*
X986D01*
X1062D02*
X1086D01*
X1162D02*
X1186D01*
X1262D02*
X1286D01*
X1362D02*
X1386D01*
X1462D02*
X1486D01*
X1562D02*
X1586D01*
X1662D02*
X1686D01*
X1762D02*
X1786D01*
X1862D02*
X1886D01*
X1962D02*
X1986D01*
X2062D02*
X2287D01*
X171Y444D02*
X484D01*
X563D02*
X584D01*
X663D02*
X684D01*
X763D02*
X784D01*
X863D02*
X884D01*
X963D02*
X984D01*
X1063D02*
X1084D01*
X1163D02*
X1184D01*
X1263D02*
X1284D01*
X1363D02*
X1384D01*
X1463D02*
X1484D01*
X1563D02*
X1584D01*
X1663D02*
X1684D01*
X1763D02*
X1784D01*
X1863D02*
X1884D01*
X1963D02*
X1984D01*
X2063D02*
X2287D01*
X171Y447D02*
X483D01*
X564D02*
X583D01*
X664D02*
X683D01*
X764D02*
X783D01*
X864D02*
X883D01*
X964D02*
X983D01*
X1064D02*
X1083D01*
X1164D02*
X1183D01*
X1264D02*
X1283D01*
X1364D02*
X1383D01*
X1464D02*
X1483D01*
X1564D02*
X1583D01*
X1664D02*
X1683D01*
X1764D02*
X1783D01*
X1864D02*
X1883D01*
X1964D02*
X1983D01*
X2064D02*
X2287D01*
X171Y450D02*
X483D01*
X565D02*
X583D01*
X665D02*
X683D01*
X765D02*
X783D01*
X865D02*
X883D01*
X965D02*
X983D01*
X1065D02*
X1083D01*
X1165D02*
X1183D01*
X1265D02*
X1283D01*
X1365D02*
X1383D01*
X1465D02*
X1483D01*
X1565D02*
X1583D01*
X1665D02*
X1683D01*
X1765D02*
X1783D01*
X1865D02*
X1883D01*
X1965D02*
X1983D01*
X2065D02*
X2287D01*
X171Y453D02*
X482D01*
X565D02*
X582D01*
X665D02*
X682D01*
X765D02*
X782D01*
X865D02*
X882D01*
X965D02*
X982D01*
X1065D02*
X1082D01*
X1165D02*
X1182D01*
X1265D02*
X1282D01*
X1365D02*
X1382D01*
X1465D02*
X1482D01*
X1565D02*
X1582D01*
X1665D02*
X1682D01*
X1765D02*
X1782D01*
X1865D02*
X1882D01*
X1965D02*
X1982D01*
X2065D02*
X2287D01*
X171Y456D02*
X482D01*
X566D02*
X582D01*
X666D02*
X682D01*
X766D02*
X782D01*
X866D02*
X882D01*
X966D02*
X982D01*
X1066D02*
X1082D01*
X1166D02*
X1182D01*
X1266D02*
X1282D01*
X1366D02*
X1382D01*
X1466D02*
X1482D01*
X1566D02*
X1582D01*
X1666D02*
X1682D01*
X1766D02*
X1782D01*
X1866D02*
X1882D01*
X1966D02*
X1982D01*
X2066D02*
X2287D01*
X171Y459D02*
X481D01*
X566D02*
X581D01*
X666D02*
X681D01*
X766D02*
X781D01*
X866D02*
X881D01*
X966D02*
X981D01*
X1066D02*
X1081D01*
X1166D02*
X1181D01*
X1266D02*
X1281D01*
X1366D02*
X1381D01*
X1466D02*
X1481D01*
X1566D02*
X1581D01*
X1666D02*
X1681D01*
X1766D02*
X1781D01*
X1866D02*
X1881D01*
X1966D02*
X1981D01*
X2066D02*
X2287D01*
X171Y462D02*
X481D01*
X566D02*
X581D01*
X666D02*
X681D01*
X766D02*
X781D01*
X866D02*
X881D01*
X966D02*
X981D01*
X1066D02*
X1081D01*
X1166D02*
X1181D01*
X1266D02*
X1281D01*
X1366D02*
X1381D01*
X1466D02*
X1481D01*
X1566D02*
X1581D01*
X1666D02*
X1681D01*
X1766D02*
X1781D01*
X1866D02*
X1881D01*
X1966D02*
X1981D01*
X2066D02*
X2287D01*
X171Y465D02*
X482D01*
X566D02*
X582D01*
X666D02*
X682D01*
X766D02*
X782D01*
X866D02*
X882D01*
X966D02*
X982D01*
X1066D02*
X1082D01*
X1166D02*
X1182D01*
X1266D02*
X1282D01*
X1366D02*
X1382D01*
X1466D02*
X1482D01*
X1566D02*
X1582D01*
X1666D02*
X1682D01*
X1766D02*
X1782D01*
X1866D02*
X1882D01*
X1966D02*
X1982D01*
X2066D02*
X2287D01*
X171Y468D02*
X482D01*
X565D02*
X582D01*
X665D02*
X682D01*
X765D02*
X782D01*
X865D02*
X882D01*
X965D02*
X982D01*
X1065D02*
X1082D01*
X1165D02*
X1182D01*
X1265D02*
X1282D01*
X1365D02*
X1382D01*
X1465D02*
X1482D01*
X1565D02*
X1582D01*
X1665D02*
X1682D01*
X1765D02*
X1782D01*
X1865D02*
X1882D01*
X1965D02*
X1982D01*
X2065D02*
X2287D01*
X171Y471D02*
X483D01*
X565D02*
X583D01*
X665D02*
X683D01*
X765D02*
X783D01*
X865D02*
X883D01*
X965D02*
X983D01*
X1065D02*
X1083D01*
X1165D02*
X1183D01*
X1265D02*
X1283D01*
X1365D02*
X1383D01*
X1465D02*
X1483D01*
X1565D02*
X1583D01*
X1665D02*
X1683D01*
X1765D02*
X1783D01*
X1865D02*
X1883D01*
X1965D02*
X1983D01*
X2065D02*
X2287D01*
X171Y474D02*
X484D01*
X564D02*
X584D01*
X664D02*
X684D01*
X764D02*
X784D01*
X864D02*
X884D01*
X964D02*
X984D01*
X1064D02*
X1084D01*
X1164D02*
X1184D01*
X1264D02*
X1284D01*
X1364D02*
X1384D01*
X1464D02*
X1484D01*
X1564D02*
X1584D01*
X1664D02*
X1684D01*
X1764D02*
X1784D01*
X1864D02*
X1884D01*
X1964D02*
X1984D01*
X2064D02*
X2287D01*
X171Y477D02*
X485D01*
X562D02*
X585D01*
X662D02*
X685D01*
X762D02*
X785D01*
X862D02*
X885D01*
X962D02*
X985D01*
X1062D02*
X1085D01*
X1162D02*
X1185D01*
X1262D02*
X1285D01*
X1362D02*
X1385D01*
X1462D02*
X1485D01*
X1562D02*
X1585D01*
X1662D02*
X1685D01*
X1762D02*
X1785D01*
X1862D02*
X1885D01*
X1962D02*
X1985D01*
X2062D02*
X2287D01*
X171Y480D02*
X486D01*
X561D02*
X586D01*
X661D02*
X686D01*
X761D02*
X786D01*
X861D02*
X886D01*
X961D02*
X986D01*
X1061D02*
X1086D01*
X1161D02*
X1186D01*
X1261D02*
X1286D01*
X1361D02*
X1386D01*
X1461D02*
X1486D01*
X1561D02*
X1586D01*
X1661D02*
X1686D01*
X1761D02*
X1786D01*
X1861D02*
X1886D01*
X1961D02*
X1986D01*
X2061D02*
X2287D01*
X171Y483D02*
X488D01*
X559D02*
X588D01*
X659D02*
X688D01*
X759D02*
X788D01*
X859D02*
X888D01*
X959D02*
X988D01*
X1059D02*
X1088D01*
X1159D02*
X1188D01*
X1259D02*
X1288D01*
X1359D02*
X1388D01*
X1459D02*
X1488D01*
X1559D02*
X1588D01*
X1659D02*
X1688D01*
X1759D02*
X1788D01*
X1859D02*
X1888D01*
X1959D02*
X1988D01*
X2059D02*
X2287D01*
X171Y486D02*
X490D01*
X557D02*
X590D01*
X657D02*
X690D01*
X757D02*
X790D01*
X857D02*
X890D01*
X957D02*
X990D01*
X1057D02*
X1090D01*
X1157D02*
X1190D01*
X1257D02*
X1290D01*
X1357D02*
X1390D01*
X1457D02*
X1490D01*
X1557D02*
X1590D01*
X1657D02*
X1690D01*
X1757D02*
X1790D01*
X1857D02*
X1890D01*
X1957D02*
X1990D01*
X2057D02*
X2287D01*
X171Y489D02*
X493D01*
X555D02*
X593D01*
X655D02*
X693D01*
X755D02*
X793D01*
X855D02*
X893D01*
X955D02*
X993D01*
X1055D02*
X1093D01*
X1155D02*
X1193D01*
X1255D02*
X1293D01*
X1355D02*
X1393D01*
X1455D02*
X1493D01*
X1555D02*
X1593D01*
X1655D02*
X1693D01*
X1755D02*
X1793D01*
X1855D02*
X1893D01*
X1955D02*
X1993D01*
X2055D02*
X2287D01*
X171Y492D02*
X496D01*
X551D02*
X596D01*
X651D02*
X696D01*
X751D02*
X796D01*
X851D02*
X896D01*
X951D02*
X996D01*
X1051D02*
X1096D01*
X1151D02*
X1196D01*
X1251D02*
X1296D01*
X1351D02*
X1396D01*
X1451D02*
X1496D01*
X1551D02*
X1596D01*
X1651D02*
X1696D01*
X1751D02*
X1796D01*
X1851D02*
X1896D01*
X1951D02*
X1996D01*
X2051D02*
X2287D01*
X171Y495D02*
X500D01*
X547D02*
X600D01*
X647D02*
X700D01*
X747D02*
X800D01*
X847D02*
X900D01*
X947D02*
X1000D01*
X1047D02*
X1100D01*
X1147D02*
X1200D01*
X1247D02*
X1300D01*
X1347D02*
X1400D01*
X1447D02*
X1500D01*
X1547D02*
X1600D01*
X1647D02*
X1700D01*
X1747D02*
X1800D01*
X1847D02*
X1900D01*
X1947D02*
X2000D01*
X2047D02*
X2287D01*
X171Y498D02*
X505D01*
X542D02*
X605D01*
X642D02*
X705D01*
X742D02*
X805D01*
X842D02*
X905D01*
X942D02*
X1005D01*
X1042D02*
X1105D01*
X1142D02*
X1205D01*
X1242D02*
X1305D01*
X1342D02*
X1405D01*
X1442D02*
X1505D01*
X1542D02*
X1605D01*
X1642D02*
X1705D01*
X1742D02*
X1805D01*
X1842D02*
X1905D01*
X1942D02*
X2005D01*
X2042D02*
X2287D01*
X171Y501D02*
X513D01*
X534D02*
X613D01*
X634D02*
X713D01*
X734D02*
X813D01*
X834D02*
X913D01*
X934D02*
X1013D01*
X1034D02*
X1113D01*
X1134D02*
X1213D01*
X1234D02*
X1313D01*
X1334D02*
X1413D01*
X1434D02*
X1513D01*
X1534D02*
X1613D01*
X1634D02*
X1713D01*
X1734D02*
X1813D01*
X1834D02*
X1913D01*
X1934D02*
X2013D01*
X2034D02*
X2287D01*
X171Y504D02*
X2192D01*
X2213D02*
X2287D01*
X171Y507D02*
X2184D01*
X2221D02*
X2287D01*
X171Y510D02*
X2179D01*
X2226D02*
X2287D01*
X171Y513D02*
X2175D01*
X2230D02*
X2287D01*
X171Y516D02*
X2172D01*
X2233D02*
X2287D01*
X171Y519D02*
X2169D01*
X2236D02*
X2287D01*
X171Y522D02*
X2167D01*
X2238D02*
X2287D01*
X171Y525D02*
X2165D01*
X2240D02*
X2287D01*
X171Y528D02*
X2164D01*
X2241D02*
X2287D01*
X171Y531D02*
X2162D01*
X2242D02*
X2287D01*
X171Y534D02*
X2162D01*
X2243D02*
X2287D01*
X171Y537D02*
X2161D01*
X2244D02*
X2287D01*
X171Y540D02*
X2160D01*
X2244D02*
X2287D01*
X171Y543D02*
X2160D01*
X2245D02*
X2287D01*
X171Y546D02*
X2160D01*
X2245D02*
X2287D01*
X171Y549D02*
X2160D01*
X2245D02*
X2287D01*
X171Y552D02*
X2161D01*
X2244D02*
X2287D01*
X171Y555D02*
X2161D01*
X2244D02*
X2287D01*
X171Y558D02*
X2162D01*
X2243D02*
X2287D01*
X171Y561D02*
X2163D01*
X2242D02*
X2287D01*
X171Y564D02*
X2165D01*
X2240D02*
X2287D01*
X171Y567D02*
X2166D01*
X2239D02*
X2287D01*
X171Y570D02*
X2168D01*
X2237D02*
X2287D01*
X171Y573D02*
X2171D01*
X2234D02*
X2287D01*
X171Y576D02*
X2174D01*
X2231D02*
X2287D01*
X171Y579D02*
X2177D01*
X2228D02*
X2287D01*
X171Y582D02*
X2182D01*
X2223D02*
X2287D01*
X171Y585D02*
X2188D01*
X2216D02*
X2287D01*
X171Y588D02*
X2287D01*
X171Y591D02*
X2287D01*
X171Y594D02*
X2287D01*
X171Y597D02*
X2287D01*
X171Y600D02*
X2287D01*
X171Y603D02*
X2287D01*
X171Y606D02*
X2287D01*
X171Y609D02*
X2287D01*
X171Y612D02*
X2287D01*
X171Y615D02*
X2287D01*
X171Y618D02*
X2287D01*
X171Y621D02*
X2287D01*
X171Y624D02*
X2287D01*
X171Y627D02*
X2287D01*
X171Y630D02*
X2287D01*
X171Y633D02*
X2287D01*
X171Y636D02*
X2287D01*
X171Y639D02*
X2287D01*
X171Y642D02*
X2287D01*
X171Y645D02*
X2287D01*
X171Y648D02*
X2287D01*
X171Y651D02*
X2287D01*
X171Y654D02*
X2287D01*
X171Y657D02*
X2287D01*
X171Y660D02*
X2287D01*
X171Y663D02*
X2287D01*
X171Y666D02*
X2287D01*
X171Y669D02*
X2287D01*
X171Y672D02*
X2287D01*
X171Y675D02*
X2287D01*
X171Y678D02*
X2287D01*
X171Y681D02*
X2287D01*
X171Y684D02*
X2287D01*
X171Y687D02*
X2287D01*
X171Y690D02*
X2287D01*
X171Y693D02*
X2287D01*
X171Y696D02*
X2287D01*
X171Y699D02*
X2287D01*
X171Y702D02*
X2287D01*
X171Y705D02*
X2287D01*
X171Y708D02*
X2287D01*
X171Y711D02*
X2190D01*
X2215D02*
X2287D01*
X171Y714D02*
X2183D01*
X2222D02*
X2287D01*
X171Y717D02*
X2178D01*
X2227D02*
X2287D01*
X171Y720D02*
X2174D01*
X2231D02*
X2287D01*
X171Y723D02*
X2171D01*
X2234D02*
X2287D01*
X171Y726D02*
X2169D01*
X2236D02*
X2287D01*
X171Y729D02*
X2167D01*
X2238D02*
X2287D01*
X171Y732D02*
X2165D01*
X2240D02*
X2287D01*
X171Y735D02*
X2163D01*
X2242D02*
X2287D01*
X171Y738D02*
X2162D01*
X2243D02*
X2287D01*
X171Y741D02*
X2161D01*
X2244D02*
X2287D01*
X171Y744D02*
X2161D01*
X2244D02*
X2287D01*
X171Y747D02*
X2160D01*
X2245D02*
X2287D01*
X171Y750D02*
X2160D01*
X2245D02*
X2287D01*
X171Y753D02*
X2160D01*
X2245D02*
X2287D01*
X171Y756D02*
X2160D01*
X2245D02*
X2287D01*
X171Y759D02*
X2161D01*
X2244D02*
X2287D01*
X171Y762D02*
X2161D01*
X2244D02*
X2287D01*
X171Y765D02*
X2162D01*
X2243D02*
X2287D01*
X171Y768D02*
X2163D01*
X2242D02*
X2287D01*
X171Y771D02*
X2165D01*
X2240D02*
X2287D01*
X171Y774D02*
X2166D01*
X2239D02*
X2287D01*
X171Y777D02*
X2168D01*
X2237D02*
X2287D01*
X171Y780D02*
X2171D01*
X2234D02*
X2287D01*
X171Y783D02*
X2174D01*
X2231D02*
X2287D01*
X171Y786D02*
X2177D01*
X2228D02*
X2287D01*
X171Y789D02*
X2182D01*
X2223D02*
X2287D01*
X171Y792D02*
X2189D01*
X2216D02*
X2287D01*
X171Y795D02*
X2287D01*
X171Y798D02*
X2287D01*
X171Y801D02*
X2287D01*
X171Y804D02*
X2287D01*
X171Y807D02*
X2287D01*
X171Y810D02*
X2287D01*
X171Y813D02*
X2287D01*
X171Y816D02*
X2287D01*
X171Y819D02*
X2287D01*
X171Y822D02*
X2287D01*
X171Y825D02*
X2287D01*
X171Y828D02*
X2287D01*
X171Y831D02*
X2287D01*
X171Y834D02*
X2287D01*
X171Y837D02*
X2287D01*
X171Y840D02*
X2287D01*
X171Y843D02*
X2287D01*
X171Y846D02*
X2287D01*
X171Y849D02*
X2287D01*
X171Y852D02*
X2287D01*
X171Y855D02*
X2287D01*
X171Y858D02*
X2287D01*
X171Y861D02*
X2287D01*
X171Y864D02*
X2287D01*
X171Y867D02*
X2287D01*
X171Y870D02*
X2287D01*
X171Y873D02*
X2287D01*
X171Y876D02*
X2287D01*
X171Y879D02*
X2287D01*
X171Y882D02*
X2287D01*
X171Y885D02*
X2287D01*
X171Y888D02*
X2287D01*
X171Y891D02*
X2287D01*
X171Y894D02*
X2287D01*
X171Y897D02*
X2287D01*
X171Y900D02*
X2287D01*
X171Y903D02*
X2287D01*
X171Y906D02*
X2287D01*
X171Y909D02*
X2287D01*
X171Y912D02*
X2287D01*
X171Y915D02*
X2287D01*
X171Y918D02*
X2287D01*
X171Y921D02*
X2287D01*
X171Y924D02*
X2287D01*
X171Y927D02*
X319D01*
X339D02*
X2287D01*
X171Y930D02*
X310D01*
X347D02*
X2287D01*
X171Y933D02*
X305D01*
X353D02*
X2287D01*
X171Y936D02*
X301D01*
X356D02*
X2287D01*
X171Y939D02*
X298D01*
X360D02*
X2287D01*
X171Y942D02*
X295D01*
X362D02*
X2287D01*
X171Y945D02*
X293D01*
X364D02*
X2287D01*
X171Y948D02*
X291D01*
X366D02*
X2287D01*
X171Y951D02*
X290D01*
X368D02*
X2287D01*
X171Y954D02*
X289D01*
X369D02*
X2287D01*
X171Y957D02*
X288D01*
X370D02*
X2287D01*
X171Y960D02*
X287D01*
X370D02*
X2287D01*
X171Y963D02*
X287D01*
X371D02*
X2287D01*
X171Y966D02*
X286D01*
X371D02*
X2287D01*
X171Y969D02*
X286D01*
X371D02*
X2287D01*
X171Y972D02*
X286D01*
X371D02*
X2287D01*
X171Y975D02*
X287D01*
X371D02*
X2287D01*
X171Y978D02*
X287D01*
X370D02*
X2287D01*
X171Y981D02*
X288D01*
X369D02*
X2287D01*
X171Y984D02*
X289D01*
X368D02*
X2287D01*
X171Y987D02*
X291D01*
X367D02*
X2287D01*
X171Y990D02*
X292D01*
X365D02*
X2287D01*
X171Y993D02*
X294D01*
X363D02*
X2287D01*
X171Y996D02*
X297D01*
X361D02*
X2287D01*
X171Y999D02*
X299D01*
X358D02*
X2287D01*
X171Y1002D02*
X303D01*
X355D02*
X2287D01*
X171Y1005D02*
X307D01*
X350D02*
X2287D01*
X171Y1008D02*
X314D01*
X344D02*
X2287D01*
X171Y1011D02*
X2287D01*
X171Y1014D02*
X2287D01*
X171Y1017D02*
X2287D01*
X171Y1020D02*
X2287D01*
X171Y1023D02*
X2287D01*
X171Y1026D02*
X2287D01*
X171Y1029D02*
X2287D01*
X171Y1032D02*
X2287D01*
X171Y1035D02*
X2287D01*
X171Y1038D02*
X2287D01*
X171Y1041D02*
X2287D01*
X171Y1044D02*
X2287D01*
X171Y1047D02*
X2287D01*
X171Y1050D02*
X2287D01*
X171Y1053D02*
X2287D01*
X171Y1056D02*
X2287D01*
X171Y1059D02*
X2287D01*
X171Y1062D02*
X2287D01*
X171Y1065D02*
X2287D01*
X171Y1068D02*
X2287D01*
X171Y1071D02*
X2287D01*
X171Y1074D02*
X2287D01*
X171Y1077D02*
X2287D01*
X171Y1080D02*
X2287D01*
X171Y1083D02*
X2287D01*
X171Y1086D02*
X2287D01*
X171Y1089D02*
X2287D01*
X171Y1092D02*
X2287D01*
X171Y1095D02*
X2287D01*
X171Y1098D02*
X2287D01*
X171Y1101D02*
X2287D01*
X171Y1104D02*
X2287D01*
X171Y1107D02*
X2287D01*
X171Y1110D02*
X2287D01*
X171Y1113D02*
X2287D01*
X171Y1116D02*
X2287D01*
X171Y1119D02*
X2287D01*
X171Y1122D02*
X2287D01*
X171Y1125D02*
X2287D01*
X171Y1128D02*
X2287D01*
X171Y1131D02*
X2287D01*
X171Y1134D02*
X2287D01*
X171Y1137D02*
X2287D01*
X171Y1140D02*
X2287D01*
X171Y1143D02*
X2287D01*
X171Y1146D02*
X2287D01*
X171Y1149D02*
X2287D01*
X171Y1152D02*
X2287D01*
X171Y1155D02*
X2287D01*
X171Y1158D02*
X2287D01*
X171Y1161D02*
X2287D01*
X171Y1164D02*
X2287D01*
X171Y1167D02*
X2287D01*
X171Y1170D02*
X2287D01*
X171Y1173D02*
X2287D01*
X171Y1176D02*
X2287D01*
X171Y1179D02*
X2287D01*
X171Y1182D02*
X2287D01*
X171Y1185D02*
X2287D01*
X171Y1188D02*
X2287D01*
X171Y1191D02*
X2287D01*
X171Y1194D02*
X2287D01*
X171Y1197D02*
X2287D01*
X171Y1200D02*
X2287D01*
X171Y1203D02*
X2287D01*
X171Y1206D02*
X2287D01*
X171Y1209D02*
X2287D01*
X171Y1212D02*
X2287D01*
X171Y1215D02*
X2287D01*
X171Y1218D02*
X517D01*
X530D02*
X618D01*
X629D02*
X718D01*
X729D02*
X818D01*
X829D02*
X918D01*
X929D02*
X1018D01*
X1029D02*
X1118D01*
X1129D02*
X1218D01*
X1229D02*
X1318D01*
X1329D02*
X1418D01*
X1429D02*
X1518D01*
X1529D02*
X1618D01*
X1629D02*
X1718D01*
X1729D02*
X1818D01*
X1829D02*
X1918D01*
X1929D02*
X2018D01*
X2029D02*
X2287D01*
X171Y1221D02*
X507D01*
X541D02*
X607D01*
X640D02*
X707D01*
X740D02*
X807D01*
X840D02*
X907D01*
X940D02*
X1007D01*
X1040D02*
X1107D01*
X1140D02*
X1207D01*
X1240D02*
X1307D01*
X1340D02*
X1407D01*
X1440D02*
X1507D01*
X1540D02*
X1607D01*
X1640D02*
X1707D01*
X1740D02*
X1807D01*
X1840D02*
X1907D01*
X1940D02*
X2007D01*
X2040D02*
X2287D01*
X171Y1224D02*
X501D01*
X546D02*
X601D01*
X646D02*
X701D01*
X746D02*
X801D01*
X846D02*
X901D01*
X946D02*
X1001D01*
X1046D02*
X1101D01*
X1146D02*
X1201D01*
X1246D02*
X1301D01*
X1346D02*
X1401D01*
X1446D02*
X1501D01*
X1546D02*
X1601D01*
X1646D02*
X1701D01*
X1746D02*
X1801D01*
X1846D02*
X1901D01*
X1946D02*
X2001D01*
X2046D02*
X2287D01*
X171Y1227D02*
X319D01*
X338D02*
X497D01*
X550D02*
X597D01*
X650D02*
X697D01*
X750D02*
X797D01*
X850D02*
X897D01*
X950D02*
X997D01*
X1050D02*
X1097D01*
X1150D02*
X1197D01*
X1250D02*
X1297D01*
X1350D02*
X1397D01*
X1450D02*
X1497D01*
X1550D02*
X1597D01*
X1650D02*
X1697D01*
X1750D02*
X1797D01*
X1850D02*
X1897D01*
X1950D02*
X1997D01*
X2050D02*
X2287D01*
X171Y1230D02*
X311D01*
X347D02*
X494D01*
X554D02*
X594D01*
X654D02*
X694D01*
X754D02*
X794D01*
X854D02*
X894D01*
X954D02*
X994D01*
X1054D02*
X1094D01*
X1154D02*
X1194D01*
X1254D02*
X1294D01*
X1354D02*
X1394D01*
X1454D02*
X1494D01*
X1554D02*
X1594D01*
X1654D02*
X1694D01*
X1754D02*
X1794D01*
X1854D02*
X1894D01*
X1954D02*
X1994D01*
X2054D02*
X2287D01*
X171Y1233D02*
X305D01*
X352D02*
X491D01*
X557D02*
X591D01*
X656D02*
X691D01*
X756D02*
X791D01*
X856D02*
X891D01*
X956D02*
X991D01*
X1056D02*
X1091D01*
X1156D02*
X1191D01*
X1256D02*
X1291D01*
X1356D02*
X1391D01*
X1456D02*
X1491D01*
X1556D02*
X1591D01*
X1656D02*
X1691D01*
X1756D02*
X1791D01*
X1856D02*
X1891D01*
X1956D02*
X1991D01*
X2056D02*
X2287D01*
X171Y1236D02*
X301D01*
X356D02*
X489D01*
X559D02*
X589D01*
X659D02*
X689D01*
X759D02*
X789D01*
X859D02*
X889D01*
X959D02*
X989D01*
X1059D02*
X1089D01*
X1159D02*
X1189D01*
X1259D02*
X1289D01*
X1359D02*
X1389D01*
X1459D02*
X1489D01*
X1559D02*
X1589D01*
X1659D02*
X1689D01*
X1759D02*
X1789D01*
X1859D02*
X1889D01*
X1959D02*
X1989D01*
X2059D02*
X2287D01*
X171Y1239D02*
X298D01*
X359D02*
X487D01*
X561D02*
X587D01*
X660D02*
X687D01*
X760D02*
X787D01*
X860D02*
X887D01*
X960D02*
X987D01*
X1060D02*
X1087D01*
X1160D02*
X1187D01*
X1260D02*
X1287D01*
X1360D02*
X1387D01*
X1460D02*
X1487D01*
X1560D02*
X1587D01*
X1660D02*
X1687D01*
X1760D02*
X1787D01*
X1860D02*
X1887D01*
X1960D02*
X1987D01*
X2060D02*
X2287D01*
X171Y1242D02*
X296D01*
X362D02*
X485D01*
X562D02*
X585D01*
X662D02*
X685D01*
X762D02*
X785D01*
X862D02*
X885D01*
X962D02*
X985D01*
X1062D02*
X1085D01*
X1162D02*
X1185D01*
X1262D02*
X1285D01*
X1362D02*
X1385D01*
X1462D02*
X1485D01*
X1562D02*
X1585D01*
X1662D02*
X1685D01*
X1762D02*
X1785D01*
X1862D02*
X1885D01*
X1962D02*
X1985D01*
X2062D02*
X2287D01*
X171Y1245D02*
X293D01*
X364D02*
X484D01*
X563D02*
X584D01*
X663D02*
X684D01*
X763D02*
X784D01*
X863D02*
X884D01*
X963D02*
X984D01*
X1063D02*
X1084D01*
X1163D02*
X1184D01*
X1263D02*
X1284D01*
X1363D02*
X1384D01*
X1463D02*
X1484D01*
X1563D02*
X1584D01*
X1663D02*
X1684D01*
X1763D02*
X1784D01*
X1863D02*
X1884D01*
X1963D02*
X1984D01*
X2063D02*
X2287D01*
X171Y1248D02*
X292D01*
X366D02*
X483D01*
X564D02*
X583D01*
X664D02*
X683D01*
X764D02*
X783D01*
X864D02*
X883D01*
X964D02*
X983D01*
X1064D02*
X1083D01*
X1164D02*
X1183D01*
X1264D02*
X1283D01*
X1364D02*
X1383D01*
X1464D02*
X1483D01*
X1564D02*
X1583D01*
X1664D02*
X1683D01*
X1764D02*
X1783D01*
X1864D02*
X1883D01*
X1964D02*
X1983D01*
X2064D02*
X2287D01*
X171Y1251D02*
X290D01*
X367D02*
X482D01*
X565D02*
X582D01*
X665D02*
X682D01*
X765D02*
X782D01*
X865D02*
X882D01*
X965D02*
X982D01*
X1065D02*
X1082D01*
X1165D02*
X1182D01*
X1265D02*
X1282D01*
X1365D02*
X1382D01*
X1465D02*
X1482D01*
X1565D02*
X1582D01*
X1665D02*
X1682D01*
X1765D02*
X1782D01*
X1865D02*
X1882D01*
X1965D02*
X1982D01*
X2065D02*
X2287D01*
X171Y1254D02*
X289D01*
X369D02*
X482D01*
X566D02*
X582D01*
X666D02*
X682D01*
X766D02*
X782D01*
X866D02*
X882D01*
X966D02*
X982D01*
X1066D02*
X1082D01*
X1166D02*
X1182D01*
X1266D02*
X1282D01*
X1366D02*
X1382D01*
X1466D02*
X1482D01*
X1566D02*
X1582D01*
X1666D02*
X1682D01*
X1766D02*
X1782D01*
X1866D02*
X1882D01*
X1966D02*
X1982D01*
X2066D02*
X2287D01*
X171Y1257D02*
X288D01*
X370D02*
X481D01*
X566D02*
X581D01*
X666D02*
X681D01*
X766D02*
X781D01*
X866D02*
X881D01*
X966D02*
X981D01*
X1066D02*
X1081D01*
X1166D02*
X1181D01*
X1266D02*
X1281D01*
X1366D02*
X1381D01*
X1466D02*
X1481D01*
X1566D02*
X1581D01*
X1666D02*
X1681D01*
X1766D02*
X1781D01*
X1866D02*
X1881D01*
X1966D02*
X1981D01*
X2066D02*
X2287D01*
X171Y1260D02*
X287D01*
X370D02*
X481D01*
X566D02*
X581D01*
X666D02*
X681D01*
X766D02*
X781D01*
X866D02*
X881D01*
X966D02*
X981D01*
X1066D02*
X1081D01*
X1166D02*
X1181D01*
X1266D02*
X1281D01*
X1366D02*
X1381D01*
X1466D02*
X1481D01*
X1566D02*
X1581D01*
X1666D02*
X1681D01*
X1766D02*
X1781D01*
X1866D02*
X1881D01*
X1966D02*
X1981D01*
X2066D02*
X2287D01*
X171Y1263D02*
X287D01*
X371D02*
X481D01*
X566D02*
X581D01*
X666D02*
X681D01*
X766D02*
X781D01*
X866D02*
X881D01*
X966D02*
X981D01*
X1066D02*
X1081D01*
X1166D02*
X1181D01*
X1266D02*
X1281D01*
X1366D02*
X1381D01*
X1466D02*
X1481D01*
X1566D02*
X1581D01*
X1666D02*
X1681D01*
X1766D02*
X1781D01*
X1866D02*
X1881D01*
X1966D02*
X1981D01*
X2066D02*
X2287D01*
X171Y1266D02*
X287D01*
X371D02*
X482D01*
X566D02*
X582D01*
X666D02*
X682D01*
X766D02*
X782D01*
X866D02*
X882D01*
X966D02*
X982D01*
X1066D02*
X1082D01*
X1166D02*
X1182D01*
X1266D02*
X1282D01*
X1366D02*
X1382D01*
X1466D02*
X1482D01*
X1566D02*
X1582D01*
X1666D02*
X1682D01*
X1766D02*
X1782D01*
X1866D02*
X1882D01*
X1966D02*
X1982D01*
X2066D02*
X2287D01*
X171Y1269D02*
X286D01*
X371D02*
X482D01*
X565D02*
X582D01*
X665D02*
X682D01*
X765D02*
X782D01*
X865D02*
X882D01*
X965D02*
X982D01*
X1065D02*
X1082D01*
X1165D02*
X1182D01*
X1265D02*
X1282D01*
X1365D02*
X1382D01*
X1465D02*
X1482D01*
X1565D02*
X1582D01*
X1665D02*
X1682D01*
X1765D02*
X1782D01*
X1865D02*
X1882D01*
X1965D02*
X1982D01*
X2065D02*
X2287D01*
X171Y1272D02*
X287D01*
X371D02*
X483D01*
X564D02*
X583D01*
X664D02*
X683D01*
X764D02*
X783D01*
X864D02*
X883D01*
X964D02*
X983D01*
X1064D02*
X1083D01*
X1164D02*
X1183D01*
X1264D02*
X1283D01*
X1364D02*
X1383D01*
X1464D02*
X1483D01*
X1564D02*
X1583D01*
X1664D02*
X1683D01*
X1764D02*
X1783D01*
X1864D02*
X1883D01*
X1964D02*
X1983D01*
X2064D02*
X2287D01*
X171Y1275D02*
X287D01*
X371D02*
X484D01*
X563D02*
X584D01*
X663D02*
X684D01*
X763D02*
X784D01*
X863D02*
X884D01*
X963D02*
X984D01*
X1063D02*
X1084D01*
X1163D02*
X1184D01*
X1263D02*
X1284D01*
X1363D02*
X1384D01*
X1463D02*
X1484D01*
X1563D02*
X1584D01*
X1663D02*
X1684D01*
X1763D02*
X1784D01*
X1863D02*
X1884D01*
X1963D02*
X1984D01*
X2063D02*
X2287D01*
X171Y1278D02*
X288D01*
X370D02*
X485D01*
X562D02*
X585D01*
X662D02*
X685D01*
X762D02*
X785D01*
X862D02*
X885D01*
X962D02*
X985D01*
X1062D02*
X1085D01*
X1162D02*
X1185D01*
X1262D02*
X1285D01*
X1362D02*
X1385D01*
X1462D02*
X1485D01*
X1562D02*
X1585D01*
X1662D02*
X1685D01*
X1762D02*
X1785D01*
X1862D02*
X1885D01*
X1962D02*
X1985D01*
X2062D02*
X2287D01*
X171Y1281D02*
X288D01*
X369D02*
X487D01*
X561D02*
X587D01*
X660D02*
X687D01*
X760D02*
X787D01*
X860D02*
X887D01*
X960D02*
X987D01*
X1060D02*
X1087D01*
X1160D02*
X1187D01*
X1260D02*
X1287D01*
X1360D02*
X1387D01*
X1460D02*
X1487D01*
X1560D02*
X1587D01*
X1660D02*
X1687D01*
X1760D02*
X1787D01*
X1860D02*
X1887D01*
X1960D02*
X1987D01*
X2060D02*
X2287D01*
X171Y1284D02*
X289D01*
X368D02*
X489D01*
X559D02*
X589D01*
X659D02*
X689D01*
X759D02*
X789D01*
X859D02*
X889D01*
X959D02*
X989D01*
X1059D02*
X1089D01*
X1159D02*
X1189D01*
X1259D02*
X1289D01*
X1359D02*
X1389D01*
X1459D02*
X1489D01*
X1559D02*
X1589D01*
X1659D02*
X1689D01*
X1759D02*
X1789D01*
X1859D02*
X1889D01*
X1959D02*
X1989D01*
X2059D02*
X2287D01*
X171Y1287D02*
X291D01*
X367D02*
X491D01*
X556D02*
X591D01*
X656D02*
X691D01*
X756D02*
X791D01*
X856D02*
X891D01*
X956D02*
X991D01*
X1056D02*
X1091D01*
X1156D02*
X1191D01*
X1256D02*
X1291D01*
X1356D02*
X1391D01*
X1456D02*
X1491D01*
X1556D02*
X1591D01*
X1656D02*
X1691D01*
X1756D02*
X1791D01*
X1856D02*
X1891D01*
X1956D02*
X1991D01*
X2056D02*
X2287D01*
X171Y1290D02*
X292D01*
X365D02*
X494D01*
X554D02*
X594D01*
X654D02*
X694D01*
X754D02*
X794D01*
X854D02*
X894D01*
X954D02*
X994D01*
X1054D02*
X1094D01*
X1154D02*
X1194D01*
X1254D02*
X1294D01*
X1354D02*
X1394D01*
X1454D02*
X1494D01*
X1554D02*
X1594D01*
X1654D02*
X1694D01*
X1754D02*
X1794D01*
X1854D02*
X1894D01*
X1954D02*
X1994D01*
X2054D02*
X2287D01*
X171Y1293D02*
X294D01*
X363D02*
X497D01*
X550D02*
X597D01*
X650D02*
X697D01*
X750D02*
X797D01*
X850D02*
X897D01*
X950D02*
X997D01*
X1050D02*
X1097D01*
X1150D02*
X1197D01*
X1250D02*
X1297D01*
X1350D02*
X1397D01*
X1450D02*
X1497D01*
X1550D02*
X1597D01*
X1650D02*
X1697D01*
X1750D02*
X1797D01*
X1850D02*
X1897D01*
X1950D02*
X1997D01*
X2050D02*
X2287D01*
X171Y1296D02*
X297D01*
X361D02*
X501D01*
X546D02*
X601D01*
X646D02*
X701D01*
X746D02*
X801D01*
X846D02*
X901D01*
X946D02*
X1001D01*
X1046D02*
X1101D01*
X1146D02*
X1201D01*
X1246D02*
X1301D01*
X1346D02*
X1401D01*
X1446D02*
X1501D01*
X1546D02*
X1601D01*
X1646D02*
X1701D01*
X1746D02*
X1801D01*
X1846D02*
X1901D01*
X1946D02*
X2001D01*
X2046D02*
X2287D01*
X171Y1299D02*
X300D01*
X358D02*
X507D01*
X541D02*
X607D01*
X640D02*
X707D01*
X740D02*
X807D01*
X840D02*
X907D01*
X940D02*
X1007D01*
X1040D02*
X1107D01*
X1140D02*
X1207D01*
X1240D02*
X1307D01*
X1340D02*
X1407D01*
X1440D02*
X1507D01*
X1540D02*
X1607D01*
X1640D02*
X1707D01*
X1740D02*
X1807D01*
X1840D02*
X1907D01*
X1940D02*
X2007D01*
X2040D02*
X2287D01*
X171Y1302D02*
X303D01*
X354D02*
X517D01*
X530D02*
X619D01*
X629D02*
X719D01*
X729D02*
X819D01*
X829D02*
X919D01*
X929D02*
X1019D01*
X1029D02*
X1119D01*
X1129D02*
X1219D01*
X1229D02*
X1319D01*
X1329D02*
X1419D01*
X1429D02*
X1519D01*
X1529D02*
X1619D01*
X1629D02*
X1719D01*
X1729D02*
X1819D01*
X1829D02*
X1919D01*
X1929D02*
X2019D01*
X2029D02*
X2287D01*
X171Y1305D02*
X308D01*
X350D02*
X2287D01*
X171Y1308D02*
X314D01*
X343D02*
X2287D01*
X171Y1311D02*
X2287D01*
X171Y1314D02*
X2287D01*
X171Y1317D02*
X2287D01*
X171Y1320D02*
X2287D01*
X171Y1323D02*
X2287D01*
X171Y1326D02*
X2287D01*
X171Y1329D02*
X2287D01*
X171Y1332D02*
X2287D01*
X171Y1335D02*
X2287D01*
X171Y1338D02*
X2287D01*
X171Y1341D02*
X2287D01*
X171Y1344D02*
X2287D01*
X171Y1347D02*
X2287D01*
X171Y1350D02*
X2287D01*
X171Y1353D02*
X2287D01*
X171Y1356D02*
X2287D01*
X171Y1359D02*
X2287D01*
X171Y1362D02*
X2287D01*
X171Y1365D02*
X2287D01*
X171Y1368D02*
X2287D01*
X171Y1371D02*
X2287D01*
X171Y1374D02*
X2287D01*
X171Y1377D02*
X526D01*
X553D02*
X825D01*
X854D02*
X2287D01*
X171Y1380D02*
X519D01*
X560D02*
X819D01*
X860D02*
X2287D01*
X171Y1383D02*
X514D01*
X565D02*
X814D01*
X865D02*
X2287D01*
X171Y1386D02*
X511D01*
X568D02*
X810D01*
X868D02*
X2287D01*
X171Y1389D02*
X508D01*
X571D02*
X808D01*
X871D02*
X2287D01*
X171Y1392D02*
X505D01*
X574D02*
X805D01*
X874D02*
X2287D01*
X171Y1395D02*
X503D01*
X576D02*
X803D01*
X876D02*
X2287D01*
X171Y1398D02*
X502D01*
X577D02*
X801D01*
X877D02*
X2287D01*
X171Y1401D02*
X500D01*
X579D02*
X800D01*
X879D02*
X2287D01*
X171Y1404D02*
X499D01*
X580D02*
X799D01*
X880D02*
X2287D01*
X171Y1407D02*
X498D01*
X581D02*
X798D01*
X881D02*
X2287D01*
X171Y1410D02*
X498D01*
X581D02*
X798D01*
X881D02*
X2287D01*
X171Y1413D02*
X497D01*
X582D02*
X797D01*
X882D02*
X2287D01*
X171Y1416D02*
X497D01*
X582D02*
X797D01*
X882D02*
X2287D01*
X171Y1419D02*
X497D01*
X582D02*
X797D01*
X882D02*
X2287D01*
X171Y1422D02*
X497D01*
X581D02*
X797D01*
X882D02*
X2287D01*
X171Y1425D02*
X498D01*
X581D02*
X798D01*
X881D02*
X2287D01*
X171Y1428D02*
X499D01*
X580D02*
X798D01*
X881D02*
X2287D01*
X171Y1431D02*
X499D01*
X579D02*
X799D01*
X880D02*
X2287D01*
X171Y1434D02*
X501D01*
X578D02*
X800D01*
X878D02*
X2287D01*
X171Y1437D02*
X502D01*
X577D02*
X802D01*
X877D02*
X2287D01*
X171Y1440D02*
X504D01*
X575D02*
X804D01*
X875D02*
X2287D01*
X171Y1443D02*
X506D01*
X573D02*
X806D01*
X873D02*
X2287D01*
X171Y1446D02*
X509D01*
X570D02*
X808D01*
X871D02*
X2287D01*
X171Y1449D02*
X512D01*
X567D02*
X811D01*
X867D02*
X2287D01*
X171Y1452D02*
X516D01*
X563D02*
X815D01*
X864D02*
X2287D01*
X171Y1455D02*
X521D01*
X558D02*
X820D01*
X859D02*
X2287D01*
X171Y1458D02*
X529D01*
X550D02*
X828D01*
X851D02*
X2287D01*
X171Y1461D02*
X2287D01*
X171Y1464D02*
X2287D01*
X171Y1467D02*
X2287D01*
X171Y1470D02*
X2287D01*
X171Y1473D02*
X2287D01*
X171Y1476D02*
X2287D01*
X171Y1479D02*
X2287D01*
X171Y1482D02*
X2287D01*
X171Y1485D02*
X2287D01*
X171Y1488D02*
X2287D01*
X171Y1491D02*
X2287D01*
X171Y1494D02*
X2287D01*
X171Y1497D02*
X2287D01*
X191Y2927D02*
X604D01*
Y3469*
X191*
Y2927*
X260Y3157D02*
X271Y3155D01*
X281Y3151*
X290Y3144*
X297Y3135*
X301Y3125*
X302Y3114*
X301Y3103*
X297Y3093*
X290Y3084*
X281Y3078*
X271Y3073*
X260Y3072*
X249Y3073*
X239Y3078*
X230Y3084*
X223Y3093*
X219Y3103*
X218Y3114*
X219Y3125*
X223Y3135*
X230Y3144*
X239Y3151*
X249Y3155*
X260Y3157*
X409Y3363D02*
Y3279D01*
X324*
Y3363*
X409*
X509Y3363D02*
Y3278D01*
X424*
Y3363*
X509*
X560Y3157D02*
X571Y3155D01*
X581Y3151*
X590Y3144*
X597Y3135*
X601Y3125*
X602Y3114*
X601Y3103*
X597Y3093*
X590Y3084*
X581Y3077*
X571Y3073*
X560Y3072*
X549Y3073*
X539Y3077*
X530Y3084*
X523Y3093*
X519Y3103*
X517Y3114*
X519Y3125*
X523Y3135*
X530Y3144*
X539Y3151*
X549Y3155*
X560Y3157*
X191Y2927D02*
X604D01*
X191Y2930D02*
X604D01*
X191Y2933D02*
X604D01*
X191Y2936D02*
X604D01*
X191Y2939D02*
X604D01*
X191Y2942D02*
X604D01*
X191Y2945D02*
X604D01*
X191Y2948D02*
X604D01*
X191Y2951D02*
X604D01*
X191Y2954D02*
X604D01*
X191Y2957D02*
X604D01*
X191Y2960D02*
X604D01*
X191Y2963D02*
X604D01*
X191Y2966D02*
X604D01*
X191Y2969D02*
X604D01*
X191Y2972D02*
X604D01*
X191Y2975D02*
X604D01*
X191Y2978D02*
X604D01*
X191Y2981D02*
X604D01*
X191Y2984D02*
X604D01*
X191Y2987D02*
X604D01*
X191Y2990D02*
X604D01*
X191Y2993D02*
X604D01*
X191Y2996D02*
X604D01*
X191Y2999D02*
X604D01*
X191Y3002D02*
X604D01*
X191Y3005D02*
X604D01*
X191Y3008D02*
X604D01*
X191Y3011D02*
X604D01*
X191Y3014D02*
X604D01*
X191Y3017D02*
X604D01*
X191Y3020D02*
X604D01*
X191Y3023D02*
X604D01*
X191Y3026D02*
X604D01*
X191Y3029D02*
X604D01*
X191Y3032D02*
X604D01*
X191Y3035D02*
X604D01*
X191Y3038D02*
X604D01*
X191Y3041D02*
X604D01*
X191Y3044D02*
X604D01*
X191Y3047D02*
X604D01*
X191Y3050D02*
X604D01*
X191Y3053D02*
X604D01*
X191Y3056D02*
X604D01*
X191Y3059D02*
X604D01*
X191Y3062D02*
X604D01*
X191Y3065D02*
X604D01*
X191Y3068D02*
X604D01*
X191Y3071D02*
X604D01*
X191Y3074D02*
X246D01*
X274D02*
X546D01*
X574D02*
X604D01*
X191Y3077D02*
X239D01*
X280D02*
X539D01*
X581D02*
X604D01*
X191Y3080D02*
X235D01*
X285D02*
X534D01*
X585D02*
X604D01*
X191Y3083D02*
X231D01*
X289D02*
X531D01*
X589D02*
X604D01*
X191Y3086D02*
X228D01*
X292D02*
X528D01*
X592D02*
X604D01*
X191Y3089D02*
X226D01*
X294D02*
X526D01*
X594D02*
X604D01*
X191Y3092D02*
X224D01*
X296D02*
X524D01*
X596D02*
X604D01*
X191Y3095D02*
X222D01*
X298D02*
X522D01*
X598D02*
X604D01*
X191Y3098D02*
X221D01*
X299D02*
X521D01*
X599D02*
X604D01*
X191Y3101D02*
X220D01*
X300D02*
X519D01*
X600D02*
X604D01*
X191Y3104D02*
X219D01*
X301D02*
X519D01*
X601D02*
X604D01*
X191Y3107D02*
X218D01*
X302D02*
X518D01*
X602D02*
X604D01*
X191Y3110D02*
X218D01*
X302D02*
X518D01*
X602D02*
X604D01*
X191Y3113D02*
X218D01*
X302D02*
X517D01*
X602D02*
X604D01*
X191Y3116D02*
X218D01*
X302D02*
X517D01*
X602D02*
X604D01*
X191Y3119D02*
X218D01*
X302D02*
X518D01*
X602D02*
X604D01*
X191Y3122D02*
X218D01*
X301D02*
X518D01*
X602D02*
X604D01*
X191Y3125D02*
X219D01*
X301D02*
X519D01*
X601D02*
X604D01*
X191Y3128D02*
X220D01*
X300D02*
X520D01*
X600D02*
X604D01*
X191Y3131D02*
X221D01*
X299D02*
X521D01*
X599D02*
X604D01*
X191Y3134D02*
X223D01*
X297D02*
X522D01*
X597D02*
X604D01*
X191Y3137D02*
X224D01*
X295D02*
X524D01*
X596D02*
X604D01*
X191Y3140D02*
X226D01*
X293D02*
X526D01*
X594D02*
X604D01*
X191Y3143D02*
X229D01*
X291D02*
X529D01*
X591D02*
X604D01*
X191Y3146D02*
X232D01*
X288D02*
X532D01*
X588D02*
X604D01*
X191Y3149D02*
X236D01*
X284D02*
X536D01*
X584D02*
X604D01*
X191Y3152D02*
X241D01*
X279D02*
X541D01*
X579D02*
X604D01*
X191Y3155D02*
X249D01*
X271D02*
X549D01*
X571D02*
X604D01*
X191Y3158D02*
X604D01*
X191Y3161D02*
X604D01*
X191Y3164D02*
X604D01*
X191Y3167D02*
X604D01*
X191Y3170D02*
X604D01*
X191Y3173D02*
X604D01*
X191Y3176D02*
X604D01*
X191Y3179D02*
X604D01*
X191Y3182D02*
X604D01*
X191Y3185D02*
X604D01*
X191Y3188D02*
X604D01*
X191Y3191D02*
X604D01*
X191Y3194D02*
X604D01*
X191Y3197D02*
X604D01*
X191Y3200D02*
X604D01*
X191Y3203D02*
X604D01*
X191Y3206D02*
X604D01*
X191Y3209D02*
X604D01*
X191Y3212D02*
X604D01*
X191Y3215D02*
X604D01*
X191Y3218D02*
X604D01*
X191Y3221D02*
X604D01*
X191Y3224D02*
X604D01*
X191Y3227D02*
X604D01*
X191Y3230D02*
X604D01*
X191Y3233D02*
X604D01*
X191Y3236D02*
X604D01*
X191Y3239D02*
X604D01*
X191Y3242D02*
X604D01*
X191Y3245D02*
X604D01*
X191Y3248D02*
X604D01*
X191Y3251D02*
X604D01*
X191Y3254D02*
X604D01*
X191Y3257D02*
X604D01*
X191Y3260D02*
X604D01*
X191Y3263D02*
X604D01*
X191Y3266D02*
X604D01*
X191Y3269D02*
X604D01*
X191Y3272D02*
X604D01*
X191Y3275D02*
X604D01*
X191Y3278D02*
X604D01*
X191Y3281D02*
X324D01*
X409D02*
X424D01*
X509D02*
X604D01*
X191Y3284D02*
X324D01*
X409D02*
X424D01*
X509D02*
X604D01*
X191Y3287D02*
X324D01*
X409D02*
X424D01*
X509D02*
X604D01*
X191Y3290D02*
X324D01*
X409D02*
X424D01*
X509D02*
X604D01*
X191Y3293D02*
X324D01*
X409D02*
X424D01*
X509D02*
X604D01*
X191Y3296D02*
X324D01*
X409D02*
X424D01*
X509D02*
X604D01*
X191Y3299D02*
X324D01*
X409D02*
X424D01*
X509D02*
X604D01*
X191Y3302D02*
X324D01*
X409D02*
X424D01*
X509D02*
X604D01*
X191Y3305D02*
X324D01*
X409D02*
X424D01*
X509D02*
X604D01*
X191Y3308D02*
X324D01*
X409D02*
X424D01*
X509D02*
X604D01*
X191Y3311D02*
X324D01*
X409D02*
X424D01*
X509D02*
X604D01*
X191Y3314D02*
X324D01*
X409D02*
X424D01*
X509D02*
X604D01*
X191Y3317D02*
X324D01*
X409D02*
X424D01*
X509D02*
X604D01*
X191Y3320D02*
X324D01*
X409D02*
X424D01*
X509D02*
X604D01*
X191Y3323D02*
X324D01*
X409D02*
X424D01*
X509D02*
X604D01*
X191Y3326D02*
X324D01*
X409D02*
X424D01*
X509D02*
X604D01*
X191Y3329D02*
X324D01*
X409D02*
X424D01*
X509D02*
X604D01*
X191Y3332D02*
X324D01*
X409D02*
X424D01*
X509D02*
X604D01*
X191Y3335D02*
X324D01*
X409D02*
X424D01*
X509D02*
X604D01*
X191Y3338D02*
X324D01*
X409D02*
X424D01*
X509D02*
X604D01*
X191Y3341D02*
X324D01*
X409D02*
X424D01*
X509D02*
X604D01*
X191Y3344D02*
X324D01*
X409D02*
X424D01*
X509D02*
X604D01*
X191Y3347D02*
X324D01*
X409D02*
X424D01*
X509D02*
X604D01*
X191Y3350D02*
X324D01*
X409D02*
X424D01*
X509D02*
X604D01*
X191Y3353D02*
X324D01*
X409D02*
X424D01*
X509D02*
X604D01*
X191Y3356D02*
X324D01*
X409D02*
X424D01*
X509D02*
X604D01*
X191Y3359D02*
X324D01*
X409D02*
X424D01*
X509D02*
X604D01*
X191Y3362D02*
X324D01*
X409D02*
X424D01*
X509D02*
X604D01*
X191Y3365D02*
X604D01*
X191Y3368D02*
X604D01*
X191Y3371D02*
X604D01*
X191Y3374D02*
X604D01*
X191Y3377D02*
X604D01*
X191Y3380D02*
X604D01*
X191Y3383D02*
X604D01*
X191Y3386D02*
X604D01*
X191Y3389D02*
X604D01*
X191Y3392D02*
X604D01*
X191Y3395D02*
X604D01*
X191Y3398D02*
X604D01*
X191Y3401D02*
X604D01*
X191Y3404D02*
X604D01*
X191Y3407D02*
X604D01*
X191Y3410D02*
X604D01*
X191Y3413D02*
X604D01*
X191Y3416D02*
X604D01*
X191Y3419D02*
X604D01*
X191Y3422D02*
X604D01*
X191Y3425D02*
X604D01*
X191Y3428D02*
X604D01*
X191Y3431D02*
X604D01*
X191Y3434D02*
X604D01*
X191Y3437D02*
X604D01*
X191Y3440D02*
X604D01*
X191Y3443D02*
X604D01*
X191Y3446D02*
X604D01*
X191Y3449D02*
X604D01*
X191Y3452D02*
X604D01*
X191Y3455D02*
X604D01*
X191Y3458D02*
X604D01*
X191Y3461D02*
X604D01*
X191Y3464D02*
X604D01*
X191Y3467D02*
X604D01*
X663Y3656D02*
Y2898D01*
X171*
Y1530*
X2337*
Y161*
X3833*
Y3656*
X663*
X411Y2450D02*
X409Y2439D01*
X405Y2429*
X398Y2420*
X389Y2413*
X379Y2409*
X368Y2408*
X357Y2409*
X347Y2413*
X338Y2420*
X332Y2429*
X327Y2439*
X326Y2450*
X327Y2461*
X332Y2471*
X338Y2480*
X347Y2487*
X357Y2491*
X368Y2492*
X379Y2491*
X389Y2487*
X398Y2480*
X405Y2471*
X409Y2461*
X411Y2450*
Y2750D02*
X409Y2739D01*
X405Y2729*
X398Y2720*
X389Y2713*
X379Y2709*
X368Y2708*
X357Y2709*
X347Y2713*
X338Y2720*
X332Y2729*
X327Y2739*
X326Y2750*
X327Y2761*
X332Y2771*
X338Y2780*
X347Y2787*
X357Y2791*
X368Y2792*
X379Y2791*
X389Y2787*
X398Y2780*
X405Y2771*
X409Y2761*
X411Y2750*
X441Y1903D02*
X452Y1901D01*
X462Y1897*
X471Y1890*
X478Y1882*
X482Y1871*
X484Y1860*
X482Y1849*
X478Y1839*
X471Y1830*
X462Y1823*
X452Y1819*
X441Y1818*
X430Y1819*
X420Y1823*
X411Y1830*
X404Y1839*
X400Y1849*
X399Y1860*
X400Y1871*
X404Y1882*
X411Y1890*
X420Y1897*
X430Y1901*
X441Y1903*
X532Y2745D02*
X534Y2756D01*
X538Y2766*
X545Y2775*
X554Y2782*
X564Y2786*
X575Y2787*
X586Y2786*
X596Y2782*
X605Y2775*
X612Y2766*
X616Y2756*
X617Y2745*
X616Y2734*
X612Y2724*
X605Y2715*
X596Y2708*
X586Y2704*
X575Y2702*
X564Y2704*
X554Y2708*
X545Y2715*
X538Y2724*
X534Y2734*
X532Y2745*
X533Y2445D02*
X534Y2456D01*
X538Y2466*
X545Y2475*
X554Y2482*
X564Y2486*
X575Y2487*
X586Y2486*
X596Y2482*
X605Y2475*
X612Y2466*
X616Y2456*
X617Y2445*
X616Y2434*
X612Y2424*
X605Y2415*
X596Y2408*
X586Y2404*
X575Y2403*
X564Y2404*
X554Y2408*
X545Y2415*
X538Y2424*
X534Y2434*
X533Y2445*
X741Y1903D02*
X752Y1901D01*
X762Y1897*
X771Y1890*
X778Y1881*
X782Y1871*
X783Y1860*
X782Y1849*
X778Y1839*
X771Y1830*
X762Y1824*
X752Y1819*
X741Y1818*
X730Y1819*
X720Y1824*
X711Y1830*
X704Y1839*
X700Y1849*
X699Y1860*
X700Y1871*
X704Y1881*
X711Y1890*
X720Y1897*
X730Y1901*
X741Y1903*
X775Y2580D02*
X764Y2581D01*
X754Y2585*
X745Y2592*
X738Y2601*
X734Y2611*
X733Y2622*
X734Y2633*
X738Y2643*
X745Y2652*
X754Y2659*
X764Y2663*
X775Y2665*
X786Y2663*
X797Y2659*
X805Y2652*
X812Y2643*
X816Y2633*
X818Y2622*
X816Y2611*
X812Y2601*
X805Y2592*
X797Y2585*
X786Y2581*
X775Y2580*
X880Y2812D02*
X891Y2811D01*
X901Y2806*
X910Y2800*
X917Y2791*
X921Y2781*
X922Y2770*
X921Y2759*
X917Y2749*
X910Y2740*
X901Y2733*
X891Y2729*
X880Y2727*
X869Y2729*
X859Y2733*
X850Y2740*
X843Y2749*
X839Y2759*
X838Y2770*
X839Y2781*
X843Y2791*
X850Y2800*
X859Y2806*
X869Y2811*
X880Y2812*
X1172Y1756D02*
X1174Y1767D01*
X1178Y1777*
X1185Y1786*
X1193Y1793*
X1204Y1797*
X1215Y1798*
X1226Y1797*
X1236Y1793*
X1245Y1786*
X1251Y1777*
X1256Y1767*
X1257Y1756*
X1256Y1745*
X1251Y1735*
X1245Y1726*
X1236Y1719*
X1226Y1715*
X1215Y1714*
X1204Y1715*
X1193Y1719*
X1185Y1726*
X1178Y1735*
X1174Y1745*
X1172Y1756*
Y2056D02*
X1174Y2067D01*
X1178Y2077*
X1185Y2086*
X1193Y2093*
X1204Y2097*
X1215Y2098*
X1226Y2097*
X1236Y2093*
X1245Y2086*
X1251Y2077*
X1256Y2067*
X1257Y2056*
X1256Y2045*
X1251Y2035*
X1245Y2026*
X1236Y2019*
X1226Y2015*
X1215Y2014*
X1204Y2015*
X1193Y2019*
X1185Y2026*
X1178Y2035*
X1174Y2045*
X1172Y2056*
X1175Y2580D02*
X1164Y2581D01*
X1154Y2585*
X1145Y2592*
X1139Y2601*
X1134Y2611*
X1133Y2622*
X1134Y2633*
X1139Y2643*
X1145Y2652*
X1154Y2659*
X1164Y2663*
X1175Y2664*
X1186Y2663*
X1196Y2659*
X1205Y2652*
X1212Y2643*
X1216Y2633*
X1218Y2622*
X1216Y2611*
X1212Y2601*
X1205Y2592*
X1196Y2585*
X1186Y2581*
X1175Y2580*
X1180Y2812D02*
X1191Y2811D01*
X1201Y2806*
X1210Y2800*
X1217Y2791*
X1221Y2781*
X1222Y2770*
X1221Y2759*
X1217Y2749*
X1210Y2740*
X1201Y2733*
X1191Y2729*
X1180Y2727*
X1169Y2729*
X1159Y2733*
X1150Y2740*
X1143Y2749*
X1139Y2759*
X1138Y2770*
X1139Y2781*
X1143Y2791*
X1150Y2800*
X1159Y2806*
X1169Y2811*
X1180Y2812*
X1218Y2157D02*
X1207Y2158D01*
X1197Y2162*
X1188Y2169*
X1182Y2178*
X1177Y2188*
X1176Y2199*
X1177Y2210*
X1182Y2220*
X1188Y2229*
X1197Y2236*
X1207Y2240*
X1218Y2241*
X1229Y2240*
X1239Y2236*
X1248Y2229*
X1255Y2220*
X1259Y2210*
X1261Y2199*
X1259Y2188*
X1255Y2178*
X1248Y2169*
X1239Y2162*
X1229Y2158*
X1218Y2157*
X1418Y2363D02*
X1407Y2365D01*
X1397Y2369*
X1388Y2376*
X1382Y2384*
X1377Y2395*
X1376Y2406*
X1377Y2417*
X1382Y2427*
X1388Y2436*
X1397Y2442*
X1407Y2446*
X1418Y2448*
X1429Y2446*
X1439Y2442*
X1448Y2436*
X1455Y2427*
X1459Y2417*
X1461Y2406*
X1459Y2395*
X1455Y2384*
X1448Y2376*
X1439Y2369*
X1429Y2365*
X1418Y2363*
X1422Y2800D02*
X1433Y2799D01*
X1443Y2795*
X1452Y2788*
X1458Y2779*
X1463Y2769*
X1464Y2758*
X1463Y2747*
X1458Y2737*
X1452Y2728*
X1443Y2721*
X1433Y2717*
X1422Y2716*
X1411Y2717*
X1401Y2721*
X1392Y2728*
X1385Y2737*
X1381Y2747*
X1379Y2758*
X1381Y2769*
X1385Y2779*
X1392Y2788*
X1401Y2795*
X1411Y2799*
X1422Y2800*
X1431Y3511D02*
X1442Y3510D01*
X1452Y3505*
X1461Y3499*
X1468Y3490*
X1472Y3480*
X1474Y3469*
X1472Y3458*
X1468Y3447*
X1461Y3439*
X1452Y3432*
X1442Y3428*
X1431Y3426*
X1420Y3428*
X1410Y3432*
X1401Y3439*
X1394Y3447*
X1390Y3458*
X1389Y3469*
X1390Y3480*
X1394Y3490*
X1401Y3499*
X1410Y3505*
X1420Y3510*
X1431Y3511*
X1464Y2911D02*
X1463Y2900D01*
X1458Y2890*
X1452Y2881*
X1443Y2874*
X1433Y2870*
X1422Y2868*
X1411Y2870*
X1401Y2874*
X1392Y2881*
X1385Y2890*
X1381Y2900*
X1379Y2911*
X1381Y2922*
X1385Y2932*
X1392Y2941*
X1401Y2947*
X1411Y2952*
X1422Y2953*
X1433Y2952*
X1443Y2947*
X1452Y2941*
X1458Y2932*
X1463Y2922*
X1464Y2911*
Y3211D02*
X1463Y3200D01*
X1458Y3190*
X1452Y3181*
X1443Y3174*
X1433Y3170*
X1422Y3168*
X1411Y3170*
X1401Y3174*
X1392Y3181*
X1385Y3190*
X1381Y3200*
X1379Y3211*
X1381Y3222*
X1385Y3232*
X1392Y3241*
X1401Y3247*
X1411Y3252*
X1422Y3253*
X1433Y3252*
X1443Y3247*
X1452Y3241*
X1458Y3232*
X1463Y3222*
X1464Y3211*
X1576Y1756D02*
X1577Y1767D01*
X1582Y1777*
X1588Y1786*
X1597Y1793*
X1607Y1797*
X1618Y1798*
X1629Y1797*
X1639Y1793*
X1648Y1786*
X1655Y1777*
X1659Y1767*
X1661Y1756*
X1659Y1745*
X1655Y1735*
X1648Y1726*
X1639Y1719*
X1629Y1715*
X1618Y1714*
X1607Y1715*
X1597Y1719*
X1588Y1726*
X1582Y1735*
X1577Y1745*
X1576Y1756*
Y2056D02*
X1577Y2067D01*
X1582Y2077*
X1588Y2086*
X1597Y2093*
X1607Y2097*
X1618Y2098*
X1629Y2097*
X1639Y2093*
X1648Y2086*
X1655Y2077*
X1659Y2067*
X1661Y2056*
X1659Y2045*
X1655Y2035*
X1648Y2026*
X1639Y2019*
X1629Y2015*
X1618Y2014*
X1607Y2015*
X1597Y2019*
X1588Y2026*
X1582Y2035*
X1577Y2045*
X1576Y2056*
X1618Y2157D02*
X1607Y2158D01*
X1597Y2162*
X1588Y2169*
X1582Y2178*
X1577Y2188*
X1576Y2199*
X1577Y2210*
X1582Y2220*
X1588Y2229*
X1597Y2236*
X1607Y2240*
X1618Y2241*
X1629Y2240*
X1639Y2236*
X1648Y2229*
X1655Y2220*
X1659Y2210*
X1661Y2199*
X1659Y2188*
X1655Y2178*
X1648Y2169*
X1639Y2162*
X1629Y2158*
X1618Y2157*
Y2363D02*
X1607Y2365D01*
X1597Y2369*
X1588Y2376*
X1582Y2384*
X1577Y2395*
X1576Y2406*
X1577Y2417*
X1582Y2427*
X1588Y2436*
X1597Y2442*
X1607Y2446*
X1618Y2448*
X1629Y2446*
X1639Y2442*
X1648Y2436*
X1655Y2427*
X1659Y2417*
X1661Y2406*
X1659Y2395*
X1655Y2384*
X1648Y2376*
X1639Y2369*
X1629Y2365*
X1618Y2363*
X1622Y2800D02*
X1633Y2799D01*
X1643Y2795*
X1652Y2788*
X1658Y2779*
X1663Y2769*
X1664Y2758*
X1663Y2747*
X1658Y2737*
X1652Y2728*
X1643Y2721*
X1633Y2717*
X1622Y2716*
X1611Y2717*
X1601Y2721*
X1592Y2728*
X1585Y2737*
X1581Y2747*
X1579Y2758*
X1581Y2769*
X1585Y2779*
X1592Y2788*
X1601Y2795*
X1611Y2799*
X1622Y2800*
X1659Y2573D02*
X1660Y2582D01*
X1664Y2590*
X1670Y2596*
X1678Y2600*
X1687Y2601*
X1696Y2600*
X1704Y2596*
X1710Y2590*
X1714Y2582*
X1715Y2573*
X1714Y2564*
X1710Y2556*
X1704Y2550*
X1696Y2546*
X1687Y2545*
X1678Y2546*
X1670Y2550*
X1664Y2556*
X1660Y2564*
X1659Y2573*
X1671Y2911D02*
X1669Y2900D01*
X1665Y2890*
X1658Y2881*
X1650Y2874*
X1639Y2870*
X1628Y2868*
X1617Y2870*
X1607Y2874*
X1598Y2881*
X1592Y2890*
X1588Y2900*
X1586Y2911*
X1588Y2922*
X1592Y2932*
X1598Y2941*
X1607Y2947*
X1617Y2952*
X1628Y2953*
X1639Y2952*
X1650Y2947*
X1658Y2941*
X1665Y2932*
X1669Y2922*
X1671Y2911*
Y3211D02*
X1669Y3200D01*
X1665Y3190*
X1658Y3181*
X1650Y3174*
X1639Y3170*
X1628Y3168*
X1617Y3170*
X1607Y3174*
X1598Y3181*
X1592Y3190*
X1588Y3200*
X1586Y3211*
X1588Y3222*
X1592Y3232*
X1598Y3241*
X1607Y3247*
X1617Y3252*
X1628Y3253*
X1639Y3252*
X1650Y3247*
X1658Y3241*
X1665Y3232*
X1669Y3222*
X1671Y3211*
X1731Y3511D02*
X1742Y3509D01*
X1752Y3505*
X1761Y3499*
X1768Y3490*
X1772Y3480*
X1774Y3469*
X1772Y3458*
X1768Y3447*
X1761Y3439*
X1752Y3432*
X1742Y3428*
X1731Y3426*
X1720Y3428*
X1710Y3432*
X1701Y3439*
X1694Y3447*
X1690Y3458*
X1689Y3469*
X1690Y3480*
X1694Y3490*
X1701Y3499*
X1710Y3505*
X1720Y3509*
X1731Y3511*
X1785Y2327D02*
X1786Y2337D01*
X1790Y2347*
X1796Y2355*
X1805Y2362*
X1814Y2366*
X1825Y2367*
X1835Y2366*
X1845Y2362*
X1853Y2355*
X1860Y2347*
X1864Y2337*
X1865Y2327*
X1864Y2316*
X1860Y2307*
X1853Y2298*
X1845Y2292*
X1835Y2288*
X1825Y2286*
X1814Y2288*
X1805Y2292*
X1796Y2298*
X1790Y2307*
X1786Y2316*
X1785Y2327*
X1836Y2209D02*
X1837Y2217D01*
X1841Y2225*
X1848Y2232*
X1855Y2236*
X1864Y2237*
X1873Y2236*
X1881Y2232*
X1887Y2225*
X1891Y2217*
X1893Y2209*
X1891Y2200*
X1887Y2192*
X1881Y2186*
X1873Y2182*
X1864Y2180*
X1855Y2182*
X1848Y2186*
X1841Y2192*
X1837Y2200*
X1836Y2209*
X1865Y2563D02*
X1867Y2572D01*
X1871Y2580*
X1877Y2586*
X1885Y2590*
X1894Y2592*
X1903Y2590*
X1911Y2586*
X1917Y2580*
X1921Y2572*
X1922Y2563*
X1921Y2554*
X1917Y2546*
X1911Y2540*
X1903Y2536*
X1894Y2535*
X1885Y2536*
X1877Y2540*
X1871Y2546*
X1867Y2554*
X1865Y2563*
X1877Y2517D02*
X1876Y2506D01*
X1872Y2496*
X1865Y2487*
X1856Y2480*
X1846Y2476*
X1835Y2475*
X1824Y2476*
X1814Y2480*
X1805Y2487*
X1798Y2496*
X1794Y2506*
X1793Y2517*
X1794Y2528*
X1798Y2538*
X1805Y2547*
X1814Y2554*
X1824Y2558*
X1835Y2559*
X1846Y2558*
X1856Y2554*
X1865Y2547*
X1872Y2538*
X1876Y2528*
X1877Y2517*
X1878Y2817D02*
X1876Y2806D01*
X1872Y2796*
X1865Y2787*
X1856Y2780*
X1846Y2776*
X1835Y2774*
X1824Y2776*
X1814Y2780*
X1805Y2787*
X1798Y2796*
X1794Y2806*
X1793Y2817*
X1794Y2828*
X1798Y2838*
X1805Y2847*
X1814Y2854*
X1824Y2858*
X1835Y2859*
X1846Y2858*
X1856Y2854*
X1865Y2847*
X1872Y2838*
X1876Y2828*
X1878Y2817*
X1944Y2730D02*
X1945Y2739D01*
X1949Y2747*
X1956Y2753*
X1964Y2757*
X1973Y2759*
X1981Y2757*
X1989Y2753*
X1996Y2747*
X2000Y2739*
X2001Y2730*
X2000Y2722*
X1996Y2714*
X1989Y2707*
X1981Y2703*
X1973Y2702*
X1964Y2703*
X1956Y2707*
X1949Y2714*
X1945Y2722*
X1944Y2730*
X1944Y2100D02*
X1946Y2109D01*
X1950Y2117*
X1956Y2123*
X1964Y2127*
X1973Y2129*
X1981Y2127*
X1989Y2123*
X1995Y2117*
X1999Y2109*
X2001Y2100*
X1999Y2092*
X1995Y2084*
X1989Y2078*
X1981Y2074*
X1972Y2072*
X1964Y2074*
X1956Y2078*
X1950Y2084*
X1946Y2092*
X1944Y2100*
X1946Y2929D02*
X1945Y2918D01*
X1941Y2908*
X1934Y2899*
X1925Y2892*
X1915Y2888*
X1904Y2886*
X1893Y2888*
X1883Y2892*
X1874Y2899*
X1867Y2908*
X1863Y2918*
X1862Y2929*
X1863Y2940*
X1867Y2950*
X1874Y2959*
X1883Y2965*
X1893Y2970*
X1904Y2971*
X1915Y2970*
X1925Y2965*
X1934Y2959*
X1941Y2950*
X1945Y2940*
X1946Y2929*
Y3329D02*
X1945Y3318D01*
X1941Y3308*
X1934Y3299*
X1925Y3292*
X1915Y3288*
X1904Y3286*
X1893Y3288*
X1883Y3292*
X1874Y3299*
X1867Y3308*
X1863Y3318*
X1862Y3329*
X1863Y3340*
X1867Y3350*
X1874Y3359*
X1883Y3365*
X1893Y3370*
X1904Y3371*
X1915Y3370*
X1925Y3365*
X1934Y3359*
X1941Y3350*
X1945Y3340*
X1946Y3329*
X2001Y2327D02*
X2002Y2337D01*
X2006Y2347*
X2013Y2355*
X2021Y2362*
X2031Y2366*
X2041Y2367*
X2052Y2366*
X2062Y2362*
X2070Y2355*
X2076Y2347*
X2080Y2337*
X2082Y2327*
X2080Y2316*
X2076Y2307*
X2070Y2298*
X2062Y2292*
X2052Y2288*
X2041Y2286*
X2031Y2288*
X2021Y2292*
X2013Y2298*
X2006Y2307*
X2002Y2316*
X2001Y2327*
X2019Y3278D02*
Y3383D01*
X2103*
Y3278*
X2019*
X2055Y2277D02*
X2066Y2275D01*
X2076Y2271*
X2085Y2264*
X2092Y2256*
X2096Y2245*
X2098Y2234*
X2096Y2223*
X2092Y2213*
X2085Y2204*
X2076Y2198*
X2066Y2193*
X2055Y2192*
X2044Y2193*
X2034Y2198*
X2025Y2204*
X2018Y2213*
X2014Y2223*
X2013Y2234*
X2014Y2245*
X2018Y2256*
X2025Y2264*
X2034Y2271*
X2044Y2275*
X2055Y2277*
X2062Y2839D02*
X2064Y2847D01*
X2068Y2855*
X2074Y2862*
X2082Y2866*
X2091Y2867*
X2099Y2866*
X2107Y2862*
X2114Y2855*
X2118Y2847*
X2119Y2839*
X2118Y2830*
X2114Y2822*
X2107Y2816*
X2099Y2812*
X2091Y2810*
X2082Y2812*
X2074Y2816*
X2068Y2822*
X2064Y2830*
X2062Y2839*
X2119Y3278D02*
Y3383D01*
X2204*
Y3278*
X2119*
X2121Y2958D02*
X2132Y2956D01*
X2142Y2952*
X2151Y2945*
X2157Y2937*
X2162Y2926*
X2163Y2915*
X2162Y2904*
X2157Y2894*
X2151Y2885*
X2142Y2879*
X2132Y2874*
X2121Y2873*
X2110Y2874*
X2099Y2879*
X2090Y2885*
X2084Y2894*
X2079Y2904*
X2078Y2915*
X2079Y2926*
X2084Y2937*
X2090Y2945*
X2099Y2952*
X2110Y2956*
X2121Y2958*
X2228Y3196D02*
X2239Y3195D01*
X2250Y3190*
X2258Y3184*
X2265Y3175*
X2269Y3165*
X2271Y3154*
X2269Y3143*
X2265Y3132*
X2258Y3124*
X2250Y3117*
X2239Y3113*
X2228Y3111*
X2217Y3113*
X2207Y3117*
X2198Y3124*
X2192Y3132*
X2187Y3143*
X2186Y3154*
X2187Y3165*
X2192Y3175*
X2198Y3184*
X2207Y3190*
X2217Y3195*
X2228Y3196*
X2269Y2356D02*
X2270Y2365D01*
X2274Y2373*
X2281Y2379*
X2288Y2383*
X2297Y2385*
X2306Y2383*
X2314Y2379*
X2320Y2373*
X2324Y2365*
X2326Y2356*
X2324Y2348*
X2320Y2340*
X2314Y2333*
X2306Y2329*
X2297Y2328*
X2288Y2329*
X2281Y2333*
X2274Y2340*
X2270Y2348*
X2269Y2356*
X2355Y2277D02*
X2366Y2275D01*
X2376Y2271*
X2385Y2264*
X2392Y2255*
X2396Y2245*
X2398Y2234*
X2396Y2223*
X2392Y2213*
X2385Y2204*
X2376Y2198*
X2366Y2193*
X2355Y2192*
X2344Y2193*
X2334Y2198*
X2325Y2204*
X2319Y2213*
X2314Y2223*
X2313Y2234*
X2314Y2245*
X2319Y2255*
X2325Y2264*
X2334Y2271*
X2344Y2275*
X2355Y2277*
X2421Y2958D02*
X2431Y2956D01*
X2442Y2952*
X2450Y2945*
X2457Y2937*
X2461Y2926*
X2463Y2915*
X2461Y2904*
X2457Y2894*
X2450Y2885*
X2442Y2879*
X2431Y2875*
X2421Y2873*
X2410Y2875*
X2399Y2879*
X2391Y2885*
X2384Y2894*
X2380Y2904*
X2378Y2915*
X2380Y2926*
X2384Y2937*
X2391Y2945*
X2399Y2952*
X2410Y2956*
X2421Y2958*
X2426Y2701D02*
X2428Y2710D01*
X2432Y2718*
X2438Y2724*
X2446Y2728*
X2455Y2729*
X2464Y2728*
X2472Y2724*
X2478Y2718*
X2482Y2710*
X2483Y2701*
X2482Y2692*
X2478Y2684*
X2472Y2678*
X2464Y2674*
X2455Y2672*
X2446Y2674*
X2438Y2678*
X2432Y2684*
X2428Y2692*
X2426Y2701*
X2530Y2435D02*
X2532Y2446D01*
X2536Y2456*
X2543Y2465*
X2552Y2472*
X2562Y2476*
X2573Y2478*
X2584Y2476*
X2594Y2472*
X2603Y2465*
X2610Y2456*
X2614Y2446*
X2615Y2435*
X2614Y2424*
X2610Y2414*
X2603Y2405*
X2594Y2398*
X2584Y2394*
X2573Y2393*
X2562Y2394*
X2552Y2398*
X2543Y2405*
X2536Y2414*
X2532Y2424*
X2530Y2435*
X2531Y2735D02*
X2532Y2746D01*
X2536Y2756*
X2543Y2765*
X2552Y2772*
X2562Y2776*
X2573Y2777*
X2584Y2776*
X2594Y2772*
X2603Y2765*
X2610Y2756*
X2614Y2746*
X2615Y2735*
X2614Y2724*
X2610Y2714*
X2603Y2705*
X2594Y2698*
X2584Y2694*
X2573Y2693*
X2562Y2694*
X2552Y2698*
X2543Y2705*
X2536Y2714*
X2532Y2724*
X2531Y2735*
X2581Y3580D02*
Y3495D01*
X2496*
Y3580*
X2581*
X2602Y503D02*
X2591Y504D01*
X2581Y509*
X2572Y515*
X2566Y524*
X2562Y534*
X2560Y545*
X2562Y556*
X2566Y567*
X2572Y575*
X2581Y582*
X2591Y586*
X2602Y588*
X2613Y586*
X2624Y582*
X2632Y575*
X2639Y567*
X2643Y556*
X2645Y545*
X2643Y534*
X2639Y524*
X2632Y515*
X2624Y509*
X2613Y504*
X2602Y503*
Y710D02*
X2591Y711D01*
X2581Y715*
X2572Y722*
X2566Y731*
X2561Y741*
X2560Y752*
X2561Y763*
X2566Y773*
X2572Y782*
X2581Y789*
X2591Y793*
X2602Y795*
X2613Y793*
X2624Y789*
X2632Y782*
X2639Y773*
X2643Y763*
X2645Y752*
X2643Y741*
X2639Y731*
X2632Y722*
X2624Y715*
X2613Y711*
X2602Y710*
X2628Y3196D02*
X2639Y3195D01*
X2650Y3190*
X2658Y3184*
X2665Y3175*
X2669Y3165*
X2671Y3154*
X2669Y3143*
X2665Y3132*
X2658Y3124*
X2650Y3117*
X2639Y3113*
X2628Y3111*
X2617Y3113*
X2607Y3117*
X2598Y3124*
X2592Y3132*
X2588Y3143*
X2586Y3154*
X2588Y3165*
X2592Y3175*
X2598Y3184*
X2607Y3190*
X2617Y3195*
X2628Y3196*
X2642Y1946D02*
X2653Y1945D01*
X2663Y1940*
X2672Y1934*
X2679Y1925*
X2683Y1915*
X2684Y1904*
X2683Y1893*
X2679Y1882*
X2672Y1874*
X2663Y1867*
X2653Y1863*
X2642Y1861*
X2631Y1863*
X2621Y1867*
X2612Y1874*
X2605Y1882*
X2601Y1893*
X2599Y1904*
X2601Y1915*
X2605Y1925*
X2612Y1934*
X2621Y1940*
X2631Y1945*
X2642Y1946*
X2656Y1125D02*
X2667Y1124D01*
X2677Y1120*
X2686Y1113*
X2692Y1104*
X2697Y1094*
X2698Y1083*
X2697Y1072*
X2692Y1061*
X2686Y1053*
X2677Y1046*
X2667Y1042*
X2656Y1040*
X2645Y1042*
X2634Y1046*
X2626Y1053*
X2619Y1061*
X2615Y1072*
X2613Y1083*
X2615Y1094*
X2619Y1104*
X2626Y1113*
X2634Y1120*
X2645Y1124*
X2656Y1125*
X2681Y3580D02*
Y3495D01*
X2596*
Y3580*
X2681*
X2724Y3062D02*
X2713Y3063D01*
X2703Y3068*
X2694Y3074*
X2687Y3083*
X2683Y3093*
X2682Y3104*
X2683Y3115*
X2687Y3126*
X2694Y3134*
X2703Y3141*
X2713Y3145*
X2724Y3147*
X2735Y3145*
X2745Y3141*
X2754Y3134*
X2761Y3126*
X2765Y3115*
X2766Y3104*
X2765Y3093*
X2761Y3083*
X2754Y3074*
X2745Y3068*
X2735Y3063*
X2724Y3062*
X2781Y3580D02*
Y3495D01*
X2696*
Y3580*
X2781*
X2881Y3580D02*
Y3495D01*
X2796*
Y3580*
X2881*
X2942Y1946D02*
X2953Y1945D01*
X2963Y1940*
X2972Y1934*
X2978Y1925*
X2983Y1915*
X2984Y1904*
X2983Y1893*
X2978Y1882*
X2972Y1874*
X2963Y1867*
X2953Y1863*
X2942Y1861*
X2931Y1863*
X2921Y1867*
X2912Y1874*
X2905Y1882*
X2901Y1893*
X2899Y1904*
X2901Y1915*
X2905Y1925*
X2912Y1934*
X2921Y1940*
X2931Y1945*
X2942Y1946*
X2956Y1125D02*
X2967Y1124D01*
X2977Y1119*
X2986Y1113*
X2992Y1104*
X2996Y1094*
X2998Y1083*
X2996Y1072*
X2992Y1062*
X2986Y1053*
X2977Y1046*
X2967Y1042*
X2956Y1040*
X2945Y1042*
X2934Y1046*
X2926Y1053*
X2919Y1062*
X2915Y1072*
X2913Y1083*
X2915Y1094*
X2919Y1104*
X2926Y1113*
X2934Y1119*
X2945Y1124*
X2956Y1125*
X3124Y3062D02*
X3113Y3063D01*
X3103Y3068*
X3094Y3074*
X3087Y3083*
X3083Y3093*
X3082Y3104*
X3083Y3115*
X3087Y3126*
X3094Y3134*
X3103Y3141*
X3113Y3145*
X3124Y3147*
X3135Y3145*
X3145Y3141*
X3154Y3134*
X3161Y3126*
X3165Y3115*
X3166Y3104*
X3165Y3093*
X3161Y3083*
X3154Y3074*
X3145Y3068*
X3135Y3063*
X3124Y3062*
X3196Y1485D02*
X3195Y1475D01*
X3190Y1464*
X3184Y1456*
X3175Y1449*
X3165Y1445*
X3154Y1443*
X3143Y1445*
X3132Y1449*
X3124Y1456*
X3117Y1464*
X3113Y1475*
X3111Y1485*
X3113Y1496*
X3117Y1507*
X3124Y1515*
X3132Y1522*
X3143Y1526*
X3154Y1528*
X3165Y1526*
X3175Y1522*
X3184Y1515*
X3190Y1507*
X3195Y1496*
X3196Y1485*
Y1785D02*
X3195Y1775D01*
X3190Y1764*
X3184Y1756*
X3175Y1749*
X3165Y1745*
X3154Y1743*
X3143Y1745*
X3132Y1749*
X3124Y1756*
X3117Y1764*
X3113Y1775*
X3111Y1785*
X3113Y1796*
X3117Y1807*
X3124Y1815*
X3132Y1822*
X3143Y1826*
X3154Y1828*
X3165Y1826*
X3175Y1822*
X3184Y1815*
X3190Y1807*
X3195Y1796*
X3196Y1785*
Y3257D02*
X3195Y3246D01*
X3190Y3236*
X3184Y3227*
X3175Y3220*
X3165Y3216*
X3154Y3215*
X3143Y3216*
X3132Y3220*
X3124Y3227*
X3117Y3236*
X3113Y3246*
X3111Y3257*
X3113Y3268*
X3117Y3278*
X3124Y3287*
X3132Y3294*
X3143Y3298*
X3154Y3299*
X3165Y3298*
X3175Y3294*
X3184Y3287*
X3190Y3278*
X3195Y3268*
X3196Y3257*
Y3557D02*
X3195Y3546D01*
X3190Y3536*
X3184Y3527*
X3175Y3520*
X3165Y3516*
X3154Y3515*
X3143Y3516*
X3132Y3520*
X3124Y3527*
X3117Y3536*
X3113Y3546*
X3111Y3557*
X3113Y3568*
X3117Y3578*
X3124Y3587*
X3132Y3594*
X3143Y3598*
X3154Y3599*
X3165Y3598*
X3175Y3594*
X3184Y3587*
X3190Y3578*
X3195Y3568*
X3196Y3557*
X3198Y903D02*
X3196Y892D01*
X3192Y882*
X3186Y873*
X3177Y866*
X3167Y862*
X3156Y860*
X3145Y862*
X3134Y866*
X3126Y873*
X3119Y882*
X3115Y892*
X3113Y903*
X3115Y914*
X3119Y924*
X3126Y933*
X3134Y939*
X3145Y944*
X3156Y945*
X3167Y944*
X3177Y939*
X3186Y933*
X3192Y924*
X3196Y914*
X3198Y903*
Y1203D02*
X3196Y1192D01*
X3192Y1182*
X3186Y1173*
X3177Y1166*
X3167Y1162*
X3156Y1160*
X3145Y1162*
X3134Y1166*
X3126Y1173*
X3119Y1182*
X3115Y1192*
X3113Y1203*
X3115Y1214*
X3119Y1224*
X3126Y1233*
X3134Y1239*
X3145Y1244*
X3156Y1245*
X3167Y1244*
X3177Y1239*
X3186Y1233*
X3192Y1224*
X3196Y1214*
X3198Y1203*
X3206Y304D02*
X3204Y293D01*
X3200Y283*
X3193Y274*
X3185Y268*
X3174Y263*
X3163Y262*
X3152Y263*
X3142Y268*
X3134Y274*
X3127Y283*
X3123Y293*
X3121Y304*
X3123Y315*
X3127Y326*
X3134Y334*
X3142Y341*
X3152Y345*
X3163Y347*
X3174Y345*
X3185Y341*
X3193Y334*
X3200Y326*
X3204Y315*
X3206Y304*
Y604D02*
X3204Y593D01*
X3200Y583*
X3193Y574*
X3185Y568*
X3174Y563*
X3163Y562*
X3152Y563*
X3142Y568*
X3134Y574*
X3127Y583*
X3123Y593*
X3121Y604*
X3123Y615*
X3127Y626*
X3134Y634*
X3142Y641*
X3152Y645*
X3163Y647*
X3174Y645*
X3185Y641*
X3193Y634*
X3200Y626*
X3204Y615*
X3206Y604*
Y2076D02*
X3204Y2065D01*
X3200Y2055*
X3193Y2046*
X3185Y2039*
X3174Y2035*
X3163Y2034*
X3152Y2035*
X3142Y2039*
X3134Y2046*
X3127Y2055*
X3123Y2065*
X3121Y2076*
X3123Y2087*
X3127Y2097*
X3134Y2106*
X3142Y2113*
X3152Y2117*
X3163Y2118*
X3174Y2117*
X3185Y2113*
X3193Y2106*
X3200Y2097*
X3204Y2087*
X3206Y2076*
Y2376D02*
X3204Y2365D01*
X3200Y2355*
X3193Y2346*
X3185Y2339*
X3174Y2335*
X3163Y2334*
X3152Y2335*
X3142Y2339*
X3134Y2346*
X3127Y2355*
X3123Y2365*
X3121Y2376*
X3123Y2387*
X3127Y2397*
X3134Y2406*
X3142Y2413*
X3152Y2417*
X3163Y2418*
X3174Y2417*
X3185Y2413*
X3193Y2406*
X3200Y2397*
X3204Y2387*
X3206Y2376*
Y2667D02*
X3204Y2656D01*
X3200Y2645*
X3193Y2637*
X3185Y2630*
X3174Y2626*
X3163Y2624*
X3152Y2626*
X3142Y2630*
X3134Y2637*
X3127Y2645*
X3123Y2656*
X3121Y2667*
X3123Y2678*
X3127Y2688*
X3134Y2697*
X3142Y2703*
X3152Y2708*
X3163Y2709*
X3174Y2708*
X3185Y2703*
X3193Y2697*
X3200Y2688*
X3204Y2678*
X3206Y2667*
Y2967D02*
X3204Y2956D01*
X3200Y2945*
X3193Y2937*
X3185Y2930*
X3174Y2926*
X3163Y2924*
X3152Y2926*
X3142Y2930*
X3134Y2937*
X3127Y2945*
X3123Y2956*
X3121Y2967*
X3123Y2978*
X3127Y2988*
X3134Y2997*
X3142Y3003*
X3152Y3008*
X3163Y3009*
X3174Y3008*
X3185Y3003*
X3193Y2997*
X3200Y2988*
X3204Y2978*
X3206Y2967*
X3806Y3298D02*
X3722D01*
Y3383*
X3806*
Y3298*
Y3398D02*
X3722D01*
Y3483*
X3806*
Y3398*
X3816Y1527D02*
X3731D01*
Y1611*
X3816*
Y1527*
Y1627D02*
X3731D01*
Y1711*
X3816*
Y1627*
Y2117D02*
X3731D01*
Y2202*
X3816*
Y2117*
Y2217D02*
X3731D01*
Y2302*
X3816*
Y2217*
Y2698D02*
X3731D01*
Y2783*
X3816*
Y2698*
Y2798D02*
X3731D01*
Y2883*
X3816*
Y2798*
X3822Y950D02*
X3737D01*
Y1035*
X3822*
Y950*
Y1050D02*
X3737D01*
Y1135*
X3822*
Y1050*
X3826Y336D02*
X3741D01*
Y420*
X3826*
Y336*
Y436D02*
X3741D01*
Y520*
X3826*
Y436*
X2337Y164D02*
X3833D01*
X2337Y167D02*
X3833D01*
X2337Y170D02*
X3833D01*
X2337Y173D02*
X3833D01*
X2337Y176D02*
X3833D01*
X2337Y179D02*
X3833D01*
X2337Y182D02*
X3833D01*
X2337Y185D02*
X3833D01*
X2337Y188D02*
X3833D01*
X2337Y191D02*
X3833D01*
X2337Y194D02*
X3833D01*
X2337Y197D02*
X3833D01*
X2337Y200D02*
X3833D01*
X2337Y203D02*
X3833D01*
X2337Y206D02*
X3833D01*
X2337Y209D02*
X3833D01*
X2337Y212D02*
X3833D01*
X2337Y215D02*
X3833D01*
X2337Y218D02*
X3833D01*
X2337Y221D02*
X3833D01*
X2337Y224D02*
X3833D01*
X2337Y227D02*
X3833D01*
X2337Y230D02*
X3833D01*
X2337Y233D02*
X3833D01*
X2337Y236D02*
X3833D01*
X2337Y239D02*
X3833D01*
X2337Y242D02*
X3833D01*
X2337Y245D02*
X3833D01*
X2337Y248D02*
X3833D01*
X2337Y251D02*
X3833D01*
X2337Y254D02*
X3833D01*
X2337Y257D02*
X3833D01*
X2337Y260D02*
X3833D01*
X2337Y263D02*
X3157D01*
X3170D02*
X3833D01*
X2337Y266D02*
X3147D01*
X3180D02*
X3833D01*
X2337Y269D02*
X3141D01*
X3186D02*
X3833D01*
X2337Y272D02*
X3137D01*
X3190D02*
X3833D01*
X2337Y275D02*
X3133D01*
X3194D02*
X3833D01*
X2337Y278D02*
X3131D01*
X3196D02*
X3833D01*
X2337Y281D02*
X3128D01*
X3198D02*
X3833D01*
X2337Y284D02*
X3127D01*
X3200D02*
X3833D01*
X2337Y287D02*
X3125D01*
X3202D02*
X3833D01*
X2337Y290D02*
X3124D01*
X3203D02*
X3833D01*
X2337Y293D02*
X3123D01*
X3204D02*
X3833D01*
X2337Y296D02*
X3122D01*
X3205D02*
X3833D01*
X2337Y299D02*
X3122D01*
X3205D02*
X3833D01*
X2337Y302D02*
X3121D01*
X3206D02*
X3833D01*
X2337Y305D02*
X3121D01*
X3206D02*
X3833D01*
X2337Y308D02*
X3121D01*
X3206D02*
X3833D01*
X2337Y311D02*
X3122D01*
X3205D02*
X3833D01*
X2337Y314D02*
X3122D01*
X3205D02*
X3833D01*
X2337Y317D02*
X3123D01*
X3204D02*
X3833D01*
X2337Y320D02*
X3124D01*
X3203D02*
X3833D01*
X2337Y323D02*
X3125D01*
X3202D02*
X3833D01*
X2337Y326D02*
X3127D01*
X3200D02*
X3833D01*
X2337Y329D02*
X3129D01*
X3198D02*
X3833D01*
X2337Y332D02*
X3131D01*
X3196D02*
X3833D01*
X2337Y335D02*
X3134D01*
X3193D02*
X3833D01*
X2337Y338D02*
X3137D01*
X3190D02*
X3741D01*
X3826D02*
X3833D01*
X2337Y341D02*
X3141D01*
X3185D02*
X3741D01*
X3826D02*
X3833D01*
X2337Y344D02*
X3147D01*
X3180D02*
X3741D01*
X3826D02*
X3833D01*
X2337Y347D02*
X3160D01*
X3167D02*
X3741D01*
X3826D02*
X3833D01*
X2337Y350D02*
X3741D01*
X3826D02*
X3833D01*
X2337Y353D02*
X3741D01*
X3826D02*
X3833D01*
X2337Y356D02*
X3741D01*
X3826D02*
X3833D01*
X2337Y359D02*
X3741D01*
X3826D02*
X3833D01*
X2337Y362D02*
X3741D01*
X3826D02*
X3833D01*
X2337Y365D02*
X3741D01*
X3826D02*
X3833D01*
X2337Y368D02*
X3741D01*
X3826D02*
X3833D01*
X2337Y371D02*
X3741D01*
X3826D02*
X3833D01*
X2337Y374D02*
X3741D01*
X3826D02*
X3833D01*
X2337Y377D02*
X3741D01*
X3826D02*
X3833D01*
X2337Y380D02*
X3741D01*
X3826D02*
X3833D01*
X2337Y383D02*
X3741D01*
X3826D02*
X3833D01*
X2337Y386D02*
X3741D01*
X3826D02*
X3833D01*
X2337Y389D02*
X3741D01*
X3826D02*
X3833D01*
X2337Y392D02*
X3741D01*
X3826D02*
X3833D01*
X2337Y395D02*
X3741D01*
X3826D02*
X3833D01*
X2337Y398D02*
X3741D01*
X3826D02*
X3833D01*
X2337Y401D02*
X3741D01*
X3826D02*
X3833D01*
X2337Y404D02*
X3741D01*
X3826D02*
X3833D01*
X2337Y407D02*
X3741D01*
X3826D02*
X3833D01*
X2337Y410D02*
X3741D01*
X3826D02*
X3833D01*
X2337Y413D02*
X3741D01*
X3826D02*
X3833D01*
X2337Y416D02*
X3741D01*
X3826D02*
X3833D01*
X2337Y419D02*
X3741D01*
X3826D02*
X3833D01*
X2337Y422D02*
X3833D01*
X2337Y425D02*
X3833D01*
X2337Y428D02*
X3833D01*
X2337Y431D02*
X3833D01*
X2337Y434D02*
X3833D01*
X2337Y437D02*
X3741D01*
X3826D02*
X3833D01*
X2337Y440D02*
X3741D01*
X3826D02*
X3833D01*
X2337Y443D02*
X3741D01*
X3826D02*
X3833D01*
X2337Y446D02*
X3741D01*
X3826D02*
X3833D01*
X2337Y449D02*
X3741D01*
X3826D02*
X3833D01*
X2337Y452D02*
X3741D01*
X3826D02*
X3833D01*
X2337Y455D02*
X3741D01*
X3826D02*
X3833D01*
X2337Y458D02*
X3741D01*
X3826D02*
X3833D01*
X2337Y461D02*
X3741D01*
X3826D02*
X3833D01*
X2337Y464D02*
X3741D01*
X3826D02*
X3833D01*
X2337Y467D02*
X3741D01*
X3826D02*
X3833D01*
X2337Y470D02*
X3741D01*
X3826D02*
X3833D01*
X2337Y473D02*
X3741D01*
X3826D02*
X3833D01*
X2337Y476D02*
X3741D01*
X3826D02*
X3833D01*
X2337Y479D02*
X3741D01*
X3826D02*
X3833D01*
X2337Y482D02*
X3741D01*
X3826D02*
X3833D01*
X2337Y485D02*
X3741D01*
X3826D02*
X3833D01*
X2337Y488D02*
X3741D01*
X3826D02*
X3833D01*
X2337Y491D02*
X3741D01*
X3826D02*
X3833D01*
X2337Y494D02*
X3741D01*
X3826D02*
X3833D01*
X2337Y497D02*
X3741D01*
X3826D02*
X3833D01*
X2337Y500D02*
X3741D01*
X3826D02*
X3833D01*
X2337Y503D02*
X3741D01*
X3826D02*
X3833D01*
X2337Y506D02*
X2588D01*
X2617D02*
X3741D01*
X3826D02*
X3833D01*
X2337Y509D02*
X2581D01*
X2623D02*
X3741D01*
X3826D02*
X3833D01*
X2337Y512D02*
X2577D01*
X2628D02*
X3741D01*
X3826D02*
X3833D01*
X2337Y515D02*
X2573D01*
X2632D02*
X3741D01*
X3826D02*
X3833D01*
X2337Y518D02*
X2570D01*
X2634D02*
X3741D01*
X3826D02*
X3833D01*
X2337Y521D02*
X2568D01*
X2637D02*
X3833D01*
X2337Y524D02*
X2566D01*
X2639D02*
X3833D01*
X2337Y527D02*
X2564D01*
X2640D02*
X3833D01*
X2337Y530D02*
X2563D01*
X2642D02*
X3833D01*
X2337Y533D02*
X2562D01*
X2643D02*
X3833D01*
X2337Y536D02*
X2561D01*
X2644D02*
X3833D01*
X2337Y539D02*
X2561D01*
X2644D02*
X3833D01*
X2337Y542D02*
X2560D01*
X2645D02*
X3833D01*
X2337Y545D02*
X2560D01*
X2645D02*
X3833D01*
X2337Y548D02*
X2560D01*
X2645D02*
X3833D01*
X2337Y551D02*
X2560D01*
X2644D02*
X3833D01*
X2337Y554D02*
X2561D01*
X2644D02*
X3833D01*
X2337Y557D02*
X2562D01*
X2643D02*
X3833D01*
X2337Y560D02*
X2563D01*
X2642D02*
X3833D01*
X2337Y563D02*
X2564D01*
X2641D02*
X3157D01*
X3170D02*
X3833D01*
X2337Y566D02*
X2565D01*
X2640D02*
X3147D01*
X3180D02*
X3833D01*
X2337Y569D02*
X2567D01*
X2638D02*
X3141D01*
X3186D02*
X3833D01*
X2337Y572D02*
X2569D01*
X2636D02*
X3137D01*
X3190D02*
X3833D01*
X2337Y575D02*
X2572D01*
X2633D02*
X3133D01*
X3194D02*
X3833D01*
X2337Y578D02*
X2575D01*
X2630D02*
X3131D01*
X3196D02*
X3833D01*
X2337Y581D02*
X2579D01*
X2626D02*
X3128D01*
X3198D02*
X3833D01*
X2337Y584D02*
X2584D01*
X2621D02*
X3127D01*
X3200D02*
X3833D01*
X2337Y587D02*
X2593D01*
X2612D02*
X3125D01*
X3202D02*
X3833D01*
X2337Y590D02*
X3124D01*
X3203D02*
X3833D01*
X2337Y593D02*
X3123D01*
X3204D02*
X3833D01*
X2337Y596D02*
X3122D01*
X3205D02*
X3833D01*
X2337Y599D02*
X3122D01*
X3205D02*
X3833D01*
X2337Y602D02*
X3121D01*
X3206D02*
X3833D01*
X2337Y605D02*
X3121D01*
X3206D02*
X3833D01*
X2337Y608D02*
X3121D01*
X3206D02*
X3833D01*
X2337Y611D02*
X3122D01*
X3205D02*
X3833D01*
X2337Y614D02*
X3122D01*
X3205D02*
X3833D01*
X2337Y617D02*
X3123D01*
X3204D02*
X3833D01*
X2337Y620D02*
X3124D01*
X3203D02*
X3833D01*
X2337Y623D02*
X3125D01*
X3202D02*
X3833D01*
X2337Y626D02*
X3127D01*
X3200D02*
X3833D01*
X2337Y629D02*
X3129D01*
X3198D02*
X3833D01*
X2337Y632D02*
X3131D01*
X3196D02*
X3833D01*
X2337Y635D02*
X3134D01*
X3193D02*
X3833D01*
X2337Y638D02*
X3137D01*
X3190D02*
X3833D01*
X2337Y641D02*
X3141D01*
X3185D02*
X3833D01*
X2337Y644D02*
X3147D01*
X3180D02*
X3833D01*
X2337Y647D02*
X3160D01*
X3167D02*
X3833D01*
X2337Y650D02*
X3833D01*
X2337Y653D02*
X3833D01*
X2337Y656D02*
X3833D01*
X2337Y659D02*
X3833D01*
X2337Y662D02*
X3833D01*
X2337Y665D02*
X3833D01*
X2337Y668D02*
X3833D01*
X2337Y671D02*
X3833D01*
X2337Y674D02*
X3833D01*
X2337Y677D02*
X3833D01*
X2337Y680D02*
X3833D01*
X2337Y683D02*
X3833D01*
X2337Y686D02*
X3833D01*
X2337Y689D02*
X3833D01*
X2337Y692D02*
X3833D01*
X2337Y695D02*
X3833D01*
X2337Y698D02*
X3833D01*
X2337Y701D02*
X3833D01*
X2337Y704D02*
X3833D01*
X2337Y707D02*
X3833D01*
X2337Y710D02*
X2601D01*
X2604D02*
X3833D01*
X2337Y713D02*
X2587D01*
X2618D02*
X3833D01*
X2337Y716D02*
X2581D01*
X2624D02*
X3833D01*
X2337Y719D02*
X2576D01*
X2629D02*
X3833D01*
X2337Y722D02*
X2573D01*
X2632D02*
X3833D01*
X2337Y725D02*
X2570D01*
X2635D02*
X3833D01*
X2337Y728D02*
X2568D01*
X2637D02*
X3833D01*
X2337Y731D02*
X2566D01*
X2639D02*
X3833D01*
X2337Y734D02*
X2564D01*
X2641D02*
X3833D01*
X2337Y737D02*
X2563D01*
X2642D02*
X3833D01*
X2337Y740D02*
X2562D01*
X2643D02*
X3833D01*
X2337Y743D02*
X2561D01*
X2644D02*
X3833D01*
X2337Y746D02*
X2560D01*
X2644D02*
X3833D01*
X2337Y749D02*
X2560D01*
X2645D02*
X3833D01*
X2337Y752D02*
X2560D01*
X2645D02*
X3833D01*
X2337Y755D02*
X2560D01*
X2645D02*
X3833D01*
X2337Y758D02*
X2560D01*
X2645D02*
X3833D01*
X2337Y761D02*
X2561D01*
X2644D02*
X3833D01*
X2337Y764D02*
X2562D01*
X2643D02*
X3833D01*
X2337Y767D02*
X2562D01*
X2642D02*
X3833D01*
X2337Y770D02*
X2564D01*
X2641D02*
X3833D01*
X2337Y773D02*
X2565D01*
X2640D02*
X3833D01*
X2337Y776D02*
X2567D01*
X2638D02*
X3833D01*
X2337Y779D02*
X2569D01*
X2636D02*
X3833D01*
X2337Y782D02*
X2572D01*
X2633D02*
X3833D01*
X2337Y785D02*
X2575D01*
X2630D02*
X3833D01*
X2337Y788D02*
X2579D01*
X2626D02*
X3833D01*
X2337Y791D02*
X2585D01*
X2620D02*
X3833D01*
X2337Y794D02*
X2593D01*
X2611D02*
X3833D01*
X2337Y797D02*
X3833D01*
X2337Y800D02*
X3833D01*
X2337Y803D02*
X3833D01*
X2337Y806D02*
X3833D01*
X2337Y809D02*
X3833D01*
X2337Y812D02*
X3833D01*
X2337Y815D02*
X3833D01*
X2337Y818D02*
X3833D01*
X2337Y821D02*
X3833D01*
X2337Y824D02*
X3833D01*
X2337Y827D02*
X3833D01*
X2337Y830D02*
X3833D01*
X2337Y833D02*
X3833D01*
X2337Y836D02*
X3833D01*
X2337Y839D02*
X3833D01*
X2337Y842D02*
X3833D01*
X2337Y845D02*
X3833D01*
X2337Y848D02*
X3833D01*
X2337Y851D02*
X3833D01*
X2337Y854D02*
X3833D01*
X2337Y857D02*
X3833D01*
X2337Y860D02*
X3833D01*
X2337Y863D02*
X3142D01*
X3169D02*
X3833D01*
X2337Y866D02*
X3135D01*
X3176D02*
X3833D01*
X2337Y869D02*
X3131D01*
X3180D02*
X3833D01*
X2337Y872D02*
X3127D01*
X3184D02*
X3833D01*
X2337Y875D02*
X3124D01*
X3187D02*
X3833D01*
X2337Y878D02*
X3122D01*
X3190D02*
X3833D01*
X2337Y881D02*
X3120D01*
X3192D02*
X3833D01*
X2337Y884D02*
X3118D01*
X3193D02*
X3833D01*
X2337Y887D02*
X3116D01*
X3195D02*
X3833D01*
X2337Y890D02*
X3115D01*
X3196D02*
X3833D01*
X2337Y893D02*
X3114D01*
X3197D02*
X3833D01*
X2337Y896D02*
X3114D01*
X3197D02*
X3833D01*
X2337Y899D02*
X3113D01*
X3198D02*
X3833D01*
X2337Y902D02*
X3113D01*
X3198D02*
X3833D01*
X2337Y905D02*
X3113D01*
X3198D02*
X3833D01*
X2337Y908D02*
X3114D01*
X3198D02*
X3833D01*
X2337Y911D02*
X3114D01*
X3197D02*
X3833D01*
X2337Y914D02*
X3115D01*
X3197D02*
X3833D01*
X2337Y917D02*
X3116D01*
X3196D02*
X3833D01*
X2337Y920D02*
X3117D01*
X3194D02*
X3833D01*
X2337Y923D02*
X3118D01*
X3193D02*
X3833D01*
X2337Y926D02*
X3120D01*
X3191D02*
X3833D01*
X2337Y929D02*
X3122D01*
X3189D02*
X3833D01*
X2337Y932D02*
X3124D01*
X3187D02*
X3833D01*
X2337Y935D02*
X3128D01*
X3184D02*
X3833D01*
X2337Y938D02*
X3131D01*
X3180D02*
X3833D01*
X2337Y941D02*
X3136D01*
X3175D02*
X3833D01*
X2337Y944D02*
X3144D01*
X3167D02*
X3833D01*
X2337Y947D02*
X3833D01*
X2337Y950D02*
X3833D01*
X2337Y953D02*
X3737D01*
X3822D02*
X3833D01*
X2337Y956D02*
X3737D01*
X3822D02*
X3833D01*
X2337Y959D02*
X3737D01*
X3822D02*
X3833D01*
X2337Y962D02*
X3737D01*
X3822D02*
X3833D01*
X2337Y965D02*
X3737D01*
X3822D02*
X3833D01*
X2337Y968D02*
X3737D01*
X3822D02*
X3833D01*
X2337Y971D02*
X3737D01*
X3822D02*
X3833D01*
X2337Y974D02*
X3737D01*
X3822D02*
X3833D01*
X2337Y977D02*
X3737D01*
X3822D02*
X3833D01*
X2337Y980D02*
X3737D01*
X3822D02*
X3833D01*
X2337Y983D02*
X3737D01*
X3822D02*
X3833D01*
X2337Y986D02*
X3737D01*
X3822D02*
X3833D01*
X2337Y989D02*
X3737D01*
X3822D02*
X3833D01*
X2337Y992D02*
X3737D01*
X3822D02*
X3833D01*
X2337Y995D02*
X3737D01*
X3822D02*
X3833D01*
X2337Y998D02*
X3737D01*
X3822D02*
X3833D01*
X2337Y1001D02*
X3737D01*
X3822D02*
X3833D01*
X2337Y1004D02*
X3737D01*
X3822D02*
X3833D01*
X2337Y1007D02*
X3737D01*
X3822D02*
X3833D01*
X2337Y1010D02*
X3737D01*
X3822D02*
X3833D01*
X2337Y1013D02*
X3737D01*
X3822D02*
X3833D01*
X2337Y1016D02*
X3737D01*
X3822D02*
X3833D01*
X2337Y1019D02*
X3737D01*
X3822D02*
X3833D01*
X2337Y1022D02*
X3737D01*
X3822D02*
X3833D01*
X2337Y1025D02*
X3737D01*
X3822D02*
X3833D01*
X2337Y1028D02*
X3737D01*
X3822D02*
X3833D01*
X2337Y1031D02*
X3737D01*
X3822D02*
X3833D01*
X2337Y1034D02*
X3737D01*
X3822D02*
X3833D01*
X2337Y1037D02*
X3833D01*
X2337Y1040D02*
X3833D01*
X2337Y1043D02*
X2642D01*
X2669D02*
X2942D01*
X2969D02*
X3833D01*
X2337Y1046D02*
X2635D01*
X2676D02*
X2935D01*
X2976D02*
X3833D01*
X2337Y1049D02*
X2630D01*
X2681D02*
X2931D01*
X2981D02*
X3833D01*
X2337Y1052D02*
X2627D01*
X2684D02*
X2927D01*
X2984D02*
X3737D01*
X3822D02*
X3833D01*
X2337Y1055D02*
X2624D01*
X2687D02*
X2924D01*
X2987D02*
X3737D01*
X3822D02*
X3833D01*
X2337Y1058D02*
X2621D01*
X2690D02*
X2922D01*
X2990D02*
X3737D01*
X3822D02*
X3833D01*
X2337Y1061D02*
X2619D01*
X2692D02*
X2919D01*
X2992D02*
X3737D01*
X3822D02*
X3833D01*
X2337Y1064D02*
X2618D01*
X2694D02*
X2918D01*
X2993D02*
X3737D01*
X3822D02*
X3833D01*
X2337Y1067D02*
X2616D01*
X2695D02*
X2916D01*
X2995D02*
X3737D01*
X3822D02*
X3833D01*
X2337Y1070D02*
X2615D01*
X2696D02*
X2915D01*
X2996D02*
X3737D01*
X3822D02*
X3833D01*
X2337Y1073D02*
X2614D01*
X2697D02*
X2914D01*
X2997D02*
X3737D01*
X3822D02*
X3833D01*
X2337Y1076D02*
X2614D01*
X2697D02*
X2914D01*
X2997D02*
X3737D01*
X3822D02*
X3833D01*
X2337Y1079D02*
X2613D01*
X2698D02*
X2913D01*
X2998D02*
X3737D01*
X3822D02*
X3833D01*
X2337Y1082D02*
X2613D01*
X2698D02*
X2913D01*
X2998D02*
X3737D01*
X3822D02*
X3833D01*
X2337Y1085D02*
X2613D01*
X2698D02*
X2913D01*
X2998D02*
X3737D01*
X3822D02*
X3833D01*
X2337Y1088D02*
X2613D01*
X2698D02*
X2914D01*
X2998D02*
X3737D01*
X3822D02*
X3833D01*
X2337Y1091D02*
X2614D01*
X2697D02*
X2914D01*
X2997D02*
X3737D01*
X3822D02*
X3833D01*
X2337Y1094D02*
X2614D01*
X2697D02*
X2915D01*
X2997D02*
X3737D01*
X3822D02*
X3833D01*
X2337Y1097D02*
X2615D01*
X2696D02*
X2916D01*
X2996D02*
X3737D01*
X3822D02*
X3833D01*
X2337Y1100D02*
X2617D01*
X2695D02*
X2917D01*
X2994D02*
X3737D01*
X3822D02*
X3833D01*
X2337Y1103D02*
X2618D01*
X2693D02*
X2918D01*
X2993D02*
X3737D01*
X3822D02*
X3833D01*
X2337Y1106D02*
X2620D01*
X2691D02*
X2920D01*
X2991D02*
X3737D01*
X3822D02*
X3833D01*
X2337Y1109D02*
X2622D01*
X2689D02*
X2922D01*
X2989D02*
X3737D01*
X3822D02*
X3833D01*
X2337Y1112D02*
X2624D01*
X2687D02*
X2925D01*
X2987D02*
X3737D01*
X3822D02*
X3833D01*
X2337Y1115D02*
X2627D01*
X2684D02*
X2928D01*
X2983D02*
X3737D01*
X3822D02*
X3833D01*
X2337Y1118D02*
X2631D01*
X2680D02*
X2932D01*
X2980D02*
X3737D01*
X3822D02*
X3833D01*
X2337Y1121D02*
X2636D01*
X2675D02*
X2937D01*
X2975D02*
X3737D01*
X3822D02*
X3833D01*
X2337Y1124D02*
X2644D01*
X2667D02*
X2944D01*
X2967D02*
X3737D01*
X3822D02*
X3833D01*
X2337Y1127D02*
X3737D01*
X3822D02*
X3833D01*
X2337Y1130D02*
X3737D01*
X3822D02*
X3833D01*
X2337Y1133D02*
X3737D01*
X3822D02*
X3833D01*
X2337Y1136D02*
X3833D01*
X2337Y1139D02*
X3833D01*
X2337Y1142D02*
X3833D01*
X2337Y1145D02*
X3833D01*
X2337Y1148D02*
X3833D01*
X2337Y1151D02*
X3833D01*
X2337Y1154D02*
X3833D01*
X2337Y1157D02*
X3833D01*
X2337Y1160D02*
X3833D01*
X2337Y1163D02*
X3142D01*
X3169D02*
X3833D01*
X2337Y1166D02*
X3135D01*
X3176D02*
X3833D01*
X2337Y1169D02*
X3131D01*
X3180D02*
X3833D01*
X2337Y1172D02*
X3127D01*
X3184D02*
X3833D01*
X2337Y1175D02*
X3124D01*
X3187D02*
X3833D01*
X2337Y1178D02*
X3122D01*
X3190D02*
X3833D01*
X2337Y1181D02*
X3120D01*
X3192D02*
X3833D01*
X2337Y1184D02*
X3118D01*
X3193D02*
X3833D01*
X2337Y1187D02*
X3116D01*
X3195D02*
X3833D01*
X2337Y1190D02*
X3115D01*
X3196D02*
X3833D01*
X2337Y1193D02*
X3114D01*
X3197D02*
X3833D01*
X2337Y1196D02*
X3114D01*
X3197D02*
X3833D01*
X2337Y1199D02*
X3113D01*
X3198D02*
X3833D01*
X2337Y1202D02*
X3113D01*
X3198D02*
X3833D01*
X2337Y1205D02*
X3113D01*
X3198D02*
X3833D01*
X2337Y1208D02*
X3114D01*
X3198D02*
X3833D01*
X2337Y1211D02*
X3114D01*
X3197D02*
X3833D01*
X2337Y1214D02*
X3115D01*
X3197D02*
X3833D01*
X2337Y1217D02*
X3116D01*
X3196D02*
X3833D01*
X2337Y1220D02*
X3117D01*
X3194D02*
X3833D01*
X2337Y1223D02*
X3118D01*
X3193D02*
X3833D01*
X2337Y1226D02*
X3120D01*
X3191D02*
X3833D01*
X2337Y1229D02*
X3122D01*
X3189D02*
X3833D01*
X2337Y1232D02*
X3124D01*
X3187D02*
X3833D01*
X2337Y1235D02*
X3128D01*
X3184D02*
X3833D01*
X2337Y1238D02*
X3131D01*
X3180D02*
X3833D01*
X2337Y1241D02*
X3136D01*
X3175D02*
X3833D01*
X2337Y1244D02*
X3144D01*
X3167D02*
X3833D01*
X2337Y1247D02*
X3833D01*
X2337Y1250D02*
X3833D01*
X2337Y1253D02*
X3833D01*
X2337Y1256D02*
X3833D01*
X2337Y1259D02*
X3833D01*
X2337Y1262D02*
X3833D01*
X2337Y1265D02*
X3833D01*
X2337Y1268D02*
X3833D01*
X2337Y1271D02*
X3833D01*
X2337Y1274D02*
X3833D01*
X2337Y1277D02*
X3833D01*
X2337Y1280D02*
X3833D01*
X2337Y1283D02*
X3833D01*
X2337Y1286D02*
X3833D01*
X2337Y1289D02*
X3833D01*
X2337Y1292D02*
X3833D01*
X2337Y1295D02*
X3833D01*
X2337Y1298D02*
X3833D01*
X2337Y1301D02*
X3833D01*
X2337Y1304D02*
X3833D01*
X2337Y1307D02*
X3833D01*
X2337Y1310D02*
X3833D01*
X2337Y1313D02*
X3833D01*
X2337Y1316D02*
X3833D01*
X2337Y1319D02*
X3833D01*
X2337Y1322D02*
X3833D01*
X2337Y1325D02*
X3833D01*
X2337Y1328D02*
X3833D01*
X2337Y1331D02*
X3833D01*
X2337Y1334D02*
X3833D01*
X2337Y1337D02*
X3833D01*
X2337Y1340D02*
X3833D01*
X2337Y1343D02*
X3833D01*
X2337Y1346D02*
X3833D01*
X2337Y1349D02*
X3833D01*
X2337Y1352D02*
X3833D01*
X2337Y1355D02*
X3833D01*
X2337Y1358D02*
X3833D01*
X2337Y1361D02*
X3833D01*
X2337Y1364D02*
X3833D01*
X2337Y1367D02*
X3833D01*
X2337Y1370D02*
X3833D01*
X2337Y1373D02*
X3833D01*
X2337Y1376D02*
X3833D01*
X2337Y1379D02*
X3833D01*
X2337Y1382D02*
X3833D01*
X2337Y1385D02*
X3833D01*
X2337Y1388D02*
X3833D01*
X2337Y1391D02*
X3833D01*
X2337Y1394D02*
X3833D01*
X2337Y1397D02*
X3833D01*
X2337Y1400D02*
X3833D01*
X2337Y1403D02*
X3833D01*
X2337Y1406D02*
X3833D01*
X2337Y1409D02*
X3833D01*
X2337Y1412D02*
X3833D01*
X2337Y1415D02*
X3833D01*
X2337Y1418D02*
X3833D01*
X2337Y1421D02*
X3833D01*
X2337Y1424D02*
X3833D01*
X2337Y1427D02*
X3833D01*
X2337Y1430D02*
X3833D01*
X2337Y1433D02*
X3833D01*
X2337Y1436D02*
X3833D01*
X2337Y1439D02*
X3833D01*
X2337Y1442D02*
X3833D01*
X2337Y1445D02*
X3143D01*
X3164D02*
X3833D01*
X2337Y1448D02*
X3135D01*
X3172D02*
X3833D01*
X2337Y1451D02*
X3130D01*
X3178D02*
X3833D01*
X2337Y1454D02*
X3126D01*
X3181D02*
X3833D01*
X2337Y1457D02*
X3123D01*
X3185D02*
X3833D01*
X2337Y1460D02*
X3120D01*
X3187D02*
X3833D01*
X2337Y1463D02*
X3118D01*
X3189D02*
X3833D01*
X2337Y1466D02*
X3116D01*
X3191D02*
X3833D01*
X2337Y1469D02*
X3115D01*
X3192D02*
X3833D01*
X2337Y1472D02*
X3114D01*
X3194D02*
X3833D01*
X2337Y1475D02*
X3113D01*
X3195D02*
X3833D01*
X2337Y1478D02*
X3112D01*
X3195D02*
X3833D01*
X2337Y1481D02*
X3112D01*
X3196D02*
X3833D01*
X2337Y1484D02*
X3111D01*
X3196D02*
X3833D01*
X2337Y1487D02*
X3111D01*
X3196D02*
X3833D01*
X2337Y1490D02*
X3111D01*
X3196D02*
X3833D01*
X2337Y1493D02*
X3112D01*
X3195D02*
X3833D01*
X2337Y1496D02*
X3112D01*
X3195D02*
X3833D01*
X2337Y1499D02*
X3113D01*
X3194D02*
X3833D01*
X2337Y1502D02*
X3114D01*
X3193D02*
X3833D01*
X2337Y1505D02*
X3116D01*
X3191D02*
X3833D01*
X2337Y1508D02*
X3117D01*
X3190D02*
X3833D01*
X2337Y1511D02*
X3119D01*
X3188D02*
X3833D01*
X2337Y1514D02*
X3122D01*
X3185D02*
X3833D01*
X2337Y1517D02*
X3125D01*
X3182D02*
X3833D01*
X2337Y1520D02*
X3128D01*
X3179D02*
X3833D01*
X2337Y1523D02*
X3133D01*
X3174D02*
X3833D01*
X2337Y1526D02*
X3140D01*
X3167D02*
X3833D01*
X2337Y1529D02*
X3731D01*
X3816D02*
X3833D01*
X171Y1532D02*
X3731D01*
X3816D02*
X3833D01*
X171Y1535D02*
X3731D01*
X3816D02*
X3833D01*
X171Y1538D02*
X3731D01*
X3816D02*
X3833D01*
X171Y1541D02*
X3731D01*
X3816D02*
X3833D01*
X171Y1544D02*
X3731D01*
X3816D02*
X3833D01*
X171Y1547D02*
X3731D01*
X3816D02*
X3833D01*
X171Y1550D02*
X3731D01*
X3816D02*
X3833D01*
X171Y1553D02*
X3731D01*
X3816D02*
X3833D01*
X171Y1556D02*
X3731D01*
X3816D02*
X3833D01*
X171Y1559D02*
X3731D01*
X3816D02*
X3833D01*
X171Y1562D02*
X3731D01*
X3816D02*
X3833D01*
X171Y1565D02*
X3731D01*
X3816D02*
X3833D01*
X171Y1568D02*
X3731D01*
X3816D02*
X3833D01*
X171Y1571D02*
X3731D01*
X3816D02*
X3833D01*
X171Y1574D02*
X3731D01*
X3816D02*
X3833D01*
X171Y1577D02*
X3731D01*
X3816D02*
X3833D01*
X171Y1580D02*
X3731D01*
X3816D02*
X3833D01*
X171Y1583D02*
X3731D01*
X3816D02*
X3833D01*
X171Y1586D02*
X3731D01*
X3816D02*
X3833D01*
X171Y1589D02*
X3731D01*
X3816D02*
X3833D01*
X171Y1592D02*
X3731D01*
X3816D02*
X3833D01*
X171Y1595D02*
X3731D01*
X3816D02*
X3833D01*
X171Y1598D02*
X3731D01*
X3816D02*
X3833D01*
X171Y1601D02*
X3731D01*
X3816D02*
X3833D01*
X171Y1604D02*
X3731D01*
X3816D02*
X3833D01*
X171Y1607D02*
X3731D01*
X3816D02*
X3833D01*
X171Y1610D02*
X3731D01*
X3816D02*
X3833D01*
X171Y1613D02*
X3833D01*
X171Y1616D02*
X3833D01*
X171Y1619D02*
X3833D01*
X171Y1622D02*
X3833D01*
X171Y1625D02*
X3833D01*
X171Y1628D02*
X3731D01*
X3816D02*
X3833D01*
X171Y1631D02*
X3731D01*
X3816D02*
X3833D01*
X171Y1634D02*
X3731D01*
X3816D02*
X3833D01*
X171Y1637D02*
X3731D01*
X3816D02*
X3833D01*
X171Y1640D02*
X3731D01*
X3816D02*
X3833D01*
X171Y1643D02*
X3731D01*
X3816D02*
X3833D01*
X171Y1646D02*
X3731D01*
X3816D02*
X3833D01*
X171Y1649D02*
X3731D01*
X3816D02*
X3833D01*
X171Y1652D02*
X3731D01*
X3816D02*
X3833D01*
X171Y1655D02*
X3731D01*
X3816D02*
X3833D01*
X171Y1658D02*
X3731D01*
X3816D02*
X3833D01*
X171Y1661D02*
X3731D01*
X3816D02*
X3833D01*
X171Y1664D02*
X3731D01*
X3816D02*
X3833D01*
X171Y1667D02*
X3731D01*
X3816D02*
X3833D01*
X171Y1670D02*
X3731D01*
X3816D02*
X3833D01*
X171Y1673D02*
X3731D01*
X3816D02*
X3833D01*
X171Y1676D02*
X3731D01*
X3816D02*
X3833D01*
X171Y1679D02*
X3731D01*
X3816D02*
X3833D01*
X171Y1682D02*
X3731D01*
X3816D02*
X3833D01*
X171Y1685D02*
X3731D01*
X3816D02*
X3833D01*
X171Y1688D02*
X3731D01*
X3816D02*
X3833D01*
X171Y1691D02*
X3731D01*
X3816D02*
X3833D01*
X171Y1694D02*
X3731D01*
X3816D02*
X3833D01*
X171Y1697D02*
X3731D01*
X3816D02*
X3833D01*
X171Y1700D02*
X3731D01*
X3816D02*
X3833D01*
X171Y1703D02*
X3731D01*
X3816D02*
X3833D01*
X171Y1706D02*
X3731D01*
X3816D02*
X3833D01*
X171Y1709D02*
X3731D01*
X3816D02*
X3833D01*
X171Y1712D02*
X3833D01*
X171Y1715D02*
X1206D01*
X1224D02*
X1609D01*
X1627D02*
X3833D01*
X171Y1718D02*
X1197D01*
X1232D02*
X1600D01*
X1636D02*
X3833D01*
X171Y1721D02*
X1191D01*
X1238D02*
X1595D01*
X1641D02*
X3833D01*
X171Y1724D02*
X1187D01*
X1242D02*
X1591D01*
X1645D02*
X3833D01*
X171Y1727D02*
X1184D01*
X1245D02*
X1588D01*
X1649D02*
X3833D01*
X171Y1730D02*
X1182D01*
X1248D02*
X1585D01*
X1651D02*
X3833D01*
X171Y1733D02*
X1179D01*
X1250D02*
X1583D01*
X1653D02*
X3833D01*
X171Y1736D02*
X1178D01*
X1252D02*
X1581D01*
X1655D02*
X3833D01*
X171Y1739D02*
X1176D01*
X1253D02*
X1580D01*
X1657D02*
X3833D01*
X171Y1742D02*
X1175D01*
X1254D02*
X1578D01*
X1658D02*
X3833D01*
X171Y1745D02*
X1174D01*
X1255D02*
X1577D01*
X1659D02*
X3143D01*
X3164D02*
X3833D01*
X171Y1748D02*
X1173D01*
X1256D02*
X1577D01*
X1660D02*
X3135D01*
X3172D02*
X3833D01*
X171Y1751D02*
X1173D01*
X1257D02*
X1576D01*
X1660D02*
X3130D01*
X3178D02*
X3833D01*
X171Y1754D02*
X1172D01*
X1257D02*
X1576D01*
X1660D02*
X3126D01*
X3181D02*
X3833D01*
X171Y1757D02*
X1172D01*
X1257D02*
X1576D01*
X1661D02*
X3123D01*
X3185D02*
X3833D01*
X171Y1760D02*
X1172D01*
X1257D02*
X1576D01*
X1660D02*
X3120D01*
X3187D02*
X3833D01*
X171Y1763D02*
X1173D01*
X1256D02*
X1576D01*
X1660D02*
X3118D01*
X3189D02*
X3833D01*
X171Y1766D02*
X1173D01*
X1256D02*
X1577D01*
X1659D02*
X3116D01*
X3191D02*
X3833D01*
X171Y1769D02*
X1174D01*
X1255D02*
X1578D01*
X1659D02*
X3115D01*
X3192D02*
X3833D01*
X171Y1772D02*
X1175D01*
X1254D02*
X1579D01*
X1658D02*
X3114D01*
X3194D02*
X3833D01*
X171Y1775D02*
X1177D01*
X1253D02*
X1580D01*
X1656D02*
X3113D01*
X3195D02*
X3833D01*
X171Y1778D02*
X1178D01*
X1251D02*
X1582D01*
X1655D02*
X3112D01*
X3195D02*
X3833D01*
X171Y1781D02*
X1180D01*
X1249D02*
X1584D01*
X1653D02*
X3112D01*
X3196D02*
X3833D01*
X171Y1784D02*
X1183D01*
X1247D02*
X1586D01*
X1650D02*
X3111D01*
X3196D02*
X3833D01*
X171Y1787D02*
X1185D01*
X1244D02*
X1589D01*
X1647D02*
X3111D01*
X3196D02*
X3833D01*
X171Y1790D02*
X1189D01*
X1240D02*
X1592D01*
X1644D02*
X3111D01*
X3196D02*
X3833D01*
X171Y1793D02*
X1193D01*
X1236D02*
X1597D01*
X1639D02*
X3112D01*
X3195D02*
X3833D01*
X171Y1796D02*
X1200D01*
X1230D02*
X1603D01*
X1633D02*
X3112D01*
X3195D02*
X3833D01*
X171Y1799D02*
X3113D01*
X3194D02*
X3833D01*
X171Y1802D02*
X3114D01*
X3193D02*
X3833D01*
X171Y1805D02*
X3116D01*
X3191D02*
X3833D01*
X171Y1808D02*
X3117D01*
X3190D02*
X3833D01*
X171Y1811D02*
X3119D01*
X3188D02*
X3833D01*
X171Y1814D02*
X3122D01*
X3185D02*
X3833D01*
X171Y1817D02*
X3125D01*
X3182D02*
X3833D01*
X171Y1820D02*
X429D01*
X453D02*
X729D01*
X753D02*
X3128D01*
X3179D02*
X3833D01*
X171Y1823D02*
X421D01*
X461D02*
X722D01*
X760D02*
X3133D01*
X3174D02*
X3833D01*
X171Y1826D02*
X417D01*
X466D02*
X717D01*
X765D02*
X3140D01*
X3167D02*
X3833D01*
X171Y1829D02*
X413D01*
X469D02*
X713D01*
X769D02*
X3833D01*
X171Y1832D02*
X410D01*
X472D02*
X710D01*
X772D02*
X3833D01*
X171Y1835D02*
X407D01*
X475D02*
X707D01*
X775D02*
X3833D01*
X171Y1838D02*
X405D01*
X477D02*
X705D01*
X777D02*
X3833D01*
X171Y1841D02*
X403D01*
X479D02*
X704D01*
X778D02*
X3833D01*
X171Y1844D02*
X402D01*
X480D02*
X702D01*
X780D02*
X3833D01*
X171Y1847D02*
X401D01*
X481D02*
X701D01*
X781D02*
X3833D01*
X171Y1850D02*
X400D01*
X482D02*
X700D01*
X782D02*
X3833D01*
X171Y1853D02*
X399D01*
X483D02*
X699D01*
X783D02*
X3833D01*
X171Y1856D02*
X399D01*
X483D02*
X699D01*
X783D02*
X3833D01*
X171Y1859D02*
X399D01*
X483D02*
X699D01*
X783D02*
X3833D01*
X171Y1862D02*
X399D01*
X483D02*
X699D01*
X783D02*
X2636D01*
X2648D02*
X2937D01*
X2947D02*
X3833D01*
X171Y1865D02*
X399D01*
X483D02*
X699D01*
X783D02*
X2625D01*
X2659D02*
X2925D01*
X2958D02*
X3833D01*
X171Y1868D02*
X399D01*
X483D02*
X699D01*
X783D02*
X2619D01*
X2664D02*
X2920D01*
X2964D02*
X3833D01*
X171Y1871D02*
X400D01*
X482D02*
X700D01*
X782D02*
X2615D01*
X2669D02*
X2915D01*
X2968D02*
X3833D01*
X171Y1874D02*
X401D01*
X481D02*
X701D01*
X781D02*
X2612D01*
X2672D02*
X2912D01*
X2972D02*
X3833D01*
X171Y1877D02*
X402D01*
X480D02*
X702D01*
X780D02*
X2609D01*
X2675D02*
X2909D01*
X2974D02*
X3833D01*
X171Y1880D02*
X403D01*
X479D02*
X703D01*
X779D02*
X2607D01*
X2677D02*
X2907D01*
X2977D02*
X3833D01*
X171Y1883D02*
X405D01*
X477D02*
X705D01*
X777D02*
X2605D01*
X2679D02*
X2905D01*
X2979D02*
X3833D01*
X171Y1886D02*
X407D01*
X475D02*
X707D01*
X775D02*
X2603D01*
X2680D02*
X2903D01*
X2980D02*
X3833D01*
X171Y1889D02*
X409D01*
X473D02*
X709D01*
X773D02*
X2602D01*
X2682D02*
X2902D01*
X2981D02*
X3833D01*
X171Y1892D02*
X412D01*
X470D02*
X712D01*
X770D02*
X2601D01*
X2683D02*
X2901D01*
X2982D02*
X3833D01*
X171Y1895D02*
X416D01*
X466D02*
X716D01*
X766D02*
X2600D01*
X2683D02*
X2900D01*
X2983D02*
X3833D01*
X171Y1898D02*
X421D01*
X461D02*
X721D01*
X761D02*
X2600D01*
X2684D02*
X2900D01*
X2984D02*
X3833D01*
X171Y1901D02*
X427D01*
X455D02*
X728D01*
X754D02*
X2599D01*
X2684D02*
X2900D01*
X2984D02*
X3833D01*
X171Y1904D02*
X2599D01*
X2684D02*
X2899D01*
X2984D02*
X3833D01*
X171Y1907D02*
X2599D01*
X2684D02*
X2900D01*
X2984D02*
X3833D01*
X171Y1910D02*
X2600D01*
X2684D02*
X2900D01*
X2984D02*
X3833D01*
X171Y1913D02*
X2600D01*
X2683D02*
X2900D01*
X2983D02*
X3833D01*
X171Y1916D02*
X2601D01*
X2683D02*
X2901D01*
X2982D02*
X3833D01*
X171Y1919D02*
X2602D01*
X2682D02*
X2902D01*
X2981D02*
X3833D01*
X171Y1922D02*
X2603D01*
X2680D02*
X2903D01*
X2980D02*
X3833D01*
X171Y1925D02*
X2605D01*
X2679D02*
X2905D01*
X2979D02*
X3833D01*
X171Y1928D02*
X2607D01*
X2677D02*
X2907D01*
X2977D02*
X3833D01*
X171Y1931D02*
X2609D01*
X2675D02*
X2909D01*
X2974D02*
X3833D01*
X171Y1934D02*
X2612D01*
X2672D02*
X2912D01*
X2972D02*
X3833D01*
X171Y1937D02*
X2615D01*
X2669D02*
X2915D01*
X2968D02*
X3833D01*
X171Y1940D02*
X2619D01*
X2664D02*
X2919D01*
X2964D02*
X3833D01*
X171Y1943D02*
X2625D01*
X2659D02*
X2925D01*
X2958D02*
X3833D01*
X171Y1946D02*
X2635D01*
X2648D02*
X2936D01*
X2947D02*
X3833D01*
X171Y1949D02*
X3833D01*
X171Y1952D02*
X3833D01*
X171Y1955D02*
X3833D01*
X171Y1958D02*
X3833D01*
X171Y1961D02*
X3833D01*
X171Y1964D02*
X3833D01*
X171Y1967D02*
X3833D01*
X171Y1970D02*
X3833D01*
X171Y1973D02*
X3833D01*
X171Y1976D02*
X3833D01*
X171Y1979D02*
X3833D01*
X171Y1982D02*
X3833D01*
X171Y1985D02*
X3833D01*
X171Y1988D02*
X3833D01*
X171Y1991D02*
X3833D01*
X171Y1994D02*
X3833D01*
X171Y1997D02*
X3833D01*
X171Y2000D02*
X3833D01*
X171Y2003D02*
X3833D01*
X171Y2006D02*
X3833D01*
X171Y2009D02*
X3833D01*
X171Y2012D02*
X3833D01*
X171Y2015D02*
X1206D01*
X1224D02*
X1609D01*
X1627D02*
X3833D01*
X171Y2018D02*
X1197D01*
X1232D02*
X1600D01*
X1636D02*
X3833D01*
X171Y2021D02*
X1191D01*
X1238D02*
X1595D01*
X1641D02*
X3833D01*
X171Y2024D02*
X1187D01*
X1242D02*
X1591D01*
X1645D02*
X3833D01*
X171Y2027D02*
X1184D01*
X1245D02*
X1588D01*
X1649D02*
X3833D01*
X171Y2030D02*
X1182D01*
X1248D02*
X1585D01*
X1651D02*
X3833D01*
X171Y2033D02*
X1179D01*
X1250D02*
X1583D01*
X1653D02*
X3833D01*
X171Y2036D02*
X1178D01*
X1252D02*
X1581D01*
X1655D02*
X3151D01*
X3176D02*
X3833D01*
X171Y2039D02*
X1176D01*
X1253D02*
X1580D01*
X1657D02*
X3144D01*
X3183D02*
X3833D01*
X171Y2042D02*
X1175D01*
X1254D02*
X1578D01*
X1658D02*
X3139D01*
X3188D02*
X3833D01*
X171Y2045D02*
X1174D01*
X1255D02*
X1577D01*
X1659D02*
X3135D01*
X3192D02*
X3833D01*
X171Y2048D02*
X1173D01*
X1256D02*
X1577D01*
X1660D02*
X3132D01*
X3195D02*
X3833D01*
X171Y2051D02*
X1173D01*
X1257D02*
X1576D01*
X1660D02*
X3130D01*
X3197D02*
X3833D01*
X171Y2054D02*
X1172D01*
X1257D02*
X1576D01*
X1660D02*
X3128D01*
X3199D02*
X3833D01*
X171Y2057D02*
X1172D01*
X1257D02*
X1576D01*
X1661D02*
X3126D01*
X3201D02*
X3833D01*
X171Y2060D02*
X1172D01*
X1257D02*
X1576D01*
X1660D02*
X3124D01*
X3202D02*
X3833D01*
X171Y2063D02*
X1173D01*
X1256D02*
X1576D01*
X1660D02*
X3123D01*
X3204D02*
X3833D01*
X171Y2066D02*
X1173D01*
X1256D02*
X1577D01*
X1659D02*
X3122D01*
X3204D02*
X3833D01*
X171Y2069D02*
X1174D01*
X1255D02*
X1578D01*
X1659D02*
X3122D01*
X3205D02*
X3833D01*
X171Y2072D02*
X1175D01*
X1254D02*
X1579D01*
X1658D02*
X3121D01*
X3206D02*
X3833D01*
X171Y2075D02*
X1177D01*
X1253D02*
X1580D01*
X1656D02*
X1961D01*
X1984D02*
X3121D01*
X3206D02*
X3833D01*
X171Y2078D02*
X1178D01*
X1251D02*
X1582D01*
X1655D02*
X1956D01*
X1989D02*
X3121D01*
X3206D02*
X3833D01*
X171Y2081D02*
X1180D01*
X1249D02*
X1584D01*
X1653D02*
X1952D01*
X1993D02*
X3121D01*
X3206D02*
X3833D01*
X171Y2084D02*
X1183D01*
X1247D02*
X1586D01*
X1650D02*
X1950D01*
X1995D02*
X3122D01*
X3205D02*
X3833D01*
X171Y2087D02*
X1185D01*
X1244D02*
X1589D01*
X1647D02*
X1948D01*
X1997D02*
X3122D01*
X3204D02*
X3833D01*
X171Y2090D02*
X1189D01*
X1240D02*
X1592D01*
X1644D02*
X1946D01*
X1999D02*
X3123D01*
X3204D02*
X3833D01*
X171Y2093D02*
X1193D01*
X1236D02*
X1597D01*
X1639D02*
X1945D01*
X2000D02*
X3124D01*
X3202D02*
X3833D01*
X171Y2096D02*
X1200D01*
X1230D02*
X1603D01*
X1633D02*
X1945D01*
X2000D02*
X3126D01*
X3201D02*
X3833D01*
X171Y2099D02*
X1944D01*
X2001D02*
X3128D01*
X3199D02*
X3833D01*
X171Y2102D02*
X1944D01*
X2001D02*
X3130D01*
X3197D02*
X3833D01*
X171Y2105D02*
X1944D01*
X2001D02*
X3132D01*
X3195D02*
X3833D01*
X171Y2108D02*
X1945D01*
X2000D02*
X3135D01*
X3192D02*
X3833D01*
X171Y2111D02*
X1946D01*
X1999D02*
X3139D01*
X3188D02*
X3833D01*
X171Y2114D02*
X1947D01*
X1998D02*
X3144D01*
X3183D02*
X3833D01*
X171Y2117D02*
X1949D01*
X1996D02*
X3151D01*
X3176D02*
X3833D01*
X171Y2120D02*
X1952D01*
X1993D02*
X3731D01*
X3816D02*
X3833D01*
X171Y2123D02*
X1955D01*
X1990D02*
X3731D01*
X3816D02*
X3833D01*
X171Y2126D02*
X1959D01*
X1986D02*
X3731D01*
X3816D02*
X3833D01*
X171Y2129D02*
X1969D01*
X1976D02*
X3731D01*
X3816D02*
X3833D01*
X171Y2132D02*
X3731D01*
X3816D02*
X3833D01*
X171Y2135D02*
X3731D01*
X3816D02*
X3833D01*
X171Y2138D02*
X3731D01*
X3816D02*
X3833D01*
X171Y2141D02*
X3731D01*
X3816D02*
X3833D01*
X171Y2144D02*
X3731D01*
X3816D02*
X3833D01*
X171Y2147D02*
X3731D01*
X3816D02*
X3833D01*
X171Y2150D02*
X3731D01*
X3816D02*
X3833D01*
X171Y2153D02*
X3731D01*
X3816D02*
X3833D01*
X171Y2156D02*
X3731D01*
X3816D02*
X3833D01*
X171Y2159D02*
X1205D01*
X1231D02*
X1605D01*
X1631D02*
X3731D01*
X3816D02*
X3833D01*
X171Y2162D02*
X1198D01*
X1238D02*
X1598D01*
X1638D02*
X3731D01*
X3816D02*
X3833D01*
X171Y2165D02*
X1193D01*
X1243D02*
X1593D01*
X1643D02*
X3731D01*
X3816D02*
X3833D01*
X171Y2168D02*
X1190D01*
X1247D02*
X1590D01*
X1647D02*
X3731D01*
X3816D02*
X3833D01*
X171Y2171D02*
X1187D01*
X1250D02*
X1587D01*
X1650D02*
X3731D01*
X3816D02*
X3833D01*
X171Y2174D02*
X1184D01*
X1252D02*
X1584D01*
X1652D02*
X3731D01*
X3816D02*
X3833D01*
X171Y2177D02*
X1182D01*
X1254D02*
X1582D01*
X1654D02*
X3731D01*
X3816D02*
X3833D01*
X171Y2180D02*
X1180D01*
X1256D02*
X1580D01*
X1656D02*
X3731D01*
X3816D02*
X3833D01*
X171Y2183D02*
X1179D01*
X1257D02*
X1579D01*
X1657D02*
X1853D01*
X1875D02*
X3731D01*
X3816D02*
X3833D01*
X171Y2186D02*
X1178D01*
X1258D02*
X1578D01*
X1658D02*
X1848D01*
X1881D02*
X3731D01*
X3816D02*
X3833D01*
X171Y2189D02*
X1177D01*
X1259D02*
X1577D01*
X1659D02*
X1844D01*
X1884D02*
X3731D01*
X3816D02*
X3833D01*
X171Y2192D02*
X1176D01*
X1260D02*
X1576D01*
X1660D02*
X1842D01*
X1887D02*
X3731D01*
X3816D02*
X3833D01*
X171Y2195D02*
X1176D01*
X1260D02*
X1576D01*
X1660D02*
X1840D01*
X1889D02*
X2040D01*
X2070D02*
X2341D01*
X2370D02*
X3731D01*
X3816D02*
X3833D01*
X171Y2198D02*
X1176D01*
X1260D02*
X1576D01*
X1660D02*
X1838D01*
X1890D02*
X2034D01*
X2077D02*
X2334D01*
X2376D02*
X3731D01*
X3816D02*
X3833D01*
X171Y2201D02*
X1176D01*
X1260D02*
X1576D01*
X1660D02*
X1837D01*
X1891D02*
X2029D01*
X2081D02*
X2330D01*
X2381D02*
X3731D01*
X3816D02*
X3833D01*
X171Y2204D02*
X1176D01*
X1260D02*
X1576D01*
X1660D02*
X1836D01*
X1892D02*
X2026D01*
X2085D02*
X2326D01*
X2384D02*
X3833D01*
X171Y2207D02*
X1177D01*
X1260D02*
X1577D01*
X1660D02*
X1836D01*
X1892D02*
X2023D01*
X2087D02*
X2323D01*
X2387D02*
X3833D01*
X171Y2210D02*
X1177D01*
X1259D02*
X1577D01*
X1659D02*
X1836D01*
X1893D02*
X2021D01*
X2090D02*
X2321D01*
X2390D02*
X3833D01*
X171Y2213D02*
X1178D01*
X1258D02*
X1578D01*
X1658D02*
X1836D01*
X1892D02*
X2019D01*
X2092D02*
X2319D01*
X2392D02*
X3833D01*
X171Y2216D02*
X1179D01*
X1257D02*
X1579D01*
X1657D02*
X1837D01*
X1892D02*
X2017D01*
X2093D02*
X2317D01*
X2393D02*
X3833D01*
X171Y2219D02*
X1181D01*
X1256D02*
X1581D01*
X1656D02*
X1838D01*
X1891D02*
X2016D01*
X2095D02*
X2316D01*
X2394D02*
X3731D01*
X3816D02*
X3833D01*
X171Y2222D02*
X1182D01*
X1254D02*
X1582D01*
X1654D02*
X1839D01*
X1890D02*
X2015D01*
X2096D02*
X2315D01*
X2396D02*
X3731D01*
X3816D02*
X3833D01*
X171Y2225D02*
X1185D01*
X1252D02*
X1585D01*
X1652D02*
X1841D01*
X1888D02*
X2014D01*
X2097D02*
X2314D01*
X2396D02*
X3731D01*
X3816D02*
X3833D01*
X171Y2228D02*
X1187D01*
X1249D02*
X1587D01*
X1649D02*
X1843D01*
X1885D02*
X2013D01*
X2097D02*
X2313D01*
X2397D02*
X3731D01*
X3816D02*
X3833D01*
X171Y2231D02*
X1190D01*
X1246D02*
X1590D01*
X1646D02*
X1846D01*
X1882D02*
X2013D01*
X2098D02*
X2313D01*
X2397D02*
X3731D01*
X3816D02*
X3833D01*
X171Y2234D02*
X1194D01*
X1242D02*
X1594D01*
X1642D02*
X1851D01*
X1878D02*
X2013D01*
X2098D02*
X2313D01*
X2398D02*
X3731D01*
X3816D02*
X3833D01*
X171Y2237D02*
X1199D01*
X1237D02*
X1599D01*
X1637D02*
X1859D01*
X1869D02*
X2013D01*
X2098D02*
X2313D01*
X2397D02*
X3731D01*
X3816D02*
X3833D01*
X171Y2240D02*
X1206D01*
X1230D02*
X1606D01*
X1630D02*
X2013D01*
X2097D02*
X2313D01*
X2397D02*
X3731D01*
X3816D02*
X3833D01*
X171Y2243D02*
X2013D01*
X2097D02*
X2314D01*
X2397D02*
X3731D01*
X3816D02*
X3833D01*
X171Y2246D02*
X2014D01*
X2096D02*
X2314D01*
X2396D02*
X3731D01*
X3816D02*
X3833D01*
X171Y2249D02*
X2015D01*
X2095D02*
X2315D01*
X2395D02*
X3731D01*
X3816D02*
X3833D01*
X171Y2252D02*
X2016D01*
X2094D02*
X2317D01*
X2394D02*
X3731D01*
X3816D02*
X3833D01*
X171Y2255D02*
X2018D01*
X2093D02*
X2318D01*
X2392D02*
X3731D01*
X3816D02*
X3833D01*
X171Y2258D02*
X2020D01*
X2091D02*
X2320D01*
X2391D02*
X3731D01*
X3816D02*
X3833D01*
X171Y2261D02*
X2022D01*
X2089D02*
X2322D01*
X2388D02*
X3731D01*
X3816D02*
X3833D01*
X171Y2264D02*
X2024D01*
X2086D02*
X2325D01*
X2386D02*
X3731D01*
X3816D02*
X3833D01*
X171Y2267D02*
X2028D01*
X2083D02*
X2328D01*
X2383D02*
X3731D01*
X3816D02*
X3833D01*
X171Y2270D02*
X2031D01*
X2079D02*
X2332D01*
X2379D02*
X3731D01*
X3816D02*
X3833D01*
X171Y2273D02*
X2037D01*
X2074D02*
X2337D01*
X2373D02*
X3731D01*
X3816D02*
X3833D01*
X171Y2276D02*
X2045D01*
X2065D02*
X2346D01*
X2365D02*
X3731D01*
X3816D02*
X3833D01*
X171Y2279D02*
X3731D01*
X3816D02*
X3833D01*
X171Y2282D02*
X3731D01*
X3816D02*
X3833D01*
X171Y2285D02*
X3731D01*
X3816D02*
X3833D01*
X171Y2288D02*
X1816D01*
X1834D02*
X2032D01*
X2051D02*
X3731D01*
X3816D02*
X3833D01*
X171Y2291D02*
X1807D01*
X1843D02*
X2024D01*
X2059D02*
X3731D01*
X3816D02*
X3833D01*
X171Y2294D02*
X1802D01*
X1848D02*
X2019D01*
X2064D02*
X3731D01*
X3816D02*
X3833D01*
X171Y2297D02*
X1798D01*
X1852D02*
X2015D01*
X2068D02*
X3731D01*
X3816D02*
X3833D01*
X171Y2300D02*
X1795D01*
X1855D02*
X2012D01*
X2071D02*
X3731D01*
X3816D02*
X3833D01*
X171Y2303D02*
X1793D01*
X1857D02*
X2009D01*
X2074D02*
X3833D01*
X171Y2306D02*
X1791D01*
X1859D02*
X2007D01*
X2076D02*
X3833D01*
X171Y2309D02*
X1789D01*
X1861D02*
X2005D01*
X2077D02*
X3833D01*
X171Y2312D02*
X1788D01*
X1862D02*
X2004D01*
X2079D02*
X3833D01*
X171Y2315D02*
X1786D01*
X1863D02*
X2003D01*
X2080D02*
X3833D01*
X171Y2318D02*
X1786D01*
X1864D02*
X2002D01*
X2081D02*
X3833D01*
X171Y2321D02*
X1785D01*
X1865D02*
X2002D01*
X2081D02*
X3833D01*
X171Y2324D02*
X1785D01*
X1865D02*
X2001D01*
X2082D02*
X3833D01*
X171Y2327D02*
X1785D01*
X1865D02*
X2001D01*
X2082D02*
X3833D01*
X171Y2330D02*
X1785D01*
X1865D02*
X2001D01*
X2082D02*
X2288D01*
X2307D02*
X3833D01*
X171Y2333D02*
X1785D01*
X1865D02*
X2001D01*
X2081D02*
X2282D01*
X2313D02*
X3833D01*
X171Y2336D02*
X1785D01*
X1864D02*
X2002D01*
X2081D02*
X2278D01*
X2317D02*
X3151D01*
X3176D02*
X3833D01*
X171Y2339D02*
X1786D01*
X1863D02*
X2003D01*
X2080D02*
X2275D01*
X2320D02*
X3144D01*
X3183D02*
X3833D01*
X171Y2342D02*
X1787D01*
X1862D02*
X2004D01*
X2079D02*
X2273D01*
X2322D02*
X3139D01*
X3188D02*
X3833D01*
X171Y2345D02*
X1789D01*
X1861D02*
X2005D01*
X2078D02*
X2271D01*
X2323D02*
X3135D01*
X3192D02*
X3833D01*
X171Y2348D02*
X1790D01*
X1859D02*
X2007D01*
X2076D02*
X2270D01*
X2324D02*
X3132D01*
X3195D02*
X3833D01*
X171Y2351D02*
X1792D01*
X1857D02*
X2009D01*
X2074D02*
X2269D01*
X2325D02*
X3130D01*
X3197D02*
X3833D01*
X171Y2354D02*
X1795D01*
X1855D02*
X2011D01*
X2072D02*
X2269D01*
X2326D02*
X3128D01*
X3199D02*
X3833D01*
X171Y2357D02*
X1798D01*
X1852D02*
X2014D01*
X2069D02*
X2269D01*
X2326D02*
X3126D01*
X3201D02*
X3833D01*
X171Y2360D02*
X1801D01*
X1848D02*
X2018D01*
X2065D02*
X2269D01*
X2326D02*
X3124D01*
X3202D02*
X3833D01*
X171Y2363D02*
X1806D01*
X1844D02*
X2023D01*
X2060D02*
X2269D01*
X2325D02*
X3123D01*
X3204D02*
X3833D01*
X171Y2366D02*
X1404D01*
X1432D02*
X1604D01*
X1632D02*
X1814D01*
X1836D02*
X2030D01*
X2053D02*
X2270D01*
X2324D02*
X3122D01*
X3204D02*
X3833D01*
X171Y2369D02*
X1398D01*
X1439D02*
X1598D01*
X1639D02*
X2272D01*
X2323D02*
X3122D01*
X3205D02*
X3833D01*
X171Y2372D02*
X1393D01*
X1443D02*
X1593D01*
X1643D02*
X2273D01*
X2321D02*
X3121D01*
X3206D02*
X3833D01*
X171Y2375D02*
X1389D01*
X1447D02*
X1589D01*
X1647D02*
X2275D01*
X2319D02*
X3121D01*
X3206D02*
X3833D01*
X171Y2378D02*
X1386D01*
X1450D02*
X1586D01*
X1650D02*
X2278D01*
X2316D02*
X3121D01*
X3206D02*
X3833D01*
X171Y2381D02*
X1384D01*
X1452D02*
X1584D01*
X1652D02*
X2282D01*
X2312D02*
X3121D01*
X3206D02*
X3833D01*
X171Y2384D02*
X1382D01*
X1454D02*
X1582D01*
X1654D02*
X2289D01*
X2306D02*
X3122D01*
X3205D02*
X3833D01*
X171Y2387D02*
X1380D01*
X1456D02*
X1580D01*
X1656D02*
X3122D01*
X3204D02*
X3833D01*
X171Y2390D02*
X1379D01*
X1457D02*
X1579D01*
X1657D02*
X3123D01*
X3204D02*
X3833D01*
X171Y2393D02*
X1378D01*
X1458D02*
X1578D01*
X1658D02*
X3124D01*
X3202D02*
X3833D01*
X171Y2396D02*
X1377D01*
X1459D02*
X1577D01*
X1659D02*
X2557D01*
X2589D02*
X3126D01*
X3201D02*
X3833D01*
X171Y2399D02*
X1376D01*
X1460D02*
X1576D01*
X1660D02*
X2551D01*
X2595D02*
X3128D01*
X3199D02*
X3833D01*
X171Y2402D02*
X1376D01*
X1460D02*
X1576D01*
X1660D02*
X2547D01*
X2599D02*
X3130D01*
X3197D02*
X3833D01*
X171Y2405D02*
X562D01*
X588D02*
X1376D01*
X1461D02*
X1576D01*
X1661D02*
X2543D01*
X2602D02*
X3132D01*
X3195D02*
X3833D01*
X171Y2408D02*
X555D01*
X595D02*
X1376D01*
X1460D02*
X1576D01*
X1660D02*
X2541D01*
X2605D02*
X3135D01*
X3192D02*
X3833D01*
X171Y2411D02*
X353D01*
X383D02*
X550D01*
X600D02*
X1376D01*
X1460D02*
X1576D01*
X1660D02*
X2538D01*
X2608D02*
X3139D01*
X3188D02*
X3833D01*
X171Y2414D02*
X347D01*
X390D02*
X546D01*
X603D02*
X1377D01*
X1460D02*
X1577D01*
X1660D02*
X2536D01*
X2610D02*
X3144D01*
X3183D02*
X3833D01*
X171Y2417D02*
X342D01*
X394D02*
X543D01*
X606D02*
X1377D01*
X1459D02*
X1577D01*
X1659D02*
X2535D01*
X2611D02*
X3151D01*
X3176D02*
X3833D01*
X171Y2420D02*
X339D01*
X398D02*
X541D01*
X609D02*
X1378D01*
X1458D02*
X1578D01*
X1658D02*
X2533D01*
X2612D02*
X3833D01*
X171Y2423D02*
X336D01*
X400D02*
X539D01*
X611D02*
X1379D01*
X1457D02*
X1579D01*
X1657D02*
X2532D01*
X2614D02*
X3833D01*
X171Y2426D02*
X334D01*
X403D02*
X537D01*
X613D02*
X1381D01*
X1455D02*
X1581D01*
X1655D02*
X2531D01*
X2614D02*
X3833D01*
X171Y2429D02*
X332D01*
X405D02*
X536D01*
X614D02*
X1383D01*
X1454D02*
X1583D01*
X1654D02*
X2531D01*
X2615D02*
X3833D01*
X171Y2432D02*
X330D01*
X406D02*
X535D01*
X615D02*
X1385D01*
X1452D02*
X1585D01*
X1652D02*
X2531D01*
X2615D02*
X3833D01*
X171Y2435D02*
X329D01*
X408D02*
X534D01*
X616D02*
X1387D01*
X1449D02*
X1587D01*
X1649D02*
X2530D01*
X2615D02*
X3833D01*
X171Y2438D02*
X328D01*
X409D02*
X533D01*
X617D02*
X1390D01*
X1446D02*
X1590D01*
X1646D02*
X2530D01*
X2615D02*
X3833D01*
X171Y2441D02*
X327D01*
X409D02*
X533D01*
X617D02*
X1394D01*
X1442D02*
X1594D01*
X1642D02*
X2531D01*
X2615D02*
X3833D01*
X171Y2444D02*
X326D01*
X410D02*
X533D01*
X617D02*
X1399D01*
X1437D02*
X1599D01*
X1637D02*
X2531D01*
X2615D02*
X3833D01*
X171Y2447D02*
X326D01*
X410D02*
X533D01*
X617D02*
X1408D01*
X1429D02*
X1608D01*
X1629D02*
X2532D01*
X2614D02*
X3833D01*
X171Y2450D02*
X326D01*
X411D02*
X533D01*
X617D02*
X2533D01*
X2613D02*
X3833D01*
X171Y2453D02*
X326D01*
X410D02*
X533D01*
X617D02*
X2534D01*
X2612D02*
X3833D01*
X171Y2456D02*
X326D01*
X410D02*
X534D01*
X616D02*
X2536D01*
X2610D02*
X3833D01*
X171Y2459D02*
X327D01*
X410D02*
X535D01*
X615D02*
X2537D01*
X2608D02*
X3833D01*
X171Y2462D02*
X327D01*
X409D02*
X536D01*
X614D02*
X2540D01*
X2606D02*
X3833D01*
X171Y2465D02*
X328D01*
X408D02*
X537D01*
X612D02*
X2542D01*
X2604D02*
X3833D01*
X171Y2468D02*
X330D01*
X407D02*
X539D01*
X611D02*
X2545D01*
X2600D02*
X3833D01*
X171Y2471D02*
X331D01*
X405D02*
X541D01*
X609D02*
X2549D01*
X2596D02*
X3833D01*
X171Y2474D02*
X333D01*
X403D02*
X544D01*
X606D02*
X2555D01*
X2591D02*
X3833D01*
X171Y2477D02*
X335D01*
X401D02*
X547D01*
X603D02*
X1822D01*
X1848D02*
X2564D01*
X2582D02*
X3833D01*
X171Y2480D02*
X338D01*
X399D02*
X551D01*
X599D02*
X1815D01*
X1855D02*
X3833D01*
X171Y2483D02*
X341D01*
X395D02*
X555D01*
X594D02*
X1810D01*
X1860D02*
X3833D01*
X171Y2486D02*
X345D01*
X391D02*
X563D01*
X587D02*
X1807D01*
X1863D02*
X3833D01*
X171Y2489D02*
X351D01*
X386D02*
X1804D01*
X1866D02*
X3833D01*
X171Y2492D02*
X360D01*
X377D02*
X1801D01*
X1869D02*
X3833D01*
X171Y2495D02*
X1799D01*
X1871D02*
X3833D01*
X171Y2498D02*
X1797D01*
X1873D02*
X3833D01*
X171Y2501D02*
X1796D01*
X1874D02*
X3833D01*
X171Y2504D02*
X1795D01*
X1875D02*
X3833D01*
X171Y2507D02*
X1794D01*
X1876D02*
X3833D01*
X171Y2510D02*
X1793D01*
X1877D02*
X3833D01*
X171Y2513D02*
X1793D01*
X1877D02*
X3833D01*
X171Y2516D02*
X1793D01*
X1877D02*
X3833D01*
X171Y2519D02*
X1793D01*
X1877D02*
X3833D01*
X171Y2522D02*
X1793D01*
X1877D02*
X3833D01*
X171Y2525D02*
X1793D01*
X1877D02*
X3833D01*
X171Y2528D02*
X1794D01*
X1876D02*
X3833D01*
X171Y2531D02*
X1795D01*
X1875D02*
X3833D01*
X171Y2534D02*
X1796D01*
X1874D02*
X3833D01*
X171Y2537D02*
X1798D01*
X1873D02*
X1883D01*
X1904D02*
X3833D01*
X171Y2540D02*
X1799D01*
X1871D02*
X1878D01*
X1910D02*
X3833D01*
X171Y2543D02*
X1801D01*
X1869D02*
X1874D01*
X1914D02*
X3833D01*
X171Y2546D02*
X1680D01*
X1695D02*
X1804D01*
X1866D02*
X1871D01*
X1916D02*
X3833D01*
X171Y2549D02*
X1673D01*
X1702D02*
X1807D01*
X1863D02*
X1869D01*
X1918D02*
X3833D01*
X171Y2552D02*
X1668D01*
X1706D02*
X1811D01*
X1860D02*
X1868D01*
X1920D02*
X3833D01*
X171Y2555D02*
X1665D01*
X1709D02*
X1816D01*
X1855D02*
X1867D01*
X1921D02*
X3833D01*
X171Y2558D02*
X1663D01*
X1711D02*
X1823D01*
X1847D02*
X1866D01*
X1922D02*
X3833D01*
X171Y2561D02*
X1662D01*
X1713D02*
X1865D01*
X1922D02*
X3833D01*
X171Y2564D02*
X1660D01*
X1714D02*
X1865D01*
X1922D02*
X3833D01*
X171Y2567D02*
X1659D01*
X1715D02*
X1865D01*
X1922D02*
X3833D01*
X171Y2570D02*
X1659D01*
X1715D02*
X1866D01*
X1922D02*
X3833D01*
X171Y2573D02*
X1659D01*
X1715D02*
X1867D01*
X1921D02*
X3833D01*
X171Y2576D02*
X1659D01*
X1715D02*
X1868D01*
X1919D02*
X3833D01*
X171Y2579D02*
X1659D01*
X1715D02*
X1870D01*
X1918D02*
X3833D01*
X171Y2582D02*
X762D01*
X788D02*
X1163D01*
X1187D02*
X1660D01*
X1714D02*
X1872D01*
X1915D02*
X3833D01*
X171Y2585D02*
X755D01*
X795D02*
X1156D01*
X1195D02*
X1661D01*
X1713D02*
X1875D01*
X1912D02*
X3833D01*
X171Y2588D02*
X750D01*
X800D02*
X1151D01*
X1200D02*
X1663D01*
X1711D02*
X1879D01*
X1908D02*
X3833D01*
X171Y2591D02*
X747D01*
X804D02*
X1147D01*
X1204D02*
X1665D01*
X1709D02*
X1886D01*
X1901D02*
X3833D01*
X171Y2594D02*
X744D01*
X807D02*
X1144D01*
X1207D02*
X1668D01*
X1706D02*
X3833D01*
X171Y2597D02*
X741D01*
X809D02*
X1141D01*
X1209D02*
X1671D01*
X1703D02*
X3833D01*
X171Y2600D02*
X739D01*
X811D02*
X1139D01*
X1211D02*
X1678D01*
X1697D02*
X3833D01*
X171Y2603D02*
X738D01*
X813D02*
X1138D01*
X1213D02*
X3833D01*
X171Y2606D02*
X736D01*
X814D02*
X1136D01*
X1214D02*
X3833D01*
X171Y2609D02*
X735D01*
X816D02*
X1135D01*
X1215D02*
X3833D01*
X171Y2612D02*
X734D01*
X816D02*
X1134D01*
X1216D02*
X3833D01*
X171Y2615D02*
X733D01*
X817D02*
X1134D01*
X1217D02*
X3833D01*
X171Y2618D02*
X733D01*
X818D02*
X1133D01*
X1217D02*
X3833D01*
X171Y2621D02*
X733D01*
X818D02*
X1133D01*
X1218D02*
X3833D01*
X171Y2624D02*
X733D01*
X818D02*
X1133D01*
X1218D02*
X3833D01*
X171Y2627D02*
X733D01*
X818D02*
X1133D01*
X1217D02*
X3150D01*
X3177D02*
X3833D01*
X171Y2630D02*
X733D01*
X817D02*
X1134D01*
X1217D02*
X3143D01*
X3184D02*
X3833D01*
X171Y2633D02*
X734D01*
X816D02*
X1134D01*
X1216D02*
X3138D01*
X3189D02*
X3833D01*
X171Y2636D02*
X735D01*
X816D02*
X1135D01*
X1215D02*
X3135D01*
X3192D02*
X3833D01*
X171Y2639D02*
X736D01*
X814D02*
X1136D01*
X1214D02*
X3132D01*
X3195D02*
X3833D01*
X171Y2642D02*
X737D01*
X813D02*
X1138D01*
X1213D02*
X3129D01*
X3198D02*
X3833D01*
X171Y2645D02*
X739D01*
X811D02*
X1139D01*
X1211D02*
X3127D01*
X3200D02*
X3833D01*
X171Y2648D02*
X741D01*
X809D02*
X1141D01*
X1209D02*
X3126D01*
X3201D02*
X3833D01*
X171Y2651D02*
X744D01*
X807D02*
X1144D01*
X1207D02*
X3124D01*
X3203D02*
X3833D01*
X171Y2654D02*
X747D01*
X804D02*
X1147D01*
X1204D02*
X3123D01*
X3204D02*
X3833D01*
X171Y2657D02*
X750D01*
X800D02*
X1151D01*
X1200D02*
X3122D01*
X3205D02*
X3833D01*
X171Y2660D02*
X755D01*
X795D02*
X1156D01*
X1195D02*
X3122D01*
X3205D02*
X3833D01*
X171Y2663D02*
X762D01*
X788D02*
X1163D01*
X1188D02*
X3121D01*
X3206D02*
X3833D01*
X171Y2666D02*
X3121D01*
X3206D02*
X3833D01*
X171Y2669D02*
X3121D01*
X3206D02*
X3833D01*
X171Y2672D02*
X3121D01*
X3205D02*
X3833D01*
X171Y2675D02*
X2444D01*
X2466D02*
X3122D01*
X3205D02*
X3833D01*
X171Y2678D02*
X2438D01*
X2471D02*
X3123D01*
X3204D02*
X3833D01*
X171Y2681D02*
X2435D01*
X2475D02*
X3123D01*
X3203D02*
X3833D01*
X171Y2684D02*
X2432D01*
X2477D02*
X3125D01*
X3202D02*
X3833D01*
X171Y2687D02*
X2430D01*
X2479D02*
X3126D01*
X3201D02*
X3833D01*
X171Y2690D02*
X2429D01*
X2481D02*
X3128D01*
X3199D02*
X3833D01*
X171Y2693D02*
X2428D01*
X2482D02*
X3130D01*
X3197D02*
X3833D01*
X171Y2696D02*
X2427D01*
X2483D02*
X2558D01*
X2588D02*
X3133D01*
X3194D02*
X3833D01*
X171Y2699D02*
X2426D01*
X2483D02*
X2551D01*
X2594D02*
X3136D01*
X3191D02*
X3731D01*
X3816D02*
X3833D01*
X171Y2702D02*
X2426D01*
X2483D02*
X2547D01*
X2599D02*
X3140D01*
X3187D02*
X3731D01*
X3816D02*
X3833D01*
X171Y2705D02*
X562D01*
X588D02*
X1960D01*
X1985D02*
X2427D01*
X2483D02*
X2544D01*
X2602D02*
X3145D01*
X3182D02*
X3731D01*
X3816D02*
X3833D01*
X171Y2708D02*
X555D01*
X595D02*
X1955D01*
X1990D02*
X2427D01*
X2482D02*
X2541D01*
X2605D02*
X3153D01*
X3174D02*
X3731D01*
X3816D02*
X3833D01*
X171Y2711D02*
X353D01*
X383D02*
X550D01*
X600D02*
X1952D01*
X1993D02*
X2428D01*
X2482D02*
X2538D01*
X2607D02*
X3731D01*
X3816D02*
X3833D01*
X171Y2714D02*
X347D01*
X390D02*
X546D01*
X604D02*
X1949D01*
X1996D02*
X2429D01*
X2480D02*
X2536D01*
X2609D02*
X3731D01*
X3816D02*
X3833D01*
X171Y2717D02*
X342D01*
X394D02*
X543D01*
X607D02*
X1413D01*
X1431D02*
X1613D01*
X1631D02*
X1948D01*
X1997D02*
X2431D01*
X2479D02*
X2535D01*
X2611D02*
X3731D01*
X3816D02*
X3833D01*
X171Y2720D02*
X339D01*
X398D02*
X541D01*
X609D02*
X1404D01*
X1440D02*
X1604D01*
X1640D02*
X1946D01*
X1999D02*
X2433D01*
X2476D02*
X2534D01*
X2612D02*
X3731D01*
X3816D02*
X3833D01*
X171Y2723D02*
X336D01*
X400D02*
X539D01*
X611D02*
X1398D01*
X1445D02*
X1598D01*
X1645D02*
X1945D01*
X2000D02*
X2436D01*
X2473D02*
X2532D01*
X2613D02*
X3731D01*
X3816D02*
X3833D01*
X171Y2726D02*
X334D01*
X403D02*
X537D01*
X613D02*
X1394D01*
X1449D02*
X1594D01*
X1649D02*
X1944D01*
X2001D02*
X2441D01*
X2469D02*
X2532D01*
X2614D02*
X3731D01*
X3816D02*
X3833D01*
X171Y2729D02*
X332D01*
X405D02*
X536D01*
X614D02*
X870D01*
X890D02*
X1170D01*
X1190D02*
X1391D01*
X1452D02*
X1591D01*
X1652D02*
X1944D01*
X2001D02*
X2448D01*
X2461D02*
X2531D01*
X2615D02*
X3731D01*
X3816D02*
X3833D01*
X171Y2732D02*
X330D01*
X406D02*
X535D01*
X615D02*
X862D01*
X898D02*
X1162D01*
X1198D02*
X1389D01*
X1455D02*
X1589D01*
X1655D02*
X1944D01*
X2001D02*
X2531D01*
X2615D02*
X3731D01*
X3816D02*
X3833D01*
X171Y2735D02*
X329D01*
X408D02*
X534D01*
X616D02*
X856D01*
X904D02*
X1156D01*
X1204D02*
X1386D01*
X1457D02*
X1586D01*
X1657D02*
X1944D01*
X2001D02*
X2531D01*
X2615D02*
X3731D01*
X3816D02*
X3833D01*
X171Y2738D02*
X328D01*
X409D02*
X533D01*
X617D02*
X852D01*
X908D02*
X1152D01*
X1208D02*
X1385D01*
X1459D02*
X1585D01*
X1659D02*
X1945D01*
X2000D02*
X2531D01*
X2615D02*
X3731D01*
X3816D02*
X3833D01*
X171Y2741D02*
X327D01*
X409D02*
X533D01*
X617D02*
X849D01*
X911D02*
X1149D01*
X1211D02*
X1383D01*
X1460D02*
X1583D01*
X1660D02*
X1946D01*
X1999D02*
X2531D01*
X2615D02*
X3731D01*
X3816D02*
X3833D01*
X171Y2744D02*
X326D01*
X410D02*
X532D01*
X617D02*
X847D01*
X913D02*
X1147D01*
X1213D02*
X1382D01*
X1462D02*
X1582D01*
X1662D02*
X1947D01*
X1998D02*
X2531D01*
X2614D02*
X3731D01*
X3816D02*
X3833D01*
X171Y2747D02*
X326D01*
X410D02*
X532D01*
X617D02*
X845D01*
X915D02*
X1145D01*
X1215D02*
X1381D01*
X1463D02*
X1581D01*
X1663D02*
X1949D01*
X1996D02*
X2532D01*
X2614D02*
X3731D01*
X3816D02*
X3833D01*
X171Y2750D02*
X326D01*
X411D02*
X533D01*
X617D02*
X843D01*
X917D02*
X1143D01*
X1217D02*
X1380D01*
X1463D02*
X1580D01*
X1663D02*
X1951D01*
X1994D02*
X2533D01*
X2613D02*
X3731D01*
X3816D02*
X3833D01*
X171Y2753D02*
X326D01*
X410D02*
X533D01*
X617D02*
X841D01*
X919D02*
X1141D01*
X1219D02*
X1380D01*
X1464D02*
X1580D01*
X1664D02*
X1955D01*
X1990D02*
X2534D01*
X2611D02*
X3731D01*
X3816D02*
X3833D01*
X171Y2756D02*
X326D01*
X410D02*
X534D01*
X616D02*
X840D01*
X920D02*
X1140D01*
X1220D02*
X1379D01*
X1464D02*
X1579D01*
X1664D02*
X1959D01*
X1986D02*
X2536D01*
X2610D02*
X3731D01*
X3816D02*
X3833D01*
X171Y2759D02*
X327D01*
X410D02*
X535D01*
X615D02*
X839D01*
X921D02*
X1139D01*
X1221D02*
X1379D01*
X1464D02*
X1579D01*
X1664D02*
X1968D01*
X1977D02*
X2538D01*
X2608D02*
X3731D01*
X3816D02*
X3833D01*
X171Y2762D02*
X327D01*
X409D02*
X536D01*
X614D02*
X838D01*
X922D02*
X1138D01*
X1222D02*
X1380D01*
X1464D02*
X1580D01*
X1664D02*
X2540D01*
X2606D02*
X3731D01*
X3816D02*
X3833D01*
X171Y2765D02*
X328D01*
X408D02*
X537D01*
X613D02*
X838D01*
X922D02*
X1138D01*
X1222D02*
X1380D01*
X1464D02*
X1580D01*
X1664D02*
X2542D01*
X2603D02*
X3731D01*
X3816D02*
X3833D01*
X171Y2768D02*
X330D01*
X407D02*
X539D01*
X611D02*
X838D01*
X922D02*
X1138D01*
X1222D02*
X1380D01*
X1463D02*
X1580D01*
X1663D02*
X2546D01*
X2600D02*
X3731D01*
X3816D02*
X3833D01*
X171Y2771D02*
X331D01*
X405D02*
X541D01*
X609D02*
X838D01*
X922D02*
X1138D01*
X1222D02*
X1381D01*
X1462D02*
X1581D01*
X1662D02*
X2550D01*
X2596D02*
X3731D01*
X3816D02*
X3833D01*
X171Y2774D02*
X333D01*
X403D02*
X543D01*
X606D02*
X838D01*
X922D02*
X1138D01*
X1222D02*
X1382D01*
X1461D02*
X1582D01*
X1661D02*
X2555D01*
X2591D02*
X3731D01*
X3816D02*
X3833D01*
X171Y2777D02*
X335D01*
X401D02*
X546D01*
X603D02*
X838D01*
X922D02*
X1138D01*
X1222D02*
X1384D01*
X1460D02*
X1584D01*
X1660D02*
X1822D01*
X1848D02*
X2564D01*
X2581D02*
X3731D01*
X3816D02*
X3833D01*
X171Y2780D02*
X338D01*
X399D02*
X550D01*
X600D02*
X839D01*
X921D02*
X1139D01*
X1221D02*
X1385D01*
X1458D02*
X1585D01*
X1658D02*
X1815D01*
X1855D02*
X3731D01*
X3816D02*
X3833D01*
X171Y2783D02*
X341D01*
X395D02*
X555D01*
X595D02*
X840D01*
X920D02*
X1140D01*
X1220D02*
X1387D01*
X1456D02*
X1587D01*
X1656D02*
X1810D01*
X1860D02*
X3833D01*
X171Y2786D02*
X345D01*
X391D02*
X562D01*
X587D02*
X841D01*
X919D02*
X1141D01*
X1219D02*
X1390D01*
X1454D02*
X1590D01*
X1654D02*
X1806D01*
X1864D02*
X3833D01*
X171Y2789D02*
X351D01*
X386D02*
X842D01*
X918D02*
X1142D01*
X1218D02*
X1392D01*
X1451D02*
X1592D01*
X1651D02*
X1804D01*
X1867D02*
X3833D01*
X171Y2792D02*
X360D01*
X377D02*
X844D01*
X916D02*
X1144D01*
X1216D02*
X1396D01*
X1447D02*
X1596D01*
X1647D02*
X1801D01*
X1869D02*
X3833D01*
X171Y2795D02*
X846D01*
X914D02*
X1146D01*
X1214D02*
X1400D01*
X1443D02*
X1600D01*
X1643D02*
X1799D01*
X1871D02*
X3833D01*
X171Y2798D02*
X848D01*
X912D02*
X1148D01*
X1212D02*
X1407D01*
X1437D02*
X1607D01*
X1637D02*
X1797D01*
X1873D02*
X3833D01*
X171Y2801D02*
X851D01*
X909D02*
X1151D01*
X1209D02*
X1796D01*
X1874D02*
X3731D01*
X3816D02*
X3833D01*
X171Y2804D02*
X855D01*
X905D02*
X1155D01*
X1205D02*
X1795D01*
X1875D02*
X3731D01*
X3816D02*
X3833D01*
X171Y2807D02*
X859D01*
X901D02*
X1159D01*
X1201D02*
X1794D01*
X1876D02*
X3731D01*
X3816D02*
X3833D01*
X171Y2810D02*
X866D01*
X894D02*
X1166D01*
X1194D02*
X1793D01*
X1877D02*
X3731D01*
X3816D02*
X3833D01*
X171Y2813D02*
X1793D01*
X1877D02*
X2079D01*
X2102D02*
X3731D01*
X3816D02*
X3833D01*
X171Y2816D02*
X1793D01*
X1878D02*
X2074D01*
X2107D02*
X3731D01*
X3816D02*
X3833D01*
X171Y2819D02*
X1793D01*
X1878D02*
X2071D01*
X2111D02*
X3731D01*
X3816D02*
X3833D01*
X171Y2822D02*
X1793D01*
X1877D02*
X2068D01*
X2113D02*
X3731D01*
X3816D02*
X3833D01*
X171Y2825D02*
X1793D01*
X1877D02*
X2066D01*
X2115D02*
X3731D01*
X3816D02*
X3833D01*
X171Y2828D02*
X1794D01*
X1876D02*
X2065D01*
X2117D02*
X3731D01*
X3816D02*
X3833D01*
X171Y2831D02*
X1795D01*
X1875D02*
X2063D01*
X2118D02*
X3731D01*
X3816D02*
X3833D01*
X171Y2834D02*
X1796D01*
X1874D02*
X2063D01*
X2119D02*
X3731D01*
X3816D02*
X3833D01*
X171Y2837D02*
X1797D01*
X1873D02*
X2062D01*
X2119D02*
X3731D01*
X3816D02*
X3833D01*
X171Y2840D02*
X1799D01*
X1871D02*
X2062D01*
X2119D02*
X3731D01*
X3816D02*
X3833D01*
X171Y2843D02*
X1801D01*
X1869D02*
X2063D01*
X2119D02*
X3731D01*
X3816D02*
X3833D01*
X171Y2846D02*
X1804D01*
X1867D02*
X2063D01*
X2118D02*
X3731D01*
X3816D02*
X3833D01*
X171Y2849D02*
X1807D01*
X1864D02*
X2064D01*
X2117D02*
X3731D01*
X3816D02*
X3833D01*
X171Y2852D02*
X1810D01*
X1860D02*
X2065D01*
X2116D02*
X3731D01*
X3816D02*
X3833D01*
X171Y2855D02*
X1815D01*
X1855D02*
X2067D01*
X2114D02*
X3731D01*
X3816D02*
X3833D01*
X171Y2858D02*
X1822D01*
X1848D02*
X2070D01*
X2112D02*
X3731D01*
X3816D02*
X3833D01*
X171Y2861D02*
X2073D01*
X2109D02*
X3731D01*
X3816D02*
X3833D01*
X171Y2864D02*
X2077D01*
X2104D02*
X3731D01*
X3816D02*
X3833D01*
X171Y2867D02*
X2086D01*
X2095D02*
X3731D01*
X3816D02*
X3833D01*
X171Y2870D02*
X1412D01*
X1432D02*
X1618D01*
X1639D02*
X3731D01*
X3816D02*
X3833D01*
X171Y2873D02*
X1403D01*
X1440D02*
X1610D01*
X1647D02*
X3731D01*
X3816D02*
X3833D01*
X171Y2876D02*
X1398D01*
X1445D02*
X1605D01*
X1652D02*
X2106D01*
X2135D02*
X2406D01*
X2435D02*
X3731D01*
X3816D02*
X3833D01*
X171Y2879D02*
X1394D01*
X1449D02*
X1601D01*
X1656D02*
X2099D01*
X2142D02*
X2400D01*
X2441D02*
X3731D01*
X3816D02*
X3833D01*
X171Y2882D02*
X1391D01*
X1452D02*
X1598D01*
X1659D02*
X2095D01*
X2146D02*
X2395D01*
X2446D02*
X3731D01*
X3816D02*
X3833D01*
X171Y2885D02*
X1388D01*
X1455D02*
X1595D01*
X1662D02*
X2091D01*
X2150D02*
X2392D01*
X2450D02*
X3833D01*
X171Y2888D02*
X1386D01*
X1457D02*
X1593D01*
X1664D02*
X1894D01*
X1914D02*
X2088D01*
X2153D02*
X2389D01*
X2452D02*
X3833D01*
X171Y2891D02*
X1384D01*
X1459D02*
X1591D01*
X1666D02*
X1886D01*
X1922D02*
X2086D01*
X2155D02*
X2386D01*
X2455D02*
X3833D01*
X171Y2894D02*
X1383D01*
X1460D02*
X1590D01*
X1667D02*
X1881D01*
X1927D02*
X2084D01*
X2157D02*
X2384D01*
X2457D02*
X3833D01*
X171Y2897D02*
X1382D01*
X1462D02*
X1588D01*
X1668D02*
X1877D01*
X1931D02*
X2082D01*
X2159D02*
X2383D01*
X2458D02*
X3833D01*
X663Y2900D02*
X1381D01*
X1463D02*
X1588D01*
X1669D02*
X1873D01*
X1935D02*
X2081D01*
X2160D02*
X2381D01*
X2460D02*
X3833D01*
X663Y2903D02*
X1380D01*
X1463D02*
X1587D01*
X1670D02*
X1871D01*
X1937D02*
X2080D01*
X2161D02*
X2380D01*
X2461D02*
X3833D01*
X663Y2906D02*
X1380D01*
X1464D02*
X1586D01*
X1670D02*
X1869D01*
X1939D02*
X2079D01*
X2162D02*
X2379D01*
X2462D02*
X3833D01*
X663Y2909D02*
X1379D01*
X1464D02*
X1586D01*
X1671D02*
X1867D01*
X1941D02*
X2079D01*
X2162D02*
X2379D01*
X2462D02*
X3833D01*
X663Y2912D02*
X1379D01*
X1464D02*
X1586D01*
X1671D02*
X1865D01*
X1943D02*
X2078D01*
X2163D02*
X2378D01*
X2463D02*
X3833D01*
X663Y2915D02*
X1380D01*
X1464D02*
X1586D01*
X1671D02*
X1864D01*
X1944D02*
X2078D01*
X2163D02*
X2378D01*
X2463D02*
X3833D01*
X663Y2918D02*
X1380D01*
X1463D02*
X1587D01*
X1670D02*
X1863D01*
X1945D02*
X2078D01*
X2163D02*
X2378D01*
X2463D02*
X3833D01*
X663Y2921D02*
X1381D01*
X1463D02*
X1587D01*
X1670D02*
X1862D01*
X1946D02*
X2078D01*
X2163D02*
X2379D01*
X2463D02*
X3833D01*
X663Y2924D02*
X1381D01*
X1462D02*
X1588D01*
X1669D02*
X1862D01*
X1946D02*
X2079D01*
X2162D02*
X2379D01*
X2462D02*
X3833D01*
X663Y2927D02*
X1382D01*
X1461D02*
X1589D01*
X1668D02*
X1862D01*
X1946D02*
X2080D01*
X2162D02*
X2380D01*
X2461D02*
X3150D01*
X3177D02*
X3833D01*
X663Y2930D02*
X1384D01*
X1460D02*
X1591D01*
X1666D02*
X1862D01*
X1946D02*
X2080D01*
X2161D02*
X2381D01*
X2460D02*
X3143D01*
X3184D02*
X3833D01*
X663Y2933D02*
X1385D01*
X1458D02*
X1592D01*
X1665D02*
X1862D01*
X1946D02*
X2082D01*
X2159D02*
X2382D01*
X2459D02*
X3138D01*
X3189D02*
X3833D01*
X663Y2936D02*
X1387D01*
X1456D02*
X1594D01*
X1663D02*
X1862D01*
X1946D02*
X2083D01*
X2158D02*
X2383D01*
X2458D02*
X3135D01*
X3192D02*
X3833D01*
X663Y2939D02*
X1390D01*
X1454D02*
X1597D01*
X1660D02*
X1863D01*
X1945D02*
X2085D01*
X2156D02*
X2385D01*
X2456D02*
X3132D01*
X3195D02*
X3833D01*
X663Y2942D02*
X1393D01*
X1451D02*
X1599D01*
X1657D02*
X1864D01*
X1944D02*
X2087D01*
X2154D02*
X2387D01*
X2454D02*
X3129D01*
X3198D02*
X3833D01*
X663Y2945D02*
X1396D01*
X1447D02*
X1603D01*
X1654D02*
X1865D01*
X1943D02*
X2090D01*
X2151D02*
X2390D01*
X2451D02*
X3127D01*
X3200D02*
X3833D01*
X663Y2948D02*
X1401D01*
X1443D02*
X1608D01*
X1649D02*
X1866D01*
X1942D02*
X2093D01*
X2148D02*
X2393D01*
X2448D02*
X3126D01*
X3201D02*
X3833D01*
X663Y2951D02*
X1407D01*
X1436D02*
X1614D01*
X1643D02*
X1868D01*
X1940D02*
X2097D01*
X2144D02*
X2397D01*
X2444D02*
X3124D01*
X3203D02*
X3833D01*
X663Y2954D02*
X1870D01*
X1938D02*
X2102D01*
X2139D02*
X2402D01*
X2439D02*
X3123D01*
X3204D02*
X3833D01*
X663Y2957D02*
X1872D01*
X1936D02*
X2110D01*
X2131D02*
X2411D01*
X2430D02*
X3122D01*
X3205D02*
X3833D01*
X663Y2960D02*
X1875D01*
X1933D02*
X3122D01*
X3205D02*
X3833D01*
X663Y2963D02*
X1878D01*
X1930D02*
X3121D01*
X3206D02*
X3833D01*
X663Y2966D02*
X1883D01*
X1925D02*
X3121D01*
X3206D02*
X3833D01*
X663Y2969D02*
X1889D01*
X1919D02*
X3121D01*
X3206D02*
X3833D01*
X663Y2972D02*
X3121D01*
X3205D02*
X3833D01*
X663Y2975D02*
X3122D01*
X3205D02*
X3833D01*
X663Y2978D02*
X3123D01*
X3204D02*
X3833D01*
X663Y2981D02*
X3123D01*
X3203D02*
X3833D01*
X663Y2984D02*
X3125D01*
X3202D02*
X3833D01*
X663Y2987D02*
X3126D01*
X3201D02*
X3833D01*
X663Y2990D02*
X3128D01*
X3199D02*
X3833D01*
X663Y2993D02*
X3130D01*
X3197D02*
X3833D01*
X663Y2996D02*
X3133D01*
X3194D02*
X3833D01*
X663Y2999D02*
X3136D01*
X3191D02*
X3833D01*
X663Y3002D02*
X3140D01*
X3187D02*
X3833D01*
X663Y3005D02*
X3145D01*
X3182D02*
X3833D01*
X663Y3008D02*
X3153D01*
X3174D02*
X3833D01*
X663Y3011D02*
X3833D01*
X663Y3014D02*
X3833D01*
X663Y3017D02*
X3833D01*
X663Y3020D02*
X3833D01*
X663Y3023D02*
X3833D01*
X663Y3026D02*
X3833D01*
X663Y3029D02*
X3833D01*
X663Y3032D02*
X3833D01*
X663Y3035D02*
X3833D01*
X663Y3038D02*
X3833D01*
X663Y3041D02*
X3833D01*
X663Y3044D02*
X3833D01*
X663Y3047D02*
X3833D01*
X663Y3050D02*
X3833D01*
X663Y3053D02*
X3833D01*
X663Y3056D02*
X3833D01*
X663Y3059D02*
X3833D01*
X663Y3062D02*
X3833D01*
X663Y3065D02*
X2710D01*
X2738D02*
X3110D01*
X3138D02*
X3833D01*
X663Y3068D02*
X2703D01*
X2745D02*
X3103D01*
X3145D02*
X3833D01*
X663Y3071D02*
X2699D01*
X2750D02*
X3099D01*
X3150D02*
X3833D01*
X663Y3074D02*
X2695D01*
X2753D02*
X3095D01*
X3153D02*
X3833D01*
X663Y3077D02*
X2692D01*
X2756D02*
X3092D01*
X3156D02*
X3833D01*
X663Y3080D02*
X2690D01*
X2758D02*
X3090D01*
X3158D02*
X3833D01*
X663Y3083D02*
X2688D01*
X2760D02*
X3088D01*
X3160D02*
X3833D01*
X663Y3086D02*
X2686D01*
X2762D02*
X3086D01*
X3162D02*
X3833D01*
X663Y3089D02*
X2685D01*
X2763D02*
X3085D01*
X3163D02*
X3833D01*
X663Y3092D02*
X2684D01*
X2764D02*
X3084D01*
X3164D02*
X3833D01*
X663Y3095D02*
X2683D01*
X2765D02*
X3083D01*
X3165D02*
X3833D01*
X663Y3098D02*
X2682D01*
X2766D02*
X3082D01*
X3166D02*
X3833D01*
X663Y3101D02*
X2682D01*
X2766D02*
X3082D01*
X3166D02*
X3833D01*
X663Y3104D02*
X2682D01*
X2766D02*
X3082D01*
X3166D02*
X3833D01*
X663Y3107D02*
X2682D01*
X2766D02*
X3082D01*
X3166D02*
X3833D01*
X663Y3110D02*
X2682D01*
X2766D02*
X3082D01*
X3166D02*
X3833D01*
X663Y3113D02*
X2217D01*
X2239D02*
X2618D01*
X2639D02*
X2683D01*
X2766D02*
X3083D01*
X3166D02*
X3833D01*
X663Y3116D02*
X2209D01*
X2247D02*
X2610D01*
X2647D02*
X2683D01*
X2765D02*
X3083D01*
X3165D02*
X3833D01*
X663Y3119D02*
X2204D01*
X2252D02*
X2605D01*
X2652D02*
X2684D01*
X2764D02*
X3084D01*
X3164D02*
X3833D01*
X663Y3122D02*
X2200D01*
X2256D02*
X2601D01*
X2656D02*
X2685D01*
X2763D02*
X3085D01*
X3163D02*
X3833D01*
X663Y3125D02*
X2197D01*
X2259D02*
X2598D01*
X2659D02*
X2687D01*
X2761D02*
X3087D01*
X3161D02*
X3833D01*
X663Y3128D02*
X2195D01*
X2262D02*
X2595D01*
X2662D02*
X2689D01*
X2760D02*
X3089D01*
X3160D02*
X3833D01*
X663Y3131D02*
X2193D01*
X2264D02*
X2593D01*
X2664D02*
X2691D01*
X2757D02*
X3091D01*
X3157D02*
X3833D01*
X663Y3134D02*
X2191D01*
X2266D02*
X2591D01*
X2666D02*
X2693D01*
X2755D02*
X3093D01*
X3155D02*
X3833D01*
X663Y3137D02*
X2189D01*
X2267D02*
X2590D01*
X2667D02*
X2697D01*
X2752D02*
X3097D01*
X3152D02*
X3833D01*
X663Y3140D02*
X2188D01*
X2269D02*
X2588D01*
X2668D02*
X2701D01*
X2748D02*
X3101D01*
X3148D02*
X3833D01*
X663Y3143D02*
X2187D01*
X2269D02*
X2588D01*
X2669D02*
X2706D01*
X2742D02*
X3106D01*
X3142D02*
X3833D01*
X663Y3146D02*
X2187D01*
X2270D02*
X2587D01*
X2670D02*
X2714D01*
X2734D02*
X3114D01*
X3134D02*
X3833D01*
X663Y3149D02*
X2186D01*
X2271D02*
X2586D01*
X2670D02*
X3833D01*
X663Y3152D02*
X2186D01*
X2271D02*
X2586D01*
X2671D02*
X3833D01*
X663Y3155D02*
X2186D01*
X2271D02*
X2586D01*
X2671D02*
X3833D01*
X663Y3158D02*
X2186D01*
X2271D02*
X2586D01*
X2671D02*
X3833D01*
X663Y3161D02*
X2186D01*
X2270D02*
X2587D01*
X2670D02*
X3833D01*
X663Y3164D02*
X2187D01*
X2270D02*
X2587D01*
X2670D02*
X3833D01*
X663Y3167D02*
X2188D01*
X2269D02*
X2588D01*
X2669D02*
X3833D01*
X663Y3170D02*
X1412D01*
X1432D02*
X1618D01*
X1639D02*
X2189D01*
X2268D02*
X2589D01*
X2668D02*
X3833D01*
X663Y3173D02*
X1403D01*
X1440D02*
X1610D01*
X1647D02*
X2190D01*
X2266D02*
X2591D01*
X2666D02*
X3833D01*
X663Y3176D02*
X1398D01*
X1445D02*
X1605D01*
X1652D02*
X2192D01*
X2265D02*
X2592D01*
X2665D02*
X3833D01*
X663Y3179D02*
X1394D01*
X1449D02*
X1601D01*
X1656D02*
X2194D01*
X2263D02*
X2594D01*
X2663D02*
X3833D01*
X663Y3182D02*
X1391D01*
X1452D02*
X1598D01*
X1659D02*
X2196D01*
X2260D02*
X2597D01*
X2660D02*
X3833D01*
X663Y3185D02*
X1388D01*
X1455D02*
X1595D01*
X1662D02*
X2199D01*
X2258D02*
X2600D01*
X2657D02*
X3833D01*
X663Y3188D02*
X1386D01*
X1457D02*
X1593D01*
X1664D02*
X2203D01*
X2254D02*
X2603D01*
X2654D02*
X3833D01*
X663Y3191D02*
X1384D01*
X1459D02*
X1591D01*
X1666D02*
X2207D01*
X2249D02*
X2608D01*
X2649D02*
X3833D01*
X663Y3194D02*
X1383D01*
X1460D02*
X1590D01*
X1667D02*
X2214D01*
X2243D02*
X2614D01*
X2642D02*
X3833D01*
X663Y3197D02*
X1382D01*
X1462D02*
X1588D01*
X1668D02*
X3833D01*
X663Y3200D02*
X1381D01*
X1463D02*
X1588D01*
X1669D02*
X3833D01*
X663Y3203D02*
X1380D01*
X1463D02*
X1587D01*
X1670D02*
X3833D01*
X663Y3206D02*
X1380D01*
X1464D02*
X1586D01*
X1670D02*
X3833D01*
X663Y3209D02*
X1379D01*
X1464D02*
X1586D01*
X1671D02*
X3833D01*
X663Y3212D02*
X1379D01*
X1464D02*
X1586D01*
X1671D02*
X3833D01*
X663Y3215D02*
X1380D01*
X1464D02*
X1586D01*
X1671D02*
X3833D01*
X663Y3218D02*
X1380D01*
X1463D02*
X1587D01*
X1670D02*
X3139D01*
X3169D02*
X3833D01*
X663Y3221D02*
X1381D01*
X1463D02*
X1587D01*
X1670D02*
X3132D01*
X3175D02*
X3833D01*
X663Y3224D02*
X1381D01*
X1462D02*
X1588D01*
X1669D02*
X3128D01*
X3179D02*
X3833D01*
X663Y3227D02*
X1382D01*
X1461D02*
X1589D01*
X1668D02*
X3124D01*
X3183D02*
X3833D01*
X663Y3230D02*
X1384D01*
X1460D02*
X1591D01*
X1666D02*
X3121D01*
X3186D02*
X3833D01*
X663Y3233D02*
X1385D01*
X1458D02*
X1592D01*
X1665D02*
X3119D01*
X3188D02*
X3833D01*
X663Y3236D02*
X1387D01*
X1456D02*
X1594D01*
X1663D02*
X3117D01*
X3190D02*
X3833D01*
X663Y3239D02*
X1390D01*
X1454D02*
X1597D01*
X1660D02*
X3116D01*
X3192D02*
X3833D01*
X663Y3242D02*
X1393D01*
X1451D02*
X1599D01*
X1657D02*
X3114D01*
X3193D02*
X3833D01*
X663Y3245D02*
X1396D01*
X1447D02*
X1603D01*
X1654D02*
X3113D01*
X3194D02*
X3833D01*
X663Y3248D02*
X1401D01*
X1443D02*
X1608D01*
X1649D02*
X3112D01*
X3195D02*
X3833D01*
X663Y3251D02*
X1407D01*
X1436D02*
X1614D01*
X1643D02*
X3112D01*
X3195D02*
X3833D01*
X663Y3254D02*
X3111D01*
X3196D02*
X3833D01*
X663Y3257D02*
X3111D01*
X3196D02*
X3833D01*
X663Y3260D02*
X3111D01*
X3196D02*
X3833D01*
X663Y3263D02*
X3112D01*
X3196D02*
X3833D01*
X663Y3266D02*
X3112D01*
X3195D02*
X3833D01*
X663Y3269D02*
X3113D01*
X3194D02*
X3833D01*
X663Y3272D02*
X3114D01*
X3193D02*
X3833D01*
X663Y3275D02*
X3115D01*
X3192D02*
X3833D01*
X663Y3278D02*
X3117D01*
X3191D02*
X3833D01*
X663Y3281D02*
X2019D01*
X2103D02*
X2119D01*
X2204D02*
X3118D01*
X3189D02*
X3833D01*
X663Y3284D02*
X2019D01*
X2103D02*
X2119D01*
X2204D02*
X3121D01*
X3187D02*
X3833D01*
X663Y3287D02*
X1901D01*
X1907D02*
X2019D01*
X2103D02*
X2119D01*
X2204D02*
X3123D01*
X3184D02*
X3833D01*
X663Y3290D02*
X1888D01*
X1920D02*
X2019D01*
X2103D02*
X2119D01*
X2204D02*
X3126D01*
X3181D02*
X3833D01*
X663Y3293D02*
X1882D01*
X1926D02*
X2019D01*
X2103D02*
X2119D01*
X2204D02*
X3130D01*
X3177D02*
X3833D01*
X663Y3296D02*
X1878D01*
X1930D02*
X2019D01*
X2103D02*
X2119D01*
X2204D02*
X3136D01*
X3171D02*
X3833D01*
X663Y3299D02*
X1874D01*
X1934D02*
X2019D01*
X2103D02*
X2119D01*
X2204D02*
X3145D01*
X3162D02*
X3722D01*
X3806D02*
X3833D01*
X663Y3302D02*
X1872D01*
X1936D02*
X2019D01*
X2103D02*
X2119D01*
X2204D02*
X3722D01*
X3806D02*
X3833D01*
X663Y3305D02*
X1869D01*
X1939D02*
X2019D01*
X2103D02*
X2119D01*
X2204D02*
X3722D01*
X3806D02*
X3833D01*
X663Y3308D02*
X1867D01*
X1941D02*
X2019D01*
X2103D02*
X2119D01*
X2204D02*
X3722D01*
X3806D02*
X3833D01*
X663Y3311D02*
X1866D01*
X1942D02*
X2019D01*
X2103D02*
X2119D01*
X2204D02*
X3722D01*
X3806D02*
X3833D01*
X663Y3314D02*
X1864D01*
X1944D02*
X2019D01*
X2103D02*
X2119D01*
X2204D02*
X3722D01*
X3806D02*
X3833D01*
X663Y3317D02*
X1863D01*
X1945D02*
X2019D01*
X2103D02*
X2119D01*
X2204D02*
X3722D01*
X3806D02*
X3833D01*
X663Y3320D02*
X1863D01*
X1945D02*
X2019D01*
X2103D02*
X2119D01*
X2204D02*
X3722D01*
X3806D02*
X3833D01*
X663Y3323D02*
X1862D01*
X1946D02*
X2019D01*
X2103D02*
X2119D01*
X2204D02*
X3722D01*
X3806D02*
X3833D01*
X663Y3326D02*
X1862D01*
X1946D02*
X2019D01*
X2103D02*
X2119D01*
X2204D02*
X3722D01*
X3806D02*
X3833D01*
X663Y3329D02*
X1862D01*
X1946D02*
X2019D01*
X2103D02*
X2119D01*
X2204D02*
X3722D01*
X3806D02*
X3833D01*
X663Y3332D02*
X1862D01*
X1946D02*
X2019D01*
X2103D02*
X2119D01*
X2204D02*
X3722D01*
X3806D02*
X3833D01*
X663Y3335D02*
X1862D01*
X1946D02*
X2019D01*
X2103D02*
X2119D01*
X2204D02*
X3722D01*
X3806D02*
X3833D01*
X663Y3338D02*
X1863D01*
X1945D02*
X2019D01*
X2103D02*
X2119D01*
X2204D02*
X3722D01*
X3806D02*
X3833D01*
X663Y3341D02*
X1863D01*
X1945D02*
X2019D01*
X2103D02*
X2119D01*
X2204D02*
X3722D01*
X3806D02*
X3833D01*
X663Y3344D02*
X1864D01*
X1944D02*
X2019D01*
X2103D02*
X2119D01*
X2204D02*
X3722D01*
X3806D02*
X3833D01*
X663Y3347D02*
X1866D01*
X1942D02*
X2019D01*
X2103D02*
X2119D01*
X2204D02*
X3722D01*
X3806D02*
X3833D01*
X663Y3350D02*
X1867D01*
X1941D02*
X2019D01*
X2103D02*
X2119D01*
X2204D02*
X3722D01*
X3806D02*
X3833D01*
X663Y3353D02*
X1869D01*
X1939D02*
X2019D01*
X2103D02*
X2119D01*
X2204D02*
X3722D01*
X3806D02*
X3833D01*
X663Y3356D02*
X1871D01*
X1937D02*
X2019D01*
X2103D02*
X2119D01*
X2204D02*
X3722D01*
X3806D02*
X3833D01*
X663Y3359D02*
X1874D01*
X1934D02*
X2019D01*
X2103D02*
X2119D01*
X2204D02*
X3722D01*
X3806D02*
X3833D01*
X663Y3362D02*
X1877D01*
X1931D02*
X2019D01*
X2103D02*
X2119D01*
X2204D02*
X3722D01*
X3806D02*
X3833D01*
X663Y3365D02*
X1881D01*
X1927D02*
X2019D01*
X2103D02*
X2119D01*
X2204D02*
X3722D01*
X3806D02*
X3833D01*
X663Y3368D02*
X1887D01*
X1921D02*
X2019D01*
X2103D02*
X2119D01*
X2204D02*
X3722D01*
X3806D02*
X3833D01*
X663Y3371D02*
X1897D01*
X1911D02*
X2019D01*
X2103D02*
X2119D01*
X2204D02*
X3722D01*
X3806D02*
X3833D01*
X663Y3374D02*
X2019D01*
X2103D02*
X2119D01*
X2204D02*
X3722D01*
X3806D02*
X3833D01*
X663Y3377D02*
X2019D01*
X2103D02*
X2119D01*
X2204D02*
X3722D01*
X3806D02*
X3833D01*
X663Y3380D02*
X2019D01*
X2103D02*
X2119D01*
X2204D02*
X3722D01*
X3806D02*
X3833D01*
X663Y3383D02*
X2019D01*
X2103D02*
X2119D01*
X2204D02*
X3722D01*
X3806D02*
X3833D01*
X663Y3386D02*
X3833D01*
X663Y3389D02*
X3833D01*
X663Y3392D02*
X3833D01*
X663Y3395D02*
X3833D01*
X663Y3398D02*
X3833D01*
X663Y3401D02*
X3722D01*
X3806D02*
X3833D01*
X663Y3404D02*
X3722D01*
X3806D02*
X3833D01*
X663Y3407D02*
X3722D01*
X3806D02*
X3833D01*
X663Y3410D02*
X3722D01*
X3806D02*
X3833D01*
X663Y3413D02*
X3722D01*
X3806D02*
X3833D01*
X663Y3416D02*
X3722D01*
X3806D02*
X3833D01*
X663Y3419D02*
X3722D01*
X3806D02*
X3833D01*
X663Y3422D02*
X3722D01*
X3806D02*
X3833D01*
X663Y3425D02*
X3722D01*
X3806D02*
X3833D01*
X663Y3428D02*
X1420D01*
X1442D02*
X1721D01*
X1742D02*
X3722D01*
X3806D02*
X3833D01*
X663Y3431D02*
X1412D01*
X1450D02*
X1712D01*
X1750D02*
X3722D01*
X3806D02*
X3833D01*
X663Y3434D02*
X1407D01*
X1455D02*
X1707D01*
X1755D02*
X3722D01*
X3806D02*
X3833D01*
X663Y3437D02*
X1403D01*
X1459D02*
X1703D01*
X1759D02*
X3722D01*
X3806D02*
X3833D01*
X663Y3440D02*
X1400D01*
X1462D02*
X1700D01*
X1762D02*
X3722D01*
X3806D02*
X3833D01*
X663Y3443D02*
X1398D01*
X1465D02*
X1698D01*
X1765D02*
X3722D01*
X3806D02*
X3833D01*
X663Y3446D02*
X1395D01*
X1467D02*
X1696D01*
X1767D02*
X3722D01*
X3806D02*
X3833D01*
X663Y3449D02*
X1394D01*
X1469D02*
X1694D01*
X1768D02*
X3722D01*
X3806D02*
X3833D01*
X663Y3452D02*
X1392D01*
X1470D02*
X1692D01*
X1770D02*
X3722D01*
X3806D02*
X3833D01*
X663Y3455D02*
X1391D01*
X1471D02*
X1691D01*
X1771D02*
X3722D01*
X3806D02*
X3833D01*
X663Y3458D02*
X1390D01*
X1472D02*
X1690D01*
X1772D02*
X3722D01*
X3806D02*
X3833D01*
X663Y3461D02*
X1389D01*
X1473D02*
X1690D01*
X1773D02*
X3722D01*
X3806D02*
X3833D01*
X663Y3464D02*
X1389D01*
X1473D02*
X1689D01*
X1773D02*
X3722D01*
X3806D02*
X3833D01*
X663Y3467D02*
X1389D01*
X1474D02*
X1689D01*
X1773D02*
X3722D01*
X3806D02*
X3833D01*
X663Y3470D02*
X1389D01*
X1474D02*
X1689D01*
X1773D02*
X3722D01*
X3806D02*
X3833D01*
X663Y3473D02*
X1389D01*
X1473D02*
X1689D01*
X1773D02*
X3722D01*
X3806D02*
X3833D01*
X663Y3476D02*
X1389D01*
X1473D02*
X1689D01*
X1773D02*
X3722D01*
X3806D02*
X3833D01*
X663Y3479D02*
X1390D01*
X1472D02*
X1690D01*
X1772D02*
X3722D01*
X3806D02*
X3833D01*
X663Y3482D02*
X1391D01*
X1472D02*
X1691D01*
X1771D02*
X3722D01*
X3806D02*
X3833D01*
X663Y3485D02*
X1392D01*
X1471D02*
X1692D01*
X1770D02*
X3833D01*
X663Y3488D02*
X1393D01*
X1469D02*
X1693D01*
X1769D02*
X3833D01*
X663Y3491D02*
X1395D01*
X1468D02*
X1695D01*
X1767D02*
X3833D01*
X663Y3494D02*
X1397D01*
X1466D02*
X1697D01*
X1765D02*
X3833D01*
X663Y3497D02*
X1399D01*
X1463D02*
X1699D01*
X1763D02*
X2496D01*
X2581D02*
X2596D01*
X2681D02*
X2696D01*
X2781D02*
X2796D01*
X2881D02*
X3833D01*
X663Y3500D02*
X1402D01*
X1460D02*
X1702D01*
X1760D02*
X2496D01*
X2581D02*
X2596D01*
X2681D02*
X2696D01*
X2781D02*
X2796D01*
X2881D02*
X3833D01*
X663Y3503D02*
X1406D01*
X1457D02*
X1706D01*
X1756D02*
X2496D01*
X2581D02*
X2596D01*
X2681D02*
X2696D01*
X2781D02*
X2796D01*
X2881D02*
X3833D01*
X663Y3506D02*
X1410D01*
X1452D02*
X1711D01*
X1752D02*
X2496D01*
X2581D02*
X2596D01*
X2681D02*
X2696D01*
X2781D02*
X2796D01*
X2881D02*
X3833D01*
X663Y3509D02*
X1417D01*
X1446D02*
X1717D01*
X1745D02*
X2496D01*
X2581D02*
X2596D01*
X2681D02*
X2696D01*
X2781D02*
X2796D01*
X2881D02*
X3833D01*
X663Y3512D02*
X2496D01*
X2581D02*
X2596D01*
X2681D02*
X2696D01*
X2781D02*
X2796D01*
X2881D02*
X3833D01*
X663Y3515D02*
X2496D01*
X2581D02*
X2596D01*
X2681D02*
X2696D01*
X2781D02*
X2796D01*
X2881D02*
X3833D01*
X663Y3518D02*
X2496D01*
X2581D02*
X2596D01*
X2681D02*
X2696D01*
X2781D02*
X2796D01*
X2881D02*
X3139D01*
X3169D02*
X3833D01*
X663Y3521D02*
X2496D01*
X2581D02*
X2596D01*
X2681D02*
X2696D01*
X2781D02*
X2796D01*
X2881D02*
X3132D01*
X3175D02*
X3833D01*
X663Y3524D02*
X2496D01*
X2581D02*
X2596D01*
X2681D02*
X2696D01*
X2781D02*
X2796D01*
X2881D02*
X3128D01*
X3179D02*
X3833D01*
X663Y3527D02*
X2496D01*
X2581D02*
X2596D01*
X2681D02*
X2696D01*
X2781D02*
X2796D01*
X2881D02*
X3124D01*
X3183D02*
X3833D01*
X663Y3530D02*
X2496D01*
X2581D02*
X2596D01*
X2681D02*
X2696D01*
X2781D02*
X2796D01*
X2881D02*
X3121D01*
X3186D02*
X3833D01*
X663Y3533D02*
X2496D01*
X2581D02*
X2596D01*
X2681D02*
X2696D01*
X2781D02*
X2796D01*
X2881D02*
X3119D01*
X3188D02*
X3833D01*
X663Y3536D02*
X2496D01*
X2581D02*
X2596D01*
X2681D02*
X2696D01*
X2781D02*
X2796D01*
X2881D02*
X3117D01*
X3190D02*
X3833D01*
X663Y3539D02*
X2496D01*
X2581D02*
X2596D01*
X2681D02*
X2696D01*
X2781D02*
X2796D01*
X2881D02*
X3116D01*
X3192D02*
X3833D01*
X663Y3542D02*
X2496D01*
X2581D02*
X2596D01*
X2681D02*
X2696D01*
X2781D02*
X2796D01*
X2881D02*
X3114D01*
X3193D02*
X3833D01*
X663Y3545D02*
X2496D01*
X2581D02*
X2596D01*
X2681D02*
X2696D01*
X2781D02*
X2796D01*
X2881D02*
X3113D01*
X3194D02*
X3833D01*
X663Y3548D02*
X2496D01*
X2581D02*
X2596D01*
X2681D02*
X2696D01*
X2781D02*
X2796D01*
X2881D02*
X3112D01*
X3195D02*
X3833D01*
X663Y3551D02*
X2496D01*
X2581D02*
X2596D01*
X2681D02*
X2696D01*
X2781D02*
X2796D01*
X2881D02*
X3112D01*
X3195D02*
X3833D01*
X663Y3554D02*
X2496D01*
X2581D02*
X2596D01*
X2681D02*
X2696D01*
X2781D02*
X2796D01*
X2881D02*
X3111D01*
X3196D02*
X3833D01*
X663Y3557D02*
X2496D01*
X2581D02*
X2596D01*
X2681D02*
X2696D01*
X2781D02*
X2796D01*
X2881D02*
X3111D01*
X3196D02*
X3833D01*
X663Y3560D02*
X2496D01*
X2581D02*
X2596D01*
X2681D02*
X2696D01*
X2781D02*
X2796D01*
X2881D02*
X3111D01*
X3196D02*
X3833D01*
X663Y3563D02*
X2496D01*
X2581D02*
X2596D01*
X2681D02*
X2696D01*
X2781D02*
X2796D01*
X2881D02*
X3112D01*
X3196D02*
X3833D01*
X663Y3566D02*
X2496D01*
X2581D02*
X2596D01*
X2681D02*
X2696D01*
X2781D02*
X2796D01*
X2881D02*
X3112D01*
X3195D02*
X3833D01*
X663Y3569D02*
X2496D01*
X2581D02*
X2596D01*
X2681D02*
X2696D01*
X2781D02*
X2796D01*
X2881D02*
X3113D01*
X3194D02*
X3833D01*
X663Y3572D02*
X2496D01*
X2581D02*
X2596D01*
X2681D02*
X2696D01*
X2781D02*
X2796D01*
X2881D02*
X3114D01*
X3193D02*
X3833D01*
X663Y3575D02*
X2496D01*
X2581D02*
X2596D01*
X2681D02*
X2696D01*
X2781D02*
X2796D01*
X2881D02*
X3115D01*
X3192D02*
X3833D01*
X663Y3578D02*
X2496D01*
X2581D02*
X2596D01*
X2681D02*
X2696D01*
X2781D02*
X2796D01*
X2881D02*
X3117D01*
X3191D02*
X3833D01*
X663Y3581D02*
X3118D01*
X3189D02*
X3833D01*
X663Y3584D02*
X3121D01*
X3187D02*
X3833D01*
X663Y3587D02*
X3123D01*
X3184D02*
X3833D01*
X663Y3590D02*
X3126D01*
X3181D02*
X3833D01*
X663Y3593D02*
X3130D01*
X3177D02*
X3833D01*
X663Y3596D02*
X3136D01*
X3171D02*
X3833D01*
X663Y3599D02*
X3145D01*
X3162D02*
X3833D01*
X663Y3602D02*
X3833D01*
X663Y3605D02*
X3833D01*
X663Y3608D02*
X3833D01*
X663Y3611D02*
X3833D01*
X663Y3614D02*
X3833D01*
X663Y3617D02*
X3833D01*
X663Y3620D02*
X3833D01*
X663Y3623D02*
X3833D01*
X663Y3626D02*
X3833D01*
X663Y3629D02*
X3833D01*
X663Y3632D02*
X3833D01*
X663Y3635D02*
X3833D01*
X663Y3638D02*
X3833D01*
X663Y3641D02*
X3833D01*
X663Y3644D02*
X3833D01*
X663Y3647D02*
X3833D01*
X663Y3650D02*
X3833D01*
X663Y3653D02*
X3833D01*
D02*
D13*
X304Y969D02*
X284D01*
X329Y944D02*
Y924D01*
Y994D02*
Y1014D01*
X354Y969D02*
X374D01*
X416Y1860D02*
X396D01*
X441Y1835D02*
Y1815D01*
Y1885D02*
Y1905D01*
X442Y3321D02*
X422D01*
X466Y1860D02*
X486D01*
X467Y3296D02*
Y3276D01*
Y3346D02*
Y3366D01*
X492Y3321D02*
X512D01*
X499Y1260D02*
X479D01*
X524Y1235D02*
Y1215D01*
Y1285D02*
Y1305D01*
X535Y3114D02*
X515D01*
X549Y1260D02*
X569D01*
X550Y2745D02*
X530D01*
X560Y3089D02*
Y3069D01*
Y3139D02*
Y3159D01*
X575Y2720D02*
Y2700D01*
Y2770D02*
Y2790D01*
X600Y2745D02*
X620D01*
X750Y2622D02*
X730D01*
X775Y2597D02*
Y2577D01*
Y2647D02*
Y2667D01*
X800Y2622D02*
X820D01*
X805Y266D02*
X785D01*
X814Y1417D02*
X794D01*
X830Y241D02*
Y221D01*
Y291D02*
Y311D01*
X839Y1392D02*
Y1372D01*
Y1442D02*
Y1462D01*
X855Y266D02*
X875D01*
X864Y1417D02*
X884D01*
X1406Y3469D02*
X1386D01*
X1431Y3444D02*
Y3424D01*
Y3494D02*
Y3514D01*
X1456Y3469D02*
X1476D01*
X1810Y2817D02*
X1790D01*
X1835Y2792D02*
Y2772D01*
Y2842D02*
Y2862D01*
X1860Y2817D02*
X1880D01*
X1883Y2563D02*
X1863D01*
X1894Y2552D02*
Y2532D01*
Y2574D02*
Y2594D01*
X1905Y2563D02*
X1925D01*
X1962Y2730D02*
X1942D01*
X1973Y2719D02*
Y2699D01*
Y2741D02*
Y2761D01*
X1984Y2730D02*
X2004D01*
X1986Y266D02*
X1966D01*
X2011Y241D02*
Y221D01*
Y291D02*
Y311D01*
X2030Y2234D02*
X2010D01*
X2036Y266D02*
X2056D01*
X2055Y2209D02*
Y2189D01*
Y2259D02*
Y2279D01*
X2080Y2234D02*
X2100D01*
X2096Y2915D02*
X2076D01*
X2121Y2890D02*
Y2870D01*
Y2940D02*
Y2960D01*
X2136Y3331D02*
X2116D01*
X2146Y2915D02*
X2166D01*
X2161Y3296D02*
Y3276D01*
Y3366D02*
Y3386D01*
X2177Y752D02*
X2157D01*
X2186Y3331D02*
X2206D01*
X2202Y727D02*
Y707D01*
Y777D02*
Y797D01*
X2203Y3154D02*
X2183D01*
X2227Y752D02*
X2247D01*
X2228Y3129D02*
Y3109D01*
Y3179D02*
Y3199D01*
X2253Y3154D02*
X2273D01*
X2286Y2356D02*
X2266D01*
X2297Y2345D02*
Y2325D01*
Y2367D02*
Y2387D01*
X2308Y2356D02*
X2328D01*
X2444Y2701D02*
X2424D01*
X2455Y2690D02*
Y2670D01*
Y2712D02*
Y2732D01*
X2466Y2701D02*
X2486D01*
X2548Y2435D02*
X2528D01*
X2573Y2410D02*
Y2390D01*
Y2460D02*
Y2480D01*
X2577Y752D02*
X2557D01*
X2598Y2435D02*
X2618D01*
X2602Y727D02*
Y707D01*
Y777D02*
Y797D01*
X2617Y1904D02*
X2597D01*
X2627Y752D02*
X2647D01*
X2631Y1083D02*
X2611D01*
X2642Y1879D02*
Y1859D01*
Y1929D02*
Y1949D01*
X2656Y1058D02*
Y1038D01*
Y1108D02*
Y1128D01*
X2667Y1904D02*
X2687D01*
X2681Y1083D02*
X2701D01*
X2814Y3537D02*
X2794D01*
X2839Y3512D02*
Y3492D01*
Y3562D02*
Y3582D01*
X2864Y3537D02*
X2884D01*
D02*
D15*
X2061Y3331D03*
X2161D03*
D02*
D16*
X260Y3114D03*
X329Y969D03*
Y1269D03*
X368Y2450D03*
Y2750D03*
X441Y1860D03*
X530Y266D03*
X539Y1417D03*
X560Y3114D03*
X575Y2445D03*
Y2745D03*
X741Y1860D03*
X775Y2622D03*
X830Y266D03*
X839Y1417D03*
X880Y2770D03*
X1175Y2622D03*
X1180Y2770D03*
X1215Y1756D03*
Y2056D03*
X1218Y2199D03*
X1418Y2406D03*
X1422Y2758D03*
Y2911D03*
Y3211D03*
X1431Y3469D03*
X1618Y1756D03*
Y2056D03*
Y2199D03*
Y2406D03*
X1622Y2758D03*
X1628Y2911D03*
Y3211D03*
X1711Y266D03*
X1731Y3469D03*
X1835Y2517D03*
Y2817D03*
X1904Y2929D03*
Y3329D03*
X2011Y266D03*
X2055Y2234D03*
X2121Y2915D03*
X2202Y545D03*
Y752D03*
X2228Y3154D03*
X2355Y2234D03*
X2421Y2915D03*
X2573Y2435D03*
Y2735D03*
X2602Y545D03*
Y752D03*
X2628Y3154D03*
X2642Y1904D03*
X2656Y1083D03*
X2724Y3104D03*
X2942Y1904D03*
X2956Y1083D03*
X3124Y3104D03*
X3154Y1485D03*
Y1785D03*
Y3257D03*
Y3557D03*
X3156Y903D03*
Y1203D03*
X3163Y304D03*
Y604D03*
Y2076D03*
Y2376D03*
Y2667D03*
Y2967D03*
D02*
D17*
X367Y3321D03*
X467D03*
X2539Y3537D03*
X2639D03*
X2739D03*
X2839D03*
X3764Y3341D03*
Y3441D03*
X3774Y1569D03*
Y1669D03*
Y2160D03*
Y2260D03*
Y2740D03*
Y2840D03*
X3780Y992D03*
Y1092D03*
X3784Y378D03*
Y478D03*
D02*
D71*
X524Y460D03*
Y1260D03*
X624Y460D03*
Y1260D03*
X724Y460D03*
Y1260D03*
X824Y460D03*
Y1260D03*
X924Y460D03*
Y1260D03*
X1024Y460D03*
Y1260D03*
X1124Y460D03*
Y1260D03*
X1224Y460D03*
Y1260D03*
X1324Y460D03*
Y1260D03*
X1424Y460D03*
Y1260D03*
X1524Y460D03*
Y1260D03*
X1624Y460D03*
Y1260D03*
X1724Y460D03*
Y1260D03*
X1824Y460D03*
Y1260D03*
X1924Y460D03*
Y1260D03*
X2024Y460D03*
Y1260D03*
D02*
D22*
X1687Y2573D03*
X1864Y2209D03*
X1894Y2563D03*
X1973Y2100D03*
Y2730D03*
X2091Y2839D03*
X2297Y2356D03*
X2455Y2701D03*
D02*
D23*
X1825Y2327D03*
X2041D03*
D02*
D95*
X4Y4D02*
X3941D01*
Y3941*
X4*
Y4*
X0Y0D02*
M02*
