M48
INCH
T1C00.016
T2C00.030
T3C00.032
T4C00.035
%
T001
X01687Y02573
X01864Y02209
X01894Y02563
X01973Y02100
X01973Y02730
X02091Y02839
X02297Y02356
X02455Y02701
T002
X00524Y00460
X00524Y01260
X00624Y00460
X00624Y01260
X00724Y00460
X00724Y01260
X00824Y00460
X00824Y01260
X00924Y00460
X00924Y01260
X01024Y00460
X01024Y01260
X01124Y00460
X01124Y01260
X01224Y00460
X01224Y01260
X01324Y00460
X01324Y01260
X01424Y00460
X01424Y01260
X01524Y00460
X01524Y01260
X01624Y00460
X01624Y01260
X01724Y00460
X01724Y01260
X01824Y00460
X01824Y01260
X01924Y00460
X01924Y01260
X02024Y00460
X02024Y01260
X02061Y03331
X02161Y03331
T003
X00260Y03114
X00329Y00969
X00329Y01269
X00368Y02450
X00368Y02750
X00441Y01860
X00530Y00266
X00539Y01417
X00560Y03114
X00575Y02445
X00575Y02745
X00741Y01860
X00775Y02622
X00830Y00266
X00839Y01417
X00880Y02770
X01175Y02622
X01180Y02770
X01215Y01756
X01215Y02056
X01218Y02199
X01418Y02406
X01422Y02758
X01422Y02911
X01422Y03211
X01431Y03469
X01618Y01756
X01618Y02056
X01618Y02199
X01618Y02406
X01622Y02758
X01628Y02911
X01628Y03211
X01711Y00266
X01731Y03469
X01825Y02327
X01835Y02517
X01835Y02817
X01904Y02929
X01904Y03329
X02011Y00266
X02041Y02327
X02055Y02234
X02121Y02915
X02202Y00545
X02202Y00752
X02228Y03154
X02355Y02234
X02421Y02915
X02573Y02435
X02573Y02735
X02602Y00545
X02602Y00752
X02628Y03154
X02642Y01904
X02656Y01083
X02724Y03104
X02942Y01904
X02956Y01083
X03124Y03104
X03154Y01485
X03154Y01785
X03154Y03257
X03154Y03557
X03156Y00903
X03156Y01203
X03163Y00304
X03163Y00604
X03163Y02076
X03163Y02376
X03163Y02667
X03163Y02967
T004
X00367Y03321
X00467Y03321
X02539Y03537
X02639Y03537
X02739Y03537
X02839Y03537
X03764Y03341
X03764Y03441
X03774Y01569
X03774Y01669
X03774Y02160
X03774Y02260
X03774Y02740
X03774Y02840
X03780Y00992
X03780Y01092
X03784Y00378
X03784Y00478
M30
