%FSLAX23Y23*%
%MOIN*%
G04 EasyPC Gerber Version 12.0.1 Build 2704 *
%ADD19R,0.01181X0.04724*%
%ADD100R,0.05500X0.06000*%
%ADD103R,0.07000X0.12600*%
%ADD18R,0.07480X0.10236*%
%ADD101R,0.06000X0.06000*%
%ADD99R,0.06300X0.06300*%
%ADD12C,0.00500*%
%ADD21C,0.00787*%
%ADD13C,0.01000*%
%ADD106C,0.01500*%
%ADD105C,0.03189*%
%ADD22C,0.03200*%
%ADD97C,0.06000*%
%ADD70R,0.04724X0.01181*%
%ADD104R,0.03150X0.01575*%
%ADD98R,0.06000X0.05500*%
%ADD102R,0.12600X0.07000*%
X0Y0D02*
D02*
D12*
X3Y3D02*
X3937D01*
Y1811*
X3*
Y3*
X309Y1108D02*
X150D01*
Y646*
X347*
Y321*
X898*
Y1092*
X503*
X498Y1093*
Y1082*
X683*
X688Y1081*
X693Y1078*
X725Y1046*
X764*
Y972*
X739*
Y929*
X748Y925*
X756Y920*
X763Y912*
X767Y903*
X769Y893*
X787*
Y900*
X869*
Y818*
X787*
Y864*
X759*
X750Y857*
X740Y852*
X730Y851*
X719Y852*
X710Y856*
X702Y862*
X696Y871*
X692Y880*
X690Y890*
X691Y900*
X695Y910*
X701Y918*
X710Y924*
Y972*
X685*
Y1045*
X677Y1053*
X485*
X493Y1046*
X567*
Y972*
X542*
Y928*
X551Y924*
X558Y917*
X564Y909*
X568Y900*
X569Y890*
X584Y875*
X674*
X679Y874*
X684Y871*
X789Y766*
X869*
Y684*
X787*
Y726*
X668Y846*
X578*
X573Y847*
X568Y850*
X557Y862*
X549Y856*
X539Y852*
X530Y851*
X519Y852*
X509Y857*
X501Y863*
X495Y872*
X491Y882*
X490Y892*
X492Y903*
X497Y912*
X504Y920*
X513Y926*
Y972*
X488*
Y1010*
X460Y1037*
Y849*
X505Y805*
X537Y774*
X540Y769*
X547Y765*
X553Y759*
X558Y753*
X614*
Y778*
X688*
Y699*
X614*
Y724*
X562*
X559Y714*
X552Y706*
X544Y699*
X534Y695*
X524Y693*
X513Y695*
X503Y699*
X495Y706*
X488Y715*
X485Y726*
X484Y737*
X487Y747*
X492Y757*
X500Y765*
X482Y782*
X482Y782*
X441Y823*
Y769*
X450Y763*
X457Y755*
X461Y745*
X463Y735*
X462Y724*
X459Y714*
X452Y706*
X444Y699*
X434Y695*
X424Y693*
X414Y695*
X406Y698*
X398Y703*
X391Y710*
X387Y718*
X342*
Y696*
X263*
Y770*
X342*
Y747*
X387*
X392Y757*
X399Y764*
X408Y769*
Y976*
X385Y952*
Y908*
X303*
Y990*
X382*
X390Y999*
Y1108*
X338*
Y1086*
X363*
Y1012*
X284*
Y1086*
X309*
Y1108*
X170Y773D02*
X255D01*
Y693*
X170*
Y773*
X184Y812D02*
X186Y820D01*
X190Y828*
X196Y835*
X204Y839*
X213Y840*
X222Y839*
X230Y835*
X236Y828*
X240Y820*
X241Y812*
X240Y803*
X236Y795*
X230Y789*
X222Y785*
X213Y783*
X204Y785*
X196Y789*
X190Y795*
X186Y803*
X184Y812*
X195Y990D02*
Y1012D01*
X194*
Y1086*
X273*
Y1012*
X224*
Y990*
X251*
Y908*
X169*
Y990*
X195*
X593Y969D02*
X575D01*
Y1049*
X660*
Y969*
X640*
X644Y961*
X645Y953*
X644Y944*
X640Y936*
X633Y930*
X625Y926*
X617Y924*
X608Y926*
X600Y930*
X594Y936*
X590Y944*
X588Y953*
X589Y961*
X593Y969*
X611Y606D02*
Y691D01*
X691*
Y606*
X611*
X622Y575D02*
X624Y584D01*
X628Y592*
X634Y598*
X642Y603*
X651Y604*
X660Y603*
X668Y598*
X674Y592*
X678Y584*
X679Y575*
X678Y567*
X674Y559*
X668Y552*
X660Y548*
X651Y547*
X642Y548*
X634Y552*
X628Y559*
X624Y567*
X622Y575*
X704Y404D02*
X741D01*
Y431*
X886*
Y342*
X741*
Y370*
X717*
X712Y363*
X706Y357*
X699Y354*
X690Y353*
X682Y355*
X675Y358*
X669Y364*
X666Y372*
X664Y380*
X666Y388*
X669Y395*
X674Y401*
X681Y405*
X689Y407*
X697Y407*
X704Y404*
X857Y969D02*
X772D01*
Y1049*
X857*
Y969*
X889Y539D02*
X738D01*
Y634*
X889*
Y539*
X347Y322D02*
X898D01*
X347Y325D02*
X898D01*
X347Y328D02*
X898D01*
X347Y331D02*
X898D01*
X347Y334D02*
X898D01*
X347Y337D02*
X898D01*
X347Y340D02*
X898D01*
X347Y343D02*
X741D01*
X886D02*
X898D01*
X347Y346D02*
X741D01*
X886D02*
X898D01*
X347Y349D02*
X741D01*
X886D02*
X898D01*
X347Y352D02*
X741D01*
X886D02*
X898D01*
X347Y355D02*
X680D01*
X703D02*
X741D01*
X886D02*
X898D01*
X347Y358D02*
X675D01*
X708D02*
X741D01*
X886D02*
X898D01*
X347Y361D02*
X672D01*
X711D02*
X741D01*
X886D02*
X898D01*
X347Y364D02*
X669D01*
X714D02*
X741D01*
X886D02*
X898D01*
X347Y367D02*
X668D01*
X715D02*
X741D01*
X886D02*
X898D01*
X347Y370D02*
X666D01*
X886D02*
X898D01*
X347Y373D02*
X665D01*
X886D02*
X898D01*
X347Y376D02*
X665D01*
X886D02*
X898D01*
X347Y379D02*
X664D01*
X886D02*
X898D01*
X347Y382D02*
X665D01*
X886D02*
X898D01*
X347Y385D02*
X665D01*
X886D02*
X898D01*
X347Y388D02*
X666D01*
X886D02*
X898D01*
X347Y391D02*
X667D01*
X886D02*
X898D01*
X347Y394D02*
X669D01*
X886D02*
X898D01*
X347Y397D02*
X671D01*
X886D02*
X898D01*
X347Y400D02*
X674D01*
X886D02*
X898D01*
X347Y403D02*
X678D01*
X886D02*
X898D01*
X347Y406D02*
X685D01*
X698D02*
X741D01*
X886D02*
X898D01*
X347Y409D02*
X741D01*
X886D02*
X898D01*
X347Y412D02*
X741D01*
X886D02*
X898D01*
X347Y415D02*
X741D01*
X886D02*
X898D01*
X347Y418D02*
X741D01*
X886D02*
X898D01*
X347Y421D02*
X741D01*
X886D02*
X898D01*
X347Y424D02*
X741D01*
X886D02*
X898D01*
X347Y427D02*
X741D01*
X886D02*
X898D01*
X347Y430D02*
X741D01*
X886D02*
X898D01*
X347Y433D02*
X898D01*
X347Y436D02*
X898D01*
X347Y439D02*
X898D01*
X347Y442D02*
X898D01*
X347Y445D02*
X898D01*
X347Y448D02*
X898D01*
X347Y451D02*
X898D01*
X347Y454D02*
X898D01*
X347Y457D02*
X898D01*
X347Y460D02*
X898D01*
X347Y463D02*
X898D01*
X347Y466D02*
X898D01*
X347Y469D02*
X898D01*
X347Y472D02*
X898D01*
X347Y475D02*
X898D01*
X347Y478D02*
X898D01*
X347Y481D02*
X898D01*
X347Y484D02*
X898D01*
X347Y487D02*
X898D01*
X347Y490D02*
X898D01*
X347Y493D02*
X898D01*
X347Y496D02*
X898D01*
X347Y499D02*
X898D01*
X347Y502D02*
X898D01*
X347Y505D02*
X898D01*
X347Y508D02*
X898D01*
X347Y511D02*
X898D01*
X347Y514D02*
X898D01*
X347Y517D02*
X898D01*
X347Y520D02*
X898D01*
X347Y523D02*
X898D01*
X347Y526D02*
X898D01*
X347Y529D02*
X898D01*
X347Y532D02*
X898D01*
X347Y535D02*
X898D01*
X347Y538D02*
X898D01*
X347Y541D02*
X738D01*
X889D02*
X898D01*
X347Y544D02*
X738D01*
X889D02*
X898D01*
X347Y547D02*
X647D01*
X655D02*
X738D01*
X889D02*
X898D01*
X347Y550D02*
X638D01*
X664D02*
X738D01*
X889D02*
X898D01*
X347Y553D02*
X633D01*
X669D02*
X738D01*
X889D02*
X898D01*
X347Y556D02*
X630D01*
X672D02*
X738D01*
X889D02*
X898D01*
X347Y559D02*
X627D01*
X674D02*
X738D01*
X889D02*
X898D01*
X347Y562D02*
X626D01*
X676D02*
X738D01*
X889D02*
X898D01*
X347Y565D02*
X624D01*
X678D02*
X738D01*
X889D02*
X898D01*
X347Y568D02*
X623D01*
X678D02*
X738D01*
X889D02*
X898D01*
X347Y571D02*
X623D01*
X679D02*
X738D01*
X889D02*
X898D01*
X347Y574D02*
X623D01*
X679D02*
X738D01*
X889D02*
X898D01*
X347Y577D02*
X623D01*
X679D02*
X738D01*
X889D02*
X898D01*
X347Y580D02*
X623D01*
X679D02*
X738D01*
X889D02*
X898D01*
X347Y583D02*
X624D01*
X678D02*
X738D01*
X889D02*
X898D01*
X347Y586D02*
X625D01*
X677D02*
X738D01*
X889D02*
X898D01*
X347Y589D02*
X626D01*
X676D02*
X738D01*
X889D02*
X898D01*
X347Y592D02*
X628D01*
X674D02*
X738D01*
X889D02*
X898D01*
X347Y595D02*
X631D01*
X671D02*
X738D01*
X889D02*
X898D01*
X347Y598D02*
X634D01*
X668D02*
X738D01*
X889D02*
X898D01*
X347Y601D02*
X639D01*
X663D02*
X738D01*
X889D02*
X898D01*
X347Y604D02*
X738D01*
X889D02*
X898D01*
X347Y607D02*
X611D01*
X691D02*
X738D01*
X889D02*
X898D01*
X347Y610D02*
X611D01*
X691D02*
X738D01*
X889D02*
X898D01*
X347Y613D02*
X611D01*
X691D02*
X738D01*
X889D02*
X898D01*
X347Y616D02*
X611D01*
X691D02*
X738D01*
X889D02*
X898D01*
X347Y619D02*
X611D01*
X691D02*
X738D01*
X889D02*
X898D01*
X347Y622D02*
X611D01*
X691D02*
X738D01*
X889D02*
X898D01*
X347Y625D02*
X611D01*
X691D02*
X738D01*
X889D02*
X898D01*
X347Y628D02*
X611D01*
X691D02*
X738D01*
X889D02*
X898D01*
X347Y631D02*
X611D01*
X691D02*
X738D01*
X889D02*
X898D01*
X347Y634D02*
X611D01*
X691D02*
X738D01*
X889D02*
X898D01*
X347Y637D02*
X611D01*
X691D02*
X898D01*
X347Y640D02*
X611D01*
X691D02*
X898D01*
X347Y643D02*
X611D01*
X691D02*
X898D01*
X150Y646D02*
X611D01*
X691D02*
X898D01*
X150Y649D02*
X611D01*
X691D02*
X898D01*
X150Y652D02*
X611D01*
X691D02*
X898D01*
X150Y655D02*
X611D01*
X691D02*
X898D01*
X150Y658D02*
X611D01*
X691D02*
X898D01*
X150Y661D02*
X611D01*
X691D02*
X898D01*
X150Y664D02*
X611D01*
X691D02*
X898D01*
X150Y667D02*
X611D01*
X691D02*
X898D01*
X150Y670D02*
X611D01*
X691D02*
X898D01*
X150Y673D02*
X611D01*
X691D02*
X898D01*
X150Y676D02*
X611D01*
X691D02*
X898D01*
X150Y679D02*
X611D01*
X691D02*
X898D01*
X150Y682D02*
X611D01*
X691D02*
X898D01*
X150Y685D02*
X611D01*
X691D02*
X787D01*
X869D02*
X898D01*
X150Y688D02*
X611D01*
X691D02*
X787D01*
X869D02*
X898D01*
X150Y691D02*
X787D01*
X869D02*
X898D01*
X150Y694D02*
X170D01*
X255D02*
X415D01*
X432D02*
X515D01*
X532D02*
X787D01*
X869D02*
X898D01*
X150Y697D02*
X170D01*
X255D02*
X263D01*
X342D02*
X407D01*
X441D02*
X507D01*
X541D02*
X787D01*
X869D02*
X898D01*
X150Y700D02*
X170D01*
X255D02*
X263D01*
X342D02*
X401D01*
X446D02*
X501D01*
X546D02*
X614D01*
X688D02*
X787D01*
X869D02*
X898D01*
X150Y703D02*
X170D01*
X255D02*
X263D01*
X342D02*
X398D01*
X450D02*
X498D01*
X550D02*
X614D01*
X688D02*
X787D01*
X869D02*
X898D01*
X150Y706D02*
X170D01*
X255D02*
X263D01*
X342D02*
X395D01*
X453D02*
X495D01*
X553D02*
X614D01*
X688D02*
X787D01*
X869D02*
X898D01*
X150Y709D02*
X170D01*
X255D02*
X263D01*
X342D02*
X392D01*
X455D02*
X492D01*
X555D02*
X614D01*
X688D02*
X787D01*
X869D02*
X898D01*
X150Y712D02*
X170D01*
X255D02*
X263D01*
X342D02*
X390D01*
X457D02*
X490D01*
X557D02*
X614D01*
X688D02*
X787D01*
X869D02*
X898D01*
X150Y715D02*
X170D01*
X255D02*
X263D01*
X342D02*
X388D01*
X459D02*
X488D01*
X559D02*
X614D01*
X688D02*
X787D01*
X869D02*
X898D01*
X150Y718D02*
X170D01*
X255D02*
X263D01*
X342D02*
X387D01*
X460D02*
X487D01*
X560D02*
X614D01*
X688D02*
X787D01*
X869D02*
X898D01*
X150Y721D02*
X170D01*
X255D02*
X263D01*
X462D02*
X486D01*
X562D02*
X614D01*
X688D02*
X787D01*
X869D02*
X898D01*
X150Y724D02*
X170D01*
X255D02*
X263D01*
X462D02*
X485D01*
X688D02*
X787D01*
X869D02*
X898D01*
X150Y727D02*
X170D01*
X255D02*
X263D01*
X463D02*
X485D01*
X688D02*
X786D01*
X869D02*
X898D01*
X150Y730D02*
X170D01*
X255D02*
X263D01*
X463D02*
X484D01*
X688D02*
X783D01*
X869D02*
X898D01*
X150Y733D02*
X170D01*
X255D02*
X263D01*
X463D02*
X484D01*
X688D02*
X780D01*
X869D02*
X898D01*
X150Y736D02*
X170D01*
X255D02*
X263D01*
X463D02*
X484D01*
X688D02*
X777D01*
X869D02*
X898D01*
X150Y739D02*
X170D01*
X255D02*
X263D01*
X463D02*
X485D01*
X688D02*
X774D01*
X869D02*
X898D01*
X150Y742D02*
X170D01*
X255D02*
X263D01*
X462D02*
X485D01*
X688D02*
X771D01*
X869D02*
X898D01*
X150Y745D02*
X170D01*
X255D02*
X263D01*
X461D02*
X486D01*
X688D02*
X768D01*
X869D02*
X898D01*
X150Y748D02*
X170D01*
X255D02*
X263D01*
X342D02*
X387D01*
X460D02*
X487D01*
X688D02*
X765D01*
X869D02*
X898D01*
X150Y751D02*
X170D01*
X255D02*
X263D01*
X342D02*
X389D01*
X459D02*
X489D01*
X688D02*
X762D01*
X869D02*
X898D01*
X150Y754D02*
X170D01*
X255D02*
X263D01*
X342D02*
X391D01*
X457D02*
X491D01*
X557D02*
X614D01*
X688D02*
X759D01*
X869D02*
X898D01*
X150Y757D02*
X170D01*
X255D02*
X263D01*
X342D02*
X393D01*
X455D02*
X493D01*
X555D02*
X614D01*
X688D02*
X756D01*
X869D02*
X898D01*
X150Y760D02*
X170D01*
X255D02*
X263D01*
X342D02*
X395D01*
X452D02*
X495D01*
X552D02*
X614D01*
X688D02*
X753D01*
X869D02*
X898D01*
X150Y763D02*
X170D01*
X255D02*
X263D01*
X342D02*
X399D01*
X449D02*
X499D01*
X549D02*
X614D01*
X688D02*
X750D01*
X869D02*
X898D01*
X150Y766D02*
X170D01*
X255D02*
X263D01*
X342D02*
X403D01*
X445D02*
X498D01*
X545D02*
X614D01*
X688D02*
X747D01*
X788D02*
X898D01*
X150Y769D02*
X170D01*
X255D02*
X263D01*
X342D02*
X408D01*
X441D02*
X495D01*
X540D02*
X614D01*
X688D02*
X744D01*
X785D02*
X898D01*
X150Y772D02*
X170D01*
X255D02*
X408D01*
X441D02*
X492D01*
X538D02*
X614D01*
X688D02*
X741D01*
X782D02*
X898D01*
X150Y775D02*
X408D01*
X441D02*
X489D01*
X535D02*
X614D01*
X688D02*
X738D01*
X779D02*
X898D01*
X150Y778D02*
X408D01*
X441D02*
X486D01*
X532D02*
X735D01*
X776D02*
X898D01*
X150Y781D02*
X408D01*
X441D02*
X483D01*
X529D02*
X732D01*
X773D02*
X898D01*
X150Y784D02*
X205D01*
X221D02*
X408D01*
X441D02*
X480D01*
X526D02*
X729D01*
X770D02*
X898D01*
X150Y787D02*
X198D01*
X228D02*
X408D01*
X441D02*
X477D01*
X523D02*
X726D01*
X767D02*
X898D01*
X150Y790D02*
X194D01*
X232D02*
X408D01*
X441D02*
X474D01*
X520D02*
X723D01*
X764D02*
X898D01*
X150Y793D02*
X191D01*
X235D02*
X408D01*
X441D02*
X471D01*
X517D02*
X720D01*
X761D02*
X898D01*
X150Y796D02*
X189D01*
X237D02*
X408D01*
X441D02*
X468D01*
X514D02*
X717D01*
X758D02*
X898D01*
X150Y799D02*
X187D01*
X239D02*
X408D01*
X441D02*
X465D01*
X510D02*
X714D01*
X755D02*
X898D01*
X150Y802D02*
X186D01*
X240D02*
X408D01*
X441D02*
X462D01*
X507D02*
X711D01*
X752D02*
X898D01*
X150Y805D02*
X185D01*
X241D02*
X408D01*
X441D02*
X459D01*
X504D02*
X708D01*
X749D02*
X898D01*
X150Y808D02*
X185D01*
X241D02*
X408D01*
X441D02*
X456D01*
X501D02*
X705D01*
X746D02*
X898D01*
X150Y811D02*
X184D01*
X241D02*
X408D01*
X441D02*
X453D01*
X498D02*
X702D01*
X743D02*
X898D01*
X150Y814D02*
X185D01*
X241D02*
X408D01*
X441D02*
X450D01*
X495D02*
X699D01*
X740D02*
X898D01*
X150Y817D02*
X185D01*
X241D02*
X408D01*
X441D02*
X447D01*
X492D02*
X696D01*
X737D02*
X898D01*
X150Y820D02*
X186D01*
X240D02*
X408D01*
X441D02*
X444D01*
X489D02*
X693D01*
X734D02*
X787D01*
X869D02*
X898D01*
X150Y823D02*
X187D01*
X239D02*
X408D01*
X441D02*
X441D01*
X486D02*
X690D01*
X731D02*
X787D01*
X869D02*
X898D01*
X150Y826D02*
X189D01*
X237D02*
X408D01*
X483D02*
X687D01*
X728D02*
X787D01*
X869D02*
X898D01*
X150Y829D02*
X191D01*
X235D02*
X408D01*
X480D02*
X684D01*
X725D02*
X787D01*
X869D02*
X898D01*
X150Y832D02*
X193D01*
X232D02*
X408D01*
X477D02*
X681D01*
X722D02*
X787D01*
X869D02*
X898D01*
X150Y835D02*
X197D01*
X229D02*
X408D01*
X474D02*
X678D01*
X719D02*
X787D01*
X869D02*
X898D01*
X150Y838D02*
X203D01*
X223D02*
X408D01*
X471D02*
X675D01*
X716D02*
X787D01*
X869D02*
X898D01*
X150Y841D02*
X408D01*
X468D02*
X672D01*
X713D02*
X787D01*
X869D02*
X898D01*
X150Y844D02*
X408D01*
X465D02*
X669D01*
X710D02*
X787D01*
X869D02*
X898D01*
X150Y847D02*
X408D01*
X462D02*
X572D01*
X707D02*
X787D01*
X869D02*
X898D01*
X150Y850D02*
X408D01*
X460D02*
X568D01*
X704D02*
X787D01*
X869D02*
X898D01*
X150Y853D02*
X408D01*
X460D02*
X516D01*
X543D02*
X565D01*
X701D02*
X716D01*
X743D02*
X787D01*
X869D02*
X898D01*
X150Y856D02*
X408D01*
X460D02*
X510D01*
X550D02*
X562D01*
X698D02*
X710D01*
X750D02*
X787D01*
X869D02*
X898D01*
X150Y859D02*
X408D01*
X460D02*
X505D01*
X554D02*
X559D01*
X695D02*
X705D01*
X754D02*
X787D01*
X869D02*
X898D01*
X150Y862D02*
X408D01*
X460D02*
X502D01*
X692D02*
X702D01*
X757D02*
X787D01*
X869D02*
X898D01*
X150Y865D02*
X408D01*
X460D02*
X499D01*
X689D02*
X699D01*
X869D02*
X898D01*
X150Y868D02*
X408D01*
X460D02*
X497D01*
X686D02*
X697D01*
X869D02*
X898D01*
X150Y871D02*
X408D01*
X460D02*
X495D01*
X683D02*
X695D01*
X869D02*
X898D01*
X150Y874D02*
X408D01*
X460D02*
X494D01*
X677D02*
X694D01*
X869D02*
X898D01*
X150Y877D02*
X408D01*
X460D02*
X492D01*
X582D02*
X692D01*
X869D02*
X898D01*
X150Y880D02*
X408D01*
X460D02*
X491D01*
X579D02*
X691D01*
X869D02*
X898D01*
X150Y883D02*
X408D01*
X460D02*
X491D01*
X576D02*
X691D01*
X869D02*
X898D01*
X150Y886D02*
X408D01*
X460D02*
X490D01*
X573D02*
X690D01*
X869D02*
X898D01*
X150Y889D02*
X408D01*
X460D02*
X490D01*
X570D02*
X690D01*
X869D02*
X898D01*
X150Y892D02*
X408D01*
X460D02*
X490D01*
X569D02*
X690D01*
X869D02*
X898D01*
X150Y895D02*
X408D01*
X460D02*
X490D01*
X569D02*
X690D01*
X769D02*
X787D01*
X869D02*
X898D01*
X150Y898D02*
X408D01*
X460D02*
X491D01*
X568D02*
X691D01*
X768D02*
X787D01*
X869D02*
X898D01*
X150Y901D02*
X408D01*
X460D02*
X492D01*
X568D02*
X692D01*
X768D02*
X898D01*
X150Y904D02*
X408D01*
X460D02*
X493D01*
X567D02*
X693D01*
X767D02*
X898D01*
X150Y907D02*
X408D01*
X460D02*
X494D01*
X565D02*
X694D01*
X765D02*
X898D01*
X150Y910D02*
X169D01*
X251D02*
X303D01*
X385D02*
X408D01*
X460D02*
X496D01*
X564D02*
X696D01*
X764D02*
X898D01*
X150Y913D02*
X169D01*
X251D02*
X303D01*
X385D02*
X408D01*
X460D02*
X497D01*
X562D02*
X697D01*
X762D02*
X898D01*
X150Y916D02*
X169D01*
X251D02*
X303D01*
X385D02*
X408D01*
X460D02*
X500D01*
X559D02*
X700D01*
X759D02*
X898D01*
X150Y919D02*
X169D01*
X251D02*
X303D01*
X385D02*
X408D01*
X460D02*
X503D01*
X557D02*
X703D01*
X757D02*
X898D01*
X150Y922D02*
X169D01*
X251D02*
X303D01*
X385D02*
X408D01*
X460D02*
X506D01*
X553D02*
X706D01*
X753D02*
X898D01*
X150Y925D02*
X169D01*
X251D02*
X303D01*
X385D02*
X408D01*
X460D02*
X511D01*
X548D02*
X609D01*
X624D02*
X710D01*
X748D02*
X898D01*
X150Y928D02*
X169D01*
X251D02*
X303D01*
X385D02*
X408D01*
X460D02*
X513D01*
X542D02*
X602D01*
X631D02*
X710D01*
X741D02*
X898D01*
X150Y931D02*
X169D01*
X251D02*
X303D01*
X385D02*
X408D01*
X460D02*
X513D01*
X542D02*
X598D01*
X635D02*
X710D01*
X739D02*
X898D01*
X150Y934D02*
X169D01*
X251D02*
X303D01*
X385D02*
X408D01*
X460D02*
X513D01*
X542D02*
X595D01*
X638D02*
X710D01*
X739D02*
X898D01*
X150Y937D02*
X169D01*
X251D02*
X303D01*
X385D02*
X408D01*
X460D02*
X513D01*
X542D02*
X593D01*
X641D02*
X710D01*
X739D02*
X898D01*
X150Y940D02*
X169D01*
X251D02*
X303D01*
X385D02*
X408D01*
X460D02*
X513D01*
X542D02*
X591D01*
X642D02*
X710D01*
X739D02*
X898D01*
X150Y943D02*
X169D01*
X251D02*
X303D01*
X385D02*
X408D01*
X460D02*
X513D01*
X542D02*
X590D01*
X643D02*
X710D01*
X739D02*
X898D01*
X150Y946D02*
X169D01*
X251D02*
X303D01*
X385D02*
X408D01*
X460D02*
X513D01*
X542D02*
X589D01*
X644D02*
X710D01*
X739D02*
X898D01*
X150Y949D02*
X169D01*
X251D02*
X303D01*
X385D02*
X408D01*
X460D02*
X513D01*
X542D02*
X588D01*
X645D02*
X710D01*
X739D02*
X898D01*
X150Y952D02*
X169D01*
X251D02*
X303D01*
X385D02*
X408D01*
X460D02*
X513D01*
X542D02*
X588D01*
X645D02*
X710D01*
X739D02*
X898D01*
X150Y955D02*
X169D01*
X251D02*
X303D01*
X388D02*
X408D01*
X460D02*
X513D01*
X542D02*
X588D01*
X645D02*
X710D01*
X739D02*
X898D01*
X150Y958D02*
X169D01*
X251D02*
X303D01*
X391D02*
X408D01*
X460D02*
X513D01*
X542D02*
X589D01*
X645D02*
X710D01*
X739D02*
X898D01*
X150Y961D02*
X169D01*
X251D02*
X303D01*
X394D02*
X408D01*
X460D02*
X513D01*
X542D02*
X590D01*
X644D02*
X710D01*
X739D02*
X898D01*
X150Y964D02*
X169D01*
X251D02*
X303D01*
X397D02*
X408D01*
X460D02*
X513D01*
X542D02*
X591D01*
X643D02*
X710D01*
X739D02*
X898D01*
X150Y967D02*
X169D01*
X251D02*
X303D01*
X400D02*
X408D01*
X460D02*
X513D01*
X542D02*
X592D01*
X641D02*
X710D01*
X739D02*
X898D01*
X150Y970D02*
X169D01*
X251D02*
X303D01*
X403D02*
X408D01*
X460D02*
X513D01*
X542D02*
X575D01*
X660D02*
X710D01*
X739D02*
X772D01*
X857D02*
X898D01*
X150Y973D02*
X169D01*
X251D02*
X303D01*
X406D02*
X408D01*
X460D02*
X488D01*
X567D02*
X575D01*
X660D02*
X685D01*
X764D02*
X772D01*
X857D02*
X898D01*
X150Y976D02*
X169D01*
X251D02*
X303D01*
X460D02*
X488D01*
X567D02*
X575D01*
X660D02*
X685D01*
X764D02*
X772D01*
X857D02*
X898D01*
X150Y979D02*
X169D01*
X251D02*
X303D01*
X460D02*
X488D01*
X567D02*
X575D01*
X660D02*
X685D01*
X764D02*
X772D01*
X857D02*
X898D01*
X150Y982D02*
X169D01*
X251D02*
X303D01*
X460D02*
X488D01*
X567D02*
X575D01*
X660D02*
X685D01*
X764D02*
X772D01*
X857D02*
X898D01*
X150Y985D02*
X169D01*
X251D02*
X303D01*
X460D02*
X488D01*
X567D02*
X575D01*
X660D02*
X685D01*
X764D02*
X772D01*
X857D02*
X898D01*
X150Y988D02*
X169D01*
X251D02*
X303D01*
X460D02*
X488D01*
X567D02*
X575D01*
X660D02*
X685D01*
X764D02*
X772D01*
X857D02*
X898D01*
X150Y991D02*
X195D01*
X224D02*
X383D01*
X460D02*
X488D01*
X567D02*
X575D01*
X660D02*
X685D01*
X764D02*
X772D01*
X857D02*
X898D01*
X150Y994D02*
X195D01*
X224D02*
X386D01*
X460D02*
X488D01*
X567D02*
X575D01*
X660D02*
X685D01*
X764D02*
X772D01*
X857D02*
X898D01*
X150Y997D02*
X195D01*
X224D02*
X389D01*
X460D02*
X488D01*
X567D02*
X575D01*
X660D02*
X685D01*
X764D02*
X772D01*
X857D02*
X898D01*
X150Y1000D02*
X195D01*
X224D02*
X390D01*
X460D02*
X488D01*
X567D02*
X575D01*
X660D02*
X685D01*
X764D02*
X772D01*
X857D02*
X898D01*
X150Y1003D02*
X195D01*
X224D02*
X390D01*
X460D02*
X488D01*
X567D02*
X575D01*
X660D02*
X685D01*
X764D02*
X772D01*
X857D02*
X898D01*
X150Y1006D02*
X195D01*
X224D02*
X390D01*
X460D02*
X488D01*
X567D02*
X575D01*
X660D02*
X685D01*
X764D02*
X772D01*
X857D02*
X898D01*
X150Y1009D02*
X195D01*
X224D02*
X390D01*
X460D02*
X488D01*
X567D02*
X575D01*
X660D02*
X685D01*
X764D02*
X772D01*
X857D02*
X898D01*
X150Y1012D02*
X194D01*
X273D02*
X284D01*
X363D02*
X390D01*
X460D02*
X485D01*
X567D02*
X575D01*
X660D02*
X685D01*
X764D02*
X772D01*
X857D02*
X898D01*
X150Y1015D02*
X194D01*
X273D02*
X284D01*
X363D02*
X390D01*
X460D02*
X482D01*
X567D02*
X575D01*
X660D02*
X685D01*
X764D02*
X772D01*
X857D02*
X898D01*
X150Y1018D02*
X194D01*
X273D02*
X284D01*
X363D02*
X390D01*
X460D02*
X479D01*
X567D02*
X575D01*
X660D02*
X685D01*
X764D02*
X772D01*
X857D02*
X898D01*
X150Y1021D02*
X194D01*
X273D02*
X284D01*
X363D02*
X390D01*
X460D02*
X476D01*
X567D02*
X575D01*
X660D02*
X685D01*
X764D02*
X772D01*
X857D02*
X898D01*
X150Y1024D02*
X194D01*
X273D02*
X284D01*
X363D02*
X390D01*
X460D02*
X473D01*
X567D02*
X575D01*
X660D02*
X685D01*
X764D02*
X772D01*
X857D02*
X898D01*
X150Y1027D02*
X194D01*
X273D02*
X284D01*
X363D02*
X390D01*
X460D02*
X470D01*
X567D02*
X575D01*
X660D02*
X685D01*
X764D02*
X772D01*
X857D02*
X898D01*
X150Y1030D02*
X194D01*
X273D02*
X284D01*
X363D02*
X390D01*
X460D02*
X467D01*
X567D02*
X575D01*
X660D02*
X685D01*
X764D02*
X772D01*
X857D02*
X898D01*
X150Y1033D02*
X194D01*
X273D02*
X284D01*
X363D02*
X390D01*
X460D02*
X464D01*
X567D02*
X575D01*
X660D02*
X685D01*
X764D02*
X772D01*
X857D02*
X898D01*
X150Y1036D02*
X194D01*
X273D02*
X284D01*
X363D02*
X390D01*
X460D02*
X461D01*
X567D02*
X575D01*
X660D02*
X685D01*
X764D02*
X772D01*
X857D02*
X898D01*
X150Y1039D02*
X194D01*
X273D02*
X284D01*
X363D02*
X390D01*
X567D02*
X575D01*
X660D02*
X685D01*
X764D02*
X772D01*
X857D02*
X898D01*
X150Y1042D02*
X194D01*
X273D02*
X284D01*
X363D02*
X390D01*
X567D02*
X575D01*
X660D02*
X685D01*
X764D02*
X772D01*
X857D02*
X898D01*
X150Y1045D02*
X194D01*
X273D02*
X284D01*
X363D02*
X390D01*
X567D02*
X575D01*
X660D02*
X684D01*
X764D02*
X772D01*
X857D02*
X898D01*
X150Y1048D02*
X194D01*
X273D02*
X284D01*
X363D02*
X390D01*
X490D02*
X575D01*
X660D02*
X681D01*
X722D02*
X772D01*
X857D02*
X898D01*
X150Y1051D02*
X194D01*
X273D02*
X284D01*
X363D02*
X390D01*
X487D02*
X678D01*
X719D02*
X898D01*
X150Y1054D02*
X194D01*
X273D02*
X284D01*
X363D02*
X390D01*
X716D02*
X898D01*
X150Y1057D02*
X194D01*
X273D02*
X284D01*
X363D02*
X390D01*
X713D02*
X898D01*
X150Y1060D02*
X194D01*
X273D02*
X284D01*
X363D02*
X390D01*
X710D02*
X898D01*
X150Y1063D02*
X194D01*
X273D02*
X284D01*
X363D02*
X390D01*
X707D02*
X898D01*
X150Y1066D02*
X194D01*
X273D02*
X284D01*
X363D02*
X390D01*
X704D02*
X898D01*
X150Y1069D02*
X194D01*
X273D02*
X284D01*
X363D02*
X390D01*
X701D02*
X898D01*
X150Y1072D02*
X194D01*
X273D02*
X284D01*
X363D02*
X390D01*
X698D02*
X898D01*
X150Y1075D02*
X194D01*
X273D02*
X284D01*
X363D02*
X390D01*
X695D02*
X898D01*
X150Y1078D02*
X194D01*
X273D02*
X284D01*
X363D02*
X390D01*
X692D02*
X898D01*
X150Y1081D02*
X194D01*
X273D02*
X284D01*
X363D02*
X390D01*
X687D02*
X898D01*
X150Y1084D02*
X194D01*
X273D02*
X284D01*
X363D02*
X390D01*
X498D02*
X898D01*
X150Y1087D02*
X309D01*
X338D02*
X390D01*
X498D02*
X898D01*
X150Y1090D02*
X309D01*
X338D02*
X390D01*
X498D02*
X898D01*
X150Y1093D02*
X309D01*
X338D02*
X390D01*
X498D02*
X498D01*
X150Y1096D02*
X309D01*
X338D02*
X390D01*
X150Y1099D02*
X309D01*
X338D02*
X390D01*
X150Y1102D02*
X309D01*
X338D02*
X390D01*
X150Y1105D02*
X309D01*
X338D02*
X390D01*
X600Y1229D02*
X617D01*
Y1210*
X1812*
X1818Y1209*
X1823Y1206*
X1857Y1171*
X1860Y1167*
X1861Y1161*
Y1115*
X1884Y1092*
X1886*
Y1118*
X1900*
Y1150*
X1886*
Y1207*
X1875Y1218*
X661*
X655Y1219*
X651Y1222*
X647Y1227*
X646Y1232*
Y1239*
X628*
Y1266*
X599*
X600Y1229*
X1883Y1094D02*
X1886D01*
X1880Y1097D02*
X1886D01*
X1877Y1100D02*
X1886D01*
X1874Y1103D02*
X1886D01*
X1871Y1106D02*
X1886D01*
X1868Y1109D02*
X1886D01*
X1865Y1112D02*
X1886D01*
X1862Y1115D02*
X1886D01*
X1861Y1118D02*
X1886D01*
X1861Y1121D02*
X1900D01*
X1861Y1124D02*
X1900D01*
X1861Y1127D02*
X1900D01*
X1861Y1130D02*
X1900D01*
X1861Y1133D02*
X1900D01*
X1861Y1136D02*
X1900D01*
X1861Y1139D02*
X1900D01*
X1861Y1142D02*
X1900D01*
X1861Y1145D02*
X1900D01*
X1861Y1148D02*
X1900D01*
X1861Y1151D02*
X1886D01*
X1861Y1154D02*
X1886D01*
X1861Y1157D02*
X1886D01*
X1861Y1160D02*
X1886D01*
X1861Y1163D02*
X1886D01*
X1861Y1166D02*
X1886D01*
X1859Y1169D02*
X1886D01*
X1857Y1172D02*
X1886D01*
X1854Y1175D02*
X1886D01*
X1851Y1178D02*
X1886D01*
X1848Y1181D02*
X1886D01*
X1845Y1184D02*
X1886D01*
X1842Y1187D02*
X1886D01*
X1839Y1190D02*
X1886D01*
X1836Y1193D02*
X1886D01*
X1833Y1196D02*
X1886D01*
X1830Y1199D02*
X1886D01*
X1827Y1202D02*
X1886D01*
X1824Y1205D02*
X1886D01*
X1820Y1208D02*
X1885D01*
X617Y1211D02*
X1882D01*
X617Y1214D02*
X1879D01*
X617Y1217D02*
X1876D01*
X617Y1220D02*
X654D01*
X617Y1223D02*
X650D01*
X617Y1226D02*
X648D01*
X600Y1229D02*
X647D01*
X600Y1232D02*
X646D01*
X600Y1235D02*
X646D01*
X600Y1238D02*
X646D01*
X599Y1241D02*
X628D01*
X599Y1244D02*
X628D01*
X599Y1247D02*
X628D01*
X599Y1250D02*
X628D01*
X599Y1253D02*
X628D01*
X599Y1256D02*
X628D01*
X599Y1259D02*
X628D01*
X599Y1262D02*
X628D01*
X599Y1265D02*
X628D01*
X617Y1165D02*
X1812D01*
Y1040*
X1815Y1037*
X1886*
Y1063*
X1878*
X1873Y1064*
X1868Y1067*
X1837Y1099*
X1833Y1103*
X1832Y1109*
Y1155*
X1806Y1181*
X617*
Y1165*
X1813Y1039D02*
X1886D01*
X1812Y1042D02*
X1886D01*
X1812Y1045D02*
X1886D01*
X1812Y1048D02*
X1886D01*
X1812Y1051D02*
X1886D01*
X1812Y1054D02*
X1886D01*
X1812Y1057D02*
X1886D01*
X1812Y1060D02*
X1886D01*
X1812Y1063D02*
X1875D01*
X1812Y1066D02*
X1869D01*
X1812Y1069D02*
X1866D01*
X1812Y1072D02*
X1863D01*
X1812Y1075D02*
X1860D01*
X1812Y1078D02*
X1857D01*
X1812Y1081D02*
X1854D01*
X1812Y1084D02*
X1851D01*
X1812Y1087D02*
X1848D01*
X1812Y1090D02*
X1845D01*
X1812Y1093D02*
X1842D01*
X1812Y1096D02*
X1839D01*
X1812Y1099D02*
X1836D01*
X1812Y1102D02*
X1834D01*
X1812Y1105D02*
X1833D01*
X1812Y1108D02*
X1832D01*
X1812Y1111D02*
X1832D01*
X1812Y1114D02*
X1832D01*
X1812Y1117D02*
X1832D01*
X1812Y1120D02*
X1832D01*
X1812Y1123D02*
X1832D01*
X1812Y1126D02*
X1832D01*
X1812Y1129D02*
X1832D01*
X1812Y1132D02*
X1832D01*
X1812Y1135D02*
X1832D01*
X1812Y1138D02*
X1832D01*
X1812Y1141D02*
X1832D01*
X1812Y1144D02*
X1832D01*
X1812Y1147D02*
X1832D01*
X1812Y1150D02*
X1832D01*
X1812Y1153D02*
X1832D01*
X1812Y1156D02*
X1831D01*
X1812Y1159D02*
X1828D01*
X1812Y1162D02*
X1825D01*
X617Y1165D02*
X1822D01*
X617Y1168D02*
X1819D01*
X617Y1171D02*
X1816D01*
X617Y1174D02*
X1813D01*
X617Y1177D02*
X1810D01*
X617Y1180D02*
X1807D01*
X1900Y1234D02*
Y1260D01*
X694*
Y1247*
X1881*
X1887Y1246*
X1891Y1243*
X1900Y1234*
X1897Y1237D02*
X1900D01*
X1894Y1240D02*
X1900D01*
X1891Y1243D02*
X1900D01*
X1886Y1246D02*
X1900D01*
X694Y1249D02*
X1900D01*
X694Y1252D02*
X1900D01*
X694Y1255D02*
X1900D01*
X694Y1258D02*
X1900D01*
X2093Y360D02*
Y291D01*
X3786*
Y1256*
X2093*
Y1232*
X2102*
Y1205*
X2147*
X2153Y1204*
X2157Y1201*
X2160Y1196*
X2161Y1191*
Y1148*
X2184Y1126*
X2379*
X2384Y1125*
X2389Y1122*
X2439Y1072*
X2442Y1067*
X2443Y1062*
Y419*
X2451Y414*
X2458Y408*
X2464Y400*
X2467Y392*
X2468Y382*
X2467Y372*
X2463Y362*
X2457Y354*
X2448Y348*
X2439Y344*
X2429Y343*
X2418Y344*
X2409Y348*
X2401Y354*
X2394Y362*
X2391Y372*
X2389Y382*
X2390Y392*
X2394Y400*
X2399Y408*
X2406Y414*
X2414Y419*
Y1056*
X2373Y1097*
X2178*
X2172Y1098*
X2167Y1102*
X2137Y1132*
X2134Y1137*
X2132Y1142*
Y1176*
X2102*
Y1150*
X2093*
Y1118*
X2102*
Y1092*
X2279*
X2284Y1091*
X2289Y1088*
X2339Y1038*
X2342Y1033*
X2343Y1027*
Y419*
X2351Y414*
X2358Y408*
X2364Y400*
X2367Y392*
X2368Y382*
X2367Y372*
X2363Y362*
X2357Y354*
X2348Y348*
X2339Y344*
X2329Y343*
X2318Y344*
X2309Y348*
X2301Y354*
X2294Y362*
X2291Y372*
X2289Y382*
X2290Y392*
X2294Y400*
X2299Y408*
X2306Y414*
X2314Y419*
Y1021*
X2273Y1063*
X2102*
Y1036*
X2093*
Y1013*
X2162*
X2167Y1012*
X2172Y1009*
X2175Y1004*
X2176Y999*
Y366*
X2218Y324*
X3395*
X3414Y343*
Y345*
X3406Y350*
X3399Y356*
X3394Y364*
X3390Y373*
X3389Y382*
X3391Y392*
X3394Y402*
X3401Y410*
X3409Y416*
X3418Y420*
X3429Y422*
X3439Y420*
X3448Y416*
X3457Y410*
X3463Y402*
X3467Y392*
X3468Y382*
X3467Y373*
X3464Y364*
X3458Y356*
X3451Y350*
X3443Y345*
Y337*
X3442Y332*
X3439Y327*
X3412Y299*
X3407Y296*
X3401Y295*
X2212*
X2206Y296*
X2202Y299*
X2152Y349*
X2148Y354*
X2147Y360*
Y984*
X2093*
Y949*
X2139*
Y854*
X2093*
Y746*
X2136*
Y657*
X2093*
Y416*
X2101Y414*
X2108Y408*
X2113Y401*
X2116Y393*
Y384*
X2113Y376*
X2108Y369*
X2101Y363*
X2093Y360*
X2186Y1182D02*
X2188Y1193D01*
X2192Y1203*
X2199Y1212*
X2207Y1219*
X2218Y1223*
X2229Y1225*
X2240Y1223*
X2250Y1219*
X2259Y1212*
X2265Y1203*
X2270Y1193*
X2271Y1182*
X2270Y1171*
X2265Y1161*
X2259Y1152*
X2250Y1145*
X2240Y1141*
X2229Y1140*
X2218Y1141*
X2207Y1145*
X2199Y1152*
X2192Y1161*
X2188Y1171*
X2186Y1182*
X2189Y382D02*
X2191Y392D01*
X2194Y402*
X2201Y410*
X2209Y416*
X2218Y420*
X2229Y422*
X2239Y420*
X2248Y416*
X2257Y410*
X2263Y402*
X2267Y392*
X2268Y382*
X2267Y372*
X2263Y362*
X2257Y354*
X2248Y348*
X2239Y344*
X2229Y343*
X2218Y344*
X2209Y348*
X2201Y354*
X2194Y362*
X2191Y372*
X2189Y382*
X2289Y1182D02*
X2291Y1192D01*
X2294Y1202*
X2301Y1210*
X2309Y1216*
X2318Y1220*
X2329Y1222*
X2339Y1220*
X2348Y1216*
X2357Y1210*
X2363Y1202*
X2367Y1192*
X2368Y1182*
X2367Y1172*
X2363Y1162*
X2357Y1154*
X2348Y1148*
X2339Y1144*
X2329Y1143*
X2318Y1144*
X2309Y1148*
X2301Y1154*
X2294Y1162*
X2291Y1172*
X2289Y1182*
X2389D02*
X2391Y1192D01*
X2394Y1202*
X2401Y1210*
X2409Y1216*
X2418Y1220*
X2429Y1222*
X2439Y1220*
X2448Y1216*
X2457Y1210*
X2463Y1202*
X2467Y1192*
X2468Y1182*
X2467Y1172*
X2463Y1162*
X2457Y1154*
X2448Y1148*
X2439Y1144*
X2429Y1143*
X2418Y1144*
X2409Y1148*
X2401Y1154*
X2394Y1162*
X2391Y1172*
X2389Y1182*
X2489Y382D02*
X2491Y392D01*
X2494Y402*
X2501Y410*
X2509Y416*
X2518Y420*
X2529Y422*
X2539Y420*
X2548Y416*
X2557Y410*
X2563Y402*
X2567Y392*
X2568Y382*
X2567Y372*
X2563Y362*
X2557Y354*
X2548Y348*
X2539Y344*
X2529Y343*
X2518Y344*
X2509Y348*
X2501Y354*
X2494Y362*
X2491Y372*
X2489Y382*
Y1182D02*
X2491Y1192D01*
X2494Y1202*
X2501Y1210*
X2509Y1216*
X2518Y1220*
X2529Y1222*
X2539Y1220*
X2548Y1216*
X2557Y1210*
X2563Y1202*
X2567Y1192*
X2568Y1182*
X2567Y1172*
X2563Y1162*
X2557Y1154*
X2548Y1148*
X2539Y1144*
X2529Y1143*
X2518Y1144*
X2509Y1148*
X2501Y1154*
X2494Y1162*
X2491Y1172*
X2489Y1182*
X2589Y382D02*
X2591Y392D01*
X2594Y402*
X2601Y410*
X2609Y416*
X2618Y420*
X2629Y422*
X2639Y420*
X2648Y416*
X2657Y410*
X2663Y402*
X2667Y392*
X2668Y382*
X2667Y372*
X2663Y362*
X2657Y354*
X2648Y348*
X2639Y344*
X2629Y343*
X2618Y344*
X2609Y348*
X2601Y354*
X2594Y362*
X2591Y372*
X2589Y382*
Y1182D02*
X2591Y1192D01*
X2594Y1202*
X2601Y1210*
X2609Y1216*
X2618Y1220*
X2629Y1222*
X2639Y1220*
X2648Y1216*
X2657Y1210*
X2663Y1202*
X2667Y1192*
X2668Y1182*
X2667Y1172*
X2663Y1162*
X2657Y1154*
X2648Y1148*
X2639Y1144*
X2629Y1143*
X2618Y1144*
X2609Y1148*
X2601Y1154*
X2594Y1162*
X2591Y1172*
X2589Y1182*
X2689Y382D02*
X2691Y392D01*
X2694Y402*
X2701Y410*
X2709Y416*
X2718Y420*
X2729Y422*
X2739Y420*
X2748Y416*
X2757Y410*
X2763Y402*
X2767Y392*
X2768Y382*
X2767Y372*
X2763Y362*
X2757Y354*
X2748Y348*
X2739Y344*
X2729Y343*
X2718Y344*
X2709Y348*
X2701Y354*
X2694Y362*
X2691Y372*
X2689Y382*
Y1182D02*
X2691Y1192D01*
X2694Y1202*
X2701Y1210*
X2709Y1216*
X2718Y1220*
X2729Y1222*
X2739Y1220*
X2748Y1216*
X2757Y1210*
X2763Y1202*
X2767Y1192*
X2768Y1182*
X2767Y1172*
X2763Y1162*
X2757Y1154*
X2748Y1148*
X2739Y1144*
X2729Y1143*
X2718Y1144*
X2709Y1148*
X2701Y1154*
X2694Y1162*
X2691Y1172*
X2689Y1182*
X2789Y382D02*
X2791Y392D01*
X2794Y402*
X2801Y410*
X2809Y416*
X2818Y420*
X2829Y422*
X2839Y420*
X2848Y416*
X2857Y410*
X2863Y402*
X2867Y392*
X2868Y382*
X2867Y372*
X2863Y362*
X2857Y354*
X2848Y348*
X2839Y344*
X2829Y343*
X2818Y344*
X2809Y348*
X2801Y354*
X2794Y362*
X2791Y372*
X2789Y382*
Y1182D02*
X2791Y1192D01*
X2794Y1202*
X2801Y1210*
X2809Y1216*
X2818Y1220*
X2829Y1222*
X2839Y1220*
X2848Y1216*
X2857Y1210*
X2863Y1202*
X2867Y1192*
X2868Y1182*
X2867Y1172*
X2863Y1162*
X2857Y1154*
X2848Y1148*
X2839Y1144*
X2829Y1143*
X2818Y1144*
X2809Y1148*
X2801Y1154*
X2794Y1162*
X2791Y1172*
X2789Y1182*
X2889Y382D02*
X2891Y392D01*
X2894Y402*
X2901Y410*
X2909Y416*
X2918Y420*
X2929Y422*
X2939Y420*
X2948Y416*
X2957Y410*
X2963Y402*
X2967Y392*
X2968Y382*
X2967Y372*
X2963Y362*
X2957Y354*
X2948Y348*
X2939Y344*
X2929Y343*
X2918Y344*
X2909Y348*
X2901Y354*
X2894Y362*
X2891Y372*
X2889Y382*
Y1182D02*
X2891Y1192D01*
X2894Y1202*
X2901Y1210*
X2909Y1216*
X2918Y1220*
X2929Y1222*
X2939Y1220*
X2948Y1216*
X2957Y1210*
X2963Y1202*
X2967Y1192*
X2968Y1182*
X2967Y1172*
X2963Y1162*
X2957Y1154*
X2948Y1148*
X2939Y1144*
X2929Y1143*
X2918Y1144*
X2909Y1148*
X2901Y1154*
X2894Y1162*
X2891Y1172*
X2889Y1182*
X2989Y382D02*
X2991Y392D01*
X2994Y402*
X3001Y410*
X3009Y416*
X3018Y420*
X3029Y422*
X3039Y420*
X3048Y416*
X3057Y410*
X3063Y402*
X3067Y392*
X3068Y382*
X3067Y372*
X3063Y362*
X3057Y354*
X3048Y348*
X3039Y344*
X3029Y343*
X3018Y344*
X3009Y348*
X3001Y354*
X2994Y362*
X2991Y372*
X2989Y382*
Y1182D02*
X2991Y1192D01*
X2994Y1202*
X3001Y1210*
X3009Y1216*
X3018Y1220*
X3029Y1222*
X3039Y1220*
X3048Y1216*
X3057Y1210*
X3063Y1202*
X3067Y1192*
X3068Y1182*
X3067Y1172*
X3063Y1162*
X3057Y1154*
X3048Y1148*
X3039Y1144*
X3029Y1143*
X3018Y1144*
X3009Y1148*
X3001Y1154*
X2994Y1162*
X2991Y1172*
X2989Y1182*
X3089Y382D02*
X3091Y392D01*
X3094Y402*
X3101Y410*
X3109Y416*
X3118Y420*
X3129Y422*
X3139Y420*
X3148Y416*
X3157Y410*
X3163Y402*
X3167Y392*
X3168Y382*
X3167Y372*
X3163Y362*
X3157Y354*
X3148Y348*
X3139Y344*
X3129Y343*
X3118Y344*
X3109Y348*
X3101Y354*
X3094Y362*
X3091Y372*
X3089Y382*
Y1182D02*
X3091Y1192D01*
X3094Y1202*
X3101Y1210*
X3109Y1216*
X3118Y1220*
X3129Y1222*
X3139Y1220*
X3148Y1216*
X3157Y1210*
X3163Y1202*
X3167Y1192*
X3168Y1182*
X3167Y1172*
X3163Y1162*
X3157Y1154*
X3148Y1148*
X3139Y1144*
X3129Y1143*
X3118Y1144*
X3109Y1148*
X3101Y1154*
X3094Y1162*
X3091Y1172*
X3089Y1182*
X3189Y382D02*
X3191Y392D01*
X3194Y402*
X3201Y410*
X3209Y416*
X3218Y420*
X3229Y422*
X3239Y420*
X3248Y416*
X3257Y410*
X3263Y402*
X3267Y392*
X3268Y382*
X3267Y372*
X3263Y362*
X3257Y354*
X3248Y348*
X3239Y344*
X3229Y343*
X3218Y344*
X3209Y348*
X3201Y354*
X3194Y362*
X3191Y372*
X3189Y382*
Y1182D02*
X3191Y1192D01*
X3194Y1202*
X3201Y1210*
X3209Y1216*
X3218Y1220*
X3229Y1222*
X3239Y1220*
X3248Y1216*
X3257Y1210*
X3263Y1202*
X3267Y1192*
X3268Y1182*
X3267Y1172*
X3263Y1162*
X3257Y1154*
X3248Y1148*
X3239Y1144*
X3229Y1143*
X3218Y1144*
X3209Y1148*
X3201Y1154*
X3194Y1162*
X3191Y1172*
X3189Y1182*
X3289Y382D02*
X3291Y392D01*
X3294Y402*
X3301Y410*
X3309Y416*
X3318Y420*
X3329Y422*
X3339Y420*
X3348Y416*
X3357Y410*
X3363Y402*
X3367Y392*
X3368Y382*
X3367Y372*
X3363Y362*
X3357Y354*
X3348Y348*
X3339Y344*
X3329Y343*
X3318Y344*
X3309Y348*
X3301Y354*
X3294Y362*
X3291Y372*
X3289Y382*
Y1182D02*
X3291Y1192D01*
X3294Y1202*
X3301Y1210*
X3309Y1216*
X3318Y1220*
X3329Y1222*
X3339Y1220*
X3348Y1216*
X3357Y1210*
X3363Y1202*
X3367Y1192*
X3368Y1182*
X3367Y1172*
X3363Y1162*
X3357Y1154*
X3348Y1148*
X3339Y1144*
X3329Y1143*
X3318Y1144*
X3309Y1148*
X3301Y1154*
X3294Y1162*
X3291Y1172*
X3289Y1182*
X3389D02*
X3391Y1192D01*
X3394Y1202*
X3401Y1210*
X3409Y1216*
X3418Y1220*
X3429Y1222*
X3439Y1220*
X3448Y1216*
X3457Y1210*
X3463Y1202*
X3467Y1192*
X3468Y1182*
X3467Y1172*
X3463Y1162*
X3457Y1154*
X3448Y1148*
X3439Y1144*
X3429Y1143*
X3418Y1144*
X3409Y1148*
X3401Y1154*
X3394Y1162*
X3391Y1172*
X3389Y1182*
X3489Y382D02*
X3491Y392D01*
X3494Y402*
X3501Y410*
X3509Y416*
X3518Y420*
X3529Y422*
X3539Y420*
X3548Y416*
X3557Y410*
X3563Y402*
X3567Y392*
X3568Y382*
X3567Y372*
X3563Y362*
X3557Y354*
X3548Y348*
X3539Y344*
X3529Y343*
X3518Y344*
X3509Y348*
X3501Y354*
X3494Y362*
X3491Y372*
X3489Y382*
Y1182D02*
X3491Y1192D01*
X3494Y1202*
X3501Y1210*
X3509Y1216*
X3518Y1220*
X3529Y1222*
X3539Y1220*
X3548Y1216*
X3557Y1210*
X3563Y1202*
X3567Y1192*
X3568Y1182*
X3567Y1172*
X3563Y1162*
X3557Y1154*
X3548Y1148*
X3539Y1144*
X3529Y1143*
X3518Y1144*
X3509Y1148*
X3501Y1154*
X3494Y1162*
X3491Y1172*
X3489Y1182*
X3586Y382D02*
X3588Y393D01*
X3592Y403*
X3599Y412*
X3607Y419*
X3618Y423*
X3629Y425*
X3640Y423*
X3650Y419*
X3659Y412*
X3665Y403*
X3670Y393*
X3671Y382*
X3670Y371*
X3665Y361*
X3659Y352*
X3650Y345*
X3640Y341*
X3629Y340*
X3618Y341*
X3607Y345*
X3599Y352*
X3592Y361*
X3588Y371*
X3586Y382*
X3589Y1182D02*
X3591Y1192D01*
X3594Y1202*
X3601Y1210*
X3609Y1216*
X3618Y1220*
X3629Y1222*
X3639Y1220*
X3648Y1216*
X3657Y1210*
X3663Y1202*
X3667Y1192*
X3668Y1182*
X3667Y1172*
X3663Y1162*
X3657Y1154*
X3648Y1148*
X3639Y1144*
X3629Y1143*
X3618Y1144*
X3609Y1148*
X3601Y1154*
X3594Y1162*
X3591Y1172*
X3589Y1182*
X3686D02*
X3688Y1193D01*
X3692Y1203*
X3699Y1212*
X3707Y1219*
X3718Y1223*
X3729Y1225*
X3740Y1223*
X3750Y1219*
X3759Y1212*
X3765Y1203*
X3770Y1193*
X3771Y1182*
X3770Y1171*
X3765Y1161*
X3759Y1152*
X3750Y1145*
X3740Y1141*
X3729Y1140*
X3718Y1141*
X3707Y1145*
X3699Y1152*
X3692Y1161*
X3688Y1171*
X3686Y1182*
X3689Y382D02*
X3691Y392D01*
X3694Y402*
X3701Y410*
X3709Y416*
X3718Y420*
X3729Y422*
X3739Y420*
X3748Y416*
X3757Y410*
X3763Y402*
X3767Y392*
X3768Y382*
X3767Y372*
X3763Y362*
X3757Y354*
X3748Y348*
X3739Y344*
X3729Y343*
X3718Y344*
X3709Y348*
X3701Y354*
X3694Y362*
X3691Y372*
X3689Y382*
X2093Y291D02*
X3786D01*
X2093Y294D02*
X3786D01*
X2093Y297D02*
X2204D01*
X3409D02*
X3786D01*
X2093Y300D02*
X2200D01*
X3413D02*
X3786D01*
X2093Y303D02*
X2197D01*
X3416D02*
X3786D01*
X2093Y306D02*
X2194D01*
X3419D02*
X3786D01*
X2093Y309D02*
X2191D01*
X3422D02*
X3786D01*
X2093Y312D02*
X2188D01*
X3425D02*
X3786D01*
X2093Y315D02*
X2185D01*
X3428D02*
X3786D01*
X2093Y318D02*
X2182D01*
X3431D02*
X3786D01*
X2093Y321D02*
X2179D01*
X3434D02*
X3786D01*
X2093Y324D02*
X2176D01*
X2217D02*
X3396D01*
X3437D02*
X3786D01*
X2093Y327D02*
X2173D01*
X2215D02*
X3399D01*
X3440D02*
X3786D01*
X2093Y330D02*
X2170D01*
X2212D02*
X3402D01*
X3442D02*
X3786D01*
X2093Y333D02*
X2167D01*
X2209D02*
X3405D01*
X3443D02*
X3786D01*
X2093Y336D02*
X2164D01*
X2206D02*
X3408D01*
X3443D02*
X3786D01*
X2093Y339D02*
X2161D01*
X2203D02*
X3411D01*
X3443D02*
X3786D01*
X2093Y342D02*
X2158D01*
X2200D02*
X3414D01*
X3443D02*
X3613D01*
X3644D02*
X3786D01*
X2093Y345D02*
X2155D01*
X2197D02*
X2214D01*
X2243D02*
X2314D01*
X2343D02*
X2414D01*
X2443D02*
X2514D01*
X2543D02*
X2614D01*
X2643D02*
X2714D01*
X2743D02*
X2814D01*
X2843D02*
X2914D01*
X2943D02*
X3014D01*
X3043D02*
X3114D01*
X3143D02*
X3214D01*
X3243D02*
X3314D01*
X3343D02*
X3414D01*
X3443D02*
X3514D01*
X3543D02*
X3607D01*
X3650D02*
X3714D01*
X3743D02*
X3786D01*
X2093Y348D02*
X2152D01*
X2194D02*
X2208D01*
X2249D02*
X2308D01*
X2349D02*
X2408D01*
X2449D02*
X2508D01*
X2549D02*
X2608D01*
X2649D02*
X2708D01*
X2749D02*
X2808D01*
X2849D02*
X2908D01*
X2949D02*
X3008D01*
X3049D02*
X3108D01*
X3149D02*
X3208D01*
X3249D02*
X3308D01*
X3349D02*
X3408D01*
X3449D02*
X3508D01*
X3549D02*
X3603D01*
X3655D02*
X3708D01*
X3749D02*
X3786D01*
X2093Y351D02*
X2150D01*
X2191D02*
X2204D01*
X2254D02*
X2304D01*
X2354D02*
X2404D01*
X2454D02*
X2504D01*
X2554D02*
X2604D01*
X2654D02*
X2704D01*
X2754D02*
X2804D01*
X2854D02*
X2904D01*
X2954D02*
X3004D01*
X3054D02*
X3104D01*
X3154D02*
X3204D01*
X3254D02*
X3304D01*
X3354D02*
X3404D01*
X3454D02*
X3504D01*
X3554D02*
X3599D01*
X3658D02*
X3704D01*
X3754D02*
X3786D01*
X2093Y354D02*
X2148D01*
X2188D02*
X2201D01*
X2257D02*
X2301D01*
X2357D02*
X2401D01*
X2457D02*
X2501D01*
X2557D02*
X2601D01*
X2657D02*
X2701D01*
X2757D02*
X2801D01*
X2857D02*
X2901D01*
X2957D02*
X3001D01*
X3057D02*
X3101D01*
X3157D02*
X3201D01*
X3257D02*
X3301D01*
X3357D02*
X3401D01*
X3457D02*
X3501D01*
X3557D02*
X3596D01*
X3661D02*
X3701D01*
X3757D02*
X3786D01*
X2093Y357D02*
X2147D01*
X2185D02*
X2198D01*
X2260D02*
X2298D01*
X2360D02*
X2398D01*
X2460D02*
X2498D01*
X2560D02*
X2598D01*
X2660D02*
X2698D01*
X2760D02*
X2798D01*
X2860D02*
X2898D01*
X2960D02*
X2998D01*
X3060D02*
X3098D01*
X3160D02*
X3198D01*
X3260D02*
X3298D01*
X3360D02*
X3398D01*
X3460D02*
X3498D01*
X3560D02*
X3594D01*
X3663D02*
X3698D01*
X3760D02*
X3786D01*
X2093Y360D02*
X2147D01*
X2182D02*
X2196D01*
X2262D02*
X2296D01*
X2362D02*
X2396D01*
X2462D02*
X2496D01*
X2562D02*
X2596D01*
X2662D02*
X2696D01*
X2762D02*
X2796D01*
X2862D02*
X2896D01*
X2962D02*
X2996D01*
X3062D02*
X3096D01*
X3162D02*
X3196D01*
X3262D02*
X3296D01*
X3362D02*
X3396D01*
X3462D02*
X3496D01*
X3562D02*
X3592D01*
X3665D02*
X3696D01*
X3762D02*
X3786D01*
X2102Y363D02*
X2147D01*
X2179D02*
X2194D01*
X2263D02*
X2294D01*
X2363D02*
X2394D01*
X2463D02*
X2494D01*
X2563D02*
X2594D01*
X2663D02*
X2694D01*
X2763D02*
X2794D01*
X2863D02*
X2894D01*
X2963D02*
X2994D01*
X3063D02*
X3094D01*
X3163D02*
X3194D01*
X3263D02*
X3294D01*
X3363D02*
X3394D01*
X3463D02*
X3494D01*
X3563D02*
X3591D01*
X3667D02*
X3694D01*
X3763D02*
X3786D01*
X2106Y366D02*
X2147D01*
X2176D02*
X2192D01*
X2265D02*
X2292D01*
X2365D02*
X2392D01*
X2465D02*
X2492D01*
X2565D02*
X2592D01*
X2665D02*
X2692D01*
X2765D02*
X2792D01*
X2865D02*
X2892D01*
X2965D02*
X2992D01*
X3065D02*
X3092D01*
X3165D02*
X3192D01*
X3265D02*
X3292D01*
X3365D02*
X3392D01*
X3465D02*
X3492D01*
X3565D02*
X3589D01*
X3668D02*
X3692D01*
X3765D02*
X3786D01*
X2109Y369D02*
X2147D01*
X2176D02*
X2191D01*
X2266D02*
X2291D01*
X2366D02*
X2391D01*
X2466D02*
X2491D01*
X2566D02*
X2591D01*
X2666D02*
X2691D01*
X2766D02*
X2791D01*
X2866D02*
X2891D01*
X2966D02*
X2991D01*
X3066D02*
X3091D01*
X3166D02*
X3191D01*
X3266D02*
X3291D01*
X3366D02*
X3391D01*
X3466D02*
X3491D01*
X3566D02*
X3588D01*
X3669D02*
X3691D01*
X3766D02*
X3786D01*
X2111Y372D02*
X2147D01*
X2176D02*
X2190D01*
X2267D02*
X2290D01*
X2367D02*
X2390D01*
X2467D02*
X2490D01*
X2567D02*
X2590D01*
X2667D02*
X2690D01*
X2767D02*
X2790D01*
X2867D02*
X2890D01*
X2967D02*
X2990D01*
X3067D02*
X3090D01*
X3167D02*
X3190D01*
X3267D02*
X3290D01*
X3367D02*
X3390D01*
X3467D02*
X3490D01*
X3567D02*
X3587D01*
X3670D02*
X3690D01*
X3767D02*
X3786D01*
X2113Y375D02*
X2147D01*
X2176D02*
X2190D01*
X2268D02*
X2290D01*
X2368D02*
X2390D01*
X2468D02*
X2490D01*
X2568D02*
X2590D01*
X2668D02*
X2690D01*
X2768D02*
X2790D01*
X2868D02*
X2890D01*
X2968D02*
X2990D01*
X3068D02*
X3090D01*
X3168D02*
X3190D01*
X3268D02*
X3290D01*
X3368D02*
X3390D01*
X3468D02*
X3490D01*
X3568D02*
X3587D01*
X3671D02*
X3690D01*
X3768D02*
X3786D01*
X2115Y378D02*
X2147D01*
X2176D02*
X2189D01*
X2268D02*
X2289D01*
X2368D02*
X2389D01*
X2468D02*
X2489D01*
X2568D02*
X2589D01*
X2668D02*
X2689D01*
X2768D02*
X2789D01*
X2868D02*
X2889D01*
X2968D02*
X2989D01*
X3068D02*
X3089D01*
X3168D02*
X3189D01*
X3268D02*
X3289D01*
X3368D02*
X3389D01*
X3468D02*
X3489D01*
X3568D02*
X3586D01*
X3671D02*
X3689D01*
X3768D02*
X3786D01*
X2116Y381D02*
X2147D01*
X2176D02*
X2189D01*
X2268D02*
X2289D01*
X2368D02*
X2389D01*
X2468D02*
X2489D01*
X2568D02*
X2589D01*
X2668D02*
X2689D01*
X2768D02*
X2789D01*
X2868D02*
X2889D01*
X2968D02*
X2989D01*
X3068D02*
X3089D01*
X3168D02*
X3189D01*
X3268D02*
X3289D01*
X3368D02*
X3389D01*
X3468D02*
X3489D01*
X3568D02*
X3586D01*
X3671D02*
X3689D01*
X3768D02*
X3786D01*
X2116Y384D02*
X2147D01*
X2176D02*
X2189D01*
X2268D02*
X2289D01*
X2368D02*
X2389D01*
X2468D02*
X2489D01*
X2568D02*
X2589D01*
X2668D02*
X2689D01*
X2768D02*
X2789D01*
X2868D02*
X2889D01*
X2968D02*
X2989D01*
X3068D02*
X3089D01*
X3168D02*
X3189D01*
X3268D02*
X3289D01*
X3368D02*
X3389D01*
X3468D02*
X3489D01*
X3568D02*
X3586D01*
X3671D02*
X3689D01*
X3768D02*
X3786D01*
X2116Y387D02*
X2147D01*
X2176D02*
X2190D01*
X2268D02*
X2290D01*
X2368D02*
X2390D01*
X2468D02*
X2490D01*
X2568D02*
X2590D01*
X2668D02*
X2690D01*
X2768D02*
X2790D01*
X2868D02*
X2890D01*
X2968D02*
X2990D01*
X3068D02*
X3090D01*
X3168D02*
X3190D01*
X3268D02*
X3290D01*
X3368D02*
X3390D01*
X3468D02*
X3490D01*
X3568D02*
X3587D01*
X3671D02*
X3690D01*
X3768D02*
X3786D01*
X2116Y390D02*
X2147D01*
X2176D02*
X2190D01*
X2267D02*
X2290D01*
X2367D02*
X2390D01*
X2467D02*
X2490D01*
X2567D02*
X2590D01*
X2667D02*
X2690D01*
X2767D02*
X2790D01*
X2867D02*
X2890D01*
X2967D02*
X2990D01*
X3067D02*
X3090D01*
X3167D02*
X3190D01*
X3267D02*
X3290D01*
X3367D02*
X3390D01*
X3467D02*
X3490D01*
X3567D02*
X3587D01*
X3670D02*
X3690D01*
X3767D02*
X3786D01*
X2116Y393D02*
X2147D01*
X2176D02*
X2191D01*
X2267D02*
X2291D01*
X2367D02*
X2391D01*
X2467D02*
X2491D01*
X2567D02*
X2591D01*
X2667D02*
X2691D01*
X2767D02*
X2791D01*
X2867D02*
X2891D01*
X2967D02*
X2991D01*
X3067D02*
X3091D01*
X3167D02*
X3191D01*
X3267D02*
X3291D01*
X3367D02*
X3391D01*
X3467D02*
X3491D01*
X3567D02*
X3588D01*
X3670D02*
X3691D01*
X3767D02*
X3786D01*
X2115Y396D02*
X2147D01*
X2176D02*
X2192D01*
X2265D02*
X2292D01*
X2365D02*
X2392D01*
X2465D02*
X2492D01*
X2565D02*
X2592D01*
X2665D02*
X2692D01*
X2765D02*
X2792D01*
X2865D02*
X2892D01*
X2965D02*
X2992D01*
X3065D02*
X3092D01*
X3165D02*
X3192D01*
X3265D02*
X3292D01*
X3365D02*
X3392D01*
X3465D02*
X3492D01*
X3565D02*
X3589D01*
X3669D02*
X3692D01*
X3765D02*
X3786D01*
X2114Y399D02*
X2147D01*
X2176D02*
X2193D01*
X2264D02*
X2293D01*
X2364D02*
X2393D01*
X2464D02*
X2493D01*
X2564D02*
X2593D01*
X2664D02*
X2693D01*
X2764D02*
X2793D01*
X2864D02*
X2893D01*
X2964D02*
X2993D01*
X3064D02*
X3093D01*
X3164D02*
X3193D01*
X3264D02*
X3293D01*
X3364D02*
X3393D01*
X3464D02*
X3493D01*
X3564D02*
X3590D01*
X3667D02*
X3693D01*
X3764D02*
X3786D01*
X2113Y402D02*
X2147D01*
X2176D02*
X2195D01*
X2263D02*
X2295D01*
X2363D02*
X2395D01*
X2463D02*
X2495D01*
X2563D02*
X2595D01*
X2663D02*
X2695D01*
X2763D02*
X2795D01*
X2863D02*
X2895D01*
X2963D02*
X2995D01*
X3063D02*
X3095D01*
X3163D02*
X3195D01*
X3263D02*
X3295D01*
X3363D02*
X3395D01*
X3463D02*
X3495D01*
X3563D02*
X3591D01*
X3666D02*
X3695D01*
X3763D02*
X3786D01*
X2111Y405D02*
X2147D01*
X2176D02*
X2197D01*
X2261D02*
X2297D01*
X2361D02*
X2397D01*
X2461D02*
X2497D01*
X2561D02*
X2597D01*
X2661D02*
X2697D01*
X2761D02*
X2797D01*
X2861D02*
X2897D01*
X2961D02*
X2997D01*
X3061D02*
X3097D01*
X3161D02*
X3197D01*
X3261D02*
X3297D01*
X3361D02*
X3397D01*
X3461D02*
X3497D01*
X3561D02*
X3593D01*
X3664D02*
X3697D01*
X3761D02*
X3786D01*
X2108Y408D02*
X2147D01*
X2176D02*
X2199D01*
X2258D02*
X2299D01*
X2358D02*
X2399D01*
X2458D02*
X2499D01*
X2558D02*
X2599D01*
X2658D02*
X2699D01*
X2758D02*
X2799D01*
X2858D02*
X2899D01*
X2958D02*
X2999D01*
X3058D02*
X3099D01*
X3158D02*
X3199D01*
X3258D02*
X3299D01*
X3358D02*
X3399D01*
X3458D02*
X3499D01*
X3558D02*
X3595D01*
X3662D02*
X3699D01*
X3758D02*
X3786D01*
X2105Y411D02*
X2147D01*
X2176D02*
X2202D01*
X2255D02*
X2302D01*
X2355D02*
X2402D01*
X2455D02*
X2502D01*
X2555D02*
X2602D01*
X2655D02*
X2702D01*
X2755D02*
X2802D01*
X2855D02*
X2902D01*
X2955D02*
X3002D01*
X3055D02*
X3102D01*
X3155D02*
X3202D01*
X3255D02*
X3302D01*
X3355D02*
X3402D01*
X3455D02*
X3502D01*
X3555D02*
X3598D01*
X3659D02*
X3702D01*
X3755D02*
X3786D01*
X2099Y414D02*
X2147D01*
X2176D02*
X2206D01*
X2251D02*
X2306D01*
X2351D02*
X2406D01*
X2451D02*
X2506D01*
X2551D02*
X2606D01*
X2651D02*
X2706D01*
X2751D02*
X2806D01*
X2851D02*
X2906D01*
X2951D02*
X3006D01*
X3051D02*
X3106D01*
X3151D02*
X3206D01*
X3251D02*
X3306D01*
X3351D02*
X3406D01*
X3451D02*
X3506D01*
X3551D02*
X3601D01*
X3656D02*
X3706D01*
X3751D02*
X3786D01*
X2093Y417D02*
X2147D01*
X2176D02*
X2211D01*
X2246D02*
X2311D01*
X2346D02*
X2411D01*
X2446D02*
X2511D01*
X2546D02*
X2611D01*
X2646D02*
X2711D01*
X2746D02*
X2811D01*
X2846D02*
X2911D01*
X2946D02*
X3011D01*
X3046D02*
X3111D01*
X3146D02*
X3211D01*
X3246D02*
X3311D01*
X3346D02*
X3411D01*
X3446D02*
X3511D01*
X3546D02*
X3605D01*
X3652D02*
X3711D01*
X3746D02*
X3786D01*
X2093Y420D02*
X2147D01*
X2176D02*
X2219D01*
X2238D02*
X2314D01*
X2343D02*
X2414D01*
X2443D02*
X2519D01*
X2538D02*
X2619D01*
X2638D02*
X2719D01*
X2738D02*
X2819D01*
X2838D02*
X2919D01*
X2938D02*
X3019D01*
X3038D02*
X3119D01*
X3138D02*
X3219D01*
X3238D02*
X3319D01*
X3338D02*
X3419D01*
X3438D02*
X3519D01*
X3538D02*
X3610D01*
X3647D02*
X3719D01*
X3738D02*
X3786D01*
X2093Y423D02*
X2147D01*
X2176D02*
X2314D01*
X2343D02*
X2414D01*
X2443D02*
X3619D01*
X3639D02*
X3786D01*
X2093Y426D02*
X2147D01*
X2176D02*
X2314D01*
X2343D02*
X2414D01*
X2443D02*
X3786D01*
X2093Y429D02*
X2147D01*
X2176D02*
X2314D01*
X2343D02*
X2414D01*
X2443D02*
X3786D01*
X2093Y432D02*
X2147D01*
X2176D02*
X2314D01*
X2343D02*
X2414D01*
X2443D02*
X3786D01*
X2093Y435D02*
X2147D01*
X2176D02*
X2314D01*
X2343D02*
X2414D01*
X2443D02*
X3786D01*
X2093Y438D02*
X2147D01*
X2176D02*
X2314D01*
X2343D02*
X2414D01*
X2443D02*
X3786D01*
X2093Y441D02*
X2147D01*
X2176D02*
X2314D01*
X2343D02*
X2414D01*
X2443D02*
X3786D01*
X2093Y444D02*
X2147D01*
X2176D02*
X2314D01*
X2343D02*
X2414D01*
X2443D02*
X3786D01*
X2093Y447D02*
X2147D01*
X2176D02*
X2314D01*
X2343D02*
X2414D01*
X2443D02*
X3786D01*
X2093Y450D02*
X2147D01*
X2176D02*
X2314D01*
X2343D02*
X2414D01*
X2443D02*
X3786D01*
X2093Y453D02*
X2147D01*
X2176D02*
X2314D01*
X2343D02*
X2414D01*
X2443D02*
X3786D01*
X2093Y456D02*
X2147D01*
X2176D02*
X2314D01*
X2343D02*
X2414D01*
X2443D02*
X3786D01*
X2093Y459D02*
X2147D01*
X2176D02*
X2314D01*
X2343D02*
X2414D01*
X2443D02*
X3786D01*
X2093Y462D02*
X2147D01*
X2176D02*
X2314D01*
X2343D02*
X2414D01*
X2443D02*
X3786D01*
X2093Y465D02*
X2147D01*
X2176D02*
X2314D01*
X2343D02*
X2414D01*
X2443D02*
X3786D01*
X2093Y468D02*
X2147D01*
X2176D02*
X2314D01*
X2343D02*
X2414D01*
X2443D02*
X3786D01*
X2093Y471D02*
X2147D01*
X2176D02*
X2314D01*
X2343D02*
X2414D01*
X2443D02*
X3786D01*
X2093Y474D02*
X2147D01*
X2176D02*
X2314D01*
X2343D02*
X2414D01*
X2443D02*
X3786D01*
X2093Y477D02*
X2147D01*
X2176D02*
X2314D01*
X2343D02*
X2414D01*
X2443D02*
X3786D01*
X2093Y480D02*
X2147D01*
X2176D02*
X2314D01*
X2343D02*
X2414D01*
X2443D02*
X3786D01*
X2093Y483D02*
X2147D01*
X2176D02*
X2314D01*
X2343D02*
X2414D01*
X2443D02*
X3786D01*
X2093Y486D02*
X2147D01*
X2176D02*
X2314D01*
X2343D02*
X2414D01*
X2443D02*
X3786D01*
X2093Y489D02*
X2147D01*
X2176D02*
X2314D01*
X2343D02*
X2414D01*
X2443D02*
X3786D01*
X2093Y492D02*
X2147D01*
X2176D02*
X2314D01*
X2343D02*
X2414D01*
X2443D02*
X3786D01*
X2093Y495D02*
X2147D01*
X2176D02*
X2314D01*
X2343D02*
X2414D01*
X2443D02*
X3786D01*
X2093Y498D02*
X2147D01*
X2176D02*
X2314D01*
X2343D02*
X2414D01*
X2443D02*
X3786D01*
X2093Y501D02*
X2147D01*
X2176D02*
X2314D01*
X2343D02*
X2414D01*
X2443D02*
X3786D01*
X2093Y504D02*
X2147D01*
X2176D02*
X2314D01*
X2343D02*
X2414D01*
X2443D02*
X3786D01*
X2093Y507D02*
X2147D01*
X2176D02*
X2314D01*
X2343D02*
X2414D01*
X2443D02*
X3786D01*
X2093Y510D02*
X2147D01*
X2176D02*
X2314D01*
X2343D02*
X2414D01*
X2443D02*
X3786D01*
X2093Y513D02*
X2147D01*
X2176D02*
X2314D01*
X2343D02*
X2414D01*
X2443D02*
X3786D01*
X2093Y516D02*
X2147D01*
X2176D02*
X2314D01*
X2343D02*
X2414D01*
X2443D02*
X3786D01*
X2093Y519D02*
X2147D01*
X2176D02*
X2314D01*
X2343D02*
X2414D01*
X2443D02*
X3786D01*
X2093Y522D02*
X2147D01*
X2176D02*
X2314D01*
X2343D02*
X2414D01*
X2443D02*
X3786D01*
X2093Y525D02*
X2147D01*
X2176D02*
X2314D01*
X2343D02*
X2414D01*
X2443D02*
X3786D01*
X2093Y528D02*
X2147D01*
X2176D02*
X2314D01*
X2343D02*
X2414D01*
X2443D02*
X3786D01*
X2093Y531D02*
X2147D01*
X2176D02*
X2314D01*
X2343D02*
X2414D01*
X2443D02*
X3786D01*
X2093Y534D02*
X2147D01*
X2176D02*
X2314D01*
X2343D02*
X2414D01*
X2443D02*
X3786D01*
X2093Y537D02*
X2147D01*
X2176D02*
X2314D01*
X2343D02*
X2414D01*
X2443D02*
X3786D01*
X2093Y540D02*
X2147D01*
X2176D02*
X2314D01*
X2343D02*
X2414D01*
X2443D02*
X3786D01*
X2093Y543D02*
X2147D01*
X2176D02*
X2314D01*
X2343D02*
X2414D01*
X2443D02*
X3786D01*
X2093Y546D02*
X2147D01*
X2176D02*
X2314D01*
X2343D02*
X2414D01*
X2443D02*
X3786D01*
X2093Y549D02*
X2147D01*
X2176D02*
X2314D01*
X2343D02*
X2414D01*
X2443D02*
X3786D01*
X2093Y552D02*
X2147D01*
X2176D02*
X2314D01*
X2343D02*
X2414D01*
X2443D02*
X3786D01*
X2093Y555D02*
X2147D01*
X2176D02*
X2314D01*
X2343D02*
X2414D01*
X2443D02*
X3786D01*
X2093Y558D02*
X2147D01*
X2176D02*
X2314D01*
X2343D02*
X2414D01*
X2443D02*
X3786D01*
X2093Y561D02*
X2147D01*
X2176D02*
X2314D01*
X2343D02*
X2414D01*
X2443D02*
X3786D01*
X2093Y564D02*
X2147D01*
X2176D02*
X2314D01*
X2343D02*
X2414D01*
X2443D02*
X3786D01*
X2093Y567D02*
X2147D01*
X2176D02*
X2314D01*
X2343D02*
X2414D01*
X2443D02*
X3786D01*
X2093Y570D02*
X2147D01*
X2176D02*
X2314D01*
X2343D02*
X2414D01*
X2443D02*
X3786D01*
X2093Y573D02*
X2147D01*
X2176D02*
X2314D01*
X2343D02*
X2414D01*
X2443D02*
X3786D01*
X2093Y576D02*
X2147D01*
X2176D02*
X2314D01*
X2343D02*
X2414D01*
X2443D02*
X3786D01*
X2093Y579D02*
X2147D01*
X2176D02*
X2314D01*
X2343D02*
X2414D01*
X2443D02*
X3786D01*
X2093Y582D02*
X2147D01*
X2176D02*
X2314D01*
X2343D02*
X2414D01*
X2443D02*
X3786D01*
X2093Y585D02*
X2147D01*
X2176D02*
X2314D01*
X2343D02*
X2414D01*
X2443D02*
X3786D01*
X2093Y588D02*
X2147D01*
X2176D02*
X2314D01*
X2343D02*
X2414D01*
X2443D02*
X3786D01*
X2093Y591D02*
X2147D01*
X2176D02*
X2314D01*
X2343D02*
X2414D01*
X2443D02*
X3786D01*
X2093Y594D02*
X2147D01*
X2176D02*
X2314D01*
X2343D02*
X2414D01*
X2443D02*
X3786D01*
X2093Y597D02*
X2147D01*
X2176D02*
X2314D01*
X2343D02*
X2414D01*
X2443D02*
X3786D01*
X2093Y600D02*
X2147D01*
X2176D02*
X2314D01*
X2343D02*
X2414D01*
X2443D02*
X3786D01*
X2093Y603D02*
X2147D01*
X2176D02*
X2314D01*
X2343D02*
X2414D01*
X2443D02*
X3786D01*
X2093Y606D02*
X2147D01*
X2176D02*
X2314D01*
X2343D02*
X2414D01*
X2443D02*
X3786D01*
X2093Y609D02*
X2147D01*
X2176D02*
X2314D01*
X2343D02*
X2414D01*
X2443D02*
X3786D01*
X2093Y612D02*
X2147D01*
X2176D02*
X2314D01*
X2343D02*
X2414D01*
X2443D02*
X3786D01*
X2093Y615D02*
X2147D01*
X2176D02*
X2314D01*
X2343D02*
X2414D01*
X2443D02*
X3786D01*
X2093Y618D02*
X2147D01*
X2176D02*
X2314D01*
X2343D02*
X2414D01*
X2443D02*
X3786D01*
X2093Y621D02*
X2147D01*
X2176D02*
X2314D01*
X2343D02*
X2414D01*
X2443D02*
X3786D01*
X2093Y624D02*
X2147D01*
X2176D02*
X2314D01*
X2343D02*
X2414D01*
X2443D02*
X3786D01*
X2093Y627D02*
X2147D01*
X2176D02*
X2314D01*
X2343D02*
X2414D01*
X2443D02*
X3786D01*
X2093Y630D02*
X2147D01*
X2176D02*
X2314D01*
X2343D02*
X2414D01*
X2443D02*
X3786D01*
X2093Y633D02*
X2147D01*
X2176D02*
X2314D01*
X2343D02*
X2414D01*
X2443D02*
X3786D01*
X2093Y636D02*
X2147D01*
X2176D02*
X2314D01*
X2343D02*
X2414D01*
X2443D02*
X3786D01*
X2093Y639D02*
X2147D01*
X2176D02*
X2314D01*
X2343D02*
X2414D01*
X2443D02*
X3786D01*
X2093Y642D02*
X2147D01*
X2176D02*
X2314D01*
X2343D02*
X2414D01*
X2443D02*
X3786D01*
X2093Y645D02*
X2147D01*
X2176D02*
X2314D01*
X2343D02*
X2414D01*
X2443D02*
X3786D01*
X2093Y648D02*
X2147D01*
X2176D02*
X2314D01*
X2343D02*
X2414D01*
X2443D02*
X3786D01*
X2093Y651D02*
X2147D01*
X2176D02*
X2314D01*
X2343D02*
X2414D01*
X2443D02*
X3786D01*
X2093Y654D02*
X2147D01*
X2176D02*
X2314D01*
X2343D02*
X2414D01*
X2443D02*
X3786D01*
X2136Y657D02*
X2147D01*
X2176D02*
X2314D01*
X2343D02*
X2414D01*
X2443D02*
X3786D01*
X2136Y660D02*
X2147D01*
X2176D02*
X2314D01*
X2343D02*
X2414D01*
X2443D02*
X3786D01*
X2136Y663D02*
X2147D01*
X2176D02*
X2314D01*
X2343D02*
X2414D01*
X2443D02*
X3786D01*
X2136Y666D02*
X2147D01*
X2176D02*
X2314D01*
X2343D02*
X2414D01*
X2443D02*
X3786D01*
X2136Y669D02*
X2147D01*
X2176D02*
X2314D01*
X2343D02*
X2414D01*
X2443D02*
X3786D01*
X2136Y672D02*
X2147D01*
X2176D02*
X2314D01*
X2343D02*
X2414D01*
X2443D02*
X3786D01*
X2136Y675D02*
X2147D01*
X2176D02*
X2314D01*
X2343D02*
X2414D01*
X2443D02*
X3786D01*
X2136Y678D02*
X2147D01*
X2176D02*
X2314D01*
X2343D02*
X2414D01*
X2443D02*
X3786D01*
X2136Y681D02*
X2147D01*
X2176D02*
X2314D01*
X2343D02*
X2414D01*
X2443D02*
X3786D01*
X2136Y684D02*
X2147D01*
X2176D02*
X2314D01*
X2343D02*
X2414D01*
X2443D02*
X3786D01*
X2136Y687D02*
X2147D01*
X2176D02*
X2314D01*
X2343D02*
X2414D01*
X2443D02*
X3786D01*
X2136Y690D02*
X2147D01*
X2176D02*
X2314D01*
X2343D02*
X2414D01*
X2443D02*
X3786D01*
X2136Y693D02*
X2147D01*
X2176D02*
X2314D01*
X2343D02*
X2414D01*
X2443D02*
X3786D01*
X2136Y696D02*
X2147D01*
X2176D02*
X2314D01*
X2343D02*
X2414D01*
X2443D02*
X3786D01*
X2136Y699D02*
X2147D01*
X2176D02*
X2314D01*
X2343D02*
X2414D01*
X2443D02*
X3786D01*
X2136Y702D02*
X2147D01*
X2176D02*
X2314D01*
X2343D02*
X2414D01*
X2443D02*
X3786D01*
X2136Y705D02*
X2147D01*
X2176D02*
X2314D01*
X2343D02*
X2414D01*
X2443D02*
X3786D01*
X2136Y708D02*
X2147D01*
X2176D02*
X2314D01*
X2343D02*
X2414D01*
X2443D02*
X3786D01*
X2136Y711D02*
X2147D01*
X2176D02*
X2314D01*
X2343D02*
X2414D01*
X2443D02*
X3786D01*
X2136Y714D02*
X2147D01*
X2176D02*
X2314D01*
X2343D02*
X2414D01*
X2443D02*
X3786D01*
X2136Y717D02*
X2147D01*
X2176D02*
X2314D01*
X2343D02*
X2414D01*
X2443D02*
X3786D01*
X2136Y720D02*
X2147D01*
X2176D02*
X2314D01*
X2343D02*
X2414D01*
X2443D02*
X3786D01*
X2136Y723D02*
X2147D01*
X2176D02*
X2314D01*
X2343D02*
X2414D01*
X2443D02*
X3786D01*
X2136Y726D02*
X2147D01*
X2176D02*
X2314D01*
X2343D02*
X2414D01*
X2443D02*
X3786D01*
X2136Y729D02*
X2147D01*
X2176D02*
X2314D01*
X2343D02*
X2414D01*
X2443D02*
X3786D01*
X2136Y732D02*
X2147D01*
X2176D02*
X2314D01*
X2343D02*
X2414D01*
X2443D02*
X3786D01*
X2136Y735D02*
X2147D01*
X2176D02*
X2314D01*
X2343D02*
X2414D01*
X2443D02*
X3786D01*
X2136Y738D02*
X2147D01*
X2176D02*
X2314D01*
X2343D02*
X2414D01*
X2443D02*
X3786D01*
X2136Y741D02*
X2147D01*
X2176D02*
X2314D01*
X2343D02*
X2414D01*
X2443D02*
X3786D01*
X2136Y744D02*
X2147D01*
X2176D02*
X2314D01*
X2343D02*
X2414D01*
X2443D02*
X3786D01*
X2093Y747D02*
X2147D01*
X2176D02*
X2314D01*
X2343D02*
X2414D01*
X2443D02*
X3786D01*
X2093Y750D02*
X2147D01*
X2176D02*
X2314D01*
X2343D02*
X2414D01*
X2443D02*
X3786D01*
X2093Y753D02*
X2147D01*
X2176D02*
X2314D01*
X2343D02*
X2414D01*
X2443D02*
X3786D01*
X2093Y756D02*
X2147D01*
X2176D02*
X2314D01*
X2343D02*
X2414D01*
X2443D02*
X3786D01*
X2093Y759D02*
X2147D01*
X2176D02*
X2314D01*
X2343D02*
X2414D01*
X2443D02*
X3786D01*
X2093Y762D02*
X2147D01*
X2176D02*
X2314D01*
X2343D02*
X2414D01*
X2443D02*
X3786D01*
X2093Y765D02*
X2147D01*
X2176D02*
X2314D01*
X2343D02*
X2414D01*
X2443D02*
X3786D01*
X2093Y768D02*
X2147D01*
X2176D02*
X2314D01*
X2343D02*
X2414D01*
X2443D02*
X3786D01*
X2093Y771D02*
X2147D01*
X2176D02*
X2314D01*
X2343D02*
X2414D01*
X2443D02*
X3786D01*
X2093Y774D02*
X2147D01*
X2176D02*
X2314D01*
X2343D02*
X2414D01*
X2443D02*
X3786D01*
X2093Y777D02*
X2147D01*
X2176D02*
X2314D01*
X2343D02*
X2414D01*
X2443D02*
X3786D01*
X2093Y780D02*
X2147D01*
X2176D02*
X2314D01*
X2343D02*
X2414D01*
X2443D02*
X3786D01*
X2093Y783D02*
X2147D01*
X2176D02*
X2314D01*
X2343D02*
X2414D01*
X2443D02*
X3786D01*
X2093Y786D02*
X2147D01*
X2176D02*
X2314D01*
X2343D02*
X2414D01*
X2443D02*
X3786D01*
X2093Y789D02*
X2147D01*
X2176D02*
X2314D01*
X2343D02*
X2414D01*
X2443D02*
X3786D01*
X2093Y792D02*
X2147D01*
X2176D02*
X2314D01*
X2343D02*
X2414D01*
X2443D02*
X3786D01*
X2093Y795D02*
X2147D01*
X2176D02*
X2314D01*
X2343D02*
X2414D01*
X2443D02*
X3786D01*
X2093Y798D02*
X2147D01*
X2176D02*
X2314D01*
X2343D02*
X2414D01*
X2443D02*
X3786D01*
X2093Y801D02*
X2147D01*
X2176D02*
X2314D01*
X2343D02*
X2414D01*
X2443D02*
X3786D01*
X2093Y804D02*
X2147D01*
X2176D02*
X2314D01*
X2343D02*
X2414D01*
X2443D02*
X3786D01*
X2093Y807D02*
X2147D01*
X2176D02*
X2314D01*
X2343D02*
X2414D01*
X2443D02*
X3786D01*
X2093Y810D02*
X2147D01*
X2176D02*
X2314D01*
X2343D02*
X2414D01*
X2443D02*
X3786D01*
X2093Y813D02*
X2147D01*
X2176D02*
X2314D01*
X2343D02*
X2414D01*
X2443D02*
X3786D01*
X2093Y816D02*
X2147D01*
X2176D02*
X2314D01*
X2343D02*
X2414D01*
X2443D02*
X3786D01*
X2093Y819D02*
X2147D01*
X2176D02*
X2314D01*
X2343D02*
X2414D01*
X2443D02*
X3786D01*
X2093Y822D02*
X2147D01*
X2176D02*
X2314D01*
X2343D02*
X2414D01*
X2443D02*
X3786D01*
X2093Y825D02*
X2147D01*
X2176D02*
X2314D01*
X2343D02*
X2414D01*
X2443D02*
X3786D01*
X2093Y828D02*
X2147D01*
X2176D02*
X2314D01*
X2343D02*
X2414D01*
X2443D02*
X3786D01*
X2093Y831D02*
X2147D01*
X2176D02*
X2314D01*
X2343D02*
X2414D01*
X2443D02*
X3786D01*
X2093Y834D02*
X2147D01*
X2176D02*
X2314D01*
X2343D02*
X2414D01*
X2443D02*
X3786D01*
X2093Y837D02*
X2147D01*
X2176D02*
X2314D01*
X2343D02*
X2414D01*
X2443D02*
X3786D01*
X2093Y840D02*
X2147D01*
X2176D02*
X2314D01*
X2343D02*
X2414D01*
X2443D02*
X3786D01*
X2093Y843D02*
X2147D01*
X2176D02*
X2314D01*
X2343D02*
X2414D01*
X2443D02*
X3786D01*
X2093Y846D02*
X2147D01*
X2176D02*
X2314D01*
X2343D02*
X2414D01*
X2443D02*
X3786D01*
X2093Y849D02*
X2147D01*
X2176D02*
X2314D01*
X2343D02*
X2414D01*
X2443D02*
X3786D01*
X2093Y852D02*
X2147D01*
X2176D02*
X2314D01*
X2343D02*
X2414D01*
X2443D02*
X3786D01*
X2139Y855D02*
X2147D01*
X2176D02*
X2314D01*
X2343D02*
X2414D01*
X2443D02*
X3786D01*
X2139Y858D02*
X2147D01*
X2176D02*
X2314D01*
X2343D02*
X2414D01*
X2443D02*
X3786D01*
X2139Y861D02*
X2147D01*
X2176D02*
X2314D01*
X2343D02*
X2414D01*
X2443D02*
X3786D01*
X2139Y864D02*
X2147D01*
X2176D02*
X2314D01*
X2343D02*
X2414D01*
X2443D02*
X3786D01*
X2139Y867D02*
X2147D01*
X2176D02*
X2314D01*
X2343D02*
X2414D01*
X2443D02*
X3786D01*
X2139Y870D02*
X2147D01*
X2176D02*
X2314D01*
X2343D02*
X2414D01*
X2443D02*
X3786D01*
X2139Y873D02*
X2147D01*
X2176D02*
X2314D01*
X2343D02*
X2414D01*
X2443D02*
X3786D01*
X2139Y876D02*
X2147D01*
X2176D02*
X2314D01*
X2343D02*
X2414D01*
X2443D02*
X3786D01*
X2139Y879D02*
X2147D01*
X2176D02*
X2314D01*
X2343D02*
X2414D01*
X2443D02*
X3786D01*
X2139Y882D02*
X2147D01*
X2176D02*
X2314D01*
X2343D02*
X2414D01*
X2443D02*
X3786D01*
X2139Y885D02*
X2147D01*
X2176D02*
X2314D01*
X2343D02*
X2414D01*
X2443D02*
X3786D01*
X2139Y888D02*
X2147D01*
X2176D02*
X2314D01*
X2343D02*
X2414D01*
X2443D02*
X3786D01*
X2139Y891D02*
X2147D01*
X2176D02*
X2314D01*
X2343D02*
X2414D01*
X2443D02*
X3786D01*
X2139Y894D02*
X2147D01*
X2176D02*
X2314D01*
X2343D02*
X2414D01*
X2443D02*
X3786D01*
X2139Y897D02*
X2147D01*
X2176D02*
X2314D01*
X2343D02*
X2414D01*
X2443D02*
X3786D01*
X2139Y900D02*
X2147D01*
X2176D02*
X2314D01*
X2343D02*
X2414D01*
X2443D02*
X3786D01*
X2139Y903D02*
X2147D01*
X2176D02*
X2314D01*
X2343D02*
X2414D01*
X2443D02*
X3786D01*
X2139Y906D02*
X2147D01*
X2176D02*
X2314D01*
X2343D02*
X2414D01*
X2443D02*
X3786D01*
X2139Y909D02*
X2147D01*
X2176D02*
X2314D01*
X2343D02*
X2414D01*
X2443D02*
X3786D01*
X2139Y912D02*
X2147D01*
X2176D02*
X2314D01*
X2343D02*
X2414D01*
X2443D02*
X3786D01*
X2139Y915D02*
X2147D01*
X2176D02*
X2314D01*
X2343D02*
X2414D01*
X2443D02*
X3786D01*
X2139Y918D02*
X2147D01*
X2176D02*
X2314D01*
X2343D02*
X2414D01*
X2443D02*
X3786D01*
X2139Y921D02*
X2147D01*
X2176D02*
X2314D01*
X2343D02*
X2414D01*
X2443D02*
X3786D01*
X2139Y924D02*
X2147D01*
X2176D02*
X2314D01*
X2343D02*
X2414D01*
X2443D02*
X3786D01*
X2139Y927D02*
X2147D01*
X2176D02*
X2314D01*
X2343D02*
X2414D01*
X2443D02*
X3786D01*
X2139Y930D02*
X2147D01*
X2176D02*
X2314D01*
X2343D02*
X2414D01*
X2443D02*
X3786D01*
X2139Y933D02*
X2147D01*
X2176D02*
X2314D01*
X2343D02*
X2414D01*
X2443D02*
X3786D01*
X2139Y936D02*
X2147D01*
X2176D02*
X2314D01*
X2343D02*
X2414D01*
X2443D02*
X3786D01*
X2139Y939D02*
X2147D01*
X2176D02*
X2314D01*
X2343D02*
X2414D01*
X2443D02*
X3786D01*
X2139Y942D02*
X2147D01*
X2176D02*
X2314D01*
X2343D02*
X2414D01*
X2443D02*
X3786D01*
X2139Y945D02*
X2147D01*
X2176D02*
X2314D01*
X2343D02*
X2414D01*
X2443D02*
X3786D01*
X2139Y948D02*
X2147D01*
X2176D02*
X2314D01*
X2343D02*
X2414D01*
X2443D02*
X3786D01*
X2093Y951D02*
X2147D01*
X2176D02*
X2314D01*
X2343D02*
X2414D01*
X2443D02*
X3786D01*
X2093Y954D02*
X2147D01*
X2176D02*
X2314D01*
X2343D02*
X2414D01*
X2443D02*
X3786D01*
X2093Y957D02*
X2147D01*
X2176D02*
X2314D01*
X2343D02*
X2414D01*
X2443D02*
X3786D01*
X2093Y960D02*
X2147D01*
X2176D02*
X2314D01*
X2343D02*
X2414D01*
X2443D02*
X3786D01*
X2093Y963D02*
X2147D01*
X2176D02*
X2314D01*
X2343D02*
X2414D01*
X2443D02*
X3786D01*
X2093Y966D02*
X2147D01*
X2176D02*
X2314D01*
X2343D02*
X2414D01*
X2443D02*
X3786D01*
X2093Y969D02*
X2147D01*
X2176D02*
X2314D01*
X2343D02*
X2414D01*
X2443D02*
X3786D01*
X2093Y972D02*
X2147D01*
X2176D02*
X2314D01*
X2343D02*
X2414D01*
X2443D02*
X3786D01*
X2093Y975D02*
X2147D01*
X2176D02*
X2314D01*
X2343D02*
X2414D01*
X2443D02*
X3786D01*
X2093Y978D02*
X2147D01*
X2176D02*
X2314D01*
X2343D02*
X2414D01*
X2443D02*
X3786D01*
X2093Y981D02*
X2147D01*
X2176D02*
X2314D01*
X2343D02*
X2414D01*
X2443D02*
X3786D01*
X2176Y984D02*
X2314D01*
X2343D02*
X2414D01*
X2443D02*
X3786D01*
X2176Y987D02*
X2314D01*
X2343D02*
X2414D01*
X2443D02*
X3786D01*
X2176Y990D02*
X2314D01*
X2343D02*
X2414D01*
X2443D02*
X3786D01*
X2176Y993D02*
X2314D01*
X2343D02*
X2414D01*
X2443D02*
X3786D01*
X2176Y996D02*
X2314D01*
X2343D02*
X2414D01*
X2443D02*
X3786D01*
X2176Y999D02*
X2314D01*
X2343D02*
X2414D01*
X2443D02*
X3786D01*
X2176Y1002D02*
X2314D01*
X2343D02*
X2414D01*
X2443D02*
X3786D01*
X2175Y1005D02*
X2314D01*
X2343D02*
X2414D01*
X2443D02*
X3786D01*
X2172Y1008D02*
X2314D01*
X2343D02*
X2414D01*
X2443D02*
X3786D01*
X2169Y1011D02*
X2314D01*
X2343D02*
X2414D01*
X2443D02*
X3786D01*
X2093Y1014D02*
X2314D01*
X2343D02*
X2414D01*
X2443D02*
X3786D01*
X2093Y1017D02*
X2314D01*
X2343D02*
X2414D01*
X2443D02*
X3786D01*
X2093Y1020D02*
X2314D01*
X2343D02*
X2414D01*
X2443D02*
X3786D01*
X2093Y1023D02*
X2312D01*
X2343D02*
X2414D01*
X2443D02*
X3786D01*
X2093Y1026D02*
X2309D01*
X2343D02*
X2414D01*
X2443D02*
X3786D01*
X2093Y1029D02*
X2306D01*
X2343D02*
X2414D01*
X2443D02*
X3786D01*
X2093Y1032D02*
X2303D01*
X2342D02*
X2414D01*
X2443D02*
X3786D01*
X2093Y1035D02*
X2300D01*
X2341D02*
X2414D01*
X2443D02*
X3786D01*
X2102Y1038D02*
X2297D01*
X2338D02*
X2414D01*
X2443D02*
X3786D01*
X2102Y1041D02*
X2294D01*
X2335D02*
X2414D01*
X2443D02*
X3786D01*
X2102Y1044D02*
X2291D01*
X2332D02*
X2414D01*
X2443D02*
X3786D01*
X2102Y1047D02*
X2288D01*
X2329D02*
X2414D01*
X2443D02*
X3786D01*
X2102Y1050D02*
X2285D01*
X2326D02*
X2414D01*
X2443D02*
X3786D01*
X2102Y1053D02*
X2282D01*
X2323D02*
X2414D01*
X2443D02*
X3786D01*
X2102Y1056D02*
X2279D01*
X2320D02*
X2414D01*
X2443D02*
X3786D01*
X2102Y1059D02*
X2276D01*
X2317D02*
X2411D01*
X2443D02*
X3786D01*
X2102Y1062D02*
X2273D01*
X2314D02*
X2408D01*
X2443D02*
X3786D01*
X2311Y1065D02*
X2405D01*
X2443D02*
X3786D01*
X2308Y1068D02*
X2402D01*
X2442D02*
X3786D01*
X2305Y1071D02*
X2399D01*
X2440D02*
X3786D01*
X2302Y1074D02*
X2396D01*
X2437D02*
X3786D01*
X2299Y1077D02*
X2393D01*
X2434D02*
X3786D01*
X2296Y1080D02*
X2390D01*
X2431D02*
X3786D01*
X2293Y1083D02*
X2387D01*
X2428D02*
X3786D01*
X2290Y1086D02*
X2384D01*
X2425D02*
X3786D01*
X2287Y1089D02*
X2381D01*
X2422D02*
X3786D01*
X2102Y1092D02*
X2378D01*
X2419D02*
X3786D01*
X2102Y1095D02*
X2375D01*
X2416D02*
X3786D01*
X2102Y1098D02*
X2172D01*
X2413D02*
X3786D01*
X2102Y1101D02*
X2167D01*
X2410D02*
X3786D01*
X2102Y1104D02*
X2164D01*
X2407D02*
X3786D01*
X2102Y1107D02*
X2161D01*
X2404D02*
X3786D01*
X2102Y1110D02*
X2158D01*
X2401D02*
X3786D01*
X2102Y1113D02*
X2155D01*
X2398D02*
X3786D01*
X2102Y1116D02*
X2152D01*
X2395D02*
X3786D01*
X2093Y1119D02*
X2149D01*
X2392D02*
X3786D01*
X2093Y1122D02*
X2146D01*
X2389D02*
X3786D01*
X2093Y1125D02*
X2143D01*
X2384D02*
X3786D01*
X2093Y1128D02*
X2140D01*
X2181D02*
X3786D01*
X2093Y1131D02*
X2137D01*
X2178D02*
X3786D01*
X2093Y1134D02*
X2135D01*
X2175D02*
X3786D01*
X2093Y1137D02*
X2133D01*
X2172D02*
X3786D01*
X2093Y1140D02*
X2133D01*
X2169D02*
X2220D01*
X2237D02*
X3720D01*
X3737D02*
X3786D01*
X2093Y1143D02*
X2132D01*
X2166D02*
X2211D01*
X2246D02*
X2321D01*
X2337D02*
X2421D01*
X2437D02*
X2521D01*
X2537D02*
X2621D01*
X2637D02*
X2721D01*
X2737D02*
X2821D01*
X2837D02*
X2921D01*
X2937D02*
X3021D01*
X3037D02*
X3121D01*
X3137D02*
X3221D01*
X3237D02*
X3321D01*
X3337D02*
X3421D01*
X3437D02*
X3521D01*
X3537D02*
X3621D01*
X3637D02*
X3711D01*
X3746D02*
X3786D01*
X2093Y1146D02*
X2132D01*
X2163D02*
X2206D01*
X2252D02*
X2312D01*
X2346D02*
X2412D01*
X2446D02*
X2512D01*
X2546D02*
X2612D01*
X2646D02*
X2712D01*
X2746D02*
X2812D01*
X2846D02*
X2912D01*
X2946D02*
X3012D01*
X3046D02*
X3112D01*
X3146D02*
X3212D01*
X3246D02*
X3312D01*
X3346D02*
X3412D01*
X3446D02*
X3512D01*
X3546D02*
X3612D01*
X3646D02*
X3706D01*
X3752D02*
X3786D01*
X2093Y1149D02*
X2132D01*
X2161D02*
X2202D01*
X2256D02*
X2306D01*
X2351D02*
X2406D01*
X2451D02*
X2506D01*
X2551D02*
X2606D01*
X2651D02*
X2706D01*
X2751D02*
X2806D01*
X2851D02*
X2906D01*
X2951D02*
X3006D01*
X3051D02*
X3106D01*
X3151D02*
X3206D01*
X3251D02*
X3306D01*
X3351D02*
X3406D01*
X3451D02*
X3506D01*
X3551D02*
X3606D01*
X3651D02*
X3702D01*
X3756D02*
X3786D01*
X2102Y1152D02*
X2132D01*
X2161D02*
X2198D01*
X2259D02*
X2303D01*
X2355D02*
X2403D01*
X2455D02*
X2503D01*
X2555D02*
X2603D01*
X2655D02*
X2703D01*
X2755D02*
X2803D01*
X2855D02*
X2903D01*
X2955D02*
X3003D01*
X3055D02*
X3103D01*
X3155D02*
X3203D01*
X3255D02*
X3303D01*
X3355D02*
X3403D01*
X3455D02*
X3503D01*
X3555D02*
X3603D01*
X3655D02*
X3698D01*
X3759D02*
X3786D01*
X2102Y1155D02*
X2132D01*
X2161D02*
X2196D01*
X2262D02*
X2300D01*
X2358D02*
X2400D01*
X2458D02*
X2500D01*
X2558D02*
X2600D01*
X2658D02*
X2700D01*
X2758D02*
X2800D01*
X2858D02*
X2900D01*
X2958D02*
X3000D01*
X3058D02*
X3100D01*
X3158D02*
X3200D01*
X3258D02*
X3300D01*
X3358D02*
X3400D01*
X3458D02*
X3500D01*
X3558D02*
X3600D01*
X3658D02*
X3696D01*
X3762D02*
X3786D01*
X2102Y1158D02*
X2132D01*
X2161D02*
X2193D01*
X2264D02*
X2297D01*
X2360D02*
X2397D01*
X2460D02*
X2497D01*
X2560D02*
X2597D01*
X2660D02*
X2697D01*
X2760D02*
X2797D01*
X2860D02*
X2897D01*
X2960D02*
X2997D01*
X3060D02*
X3097D01*
X3160D02*
X3197D01*
X3260D02*
X3297D01*
X3360D02*
X3397D01*
X3460D02*
X3497D01*
X3560D02*
X3597D01*
X3660D02*
X3693D01*
X3764D02*
X3786D01*
X2102Y1161D02*
X2132D01*
X2161D02*
X2192D01*
X2266D02*
X2295D01*
X2362D02*
X2395D01*
X2462D02*
X2495D01*
X2562D02*
X2595D01*
X2662D02*
X2695D01*
X2762D02*
X2795D01*
X2862D02*
X2895D01*
X2962D02*
X2995D01*
X3062D02*
X3095D01*
X3162D02*
X3195D01*
X3262D02*
X3295D01*
X3362D02*
X3395D01*
X3462D02*
X3495D01*
X3562D02*
X3595D01*
X3662D02*
X3692D01*
X3766D02*
X3786D01*
X2102Y1164D02*
X2132D01*
X2161D02*
X2190D01*
X2267D02*
X2293D01*
X2364D02*
X2393D01*
X2464D02*
X2493D01*
X2564D02*
X2593D01*
X2664D02*
X2693D01*
X2764D02*
X2793D01*
X2864D02*
X2893D01*
X2964D02*
X2993D01*
X3064D02*
X3093D01*
X3164D02*
X3193D01*
X3264D02*
X3293D01*
X3364D02*
X3393D01*
X3464D02*
X3493D01*
X3564D02*
X3593D01*
X3664D02*
X3690D01*
X3767D02*
X3786D01*
X2102Y1167D02*
X2132D01*
X2161D02*
X2189D01*
X2269D02*
X2292D01*
X2365D02*
X2392D01*
X2465D02*
X2492D01*
X2565D02*
X2592D01*
X2665D02*
X2692D01*
X2765D02*
X2792D01*
X2865D02*
X2892D01*
X2965D02*
X2992D01*
X3065D02*
X3092D01*
X3165D02*
X3192D01*
X3265D02*
X3292D01*
X3365D02*
X3392D01*
X3465D02*
X3492D01*
X3565D02*
X3592D01*
X3665D02*
X3689D01*
X3769D02*
X3786D01*
X2102Y1170D02*
X2132D01*
X2161D02*
X2188D01*
X2270D02*
X2291D01*
X2366D02*
X2391D01*
X2466D02*
X2491D01*
X2566D02*
X2591D01*
X2666D02*
X2691D01*
X2766D02*
X2791D01*
X2866D02*
X2891D01*
X2966D02*
X2991D01*
X3066D02*
X3091D01*
X3166D02*
X3191D01*
X3266D02*
X3291D01*
X3366D02*
X3391D01*
X3466D02*
X3491D01*
X3566D02*
X3591D01*
X3666D02*
X3688D01*
X3770D02*
X3786D01*
X2102Y1173D02*
X2132D01*
X2161D02*
X2187D01*
X2270D02*
X2290D01*
X2367D02*
X2390D01*
X2467D02*
X2490D01*
X2567D02*
X2590D01*
X2667D02*
X2690D01*
X2767D02*
X2790D01*
X2867D02*
X2890D01*
X2967D02*
X2990D01*
X3067D02*
X3090D01*
X3167D02*
X3190D01*
X3267D02*
X3290D01*
X3367D02*
X3390D01*
X3467D02*
X3490D01*
X3567D02*
X3590D01*
X3667D02*
X3687D01*
X3770D02*
X3786D01*
X2161Y1176D02*
X2187D01*
X2271D02*
X2290D01*
X2368D02*
X2390D01*
X2468D02*
X2490D01*
X2568D02*
X2590D01*
X2668D02*
X2690D01*
X2768D02*
X2790D01*
X2868D02*
X2890D01*
X2968D02*
X2990D01*
X3068D02*
X3090D01*
X3168D02*
X3190D01*
X3268D02*
X3290D01*
X3368D02*
X3390D01*
X3468D02*
X3490D01*
X3568D02*
X3590D01*
X3668D02*
X3687D01*
X3771D02*
X3786D01*
X2161Y1179D02*
X2186D01*
X2271D02*
X2289D01*
X2368D02*
X2389D01*
X2468D02*
X2489D01*
X2568D02*
X2589D01*
X2668D02*
X2689D01*
X2768D02*
X2789D01*
X2868D02*
X2889D01*
X2968D02*
X2989D01*
X3068D02*
X3089D01*
X3168D02*
X3189D01*
X3268D02*
X3289D01*
X3368D02*
X3389D01*
X3468D02*
X3489D01*
X3568D02*
X3589D01*
X3668D02*
X3686D01*
X3771D02*
X3786D01*
X2161Y1182D02*
X2186D01*
X2271D02*
X2289D01*
X2368D02*
X2389D01*
X2468D02*
X2489D01*
X2568D02*
X2589D01*
X2668D02*
X2689D01*
X2768D02*
X2789D01*
X2868D02*
X2889D01*
X2968D02*
X2989D01*
X3068D02*
X3089D01*
X3168D02*
X3189D01*
X3268D02*
X3289D01*
X3368D02*
X3389D01*
X3468D02*
X3489D01*
X3568D02*
X3589D01*
X3668D02*
X3686D01*
X3771D02*
X3786D01*
X2161Y1185D02*
X2186D01*
X2271D02*
X2289D01*
X2368D02*
X2389D01*
X2468D02*
X2489D01*
X2568D02*
X2589D01*
X2668D02*
X2689D01*
X2768D02*
X2789D01*
X2868D02*
X2889D01*
X2968D02*
X2989D01*
X3068D02*
X3089D01*
X3168D02*
X3189D01*
X3268D02*
X3289D01*
X3368D02*
X3389D01*
X3468D02*
X3489D01*
X3568D02*
X3589D01*
X3668D02*
X3686D01*
X3771D02*
X3786D01*
X2161Y1188D02*
X2187D01*
X2271D02*
X2290D01*
X2368D02*
X2390D01*
X2468D02*
X2490D01*
X2568D02*
X2590D01*
X2668D02*
X2690D01*
X2768D02*
X2790D01*
X2868D02*
X2890D01*
X2968D02*
X2990D01*
X3068D02*
X3090D01*
X3168D02*
X3190D01*
X3268D02*
X3290D01*
X3368D02*
X3390D01*
X3468D02*
X3490D01*
X3568D02*
X3590D01*
X3668D02*
X3687D01*
X3771D02*
X3786D01*
X2161Y1191D02*
X2187D01*
X2270D02*
X2290D01*
X2367D02*
X2390D01*
X2467D02*
X2490D01*
X2567D02*
X2590D01*
X2667D02*
X2690D01*
X2767D02*
X2790D01*
X2867D02*
X2890D01*
X2967D02*
X2990D01*
X3067D02*
X3090D01*
X3167D02*
X3190D01*
X3267D02*
X3290D01*
X3367D02*
X3390D01*
X3467D02*
X3490D01*
X3567D02*
X3590D01*
X3667D02*
X3687D01*
X3770D02*
X3786D01*
X2161Y1194D02*
X2188D01*
X2269D02*
X2291D01*
X2366D02*
X2391D01*
X2466D02*
X2491D01*
X2566D02*
X2591D01*
X2666D02*
X2691D01*
X2766D02*
X2791D01*
X2866D02*
X2891D01*
X2966D02*
X2991D01*
X3066D02*
X3091D01*
X3166D02*
X3191D01*
X3266D02*
X3291D01*
X3366D02*
X3391D01*
X3466D02*
X3491D01*
X3566D02*
X3591D01*
X3666D02*
X3688D01*
X3769D02*
X3786D01*
X2160Y1197D02*
X2189D01*
X2268D02*
X2292D01*
X2365D02*
X2392D01*
X2465D02*
X2492D01*
X2565D02*
X2592D01*
X2665D02*
X2692D01*
X2765D02*
X2792D01*
X2865D02*
X2892D01*
X2965D02*
X2992D01*
X3065D02*
X3092D01*
X3165D02*
X3192D01*
X3265D02*
X3292D01*
X3365D02*
X3392D01*
X3465D02*
X3492D01*
X3565D02*
X3592D01*
X3665D02*
X3689D01*
X3768D02*
X3786D01*
X2158Y1200D02*
X2190D01*
X2267D02*
X2294D01*
X2364D02*
X2394D01*
X2464D02*
X2494D01*
X2564D02*
X2594D01*
X2664D02*
X2694D01*
X2764D02*
X2794D01*
X2864D02*
X2894D01*
X2964D02*
X2994D01*
X3064D02*
X3094D01*
X3164D02*
X3194D01*
X3264D02*
X3294D01*
X3364D02*
X3394D01*
X3464D02*
X3494D01*
X3564D02*
X3594D01*
X3664D02*
X3690D01*
X3767D02*
X3786D01*
X2154Y1203D02*
X2192D01*
X2265D02*
X2295D01*
X2362D02*
X2395D01*
X2462D02*
X2495D01*
X2562D02*
X2595D01*
X2662D02*
X2695D01*
X2762D02*
X2795D01*
X2862D02*
X2895D01*
X2962D02*
X2995D01*
X3062D02*
X3095D01*
X3162D02*
X3195D01*
X3262D02*
X3295D01*
X3362D02*
X3395D01*
X3462D02*
X3495D01*
X3562D02*
X3595D01*
X3662D02*
X3692D01*
X3765D02*
X3786D01*
X2102Y1206D02*
X2194D01*
X2264D02*
X2298D01*
X2360D02*
X2398D01*
X2460D02*
X2498D01*
X2560D02*
X2598D01*
X2660D02*
X2698D01*
X2760D02*
X2798D01*
X2860D02*
X2898D01*
X2960D02*
X2998D01*
X3060D02*
X3098D01*
X3160D02*
X3198D01*
X3260D02*
X3298D01*
X3360D02*
X3398D01*
X3460D02*
X3498D01*
X3560D02*
X3598D01*
X3660D02*
X3694D01*
X3764D02*
X3786D01*
X2102Y1209D02*
X2196D01*
X2261D02*
X2300D01*
X2357D02*
X2400D01*
X2457D02*
X2500D01*
X2557D02*
X2600D01*
X2657D02*
X2700D01*
X2757D02*
X2800D01*
X2857D02*
X2900D01*
X2957D02*
X3000D01*
X3057D02*
X3100D01*
X3157D02*
X3200D01*
X3257D02*
X3300D01*
X3357D02*
X3400D01*
X3457D02*
X3500D01*
X3557D02*
X3600D01*
X3657D02*
X3696D01*
X3761D02*
X3786D01*
X2102Y1212D02*
X2199D01*
X2258D02*
X2303D01*
X2354D02*
X2403D01*
X2454D02*
X2503D01*
X2554D02*
X2603D01*
X2654D02*
X2703D01*
X2754D02*
X2803D01*
X2854D02*
X2903D01*
X2954D02*
X3003D01*
X3054D02*
X3103D01*
X3154D02*
X3203D01*
X3254D02*
X3303D01*
X3354D02*
X3403D01*
X3454D02*
X3503D01*
X3554D02*
X3603D01*
X3654D02*
X3699D01*
X3758D02*
X3786D01*
X2102Y1215D02*
X2202D01*
X2255D02*
X2307D01*
X2350D02*
X2407D01*
X2450D02*
X2507D01*
X2550D02*
X2607D01*
X2650D02*
X2707D01*
X2750D02*
X2807D01*
X2850D02*
X2907D01*
X2950D02*
X3007D01*
X3050D02*
X3107D01*
X3150D02*
X3207D01*
X3250D02*
X3307D01*
X3350D02*
X3407D01*
X3450D02*
X3507D01*
X3550D02*
X3607D01*
X3650D02*
X3702D01*
X3755D02*
X3786D01*
X2102Y1218D02*
X2207D01*
X2251D02*
X2313D01*
X2344D02*
X2413D01*
X2444D02*
X2513D01*
X2544D02*
X2613D01*
X2644D02*
X2713D01*
X2744D02*
X2813D01*
X2844D02*
X2913D01*
X2944D02*
X3013D01*
X3044D02*
X3113D01*
X3144D02*
X3213D01*
X3244D02*
X3313D01*
X3344D02*
X3413D01*
X3444D02*
X3513D01*
X3544D02*
X3613D01*
X3644D02*
X3707D01*
X3751D02*
X3786D01*
X2102Y1221D02*
X2213D01*
X2245D02*
X2325D01*
X2332D02*
X2425D01*
X2432D02*
X2525D01*
X2532D02*
X2625D01*
X2632D02*
X2725D01*
X2732D02*
X2825D01*
X2832D02*
X2925D01*
X2932D02*
X3025D01*
X3032D02*
X3125D01*
X3132D02*
X3225D01*
X3232D02*
X3325D01*
X3332D02*
X3425D01*
X3432D02*
X3525D01*
X3532D02*
X3625D01*
X3632D02*
X3713D01*
X3745D02*
X3786D01*
X2102Y1224D02*
X2225D01*
X2233D02*
X3725D01*
X3733D02*
X3786D01*
X2102Y1227D02*
X3786D01*
X2102Y1230D02*
X3786D01*
X2093Y1233D02*
X3786D01*
X2093Y1236D02*
X3786D01*
X2093Y1239D02*
X3786D01*
X2093Y1242D02*
X3786D01*
X2093Y1245D02*
X3786D01*
X2093Y1248D02*
X3786D01*
X2093Y1251D02*
X3786D01*
X2093Y1254D02*
X3786D01*
D02*
D13*
X187Y733D02*
X167D01*
X191Y1172D02*
X321D01*
Y1189*
X202Y812D02*
X182D01*
X210Y949D02*
Y1049D01*
X233*
X212Y710D02*
Y690D01*
Y755D02*
Y775D01*
X213Y801D02*
Y781D01*
Y823D02*
Y843D01*
X224Y812D02*
X244D01*
X237Y733D02*
X257D01*
X302D02*
X424D01*
X323Y1049D02*
Y1189D01*
X321*
X326Y1255D02*
Y1189D01*
X321*
X326Y1353D02*
X380D01*
X408Y1325*
Y1323*
X326Y1353D02*
X193D01*
Y1348*
X196*
X326Y1373D02*
X299D01*
X272Y1400*
Y1445*
X245Y1473*
X197*
X326Y1373D02*
X443D01*
Y1366*
X326Y1471D02*
X581D01*
Y1457*
X385Y1196D02*
X321D01*
Y1189*
X405Y1196D02*
Y993D01*
X362Y949*
X344*
X425Y1196D02*
Y733D01*
X424*
X425Y1530D02*
Y1557D01*
X447Y1579*
X671*
Y1599*
X444Y1196D02*
Y843D01*
X493Y793*
X495*
X526Y762*
Y733*
X524*
X464Y1196D02*
Y1054D01*
X510Y1009*
X527*
X484Y1196D02*
Y1068D01*
X683*
X724Y1026*
Y1009*
X503Y1196D02*
Y1107D01*
X1190*
X1240Y1057*
Y774*
X527Y1009D02*
Y890D01*
X530*
X562Y1196D02*
Y1169D01*
X590Y1141*
X1745*
X1783Y1104*
Y1049*
X1833Y999*
X2162*
Y360*
X2212Y310*
X3401*
X3429Y337*
Y382*
X582Y1196D02*
Y1402D01*
X581*
X592Y1009D02*
X572D01*
X602Y1196D02*
X1812D01*
X1847Y1161*
Y1109*
X1878Y1077*
X1927*
X606Y953D02*
X586D01*
X617Y942D02*
Y922D01*
X628Y953D02*
X648D01*
X628Y649D02*
X608D01*
X640Y575D02*
X620D01*
X642Y1009D02*
X662D01*
X651Y565D02*
Y545D01*
Y674D02*
Y694D01*
Y739D02*
X524D01*
Y733*
X661Y1255D02*
Y1232D01*
X1881*
X1923Y1191*
X1927*
X661Y1274D02*
X2634D01*
X2684Y1324*
Y1520*
X661Y1294D02*
X2280D01*
X2330Y1344*
Y1520*
X661Y1314D02*
X1925D01*
X1975Y1364*
Y1520*
X661Y1333D02*
X1571D01*
X1621Y1383*
Y1520*
X661Y1471D02*
Y1489D01*
X692Y1520*
X730*
X662Y575D02*
X682D01*
X673Y649D02*
X693D01*
X724Y1009D02*
Y890D01*
X730*
Y878*
X814*
X828Y864*
Y859*
X755Y587D02*
X735D01*
X789Y1009D02*
X769D01*
X813Y557D02*
Y537D01*
Y617D02*
Y637D01*
X814Y986D02*
Y966D01*
Y1031D02*
Y1051D01*
X828Y725D02*
Y732D01*
X802*
X674Y860*
X578*
X548Y890*
X530*
X839Y1009D02*
X859D01*
X871Y587D02*
X891D01*
X1066Y1678D02*
Y1481D01*
X1053*
X1166Y1678D02*
Y1481D01*
X1194*
X1240Y416D02*
X1399D01*
Y397*
X1240Y774D02*
X1379D01*
Y764*
X1514Y567D02*
X1642D01*
Y563*
X1562Y536D02*
X1642D01*
Y537*
X1615Y1678D02*
Y1520D01*
X1621*
X1642Y694D02*
X1624D01*
X1591Y660*
Y622*
X1624Y588*
X1642*
X1815Y563D02*
X1955D01*
Y587*
X1815Y563D02*
X1798D01*
X1750Y515*
Y403*
X1815Y614D02*
Y639D01*
X1837*
Y834*
X1725*
X1698Y861*
Y905*
X1837Y834D02*
X1926D01*
X1975Y1520D02*
Y1678D01*
X1970*
X2061Y1077D02*
X2279D01*
X2329Y1027*
Y382*
X2061Y1191D02*
X2147D01*
Y1142*
X2178Y1112*
X2379*
X2429Y1062*
Y382*
X2074Y826D02*
X2094D01*
X2095Y870D02*
X2113Y852D01*
X2095Y933D02*
X2113Y952D01*
X2096Y381D02*
X2110Y367D01*
X2096Y396D02*
X2110Y410D01*
X2204Y1182D02*
X2184D01*
X2229Y1157D02*
Y1137D01*
Y1207D02*
Y1227D01*
X2254Y1182D02*
X2274D01*
X2330Y1520D02*
Y1678D01*
X2324*
X2684Y1520D02*
Y1678D01*
X2678*
X3019Y1520D02*
Y1678D01*
X3013*
X3604Y382D02*
X3584D01*
X3629Y357D02*
Y337D01*
Y407D02*
Y427D01*
X3654Y382D02*
X3674D01*
X3704Y1182D02*
X3684D01*
X3729Y1157D02*
Y1137D01*
Y1207D02*
Y1227D01*
X3754Y1182D02*
X3774D01*
D02*
D18*
X1007Y416D03*
Y774D03*
X1240Y416D03*
Y774D03*
D02*
D19*
X385Y1196D03*
Y1530D03*
X405Y1196D03*
Y1530D03*
X425Y1196D03*
Y1530D03*
X444Y1196D03*
Y1530D03*
X464Y1196D03*
Y1530D03*
X484Y1196D03*
Y1530D03*
X503Y1196D03*
Y1530D03*
X523Y1196D03*
Y1530D03*
X543Y1196D03*
Y1530D03*
X562Y1196D03*
Y1530D03*
X582Y1196D03*
Y1530D03*
X602Y1196D03*
Y1530D03*
D02*
D70*
X326Y1255D03*
Y1274D03*
Y1294D03*
Y1314D03*
Y1333D03*
Y1353D03*
Y1373D03*
Y1392D03*
Y1412D03*
Y1432D03*
Y1451D03*
Y1471D03*
X661Y1255D03*
Y1274D03*
Y1294D03*
Y1314D03*
Y1333D03*
Y1353D03*
Y1373D03*
Y1392D03*
Y1412D03*
Y1432D03*
Y1451D03*
Y1471D03*
D02*
D21*
X326Y1274D02*
X258D01*
X326Y1333D02*
X301D01*
X258Y1291*
Y1272*
X385Y1530D02*
Y1619D01*
X375*
X405Y1530D02*
Y1618D01*
X424*
X523Y1196D02*
X522D01*
Y1256*
X496Y1282*
X451*
Y1280*
X543Y1196D02*
Y1284D01*
X534*
X661Y1451D02*
X730D01*
Y1461*
D02*
D22*
X71Y1413D03*
X691Y380D03*
X1778Y768D03*
D02*
D97*
X424Y733D03*
X524D03*
X530Y890D03*
X730D03*
X2229Y382D03*
Y1182D03*
X2329Y382D03*
Y1182D03*
X2429Y382D03*
Y1182D03*
X2529Y382D03*
Y1182D03*
X2629Y382D03*
Y1182D03*
X2729Y382D03*
Y1182D03*
X2829Y382D03*
Y1182D03*
X2929Y382D03*
Y1182D03*
X3029Y382D03*
Y1182D03*
X3129Y382D03*
Y1182D03*
X3229Y382D03*
Y1182D03*
X3329Y382D03*
Y1182D03*
X3429Y382D03*
Y1182D03*
X3529Y382D03*
Y1182D03*
X3629Y382D03*
Y1182D03*
X3729Y382D03*
Y1182D03*
D02*
D98*
X212Y733D03*
X233Y1049D03*
X302Y733D03*
X323Y1049D03*
X350Y1698D03*
X440D03*
X527Y1009D03*
X617D03*
X724D03*
X814D03*
X1531Y1520D03*
X1621D03*
X1698Y905D03*
X1788D03*
X1885Y1520D03*
X1975D03*
X2240D03*
X2330D03*
X2594D03*
X2684D03*
X2929D03*
X3019D03*
D02*
D99*
X62Y1348D03*
X63Y1473D03*
X196Y1348D03*
X197Y1473D03*
X210Y949D03*
X344D03*
X828Y725D03*
Y859D03*
X919Y1481D03*
X1053D03*
X1194D03*
X1328D03*
X1379Y764D03*
Y898D03*
X1465Y1048D03*
X1599D03*
X1642Y694D03*
X1776D03*
X1926Y700D03*
Y834D03*
X1927Y1077D03*
Y1191D03*
X2061Y1077D03*
Y1191D03*
D02*
D100*
X62Y1172D03*
Y1262D03*
X191Y1172D03*
Y1262D03*
X651Y649D03*
Y739D03*
X789Y1475D03*
Y1565D03*
D02*
D101*
X966Y1678D03*
X1066D03*
X1166D03*
X1266D03*
X1515D03*
X1615D03*
X1650Y403D03*
X1750D03*
X1870Y1678D03*
X1970D03*
X2224D03*
X2324D03*
X2578D03*
X2678D03*
X2913D03*
X3013D03*
X3469Y1673D03*
X3569D03*
D02*
D102*
X813Y387D03*
Y587D03*
X1399Y397D03*
Y597D03*
X1955Y387D03*
Y587D03*
X2063Y702D03*
Y902D03*
D02*
D103*
X3435Y1511D03*
X3635D03*
D02*
D104*
X1642Y537D03*
Y563D03*
Y588D03*
Y614D03*
X1815Y537D03*
Y563D03*
Y588D03*
Y614D03*
D02*
D105*
X213Y812D03*
X258Y1272D03*
X321Y1189D03*
X375Y1619D03*
X408Y1323D03*
X424Y1618D03*
X443Y1366D03*
X451Y1280D03*
X534Y1284D03*
X581Y1402D03*
Y1457D03*
X617Y953D03*
X651Y575D03*
X671Y1599D03*
X730Y1461D03*
Y1520D03*
X946Y949D03*
X1301Y910D03*
X1374Y1048D03*
X1514Y567D03*
X1562Y536D03*
X1714Y1048D03*
X2063Y826D03*
X2088Y388D03*
D02*
D106*
X62Y1172D02*
X191D01*
X62Y1262D02*
X191D01*
X62Y1348D02*
Y1413D01*
X71*
X63Y1473D02*
Y1413D01*
X71*
X191Y1262D02*
Y1272D01*
X258*
X212Y733D02*
Y812D01*
X213*
X258Y1274D02*
Y1272D01*
X350Y1698D02*
Y1619D01*
X375*
X440Y1698D02*
Y1618D01*
X424*
X617Y1009D02*
Y953D01*
X617*
X651Y649D02*
Y575D01*
X789Y1475D02*
X730D01*
Y1461*
X789Y1565D02*
X885D01*
X919Y1532*
Y1481*
X789Y1565D02*
Y1630D01*
X836Y1678*
X966*
X789Y1565D02*
X757D01*
X730Y1538*
Y1520*
X813Y387D02*
X691D01*
Y380*
X813Y587D02*
X651D01*
Y575*
X814Y1009D02*
Y991D01*
X855Y949*
X946*
X1007Y774D02*
X990D01*
X946Y818*
Y949*
X1266Y1678D02*
X1284D01*
X1328Y1633*
Y1481*
X1379Y898D02*
Y910D01*
X1301*
X1399Y597D02*
X1057D01*
X1007Y647*
Y774*
X1465Y1048D02*
X1374D01*
X1531Y1520D02*
Y1678D01*
X1515*
X1599Y1048D02*
X1714D01*
X1650Y403D02*
Y462D01*
X1705Y518*
Y562*
X1732Y588*
X1815*
X1776Y694D02*
Y768D01*
X1778*
X1788Y905D02*
X2063D01*
Y902*
X1815Y537D02*
X1833D01*
X1862Y508*
Y425*
X1899Y387*
X1955*
X1885Y1520D02*
X1891D01*
Y1678*
X1870*
X1926Y700D02*
X2063D01*
Y702*
X1926Y700D02*
X1908D01*
X1862Y654*
Y616*
X1834Y588*
X1815*
X1955Y387D02*
X2088D01*
Y388*
X2063Y902D02*
Y826D01*
X2240Y1520D02*
Y1678D01*
X2224*
X2594Y1520D02*
X2600D01*
Y1678*
X2578*
X2929Y1520D02*
Y1678D01*
X2913*
X3435Y1511D02*
X3452D01*
X3469Y1527*
Y1673*
X3635Y1511D02*
X3617D01*
X3569Y1558*
Y1673*
X0Y0D02*
M02*
