%FSLAX23Y23*%
%MOIN*%
G04 EasyPC Gerber Version 12.0.1 Build 2704 *
%ADD121R,0.06600X0.12200*%
%ADD119R,0.05600X0.05600*%
%ADD12C,0.00500*%
%ADD123C,0.02789*%
%ADD84C,0.02800*%
%ADD23C,0.05600*%
%ADD116R,0.05600X0.05100*%
X0Y0D02*
D02*
D12*
X3979Y3D02*
X44D01*
Y1811*
X3979*
Y3*
D02*
D23*
X3557Y733D03*
X3457D03*
X3452Y890D03*
X3252D03*
X1753Y382D03*
Y1182D03*
X1653Y382D03*
Y1182D03*
X1553Y382D03*
Y1182D03*
X1453Y382D03*
Y1182D03*
X1353Y382D03*
Y1182D03*
X1252Y382D03*
Y1182D03*
X1153Y382D03*
Y1182D03*
X1053Y382D03*
Y1182D03*
X953Y382D03*
Y1182D03*
X853Y382D03*
Y1182D03*
X753Y382D03*
Y1182D03*
X653Y382D03*
Y1182D03*
X553Y382D03*
Y1182D03*
X453Y382D03*
Y1182D03*
X353Y382D03*
Y1182D03*
X253Y382D03*
Y1182D03*
D02*
D84*
X3910Y1413D03*
X3290Y380D03*
X2203Y768D03*
D02*
D116*
X3543Y1166D03*
X3453D03*
D02*
D119*
X3015Y1678D03*
X2915D03*
X2815D03*
X2715D03*
X2466D03*
X2366D03*
X2331Y403D03*
X2231D03*
X2111Y1678D03*
X2011D03*
X1757D03*
X1657D03*
X1403D03*
X1303D03*
X1068D03*
X968D03*
X512Y1673D03*
X412D03*
D02*
D121*
X2928Y1215D03*
X2728D03*
X453Y546D03*
X253D03*
D02*
D123*
X3768Y812D03*
X3723Y1272D03*
X3660Y1189D03*
X3606Y1619D03*
X3573Y1323D03*
X3557Y1618D03*
X3538Y1366D03*
X3530Y1280D03*
X3447Y1284D03*
X3400Y1402D03*
Y1457D03*
X3365Y953D03*
X3330Y575D03*
X3311Y1599D03*
X3252Y1461D03*
Y1520D03*
X3035Y949D03*
X2681Y910D03*
X2607Y1048D03*
X2467Y567D03*
X2420Y536D03*
X2267Y1048D03*
X1918Y826D03*
X1893Y388D03*
X0Y0D02*
M02*
