M48
INCH
T1C00.016
T2C00.030
T3C00.032
T4C00.035
T5C00.124
%
T001
X00071Y01413
X00213Y00812
X00258Y01272
X00321Y01189
X00375Y01619
X00408Y01323
X00424Y01618
X00443Y01366
X00451Y01280
X00534Y01284
X00581Y01402
X00581Y01457
X00617Y00953
X00651Y00575
X00671Y01599
X00691Y00380
X00730Y01461
X00730Y01520
X00946Y00949
X01301Y00910
X01374Y01048
X01514Y00567
X01562Y00536
X01714Y01048
X01778Y00768
X02063Y00826
X02088Y00388
T002
X00424Y00733
X00524Y00733
X02229Y00382
X02229Y01182
X02329Y00382
X02329Y01182
X02429Y00382
X02429Y01182
X02529Y00382
X02529Y01182
X02629Y00382
X02629Y01182
X02729Y00382
X02729Y01182
X02829Y00382
X02829Y01182
X02929Y00382
X02929Y01182
X03029Y00382
X03029Y01182
X03129Y00382
X03129Y01182
X03229Y00382
X03229Y01182
X03329Y00382
X03329Y01182
X03429Y00382
X03429Y01182
X03529Y00382
X03529Y01182
X03629Y00382
X03629Y01182
X03729Y00382
X03729Y01182
T003
X00530Y00890
X00730Y00890
T004
X00966Y01678
X01066Y01678
X01166Y01678
X01266Y01678
X01515Y01678
X01615Y01678
X01650Y00403
X01750Y00403
X01870Y01678
X01970Y01678
X02224Y01678
X02324Y01678
X02578Y01678
X02678Y01678
X02913Y01678
X03013Y01678
X03469Y01673
X03569Y01673
T005
X00156Y01657
X00159Y00162
X03781Y00162
X03782Y01653
M30
