%FSLAX23Y23*%
%MOIN*%
G04 EasyPC Gerber Version 12.0.1 Build 2704 *
%ADD101R,0.06000X0.06000*%
%ADD12C,0.00500*%
%ADD13C,0.01000*%
%ADD105C,0.03189*%
%ADD22C,0.03200*%
%ADD97C,0.06000*%
X0Y0D02*
D02*
D12*
X3Y3D02*
X3937D01*
Y1811*
X3*
Y3*
X268Y1756D02*
Y1524D01*
X18*
Y558*
X268*
Y308*
X1468*
Y1308*
X3818*
Y1756*
X268*
X46Y1413D02*
X47Y1422D01*
X52Y1430*
X59Y1436*
X67Y1439*
X76*
X84Y1436*
X91Y1430*
X95Y1422*
X97Y1413*
X95Y1405*
X91Y1397*
X84Y1391*
X76Y1388*
X67*
X59Y1391*
X52Y1397*
X47Y1405*
X46Y1413*
X184Y812D02*
X186Y820D01*
X190Y828*
X196Y835*
X204Y839*
X213Y840*
X222Y839*
X230Y835*
X236Y828*
X240Y820*
X241Y812*
X240Y803*
X236Y795*
X230Y789*
X222Y785*
X213Y783*
X204Y785*
X196Y789*
X190Y795*
X186Y803*
X184Y812*
X230Y1272D02*
X231Y1281D01*
X235Y1288*
X242Y1295*
X250Y1299*
X258Y1300*
X267Y1299*
X275Y1295*
X281Y1288*
X285Y1281*
X287Y1272*
X285Y1263*
X281Y1255*
X275Y1249*
X267Y1245*
X258Y1243*
X250Y1245*
X242Y1249*
X235Y1255*
X231Y1263*
X230Y1272*
X296Y1189D02*
X297Y1198D01*
X302Y1205*
X309Y1211*
X317Y1214*
X326*
X334Y1211*
X341Y1205*
X345Y1198*
X347Y1189*
X345Y1180*
X341Y1173*
X334Y1167*
X326Y1164*
X317*
X309Y1167*
X302Y1173*
X297Y1180*
X296Y1189*
X383Y1323D02*
X384Y1332D01*
X389Y1339*
X395Y1345*
X404Y1348*
X412*
X421Y1345*
X428Y1339*
X432Y1332*
X433Y1323*
X432Y1314*
X428Y1307*
X421Y1301*
X412Y1298*
X404*
X395Y1301*
X389Y1307*
X384Y1314*
X383Y1323*
X398Y1607D02*
X393Y1600D01*
X386Y1595*
X377Y1593*
X369Y1594*
X361Y1597*
X355Y1603*
X351Y1611*
X350Y1619*
X351Y1627*
X355Y1635*
X362Y1640*
X369Y1644*
X378Y1644*
X386Y1642*
X393Y1637*
X398Y1630*
X403Y1637*
X409Y1643*
X417Y1646*
X426Y1647*
X434Y1645*
X441Y1640*
X447Y1634*
X451Y1627*
X452Y1618*
X451Y1610*
X447Y1602*
X441Y1596*
X434Y1592*
X425Y1590*
X417Y1591*
X409Y1594*
X402Y1599*
X398Y1607*
X418Y1366D02*
X420Y1375D01*
X424Y1383*
X431Y1388*
X439Y1391*
X448*
X456Y1388*
X463Y1383*
X467Y1375*
X469Y1366*
X467Y1358*
X463Y1350*
X456Y1344*
X448Y1341*
X439*
X431Y1344*
X424Y1350*
X420Y1358*
X418Y1366*
X423Y1280D02*
X424Y1288D01*
X428Y1296*
X435Y1303*
X443Y1307*
X451Y1308*
X460Y1307*
X468Y1303*
X474Y1296*
X478Y1288*
X480Y1280*
X478Y1271*
X474Y1263*
X468Y1257*
X460Y1253*
X451Y1251*
X443Y1253*
X435Y1257*
X428Y1263*
X424Y1271*
X423Y1280*
X424Y772D02*
X434Y771D01*
X444Y767*
X452Y761*
X458Y753*
X462Y743*
X463Y733*
X462Y723*
X458Y713*
X452Y705*
X444Y699*
X434Y695*
X424Y693*
X414Y695*
X404Y699*
X396Y705*
X390Y713*
X386Y723*
X384Y733*
X386Y743*
X390Y753*
X396Y761*
X404Y767*
X414Y771*
X424Y772*
X509Y1284D02*
X510Y1292D01*
X515Y1300*
X521Y1306*
X530Y1309*
X538*
X547Y1306*
X553Y1300*
X558Y1292*
X559Y1284*
X558Y1275*
X553Y1267*
X547Y1262*
X538Y1258*
X530*
X521Y1262*
X515Y1267*
X510Y1275*
X509Y1284*
X524Y772D02*
X534Y771D01*
X544Y767*
X552Y761*
X558Y753*
X562Y743*
X563Y733*
X562Y723*
X558Y713*
X552Y705*
X544Y699*
X534Y695*
X524Y693*
X514Y695*
X504Y699*
X496Y705*
X490Y713*
X486Y723*
X484Y733*
X486Y743*
X490Y753*
X496Y761*
X504Y767*
X514Y771*
X524Y772*
X530Y851D02*
X519Y852D01*
X510Y856*
X502Y863*
X495Y871*
X492Y880*
X490Y890*
X492Y901*
X495Y910*
X502Y918*
X510Y925*
X519Y929*
X530Y930*
X540Y929*
X549Y925*
X558Y918*
X564Y910*
X568Y901*
X569Y890*
X568Y880*
X564Y871*
X558Y862*
X549Y856*
X540Y852*
X530Y851*
X556Y1402D02*
X557Y1410D01*
X562Y1418*
X569Y1424*
X577Y1427*
X586*
X594Y1424*
X601Y1418*
X605Y1410*
X607Y1402*
X605Y1393*
X601Y1385*
X594Y1380*
X586Y1377*
X577*
X569Y1380*
X562Y1385*
X557Y1393*
X556Y1402*
Y1457D02*
X557Y1465D01*
X562Y1473*
X569Y1479*
X577Y1482*
X586*
X594Y1479*
X601Y1473*
X605Y1465*
X607Y1457*
X605Y1448*
X601Y1440*
X594Y1435*
X586Y1432*
X577*
X569Y1435*
X562Y1440*
X557Y1448*
X556Y1457*
X588Y953D02*
X590Y962D01*
X594Y970*
X600Y976*
X608Y980*
X617Y981*
X625Y980*
X633Y976*
X640Y970*
X644Y962*
X645Y953*
X644Y944*
X640Y936*
X633Y930*
X625Y926*
X617Y924*
X608Y926*
X600Y930*
X594Y936*
X590Y944*
X588Y953*
X622Y575D02*
X624Y584D01*
X628Y592*
X634Y598*
X642Y603*
X651Y604*
X660Y603*
X668Y598*
X674Y592*
X678Y584*
X679Y575*
X678Y567*
X674Y559*
X668Y552*
X660Y548*
X651Y547*
X642Y548*
X634Y552*
X628Y559*
X624Y567*
X622Y575*
X645Y1599D02*
X647Y1608D01*
X651Y1615*
X658Y1621*
X666Y1624*
X675*
X683Y1621*
X690Y1615*
X695Y1608*
X696Y1599*
X695Y1590*
X690Y1583*
X683Y1577*
X675Y1574*
X666*
X658Y1577*
X651Y1583*
X647Y1590*
X645Y1599*
X666Y380D02*
X668Y389D01*
X672Y396*
X679Y402*
X687Y405*
X696*
X704Y402*
X711Y396*
X715Y389*
X717Y380*
X715Y371*
X711Y364*
X704Y358*
X696Y355*
X687*
X679Y358*
X672Y364*
X668Y371*
X666Y380*
X701Y1461D02*
X703Y1470D01*
X707Y1478*
X713Y1484*
X721Y1488*
X730Y1490*
X738Y1488*
X746Y1484*
X753Y1478*
X757Y1470*
X758Y1461*
X757Y1453*
X753Y1445*
X746Y1438*
X738Y1434*
X730Y1433*
X721Y1434*
X713Y1438*
X707Y1445*
X703Y1453*
X701Y1461*
X704Y1520D02*
X706Y1529D01*
X710Y1537*
X717Y1542*
X725Y1545*
X734*
X742Y1542*
X749Y1537*
X754Y1529*
X755Y1520*
X754Y1512*
X749Y1504*
X742Y1498*
X734Y1495*
X725*
X717Y1498*
X710Y1504*
X706Y1512*
X704Y1520*
X730Y851D02*
X719Y852D01*
X710Y856*
X702Y863*
X695Y871*
X692Y880*
X690Y890*
X692Y901*
X695Y910*
X702Y918*
X710Y925*
X719Y929*
X730Y930*
X740Y929*
X749Y925*
X758Y918*
X764Y910*
X768Y901*
X769Y890*
X768Y880*
X764Y871*
X758Y862*
X749Y856*
X740Y852*
X730Y851*
X918Y949D02*
X919Y958D01*
X923Y966*
X929Y972*
X937Y977*
X946Y978*
X955Y977*
X963Y972*
X969Y966*
X973Y958*
X975Y949*
X973Y941*
X969Y933*
X963Y926*
X955Y922*
X946Y921*
X937Y922*
X929Y926*
X923Y933*
X919Y941*
X918Y949*
X926Y1638D02*
Y1717D01*
X1005*
Y1638*
X926*
X1026D02*
Y1717D01*
X1105*
Y1638*
X1026*
X1126D02*
Y1717D01*
X1205*
Y1638*
X1126*
X1223Y1635D02*
Y1720D01*
X1308*
Y1635*
X1223*
X1275Y910D02*
X1277Y919D01*
X1281Y926*
X1288Y932*
X1296Y935*
X1305*
X1313Y932*
X1320Y926*
X1324Y919*
X1326Y910*
X1324Y901*
X1320Y894*
X1313Y888*
X1305Y885*
X1296*
X1288Y888*
X1281Y894*
X1277Y901*
X1275Y910*
X1346Y1048D02*
X1347Y1057D01*
X1351Y1065*
X1358Y1071*
X1366Y1075*
X1374Y1076*
X1383Y1075*
X1391Y1071*
X1397Y1065*
X1401Y1057*
X1403Y1048*
X1401Y1039*
X1397Y1031*
X1391Y1025*
X1383Y1021*
X1374Y1019*
X1366Y1021*
X1358Y1025*
X1351Y1031*
X1347Y1039*
X1346Y1048*
X1558Y1720D02*
Y1635D01*
X1473*
Y1720*
X1558*
X1655Y1717D02*
Y1638D01*
X1576*
Y1717*
X1655*
X1912Y1720D02*
Y1635D01*
X1827*
Y1720*
X1912*
X2009Y1717D02*
Y1638D01*
X1930*
Y1717*
X2009*
X2267Y1720D02*
Y1635D01*
X2182*
Y1720*
X2267*
X2364Y1717D02*
Y1638D01*
X2285*
Y1717*
X2364*
X2621Y1720D02*
Y1635D01*
X2536*
Y1720*
X2621*
X2718Y1717D02*
Y1638D01*
X2639*
Y1717*
X2718*
X2956Y1720D02*
Y1635D01*
X2871*
Y1720*
X2956*
X3053Y1717D02*
Y1638D01*
X2974*
Y1717*
X3053*
X3512Y1716D02*
Y1631D01*
X3427*
Y1716*
X3512*
X3609Y1713D02*
Y1634D01*
X3530*
Y1713*
X3609*
X268Y310D02*
X1468D01*
X268Y313D02*
X1468D01*
X268Y316D02*
X1468D01*
X268Y319D02*
X1468D01*
X268Y322D02*
X1468D01*
X268Y325D02*
X1468D01*
X268Y328D02*
X1468D01*
X268Y331D02*
X1468D01*
X268Y334D02*
X1468D01*
X268Y337D02*
X1468D01*
X268Y340D02*
X1468D01*
X268Y343D02*
X1468D01*
X268Y346D02*
X1468D01*
X268Y349D02*
X1468D01*
X268Y352D02*
X1468D01*
X268Y355D02*
X688D01*
X695D02*
X1468D01*
X268Y358D02*
X679D01*
X704D02*
X1468D01*
X268Y361D02*
X675D01*
X708D02*
X1468D01*
X268Y364D02*
X672D01*
X711D02*
X1468D01*
X268Y367D02*
X670D01*
X713D02*
X1468D01*
X268Y370D02*
X668D01*
X715D02*
X1468D01*
X268Y373D02*
X667D01*
X716D02*
X1468D01*
X268Y376D02*
X666D01*
X717D02*
X1468D01*
X268Y379D02*
X666D01*
X717D02*
X1468D01*
X268Y382D02*
X666D01*
X717D02*
X1468D01*
X268Y385D02*
X666D01*
X717D02*
X1468D01*
X268Y388D02*
X667D01*
X716D02*
X1468D01*
X268Y391D02*
X668D01*
X715D02*
X1468D01*
X268Y394D02*
X670D01*
X713D02*
X1468D01*
X268Y397D02*
X672D01*
X711D02*
X1468D01*
X268Y400D02*
X675D01*
X708D02*
X1468D01*
X268Y403D02*
X680D01*
X703D02*
X1468D01*
X268Y406D02*
X1468D01*
X268Y409D02*
X1468D01*
X268Y412D02*
X1468D01*
X268Y415D02*
X1468D01*
X268Y418D02*
X1468D01*
X268Y421D02*
X1468D01*
X268Y424D02*
X1468D01*
X268Y427D02*
X1468D01*
X268Y430D02*
X1468D01*
X268Y433D02*
X1468D01*
X268Y436D02*
X1468D01*
X268Y439D02*
X1468D01*
X268Y442D02*
X1468D01*
X268Y445D02*
X1468D01*
X268Y448D02*
X1468D01*
X268Y451D02*
X1468D01*
X268Y454D02*
X1468D01*
X268Y457D02*
X1468D01*
X268Y460D02*
X1468D01*
X268Y463D02*
X1468D01*
X268Y466D02*
X1468D01*
X268Y469D02*
X1468D01*
X268Y472D02*
X1468D01*
X268Y475D02*
X1468D01*
X268Y478D02*
X1468D01*
X268Y481D02*
X1468D01*
X268Y484D02*
X1468D01*
X268Y487D02*
X1468D01*
X268Y490D02*
X1468D01*
X268Y493D02*
X1468D01*
X268Y496D02*
X1468D01*
X268Y499D02*
X1468D01*
X268Y502D02*
X1468D01*
X268Y505D02*
X1468D01*
X268Y508D02*
X1468D01*
X268Y511D02*
X1468D01*
X268Y514D02*
X1468D01*
X268Y517D02*
X1468D01*
X268Y520D02*
X1468D01*
X268Y523D02*
X1468D01*
X268Y526D02*
X1468D01*
X268Y529D02*
X1468D01*
X268Y532D02*
X1468D01*
X268Y535D02*
X1468D01*
X268Y538D02*
X1468D01*
X268Y541D02*
X1468D01*
X268Y544D02*
X1468D01*
X268Y547D02*
X1468D01*
X268Y550D02*
X639D01*
X663D02*
X1468D01*
X268Y553D02*
X634D01*
X668D02*
X1468D01*
X268Y556D02*
X630D01*
X671D02*
X1468D01*
X18Y559D02*
X628D01*
X674D02*
X1468D01*
X18Y562D02*
X626D01*
X676D02*
X1468D01*
X18Y565D02*
X625D01*
X677D02*
X1468D01*
X18Y568D02*
X624D01*
X678D02*
X1468D01*
X18Y571D02*
X623D01*
X679D02*
X1468D01*
X18Y574D02*
X623D01*
X679D02*
X1468D01*
X18Y577D02*
X623D01*
X679D02*
X1468D01*
X18Y580D02*
X623D01*
X679D02*
X1468D01*
X18Y583D02*
X623D01*
X678D02*
X1468D01*
X18Y586D02*
X624D01*
X677D02*
X1468D01*
X18Y589D02*
X626D01*
X676D02*
X1468D01*
X18Y592D02*
X628D01*
X674D02*
X1468D01*
X18Y595D02*
X630D01*
X672D02*
X1468D01*
X18Y598D02*
X633D01*
X669D02*
X1468D01*
X18Y601D02*
X638D01*
X664D02*
X1468D01*
X18Y604D02*
X647D01*
X654D02*
X1468D01*
X18Y607D02*
X1468D01*
X18Y610D02*
X1468D01*
X18Y613D02*
X1468D01*
X18Y616D02*
X1468D01*
X18Y619D02*
X1468D01*
X18Y622D02*
X1468D01*
X18Y625D02*
X1468D01*
X18Y628D02*
X1468D01*
X18Y631D02*
X1468D01*
X18Y634D02*
X1468D01*
X18Y637D02*
X1468D01*
X18Y640D02*
X1468D01*
X18Y643D02*
X1468D01*
X18Y646D02*
X1468D01*
X18Y649D02*
X1468D01*
X18Y652D02*
X1468D01*
X18Y655D02*
X1468D01*
X18Y658D02*
X1468D01*
X18Y661D02*
X1468D01*
X18Y664D02*
X1468D01*
X18Y667D02*
X1468D01*
X18Y670D02*
X1468D01*
X18Y673D02*
X1468D01*
X18Y676D02*
X1468D01*
X18Y679D02*
X1468D01*
X18Y682D02*
X1468D01*
X18Y685D02*
X1468D01*
X18Y688D02*
X1468D01*
X18Y691D02*
X1468D01*
X18Y694D02*
X419D01*
X428D02*
X519D01*
X528D02*
X1468D01*
X18Y697D02*
X408D01*
X439D02*
X508D01*
X539D02*
X1468D01*
X18Y700D02*
X402D01*
X445D02*
X502D01*
X545D02*
X1468D01*
X18Y703D02*
X398D01*
X449D02*
X498D01*
X549D02*
X1468D01*
X18Y706D02*
X395D01*
X452D02*
X495D01*
X552D02*
X1468D01*
X18Y709D02*
X393D01*
X455D02*
X493D01*
X555D02*
X1468D01*
X18Y712D02*
X390D01*
X457D02*
X490D01*
X557D02*
X1468D01*
X18Y715D02*
X389D01*
X459D02*
X489D01*
X559D02*
X1468D01*
X18Y718D02*
X387D01*
X460D02*
X487D01*
X560D02*
X1468D01*
X18Y721D02*
X386D01*
X461D02*
X486D01*
X561D02*
X1468D01*
X18Y724D02*
X385D01*
X462D02*
X485D01*
X562D02*
X1468D01*
X18Y727D02*
X385D01*
X463D02*
X485D01*
X563D02*
X1468D01*
X18Y730D02*
X384D01*
X463D02*
X484D01*
X563D02*
X1468D01*
X18Y733D02*
X384D01*
X463D02*
X484D01*
X563D02*
X1468D01*
X18Y736D02*
X384D01*
X463D02*
X484D01*
X563D02*
X1468D01*
X18Y739D02*
X385D01*
X463D02*
X485D01*
X563D02*
X1468D01*
X18Y742D02*
X385D01*
X462D02*
X485D01*
X562D02*
X1468D01*
X18Y745D02*
X386D01*
X461D02*
X486D01*
X561D02*
X1468D01*
X18Y748D02*
X387D01*
X460D02*
X487D01*
X560D02*
X1468D01*
X18Y751D02*
X388D01*
X459D02*
X488D01*
X559D02*
X1468D01*
X18Y754D02*
X390D01*
X457D02*
X490D01*
X557D02*
X1468D01*
X18Y757D02*
X392D01*
X455D02*
X492D01*
X555D02*
X1468D01*
X18Y760D02*
X395D01*
X453D02*
X495D01*
X553D02*
X1468D01*
X18Y763D02*
X398D01*
X450D02*
X498D01*
X550D02*
X1468D01*
X18Y766D02*
X402D01*
X446D02*
X502D01*
X546D02*
X1468D01*
X18Y769D02*
X407D01*
X441D02*
X507D01*
X541D02*
X1468D01*
X18Y772D02*
X416D01*
X431D02*
X516D01*
X531D02*
X1468D01*
X18Y775D02*
X1468D01*
X18Y778D02*
X1468D01*
X18Y781D02*
X1468D01*
X18Y784D02*
X208D01*
X218D02*
X1468D01*
X18Y787D02*
X199D01*
X227D02*
X1468D01*
X18Y790D02*
X195D01*
X231D02*
X1468D01*
X18Y793D02*
X192D01*
X234D02*
X1468D01*
X18Y796D02*
X189D01*
X236D02*
X1468D01*
X18Y799D02*
X188D01*
X238D02*
X1468D01*
X18Y802D02*
X186D01*
X240D02*
X1468D01*
X18Y805D02*
X185D01*
X241D02*
X1468D01*
X18Y808D02*
X185D01*
X241D02*
X1468D01*
X18Y811D02*
X185D01*
X241D02*
X1468D01*
X18Y814D02*
X185D01*
X241D02*
X1468D01*
X18Y817D02*
X185D01*
X241D02*
X1468D01*
X18Y820D02*
X186D01*
X240D02*
X1468D01*
X18Y823D02*
X187D01*
X239D02*
X1468D01*
X18Y826D02*
X188D01*
X238D02*
X1468D01*
X18Y829D02*
X190D01*
X236D02*
X1468D01*
X18Y832D02*
X193D01*
X233D02*
X1468D01*
X18Y835D02*
X196D01*
X230D02*
X1468D01*
X18Y838D02*
X201D01*
X224D02*
X1468D01*
X18Y841D02*
X1468D01*
X18Y844D02*
X1468D01*
X18Y847D02*
X1468D01*
X18Y850D02*
X1468D01*
X18Y853D02*
X518D01*
X541D02*
X718D01*
X741D02*
X1468D01*
X18Y856D02*
X511D01*
X548D02*
X711D01*
X748D02*
X1468D01*
X18Y859D02*
X506D01*
X553D02*
X706D01*
X753D02*
X1468D01*
X18Y862D02*
X503D01*
X557D02*
X703D01*
X757D02*
X1468D01*
X18Y865D02*
X500D01*
X560D02*
X700D01*
X760D02*
X1468D01*
X18Y868D02*
X497D01*
X562D02*
X697D01*
X762D02*
X1468D01*
X18Y871D02*
X495D01*
X564D02*
X695D01*
X764D02*
X1468D01*
X18Y874D02*
X494D01*
X565D02*
X694D01*
X765D02*
X1468D01*
X18Y877D02*
X493D01*
X567D02*
X693D01*
X767D02*
X1468D01*
X18Y880D02*
X492D01*
X568D02*
X692D01*
X768D02*
X1468D01*
X18Y883D02*
X491D01*
X568D02*
X691D01*
X768D02*
X1468D01*
X18Y886D02*
X490D01*
X569D02*
X690D01*
X769D02*
X1293D01*
X1308D02*
X1468D01*
X18Y889D02*
X490D01*
X569D02*
X690D01*
X769D02*
X1287D01*
X1314D02*
X1468D01*
X18Y892D02*
X490D01*
X569D02*
X690D01*
X769D02*
X1283D01*
X1318D02*
X1468D01*
X18Y895D02*
X490D01*
X569D02*
X690D01*
X769D02*
X1280D01*
X1321D02*
X1468D01*
X18Y898D02*
X491D01*
X568D02*
X691D01*
X768D02*
X1278D01*
X1323D02*
X1468D01*
X18Y901D02*
X492D01*
X568D02*
X692D01*
X768D02*
X1277D01*
X1324D02*
X1468D01*
X18Y904D02*
X492D01*
X567D02*
X692D01*
X767D02*
X1276D01*
X1325D02*
X1468D01*
X18Y907D02*
X494D01*
X566D02*
X694D01*
X766D02*
X1275D01*
X1326D02*
X1468D01*
X18Y910D02*
X495D01*
X564D02*
X695D01*
X764D02*
X1275D01*
X1326D02*
X1468D01*
X18Y913D02*
X497D01*
X562D02*
X697D01*
X762D02*
X1275D01*
X1326D02*
X1468D01*
X18Y916D02*
X499D01*
X560D02*
X699D01*
X760D02*
X1276D01*
X1325D02*
X1468D01*
X18Y919D02*
X502D01*
X557D02*
X702D01*
X757D02*
X1277D01*
X1324D02*
X1468D01*
X18Y922D02*
X506D01*
X554D02*
X706D01*
X754D02*
X940D01*
X952D02*
X1278D01*
X1323D02*
X1468D01*
X18Y925D02*
X510D01*
X549D02*
X612D01*
X621D02*
X710D01*
X749D02*
X932D01*
X960D02*
X1280D01*
X1321D02*
X1468D01*
X18Y928D02*
X517D01*
X543D02*
X603D01*
X630D02*
X717D01*
X743D02*
X928D01*
X964D02*
X1282D01*
X1319D02*
X1468D01*
X18Y931D02*
X599D01*
X635D02*
X925D01*
X968D02*
X1286D01*
X1315D02*
X1468D01*
X18Y934D02*
X596D01*
X638D02*
X923D01*
X970D02*
X1291D01*
X1310D02*
X1468D01*
X18Y937D02*
X593D01*
X640D02*
X921D01*
X972D02*
X1468D01*
X18Y940D02*
X591D01*
X642D02*
X919D01*
X973D02*
X1468D01*
X18Y943D02*
X590D01*
X643D02*
X919D01*
X974D02*
X1468D01*
X18Y946D02*
X589D01*
X644D02*
X918D01*
X974D02*
X1468D01*
X18Y949D02*
X589D01*
X645D02*
X918D01*
X975D02*
X1468D01*
X18Y952D02*
X588D01*
X645D02*
X918D01*
X975D02*
X1468D01*
X18Y955D02*
X588D01*
X645D02*
X918D01*
X974D02*
X1468D01*
X18Y958D02*
X589D01*
X645D02*
X919D01*
X973D02*
X1468D01*
X18Y961D02*
X589D01*
X644D02*
X920D01*
X972D02*
X1468D01*
X18Y964D02*
X590D01*
X643D02*
X922D01*
X971D02*
X1468D01*
X18Y967D02*
X592D01*
X642D02*
X924D01*
X969D02*
X1468D01*
X18Y970D02*
X594D01*
X640D02*
X926D01*
X966D02*
X1468D01*
X18Y973D02*
X596D01*
X637D02*
X930D01*
X963D02*
X1468D01*
X18Y976D02*
X600D01*
X634D02*
X935D01*
X957D02*
X1468D01*
X18Y979D02*
X605D01*
X628D02*
X1468D01*
X18Y982D02*
X1468D01*
X18Y985D02*
X1468D01*
X18Y988D02*
X1468D01*
X18Y991D02*
X1468D01*
X18Y994D02*
X1468D01*
X18Y997D02*
X1468D01*
X18Y1000D02*
X1468D01*
X18Y1003D02*
X1468D01*
X18Y1006D02*
X1468D01*
X18Y1009D02*
X1468D01*
X18Y1012D02*
X1468D01*
X18Y1015D02*
X1468D01*
X18Y1018D02*
X1468D01*
X18Y1021D02*
X1366D01*
X1383D02*
X1468D01*
X18Y1024D02*
X1359D01*
X1389D02*
X1468D01*
X18Y1027D02*
X1355D01*
X1393D02*
X1468D01*
X18Y1030D02*
X1352D01*
X1396D02*
X1468D01*
X18Y1033D02*
X1350D01*
X1398D02*
X1468D01*
X18Y1036D02*
X1349D01*
X1400D02*
X1468D01*
X18Y1039D02*
X1347D01*
X1401D02*
X1468D01*
X18Y1042D02*
X1347D01*
X1402D02*
X1468D01*
X18Y1045D02*
X1346D01*
X1403D02*
X1468D01*
X18Y1048D02*
X1346D01*
X1403D02*
X1468D01*
X18Y1051D02*
X1346D01*
X1403D02*
X1468D01*
X18Y1054D02*
X1347D01*
X1402D02*
X1468D01*
X18Y1057D02*
X1347D01*
X1401D02*
X1468D01*
X18Y1060D02*
X1348D01*
X1400D02*
X1468D01*
X18Y1063D02*
X1350D01*
X1399D02*
X1468D01*
X18Y1066D02*
X1352D01*
X1397D02*
X1468D01*
X18Y1069D02*
X1355D01*
X1394D02*
X1468D01*
X18Y1072D02*
X1359D01*
X1390D02*
X1468D01*
X18Y1075D02*
X1365D01*
X1384D02*
X1468D01*
X18Y1078D02*
X1468D01*
X18Y1081D02*
X1468D01*
X18Y1084D02*
X1468D01*
X18Y1087D02*
X1468D01*
X18Y1090D02*
X1468D01*
X18Y1093D02*
X1468D01*
X18Y1096D02*
X1468D01*
X18Y1099D02*
X1468D01*
X18Y1102D02*
X1468D01*
X18Y1105D02*
X1468D01*
X18Y1108D02*
X1468D01*
X18Y1111D02*
X1468D01*
X18Y1114D02*
X1468D01*
X18Y1117D02*
X1468D01*
X18Y1120D02*
X1468D01*
X18Y1123D02*
X1468D01*
X18Y1126D02*
X1468D01*
X18Y1129D02*
X1468D01*
X18Y1132D02*
X1468D01*
X18Y1135D02*
X1468D01*
X18Y1138D02*
X1468D01*
X18Y1141D02*
X1468D01*
X18Y1144D02*
X1468D01*
X18Y1147D02*
X1468D01*
X18Y1150D02*
X1468D01*
X18Y1153D02*
X1468D01*
X18Y1156D02*
X1468D01*
X18Y1159D02*
X1468D01*
X18Y1162D02*
X1468D01*
X18Y1165D02*
X314D01*
X329D02*
X1468D01*
X18Y1168D02*
X308D01*
X335D02*
X1468D01*
X18Y1171D02*
X304D01*
X339D02*
X1468D01*
X18Y1174D02*
X301D01*
X342D02*
X1468D01*
X18Y1177D02*
X299D01*
X344D02*
X1468D01*
X18Y1180D02*
X298D01*
X345D02*
X1468D01*
X18Y1183D02*
X297D01*
X346D02*
X1468D01*
X18Y1186D02*
X296D01*
X347D02*
X1468D01*
X18Y1189D02*
X296D01*
X347D02*
X1468D01*
X18Y1192D02*
X296D01*
X347D02*
X1468D01*
X18Y1195D02*
X297D01*
X346D02*
X1468D01*
X18Y1198D02*
X297D01*
X345D02*
X1468D01*
X18Y1201D02*
X299D01*
X344D02*
X1468D01*
X18Y1204D02*
X301D01*
X342D02*
X1468D01*
X18Y1207D02*
X303D01*
X340D02*
X1468D01*
X18Y1210D02*
X307D01*
X336D02*
X1468D01*
X18Y1213D02*
X312D01*
X331D02*
X1468D01*
X18Y1216D02*
X1468D01*
X18Y1219D02*
X1468D01*
X18Y1222D02*
X1468D01*
X18Y1225D02*
X1468D01*
X18Y1228D02*
X1468D01*
X18Y1231D02*
X1468D01*
X18Y1234D02*
X1468D01*
X18Y1237D02*
X1468D01*
X18Y1240D02*
X1468D01*
X18Y1243D02*
X1468D01*
X18Y1246D02*
X247D01*
X270D02*
X1468D01*
X18Y1249D02*
X242D01*
X275D02*
X1468D01*
X18Y1252D02*
X238D01*
X279D02*
X446D01*
X457D02*
X1468D01*
X18Y1255D02*
X236D01*
X281D02*
X438D01*
X465D02*
X1468D01*
X18Y1258D02*
X234D01*
X283D02*
X433D01*
X469D02*
X1468D01*
X18Y1261D02*
X232D01*
X285D02*
X430D01*
X473D02*
X523D01*
X545D02*
X1468D01*
X18Y1264D02*
X231D01*
X286D02*
X428D01*
X475D02*
X518D01*
X550D02*
X1468D01*
X18Y1267D02*
X230D01*
X286D02*
X426D01*
X477D02*
X515D01*
X553D02*
X1468D01*
X18Y1270D02*
X230D01*
X287D02*
X425D01*
X478D02*
X513D01*
X555D02*
X1468D01*
X18Y1273D02*
X230D01*
X287D02*
X424D01*
X479D02*
X511D01*
X557D02*
X1468D01*
X18Y1276D02*
X230D01*
X287D02*
X423D01*
X479D02*
X510D01*
X558D02*
X1468D01*
X18Y1279D02*
X231D01*
X286D02*
X423D01*
X480D02*
X509D01*
X559D02*
X1468D01*
X18Y1282D02*
X232D01*
X285D02*
X423D01*
X480D02*
X509D01*
X559D02*
X1468D01*
X18Y1285D02*
X233D01*
X284D02*
X423D01*
X479D02*
X509D01*
X559D02*
X1468D01*
X18Y1288D02*
X235D01*
X282D02*
X424D01*
X479D02*
X509D01*
X559D02*
X1468D01*
X18Y1291D02*
X237D01*
X280D02*
X425D01*
X478D02*
X510D01*
X558D02*
X1468D01*
X18Y1294D02*
X240D01*
X276D02*
X427D01*
X476D02*
X511D01*
X557D02*
X1468D01*
X18Y1297D02*
X245D01*
X272D02*
X429D01*
X474D02*
X512D01*
X556D02*
X1468D01*
X18Y1300D02*
X253D01*
X264D02*
X398D01*
X418D02*
X431D01*
X471D02*
X514D01*
X554D02*
X1468D01*
X18Y1303D02*
X393D01*
X423D02*
X435D01*
X468D02*
X517D01*
X551D02*
X1468D01*
X18Y1306D02*
X389D01*
X427D02*
X440D01*
X463D02*
X522D01*
X546D02*
X1468D01*
X18Y1309D02*
X387D01*
X429D02*
X530D01*
X538D02*
X3818D01*
X18Y1312D02*
X385D01*
X431D02*
X3818D01*
X18Y1315D02*
X384D01*
X432D02*
X3818D01*
X18Y1318D02*
X383D01*
X433D02*
X3818D01*
X18Y1321D02*
X383D01*
X433D02*
X3818D01*
X18Y1324D02*
X383D01*
X433D02*
X3818D01*
X18Y1327D02*
X383D01*
X433D02*
X3818D01*
X18Y1330D02*
X383D01*
X433D02*
X3818D01*
X18Y1333D02*
X385D01*
X431D02*
X3818D01*
X18Y1336D02*
X386D01*
X430D02*
X3818D01*
X18Y1339D02*
X388D01*
X428D02*
X3818D01*
X18Y1342D02*
X391D01*
X425D02*
X437D01*
X450D02*
X3818D01*
X18Y1345D02*
X395D01*
X421D02*
X430D01*
X457D02*
X3818D01*
X18Y1348D02*
X402D01*
X414D02*
X426D01*
X461D02*
X3818D01*
X18Y1351D02*
X423D01*
X464D02*
X3818D01*
X18Y1354D02*
X421D01*
X466D02*
X3818D01*
X18Y1357D02*
X420D01*
X467D02*
X3818D01*
X18Y1360D02*
X419D01*
X468D02*
X3818D01*
X18Y1363D02*
X418D01*
X469D02*
X3818D01*
X18Y1366D02*
X418D01*
X469D02*
X3818D01*
X18Y1369D02*
X418D01*
X469D02*
X3818D01*
X18Y1372D02*
X419D01*
X468D02*
X3818D01*
X18Y1375D02*
X419D01*
X467D02*
X3818D01*
X18Y1378D02*
X421D01*
X466D02*
X573D01*
X590D02*
X3818D01*
X18Y1381D02*
X423D01*
X464D02*
X567D01*
X596D02*
X3818D01*
X18Y1384D02*
X425D01*
X462D02*
X563D01*
X599D02*
X3818D01*
X18Y1387D02*
X428D01*
X459D02*
X561D01*
X602D02*
X3818D01*
X18Y1390D02*
X62D01*
X81D02*
X434D01*
X453D02*
X559D01*
X604D02*
X3818D01*
X18Y1393D02*
X57D01*
X86D02*
X557D01*
X605D02*
X3818D01*
X18Y1396D02*
X53D01*
X90D02*
X556D01*
X606D02*
X3818D01*
X18Y1399D02*
X51D01*
X92D02*
X556D01*
X607D02*
X3818D01*
X18Y1402D02*
X49D01*
X94D02*
X556D01*
X607D02*
X3818D01*
X18Y1405D02*
X47D01*
X95D02*
X556D01*
X607D02*
X3818D01*
X18Y1408D02*
X47D01*
X96D02*
X557D01*
X606D02*
X3818D01*
X18Y1411D02*
X46D01*
X97D02*
X557D01*
X605D02*
X3818D01*
X18Y1414D02*
X46D01*
X97D02*
X559D01*
X604D02*
X3818D01*
X18Y1417D02*
X46D01*
X97D02*
X561D01*
X602D02*
X3818D01*
X18Y1420D02*
X47D01*
X96D02*
X563D01*
X599D02*
X3818D01*
X18Y1423D02*
X48D01*
X95D02*
X567D01*
X596D02*
X3818D01*
X18Y1426D02*
X49D01*
X94D02*
X573D01*
X590D02*
X3818D01*
X18Y1429D02*
X51D01*
X92D02*
X3818D01*
X18Y1432D02*
X54D01*
X89D02*
X577D01*
X586D02*
X3818D01*
X18Y1435D02*
X57D01*
X86D02*
X569D01*
X594D02*
X720D01*
X740D02*
X3818D01*
X18Y1438D02*
X63D01*
X79D02*
X564D01*
X598D02*
X714D01*
X746D02*
X3818D01*
X18Y1441D02*
X562D01*
X601D02*
X710D01*
X749D02*
X3818D01*
X18Y1444D02*
X559D01*
X603D02*
X707D01*
X752D02*
X3818D01*
X18Y1447D02*
X558D01*
X605D02*
X705D01*
X754D02*
X3818D01*
X18Y1450D02*
X557D01*
X606D02*
X704D01*
X756D02*
X3818D01*
X18Y1453D02*
X556D01*
X606D02*
X703D01*
X757D02*
X3818D01*
X18Y1456D02*
X556D01*
X607D02*
X702D01*
X758D02*
X3818D01*
X18Y1459D02*
X556D01*
X607D02*
X701D01*
X758D02*
X3818D01*
X18Y1462D02*
X556D01*
X606D02*
X701D01*
X758D02*
X3818D01*
X18Y1465D02*
X557D01*
X605D02*
X701D01*
X758D02*
X3818D01*
X18Y1468D02*
X558D01*
X604D02*
X702D01*
X757D02*
X3818D01*
X18Y1471D02*
X560D01*
X603D02*
X703D01*
X757D02*
X3818D01*
X18Y1474D02*
X562D01*
X600D02*
X704D01*
X755D02*
X3818D01*
X18Y1477D02*
X565D01*
X597D02*
X706D01*
X754D02*
X3818D01*
X18Y1480D02*
X570D01*
X592D02*
X708D01*
X751D02*
X3818D01*
X18Y1483D02*
X711D01*
X748D02*
X3818D01*
X18Y1486D02*
X715D01*
X744D02*
X3818D01*
X18Y1489D02*
X722D01*
X737D02*
X3818D01*
X18Y1492D02*
X3818D01*
X18Y1495D02*
X3818D01*
X18Y1498D02*
X718D01*
X741D02*
X3818D01*
X18Y1501D02*
X713D01*
X746D02*
X3818D01*
X18Y1504D02*
X710D01*
X749D02*
X3818D01*
X18Y1507D02*
X708D01*
X751D02*
X3818D01*
X18Y1510D02*
X707D01*
X753D02*
X3818D01*
X18Y1513D02*
X705D01*
X754D02*
X3818D01*
X18Y1516D02*
X705D01*
X755D02*
X3818D01*
X18Y1519D02*
X704D01*
X755D02*
X3818D01*
X18Y1522D02*
X704D01*
X755D02*
X3818D01*
X268Y1525D02*
X705D01*
X755D02*
X3818D01*
X268Y1528D02*
X705D01*
X754D02*
X3818D01*
X268Y1531D02*
X706D01*
X753D02*
X3818D01*
X268Y1534D02*
X708D01*
X751D02*
X3818D01*
X268Y1537D02*
X710D01*
X749D02*
X3818D01*
X268Y1540D02*
X713D01*
X746D02*
X3818D01*
X268Y1543D02*
X718D01*
X742D02*
X3818D01*
X268Y1546D02*
X728D01*
X732D02*
X3818D01*
X268Y1549D02*
X3818D01*
X268Y1552D02*
X3818D01*
X268Y1555D02*
X3818D01*
X268Y1558D02*
X3818D01*
X268Y1561D02*
X3818D01*
X268Y1564D02*
X3818D01*
X268Y1567D02*
X3818D01*
X268Y1570D02*
X3818D01*
X268Y1573D02*
X3818D01*
X268Y1576D02*
X661D01*
X681D02*
X3818D01*
X268Y1579D02*
X655D01*
X686D02*
X3818D01*
X268Y1582D02*
X652D01*
X689D02*
X3818D01*
X268Y1585D02*
X650D01*
X692D02*
X3818D01*
X268Y1588D02*
X648D01*
X693D02*
X3818D01*
X268Y1591D02*
X416D01*
X431D02*
X647D01*
X695D02*
X3818D01*
X268Y1594D02*
X371D01*
X380D02*
X409D01*
X438D02*
X646D01*
X695D02*
X3818D01*
X268Y1597D02*
X363D01*
X388D02*
X405D01*
X442D02*
X645D01*
X696D02*
X3818D01*
X268Y1600D02*
X358D01*
X392D02*
X402D01*
X445D02*
X645D01*
X696D02*
X3818D01*
X268Y1603D02*
X356D01*
X395D02*
X400D01*
X448D02*
X645D01*
X696D02*
X3818D01*
X268Y1606D02*
X353D01*
X397D02*
X398D01*
X449D02*
X646D01*
X695D02*
X3818D01*
X268Y1609D02*
X352D01*
X451D02*
X647D01*
X694D02*
X3818D01*
X268Y1612D02*
X351D01*
X451D02*
X649D01*
X693D02*
X3818D01*
X268Y1615D02*
X350D01*
X452D02*
X651D01*
X691D02*
X3818D01*
X268Y1618D02*
X350D01*
X452D02*
X653D01*
X688D02*
X3818D01*
X268Y1621D02*
X350D01*
X452D02*
X657D01*
X684D02*
X3818D01*
X268Y1624D02*
X350D01*
X452D02*
X664D01*
X677D02*
X3818D01*
X268Y1627D02*
X351D01*
X451D02*
X3818D01*
X268Y1630D02*
X352D01*
X450D02*
X3818D01*
X268Y1633D02*
X354D01*
X397D02*
X399D01*
X448D02*
X3427D01*
X3512D02*
X3818D01*
X268Y1636D02*
X356D01*
X394D02*
X401D01*
X446D02*
X1223D01*
X1308D02*
X1473D01*
X1558D02*
X1827D01*
X1912D02*
X2182D01*
X2267D02*
X2536D01*
X2621D02*
X2871D01*
X2956D02*
X3427D01*
X3512D02*
X3530D01*
X3609D02*
X3818D01*
X268Y1639D02*
X360D01*
X391D02*
X404D01*
X443D02*
X926D01*
X1005D02*
X1026D01*
X1105D02*
X1126D01*
X1205D02*
X1223D01*
X1308D02*
X1473D01*
X1558D02*
X1576D01*
X1655D02*
X1827D01*
X1912D02*
X1930D01*
X2009D02*
X2182D01*
X2267D02*
X2285D01*
X2364D02*
X2536D01*
X2621D02*
X2639D01*
X2718D02*
X2871D01*
X2956D02*
X2974D01*
X3053D02*
X3427D01*
X3512D02*
X3530D01*
X3609D02*
X3818D01*
X268Y1642D02*
X364D01*
X386D02*
X408D01*
X440D02*
X926D01*
X1005D02*
X1026D01*
X1105D02*
X1126D01*
X1205D02*
X1223D01*
X1308D02*
X1473D01*
X1558D02*
X1576D01*
X1655D02*
X1827D01*
X1912D02*
X1930D01*
X2009D02*
X2182D01*
X2267D02*
X2285D01*
X2364D02*
X2536D01*
X2621D02*
X2639D01*
X2718D02*
X2871D01*
X2956D02*
X2974D01*
X3053D02*
X3427D01*
X3512D02*
X3530D01*
X3609D02*
X3818D01*
X268Y1645D02*
X413D01*
X434D02*
X926D01*
X1005D02*
X1026D01*
X1105D02*
X1126D01*
X1205D02*
X1223D01*
X1308D02*
X1473D01*
X1558D02*
X1576D01*
X1655D02*
X1827D01*
X1912D02*
X1930D01*
X2009D02*
X2182D01*
X2267D02*
X2285D01*
X2364D02*
X2536D01*
X2621D02*
X2639D01*
X2718D02*
X2871D01*
X2956D02*
X2974D01*
X3053D02*
X3427D01*
X3512D02*
X3530D01*
X3609D02*
X3818D01*
X268Y1648D02*
X926D01*
X1005D02*
X1026D01*
X1105D02*
X1126D01*
X1205D02*
X1223D01*
X1308D02*
X1473D01*
X1558D02*
X1576D01*
X1655D02*
X1827D01*
X1912D02*
X1930D01*
X2009D02*
X2182D01*
X2267D02*
X2285D01*
X2364D02*
X2536D01*
X2621D02*
X2639D01*
X2718D02*
X2871D01*
X2956D02*
X2974D01*
X3053D02*
X3427D01*
X3512D02*
X3530D01*
X3609D02*
X3818D01*
X268Y1651D02*
X926D01*
X1005D02*
X1026D01*
X1105D02*
X1126D01*
X1205D02*
X1223D01*
X1308D02*
X1473D01*
X1558D02*
X1576D01*
X1655D02*
X1827D01*
X1912D02*
X1930D01*
X2009D02*
X2182D01*
X2267D02*
X2285D01*
X2364D02*
X2536D01*
X2621D02*
X2639D01*
X2718D02*
X2871D01*
X2956D02*
X2974D01*
X3053D02*
X3427D01*
X3512D02*
X3530D01*
X3609D02*
X3818D01*
X268Y1654D02*
X926D01*
X1005D02*
X1026D01*
X1105D02*
X1126D01*
X1205D02*
X1223D01*
X1308D02*
X1473D01*
X1558D02*
X1576D01*
X1655D02*
X1827D01*
X1912D02*
X1930D01*
X2009D02*
X2182D01*
X2267D02*
X2285D01*
X2364D02*
X2536D01*
X2621D02*
X2639D01*
X2718D02*
X2871D01*
X2956D02*
X2974D01*
X3053D02*
X3427D01*
X3512D02*
X3530D01*
X3609D02*
X3818D01*
X268Y1657D02*
X926D01*
X1005D02*
X1026D01*
X1105D02*
X1126D01*
X1205D02*
X1223D01*
X1308D02*
X1473D01*
X1558D02*
X1576D01*
X1655D02*
X1827D01*
X1912D02*
X1930D01*
X2009D02*
X2182D01*
X2267D02*
X2285D01*
X2364D02*
X2536D01*
X2621D02*
X2639D01*
X2718D02*
X2871D01*
X2956D02*
X2974D01*
X3053D02*
X3427D01*
X3512D02*
X3530D01*
X3609D02*
X3818D01*
X268Y1660D02*
X926D01*
X1005D02*
X1026D01*
X1105D02*
X1126D01*
X1205D02*
X1223D01*
X1308D02*
X1473D01*
X1558D02*
X1576D01*
X1655D02*
X1827D01*
X1912D02*
X1930D01*
X2009D02*
X2182D01*
X2267D02*
X2285D01*
X2364D02*
X2536D01*
X2621D02*
X2639D01*
X2718D02*
X2871D01*
X2956D02*
X2974D01*
X3053D02*
X3427D01*
X3512D02*
X3530D01*
X3609D02*
X3818D01*
X268Y1663D02*
X926D01*
X1005D02*
X1026D01*
X1105D02*
X1126D01*
X1205D02*
X1223D01*
X1308D02*
X1473D01*
X1558D02*
X1576D01*
X1655D02*
X1827D01*
X1912D02*
X1930D01*
X2009D02*
X2182D01*
X2267D02*
X2285D01*
X2364D02*
X2536D01*
X2621D02*
X2639D01*
X2718D02*
X2871D01*
X2956D02*
X2974D01*
X3053D02*
X3427D01*
X3512D02*
X3530D01*
X3609D02*
X3818D01*
X268Y1666D02*
X926D01*
X1005D02*
X1026D01*
X1105D02*
X1126D01*
X1205D02*
X1223D01*
X1308D02*
X1473D01*
X1558D02*
X1576D01*
X1655D02*
X1827D01*
X1912D02*
X1930D01*
X2009D02*
X2182D01*
X2267D02*
X2285D01*
X2364D02*
X2536D01*
X2621D02*
X2639D01*
X2718D02*
X2871D01*
X2956D02*
X2974D01*
X3053D02*
X3427D01*
X3512D02*
X3530D01*
X3609D02*
X3818D01*
X268Y1669D02*
X926D01*
X1005D02*
X1026D01*
X1105D02*
X1126D01*
X1205D02*
X1223D01*
X1308D02*
X1473D01*
X1558D02*
X1576D01*
X1655D02*
X1827D01*
X1912D02*
X1930D01*
X2009D02*
X2182D01*
X2267D02*
X2285D01*
X2364D02*
X2536D01*
X2621D02*
X2639D01*
X2718D02*
X2871D01*
X2956D02*
X2974D01*
X3053D02*
X3427D01*
X3512D02*
X3530D01*
X3609D02*
X3818D01*
X268Y1672D02*
X926D01*
X1005D02*
X1026D01*
X1105D02*
X1126D01*
X1205D02*
X1223D01*
X1308D02*
X1473D01*
X1558D02*
X1576D01*
X1655D02*
X1827D01*
X1912D02*
X1930D01*
X2009D02*
X2182D01*
X2267D02*
X2285D01*
X2364D02*
X2536D01*
X2621D02*
X2639D01*
X2718D02*
X2871D01*
X2956D02*
X2974D01*
X3053D02*
X3427D01*
X3512D02*
X3530D01*
X3609D02*
X3818D01*
X268Y1675D02*
X926D01*
X1005D02*
X1026D01*
X1105D02*
X1126D01*
X1205D02*
X1223D01*
X1308D02*
X1473D01*
X1558D02*
X1576D01*
X1655D02*
X1827D01*
X1912D02*
X1930D01*
X2009D02*
X2182D01*
X2267D02*
X2285D01*
X2364D02*
X2536D01*
X2621D02*
X2639D01*
X2718D02*
X2871D01*
X2956D02*
X2974D01*
X3053D02*
X3427D01*
X3512D02*
X3530D01*
X3609D02*
X3818D01*
X268Y1678D02*
X926D01*
X1005D02*
X1026D01*
X1105D02*
X1126D01*
X1205D02*
X1223D01*
X1308D02*
X1473D01*
X1558D02*
X1576D01*
X1655D02*
X1827D01*
X1912D02*
X1930D01*
X2009D02*
X2182D01*
X2267D02*
X2285D01*
X2364D02*
X2536D01*
X2621D02*
X2639D01*
X2718D02*
X2871D01*
X2956D02*
X2974D01*
X3053D02*
X3427D01*
X3512D02*
X3530D01*
X3609D02*
X3818D01*
X268Y1681D02*
X926D01*
X1005D02*
X1026D01*
X1105D02*
X1126D01*
X1205D02*
X1223D01*
X1308D02*
X1473D01*
X1558D02*
X1576D01*
X1655D02*
X1827D01*
X1912D02*
X1930D01*
X2009D02*
X2182D01*
X2267D02*
X2285D01*
X2364D02*
X2536D01*
X2621D02*
X2639D01*
X2718D02*
X2871D01*
X2956D02*
X2974D01*
X3053D02*
X3427D01*
X3512D02*
X3530D01*
X3609D02*
X3818D01*
X268Y1684D02*
X926D01*
X1005D02*
X1026D01*
X1105D02*
X1126D01*
X1205D02*
X1223D01*
X1308D02*
X1473D01*
X1558D02*
X1576D01*
X1655D02*
X1827D01*
X1912D02*
X1930D01*
X2009D02*
X2182D01*
X2267D02*
X2285D01*
X2364D02*
X2536D01*
X2621D02*
X2639D01*
X2718D02*
X2871D01*
X2956D02*
X2974D01*
X3053D02*
X3427D01*
X3512D02*
X3530D01*
X3609D02*
X3818D01*
X268Y1687D02*
X926D01*
X1005D02*
X1026D01*
X1105D02*
X1126D01*
X1205D02*
X1223D01*
X1308D02*
X1473D01*
X1558D02*
X1576D01*
X1655D02*
X1827D01*
X1912D02*
X1930D01*
X2009D02*
X2182D01*
X2267D02*
X2285D01*
X2364D02*
X2536D01*
X2621D02*
X2639D01*
X2718D02*
X2871D01*
X2956D02*
X2974D01*
X3053D02*
X3427D01*
X3512D02*
X3530D01*
X3609D02*
X3818D01*
X268Y1690D02*
X926D01*
X1005D02*
X1026D01*
X1105D02*
X1126D01*
X1205D02*
X1223D01*
X1308D02*
X1473D01*
X1558D02*
X1576D01*
X1655D02*
X1827D01*
X1912D02*
X1930D01*
X2009D02*
X2182D01*
X2267D02*
X2285D01*
X2364D02*
X2536D01*
X2621D02*
X2639D01*
X2718D02*
X2871D01*
X2956D02*
X2974D01*
X3053D02*
X3427D01*
X3512D02*
X3530D01*
X3609D02*
X3818D01*
X268Y1693D02*
X926D01*
X1005D02*
X1026D01*
X1105D02*
X1126D01*
X1205D02*
X1223D01*
X1308D02*
X1473D01*
X1558D02*
X1576D01*
X1655D02*
X1827D01*
X1912D02*
X1930D01*
X2009D02*
X2182D01*
X2267D02*
X2285D01*
X2364D02*
X2536D01*
X2621D02*
X2639D01*
X2718D02*
X2871D01*
X2956D02*
X2974D01*
X3053D02*
X3427D01*
X3512D02*
X3530D01*
X3609D02*
X3818D01*
X268Y1696D02*
X926D01*
X1005D02*
X1026D01*
X1105D02*
X1126D01*
X1205D02*
X1223D01*
X1308D02*
X1473D01*
X1558D02*
X1576D01*
X1655D02*
X1827D01*
X1912D02*
X1930D01*
X2009D02*
X2182D01*
X2267D02*
X2285D01*
X2364D02*
X2536D01*
X2621D02*
X2639D01*
X2718D02*
X2871D01*
X2956D02*
X2974D01*
X3053D02*
X3427D01*
X3512D02*
X3530D01*
X3609D02*
X3818D01*
X268Y1699D02*
X926D01*
X1005D02*
X1026D01*
X1105D02*
X1126D01*
X1205D02*
X1223D01*
X1308D02*
X1473D01*
X1558D02*
X1576D01*
X1655D02*
X1827D01*
X1912D02*
X1930D01*
X2009D02*
X2182D01*
X2267D02*
X2285D01*
X2364D02*
X2536D01*
X2621D02*
X2639D01*
X2718D02*
X2871D01*
X2956D02*
X2974D01*
X3053D02*
X3427D01*
X3512D02*
X3530D01*
X3609D02*
X3818D01*
X268Y1702D02*
X926D01*
X1005D02*
X1026D01*
X1105D02*
X1126D01*
X1205D02*
X1223D01*
X1308D02*
X1473D01*
X1558D02*
X1576D01*
X1655D02*
X1827D01*
X1912D02*
X1930D01*
X2009D02*
X2182D01*
X2267D02*
X2285D01*
X2364D02*
X2536D01*
X2621D02*
X2639D01*
X2718D02*
X2871D01*
X2956D02*
X2974D01*
X3053D02*
X3427D01*
X3512D02*
X3530D01*
X3609D02*
X3818D01*
X268Y1705D02*
X926D01*
X1005D02*
X1026D01*
X1105D02*
X1126D01*
X1205D02*
X1223D01*
X1308D02*
X1473D01*
X1558D02*
X1576D01*
X1655D02*
X1827D01*
X1912D02*
X1930D01*
X2009D02*
X2182D01*
X2267D02*
X2285D01*
X2364D02*
X2536D01*
X2621D02*
X2639D01*
X2718D02*
X2871D01*
X2956D02*
X2974D01*
X3053D02*
X3427D01*
X3512D02*
X3530D01*
X3609D02*
X3818D01*
X268Y1708D02*
X926D01*
X1005D02*
X1026D01*
X1105D02*
X1126D01*
X1205D02*
X1223D01*
X1308D02*
X1473D01*
X1558D02*
X1576D01*
X1655D02*
X1827D01*
X1912D02*
X1930D01*
X2009D02*
X2182D01*
X2267D02*
X2285D01*
X2364D02*
X2536D01*
X2621D02*
X2639D01*
X2718D02*
X2871D01*
X2956D02*
X2974D01*
X3053D02*
X3427D01*
X3512D02*
X3530D01*
X3609D02*
X3818D01*
X268Y1711D02*
X926D01*
X1005D02*
X1026D01*
X1105D02*
X1126D01*
X1205D02*
X1223D01*
X1308D02*
X1473D01*
X1558D02*
X1576D01*
X1655D02*
X1827D01*
X1912D02*
X1930D01*
X2009D02*
X2182D01*
X2267D02*
X2285D01*
X2364D02*
X2536D01*
X2621D02*
X2639D01*
X2718D02*
X2871D01*
X2956D02*
X2974D01*
X3053D02*
X3427D01*
X3512D02*
X3530D01*
X3609D02*
X3818D01*
X268Y1714D02*
X926D01*
X1005D02*
X1026D01*
X1105D02*
X1126D01*
X1205D02*
X1223D01*
X1308D02*
X1473D01*
X1558D02*
X1576D01*
X1655D02*
X1827D01*
X1912D02*
X1930D01*
X2009D02*
X2182D01*
X2267D02*
X2285D01*
X2364D02*
X2536D01*
X2621D02*
X2639D01*
X2718D02*
X2871D01*
X2956D02*
X2974D01*
X3053D02*
X3427D01*
X3512D02*
X3818D01*
X268Y1717D02*
X926D01*
X1005D02*
X1026D01*
X1105D02*
X1126D01*
X1205D02*
X1223D01*
X1308D02*
X1473D01*
X1558D02*
X1576D01*
X1655D02*
X1827D01*
X1912D02*
X1930D01*
X2009D02*
X2182D01*
X2267D02*
X2285D01*
X2364D02*
X2536D01*
X2621D02*
X2639D01*
X2718D02*
X2871D01*
X2956D02*
X2974D01*
X3053D02*
X3818D01*
X268Y1720D02*
X1223D01*
X1308D02*
X1473D01*
X1558D02*
X1827D01*
X1912D02*
X2182D01*
X2267D02*
X2536D01*
X2621D02*
X2871D01*
X2956D02*
X3818D01*
X268Y1723D02*
X3818D01*
X268Y1726D02*
X3818D01*
X268Y1729D02*
X3818D01*
X268Y1732D02*
X3818D01*
X268Y1735D02*
X3818D01*
X268Y1738D02*
X3818D01*
X268Y1741D02*
X3818D01*
X268Y1744D02*
X3818D01*
X268Y1747D02*
X3818D01*
X268Y1750D02*
X3818D01*
X268Y1753D02*
X3818D01*
X1512Y542D02*
Y306D01*
X3812*
Y1256*
X1512*
Y592*
X1520Y592*
X1528Y588*
X1534Y583*
X1538Y575*
X1540Y567*
X1538Y559*
X1534Y551*
X1528Y546*
X1520Y542*
X1512Y542*
X1536Y536D02*
X1538Y544D01*
X1542Y552*
X1549Y558*
X1557Y561*
X1566*
X1574Y558*
X1581Y552*
X1585Y544*
X1587Y536*
X1585Y527*
X1581Y519*
X1574Y513*
X1566Y510*
X1557*
X1549Y513*
X1542Y519*
X1538Y527*
X1536Y536*
X1610Y364D02*
Y443D01*
X1689*
Y364*
X1610*
X1685Y1048D02*
X1687Y1057D01*
X1691Y1065*
X1697Y1071*
X1705Y1075*
X1714Y1076*
X1723Y1075*
X1731Y1071*
X1737Y1065*
X1741Y1057*
X1742Y1048*
X1741Y1039*
X1737Y1031*
X1731Y1025*
X1723Y1021*
X1714Y1019*
X1705Y1021*
X1697Y1025*
X1691Y1031*
X1687Y1039*
X1685Y1048*
X1710Y364D02*
Y443D01*
X1789*
Y364*
X1710*
X1750Y768D02*
X1751Y777D01*
X1755Y785*
X1761Y791*
X1769Y795*
X1778Y796*
X1787Y795*
X1795Y791*
X1801Y785*
X1805Y777*
X1807Y768*
X1805Y759*
X1801Y751*
X1795Y745*
X1787Y741*
X1778Y739*
X1769Y741*
X1761Y745*
X1755Y751*
X1751Y759*
X1750Y768*
X2035Y826D02*
X2036Y835D01*
X2040Y843*
X2047Y849*
X2055Y854*
X2063Y855*
X2072Y854*
X2080Y849*
X2086Y843*
X2090Y835*
X2092Y826*
X2090Y818*
X2086Y810*
X2080Y803*
X2072Y799*
X2063Y798*
X2055Y799*
X2047Y803*
X2040Y810*
X2036Y818*
X2035Y826*
X2059Y388D02*
X2061Y397D01*
X2065Y405*
X2071Y411*
X2079Y416*
X2088Y417*
X2097Y416*
X2105Y411*
X2111Y405*
X2115Y397*
X2116Y388*
X2115Y380*
X2111Y372*
X2105Y365*
X2097Y361*
X2088Y360*
X2079Y361*
X2071Y365*
X2065Y372*
X2061Y380*
X2059Y388*
X2186Y1182D02*
X2188Y1193D01*
X2192Y1203*
X2199Y1212*
X2207Y1219*
X2218Y1223*
X2229Y1225*
X2240Y1223*
X2250Y1219*
X2259Y1212*
X2265Y1203*
X2270Y1193*
X2271Y1182*
X2270Y1171*
X2265Y1161*
X2259Y1152*
X2250Y1145*
X2240Y1141*
X2229Y1140*
X2218Y1141*
X2207Y1145*
X2199Y1152*
X2192Y1161*
X2188Y1171*
X2186Y1182*
X2189Y382D02*
X2191Y392D01*
X2194Y402*
X2201Y410*
X2209Y416*
X2218Y420*
X2229Y422*
X2239Y420*
X2248Y416*
X2257Y410*
X2263Y402*
X2267Y392*
X2268Y382*
X2267Y372*
X2263Y362*
X2257Y354*
X2248Y348*
X2239Y344*
X2229Y343*
X2218Y344*
X2209Y348*
X2201Y354*
X2194Y362*
X2191Y372*
X2189Y382*
X2289D02*
X2291Y392D01*
X2294Y402*
X2301Y410*
X2309Y416*
X2318Y420*
X2329Y422*
X2339Y420*
X2348Y416*
X2357Y410*
X2363Y402*
X2367Y392*
X2368Y382*
X2367Y372*
X2363Y362*
X2357Y354*
X2348Y348*
X2339Y344*
X2329Y343*
X2318Y344*
X2309Y348*
X2301Y354*
X2294Y362*
X2291Y372*
X2289Y382*
Y1182D02*
X2291Y1192D01*
X2294Y1202*
X2301Y1210*
X2309Y1216*
X2318Y1220*
X2329Y1222*
X2339Y1220*
X2348Y1216*
X2357Y1210*
X2363Y1202*
X2367Y1192*
X2368Y1182*
X2367Y1172*
X2363Y1162*
X2357Y1154*
X2348Y1148*
X2339Y1144*
X2329Y1143*
X2318Y1144*
X2309Y1148*
X2301Y1154*
X2294Y1162*
X2291Y1172*
X2289Y1182*
X2389Y382D02*
X2391Y392D01*
X2394Y402*
X2401Y410*
X2409Y416*
X2418Y420*
X2429Y422*
X2439Y420*
X2448Y416*
X2457Y410*
X2463Y402*
X2467Y392*
X2468Y382*
X2467Y372*
X2463Y362*
X2457Y354*
X2448Y348*
X2439Y344*
X2429Y343*
X2418Y344*
X2409Y348*
X2401Y354*
X2394Y362*
X2391Y372*
X2389Y382*
Y1182D02*
X2391Y1192D01*
X2394Y1202*
X2401Y1210*
X2409Y1216*
X2418Y1220*
X2429Y1222*
X2439Y1220*
X2448Y1216*
X2457Y1210*
X2463Y1202*
X2467Y1192*
X2468Y1182*
X2467Y1172*
X2463Y1162*
X2457Y1154*
X2448Y1148*
X2439Y1144*
X2429Y1143*
X2418Y1144*
X2409Y1148*
X2401Y1154*
X2394Y1162*
X2391Y1172*
X2389Y1182*
X2489Y382D02*
X2491Y392D01*
X2494Y402*
X2501Y410*
X2509Y416*
X2518Y420*
X2529Y422*
X2539Y420*
X2548Y416*
X2557Y410*
X2563Y402*
X2567Y392*
X2568Y382*
X2567Y372*
X2563Y362*
X2557Y354*
X2548Y348*
X2539Y344*
X2529Y343*
X2518Y344*
X2509Y348*
X2501Y354*
X2494Y362*
X2491Y372*
X2489Y382*
Y1182D02*
X2491Y1192D01*
X2494Y1202*
X2501Y1210*
X2509Y1216*
X2518Y1220*
X2529Y1222*
X2539Y1220*
X2548Y1216*
X2557Y1210*
X2563Y1202*
X2567Y1192*
X2568Y1182*
X2567Y1172*
X2563Y1162*
X2557Y1154*
X2548Y1148*
X2539Y1144*
X2529Y1143*
X2518Y1144*
X2509Y1148*
X2501Y1154*
X2494Y1162*
X2491Y1172*
X2489Y1182*
X2589Y382D02*
X2591Y392D01*
X2594Y402*
X2601Y410*
X2609Y416*
X2618Y420*
X2629Y422*
X2639Y420*
X2648Y416*
X2657Y410*
X2663Y402*
X2667Y392*
X2668Y382*
X2667Y372*
X2663Y362*
X2657Y354*
X2648Y348*
X2639Y344*
X2629Y343*
X2618Y344*
X2609Y348*
X2601Y354*
X2594Y362*
X2591Y372*
X2589Y382*
Y1182D02*
X2591Y1192D01*
X2594Y1202*
X2601Y1210*
X2609Y1216*
X2618Y1220*
X2629Y1222*
X2639Y1220*
X2648Y1216*
X2657Y1210*
X2663Y1202*
X2667Y1192*
X2668Y1182*
X2667Y1172*
X2663Y1162*
X2657Y1154*
X2648Y1148*
X2639Y1144*
X2629Y1143*
X2618Y1144*
X2609Y1148*
X2601Y1154*
X2594Y1162*
X2591Y1172*
X2589Y1182*
X2689Y382D02*
X2691Y392D01*
X2694Y402*
X2701Y410*
X2709Y416*
X2718Y420*
X2729Y422*
X2739Y420*
X2748Y416*
X2757Y410*
X2763Y402*
X2767Y392*
X2768Y382*
X2767Y372*
X2763Y362*
X2757Y354*
X2748Y348*
X2739Y344*
X2729Y343*
X2718Y344*
X2709Y348*
X2701Y354*
X2694Y362*
X2691Y372*
X2689Y382*
Y1182D02*
X2691Y1192D01*
X2694Y1202*
X2701Y1210*
X2709Y1216*
X2718Y1220*
X2729Y1222*
X2739Y1220*
X2748Y1216*
X2757Y1210*
X2763Y1202*
X2767Y1192*
X2768Y1182*
X2767Y1172*
X2763Y1162*
X2757Y1154*
X2748Y1148*
X2739Y1144*
X2729Y1143*
X2718Y1144*
X2709Y1148*
X2701Y1154*
X2694Y1162*
X2691Y1172*
X2689Y1182*
X2789Y382D02*
X2791Y392D01*
X2794Y402*
X2801Y410*
X2809Y416*
X2818Y420*
X2829Y422*
X2839Y420*
X2848Y416*
X2857Y410*
X2863Y402*
X2867Y392*
X2868Y382*
X2867Y372*
X2863Y362*
X2857Y354*
X2848Y348*
X2839Y344*
X2829Y343*
X2818Y344*
X2809Y348*
X2801Y354*
X2794Y362*
X2791Y372*
X2789Y382*
Y1182D02*
X2791Y1192D01*
X2794Y1202*
X2801Y1210*
X2809Y1216*
X2818Y1220*
X2829Y1222*
X2839Y1220*
X2848Y1216*
X2857Y1210*
X2863Y1202*
X2867Y1192*
X2868Y1182*
X2867Y1172*
X2863Y1162*
X2857Y1154*
X2848Y1148*
X2839Y1144*
X2829Y1143*
X2818Y1144*
X2809Y1148*
X2801Y1154*
X2794Y1162*
X2791Y1172*
X2789Y1182*
X2889Y382D02*
X2891Y392D01*
X2894Y402*
X2901Y410*
X2909Y416*
X2918Y420*
X2929Y422*
X2939Y420*
X2948Y416*
X2957Y410*
X2963Y402*
X2967Y392*
X2968Y382*
X2967Y372*
X2963Y362*
X2957Y354*
X2948Y348*
X2939Y344*
X2929Y343*
X2918Y344*
X2909Y348*
X2901Y354*
X2894Y362*
X2891Y372*
X2889Y382*
Y1182D02*
X2891Y1192D01*
X2894Y1202*
X2901Y1210*
X2909Y1216*
X2918Y1220*
X2929Y1222*
X2939Y1220*
X2948Y1216*
X2957Y1210*
X2963Y1202*
X2967Y1192*
X2968Y1182*
X2967Y1172*
X2963Y1162*
X2957Y1154*
X2948Y1148*
X2939Y1144*
X2929Y1143*
X2918Y1144*
X2909Y1148*
X2901Y1154*
X2894Y1162*
X2891Y1172*
X2889Y1182*
X2989Y382D02*
X2991Y392D01*
X2994Y402*
X3001Y410*
X3009Y416*
X3018Y420*
X3029Y422*
X3039Y420*
X3048Y416*
X3057Y410*
X3063Y402*
X3067Y392*
X3068Y382*
X3067Y372*
X3063Y362*
X3057Y354*
X3048Y348*
X3039Y344*
X3029Y343*
X3018Y344*
X3009Y348*
X3001Y354*
X2994Y362*
X2991Y372*
X2989Y382*
Y1182D02*
X2991Y1192D01*
X2994Y1202*
X3001Y1210*
X3009Y1216*
X3018Y1220*
X3029Y1222*
X3039Y1220*
X3048Y1216*
X3057Y1210*
X3063Y1202*
X3067Y1192*
X3068Y1182*
X3067Y1172*
X3063Y1162*
X3057Y1154*
X3048Y1148*
X3039Y1144*
X3029Y1143*
X3018Y1144*
X3009Y1148*
X3001Y1154*
X2994Y1162*
X2991Y1172*
X2989Y1182*
X3089Y382D02*
X3091Y392D01*
X3094Y402*
X3101Y410*
X3109Y416*
X3118Y420*
X3129Y422*
X3139Y420*
X3148Y416*
X3157Y410*
X3163Y402*
X3167Y392*
X3168Y382*
X3167Y372*
X3163Y362*
X3157Y354*
X3148Y348*
X3139Y344*
X3129Y343*
X3118Y344*
X3109Y348*
X3101Y354*
X3094Y362*
X3091Y372*
X3089Y382*
Y1182D02*
X3091Y1192D01*
X3094Y1202*
X3101Y1210*
X3109Y1216*
X3118Y1220*
X3129Y1222*
X3139Y1220*
X3148Y1216*
X3157Y1210*
X3163Y1202*
X3167Y1192*
X3168Y1182*
X3167Y1172*
X3163Y1162*
X3157Y1154*
X3148Y1148*
X3139Y1144*
X3129Y1143*
X3118Y1144*
X3109Y1148*
X3101Y1154*
X3094Y1162*
X3091Y1172*
X3089Y1182*
X3189Y382D02*
X3191Y392D01*
X3194Y402*
X3201Y410*
X3209Y416*
X3218Y420*
X3229Y422*
X3239Y420*
X3248Y416*
X3257Y410*
X3263Y402*
X3267Y392*
X3268Y382*
X3267Y372*
X3263Y362*
X3257Y354*
X3248Y348*
X3239Y344*
X3229Y343*
X3218Y344*
X3209Y348*
X3201Y354*
X3194Y362*
X3191Y372*
X3189Y382*
Y1182D02*
X3191Y1192D01*
X3194Y1202*
X3201Y1210*
X3209Y1216*
X3218Y1220*
X3229Y1222*
X3239Y1220*
X3248Y1216*
X3257Y1210*
X3263Y1202*
X3267Y1192*
X3268Y1182*
X3267Y1172*
X3263Y1162*
X3257Y1154*
X3248Y1148*
X3239Y1144*
X3229Y1143*
X3218Y1144*
X3209Y1148*
X3201Y1154*
X3194Y1162*
X3191Y1172*
X3189Y1182*
X3289Y382D02*
X3291Y392D01*
X3294Y402*
X3301Y410*
X3309Y416*
X3318Y420*
X3329Y422*
X3339Y420*
X3348Y416*
X3357Y410*
X3363Y402*
X3367Y392*
X3368Y382*
X3367Y372*
X3363Y362*
X3357Y354*
X3348Y348*
X3339Y344*
X3329Y343*
X3318Y344*
X3309Y348*
X3301Y354*
X3294Y362*
X3291Y372*
X3289Y382*
Y1182D02*
X3291Y1192D01*
X3294Y1202*
X3301Y1210*
X3309Y1216*
X3318Y1220*
X3329Y1222*
X3339Y1220*
X3348Y1216*
X3357Y1210*
X3363Y1202*
X3367Y1192*
X3368Y1182*
X3367Y1172*
X3363Y1162*
X3357Y1154*
X3348Y1148*
X3339Y1144*
X3329Y1143*
X3318Y1144*
X3309Y1148*
X3301Y1154*
X3294Y1162*
X3291Y1172*
X3289Y1182*
X3389Y382D02*
X3391Y392D01*
X3394Y402*
X3401Y410*
X3409Y416*
X3418Y420*
X3429Y422*
X3439Y420*
X3448Y416*
X3457Y410*
X3463Y402*
X3467Y392*
X3468Y382*
X3467Y372*
X3463Y362*
X3457Y354*
X3448Y348*
X3439Y344*
X3429Y343*
X3418Y344*
X3409Y348*
X3401Y354*
X3394Y362*
X3391Y372*
X3389Y382*
Y1182D02*
X3391Y1192D01*
X3394Y1202*
X3401Y1210*
X3409Y1216*
X3418Y1220*
X3429Y1222*
X3439Y1220*
X3448Y1216*
X3457Y1210*
X3463Y1202*
X3467Y1192*
X3468Y1182*
X3467Y1172*
X3463Y1162*
X3457Y1154*
X3448Y1148*
X3439Y1144*
X3429Y1143*
X3418Y1144*
X3409Y1148*
X3401Y1154*
X3394Y1162*
X3391Y1172*
X3389Y1182*
X3489Y382D02*
X3491Y392D01*
X3494Y402*
X3501Y410*
X3509Y416*
X3518Y420*
X3529Y422*
X3539Y420*
X3548Y416*
X3557Y410*
X3563Y402*
X3567Y392*
X3568Y382*
X3567Y372*
X3563Y362*
X3557Y354*
X3548Y348*
X3539Y344*
X3529Y343*
X3518Y344*
X3509Y348*
X3501Y354*
X3494Y362*
X3491Y372*
X3489Y382*
Y1182D02*
X3491Y1192D01*
X3494Y1202*
X3501Y1210*
X3509Y1216*
X3518Y1220*
X3529Y1222*
X3539Y1220*
X3548Y1216*
X3557Y1210*
X3563Y1202*
X3567Y1192*
X3568Y1182*
X3567Y1172*
X3563Y1162*
X3557Y1154*
X3548Y1148*
X3539Y1144*
X3529Y1143*
X3518Y1144*
X3509Y1148*
X3501Y1154*
X3494Y1162*
X3491Y1172*
X3489Y1182*
X3586Y382D02*
X3588Y393D01*
X3592Y403*
X3599Y412*
X3607Y419*
X3618Y423*
X3629Y425*
X3640Y423*
X3650Y419*
X3659Y412*
X3665Y403*
X3670Y393*
X3671Y382*
X3670Y371*
X3665Y361*
X3659Y352*
X3650Y345*
X3640Y341*
X3629Y340*
X3618Y341*
X3607Y345*
X3599Y352*
X3592Y361*
X3588Y371*
X3586Y382*
X3589Y1182D02*
X3591Y1192D01*
X3594Y1202*
X3601Y1210*
X3609Y1216*
X3618Y1220*
X3629Y1222*
X3639Y1220*
X3648Y1216*
X3657Y1210*
X3663Y1202*
X3667Y1192*
X3668Y1182*
X3667Y1172*
X3663Y1162*
X3657Y1154*
X3648Y1148*
X3639Y1144*
X3629Y1143*
X3618Y1144*
X3609Y1148*
X3601Y1154*
X3594Y1162*
X3591Y1172*
X3589Y1182*
X3686D02*
X3688Y1193D01*
X3692Y1203*
X3699Y1212*
X3707Y1219*
X3718Y1223*
X3729Y1225*
X3740Y1223*
X3750Y1219*
X3759Y1212*
X3765Y1203*
X3770Y1193*
X3771Y1182*
X3770Y1171*
X3765Y1161*
X3759Y1152*
X3750Y1145*
X3740Y1141*
X3729Y1140*
X3718Y1141*
X3707Y1145*
X3699Y1152*
X3692Y1161*
X3688Y1171*
X3686Y1182*
X3689Y382D02*
X3691Y392D01*
X3694Y402*
X3701Y410*
X3709Y416*
X3718Y420*
X3729Y422*
X3739Y420*
X3748Y416*
X3757Y410*
X3763Y402*
X3767Y392*
X3768Y382*
X3767Y372*
X3763Y362*
X3757Y354*
X3748Y348*
X3739Y344*
X3729Y343*
X3718Y344*
X3709Y348*
X3701Y354*
X3694Y362*
X3691Y372*
X3689Y382*
X1512Y308D02*
X3812D01*
X1512Y311D02*
X3812D01*
X1512Y314D02*
X3812D01*
X1512Y317D02*
X3812D01*
X1512Y320D02*
X3812D01*
X1512Y323D02*
X3812D01*
X1512Y326D02*
X3812D01*
X1512Y329D02*
X3812D01*
X1512Y332D02*
X3812D01*
X1512Y335D02*
X3812D01*
X1512Y338D02*
X3812D01*
X1512Y341D02*
X3619D01*
X3638D02*
X3812D01*
X1512Y344D02*
X2220D01*
X2238D02*
X2320D01*
X2338D02*
X2420D01*
X2438D02*
X2520D01*
X2538D02*
X2620D01*
X2638D02*
X2720D01*
X2738D02*
X2820D01*
X2838D02*
X2920D01*
X2938D02*
X3020D01*
X3038D02*
X3120D01*
X3138D02*
X3220D01*
X3238D02*
X3320D01*
X3338D02*
X3420D01*
X3438D02*
X3520D01*
X3538D02*
X3611D01*
X3647D02*
X3720D01*
X3738D02*
X3812D01*
X1512Y347D02*
X2211D01*
X2246D02*
X2311D01*
X2346D02*
X2411D01*
X2446D02*
X2511D01*
X2546D02*
X2611D01*
X2646D02*
X2711D01*
X2746D02*
X2811D01*
X2846D02*
X2911D01*
X2946D02*
X3011D01*
X3046D02*
X3111D01*
X3146D02*
X3211D01*
X3246D02*
X3311D01*
X3346D02*
X3411D01*
X3446D02*
X3511D01*
X3546D02*
X3605D01*
X3652D02*
X3711D01*
X3746D02*
X3812D01*
X1512Y350D02*
X2206D01*
X2251D02*
X2306D01*
X2351D02*
X2406D01*
X2451D02*
X2506D01*
X2551D02*
X2606D01*
X2651D02*
X2706D01*
X2751D02*
X2806D01*
X2851D02*
X2906D01*
X2951D02*
X3006D01*
X3051D02*
X3106D01*
X3151D02*
X3206D01*
X3251D02*
X3306D01*
X3351D02*
X3406D01*
X3451D02*
X3506D01*
X3551D02*
X3601D01*
X3656D02*
X3706D01*
X3751D02*
X3812D01*
X1512Y353D02*
X2202D01*
X2255D02*
X2302D01*
X2355D02*
X2402D01*
X2455D02*
X2502D01*
X2555D02*
X2602D01*
X2655D02*
X2702D01*
X2755D02*
X2802D01*
X2855D02*
X2902D01*
X2955D02*
X3002D01*
X3055D02*
X3102D01*
X3155D02*
X3202D01*
X3255D02*
X3302D01*
X3355D02*
X3402D01*
X3455D02*
X3502D01*
X3555D02*
X3598D01*
X3659D02*
X3702D01*
X3755D02*
X3812D01*
X1512Y356D02*
X2199D01*
X2258D02*
X2299D01*
X2358D02*
X2399D01*
X2458D02*
X2499D01*
X2558D02*
X2599D01*
X2658D02*
X2699D01*
X2758D02*
X2799D01*
X2858D02*
X2899D01*
X2958D02*
X2999D01*
X3058D02*
X3099D01*
X3158D02*
X3199D01*
X3258D02*
X3299D01*
X3358D02*
X3399D01*
X3458D02*
X3499D01*
X3558D02*
X3595D01*
X3662D02*
X3699D01*
X3758D02*
X3812D01*
X1512Y359D02*
X2197D01*
X2260D02*
X2297D01*
X2360D02*
X2397D01*
X2460D02*
X2497D01*
X2560D02*
X2597D01*
X2660D02*
X2697D01*
X2760D02*
X2797D01*
X2860D02*
X2897D01*
X2960D02*
X2997D01*
X3060D02*
X3097D01*
X3160D02*
X3197D01*
X3260D02*
X3297D01*
X3360D02*
X3397D01*
X3460D02*
X3497D01*
X3560D02*
X3593D01*
X3664D02*
X3697D01*
X3760D02*
X3812D01*
X1512Y362D02*
X2078D01*
X2097D02*
X2195D01*
X2262D02*
X2295D01*
X2362D02*
X2395D01*
X2462D02*
X2495D01*
X2562D02*
X2595D01*
X2662D02*
X2695D01*
X2762D02*
X2795D01*
X2862D02*
X2895D01*
X2962D02*
X2995D01*
X3062D02*
X3095D01*
X3162D02*
X3195D01*
X3262D02*
X3295D01*
X3362D02*
X3395D01*
X3462D02*
X3495D01*
X3562D02*
X3591D01*
X3666D02*
X3695D01*
X3762D02*
X3812D01*
X1512Y365D02*
X1610D01*
X1689D02*
X1710D01*
X1789D02*
X2072D01*
X2104D02*
X2193D01*
X2264D02*
X2293D01*
X2364D02*
X2393D01*
X2464D02*
X2493D01*
X2564D02*
X2593D01*
X2664D02*
X2693D01*
X2764D02*
X2793D01*
X2864D02*
X2893D01*
X2964D02*
X2993D01*
X3064D02*
X3093D01*
X3164D02*
X3193D01*
X3264D02*
X3293D01*
X3364D02*
X3393D01*
X3464D02*
X3493D01*
X3564D02*
X3590D01*
X3667D02*
X3693D01*
X3764D02*
X3812D01*
X1512Y368D02*
X1610D01*
X1689D02*
X1710D01*
X1789D02*
X2069D01*
X2107D02*
X2192D01*
X2265D02*
X2292D01*
X2365D02*
X2392D01*
X2465D02*
X2492D01*
X2565D02*
X2592D01*
X2665D02*
X2692D01*
X2765D02*
X2792D01*
X2865D02*
X2892D01*
X2965D02*
X2992D01*
X3065D02*
X3092D01*
X3165D02*
X3192D01*
X3265D02*
X3292D01*
X3365D02*
X3392D01*
X3465D02*
X3492D01*
X3565D02*
X3589D01*
X3669D02*
X3692D01*
X3765D02*
X3812D01*
X1512Y371D02*
X1610D01*
X1689D02*
X1710D01*
X1789D02*
X2066D01*
X2110D02*
X2191D01*
X2266D02*
X2291D01*
X2366D02*
X2391D01*
X2466D02*
X2491D01*
X2566D02*
X2591D01*
X2666D02*
X2691D01*
X2766D02*
X2791D01*
X2866D02*
X2891D01*
X2966D02*
X2991D01*
X3066D02*
X3091D01*
X3166D02*
X3191D01*
X3266D02*
X3291D01*
X3366D02*
X3391D01*
X3466D02*
X3491D01*
X3566D02*
X3588D01*
X3670D02*
X3691D01*
X3766D02*
X3812D01*
X1512Y374D02*
X1610D01*
X1689D02*
X1710D01*
X1789D02*
X2064D01*
X2112D02*
X2190D01*
X2267D02*
X2290D01*
X2367D02*
X2390D01*
X2467D02*
X2490D01*
X2567D02*
X2590D01*
X2667D02*
X2690D01*
X2767D02*
X2790D01*
X2867D02*
X2890D01*
X2967D02*
X2990D01*
X3067D02*
X3090D01*
X3167D02*
X3190D01*
X3267D02*
X3290D01*
X3367D02*
X3390D01*
X3467D02*
X3490D01*
X3567D02*
X3587D01*
X3670D02*
X3690D01*
X3767D02*
X3812D01*
X1512Y377D02*
X1610D01*
X1689D02*
X1710D01*
X1789D02*
X2062D01*
X2114D02*
X2190D01*
X2268D02*
X2290D01*
X2368D02*
X2390D01*
X2468D02*
X2490D01*
X2568D02*
X2590D01*
X2668D02*
X2690D01*
X2768D02*
X2790D01*
X2868D02*
X2890D01*
X2968D02*
X2990D01*
X3068D02*
X3090D01*
X3168D02*
X3190D01*
X3268D02*
X3290D01*
X3368D02*
X3390D01*
X3468D02*
X3490D01*
X3568D02*
X3587D01*
X3671D02*
X3690D01*
X3768D02*
X3812D01*
X1512Y380D02*
X1610D01*
X1689D02*
X1710D01*
X1789D02*
X2061D01*
X2115D02*
X2189D01*
X2268D02*
X2289D01*
X2368D02*
X2389D01*
X2468D02*
X2489D01*
X2568D02*
X2589D01*
X2668D02*
X2689D01*
X2768D02*
X2789D01*
X2868D02*
X2889D01*
X2968D02*
X2989D01*
X3068D02*
X3089D01*
X3168D02*
X3189D01*
X3268D02*
X3289D01*
X3368D02*
X3389D01*
X3468D02*
X3489D01*
X3568D02*
X3586D01*
X3671D02*
X3689D01*
X3768D02*
X3812D01*
X1512Y383D02*
X1610D01*
X1689D02*
X1710D01*
X1789D02*
X2060D01*
X2116D02*
X2189D01*
X2268D02*
X2289D01*
X2368D02*
X2389D01*
X2468D02*
X2489D01*
X2568D02*
X2589D01*
X2668D02*
X2689D01*
X2768D02*
X2789D01*
X2868D02*
X2889D01*
X2968D02*
X2989D01*
X3068D02*
X3089D01*
X3168D02*
X3189D01*
X3268D02*
X3289D01*
X3368D02*
X3389D01*
X3468D02*
X3489D01*
X3568D02*
X3586D01*
X3671D02*
X3689D01*
X3768D02*
X3812D01*
X1512Y386D02*
X1610D01*
X1689D02*
X1710D01*
X1789D02*
X2060D01*
X2116D02*
X2189D01*
X2268D02*
X2289D01*
X2368D02*
X2389D01*
X2468D02*
X2489D01*
X2568D02*
X2589D01*
X2668D02*
X2689D01*
X2768D02*
X2789D01*
X2868D02*
X2889D01*
X2968D02*
X2989D01*
X3068D02*
X3089D01*
X3168D02*
X3189D01*
X3268D02*
X3289D01*
X3368D02*
X3389D01*
X3468D02*
X3489D01*
X3568D02*
X3586D01*
X3671D02*
X3689D01*
X3768D02*
X3812D01*
X1512Y389D02*
X1610D01*
X1689D02*
X1710D01*
X1789D02*
X2059D01*
X2116D02*
X2190D01*
X2268D02*
X2290D01*
X2368D02*
X2390D01*
X2468D02*
X2490D01*
X2568D02*
X2590D01*
X2668D02*
X2690D01*
X2768D02*
X2790D01*
X2868D02*
X2890D01*
X2968D02*
X2990D01*
X3068D02*
X3090D01*
X3168D02*
X3190D01*
X3268D02*
X3290D01*
X3368D02*
X3390D01*
X3468D02*
X3490D01*
X3568D02*
X3587D01*
X3671D02*
X3690D01*
X3768D02*
X3812D01*
X1512Y392D02*
X1610D01*
X1689D02*
X1710D01*
X1789D02*
X2060D01*
X2116D02*
X2190D01*
X2267D02*
X2290D01*
X2367D02*
X2390D01*
X2467D02*
X2490D01*
X2567D02*
X2590D01*
X2667D02*
X2690D01*
X2767D02*
X2790D01*
X2867D02*
X2890D01*
X2967D02*
X2990D01*
X3067D02*
X3090D01*
X3167D02*
X3190D01*
X3267D02*
X3290D01*
X3367D02*
X3390D01*
X3467D02*
X3490D01*
X3567D02*
X3587D01*
X3670D02*
X3690D01*
X3767D02*
X3812D01*
X1512Y395D02*
X1610D01*
X1689D02*
X1710D01*
X1789D02*
X2060D01*
X2116D02*
X2191D01*
X2266D02*
X2291D01*
X2366D02*
X2391D01*
X2466D02*
X2491D01*
X2566D02*
X2591D01*
X2666D02*
X2691D01*
X2766D02*
X2791D01*
X2866D02*
X2891D01*
X2966D02*
X2991D01*
X3066D02*
X3091D01*
X3166D02*
X3191D01*
X3266D02*
X3291D01*
X3366D02*
X3391D01*
X3466D02*
X3491D01*
X3566D02*
X3588D01*
X3669D02*
X3691D01*
X3766D02*
X3812D01*
X1512Y398D02*
X1610D01*
X1689D02*
X1710D01*
X1789D02*
X2061D01*
X2115D02*
X2192D01*
X2265D02*
X2292D01*
X2365D02*
X2392D01*
X2465D02*
X2492D01*
X2565D02*
X2592D01*
X2665D02*
X2692D01*
X2765D02*
X2792D01*
X2865D02*
X2892D01*
X2965D02*
X2992D01*
X3065D02*
X3092D01*
X3165D02*
X3192D01*
X3265D02*
X3292D01*
X3365D02*
X3392D01*
X3465D02*
X3492D01*
X3565D02*
X3589D01*
X3668D02*
X3692D01*
X3765D02*
X3812D01*
X1512Y401D02*
X1610D01*
X1689D02*
X1710D01*
X1789D02*
X2062D01*
X2114D02*
X2194D01*
X2264D02*
X2294D01*
X2364D02*
X2394D01*
X2464D02*
X2494D01*
X2564D02*
X2594D01*
X2664D02*
X2694D01*
X2764D02*
X2794D01*
X2864D02*
X2894D01*
X2964D02*
X2994D01*
X3064D02*
X3094D01*
X3164D02*
X3194D01*
X3264D02*
X3294D01*
X3364D02*
X3394D01*
X3464D02*
X3494D01*
X3564D02*
X3590D01*
X3667D02*
X3694D01*
X3764D02*
X3812D01*
X1512Y404D02*
X1610D01*
X1689D02*
X1710D01*
X1789D02*
X2064D01*
X2112D02*
X2196D01*
X2262D02*
X2296D01*
X2362D02*
X2396D01*
X2462D02*
X2496D01*
X2562D02*
X2596D01*
X2662D02*
X2696D01*
X2762D02*
X2796D01*
X2862D02*
X2896D01*
X2962D02*
X2996D01*
X3062D02*
X3096D01*
X3162D02*
X3196D01*
X3262D02*
X3296D01*
X3362D02*
X3396D01*
X3462D02*
X3496D01*
X3562D02*
X3592D01*
X3665D02*
X3696D01*
X3762D02*
X3812D01*
X1512Y407D02*
X1610D01*
X1689D02*
X1710D01*
X1789D02*
X2066D01*
X2110D02*
X2198D01*
X2260D02*
X2298D01*
X2360D02*
X2398D01*
X2460D02*
X2498D01*
X2560D02*
X2598D01*
X2660D02*
X2698D01*
X2760D02*
X2798D01*
X2860D02*
X2898D01*
X2960D02*
X2998D01*
X3060D02*
X3098D01*
X3160D02*
X3198D01*
X3260D02*
X3298D01*
X3360D02*
X3398D01*
X3460D02*
X3498D01*
X3560D02*
X3594D01*
X3663D02*
X3698D01*
X3760D02*
X3812D01*
X1512Y410D02*
X1610D01*
X1689D02*
X1710D01*
X1789D02*
X2069D01*
X2107D02*
X2200D01*
X2257D02*
X2300D01*
X2357D02*
X2400D01*
X2457D02*
X2500D01*
X2557D02*
X2600D01*
X2657D02*
X2700D01*
X2757D02*
X2800D01*
X2857D02*
X2900D01*
X2957D02*
X3000D01*
X3057D02*
X3100D01*
X3157D02*
X3200D01*
X3257D02*
X3300D01*
X3357D02*
X3400D01*
X3457D02*
X3500D01*
X3557D02*
X3596D01*
X3661D02*
X3700D01*
X3757D02*
X3812D01*
X1512Y413D02*
X1610D01*
X1689D02*
X1710D01*
X1789D02*
X2073D01*
X2103D02*
X2204D01*
X2254D02*
X2304D01*
X2354D02*
X2404D01*
X2454D02*
X2504D01*
X2554D02*
X2604D01*
X2654D02*
X2704D01*
X2754D02*
X2804D01*
X2854D02*
X2904D01*
X2954D02*
X3004D01*
X3054D02*
X3104D01*
X3154D02*
X3204D01*
X3254D02*
X3304D01*
X3354D02*
X3404D01*
X3454D02*
X3504D01*
X3554D02*
X3599D01*
X3658D02*
X3704D01*
X3754D02*
X3812D01*
X1512Y416D02*
X1610D01*
X1689D02*
X1710D01*
X1789D02*
X2080D01*
X2096D02*
X2208D01*
X2250D02*
X2308D01*
X2350D02*
X2408D01*
X2450D02*
X2508D01*
X2550D02*
X2608D01*
X2650D02*
X2708D01*
X2750D02*
X2808D01*
X2850D02*
X2908D01*
X2950D02*
X3008D01*
X3050D02*
X3108D01*
X3150D02*
X3208D01*
X3250D02*
X3308D01*
X3350D02*
X3408D01*
X3450D02*
X3508D01*
X3550D02*
X3603D01*
X3655D02*
X3708D01*
X3750D02*
X3812D01*
X1512Y419D02*
X1610D01*
X1689D02*
X1710D01*
X1789D02*
X2214D01*
X2244D02*
X2314D01*
X2344D02*
X2414D01*
X2444D02*
X2514D01*
X2544D02*
X2614D01*
X2644D02*
X2714D01*
X2744D02*
X2814D01*
X2844D02*
X2914D01*
X2944D02*
X3014D01*
X3044D02*
X3114D01*
X3144D02*
X3214D01*
X3244D02*
X3314D01*
X3344D02*
X3414D01*
X3444D02*
X3514D01*
X3544D02*
X3607D01*
X3650D02*
X3714D01*
X3744D02*
X3812D01*
X1512Y422D02*
X1610D01*
X1689D02*
X1710D01*
X1789D02*
X3613D01*
X3644D02*
X3812D01*
X1512Y425D02*
X1610D01*
X1689D02*
X1710D01*
X1789D02*
X3812D01*
X1512Y428D02*
X1610D01*
X1689D02*
X1710D01*
X1789D02*
X3812D01*
X1512Y431D02*
X1610D01*
X1689D02*
X1710D01*
X1789D02*
X3812D01*
X1512Y434D02*
X1610D01*
X1689D02*
X1710D01*
X1789D02*
X3812D01*
X1512Y437D02*
X1610D01*
X1689D02*
X1710D01*
X1789D02*
X3812D01*
X1512Y440D02*
X1610D01*
X1689D02*
X1710D01*
X1789D02*
X3812D01*
X1512Y443D02*
X1610D01*
X1689D02*
X1710D01*
X1789D02*
X3812D01*
X1512Y446D02*
X3812D01*
X1512Y449D02*
X3812D01*
X1512Y452D02*
X3812D01*
X1512Y455D02*
X3812D01*
X1512Y458D02*
X3812D01*
X1512Y461D02*
X3812D01*
X1512Y464D02*
X3812D01*
X1512Y467D02*
X3812D01*
X1512Y470D02*
X3812D01*
X1512Y473D02*
X3812D01*
X1512Y476D02*
X3812D01*
X1512Y479D02*
X3812D01*
X1512Y482D02*
X3812D01*
X1512Y485D02*
X3812D01*
X1512Y488D02*
X3812D01*
X1512Y491D02*
X3812D01*
X1512Y494D02*
X3812D01*
X1512Y497D02*
X3812D01*
X1512Y500D02*
X3812D01*
X1512Y503D02*
X3812D01*
X1512Y506D02*
X3812D01*
X1512Y509D02*
X3812D01*
X1512Y512D02*
X1553D01*
X1570D02*
X3812D01*
X1512Y515D02*
X1547D01*
X1576D02*
X3812D01*
X1512Y518D02*
X1543D01*
X1580D02*
X3812D01*
X1512Y521D02*
X1541D01*
X1582D02*
X3812D01*
X1512Y524D02*
X1539D01*
X1584D02*
X3812D01*
X1512Y527D02*
X1538D01*
X1585D02*
X3812D01*
X1512Y530D02*
X1537D01*
X1586D02*
X3812D01*
X1512Y533D02*
X1536D01*
X1587D02*
X3812D01*
X1512Y536D02*
X1536D01*
X1587D02*
X3812D01*
X1512Y539D02*
X1536D01*
X1587D02*
X3812D01*
X1517Y542D02*
X1537D01*
X1586D02*
X3812D01*
X1527Y545D02*
X1538D01*
X1585D02*
X3812D01*
X1531Y548D02*
X1539D01*
X1584D02*
X3812D01*
X1534Y551D02*
X1541D01*
X1582D02*
X3812D01*
X1536Y554D02*
X1544D01*
X1579D02*
X3812D01*
X1538Y557D02*
X1547D01*
X1576D02*
X3812D01*
X1539Y560D02*
X1554D01*
X1570D02*
X3812D01*
X1539Y563D02*
X3812D01*
X1540Y566D02*
X3812D01*
X1540Y569D02*
X3812D01*
X1539Y572D02*
X3812D01*
X1539Y575D02*
X3812D01*
X1537Y578D02*
X3812D01*
X1536Y581D02*
X3812D01*
X1534Y584D02*
X3812D01*
X1530Y587D02*
X3812D01*
X1526Y590D02*
X3812D01*
X1512Y593D02*
X3812D01*
X1512Y596D02*
X3812D01*
X1512Y599D02*
X3812D01*
X1512Y602D02*
X3812D01*
X1512Y605D02*
X3812D01*
X1512Y608D02*
X3812D01*
X1512Y611D02*
X3812D01*
X1512Y614D02*
X3812D01*
X1512Y617D02*
X3812D01*
X1512Y620D02*
X3812D01*
X1512Y623D02*
X3812D01*
X1512Y626D02*
X3812D01*
X1512Y629D02*
X3812D01*
X1512Y632D02*
X3812D01*
X1512Y635D02*
X3812D01*
X1512Y638D02*
X3812D01*
X1512Y641D02*
X3812D01*
X1512Y644D02*
X3812D01*
X1512Y647D02*
X3812D01*
X1512Y650D02*
X3812D01*
X1512Y653D02*
X3812D01*
X1512Y656D02*
X3812D01*
X1512Y659D02*
X3812D01*
X1512Y662D02*
X3812D01*
X1512Y665D02*
X3812D01*
X1512Y668D02*
X3812D01*
X1512Y671D02*
X3812D01*
X1512Y674D02*
X3812D01*
X1512Y677D02*
X3812D01*
X1512Y680D02*
X3812D01*
X1512Y683D02*
X3812D01*
X1512Y686D02*
X3812D01*
X1512Y689D02*
X3812D01*
X1512Y692D02*
X3812D01*
X1512Y695D02*
X3812D01*
X1512Y698D02*
X3812D01*
X1512Y701D02*
X3812D01*
X1512Y704D02*
X3812D01*
X1512Y707D02*
X3812D01*
X1512Y710D02*
X3812D01*
X1512Y713D02*
X3812D01*
X1512Y716D02*
X3812D01*
X1512Y719D02*
X3812D01*
X1512Y722D02*
X3812D01*
X1512Y725D02*
X3812D01*
X1512Y728D02*
X3812D01*
X1512Y731D02*
X3812D01*
X1512Y734D02*
X3812D01*
X1512Y737D02*
X3812D01*
X1512Y740D02*
X1773D01*
X1783D02*
X3812D01*
X1512Y743D02*
X1765D01*
X1792D02*
X3812D01*
X1512Y746D02*
X1760D01*
X1796D02*
X3812D01*
X1512Y749D02*
X1757D01*
X1799D02*
X3812D01*
X1512Y752D02*
X1755D01*
X1802D02*
X3812D01*
X1512Y755D02*
X1753D01*
X1803D02*
X3812D01*
X1512Y758D02*
X1751D01*
X1805D02*
X3812D01*
X1512Y761D02*
X1750D01*
X1806D02*
X3812D01*
X1512Y764D02*
X1750D01*
X1806D02*
X3812D01*
X1512Y767D02*
X1750D01*
X1807D02*
X3812D01*
X1512Y770D02*
X1750D01*
X1807D02*
X3812D01*
X1512Y773D02*
X1750D01*
X1806D02*
X3812D01*
X1512Y776D02*
X1751D01*
X1805D02*
X3812D01*
X1512Y779D02*
X1752D01*
X1804D02*
X3812D01*
X1512Y782D02*
X1753D01*
X1803D02*
X3812D01*
X1512Y785D02*
X1755D01*
X1801D02*
X3812D01*
X1512Y788D02*
X1758D01*
X1799D02*
X3812D01*
X1512Y791D02*
X1761D01*
X1795D02*
X3812D01*
X1512Y794D02*
X1766D01*
X1790D02*
X3812D01*
X1512Y797D02*
X3812D01*
X1512Y800D02*
X2054D01*
X2073D02*
X3812D01*
X1512Y803D02*
X2048D01*
X2079D02*
X3812D01*
X1512Y806D02*
X2044D01*
X2083D02*
X3812D01*
X1512Y809D02*
X2041D01*
X2086D02*
X3812D01*
X1512Y812D02*
X2039D01*
X2088D02*
X3812D01*
X1512Y815D02*
X2037D01*
X2089D02*
X3812D01*
X1512Y818D02*
X2036D01*
X2090D02*
X3812D01*
X1512Y821D02*
X2035D01*
X2091D02*
X3812D01*
X1512Y824D02*
X2035D01*
X2092D02*
X3812D01*
X1512Y827D02*
X2035D01*
X2092D02*
X3812D01*
X1512Y830D02*
X2035D01*
X2092D02*
X3812D01*
X1512Y833D02*
X2036D01*
X2091D02*
X3812D01*
X1512Y836D02*
X2036D01*
X2090D02*
X3812D01*
X1512Y839D02*
X2038D01*
X2089D02*
X3812D01*
X1512Y842D02*
X2039D01*
X2087D02*
X3812D01*
X1512Y845D02*
X2041D01*
X2085D02*
X3812D01*
X1512Y848D02*
X2044D01*
X2082D02*
X3812D01*
X1512Y851D02*
X2048D01*
X2078D02*
X3812D01*
X1512Y854D02*
X2055D01*
X2072D02*
X3812D01*
X1512Y857D02*
X3812D01*
X1512Y860D02*
X3812D01*
X1512Y863D02*
X3812D01*
X1512Y866D02*
X3812D01*
X1512Y869D02*
X3812D01*
X1512Y872D02*
X3812D01*
X1512Y875D02*
X3812D01*
X1512Y878D02*
X3812D01*
X1512Y881D02*
X3812D01*
X1512Y884D02*
X3812D01*
X1512Y887D02*
X3812D01*
X1512Y890D02*
X3812D01*
X1512Y893D02*
X3812D01*
X1512Y896D02*
X3812D01*
X1512Y899D02*
X3812D01*
X1512Y902D02*
X3812D01*
X1512Y905D02*
X3812D01*
X1512Y908D02*
X3812D01*
X1512Y911D02*
X3812D01*
X1512Y914D02*
X3812D01*
X1512Y917D02*
X3812D01*
X1512Y920D02*
X3812D01*
X1512Y923D02*
X3812D01*
X1512Y926D02*
X3812D01*
X1512Y929D02*
X3812D01*
X1512Y932D02*
X3812D01*
X1512Y935D02*
X3812D01*
X1512Y938D02*
X3812D01*
X1512Y941D02*
X3812D01*
X1512Y944D02*
X3812D01*
X1512Y947D02*
X3812D01*
X1512Y950D02*
X3812D01*
X1512Y953D02*
X3812D01*
X1512Y956D02*
X3812D01*
X1512Y959D02*
X3812D01*
X1512Y962D02*
X3812D01*
X1512Y965D02*
X3812D01*
X1512Y968D02*
X3812D01*
X1512Y971D02*
X3812D01*
X1512Y974D02*
X3812D01*
X1512Y977D02*
X3812D01*
X1512Y980D02*
X3812D01*
X1512Y983D02*
X3812D01*
X1512Y986D02*
X3812D01*
X1512Y989D02*
X3812D01*
X1512Y992D02*
X3812D01*
X1512Y995D02*
X3812D01*
X1512Y998D02*
X3812D01*
X1512Y1001D02*
X3812D01*
X1512Y1004D02*
X3812D01*
X1512Y1007D02*
X3812D01*
X1512Y1010D02*
X3812D01*
X1512Y1013D02*
X3812D01*
X1512Y1016D02*
X3812D01*
X1512Y1019D02*
X3812D01*
X1512Y1022D02*
X1703D01*
X1725D02*
X3812D01*
X1512Y1025D02*
X1698D01*
X1730D02*
X3812D01*
X1512Y1028D02*
X1694D01*
X1734D02*
X3812D01*
X1512Y1031D02*
X1691D01*
X1737D02*
X3812D01*
X1512Y1034D02*
X1689D01*
X1739D02*
X3812D01*
X1512Y1037D02*
X1688D01*
X1740D02*
X3812D01*
X1512Y1040D02*
X1687D01*
X1741D02*
X3812D01*
X1512Y1043D02*
X1686D01*
X1742D02*
X3812D01*
X1512Y1046D02*
X1686D01*
X1742D02*
X3812D01*
X1512Y1049D02*
X1685D01*
X1742D02*
X3812D01*
X1512Y1052D02*
X1686D01*
X1742D02*
X3812D01*
X1512Y1055D02*
X1686D01*
X1742D02*
X3812D01*
X1512Y1058D02*
X1687D01*
X1741D02*
X3812D01*
X1512Y1061D02*
X1688D01*
X1739D02*
X3812D01*
X1512Y1064D02*
X1690D01*
X1738D02*
X3812D01*
X1512Y1067D02*
X1693D01*
X1735D02*
X3812D01*
X1512Y1070D02*
X1696D01*
X1732D02*
X3812D01*
X1512Y1073D02*
X1700D01*
X1728D02*
X3812D01*
X1512Y1076D02*
X1708D01*
X1720D02*
X3812D01*
X1512Y1079D02*
X3812D01*
X1512Y1082D02*
X3812D01*
X1512Y1085D02*
X3812D01*
X1512Y1088D02*
X3812D01*
X1512Y1091D02*
X3812D01*
X1512Y1094D02*
X3812D01*
X1512Y1097D02*
X3812D01*
X1512Y1100D02*
X3812D01*
X1512Y1103D02*
X3812D01*
X1512Y1106D02*
X3812D01*
X1512Y1109D02*
X3812D01*
X1512Y1112D02*
X3812D01*
X1512Y1115D02*
X3812D01*
X1512Y1118D02*
X3812D01*
X1512Y1121D02*
X3812D01*
X1512Y1124D02*
X3812D01*
X1512Y1127D02*
X3812D01*
X1512Y1130D02*
X3812D01*
X1512Y1133D02*
X3812D01*
X1512Y1136D02*
X3812D01*
X1512Y1139D02*
X3812D01*
X1512Y1142D02*
X2216D01*
X2242D02*
X3716D01*
X3742D02*
X3812D01*
X1512Y1145D02*
X2209D01*
X2249D02*
X2316D01*
X2341D02*
X2416D01*
X2441D02*
X2516D01*
X2541D02*
X2616D01*
X2641D02*
X2716D01*
X2741D02*
X2816D01*
X2841D02*
X2916D01*
X2941D02*
X3016D01*
X3041D02*
X3116D01*
X3141D02*
X3216D01*
X3241D02*
X3316D01*
X3341D02*
X3416D01*
X3441D02*
X3516D01*
X3541D02*
X3616D01*
X3641D02*
X3709D01*
X3749D02*
X3812D01*
X1512Y1148D02*
X2204D01*
X2254D02*
X2309D01*
X2348D02*
X2409D01*
X2448D02*
X2509D01*
X2548D02*
X2609D01*
X2648D02*
X2709D01*
X2748D02*
X2809D01*
X2848D02*
X2909D01*
X2948D02*
X3009D01*
X3048D02*
X3109D01*
X3148D02*
X3209D01*
X3248D02*
X3309D01*
X3348D02*
X3409D01*
X3448D02*
X3509D01*
X3548D02*
X3609D01*
X3648D02*
X3704D01*
X3754D02*
X3812D01*
X1512Y1151D02*
X2200D01*
X2257D02*
X2305D01*
X2353D02*
X2405D01*
X2453D02*
X2505D01*
X2553D02*
X2605D01*
X2653D02*
X2705D01*
X2753D02*
X2805D01*
X2853D02*
X2905D01*
X2953D02*
X3005D01*
X3053D02*
X3105D01*
X3153D02*
X3205D01*
X3253D02*
X3305D01*
X3353D02*
X3405D01*
X3453D02*
X3505D01*
X3553D02*
X3605D01*
X3653D02*
X3700D01*
X3757D02*
X3812D01*
X1512Y1154D02*
X2197D01*
X2260D02*
X2301D01*
X2356D02*
X2401D01*
X2456D02*
X2501D01*
X2556D02*
X2601D01*
X2656D02*
X2701D01*
X2756D02*
X2801D01*
X2856D02*
X2901D01*
X2956D02*
X3001D01*
X3056D02*
X3101D01*
X3156D02*
X3201D01*
X3256D02*
X3301D01*
X3356D02*
X3401D01*
X3456D02*
X3501D01*
X3556D02*
X3601D01*
X3656D02*
X3697D01*
X3760D02*
X3812D01*
X1512Y1157D02*
X2195D01*
X2263D02*
X2299D01*
X2359D02*
X2399D01*
X2459D02*
X2499D01*
X2559D02*
X2599D01*
X2659D02*
X2699D01*
X2759D02*
X2799D01*
X2859D02*
X2899D01*
X2959D02*
X2999D01*
X3059D02*
X3099D01*
X3159D02*
X3199D01*
X3259D02*
X3299D01*
X3359D02*
X3399D01*
X3459D02*
X3499D01*
X3559D02*
X3599D01*
X3659D02*
X3695D01*
X3763D02*
X3812D01*
X1512Y1160D02*
X2193D01*
X2265D02*
X2296D01*
X2361D02*
X2396D01*
X2461D02*
X2496D01*
X2561D02*
X2596D01*
X2661D02*
X2696D01*
X2761D02*
X2796D01*
X2861D02*
X2896D01*
X2961D02*
X2996D01*
X3061D02*
X3096D01*
X3161D02*
X3196D01*
X3261D02*
X3296D01*
X3361D02*
X3396D01*
X3461D02*
X3496D01*
X3561D02*
X3596D01*
X3661D02*
X3693D01*
X3765D02*
X3812D01*
X1512Y1163D02*
X2191D01*
X2266D02*
X2294D01*
X2363D02*
X2394D01*
X2463D02*
X2494D01*
X2563D02*
X2594D01*
X2663D02*
X2694D01*
X2763D02*
X2794D01*
X2863D02*
X2894D01*
X2963D02*
X2994D01*
X3063D02*
X3094D01*
X3163D02*
X3194D01*
X3263D02*
X3294D01*
X3363D02*
X3394D01*
X3463D02*
X3494D01*
X3563D02*
X3594D01*
X3663D02*
X3691D01*
X3766D02*
X3812D01*
X1512Y1166D02*
X2190D01*
X2268D02*
X2293D01*
X2365D02*
X2393D01*
X2465D02*
X2493D01*
X2565D02*
X2593D01*
X2665D02*
X2693D01*
X2765D02*
X2793D01*
X2865D02*
X2893D01*
X2965D02*
X2993D01*
X3065D02*
X3093D01*
X3165D02*
X3193D01*
X3265D02*
X3293D01*
X3365D02*
X3393D01*
X3465D02*
X3493D01*
X3565D02*
X3593D01*
X3665D02*
X3690D01*
X3768D02*
X3812D01*
X1512Y1169D02*
X2188D01*
X2269D02*
X2292D01*
X2366D02*
X2392D01*
X2466D02*
X2492D01*
X2566D02*
X2592D01*
X2666D02*
X2692D01*
X2766D02*
X2792D01*
X2866D02*
X2892D01*
X2966D02*
X2992D01*
X3066D02*
X3092D01*
X3166D02*
X3192D01*
X3266D02*
X3292D01*
X3366D02*
X3392D01*
X3466D02*
X3492D01*
X3566D02*
X3592D01*
X3666D02*
X3688D01*
X3769D02*
X3812D01*
X1512Y1172D02*
X2187D01*
X2270D02*
X2291D01*
X2367D02*
X2391D01*
X2467D02*
X2491D01*
X2567D02*
X2591D01*
X2667D02*
X2691D01*
X2767D02*
X2791D01*
X2867D02*
X2891D01*
X2967D02*
X2991D01*
X3067D02*
X3091D01*
X3167D02*
X3191D01*
X3267D02*
X3291D01*
X3367D02*
X3391D01*
X3467D02*
X3491D01*
X3567D02*
X3591D01*
X3667D02*
X3687D01*
X3770D02*
X3812D01*
X1512Y1175D02*
X2187D01*
X2271D02*
X2290D01*
X2367D02*
X2390D01*
X2467D02*
X2490D01*
X2567D02*
X2590D01*
X2667D02*
X2690D01*
X2767D02*
X2790D01*
X2867D02*
X2890D01*
X2967D02*
X2990D01*
X3067D02*
X3090D01*
X3167D02*
X3190D01*
X3267D02*
X3290D01*
X3367D02*
X3390D01*
X3467D02*
X3490D01*
X3567D02*
X3590D01*
X3667D02*
X3687D01*
X3771D02*
X3812D01*
X1512Y1178D02*
X2186D01*
X2271D02*
X2289D01*
X2368D02*
X2389D01*
X2468D02*
X2489D01*
X2568D02*
X2589D01*
X2668D02*
X2689D01*
X2768D02*
X2789D01*
X2868D02*
X2889D01*
X2968D02*
X2989D01*
X3068D02*
X3089D01*
X3168D02*
X3189D01*
X3268D02*
X3289D01*
X3368D02*
X3389D01*
X3468D02*
X3489D01*
X3568D02*
X3589D01*
X3668D02*
X3686D01*
X3771D02*
X3812D01*
X1512Y1181D02*
X2186D01*
X2271D02*
X2289D01*
X2368D02*
X2389D01*
X2468D02*
X2489D01*
X2568D02*
X2589D01*
X2668D02*
X2689D01*
X2768D02*
X2789D01*
X2868D02*
X2889D01*
X2968D02*
X2989D01*
X3068D02*
X3089D01*
X3168D02*
X3189D01*
X3268D02*
X3289D01*
X3368D02*
X3389D01*
X3468D02*
X3489D01*
X3568D02*
X3589D01*
X3668D02*
X3686D01*
X3771D02*
X3812D01*
X1512Y1184D02*
X2186D01*
X2271D02*
X2289D01*
X2368D02*
X2389D01*
X2468D02*
X2489D01*
X2568D02*
X2589D01*
X2668D02*
X2689D01*
X2768D02*
X2789D01*
X2868D02*
X2889D01*
X2968D02*
X2989D01*
X3068D02*
X3089D01*
X3168D02*
X3189D01*
X3268D02*
X3289D01*
X3368D02*
X3389D01*
X3468D02*
X3489D01*
X3568D02*
X3589D01*
X3668D02*
X3686D01*
X3771D02*
X3812D01*
X1512Y1187D02*
X2186D01*
X2271D02*
X2289D01*
X2368D02*
X2389D01*
X2468D02*
X2489D01*
X2568D02*
X2589D01*
X2668D02*
X2689D01*
X2768D02*
X2789D01*
X2868D02*
X2889D01*
X2968D02*
X2989D01*
X3068D02*
X3089D01*
X3168D02*
X3189D01*
X3268D02*
X3289D01*
X3368D02*
X3389D01*
X3468D02*
X3489D01*
X3568D02*
X3589D01*
X3668D02*
X3686D01*
X3771D02*
X3812D01*
X1512Y1190D02*
X2187D01*
X2271D02*
X2290D01*
X2367D02*
X2390D01*
X2467D02*
X2490D01*
X2567D02*
X2590D01*
X2667D02*
X2690D01*
X2767D02*
X2790D01*
X2867D02*
X2890D01*
X2967D02*
X2990D01*
X3067D02*
X3090D01*
X3167D02*
X3190D01*
X3267D02*
X3290D01*
X3367D02*
X3390D01*
X3467D02*
X3490D01*
X3567D02*
X3590D01*
X3667D02*
X3687D01*
X3771D02*
X3812D01*
X1512Y1193D02*
X2188D01*
X2270D02*
X2291D01*
X2367D02*
X2391D01*
X2467D02*
X2491D01*
X2567D02*
X2591D01*
X2667D02*
X2691D01*
X2767D02*
X2791D01*
X2867D02*
X2891D01*
X2967D02*
X2991D01*
X3067D02*
X3091D01*
X3167D02*
X3191D01*
X3267D02*
X3291D01*
X3367D02*
X3391D01*
X3467D02*
X3491D01*
X3567D02*
X3591D01*
X3667D02*
X3688D01*
X3770D02*
X3812D01*
X1512Y1196D02*
X2188D01*
X2269D02*
X2292D01*
X2366D02*
X2392D01*
X2466D02*
X2492D01*
X2566D02*
X2592D01*
X2666D02*
X2692D01*
X2766D02*
X2792D01*
X2866D02*
X2892D01*
X2966D02*
X2992D01*
X3066D02*
X3092D01*
X3166D02*
X3192D01*
X3266D02*
X3292D01*
X3366D02*
X3392D01*
X3466D02*
X3492D01*
X3566D02*
X3592D01*
X3666D02*
X3688D01*
X3769D02*
X3812D01*
X1512Y1199D02*
X2190D01*
X2268D02*
X2293D01*
X2365D02*
X2393D01*
X2465D02*
X2493D01*
X2565D02*
X2593D01*
X2665D02*
X2693D01*
X2765D02*
X2793D01*
X2865D02*
X2893D01*
X2965D02*
X2993D01*
X3065D02*
X3093D01*
X3165D02*
X3193D01*
X3265D02*
X3293D01*
X3365D02*
X3393D01*
X3465D02*
X3493D01*
X3565D02*
X3593D01*
X3665D02*
X3690D01*
X3768D02*
X3812D01*
X1512Y1202D02*
X2191D01*
X2266D02*
X2294D01*
X2363D02*
X2394D01*
X2463D02*
X2494D01*
X2563D02*
X2594D01*
X2663D02*
X2694D01*
X2763D02*
X2794D01*
X2863D02*
X2894D01*
X2963D02*
X2994D01*
X3063D02*
X3094D01*
X3163D02*
X3194D01*
X3263D02*
X3294D01*
X3363D02*
X3394D01*
X3463D02*
X3494D01*
X3563D02*
X3594D01*
X3663D02*
X3691D01*
X3766D02*
X3812D01*
X1512Y1205D02*
X2193D01*
X2265D02*
X2296D01*
X2361D02*
X2396D01*
X2461D02*
X2496D01*
X2561D02*
X2596D01*
X2661D02*
X2696D01*
X2761D02*
X2796D01*
X2861D02*
X2896D01*
X2961D02*
X2996D01*
X3061D02*
X3096D01*
X3161D02*
X3196D01*
X3261D02*
X3296D01*
X3361D02*
X3396D01*
X3461D02*
X3496D01*
X3561D02*
X3596D01*
X3661D02*
X3693D01*
X3765D02*
X3812D01*
X1512Y1208D02*
X2195D01*
X2263D02*
X2299D01*
X2359D02*
X2399D01*
X2459D02*
X2499D01*
X2559D02*
X2599D01*
X2659D02*
X2699D01*
X2759D02*
X2799D01*
X2859D02*
X2899D01*
X2959D02*
X2999D01*
X3059D02*
X3099D01*
X3159D02*
X3199D01*
X3259D02*
X3299D01*
X3359D02*
X3399D01*
X3459D02*
X3499D01*
X3559D02*
X3599D01*
X3659D02*
X3695D01*
X3763D02*
X3812D01*
X1512Y1211D02*
X2197D01*
X2260D02*
X2301D01*
X2356D02*
X2401D01*
X2456D02*
X2501D01*
X2556D02*
X2601D01*
X2656D02*
X2701D01*
X2756D02*
X2801D01*
X2856D02*
X2901D01*
X2956D02*
X3001D01*
X3056D02*
X3101D01*
X3156D02*
X3201D01*
X3256D02*
X3301D01*
X3356D02*
X3401D01*
X3456D02*
X3501D01*
X3556D02*
X3601D01*
X3656D02*
X3697D01*
X3760D02*
X3812D01*
X1512Y1214D02*
X2200D01*
X2257D02*
X2305D01*
X2353D02*
X2405D01*
X2453D02*
X2505D01*
X2553D02*
X2605D01*
X2653D02*
X2705D01*
X2753D02*
X2805D01*
X2853D02*
X2905D01*
X2953D02*
X3005D01*
X3053D02*
X3105D01*
X3153D02*
X3205D01*
X3253D02*
X3305D01*
X3353D02*
X3405D01*
X3453D02*
X3505D01*
X3553D02*
X3605D01*
X3653D02*
X3700D01*
X3757D02*
X3812D01*
X1512Y1217D02*
X2204D01*
X2253D02*
X2309D01*
X2348D02*
X2409D01*
X2448D02*
X2509D01*
X2548D02*
X2609D01*
X2648D02*
X2709D01*
X2748D02*
X2809D01*
X2848D02*
X2909D01*
X2948D02*
X3009D01*
X3048D02*
X3109D01*
X3148D02*
X3209D01*
X3248D02*
X3309D01*
X3348D02*
X3409D01*
X3448D02*
X3509D01*
X3548D02*
X3609D01*
X3648D02*
X3704D01*
X3753D02*
X3812D01*
X1512Y1220D02*
X2209D01*
X2249D02*
X2316D01*
X2341D02*
X2416D01*
X2441D02*
X2516D01*
X2541D02*
X2616D01*
X2641D02*
X2716D01*
X2741D02*
X2816D01*
X2841D02*
X2916D01*
X2941D02*
X3016D01*
X3041D02*
X3116D01*
X3141D02*
X3216D01*
X3241D02*
X3316D01*
X3341D02*
X3416D01*
X3441D02*
X3516D01*
X3541D02*
X3616D01*
X3641D02*
X3709D01*
X3749D02*
X3812D01*
X1512Y1223D02*
X2216D01*
X2242D02*
X3716D01*
X3742D02*
X3812D01*
X1512Y1226D02*
X3812D01*
X1512Y1229D02*
X3812D01*
X1512Y1232D02*
X3812D01*
X1512Y1235D02*
X3812D01*
X1512Y1238D02*
X3812D01*
X1512Y1241D02*
X3812D01*
X1512Y1244D02*
X3812D01*
X1512Y1247D02*
X3812D01*
X1512Y1250D02*
X3812D01*
X1512Y1253D02*
X3812D01*
D02*
D13*
X202Y812D02*
X182D01*
X213Y801D02*
Y781D01*
Y823D02*
Y843D01*
X224Y812D02*
X244D01*
X247Y1272D02*
X227D01*
X258Y1261D02*
Y1241D01*
Y1283D02*
Y1303D01*
X269Y1272D02*
X289D01*
X424Y1607D02*
Y1587D01*
Y1629D02*
Y1649D01*
X435Y1618D02*
X455D01*
X440Y1280D02*
X420D01*
X451Y1269D02*
Y1249D01*
Y1291D02*
Y1311D01*
X462Y1280D02*
X482D01*
X606Y953D02*
X586D01*
X617Y942D02*
Y922D01*
Y964D02*
Y984D01*
X628Y953D02*
X648D01*
X640Y575D02*
X620D01*
X651Y565D02*
Y545D01*
Y586D02*
Y606D01*
X662Y575D02*
X682D01*
X719Y1461D02*
X699D01*
X730Y1450D02*
Y1430D01*
Y1472D02*
Y1492D01*
X741Y1461D02*
X761D01*
X935Y949D02*
X915D01*
X946Y939D02*
Y919D01*
Y960D02*
Y980D01*
X957Y949D02*
X977D01*
X1241Y1678D02*
X1221D01*
X1266Y1653D02*
Y1633D01*
Y1703D02*
Y1723D01*
X1291Y1678D02*
X1311D01*
X1363Y1048D02*
X1343D01*
X1374Y1037D02*
Y1017D01*
Y1059D02*
Y1079D01*
X1385Y1048D02*
X1405D01*
X1490Y1678D02*
X1470D01*
X1515Y1653D02*
Y1633D01*
Y1703D02*
Y1723D01*
X1540Y1678D02*
X1560D01*
X1703Y1048D02*
X1683D01*
X1714Y1037D02*
Y1017D01*
Y1059D02*
Y1079D01*
X1725Y1048D02*
X1745D01*
X1767Y768D02*
X1747D01*
X1778Y757D02*
Y737D01*
Y779D02*
Y799D01*
X1789Y768D02*
X1809D01*
X1845Y1678D02*
X1825D01*
X1870Y1653D02*
Y1633D01*
Y1703D02*
Y1723D01*
X1895Y1678D02*
X1915D01*
X2052Y826D02*
X2032D01*
X2063Y816D02*
Y796D01*
Y837D02*
Y857D01*
X2074Y826D02*
X2094D01*
X2077Y388D02*
X2057D01*
X2088Y378D02*
Y358D01*
Y399D02*
Y419D01*
X2099Y388D02*
X2119D01*
X2199Y1678D02*
X2179D01*
X2204Y1182D02*
X2184D01*
X2224Y1653D02*
Y1633D01*
Y1703D02*
Y1723D01*
X2229Y1157D02*
Y1137D01*
Y1207D02*
Y1227D01*
X2249Y1678D02*
X2269D01*
X2254Y1182D02*
X2274D01*
X2553Y1678D02*
X2533D01*
X2578Y1653D02*
Y1633D01*
Y1703D02*
Y1723D01*
X2603Y1678D02*
X2623D01*
X2888D02*
X2868D01*
X2913Y1653D02*
Y1633D01*
Y1703D02*
Y1723D01*
X2938Y1678D02*
X2958D01*
X3444Y1673D02*
X3424D01*
X3469Y1648D02*
Y1628D01*
Y1698D02*
Y1718D01*
X3494Y1673D02*
X3514D01*
X3604Y382D02*
X3584D01*
X3629Y357D02*
Y337D01*
Y407D02*
Y427D01*
X3654Y382D02*
X3674D01*
X3704Y1182D02*
X3684D01*
X3729Y1157D02*
Y1137D01*
Y1207D02*
Y1227D01*
X3754Y1182D02*
X3774D01*
D02*
D22*
X71Y1413D03*
X691Y380D03*
X1778Y768D03*
D02*
D97*
X424Y733D03*
X524D03*
X530Y890D03*
X730D03*
X2229Y382D03*
Y1182D03*
X2329Y382D03*
Y1182D03*
X2429Y382D03*
Y1182D03*
X2529Y382D03*
Y1182D03*
X2629Y382D03*
Y1182D03*
X2729Y382D03*
Y1182D03*
X2829Y382D03*
Y1182D03*
X2929Y382D03*
Y1182D03*
X3029Y382D03*
Y1182D03*
X3129Y382D03*
Y1182D03*
X3229Y382D03*
Y1182D03*
X3329Y382D03*
Y1182D03*
X3429Y382D03*
Y1182D03*
X3529Y382D03*
Y1182D03*
X3629Y382D03*
Y1182D03*
X3729Y382D03*
Y1182D03*
D02*
D101*
X966Y1678D03*
X1066D03*
X1166D03*
X1266D03*
X1515D03*
X1615D03*
X1650Y403D03*
X1750D03*
X1870Y1678D03*
X1970D03*
X2224D03*
X2324D03*
X2578D03*
X2678D03*
X2913D03*
X3013D03*
X3469Y1673D03*
X3569D03*
D02*
D105*
X213Y812D03*
X258Y1272D03*
X321Y1189D03*
X375Y1619D03*
X408Y1323D03*
X424Y1618D03*
X443Y1366D03*
X451Y1280D03*
X534Y1284D03*
X581Y1402D03*
Y1457D03*
X617Y953D03*
X651Y575D03*
X671Y1599D03*
X730Y1461D03*
Y1520D03*
X946Y949D03*
X1301Y910D03*
X1374Y1048D03*
X1514Y567D03*
X1562Y536D03*
X1714Y1048D03*
X2063Y826D03*
X2088Y388D03*
X0Y0D02*
M02*
