%FSLAX23Y23*%
%MOIN*%
G04 EasyPC Gerber Version 12.0.1 Build 2704 *
%ADD12C,0.00500*%
%ADD94C,0.10000*%
X0Y0D02*
D02*
D12*
X3Y3D02*
X3937D01*
Y1811*
X3*
Y3*
X171Y1473D02*
Y1510D01*
X190*
X196Y1507*
X200Y1504*
X203Y1498*
Y1485*
X200Y1479*
X196Y1476*
X190Y1473*
X171*
X256Y1717D02*
Y1754D01*
X287*
X281Y1735D02*
X256D01*
Y1717D02*
X287D01*
X259Y222D02*
Y259D01*
X290*
X284Y241D02*
X259D01*
Y222D02*
X290D01*
X313Y871D02*
Y909D01*
X332*
X338Y905*
X341Y902*
X344Y896*
Y884*
X341Y877*
X338Y874*
X332Y871*
X313*
X358Y1331D02*
Y1369D01*
X377*
X383Y1365*
X387Y1362*
X390Y1356*
Y1344*
X387Y1337*
X383Y1334*
X377Y1331*
X358*
X421Y1248D02*
Y1286D01*
X440*
X446Y1283*
X450Y1280*
X453Y1273*
Y1261*
X450Y1255*
X446Y1252*
X440Y1248*
X421*
X475Y1678D02*
Y1716D01*
X494*
X500Y1713*
X503Y1709*
X507Y1703*
Y1691*
X503Y1684*
X500Y1681*
X494Y1678*
X475*
X508Y1382D02*
Y1420D01*
X527*
X533Y1417*
X536Y1414*
X539Y1407*
Y1395*
X536Y1389*
X533Y1385*
X527Y1382*
X508*
X524Y792D02*
X539Y830D01*
X555Y792*
X530Y808D02*
X549D01*
X524Y1678D02*
Y1715D01*
X543*
X549Y1712*
X552Y1709*
X555Y1703*
Y1690*
X552Y1684*
X549Y1681*
X543Y1678*
X524*
X543Y1426D02*
Y1463D01*
X562*
X568Y1460*
X572Y1457*
X575Y1451*
Y1438*
X572Y1432*
X568Y1429*
X562Y1426*
X543*
X551Y1339D02*
Y1376D01*
X570*
X576Y1373*
X579Y1370*
X583Y1364*
Y1351*
X579Y1345*
X576Y1342*
X570Y1339*
X551*
X624Y792D02*
X639Y830D01*
X655Y792*
X630Y808D02*
X649D01*
X652Y969D02*
X658Y965D01*
X661Y959*
X658Y953*
X652Y950*
X630*
Y987*
X652*
X658Y984*
X661Y978*
X658Y972*
X652Y969*
X630*
X634Y1343D02*
Y1380D01*
X653*
X659Y1377*
X662Y1374*
X665Y1368*
Y1355*
X662Y1349*
X659Y1346*
X653Y1343*
X634*
X681Y1461D02*
Y1499D01*
X700*
X706Y1495*
X709Y1492*
X712Y1486*
Y1474*
X709Y1467*
X706Y1464*
X700Y1461*
X681*
Y1516D02*
Y1554D01*
X700*
X706Y1551*
X709Y1547*
X712Y1541*
Y1529*
X709Y1522*
X706Y1519*
X700Y1516*
X681*
X717Y1012D02*
Y1050D01*
X735*
X742Y1047*
X745Y1043*
X748Y1037*
Y1025*
X745Y1018*
X742Y1015*
X735Y1012*
X717*
X751Y635D02*
Y672D01*
X770*
X776Y669*
X779Y666*
X782Y660*
Y647*
X779Y641*
X776Y638*
X770Y635*
X751*
X771Y1658D02*
Y1696D01*
X789*
X796Y1693*
X799Y1690*
X802Y1683*
Y1671*
X799Y1665*
X796Y1662*
X789Y1658*
X771*
X791Y439D02*
Y477D01*
X810*
X816Y474*
X820Y471*
X823Y464*
Y452*
X820Y446*
X816Y442*
X810Y439*
X791*
X852Y969D02*
X858Y965D01*
X861Y959*
X858Y953*
X852Y950*
X830*
Y987*
X852*
X858Y984*
X861Y978*
X858Y972*
X852Y969*
X830*
Y1521D02*
Y1558D01*
X848*
X855Y1555*
X858Y1552*
X861Y1546*
Y1533*
X858Y1527*
X855Y1524*
X848Y1521*
X830*
Y1580D02*
Y1617D01*
X848*
X855Y1614*
X858Y1611*
X861Y1605*
Y1592*
X858Y1586*
X855Y1583*
X848Y1580*
X830*
X1046Y1009D02*
Y1046D01*
X1065*
X1071Y1043*
X1074Y1040*
X1077Y1034*
Y1021*
X1074Y1015*
X1071Y1012*
X1065Y1009*
X1046*
X1097Y1743D02*
X1094Y1740D01*
X1088Y1737*
X1078*
X1072Y1740*
X1069Y1743*
X1066Y1750*
Y1762*
X1069Y1768*
X1072Y1772*
X1078Y1775*
X1088*
X1094Y1772*
X1097Y1768*
X1197Y1743D02*
X1194Y1740D01*
X1188Y1737*
X1178*
X1172Y1740*
X1169Y1743*
X1166Y1750*
Y1762*
X1169Y1768*
X1172Y1772*
X1178Y1775*
X1188*
X1194Y1772*
X1197Y1768*
X1297Y1743D02*
X1294Y1740D01*
X1288Y1737*
X1278*
X1272Y1740*
X1269Y1743*
X1266Y1750*
Y1762*
X1269Y1768*
X1272Y1772*
X1278Y1775*
X1288*
X1294Y1772*
X1297Y1768*
X1397Y1743D02*
X1394Y1740D01*
X1388Y1737*
X1378*
X1372Y1740*
X1369Y1743*
X1366Y1750*
Y1762*
X1369Y1768*
X1372Y1772*
X1378Y1775*
X1388*
X1394Y1772*
X1397Y1768*
X1401Y969D02*
Y1007D01*
X1419*
X1426Y1004*
X1429Y1001*
X1432Y994*
Y982*
X1429Y976*
X1426Y973*
X1419Y969*
X1401*
X1474Y1107D02*
Y1145D01*
X1493*
X1499Y1142*
X1502Y1139*
X1506Y1132*
Y1120*
X1502Y1114*
X1499Y1110*
X1493Y1107*
X1474*
X1614Y626D02*
Y664D01*
X1633*
X1639Y661*
X1642Y658*
X1646Y651*
Y639*
X1642Y633*
X1639Y630*
X1633Y626*
X1614*
X1647Y1743D02*
X1644Y1740D01*
X1637Y1737*
X1628*
X1622Y1740*
X1619Y1743*
X1615Y1750*
Y1762*
X1619Y1768*
X1622Y1772*
X1628Y1775*
X1637*
X1644Y1772*
X1647Y1768*
X1662Y595D02*
Y632D01*
X1680*
X1687Y629*
X1690Y626*
X1693Y620*
Y607*
X1690Y601*
X1687Y598*
X1680Y595*
X1662*
X1747Y1743D02*
X1744Y1740D01*
X1737Y1737*
X1728*
X1722Y1740*
X1719Y1743*
X1715Y1750*
Y1762*
X1719Y1768*
X1722Y1772*
X1728Y1775*
X1737*
X1744Y1772*
X1747Y1768*
X1781Y469D02*
X1778Y466D01*
X1772Y463*
X1762*
X1756Y466*
X1753Y469*
X1750Y475*
Y488*
X1753Y494*
X1756Y497*
X1762Y500*
X1772*
X1778Y497*
X1781Y494*
X1814Y1107D02*
Y1145D01*
X1833*
X1839Y1142*
X1842Y1139*
X1845Y1132*
Y1120*
X1842Y1114*
X1839Y1110*
X1833Y1107*
X1814*
X1881Y469D02*
X1878Y466D01*
X1872Y463*
X1862*
X1856Y466*
X1853Y469*
X1850Y475*
Y488*
X1853Y494*
X1856Y497*
X1862Y500*
X1872*
X1878Y497*
X1881Y494*
X1878Y827D02*
Y865D01*
X1897*
X1903Y862*
X1906Y858*
X1909Y852*
Y840*
X1906Y833*
X1903Y830*
X1897Y827*
X1878*
X2001Y1743D02*
X1998Y1740D01*
X1992Y1737*
X1982*
X1976Y1740*
X1973Y1743*
X1970Y1750*
Y1762*
X1973Y1768*
X1976Y1772*
X1982Y1775*
X1992*
X1998Y1772*
X2001Y1768*
X2101Y1743D02*
X2098Y1740D01*
X2092Y1737*
X2082*
X2076Y1740*
X2073Y1743*
X2070Y1750*
Y1762*
X2073Y1768*
X2076Y1772*
X2082Y1775*
X2092*
X2098Y1772*
X2101Y1768*
X2163Y886D02*
Y923D01*
X2182*
X2188Y920*
X2191Y917*
X2195Y911*
Y898*
X2191Y892*
X2188Y889*
X2182Y886*
X2163*
X2188Y448D02*
Y485D01*
X2207*
X2213Y482*
X2216Y479*
X2219Y473*
Y460*
X2216Y454*
X2213Y451*
X2207Y448*
X2188*
X2355Y1743D02*
X2352Y1740D01*
X2346Y1737*
X2337*
X2330Y1740*
X2327Y1743*
X2324Y1750*
Y1762*
X2327Y1768*
X2330Y1772*
X2337Y1775*
X2346*
X2352Y1772*
X2355Y1768*
X2329Y442D02*
X2344Y479D01*
X2360Y442*
X2335Y457D02*
X2354D01*
X2329Y1242D02*
X2344Y1279D01*
X2360Y1242*
X2335Y1257D02*
X2354D01*
X2455Y1743D02*
X2452Y1740D01*
X2446Y1737*
X2437*
X2430Y1740*
X2427Y1743*
X2424Y1750*
Y1762*
X2427Y1768*
X2430Y1772*
X2437Y1775*
X2446*
X2452Y1772*
X2455Y1768*
X2429Y442D02*
X2444Y479D01*
X2460Y442*
X2435Y457D02*
X2454D01*
X2429Y1242D02*
X2444Y1279D01*
X2460Y1242*
X2435Y1257D02*
X2454D01*
X2529Y442D02*
X2544Y479D01*
X2560Y442*
X2535Y457D02*
X2554D01*
X2529Y1242D02*
X2544Y1279D01*
X2560Y1242*
X2535Y1257D02*
X2554D01*
X2629Y442D02*
X2644Y479D01*
X2660Y442*
X2635Y457D02*
X2654D01*
X2629Y1242D02*
X2644Y1279D01*
X2660Y1242*
X2635Y1257D02*
X2654D01*
X2710Y1743D02*
X2707Y1740D01*
X2700Y1737*
X2691*
X2685Y1740*
X2682Y1743*
X2678Y1750*
Y1762*
X2682Y1768*
X2685Y1772*
X2691Y1775*
X2700*
X2707Y1772*
X2710Y1768*
X2729Y442D02*
X2744Y479D01*
X2760Y442*
X2735Y457D02*
X2754D01*
X2729Y1242D02*
X2744Y1279D01*
X2760Y1242*
X2735Y1257D02*
X2754D01*
X2810Y1743D02*
X2807Y1740D01*
X2800Y1737*
X2791*
X2785Y1740*
X2782Y1743*
X2778Y1750*
Y1762*
X2782Y1768*
X2785Y1772*
X2791Y1775*
X2800*
X2807Y1772*
X2810Y1768*
X2829Y442D02*
X2844Y479D01*
X2860Y442*
X2835Y457D02*
X2854D01*
X2829Y1242D02*
X2844Y1279D01*
X2860Y1242*
X2835Y1257D02*
X2854D01*
X2929Y442D02*
X2944Y479D01*
X2960Y442*
X2935Y457D02*
X2954D01*
X2929Y1242D02*
X2944Y1279D01*
X2960Y1242*
X2935Y1257D02*
X2954D01*
X3044Y1743D02*
X3041Y1740D01*
X3035Y1737*
X3026*
X3019Y1740*
X3016Y1743*
X3013Y1750*
Y1762*
X3016Y1768*
X3019Y1772*
X3026Y1775*
X3035*
X3041Y1772*
X3044Y1768*
X3029Y442D02*
X3044Y479D01*
X3060Y442*
X3035Y457D02*
X3054D01*
X3029Y1242D02*
X3044Y1279D01*
X3060Y1242*
X3035Y1257D02*
X3054D01*
X3144Y1743D02*
X3141Y1740D01*
X3135Y1737*
X3126*
X3119Y1740*
X3116Y1743*
X3113Y1750*
Y1762*
X3116Y1768*
X3119Y1772*
X3126Y1775*
X3135*
X3141Y1772*
X3144Y1768*
X3129Y442D02*
X3144Y479D01*
X3160Y442*
X3135Y457D02*
X3154D01*
X3129Y1242D02*
X3144Y1279D01*
X3160Y1242*
X3135Y1257D02*
X3154D01*
X3229Y442D02*
X3244Y479D01*
X3260Y442*
X3235Y457D02*
X3254D01*
X3229Y1242D02*
X3244Y1279D01*
X3260Y1242*
X3235Y1257D02*
X3254D01*
X3329Y442D02*
X3344Y479D01*
X3360Y442*
X3335Y457D02*
X3354D01*
X3329Y1242D02*
X3344Y1279D01*
X3360Y1242*
X3335Y1257D02*
X3354D01*
X3429Y442D02*
X3444Y479D01*
X3460Y442*
X3435Y457D02*
X3454D01*
X3429Y1242D02*
X3444Y1279D01*
X3460Y1242*
X3435Y1257D02*
X3454D01*
X3529Y442D02*
X3544Y479D01*
X3560Y442*
X3535Y457D02*
X3554D01*
X3529Y1242D02*
X3544Y1279D01*
X3560Y1242*
X3535Y1257D02*
X3554D01*
X3601Y1739D02*
X3598Y1736D01*
X3591Y1733*
X3582*
X3576Y1736*
X3573Y1739*
X3569Y1745*
Y1758*
X3573Y1764*
X3576Y1767*
X3582Y1770*
X3591*
X3598Y1767*
X3601Y1764*
X3629Y442D02*
X3644Y479D01*
X3660Y442*
X3635Y457D02*
X3654D01*
X3629Y1242D02*
X3644Y1279D01*
X3660Y1242*
X3635Y1257D02*
X3654D01*
X3701Y1739D02*
X3698Y1736D01*
X3691Y1733*
X3682*
X3676Y1736*
X3673Y1739*
X3669Y1745*
Y1758*
X3673Y1764*
X3676Y1767*
X3682Y1770*
X3691*
X3698Y1767*
X3701Y1764*
X3729Y442D02*
X3744Y479D01*
X3760Y442*
X3735Y457D02*
X3754D01*
X3729Y1242D02*
X3744Y1279D01*
X3760Y1242*
X3735Y1257D02*
X3754D01*
X3829Y442D02*
X3844Y479D01*
X3860Y442*
X3835Y457D02*
X3854D01*
X3829Y1242D02*
X3844Y1279D01*
X3860Y1242*
X3835Y1257D02*
X3854D01*
X3881Y222D02*
Y259D01*
X3913*
X3906Y241D02*
X3881D01*
Y222D02*
X3913D01*
X3882Y1713D02*
Y1750D01*
X3913*
X3907Y1731D02*
X3882D01*
Y1713D02*
X3913D01*
D02*
D94*
X71Y1413D03*
X156Y1657D03*
X159Y162D03*
X213Y812D03*
X258Y1272D03*
X321Y1189D03*
X375Y1619D03*
X408Y1323D03*
X424Y733D03*
Y1618D03*
X443Y1366D03*
X451Y1280D03*
X524Y733D03*
X530Y890D03*
X534Y1284D03*
X581Y1402D03*
Y1457D03*
X617Y953D03*
X651Y575D03*
X671Y1599D03*
X691Y380D03*
X730Y890D03*
Y1461D03*
Y1520D03*
X946Y949D03*
X966Y1678D03*
X1066D03*
X1166D03*
X1266D03*
X1301Y910D03*
X1374Y1048D03*
X1514Y567D03*
X1515Y1678D03*
X1562Y536D03*
X1615Y1678D03*
X1650Y403D03*
X1714Y1048D03*
X1750Y403D03*
X1778Y768D03*
X1870Y1678D03*
X1970D03*
X2063Y826D03*
X2088Y388D03*
X2224Y1678D03*
X2229Y382D03*
Y1182D03*
X2324Y1678D03*
X2329Y382D03*
Y1182D03*
X2429Y382D03*
Y1182D03*
X2529Y382D03*
Y1182D03*
X2578Y1678D03*
X2629Y382D03*
Y1182D03*
X2678Y1678D03*
X2729Y382D03*
Y1182D03*
X2829Y382D03*
Y1182D03*
X2913Y1678D03*
X2929Y382D03*
Y1182D03*
X3013Y1678D03*
X3029Y382D03*
Y1182D03*
X3129Y382D03*
Y1182D03*
X3229Y382D03*
Y1182D03*
X3329Y382D03*
Y1182D03*
X3429Y382D03*
Y1182D03*
X3469Y1673D03*
X3529Y382D03*
Y1182D03*
X3569Y1673D03*
X3629Y382D03*
Y1182D03*
X3729Y382D03*
Y1182D03*
X3781Y162D03*
X3782Y1653D03*
X0Y0D02*
M02*
