%FSLAX23Y23*%
%MOIN*%
G04 EasyPC Gerber Version 12.0.1 Build 2704 *
%ADD11C,0.00100*%
%ADD12C,0.00500*%
%ADD13C,0.01000*%
%ADD128C,0.15748*%
X0Y0D02*
D02*
D11*
X756Y1323D02*
X878D01*
Y1280*
X877*
X873Y1289*
X869Y1295*
X863Y1307*
X851Y1315*
X839Y1317*
X827Y1319*
X804*
Y1266*
X810*
X821Y1268*
X831Y1278*
X837Y1291*
X839Y1295*
Y1301*
X843*
Y1226*
X839*
X837Y1236*
X833Y1246*
X829Y1252*
X821Y1260*
X808Y1262*
X804*
Y1211*
X823*
X837Y1213*
X851Y1215*
X861Y1223*
X873Y1238*
X875Y1246*
X878Y1254*
X880*
Y1207*
X756*
Y1211*
X758*
X768Y1213*
X774Y1217*
X778Y1223*
X780Y1232*
Y1297*
X778Y1307*
X774Y1313*
X768Y1317*
X758Y1319*
X756*
Y1323*
X1022Y1248D02*
X1024D01*
X1020Y1236*
X1014Y1226*
X1004Y1217*
X995Y1211*
X983Y1207*
X969Y1205*
X953Y1207*
X938Y1213*
X924Y1223*
X914Y1234*
X906Y1248*
X904Y1264*
X908Y1284*
X918Y1301*
X934Y1315*
X949Y1323*
X965Y1325*
X977Y1323*
X987Y1319*
X997Y1313*
X1001Y1311*
X1004Y1309*
X1010Y1313*
X1018Y1323*
X1022*
X1024Y1268*
X1020*
X1018Y1278*
X1014Y1286*
X1002Y1303*
X995Y1311*
X985Y1317*
X975Y1319*
X967Y1321*
X955Y1319*
X947Y1315*
X941Y1307*
X938Y1295*
X934Y1282*
Y1264*
X936Y1244*
X940Y1228*
X945Y1219*
X957Y1211*
X971Y1209*
X987Y1211*
X999Y1217*
X1010Y1226*
X1016Y1236*
X1022Y1248*
X1040Y1323D02*
X1162D01*
Y1280*
X1160*
X1156Y1289*
X1152Y1295*
X1146Y1307*
X1134Y1315*
X1123Y1317*
X1111Y1319*
X1087*
Y1266*
X1093*
X1105Y1268*
X1115Y1278*
X1121Y1291*
X1123Y1295*
Y1301*
X1127*
Y1226*
X1123*
X1121Y1236*
X1117Y1246*
X1113Y1252*
X1105Y1260*
X1091Y1262*
X1087*
Y1211*
X1107*
X1121Y1213*
X1134Y1215*
X1144Y1223*
X1156Y1238*
X1158Y1246*
X1162Y1254*
X1164*
Y1207*
X1040*
Y1211*
X1042*
X1052Y1213*
X1058Y1217*
X1062Y1223*
X1064Y1232*
Y1297*
X1062Y1307*
X1058Y1313*
X1052Y1317*
X1042Y1319*
X1040*
Y1323*
X1235D02*
X1310D01*
Y1319*
X1308*
X1298Y1317*
X1294Y1311*
X1296Y1307*
X1300Y1301*
X1321Y1276*
X1341Y1293*
X1345Y1299*
X1347Y1305*
X1345Y1311*
X1341Y1315*
X1335Y1317*
X1327Y1319*
Y1323*
X1390*
Y1319*
X1371Y1313*
X1357Y1305*
X1345Y1293*
X1323Y1274*
X1363Y1228*
X1371Y1221*
X1377Y1215*
X1384Y1213*
X1392Y1211*
X1394*
Y1207*
X1317*
Y1211*
X1325*
X1335Y1213*
X1339Y1215*
Y1219*
Y1223*
X1335Y1226*
X1308Y1258*
X1290Y1238*
X1286Y1232*
X1282Y1228*
Y1223*
Y1219*
X1286Y1215*
X1292Y1211*
X1300*
X1304*
Y1207*
X1235*
Y1211*
X1247Y1213*
X1256Y1217*
X1270Y1224*
X1284Y1236*
X1308Y1260*
X1268Y1303*
X1254Y1315*
X1239Y1319*
X1235*
Y1323*
X1457D02*
X1506D01*
X1550Y1234*
X1593Y1323*
X1638*
Y1319*
X1634*
X1625Y1317*
X1619Y1313*
X1615Y1307*
X1613Y1297*
Y1232*
X1615Y1223*
X1619Y1217*
X1625Y1213*
X1634Y1211*
X1638*
Y1207*
X1564*
Y1211*
X1567*
X1577Y1213*
X1583Y1217*
X1587Y1223*
X1589Y1232*
Y1309*
X1540Y1207*
X1536*
X1487Y1309*
Y1234*
X1491Y1223*
X1499Y1215*
X1512Y1211*
Y1207*
X1457*
Y1211*
X1459*
X1469Y1213*
X1477Y1217*
X1481Y1224*
X1483Y1234*
Y1297*
X1481Y1307*
X1477Y1313*
X1471Y1317*
X1461Y1319*
X1457*
Y1323*
X1648D02*
X1770D01*
Y1280*
X1768*
X1764Y1289*
X1760Y1295*
X1754Y1307*
X1743Y1315*
X1731Y1317*
X1719Y1319*
X1695*
Y1266*
X1701*
X1713Y1268*
X1723Y1278*
X1729Y1291*
X1731Y1295*
Y1301*
X1735*
Y1226*
X1731*
X1729Y1236*
X1725Y1246*
X1721Y1252*
X1713Y1260*
X1699Y1262*
X1695*
Y1211*
X1715*
X1729Y1213*
X1743Y1215*
X1753Y1223*
X1764Y1238*
X1766Y1246*
X1770Y1254*
X1772*
Y1207*
X1648*
Y1211*
X1650*
X1660Y1213*
X1666Y1217*
X1670Y1223*
X1672Y1232*
Y1297*
X1670Y1307*
X1666Y1313*
X1660Y1317*
X1650Y1319*
X1648*
Y1323*
X968Y1205D02*
X970D01*
X960Y1206D02*
X977D01*
X756Y1207D02*
X880D01*
X953D02*
X983D01*
X1040D02*
X1164D01*
X1235D02*
X1304D01*
X1317D02*
X1394D01*
X1457D02*
X1512D01*
X1536D02*
X1540D01*
X1564D02*
X1638D01*
X1648D02*
X1772D01*
X756Y1208D02*
X880D01*
X951D02*
X986D01*
X1040D02*
X1164D01*
X1235D02*
X1304D01*
X1317D02*
X1394D01*
X1457D02*
X1512D01*
X1535D02*
X1540D01*
X1564D02*
X1638D01*
X1648D02*
X1772D01*
X756Y1209D02*
X880D01*
X948D02*
X971D01*
X971D02*
X989D01*
X1040D02*
X1164D01*
X1235D02*
X1304D01*
X1317D02*
X1394D01*
X1457D02*
X1512D01*
X1535D02*
X1541D01*
X1564D02*
X1638D01*
X1648D02*
X1772D01*
X756Y1210D02*
X880D01*
X946D02*
X965D01*
X978D02*
X991D01*
X1040D02*
X1164D01*
X1235D02*
X1304D01*
X1317D02*
X1394D01*
X1457D02*
X1512D01*
X1535D02*
X1541D01*
X1564D02*
X1638D01*
X1648D02*
X1772D01*
X756Y1211D02*
X880D01*
X943D02*
X958D01*
X986D02*
X994D01*
X1040D02*
X1164D01*
X1235D02*
X1304D01*
X1317D02*
X1394D01*
X1457D02*
X1512D01*
X1534D02*
X1542D01*
X1564D02*
X1638D01*
X1648D02*
X1772D01*
X763Y1212D02*
X804D01*
X829D02*
X880D01*
X941D02*
X956D01*
X988D02*
X996D01*
X1046D02*
X1087D01*
X1113D02*
X1164D01*
X1240D02*
X1291D01*
X1329D02*
X1389D01*
X1463D02*
X1509D01*
X1534D02*
X1542D01*
X1572D02*
X1630D01*
X1654D02*
X1695D01*
X1721D02*
X1772D01*
X767Y1212D02*
X804D01*
X836D02*
X880D01*
X938D02*
X955D01*
X990D02*
X998D01*
X1051D02*
X1087D01*
X1119D02*
X1164D01*
X1245D02*
X1289D01*
X1334D02*
X1385D01*
X1468D02*
X1506D01*
X1533D02*
X1543D01*
X1576D02*
X1626D01*
X1659D02*
X1695D01*
X1727D02*
X1772D01*
X769Y1213D02*
X804D01*
X842D02*
X880D01*
X937D02*
X953D01*
X992D02*
X999D01*
X1053D02*
X1087D01*
X1126D02*
X1164D01*
X1248D02*
X1288D01*
X1337D02*
X1381D01*
X1470D02*
X1503D01*
X1533D02*
X1543D01*
X1578D02*
X1623D01*
X1661D02*
X1695D01*
X1734D02*
X1772D01*
X771Y1214D02*
X804D01*
X849D02*
X880D01*
X935D02*
X952D01*
X994D02*
X1001D01*
X1054D02*
X1087D01*
X1132D02*
X1164D01*
X1251D02*
X1286D01*
X1339D02*
X1378D01*
X1472D02*
X1500D01*
X1532D02*
X1544D01*
X1580D02*
X1622D01*
X1662D02*
X1695D01*
X1741D02*
X1772D01*
X772Y1215D02*
X804D01*
X852D02*
X880D01*
X934D02*
X950D01*
X996D02*
X1002D01*
X1056D02*
X1087D01*
X1135D02*
X1164D01*
X1253D02*
X1285D01*
X1339D02*
X1376D01*
X1474D02*
X1498D01*
X1532D02*
X1544D01*
X1581D02*
X1621D01*
X1664D02*
X1695D01*
X1743D02*
X1772D01*
X774Y1216D02*
X804D01*
X853D02*
X880D01*
X933D02*
X949D01*
X998D02*
X1004D01*
X1057D02*
X1087D01*
X1136D02*
X1164D01*
X1255D02*
X1284D01*
X1339D02*
X1375D01*
X1476D02*
X1497D01*
X1531D02*
X1544D01*
X1583D02*
X1619D01*
X1665D02*
X1695D01*
X1745D02*
X1772D01*
X775Y1217D02*
X804D01*
X854D02*
X880D01*
X931D02*
X948D01*
X999D02*
X1005D01*
X1058D02*
X1087D01*
X1138D02*
X1164D01*
X1257D02*
X1283D01*
X1339D02*
X1374D01*
X1477D02*
X1496D01*
X1531D02*
X1545D01*
X1584D02*
X1618D01*
X1666D02*
X1695D01*
X1746D02*
X1772D01*
X775Y1218D02*
X804D01*
X855D02*
X880D01*
X930D02*
X946D01*
X1000D02*
X1006D01*
X1059D02*
X1087D01*
X1139D02*
X1164D01*
X1259D02*
X1283D01*
X1339D02*
X1373D01*
X1478D02*
X1495D01*
X1531D02*
X1545D01*
X1584D02*
X1618D01*
X1667D02*
X1695D01*
X1747D02*
X1772D01*
X776Y1219D02*
X804D01*
X856D02*
X880D01*
X929D02*
X945D01*
X1001D02*
X1007D01*
X1059D02*
X1087D01*
X1140D02*
X1164D01*
X1261D02*
X1282D01*
X1339D02*
X1372D01*
X1478D02*
X1494D01*
X1530D02*
X1546D01*
X1585D02*
X1617D01*
X1667D02*
X1695D01*
X1748D02*
X1772D01*
X776Y1220D02*
X804D01*
X858D02*
X880D01*
X927D02*
X945D01*
X1003D02*
X1008D01*
X1060D02*
X1087D01*
X1141D02*
X1164D01*
X1262D02*
X1282D01*
X1339D02*
X1371D01*
X1479D02*
X1493D01*
X1530D02*
X1546D01*
X1585D02*
X1616D01*
X1668D02*
X1695D01*
X1749D02*
X1772D01*
X777Y1221D02*
X804D01*
X859D02*
X880D01*
X926D02*
X944D01*
X1004D02*
X1009D01*
X1060D02*
X1087D01*
X1142D02*
X1164D01*
X1264D02*
X1282D01*
X1339D02*
X1370D01*
X1479D02*
X1492D01*
X1529D02*
X1547D01*
X1586D02*
X1616D01*
X1669D02*
X1695D01*
X1750D02*
X1772D01*
X778Y1222D02*
X804D01*
X860D02*
X880D01*
X925D02*
X943D01*
X1005D02*
X1010D01*
X1061D02*
X1087D01*
X1143D02*
X1164D01*
X1266D02*
X1282D01*
X1339D02*
X1369D01*
X1480D02*
X1491D01*
X1529D02*
X1547D01*
X1587D02*
X1615D01*
X1669D02*
X1695D01*
X1752D02*
X1772D01*
X778Y1223D02*
X804D01*
X861D02*
X880D01*
X924D02*
X943D01*
X1006D02*
X1011D01*
X1062D02*
X1087D01*
X1144D02*
X1164D01*
X1267D02*
X1282D01*
X1339D02*
X1368D01*
X1480D02*
X1491D01*
X1528D02*
X1548D01*
X1587D02*
X1615D01*
X1670D02*
X1695D01*
X1753D02*
X1772D01*
X778Y1224D02*
X804D01*
X862D02*
X880D01*
X923D02*
X942D01*
X1007D02*
X1012D01*
X1062D02*
X1087D01*
X1145D02*
X1164D01*
X1269D02*
X1282D01*
X1338D02*
X1367D01*
X1480D02*
X1490D01*
X1528D02*
X1548D01*
X1587D02*
X1614D01*
X1670D02*
X1695D01*
X1753D02*
X1772D01*
X779Y1225D02*
X804D01*
X862D02*
X880D01*
X922D02*
X942D01*
X1008D02*
X1013D01*
X1062D02*
X1087D01*
X1146D02*
X1164D01*
X1270D02*
X1282D01*
X1337D02*
X1367D01*
X1481D02*
X1490D01*
X1527D02*
X1549D01*
X1588D02*
X1614D01*
X1670D02*
X1695D01*
X1754D02*
X1772D01*
X779Y1226D02*
X804D01*
X863D02*
X880D01*
X921D02*
X941D01*
X1009D02*
X1013D01*
X1062D02*
X1087D01*
X1147D02*
X1164D01*
X1272D02*
X1282D01*
X1336D02*
X1366D01*
X1481D02*
X1490D01*
X1527D02*
X1549D01*
X1588D02*
X1614D01*
X1670D02*
X1695D01*
X1755D02*
X1772D01*
X779Y1227D02*
X804D01*
X839D02*
X843D01*
X864D02*
X880D01*
X920D02*
X941D01*
X1010D02*
X1014D01*
X1062D02*
X1087D01*
X1123D02*
X1127D01*
X1147D02*
X1164D01*
X1273D02*
X1282D01*
X1335D02*
X1365D01*
X1481D02*
X1489D01*
X1526D02*
X1549D01*
X1588D02*
X1614D01*
X1671D02*
X1695D01*
X1731D02*
X1735D01*
X1756D02*
X1772D01*
X779Y1227D02*
X804D01*
X839D02*
X843D01*
X864D02*
X880D01*
X920D02*
X940D01*
X1011D02*
X1015D01*
X1063D02*
X1087D01*
X1122D02*
X1127D01*
X1148D02*
X1164D01*
X1274D02*
X1282D01*
X1334D02*
X1364D01*
X1481D02*
X1489D01*
X1526D02*
X1550D01*
X1588D02*
X1614D01*
X1671D02*
X1695D01*
X1731D02*
X1735D01*
X1756D02*
X1772D01*
X779Y1228D02*
X804D01*
X839D02*
X843D01*
X865D02*
X880D01*
X919D02*
X940D01*
X1012D02*
X1015D01*
X1063D02*
X1087D01*
X1122D02*
X1127D01*
X1149D02*
X1164D01*
X1275D02*
X1282D01*
X1333D02*
X1363D01*
X1482D02*
X1489D01*
X1526D02*
X1550D01*
X1588D02*
X1614D01*
X1671D02*
X1695D01*
X1730D02*
X1735D01*
X1757D02*
X1772D01*
X779Y1229D02*
X804D01*
X839D02*
X843D01*
X866D02*
X880D01*
X918D02*
X939D01*
X1012D02*
X1016D01*
X1063D02*
X1087D01*
X1122D02*
X1127D01*
X1149D02*
X1164D01*
X1276D02*
X1283D01*
X1333D02*
X1362D01*
X1482D02*
X1488D01*
X1525D02*
X1551D01*
X1589D02*
X1613D01*
X1671D02*
X1695D01*
X1730D02*
X1735D01*
X1758D02*
X1772D01*
X780Y1230D02*
X804D01*
X838D02*
X843D01*
X867D02*
X880D01*
X917D02*
X939D01*
X1013D02*
X1017D01*
X1063D02*
X1087D01*
X1122D02*
X1127D01*
X1150D02*
X1164D01*
X1277D02*
X1284D01*
X1332D02*
X1361D01*
X1482D02*
X1488D01*
X1525D02*
X1551D01*
X1589D02*
X1613D01*
X1671D02*
X1695D01*
X1730D02*
X1735D01*
X1758D02*
X1772D01*
X780Y1231D02*
X804D01*
X838D02*
X843D01*
X867D02*
X880D01*
X917D02*
X939D01*
X1013D02*
X1017D01*
X1063D02*
X1087D01*
X1122D02*
X1127D01*
X1151D02*
X1164D01*
X1278D02*
X1285D01*
X1331D02*
X1360D01*
X1482D02*
X1488D01*
X1524D02*
X1552D01*
X1589D02*
X1613D01*
X1672D02*
X1695D01*
X1730D02*
X1735D01*
X1759D02*
X1772D01*
X780Y1232D02*
X804D01*
X838D02*
X843D01*
X868D02*
X880D01*
X916D02*
X939D01*
X1014D02*
X1018D01*
X1063D02*
X1087D01*
X1121D02*
X1127D01*
X1151D02*
X1164D01*
X1279D02*
X1286D01*
X1330D02*
X1359D01*
X1482D02*
X1487D01*
X1524D02*
X1552D01*
X1589D02*
X1613D01*
X1672D02*
X1695D01*
X1730D02*
X1735D01*
X1760D02*
X1772D01*
X780Y1233D02*
X804D01*
X838D02*
X843D01*
X869D02*
X880D01*
X915D02*
X938D01*
X1014D02*
X1018D01*
X1064D02*
X1087D01*
X1121D02*
X1127D01*
X1152D02*
X1164D01*
X1280D02*
X1286D01*
X1329D02*
X1359D01*
X1483D02*
X1487D01*
X1523D02*
X1553D01*
X1589D02*
X1613D01*
X1672D02*
X1695D01*
X1730D02*
X1735D01*
X1760D02*
X1772D01*
X780Y1234D02*
X804D01*
X838D02*
X843D01*
X869D02*
X880D01*
X914D02*
X938D01*
X1015D02*
X1019D01*
X1064D02*
X1087D01*
X1121D02*
X1127D01*
X1153D02*
X1164D01*
X1281D02*
X1287D01*
X1329D02*
X1358D01*
X1483D02*
X1487D01*
X1523D02*
X1553D01*
X1589D02*
X1613D01*
X1672D02*
X1695D01*
X1729D02*
X1735D01*
X1761D02*
X1772D01*
X780Y1235D02*
X804D01*
X837D02*
X843D01*
X870D02*
X880D01*
X914D02*
X938D01*
X1015D02*
X1019D01*
X1064D02*
X1087D01*
X1121D02*
X1127D01*
X1154D02*
X1164D01*
X1282D02*
X1288D01*
X1328D02*
X1357D01*
X1483D02*
X1487D01*
X1522D02*
X1549D01*
X1550D02*
X1553D01*
X1589D02*
X1613D01*
X1672D02*
X1695D01*
X1729D02*
X1735D01*
X1762D02*
X1772D01*
X780Y1236D02*
X804D01*
X837D02*
X843D01*
X871D02*
X880D01*
X913D02*
X938D01*
X1016D02*
X1020D01*
X1064D02*
X1087D01*
X1121D02*
X1127D01*
X1154D02*
X1164D01*
X1284D02*
X1288D01*
X1327D02*
X1356D01*
X1483D02*
X1487D01*
X1522D02*
X1549D01*
X1551D02*
X1554D01*
X1589D02*
X1613D01*
X1672D02*
X1695D01*
X1729D02*
X1735D01*
X1763D02*
X1772D01*
X780Y1237D02*
X804D01*
X837D02*
X843D01*
X872D02*
X880D01*
X912D02*
X937D01*
X1017D02*
X1020D01*
X1064D02*
X1087D01*
X1120D02*
X1127D01*
X1155D02*
X1164D01*
X1285D02*
X1289D01*
X1326D02*
X1355D01*
X1483D02*
X1487D01*
X1522D02*
X1549D01*
X1551D02*
X1554D01*
X1589D02*
X1613D01*
X1672D02*
X1695D01*
X1729D02*
X1735D01*
X1763D02*
X1772D01*
X780Y1238D02*
X804D01*
X837D02*
X843D01*
X872D02*
X880D01*
X912D02*
X937D01*
X1017D02*
X1021D01*
X1064D02*
X1087D01*
X1120D02*
X1127D01*
X1156D02*
X1164D01*
X1285D02*
X1290D01*
X1325D02*
X1355D01*
X1483D02*
X1487D01*
X1521D02*
X1548D01*
X1551D02*
X1555D01*
X1589D02*
X1613D01*
X1672D02*
X1695D01*
X1728D02*
X1735D01*
X1764D02*
X1772D01*
X780Y1239D02*
X804D01*
X836D02*
X843D01*
X873D02*
X880D01*
X911D02*
X937D01*
X1017D02*
X1021D01*
X1064D02*
X1087D01*
X1120D02*
X1127D01*
X1156D02*
X1164D01*
X1286D02*
X1290D01*
X1324D02*
X1354D01*
X1483D02*
X1487D01*
X1521D02*
X1548D01*
X1552D02*
X1555D01*
X1589D02*
X1613D01*
X1672D02*
X1695D01*
X1728D02*
X1735D01*
X1764D02*
X1772D01*
X780Y1240D02*
X804D01*
X836D02*
X843D01*
X873D02*
X880D01*
X911D02*
X937D01*
X1018D02*
X1021D01*
X1064D02*
X1087D01*
X1119D02*
X1127D01*
X1156D02*
X1164D01*
X1287D02*
X1291D01*
X1324D02*
X1353D01*
X1483D02*
X1487D01*
X1520D02*
X1547D01*
X1552D02*
X1556D01*
X1589D02*
X1613D01*
X1672D02*
X1695D01*
X1728D02*
X1735D01*
X1765D02*
X1772D01*
X780Y1241D02*
X804D01*
X835D02*
X843D01*
X873D02*
X880D01*
X910D02*
X936D01*
X1018D02*
X1022D01*
X1064D02*
X1087D01*
X1119D02*
X1127D01*
X1157D02*
X1164D01*
X1288D02*
X1292D01*
X1323D02*
X1352D01*
X1483D02*
X1487D01*
X1520D02*
X1547D01*
X1553D02*
X1556D01*
X1589D02*
X1613D01*
X1672D02*
X1695D01*
X1727D02*
X1735D01*
X1765D02*
X1772D01*
X780Y1242D02*
X804D01*
X835D02*
X843D01*
X873D02*
X880D01*
X910D02*
X936D01*
X1019D02*
X1022D01*
X1064D02*
X1087D01*
X1119D02*
X1127D01*
X1157D02*
X1164D01*
X1289D02*
X1293D01*
X1322D02*
X1351D01*
X1483D02*
X1487D01*
X1519D02*
X1546D01*
X1553D02*
X1557D01*
X1589D02*
X1613D01*
X1672D02*
X1695D01*
X1727D02*
X1735D01*
X1765D02*
X1772D01*
X780Y1242D02*
X804D01*
X835D02*
X843D01*
X874D02*
X880D01*
X909D02*
X936D01*
X1019D02*
X1022D01*
X1064D02*
X1087D01*
X1118D02*
X1127D01*
X1157D02*
X1164D01*
X1290D02*
X1294D01*
X1321D02*
X1351D01*
X1483D02*
X1487D01*
X1519D02*
X1546D01*
X1554D02*
X1557D01*
X1589D02*
X1613D01*
X1672D02*
X1695D01*
X1726D02*
X1735D01*
X1765D02*
X1772D01*
X780Y1243D02*
X804D01*
X834D02*
X843D01*
X874D02*
X880D01*
X909D02*
X936D01*
X1020D02*
X1023D01*
X1064D02*
X1087D01*
X1118D02*
X1127D01*
X1157D02*
X1164D01*
X1291D02*
X1295D01*
X1320D02*
X1350D01*
X1483D02*
X1487D01*
X1518D02*
X1545D01*
X1554D02*
X1558D01*
X1589D02*
X1613D01*
X1672D02*
X1695D01*
X1726D02*
X1735D01*
X1766D02*
X1772D01*
X780Y1244D02*
X804D01*
X834D02*
X843D01*
X874D02*
X880D01*
X908D02*
X936D01*
X1020D02*
X1023D01*
X1064D02*
X1087D01*
X1117D02*
X1127D01*
X1158D02*
X1164D01*
X1292D02*
X1295D01*
X1320D02*
X1349D01*
X1483D02*
X1487D01*
X1518D02*
X1545D01*
X1555D02*
X1558D01*
X1589D02*
X1613D01*
X1672D02*
X1695D01*
X1726D02*
X1735D01*
X1766D02*
X1772D01*
X780Y1245D02*
X804D01*
X834D02*
X843D01*
X874D02*
X880D01*
X908D02*
X935D01*
X1021D02*
X1023D01*
X1064D02*
X1087D01*
X1117D02*
X1127D01*
X1158D02*
X1164D01*
X1293D02*
X1296D01*
X1319D02*
X1348D01*
X1483D02*
X1487D01*
X1517D02*
X1544D01*
X1555D02*
X1558D01*
X1589D02*
X1613D01*
X1672D02*
X1695D01*
X1725D02*
X1735D01*
X1766D02*
X1772D01*
X780Y1246D02*
X804D01*
X833D02*
X843D01*
X875D02*
X880D01*
X907D02*
X935D01*
X1021D02*
X1024D01*
X1064D02*
X1087D01*
X1117D02*
X1127D01*
X1158D02*
X1164D01*
X1294D02*
X1297D01*
X1318D02*
X1347D01*
X1483D02*
X1487D01*
X1517D02*
X1544D01*
X1556D02*
X1559D01*
X1589D02*
X1613D01*
X1672D02*
X1695D01*
X1725D02*
X1735D01*
X1766D02*
X1772D01*
X780Y1247D02*
X804D01*
X833D02*
X843D01*
X875D02*
X880D01*
X907D02*
X935D01*
X1022D02*
X1024D01*
X1064D02*
X1087D01*
X1116D02*
X1127D01*
X1159D02*
X1164D01*
X1295D02*
X1298D01*
X1317D02*
X1346D01*
X1483D02*
X1487D01*
X1517D02*
X1543D01*
X1556D02*
X1559D01*
X1589D02*
X1613D01*
X1672D02*
X1695D01*
X1724D02*
X1735D01*
X1767D02*
X1772D01*
X780Y1248D02*
X804D01*
X832D02*
X843D01*
X876D02*
X880D01*
X906D02*
X935D01*
X1022D02*
X1024D01*
X1064D02*
X1087D01*
X1115D02*
X1127D01*
X1159D02*
X1164D01*
X1296D02*
X1299D01*
X1316D02*
X1346D01*
X1483D02*
X1487D01*
X1516D02*
X1543D01*
X1556D02*
X1560D01*
X1589D02*
X1613D01*
X1672D02*
X1695D01*
X1724D02*
X1735D01*
X1767D02*
X1772D01*
X780Y1249D02*
X804D01*
X831D02*
X843D01*
X876D02*
X880D01*
X906D02*
X935D01*
X1064D02*
X1087D01*
X1115D02*
X1127D01*
X1159D02*
X1164D01*
X1297D02*
X1300D01*
X1315D02*
X1345D01*
X1483D02*
X1487D01*
X1516D02*
X1543D01*
X1557D02*
X1560D01*
X1589D02*
X1613D01*
X1672D02*
X1695D01*
X1723D02*
X1735D01*
X1768D02*
X1772D01*
X780Y1250D02*
X804D01*
X831D02*
X843D01*
X876D02*
X880D01*
X906D02*
X935D01*
X1064D02*
X1087D01*
X1114D02*
X1127D01*
X1160D02*
X1164D01*
X1298D02*
X1300D01*
X1315D02*
X1344D01*
X1483D02*
X1487D01*
X1515D02*
X1542D01*
X1557D02*
X1561D01*
X1589D02*
X1613D01*
X1672D02*
X1695D01*
X1722D02*
X1735D01*
X1768D02*
X1772D01*
X780Y1251D02*
X804D01*
X830D02*
X843D01*
X877D02*
X880D01*
X906D02*
X935D01*
X1064D02*
X1087D01*
X1114D02*
X1127D01*
X1160D02*
X1164D01*
X1299D02*
X1301D01*
X1314D02*
X1343D01*
X1483D02*
X1487D01*
X1515D02*
X1542D01*
X1558D02*
X1561D01*
X1589D02*
X1613D01*
X1672D02*
X1695D01*
X1722D02*
X1735D01*
X1769D02*
X1772D01*
X780Y1252D02*
X804D01*
X829D02*
X843D01*
X877D02*
X880D01*
X906D02*
X935D01*
X1064D02*
X1087D01*
X1113D02*
X1127D01*
X1161D02*
X1164D01*
X1300D02*
X1302D01*
X1313D02*
X1342D01*
X1483D02*
X1487D01*
X1514D02*
X1541D01*
X1558D02*
X1562D01*
X1589D02*
X1613D01*
X1672D02*
X1695D01*
X1721D02*
X1735D01*
X1769D02*
X1772D01*
X780Y1253D02*
X804D01*
X829D02*
X843D01*
X878D02*
X880D01*
X905D02*
X935D01*
X1064D02*
X1087D01*
X1112D02*
X1127D01*
X1161D02*
X1164D01*
X1300D02*
X1303D01*
X1312D02*
X1342D01*
X1483D02*
X1487D01*
X1514D02*
X1541D01*
X1559D02*
X1562D01*
X1589D02*
X1613D01*
X1672D02*
X1695D01*
X1720D02*
X1735D01*
X1770D02*
X1772D01*
X780Y1254D02*
X804D01*
X828D02*
X843D01*
X878D02*
X880D01*
X905D02*
X935D01*
X1064D02*
X1087D01*
X1111D02*
X1127D01*
X1162D02*
X1164D01*
X1301D02*
X1304D01*
X1311D02*
X1341D01*
X1483D02*
X1487D01*
X1513D02*
X1540D01*
X1559D02*
X1562D01*
X1589D02*
X1613D01*
X1672D02*
X1695D01*
X1719D02*
X1735D01*
X1770D02*
X1772D01*
X780Y1255D02*
X804D01*
X827D02*
X843D01*
X905D02*
X935D01*
X1064D02*
X1087D01*
X1110D02*
X1127D01*
X1302D02*
X1305D01*
X1311D02*
X1340D01*
X1483D02*
X1487D01*
X1513D02*
X1540D01*
X1560D02*
X1563D01*
X1589D02*
X1613D01*
X1672D02*
X1695D01*
X1718D02*
X1735D01*
X780Y1256D02*
X804D01*
X826D02*
X843D01*
X905D02*
X934D01*
X1064D02*
X1087D01*
X1109D02*
X1127D01*
X1303D02*
X1305D01*
X1310D02*
X1339D01*
X1483D02*
X1487D01*
X1513D02*
X1539D01*
X1560D02*
X1563D01*
X1589D02*
X1613D01*
X1672D02*
X1695D01*
X1717D02*
X1735D01*
X780Y1257D02*
X804D01*
X825D02*
X843D01*
X905D02*
X934D01*
X1064D02*
X1087D01*
X1108D02*
X1127D01*
X1304D02*
X1306D01*
X1309D02*
X1338D01*
X1483D02*
X1487D01*
X1512D02*
X1539D01*
X1561D02*
X1564D01*
X1589D02*
X1613D01*
X1672D02*
X1695D01*
X1717D02*
X1735D01*
X780Y1257D02*
X804D01*
X824D02*
X843D01*
X905D02*
X934D01*
X1064D02*
X1087D01*
X1107D02*
X1127D01*
X1305D02*
X1307D01*
X1308D02*
X1338D01*
X1483D02*
X1487D01*
X1512D02*
X1538D01*
X1561D02*
X1564D01*
X1589D02*
X1613D01*
X1672D02*
X1695D01*
X1716D02*
X1735D01*
X780Y1258D02*
X804D01*
X823D02*
X843D01*
X905D02*
X934D01*
X1064D02*
X1087D01*
X1106D02*
X1127D01*
X1306D02*
X1337D01*
X1483D02*
X1487D01*
X1511D02*
X1538D01*
X1562D02*
X1565D01*
X1589D02*
X1613D01*
X1672D02*
X1695D01*
X1715D02*
X1735D01*
X780Y1259D02*
X804D01*
X822D02*
X843D01*
X905D02*
X934D01*
X1064D02*
X1087D01*
X1105D02*
X1127D01*
X1307D02*
X1336D01*
X1483D02*
X1487D01*
X1511D02*
X1538D01*
X1562D02*
X1565D01*
X1589D02*
X1613D01*
X1672D02*
X1695D01*
X1714D02*
X1735D01*
X780Y1260D02*
X804D01*
X819D02*
X843D01*
X905D02*
X934D01*
X1064D02*
X1087D01*
X1102D02*
X1127D01*
X1307D02*
X1335D01*
X1483D02*
X1487D01*
X1510D02*
X1537D01*
X1562D02*
X1566D01*
X1589D02*
X1613D01*
X1672D02*
X1695D01*
X1711D02*
X1735D01*
X780Y1261D02*
X804D01*
X812D02*
X843D01*
X904D02*
X934D01*
X1064D02*
X1087D01*
X1096D02*
X1127D01*
X1306D02*
X1334D01*
X1483D02*
X1487D01*
X1510D02*
X1537D01*
X1563D02*
X1566D01*
X1589D02*
X1613D01*
X1672D02*
X1695D01*
X1704D02*
X1735D01*
X780Y1262D02*
X843D01*
X904D02*
X934D01*
X1064D02*
X1127D01*
X1306D02*
X1333D01*
X1483D02*
X1487D01*
X1509D02*
X1536D01*
X1563D02*
X1567D01*
X1589D02*
X1613D01*
X1672D02*
X1735D01*
X780Y1263D02*
X843D01*
X904D02*
X934D01*
X1064D02*
X1127D01*
X1305D02*
X1333D01*
X1483D02*
X1487D01*
X1509D02*
X1536D01*
X1564D02*
X1567D01*
X1589D02*
X1613D01*
X1672D02*
X1735D01*
X780Y1264D02*
X843D01*
X904D02*
X934D01*
X1064D02*
X1127D01*
X1304D02*
X1332D01*
X1483D02*
X1487D01*
X1508D02*
X1535D01*
X1564D02*
X1567D01*
X1589D02*
X1613D01*
X1672D02*
X1735D01*
X780Y1265D02*
X843D01*
X904D02*
X934D01*
X1064D02*
X1127D01*
X1303D02*
X1331D01*
X1483D02*
X1487D01*
X1508D02*
X1535D01*
X1565D02*
X1568D01*
X1589D02*
X1613D01*
X1672D02*
X1735D01*
X780Y1266D02*
X804D01*
X810D02*
X843D01*
X904D02*
X934D01*
X1064D02*
X1087D01*
X1093D02*
X1127D01*
X1302D02*
X1330D01*
X1483D02*
X1487D01*
X1508D02*
X1534D01*
X1565D02*
X1568D01*
X1589D02*
X1613D01*
X1672D02*
X1695D01*
X1702D02*
X1735D01*
X780Y1267D02*
X804D01*
X816D02*
X843D01*
X905D02*
X934D01*
X1064D02*
X1087D01*
X1099D02*
X1127D01*
X1301D02*
X1329D01*
X1483D02*
X1487D01*
X1507D02*
X1534D01*
X1566D02*
X1569D01*
X1589D02*
X1613D01*
X1672D02*
X1695D01*
X1707D02*
X1735D01*
X780Y1268D02*
X804D01*
X821D02*
X843D01*
X905D02*
X934D01*
X1064D02*
X1087D01*
X1105D02*
X1127D01*
X1300D02*
X1329D01*
X1483D02*
X1487D01*
X1507D02*
X1533D01*
X1566D02*
X1569D01*
X1589D02*
X1613D01*
X1672D02*
X1695D01*
X1713D02*
X1735D01*
X780Y1269D02*
X804D01*
X822D02*
X843D01*
X905D02*
X934D01*
X1020D02*
X1024D01*
X1064D02*
X1087D01*
X1106D02*
X1127D01*
X1300D02*
X1328D01*
X1483D02*
X1487D01*
X1506D02*
X1533D01*
X1567D02*
X1570D01*
X1589D02*
X1613D01*
X1672D02*
X1695D01*
X1714D02*
X1735D01*
X780Y1270D02*
X804D01*
X823D02*
X843D01*
X905D02*
X934D01*
X1020D02*
X1024D01*
X1064D02*
X1087D01*
X1107D02*
X1127D01*
X1299D02*
X1327D01*
X1483D02*
X1487D01*
X1506D02*
X1532D01*
X1567D02*
X1570D01*
X1589D02*
X1613D01*
X1672D02*
X1695D01*
X1715D02*
X1735D01*
X780Y1271D02*
X804D01*
X824D02*
X843D01*
X905D02*
X934D01*
X1020D02*
X1024D01*
X1064D02*
X1087D01*
X1108D02*
X1127D01*
X1298D02*
X1326D01*
X1483D02*
X1487D01*
X1505D02*
X1532D01*
X1567D02*
X1571D01*
X1589D02*
X1613D01*
X1672D02*
X1695D01*
X1716D02*
X1735D01*
X780Y1272D02*
X804D01*
X825D02*
X843D01*
X906D02*
X934D01*
X1019D02*
X1024D01*
X1064D02*
X1087D01*
X1109D02*
X1127D01*
X1297D02*
X1325D01*
X1483D02*
X1487D01*
X1505D02*
X1532D01*
X1568D02*
X1571D01*
X1589D02*
X1613D01*
X1672D02*
X1695D01*
X1717D02*
X1735D01*
X780Y1272D02*
X804D01*
X826D02*
X843D01*
X906D02*
X934D01*
X1019D02*
X1024D01*
X1064D02*
X1087D01*
X1110D02*
X1127D01*
X1296D02*
X1324D01*
X1483D02*
X1487D01*
X1504D02*
X1531D01*
X1568D02*
X1571D01*
X1589D02*
X1613D01*
X1672D02*
X1695D01*
X1718D02*
X1735D01*
X780Y1273D02*
X804D01*
X827D02*
X843D01*
X906D02*
X934D01*
X1019D02*
X1024D01*
X1064D02*
X1087D01*
X1110D02*
X1127D01*
X1295D02*
X1324D01*
X1483D02*
X1487D01*
X1504D02*
X1531D01*
X1569D02*
X1572D01*
X1589D02*
X1613D01*
X1672D02*
X1695D01*
X1719D02*
X1735D01*
X780Y1274D02*
X804D01*
X828D02*
X843D01*
X906D02*
X934D01*
X1019D02*
X1024D01*
X1064D02*
X1087D01*
X1111D02*
X1127D01*
X1295D02*
X1324D01*
X1483D02*
X1487D01*
X1503D02*
X1530D01*
X1569D02*
X1572D01*
X1589D02*
X1613D01*
X1672D02*
X1695D01*
X1720D02*
X1735D01*
X780Y1275D02*
X804D01*
X829D02*
X843D01*
X906D02*
X934D01*
X1019D02*
X1024D01*
X1064D02*
X1087D01*
X1112D02*
X1127D01*
X1294D02*
X1325D01*
X1483D02*
X1487D01*
X1503D02*
X1530D01*
X1570D02*
X1573D01*
X1589D02*
X1613D01*
X1672D02*
X1695D01*
X1721D02*
X1735D01*
X780Y1276D02*
X804D01*
X830D02*
X843D01*
X907D02*
X934D01*
X1019D02*
X1024D01*
X1064D02*
X1087D01*
X1113D02*
X1127D01*
X1293D02*
X1321D01*
X1322D02*
X1326D01*
X1483D02*
X1487D01*
X1503D02*
X1529D01*
X1570D02*
X1573D01*
X1589D02*
X1613D01*
X1672D02*
X1695D01*
X1722D02*
X1735D01*
X780Y1277D02*
X804D01*
X831D02*
X843D01*
X907D02*
X934D01*
X1018D02*
X1024D01*
X1064D02*
X1087D01*
X1114D02*
X1127D01*
X1292D02*
X1320D01*
X1323D02*
X1327D01*
X1483D02*
X1487D01*
X1502D02*
X1529D01*
X1571D02*
X1574D01*
X1589D02*
X1613D01*
X1672D02*
X1695D01*
X1722D02*
X1735D01*
X780Y1278D02*
X804D01*
X831D02*
X843D01*
X907D02*
X934D01*
X1018D02*
X1024D01*
X1064D02*
X1087D01*
X1115D02*
X1127D01*
X1291D02*
X1319D01*
X1324D02*
X1328D01*
X1483D02*
X1487D01*
X1502D02*
X1528D01*
X1571D02*
X1574D01*
X1589D02*
X1613D01*
X1672D02*
X1695D01*
X1723D02*
X1735D01*
X780Y1279D02*
X804D01*
X832D02*
X843D01*
X907D02*
X934D01*
X1018D02*
X1024D01*
X1064D02*
X1087D01*
X1115D02*
X1127D01*
X1290D02*
X1319D01*
X1325D02*
X1329D01*
X1483D02*
X1487D01*
X1501D02*
X1528D01*
X1572D02*
X1575D01*
X1589D02*
X1613D01*
X1672D02*
X1695D01*
X1724D02*
X1735D01*
X780Y1280D02*
X804D01*
X832D02*
X843D01*
X876D02*
X878D01*
X907D02*
X934D01*
X1017D02*
X1024D01*
X1064D02*
X1087D01*
X1116D02*
X1127D01*
X1160D02*
X1162D01*
X1289D02*
X1318D01*
X1326D02*
X1330D01*
X1483D02*
X1487D01*
X1501D02*
X1527D01*
X1572D02*
X1575D01*
X1589D02*
X1613D01*
X1672D02*
X1695D01*
X1724D02*
X1735D01*
X1768D02*
X1770D01*
X780Y1281D02*
X804D01*
X833D02*
X843D01*
X876D02*
X878D01*
X907D02*
X934D01*
X1017D02*
X1024D01*
X1064D02*
X1087D01*
X1116D02*
X1127D01*
X1159D02*
X1162D01*
X1289D02*
X1317D01*
X1327D02*
X1331D01*
X1483D02*
X1487D01*
X1500D02*
X1527D01*
X1573D02*
X1576D01*
X1589D02*
X1613D01*
X1672D02*
X1695D01*
X1724D02*
X1735D01*
X1768D02*
X1770D01*
X780Y1282D02*
X804D01*
X833D02*
X843D01*
X876D02*
X878D01*
X908D02*
X934D01*
X1016D02*
X1024D01*
X1064D02*
X1087D01*
X1116D02*
X1127D01*
X1159D02*
X1162D01*
X1288D02*
X1316D01*
X1328D02*
X1332D01*
X1483D02*
X1487D01*
X1500D02*
X1527D01*
X1573D02*
X1576D01*
X1589D02*
X1613D01*
X1672D02*
X1695D01*
X1725D02*
X1735D01*
X1767D02*
X1770D01*
X780Y1283D02*
X804D01*
X833D02*
X843D01*
X875D02*
X878D01*
X908D02*
X934D01*
X1016D02*
X1024D01*
X1064D02*
X1087D01*
X1117D02*
X1127D01*
X1159D02*
X1162D01*
X1287D02*
X1315D01*
X1329D02*
X1333D01*
X1483D02*
X1487D01*
X1499D02*
X1526D01*
X1573D02*
X1576D01*
X1589D02*
X1613D01*
X1672D02*
X1695D01*
X1725D02*
X1735D01*
X1767D02*
X1770D01*
X780Y1284D02*
X804D01*
X834D02*
X843D01*
X875D02*
X878D01*
X908D02*
X934D01*
X1015D02*
X1024D01*
X1064D02*
X1087D01*
X1117D02*
X1127D01*
X1158D02*
X1162D01*
X1286D02*
X1315D01*
X1330D02*
X1334D01*
X1483D02*
X1487D01*
X1499D02*
X1526D01*
X1574D02*
X1577D01*
X1589D02*
X1613D01*
X1672D02*
X1695D01*
X1726D02*
X1735D01*
X1767D02*
X1770D01*
X780Y1285D02*
X804D01*
X834D02*
X843D01*
X875D02*
X878D01*
X909D02*
X934D01*
X1015D02*
X1024D01*
X1064D02*
X1087D01*
X1118D02*
X1127D01*
X1158D02*
X1162D01*
X1285D02*
X1314D01*
X1331D02*
X1335D01*
X1483D02*
X1487D01*
X1499D02*
X1525D01*
X1574D02*
X1577D01*
X1589D02*
X1613D01*
X1672D02*
X1695D01*
X1726D02*
X1735D01*
X1766D02*
X1770D01*
X780Y1286D02*
X804D01*
X835D02*
X843D01*
X874D02*
X878D01*
X909D02*
X935D01*
X1014D02*
X1024D01*
X1064D02*
X1087D01*
X1118D02*
X1127D01*
X1158D02*
X1162D01*
X1284D02*
X1313D01*
X1332D02*
X1336D01*
X1483D02*
X1487D01*
X1498D02*
X1525D01*
X1575D02*
X1578D01*
X1589D02*
X1613D01*
X1672D02*
X1695D01*
X1726D02*
X1735D01*
X1766D02*
X1770D01*
X780Y1286D02*
X804D01*
X835D02*
X843D01*
X874D02*
X878D01*
X910D02*
X935D01*
X1014D02*
X1023D01*
X1064D02*
X1087D01*
X1119D02*
X1127D01*
X1157D02*
X1162D01*
X1283D02*
X1312D01*
X1333D02*
X1337D01*
X1483D02*
X1487D01*
X1498D02*
X1524D01*
X1575D02*
X1578D01*
X1589D02*
X1613D01*
X1672D02*
X1695D01*
X1727D02*
X1735D01*
X1765D02*
X1770D01*
X780Y1287D02*
X804D01*
X835D02*
X843D01*
X873D02*
X878D01*
X910D02*
X935D01*
X1013D02*
X1023D01*
X1064D02*
X1087D01*
X1119D02*
X1127D01*
X1157D02*
X1162D01*
X1283D02*
X1311D01*
X1334D02*
X1338D01*
X1483D02*
X1487D01*
X1497D02*
X1524D01*
X1576D02*
X1579D01*
X1589D02*
X1613D01*
X1672D02*
X1695D01*
X1727D02*
X1735D01*
X1765D02*
X1770D01*
X780Y1288D02*
X804D01*
X836D02*
X843D01*
X873D02*
X878D01*
X911D02*
X936D01*
X1012D02*
X1023D01*
X1064D02*
X1087D01*
X1119D02*
X1127D01*
X1156D02*
X1162D01*
X1282D02*
X1311D01*
X1336D02*
X1340D01*
X1483D02*
X1487D01*
X1497D02*
X1523D01*
X1576D02*
X1579D01*
X1589D02*
X1613D01*
X1672D02*
X1695D01*
X1728D02*
X1735D01*
X1765D02*
X1770D01*
X780Y1289D02*
X804D01*
X836D02*
X843D01*
X873D02*
X878D01*
X911D02*
X936D01*
X1012D02*
X1023D01*
X1064D02*
X1087D01*
X1120D02*
X1127D01*
X1156D02*
X1162D01*
X1281D02*
X1310D01*
X1337D02*
X1341D01*
X1483D02*
X1487D01*
X1496D02*
X1523D01*
X1577D02*
X1580D01*
X1589D02*
X1613D01*
X1672D02*
X1695D01*
X1728D02*
X1735D01*
X1764D02*
X1770D01*
X780Y1290D02*
X804D01*
X837D02*
X843D01*
X872D02*
X878D01*
X912D02*
X936D01*
X1011D02*
X1023D01*
X1064D02*
X1087D01*
X1120D02*
X1127D01*
X1156D02*
X1162D01*
X1280D02*
X1309D01*
X1338D02*
X1342D01*
X1483D02*
X1487D01*
X1496D02*
X1522D01*
X1577D02*
X1580D01*
X1589D02*
X1613D01*
X1672D02*
X1695D01*
X1728D02*
X1735D01*
X1764D02*
X1770D01*
X780Y1291D02*
X804D01*
X837D02*
X843D01*
X871D02*
X878D01*
X912D02*
X936D01*
X1011D02*
X1023D01*
X1064D02*
X1087D01*
X1121D02*
X1127D01*
X1155D02*
X1162D01*
X1279D02*
X1308D01*
X1339D02*
X1343D01*
X1483D02*
X1487D01*
X1495D02*
X1522D01*
X1578D02*
X1580D01*
X1589D02*
X1613D01*
X1672D02*
X1695D01*
X1729D02*
X1735D01*
X1763D02*
X1770D01*
X780Y1292D02*
X804D01*
X837D02*
X843D01*
X871D02*
X878D01*
X913D02*
X937D01*
X1010D02*
X1023D01*
X1064D02*
X1087D01*
X1121D02*
X1127D01*
X1154D02*
X1162D01*
X1278D02*
X1307D01*
X1340D02*
X1344D01*
X1483D02*
X1487D01*
X1495D02*
X1521D01*
X1578D02*
X1581D01*
X1589D02*
X1613D01*
X1672D02*
X1695D01*
X1729D02*
X1735D01*
X1763D02*
X1770D01*
X780Y1293D02*
X804D01*
X838D02*
X843D01*
X870D02*
X878D01*
X913D02*
X937D01*
X1009D02*
X1023D01*
X1064D02*
X1087D01*
X1121D02*
X1127D01*
X1154D02*
X1162D01*
X1277D02*
X1307D01*
X1341D02*
X1345D01*
X1483D02*
X1487D01*
X1494D02*
X1521D01*
X1578D02*
X1581D01*
X1589D02*
X1613D01*
X1672D02*
X1695D01*
X1730D02*
X1735D01*
X1762D02*
X1770D01*
X780Y1294D02*
X804D01*
X838D02*
X843D01*
X870D02*
X878D01*
X914D02*
X937D01*
X1009D02*
X1023D01*
X1064D02*
X1087D01*
X1122D02*
X1127D01*
X1153D02*
X1162D01*
X1277D02*
X1306D01*
X1341D02*
X1346D01*
X1483D02*
X1487D01*
X1494D02*
X1521D01*
X1579D02*
X1582D01*
X1589D02*
X1613D01*
X1672D02*
X1695D01*
X1730D02*
X1735D01*
X1761D02*
X1770D01*
X780Y1295D02*
X804D01*
X839D02*
X843D01*
X869D02*
X878D01*
X914D02*
X937D01*
X1008D02*
X1023D01*
X1064D02*
X1087D01*
X1122D02*
X1127D01*
X1152D02*
X1162D01*
X1276D02*
X1305D01*
X1342D02*
X1347D01*
X1483D02*
X1487D01*
X1494D02*
X1520D01*
X1579D02*
X1582D01*
X1589D02*
X1613D01*
X1672D02*
X1695D01*
X1731D02*
X1735D01*
X1761D02*
X1770D01*
X780Y1296D02*
X804D01*
X839D02*
X843D01*
X868D02*
X878D01*
X915D02*
X938D01*
X1007D02*
X1023D01*
X1064D02*
X1087D01*
X1123D02*
X1127D01*
X1152D02*
X1162D01*
X1275D02*
X1304D01*
X1343D02*
X1348D01*
X1483D02*
X1487D01*
X1493D02*
X1520D01*
X1580D02*
X1583D01*
X1589D02*
X1613D01*
X1672D02*
X1695D01*
X1731D02*
X1735D01*
X1760D02*
X1770D01*
X780Y1297D02*
X804D01*
X839D02*
X843D01*
X868D02*
X878D01*
X915D02*
X938D01*
X1007D02*
X1023D01*
X1064D02*
X1087D01*
X1123D02*
X1127D01*
X1151D02*
X1162D01*
X1274D02*
X1304D01*
X1343D02*
X1348D01*
X1483D02*
X1487D01*
X1493D02*
X1519D01*
X1580D02*
X1583D01*
X1589D02*
X1613D01*
X1672D02*
X1695D01*
X1731D02*
X1735D01*
X1760D02*
X1770D01*
X780Y1298D02*
X804D01*
X839D02*
X843D01*
X867D02*
X878D01*
X916D02*
X938D01*
X1006D02*
X1023D01*
X1063D02*
X1087D01*
X1123D02*
X1127D01*
X1151D02*
X1162D01*
X1273D02*
X1303D01*
X1344D02*
X1349D01*
X1483D02*
X1487D01*
X1492D02*
X1519D01*
X1581D02*
X1584D01*
X1589D02*
X1613D01*
X1672D02*
X1695D01*
X1731D02*
X1735D01*
X1759D02*
X1770D01*
X780Y1299D02*
X804D01*
X839D02*
X843D01*
X867D02*
X878D01*
X916D02*
X939D01*
X1006D02*
X1023D01*
X1063D02*
X1087D01*
X1123D02*
X1127D01*
X1150D02*
X1162D01*
X1272D02*
X1302D01*
X1345D02*
X1350D01*
X1483D02*
X1487D01*
X1492D02*
X1518D01*
X1581D02*
X1584D01*
X1589D02*
X1613D01*
X1672D02*
X1695D01*
X1731D02*
X1735D01*
X1759D02*
X1770D01*
X780Y1300D02*
X804D01*
X839D02*
X843D01*
X867D02*
X878D01*
X917D02*
X939D01*
X1005D02*
X1023D01*
X1063D02*
X1087D01*
X1123D02*
X1127D01*
X1150D02*
X1162D01*
X1272D02*
X1301D01*
X1345D02*
X1351D01*
X1482D02*
X1487D01*
X1491D02*
X1518D01*
X1582D02*
X1585D01*
X1589D02*
X1613D01*
X1671D02*
X1695D01*
X1731D02*
X1735D01*
X1758D02*
X1770D01*
X779Y1301D02*
X804D01*
X839D02*
X843D01*
X866D02*
X878D01*
X917D02*
X939D01*
X1004D02*
X1023D01*
X1063D02*
X1087D01*
X1123D02*
X1127D01*
X1150D02*
X1162D01*
X1271D02*
X1300D01*
X1345D02*
X1352D01*
X1482D02*
X1487D01*
X1491D02*
X1517D01*
X1582D02*
X1585D01*
X1589D02*
X1613D01*
X1671D02*
X1695D01*
X1731D02*
X1735D01*
X1758D02*
X1770D01*
X779Y1301D02*
X804D01*
X866D02*
X878D01*
X918D02*
X940D01*
X1004D02*
X1023D01*
X1063D02*
X1087D01*
X1149D02*
X1162D01*
X1270D02*
X1300D01*
X1346D02*
X1353D01*
X1482D02*
X1487D01*
X1490D02*
X1517D01*
X1583D02*
X1585D01*
X1589D02*
X1614D01*
X1671D02*
X1695D01*
X1757D02*
X1770D01*
X779Y1302D02*
X804D01*
X865D02*
X878D01*
X919D02*
X940D01*
X1003D02*
X1023D01*
X1063D02*
X1087D01*
X1149D02*
X1162D01*
X1269D02*
X1299D01*
X1346D02*
X1354D01*
X1482D02*
X1487D01*
X1490D02*
X1516D01*
X1583D02*
X1586D01*
X1589D02*
X1614D01*
X1671D02*
X1695D01*
X1757D02*
X1770D01*
X779Y1303D02*
X804D01*
X865D02*
X878D01*
X920D02*
X940D01*
X1002D02*
X1023D01*
X1062D02*
X1087D01*
X1148D02*
X1162D01*
X1268D02*
X1298D01*
X1346D02*
X1355D01*
X1482D02*
X1487D01*
X1490D02*
X1516D01*
X1583D02*
X1586D01*
X1589D02*
X1614D01*
X1671D02*
X1695D01*
X1756D02*
X1770D01*
X779Y1304D02*
X804D01*
X864D02*
X878D01*
X921D02*
X941D01*
X1001D02*
X1023D01*
X1062D02*
X1087D01*
X1148D02*
X1162D01*
X1267D02*
X1298D01*
X1347D02*
X1356D01*
X1481D02*
X1487D01*
X1489D02*
X1516D01*
X1584D02*
X1587D01*
X1589D02*
X1614D01*
X1670D02*
X1695D01*
X1756D02*
X1770D01*
X778Y1305D02*
X804D01*
X864D02*
X878D01*
X922D02*
X941D01*
X1000D02*
X1023D01*
X1062D02*
X1087D01*
X1147D02*
X1162D01*
X1266D02*
X1297D01*
X1347D02*
X1357D01*
X1481D02*
X1487D01*
X1489D02*
X1515D01*
X1584D02*
X1587D01*
X1589D02*
X1614D01*
X1670D02*
X1695D01*
X1755D02*
X1770D01*
X778Y1306D02*
X804D01*
X863D02*
X878D01*
X923D02*
X941D01*
X1000D02*
X1023D01*
X1062D02*
X1087D01*
X1147D02*
X1162D01*
X1265D02*
X1296D01*
X1347D02*
X1359D01*
X1481D02*
X1487D01*
X1488D02*
X1515D01*
X1585D02*
X1588D01*
X1589D02*
X1615D01*
X1670D02*
X1695D01*
X1755D02*
X1770D01*
X778Y1307D02*
X804D01*
X863D02*
X878D01*
X925D02*
X941D01*
X999D02*
X1023D01*
X1062D02*
X1087D01*
X1146D02*
X1162D01*
X1264D02*
X1296D01*
X1346D02*
X1360D01*
X1481D02*
X1487D01*
X1488D02*
X1514D01*
X1585D02*
X1588D01*
X1589D02*
X1615D01*
X1670D02*
X1695D01*
X1754D02*
X1770D01*
X778Y1308D02*
X804D01*
X861D02*
X878D01*
X926D02*
X942D01*
X998D02*
X1023D01*
X1061D02*
X1087D01*
X1145D02*
X1162D01*
X1263D02*
X1295D01*
X1346D02*
X1362D01*
X1480D02*
X1487D01*
X1487D02*
X1514D01*
X1586D02*
X1589D01*
X1589D02*
X1615D01*
X1669D02*
X1695D01*
X1753D02*
X1770D01*
X777Y1309D02*
X804D01*
X860D02*
X878D01*
X927D02*
X943D01*
X997D02*
X1023D01*
X1060D02*
X1087D01*
X1143D02*
X1162D01*
X1262D02*
X1295D01*
X1346D02*
X1363D01*
X1480D02*
X1487D01*
X1487D02*
X1513D01*
X1586D02*
X1589D01*
X1589D02*
X1616D01*
X1669D02*
X1695D01*
X1752D02*
X1770D01*
X776Y1310D02*
X804D01*
X859D02*
X878D01*
X928D02*
X944D01*
X996D02*
X1003D01*
X1006D02*
X1023D01*
X1060D02*
X1087D01*
X1142D02*
X1162D01*
X1260D02*
X1294D01*
X1345D02*
X1365D01*
X1479D02*
X1513D01*
X1587D02*
X1617D01*
X1668D02*
X1695D01*
X1750D02*
X1770D01*
X776Y1311D02*
X804D01*
X857D02*
X878D01*
X929D02*
X944D01*
X995D02*
X1001D01*
X1007D02*
X1023D01*
X1059D02*
X1087D01*
X1141D02*
X1162D01*
X1259D02*
X1294D01*
X1345D02*
X1367D01*
X1478D02*
X1512D01*
X1587D02*
X1617D01*
X1667D02*
X1695D01*
X1749D02*
X1770D01*
X775Y1312D02*
X804D01*
X856D02*
X878D01*
X930D02*
X945D01*
X993D02*
X999D01*
X1008D02*
X1023D01*
X1058D02*
X1087D01*
X1139D02*
X1162D01*
X1258D02*
X1294D01*
X1344D02*
X1368D01*
X1478D02*
X1512D01*
X1588D02*
X1618D01*
X1667D02*
X1695D01*
X1748D02*
X1770D01*
X774Y1313D02*
X804D01*
X854D02*
X878D01*
X931D02*
X946D01*
X992D02*
X997D01*
X1010D02*
X1023D01*
X1058D02*
X1087D01*
X1138D02*
X1162D01*
X1257D02*
X1295D01*
X1343D02*
X1370D01*
X1477D02*
X1511D01*
X1588D02*
X1618D01*
X1666D02*
X1695D01*
X1746D02*
X1770D01*
X773Y1314D02*
X804D01*
X853D02*
X878D01*
X932D02*
X946D01*
X990D02*
X996D01*
X1011D02*
X1023D01*
X1057D02*
X1087D01*
X1136D02*
X1162D01*
X1256D02*
X1296D01*
X1342D02*
X1373D01*
X1476D02*
X1511D01*
X1589D02*
X1620D01*
X1665D02*
X1695D01*
X1745D02*
X1770D01*
X772Y1315D02*
X804D01*
X852D02*
X878D01*
X933D02*
X947D01*
X989D02*
X994D01*
X1012D02*
X1022D01*
X1055D02*
X1087D01*
X1135D02*
X1162D01*
X1255D02*
X1296D01*
X1342D02*
X1376D01*
X1475D02*
X1511D01*
X1589D02*
X1621D01*
X1664D02*
X1695D01*
X1743D02*
X1770D01*
X770Y1316D02*
X804D01*
X848D02*
X878D01*
X935D02*
X948D01*
X987D02*
X992D01*
X1012D02*
X1022D01*
X1054D02*
X1087D01*
X1131D02*
X1162D01*
X1252D02*
X1297D01*
X1340D02*
X1379D01*
X1473D02*
X1510D01*
X1589D02*
X1622D01*
X1662D02*
X1695D01*
X1740D02*
X1770D01*
X769Y1316D02*
X804D01*
X842D02*
X878D01*
X936D02*
X950D01*
X986D02*
X991D01*
X1013D02*
X1022D01*
X1053D02*
X1087D01*
X1126D02*
X1162D01*
X1249D02*
X1297D01*
X1337D02*
X1382D01*
X1472D02*
X1510D01*
X1590D02*
X1624D01*
X1661D02*
X1695D01*
X1734D02*
X1770D01*
X766Y1317D02*
X804D01*
X837D02*
X878D01*
X938D02*
X952D01*
X983D02*
X989D01*
X1014D02*
X1022D01*
X1050D02*
X1087D01*
X1120D02*
X1162D01*
X1245D02*
X1300D01*
X1334D02*
X1385D01*
X1469D02*
X1509D01*
X1590D02*
X1627D01*
X1658D02*
X1695D01*
X1728D02*
X1770D01*
X762Y1318D02*
X804D01*
X831D02*
X878D01*
X940D02*
X954D01*
X978D02*
X988D01*
X1015D02*
X1022D01*
X1045D02*
X1087D01*
X1115D02*
X1162D01*
X1241D02*
X1305D01*
X1330D02*
X1388D01*
X1464D02*
X1509D01*
X1591D02*
X1631D01*
X1653D02*
X1695D01*
X1723D02*
X1770D01*
X756Y1319D02*
X878D01*
X942D02*
X957D01*
X974D02*
X986D01*
X1015D02*
X1022D01*
X1040D02*
X1162D01*
X1235D02*
X1310D01*
X1327D02*
X1390D01*
X1457D02*
X1508D01*
X1591D02*
X1638D01*
X1648D02*
X1770D01*
X756Y1320D02*
X878D01*
X944D02*
X963D01*
X970D02*
X984D01*
X1016D02*
X1022D01*
X1040D02*
X1162D01*
X1235D02*
X1310D01*
X1327D02*
X1390D01*
X1457D02*
X1508D01*
X1592D02*
X1638D01*
X1648D02*
X1770D01*
X756Y1321D02*
X878D01*
X946D02*
X981D01*
X1017D02*
X1022D01*
X1040D02*
X1162D01*
X1235D02*
X1310D01*
X1327D02*
X1390D01*
X1457D02*
X1507D01*
X1592D02*
X1638D01*
X1648D02*
X1770D01*
X756Y1322D02*
X878D01*
X948D02*
X979D01*
X1018D02*
X1022D01*
X1040D02*
X1162D01*
X1235D02*
X1310D01*
X1327D02*
X1390D01*
X1457D02*
X1507D01*
X1593D02*
X1638D01*
X1648D02*
X1770D01*
X950Y1323D02*
X976D01*
X958Y1324D02*
X971D01*
X798Y448D02*
X837D01*
X817Y428D02*
Y468D01*
X936Y1768D02*
X943Y1749D01*
X951Y1768*
X976Y1752D02*
X975Y1750D01*
X972Y1749*
X967*
X964Y1750*
X962Y1752*
X961Y1755*
Y1761*
X962Y1764*
X964Y1766*
X967Y1768*
X972*
X975Y1766*
X976Y1764*
X1001Y1752D02*
X1000Y1750D01*
X997Y1749*
X992*
X989Y1750*
X987Y1752*
X986Y1755*
Y1761*
X987Y1764*
X989Y1766*
X992Y1768*
X997*
X1000Y1766*
X1001Y1764*
X1034Y1749D02*
Y1768D01*
X1043*
X1046Y1766*
X1048Y1764*
X1050Y1761*
Y1755*
X1048Y1752*
X1046Y1750*
X1043Y1749*
X1034*
X1064D02*
X1070D01*
X1067D02*
Y1768D01*
X1064D02*
X1070D01*
X1084Y1755D02*
Y1761D01*
X1086Y1764*
X1087Y1766*
X1090Y1768*
X1093*
X1096Y1766*
X1098Y1764*
X1100Y1761*
Y1755*
X1098Y1752*
X1096Y1750*
X1093Y1749*
X1090*
X1087Y1750*
X1086Y1752*
X1084Y1755*
X1152Y1752D02*
X1150Y1750D01*
X1147Y1749*
X1143*
X1139Y1750*
X1138Y1752*
X1136Y1755*
Y1761*
X1138Y1764*
X1139Y1766*
X1143Y1768*
X1147*
X1150Y1766*
X1152Y1764*
X1161Y1768D02*
Y1749D01*
X1177*
X1186D02*
Y1768D01*
Y1758D02*
X1191D01*
X1202Y1768*
X1191Y1758D02*
X1202Y1749D01*
X1335Y136D02*
X1336Y140D01*
X1315Y138*
X1292Y134*
X1260Y131*
X1250Y129*
X1241Y127*
X1234Y125*
X1230Y124*
X1225Y118*
X1235Y115*
X1246Y113*
X1267Y111*
X1278*
X1290Y113*
X1299*
X1312Y117*
X1320Y120*
X1328Y124*
X1331Y127*
X1335Y136*
X1347Y147D02*
X1365Y148D01*
X1356Y141*
X1345Y140*
X1340Y127*
X1333Y115*
X1324Y106*
X1315Y99*
X1294Y90*
X1267Y86*
X1251*
X1239Y90*
X1230Y94*
X1221Y101*
X1216Y108*
X1214Y115*
X1216Y122*
X1218Y127*
X1223Y132*
X1230Y136*
X1248Y143*
X1255*
X1262*
X1283Y145*
X1301*
X1317*
X1338Y147*
X1347Y173*
X1352Y198*
X1358Y202*
X1361Y205*
X1365Y207*
X1366Y205*
X1365Y194*
X1361Y180*
X1354Y164*
X1347Y147*
X1331Y207D02*
X1338Y205D01*
X1343Y202*
X1345Y189*
X1338Y179*
X1328Y187*
X1317Y191*
X1326Y200*
X1331Y207*
X1499Y203D02*
X1483Y180D01*
X1467Y177*
X1453Y159*
X1434Y134*
X1427Y124*
X1418Y113*
X1411Y104*
X1404Y97*
X1398Y94*
X1391Y90*
X1384Y92*
X1381Y95*
X1375Y99*
X1381Y109*
X1384Y117*
X1393Y111*
X1404Y108*
X1414Y124*
X1427Y140*
X1437Y157*
X1450Y177*
X1425Y180*
X1402Y182*
X1386Y180*
X1366Y177*
X1377Y193*
X1384Y205*
X1395Y207*
X1404*
X1434Y205*
X1448Y202*
X1457*
X1467*
X1482*
X1499Y203*
X1537Y166D02*
X1554Y157D01*
X1556Y163*
X1558Y170*
X1556Y177*
X1551Y182*
X1542Y187*
X1529Y189*
X1526Y184*
X1524Y179*
X1526Y173*
X1529Y170*
X1537Y166*
X1606Y108D02*
X1581Y86D01*
X1586Y101*
X1588Y111*
X1586Y117*
X1583Y120*
X1577Y124*
X1568Y129*
X1567Y127*
X1563Y125*
X1558Y122*
X1556Y118*
X1549Y111*
X1544Y106*
X1538Y102*
X1529Y97*
X1517Y95*
X1506Y97*
X1498Y102*
X1491Y109*
X1489Y120*
X1491Y127*
X1496Y136*
X1519Y145*
X1512Y134*
X1508Y124*
X1512Y115*
X1517Y111*
X1524*
X1533Y113*
X1544Y117*
X1554Y124*
X1565Y131*
X1549Y140*
X1526Y148*
X1517Y152*
X1512Y156*
X1510Y161*
X1508Y166*
X1512Y179*
X1521Y189*
X1535Y196*
X1551Y198*
X1560Y196*
X1567Y193*
X1572Y186*
X1574Y179*
Y173*
X1570Y168*
X1565Y161*
X1556Y156*
X1584Y141*
X1600Y152*
X1618Y159*
X1632Y164*
X1645Y166*
X1659Y163*
X1662Y159*
X1664Y154*
X1662Y147*
X1655Y141*
X1641Y143*
X1650Y157*
X1645*
X1627Y156*
X1607Y150*
X1599Y145*
X1586Y140*
X1597Y134*
X1602Y129*
X1606Y122*
X1607Y117*
X1606Y108*
X1698Y175D02*
X1687Y180D01*
X1710Y191*
X1730Y200*
X1749Y205*
X1767Y207*
X1785Y205*
X1797Y196*
X1804Y187*
X1806Y175*
X1804Y161*
X1799Y147*
X1790Y132*
X1779Y122*
X1786Y117*
X1793Y108*
X1785Y90*
X1774Y97*
X1762Y106*
X1746Y97*
X1730Y92*
X1716Y90*
X1705Y88*
X1696Y90*
X1687Y92*
X1678Y97*
X1673Y104*
X1669Y113*
X1668Y120*
X1669Y131*
X1673Y140*
X1678Y148*
X1685Y157*
X1707Y173*
X1733Y182*
X1731Y175*
X1716Y168*
X1703Y159*
X1692Y150*
X1685Y140*
X1694Y125*
X1703Y115*
X1716Y109*
X1730Y108*
X1739*
X1749Y111*
X1733Y117*
X1719Y120*
X1731Y131*
X1742Y140*
X1758Y136*
X1772Y127*
X1776Y140*
X1778Y152*
X1776Y170*
X1769Y182*
X1758Y189*
X1746Y191*
X1735Y189*
X1723Y187*
X1712Y182*
X1698Y175*
X1910Y205D02*
X1914Y191D01*
X1912Y177*
X1907Y159*
X1898Y179*
X1884Y182*
X1871Y184*
X1854Y180*
X1840Y171*
X1832Y159*
X1829Y145*
X1831Y136*
X1834Y129*
X1841Y124*
X1852Y118*
X1868Y113*
X1886Y109*
X1900*
X1916Y108*
X1930*
X1919Y94*
X1894Y90*
X1871Y88*
X1857*
X1847Y92*
X1836Y95*
X1829Y99*
X1818Y111*
X1815Y129*
X1818Y147*
X1825Y166*
X1840Y184*
X1857Y196*
X1877Y203*
X1896Y207*
X1910Y205*
X2003Y184D02*
X1999Y173D01*
X1997Y163*
X1999Y152*
X2003Y143*
X2011Y136*
X2022Y132*
X2029Y145*
X2031Y157*
Y166*
X2027Y173*
X2022Y179*
X2018Y180*
X2011Y182*
X2003Y184*
X2027Y117D02*
X2020D01*
X2017*
X1997Y118*
X1983Y127*
X1976Y141*
X1972Y159*
X1976Y177*
X1985Y191*
X1997Y200*
X2013Y203*
X2024Y202*
X2034Y198*
X2041Y193*
X2047Y186*
X2050Y177*
X2052Y166*
X2050Y154*
X2047Y141*
X2038Y129*
X2027Y117*
X2065Y164D02*
X2072Y198D01*
X2086*
X2102*
X2112*
X2121Y200*
X2114Y187*
X2109Y182*
X2107Y179*
X2098Y175*
X2086*
X2080*
X2077*
X2075*
X2072Y166*
X2080*
X2093*
X2102Y164*
X2107Y157*
X2109Y148*
X2105Y132*
X2098Y120*
X2084Y109*
X2061Y104*
X2072Y111*
X2079Y118*
X2082Y125*
X2084Y134*
X2082Y141*
X2075Y145*
X2068Y147*
X2061*
X2063Y156*
X2065Y164*
X2134Y120D02*
X2121D01*
X2142Y205*
X2155*
X2134Y120*
X2189Y184D02*
X2185Y173D01*
X2183Y163*
X2185Y152*
X2189Y143*
X2197Y136*
X2208Y132*
X2215Y145*
X2217Y157*
Y166*
X2213Y173*
X2208Y179*
X2204Y180*
X2197Y182*
X2189Y184*
X2213Y117D02*
X2206D01*
X2203*
X2183Y118*
X2169Y127*
X2162Y141*
X2158Y159*
X2162Y177*
X2171Y191*
X2183Y200*
X2199Y203*
X2210Y202*
X2220Y198*
X2228Y193*
X2233Y186*
X2236Y177*
X2238Y166*
X2236Y154*
X2233Y141*
X2224Y129*
X2213Y117*
X2245Y173D02*
X2261Y196D01*
X2268*
X2279Y194*
X2288Y189*
X2293Y180*
X2295Y171*
X2293Y163*
X2290Y154*
X2282Y145*
X2272Y136*
X2284Y132*
X2300*
X2298Y127*
X2295Y120*
X2291Y117*
X2282Y113*
X2277*
X2270Y115*
X2256Y118*
X2243*
X2249Y125*
X2252Y129*
X2261Y138*
X2266Y145*
X2268Y152*
X2270Y159*
X2268Y166*
X2266Y171*
X2261Y173*
X2254Y175*
X2245Y173*
X2314Y120D02*
X2302D01*
X2323Y205*
X2336*
X2314Y120*
X2339Y173D02*
X2355Y196D01*
X2362*
X2373Y194*
X2382Y189*
X2387Y180*
X2389Y171*
X2387Y163*
X2383Y154*
X2376Y145*
X2366Y136*
X2378Y132*
X2394*
X2392Y127*
X2389Y120*
X2385Y117*
X2376Y113*
X2371*
X2364Y115*
X2350Y118*
X2337*
X2343Y125*
X2346Y129*
X2355Y138*
X2360Y145*
X2362Y152*
X2364Y159*
X2362Y166*
X2360Y171*
X2355Y173*
X2348Y175*
X2339Y173*
X2429Y184D02*
X2426Y173D01*
X2424Y163*
X2426Y152*
X2429Y143*
X2438Y136*
X2449Y132*
X2456Y145*
X2458Y157*
Y166*
X2454Y173*
X2449Y179*
X2445Y180*
X2438Y182*
X2429Y184*
X2454Y117D02*
X2447D01*
X2444*
X2424Y118*
X2410Y127*
X2403Y141*
X2399Y159*
X2403Y177*
X2412Y191*
X2424Y200*
X2440Y203*
X2451Y202*
X2461Y198*
X2468Y193*
X2474Y186*
X2477Y177*
X2479Y166*
X2477Y154*
X2474Y141*
X2465Y129*
X2454Y117*
X2486Y173D02*
X2502Y196D01*
X2509*
X2520Y194*
X2529Y189*
X2534Y180*
X2536Y171*
X2534Y163*
X2530Y154*
X2523Y145*
X2513Y136*
X2525Y132*
X2541*
X2539Y127*
X2536Y120*
X2532Y117*
X2523Y113*
X2518*
X2511Y115*
X2497Y118*
X2484*
X2490Y125*
X2493Y129*
X2502Y138*
X2507Y145*
X2509Y152*
X2511Y159*
X2509Y166*
X2507Y171*
X2502Y173*
X2495Y175*
X2486Y173*
X2577Y184D02*
X2573Y173D01*
X2571Y163*
X2573Y152*
X2577Y143*
X2585Y136*
X2596Y132*
X2603Y145*
X2605Y157*
Y166*
X2601Y173*
X2596Y179*
X2592Y180*
X2585Y182*
X2577Y184*
X2601Y117D02*
X2594D01*
X2591*
X2571Y118*
X2557Y127*
X2550Y141*
X2546Y159*
X2550Y177*
X2559Y191*
X2571Y200*
X2587Y203*
X2598Y202*
X2608Y198*
X2616Y193*
X2621Y186*
X2624Y177*
X2626Y166*
X2624Y154*
X2621Y141*
X2612Y129*
X2601Y117*
X1249Y87D02*
X1273D01*
X1581D02*
X1582D01*
X1246Y88D02*
X1280D01*
X1581D02*
X1583D01*
X1242Y89D02*
X1287D01*
X1582D02*
X1584D01*
X1701D02*
X1710D01*
X1855D02*
X1882D01*
X1239Y90D02*
X1294D01*
X1582D02*
X1585D01*
X1696D02*
X1715D01*
X1852D02*
X1894D01*
X1237Y91D02*
X1296D01*
X1388D02*
X1393D01*
X1583D02*
X1586D01*
X1691D02*
X1723D01*
X1783D02*
X1785D01*
X1849D02*
X1901D01*
X1234Y92D02*
X1298D01*
X1384D02*
X1395D01*
X1583D02*
X1587D01*
X1687D02*
X1730D01*
X1782D02*
X1786D01*
X1846D02*
X1907D01*
X1232Y93D02*
X1301D01*
X1383D02*
X1397D01*
X1583D02*
X1588D01*
X1685D02*
X1733D01*
X1780D02*
X1786D01*
X1844D02*
X1914D01*
X1230Y94D02*
X1303D01*
X1382D02*
X1399D01*
X1584D02*
X1589D01*
X1684D02*
X1736D01*
X1779D02*
X1786D01*
X1841D02*
X1919D01*
X1229Y95D02*
X1305D01*
X1381D02*
X1400D01*
X1584D02*
X1590D01*
X1682D02*
X1738D01*
X1778D02*
X1787D01*
X1838D02*
X1920D01*
X1228Y96D02*
X1307D01*
X1380D02*
X1401D01*
X1515D02*
X1519D01*
X1584D02*
X1592D01*
X1681D02*
X1741D01*
X1776D02*
X1787D01*
X1835D02*
X1921D01*
X1226Y96D02*
X1310D01*
X1379D02*
X1403D01*
X1510D02*
X1526D01*
X1585D02*
X1593D01*
X1679D02*
X1744D01*
X1775D02*
X1788D01*
X1834D02*
X1921D01*
X1225Y97D02*
X1312D01*
X1377D02*
X1404D01*
X1506D02*
X1530D01*
X1585D02*
X1594D01*
X1678D02*
X1746D01*
X1773D02*
X1788D01*
X1832D02*
X1922D01*
X1224Y98D02*
X1314D01*
X1376D02*
X1405D01*
X1504D02*
X1532D01*
X1585D02*
X1595D01*
X1677D02*
X1748D01*
X1772D02*
X1789D01*
X1830D02*
X1923D01*
X1223Y99D02*
X1316D01*
X1376D02*
X1406D01*
X1503D02*
X1533D01*
X1586D02*
X1596D01*
X1677D02*
X1750D01*
X1771D02*
X1789D01*
X1828D02*
X1924D01*
X1222Y100D02*
X1317D01*
X1376D02*
X1407D01*
X1501D02*
X1535D01*
X1586D02*
X1597D01*
X1676D02*
X1751D01*
X1770D02*
X1790D01*
X1828D02*
X1924D01*
X1221Y101D02*
X1318D01*
X1377D02*
X1408D01*
X1500D02*
X1536D01*
X1586D02*
X1598D01*
X1675D02*
X1753D01*
X1768D02*
X1790D01*
X1827D02*
X1925D01*
X1220Y102D02*
X1319D01*
X1377D02*
X1409D01*
X1498D02*
X1538D01*
X1586D02*
X1599D01*
X1675D02*
X1755D01*
X1767D02*
X1791D01*
X1826D02*
X1926D01*
X1219Y103D02*
X1320D01*
X1377D02*
X1410D01*
X1497D02*
X1539D01*
X1587D02*
X1600D01*
X1674D02*
X1756D01*
X1766D02*
X1791D01*
X1825D02*
X1926D01*
X1219Y104D02*
X1322D01*
X1378D02*
X1411D01*
X1496D02*
X1541D01*
X1587D02*
X1601D01*
X1673D02*
X1758D01*
X1764D02*
X1792D01*
X1824D02*
X1927D01*
X1218Y105D02*
X1323D01*
X1378D02*
X1411D01*
X1495D02*
X1542D01*
X1587D02*
X1602D01*
X1673D02*
X1760D01*
X1763D02*
X1792D01*
X1824D02*
X1928D01*
X2062D02*
X2064D01*
X1217Y106D02*
X1324D01*
X1379D02*
X1412D01*
X1494D02*
X1544D01*
X1587D02*
X1604D01*
X1672D02*
X1761D01*
X1762D02*
X1793D01*
X1823D02*
X1929D01*
X2064D02*
X2068D01*
X1217Y107D02*
X1325D01*
X1379D02*
X1413D01*
X1493D02*
X1545D01*
X1587D02*
X1605D01*
X1672D02*
X1793D01*
X1822D02*
X1929D01*
X2065D02*
X2073D01*
X1216Y108D02*
X1326D01*
X1380D02*
X1404D01*
X1404D02*
X1414D01*
X1492D02*
X1545D01*
X1587D02*
X1606D01*
X1672D02*
X1729D01*
X1739D02*
X1793D01*
X1821D02*
X1915D01*
X2066D02*
X2077D01*
X1216Y109D02*
X1327D01*
X1380D02*
X1401D01*
X1404D02*
X1414D01*
X1491D02*
X1546D01*
X1588D02*
X1606D01*
X1671D02*
X1722D01*
X1742D02*
X1793D01*
X1820D02*
X1907D01*
X2068D02*
X2081D01*
X1215Y110D02*
X1328D01*
X1381D02*
X1398D01*
X1405D02*
X1415D01*
X1490D02*
X1547D01*
X1588D02*
X1606D01*
X1671D02*
X1715D01*
X1744D02*
X1792D01*
X1820D02*
X1885D01*
X2069D02*
X2084D01*
X1215Y111D02*
X1329D01*
X1381D02*
X1395D01*
X1406D02*
X1416D01*
X1490D02*
X1548D01*
X1588D02*
X1606D01*
X1670D02*
X1713D01*
X1747D02*
X1791D01*
X1819D02*
X1880D01*
X2071D02*
X2085D01*
X1215Y111D02*
X1264D01*
X1280D02*
X1330D01*
X1382D02*
X1393D01*
X1406D02*
X1417D01*
X1490D02*
X1517D01*
X1525D02*
X1549D01*
X1588D02*
X1606D01*
X1670D02*
X1711D01*
X1748D02*
X1790D01*
X1818D02*
X1875D01*
X2072D02*
X2087D01*
X1215Y112D02*
X1253D01*
X1286D02*
X1330D01*
X1382D02*
X1391D01*
X1407D02*
X1417D01*
X1490D02*
X1515D01*
X1530D02*
X1550D01*
X1588D02*
X1607D01*
X1670D02*
X1709D01*
X1746D02*
X1790D01*
X1818D02*
X1871D01*
X2073D02*
X2088D01*
X1214Y113D02*
X1244D01*
X1300D02*
X1331D01*
X1383D02*
X1390D01*
X1407D02*
X1418D01*
X1490D02*
X1514D01*
X1534D02*
X1551D01*
X1587D02*
X1607D01*
X1669D02*
X1706D01*
X1743D02*
X1789D01*
X1818D02*
X1867D01*
X2074D02*
X2089D01*
X2276D02*
X2283D01*
X2370D02*
X2377D01*
X2517D02*
X2524D01*
X1214Y114D02*
X1238D01*
X1304D02*
X1332D01*
X1383D02*
X1388D01*
X1408D02*
X1419D01*
X1490D02*
X1512D01*
X1537D02*
X1552D01*
X1587D02*
X1607D01*
X1669D02*
X1704D01*
X1740D02*
X1788D01*
X1818D02*
X1864D01*
X2075D02*
X2090D01*
X2272D02*
X2286D01*
X2366D02*
X2380D01*
X2513D02*
X2527D01*
X1214Y115D02*
X1234D01*
X1307D02*
X1333D01*
X1384D02*
X1386D01*
X1409D02*
X1420D01*
X1490D02*
X1512D01*
X1540D02*
X1553D01*
X1587D02*
X1607D01*
X1669D02*
X1703D01*
X1737D02*
X1787D01*
X1817D02*
X1861D01*
X2076D02*
X2092D01*
X2268D02*
X2288D01*
X2362D02*
X2382D01*
X2509D02*
X2529D01*
X1214Y116D02*
X1231D01*
X1310D02*
X1334D01*
X1384D02*
X1385D01*
X1409D02*
X1421D01*
X1489D02*
X1511D01*
X1543D02*
X1554D01*
X1586D02*
X1607D01*
X1669D02*
X1702D01*
X1734D02*
X1787D01*
X1817D02*
X1858D01*
X2077D02*
X2093D01*
X2264D02*
X2290D01*
X2358D02*
X2384D01*
X2505D02*
X2531D01*
X1215Y117D02*
X1228D01*
X1313D02*
X1334D01*
X1410D02*
X1421D01*
X1489D02*
X1511D01*
X1545D02*
X1555D01*
X1586D02*
X1607D01*
X1668D02*
X1701D01*
X1731D02*
X1786D01*
X1817D02*
X1856D01*
X2010D02*
X2028D01*
X2077D02*
X2094D01*
X2196D02*
X2214D01*
X2261D02*
X2292D01*
X2355D02*
X2386D01*
X2437D02*
X2455D01*
X2502D02*
X2533D01*
X2584D02*
X2602D01*
X1215Y118D02*
X1226D01*
X1315D02*
X1335D01*
X1411D02*
X1422D01*
X1489D02*
X1510D01*
X1546D02*
X1556D01*
X1585D02*
X1607D01*
X1668D02*
X1700D01*
X1727D02*
X1784D01*
X1817D02*
X1853D01*
X2000D02*
X2029D01*
X2078D02*
X2095D01*
X2186D02*
X2215D01*
X2257D02*
X2293D01*
X2351D02*
X2387D01*
X2427D02*
X2456D01*
X2498D02*
X2534D01*
X2574D02*
X2603D01*
X1215Y119D02*
X1225D01*
X1318D02*
X1335D01*
X1411D02*
X1423D01*
X1489D02*
X1510D01*
X1547D02*
X1556D01*
X1584D02*
X1607D01*
X1668D02*
X1700D01*
X1723D02*
X1783D01*
X1817D02*
X1851D01*
X1996D02*
X2029D01*
X2079D02*
X2097D01*
X2182D02*
X2215D01*
X2244D02*
X2294D01*
X2338D02*
X2388D01*
X2423D02*
X2456D01*
X2485D02*
X2535D01*
X2570D02*
X2603D01*
X1215Y120D02*
X1226D01*
X1320D02*
X1336D01*
X1412D02*
X1424D01*
X1489D02*
X1510D01*
X1549D02*
X1557D01*
X1583D02*
X1606D01*
X1668D02*
X1699D01*
X1720D02*
X1782D01*
X1817D02*
X1849D01*
X1995D02*
X2030D01*
X2080D02*
X2098D01*
X2181D02*
X2216D01*
X2245D02*
X2295D01*
X2339D02*
X2389D01*
X2422D02*
X2457D01*
X2486D02*
X2536D01*
X2569D02*
X2604D01*
X1216Y121D02*
X1227D01*
X1322D02*
X1336D01*
X1412D02*
X1424D01*
X1489D02*
X1509D01*
X1550D02*
X1557D01*
X1581D02*
X1606D01*
X1668D02*
X1698D01*
X1720D02*
X1781D01*
X1816D02*
X1847D01*
X1993D02*
X2031D01*
X2080D02*
X2099D01*
X2121D02*
X2134D01*
X2179D02*
X2217D01*
X2245D02*
X2295D01*
X2302D02*
X2315D01*
X2339D02*
X2389D01*
X2420D02*
X2458D01*
X2486D02*
X2536D01*
X2567D02*
X2605D01*
X1216Y122D02*
X1228D01*
X1324D02*
X1337D01*
X1413D02*
X1425D01*
X1489D02*
X1509D01*
X1552D02*
X1558D01*
X1580D02*
X1606D01*
X1668D02*
X1697D01*
X1721D02*
X1779D01*
X1816D02*
X1845D01*
X1992D02*
X2032D01*
X2080D02*
X2099D01*
X2122D02*
X2134D01*
X2178D02*
X2218D01*
X2246D02*
X2296D01*
X2302D02*
X2315D01*
X2340D02*
X2390D01*
X2419D02*
X2459D01*
X2487D02*
X2537D01*
X2566D02*
X2606D01*
X1216Y123D02*
X1229D01*
X1326D02*
X1337D01*
X1414D02*
X1426D01*
X1489D02*
X1509D01*
X1553D02*
X1559D01*
X1579D02*
X1605D01*
X1668D02*
X1696D01*
X1722D02*
X1780D01*
X1816D02*
X1843D01*
X1990D02*
X2033D01*
X2081D02*
X2100D01*
X2122D02*
X2134D01*
X2176D02*
X2219D01*
X2247D02*
X2296D01*
X2303D02*
X2315D01*
X2341D02*
X2390D01*
X2417D02*
X2460D01*
X2488D02*
X2537D01*
X2564D02*
X2607D01*
X1217Y124D02*
X1230D01*
X1328D02*
X1338D01*
X1414D02*
X1427D01*
X1490D02*
X1508D01*
X1554D02*
X1561D01*
X1577D02*
X1605D01*
X1668D02*
X1696D01*
X1723D02*
X1781D01*
X1816D02*
X1841D01*
X1989D02*
X2033D01*
X2081D02*
X2100D01*
X2122D02*
X2135D01*
X2175D02*
X2219D01*
X2247D02*
X2297D01*
X2303D02*
X2315D01*
X2341D02*
X2391D01*
X2416D02*
X2460D01*
X2488D02*
X2538D01*
X2563D02*
X2607D01*
X1217Y125D02*
X1232D01*
X1328D02*
X1338D01*
X1415D02*
X1427D01*
X1490D02*
X1509D01*
X1556D02*
X1562D01*
X1576D02*
X1604D01*
X1668D02*
X1695D01*
X1724D02*
X1782D01*
X1816D02*
X1840D01*
X1987D02*
X2034D01*
X2082D02*
X2101D01*
X2122D02*
X2135D01*
X2173D02*
X2220D01*
X2248D02*
X2297D01*
X2303D02*
X2315D01*
X2342D02*
X2391D01*
X2414D02*
X2461D01*
X2489D02*
X2538D01*
X2561D02*
X2608D01*
X1217Y126D02*
X1234D01*
X1329D02*
X1339D01*
X1416D02*
X1428D01*
X1490D02*
X1509D01*
X1557D02*
X1563D01*
X1574D02*
X1604D01*
X1669D02*
X1694D01*
X1725D02*
X1783D01*
X1815D02*
X1839D01*
X1986D02*
X2035D01*
X2082D02*
X2101D01*
X2123D02*
X2135D01*
X2172D02*
X2221D01*
X2249D02*
X2298D01*
X2303D02*
X2316D01*
X2343D02*
X2391D01*
X2413D02*
X2462D01*
X2490D02*
X2539D01*
X2560D02*
X2609D01*
X1217Y126D02*
X1238D01*
X1330D02*
X1340D01*
X1417D02*
X1429D01*
X1490D02*
X1509D01*
X1559D02*
X1565D01*
X1573D02*
X1603D01*
X1669D02*
X1694D01*
X1727D02*
X1784D01*
X1815D02*
X1837D01*
X1984D02*
X2036D01*
X2082D02*
X2102D01*
X2123D02*
X2135D01*
X2170D02*
X2222D01*
X2250D02*
X2298D01*
X2304D02*
X2316D01*
X2344D02*
X2392D01*
X2411D02*
X2463D01*
X2491D02*
X2539D01*
X2558D02*
X2610D01*
X1218Y127D02*
X1242D01*
X1331D02*
X1340D01*
X1417D02*
X1429D01*
X1491D02*
X1509D01*
X1560D02*
X1567D01*
X1571D02*
X1603D01*
X1669D02*
X1693D01*
X1728D02*
X1772D01*
X1772D02*
X1785D01*
X1815D02*
X1836D01*
X1983D02*
X2037D01*
X2083D02*
X2102D01*
X2123D02*
X2135D01*
X2169D02*
X2223D01*
X2251D02*
X2298D01*
X2304D02*
X2316D01*
X2345D02*
X2392D01*
X2410D02*
X2464D01*
X2492D02*
X2539D01*
X2557D02*
X2611D01*
X1219Y128D02*
X1247D01*
X1332D02*
X1340D01*
X1418D02*
X1430D01*
X1491D02*
X1510D01*
X1561D02*
X1568D01*
X1569D02*
X1602D01*
X1669D02*
X1692D01*
X1729D02*
X1770D01*
X1773D02*
X1786D01*
X1815D02*
X1835D01*
X1982D02*
X2037D01*
X2083D02*
X2103D01*
X2123D02*
X2136D01*
X2168D02*
X2223D01*
X2252D02*
X2299D01*
X2304D02*
X2316D01*
X2346D02*
X2393D01*
X2409D02*
X2464D01*
X2493D02*
X2540D01*
X2556D02*
X2611D01*
X1220Y129D02*
X1252D01*
X1332D02*
X1341D01*
X1419D02*
X1431D01*
X1492D02*
X1510D01*
X1563D02*
X1602D01*
X1669D02*
X1692D01*
X1730D02*
X1769D01*
X1773D02*
X1787D01*
X1815D02*
X1834D01*
X1982D02*
X2038D01*
X2083D02*
X2103D01*
X2124D02*
X2136D01*
X2168D02*
X2224D01*
X2253D02*
X2299D01*
X2304D02*
X2317D01*
X2347D02*
X2393D01*
X2409D02*
X2465D01*
X2494D02*
X2540D01*
X2556D02*
X2612D01*
X1221Y130D02*
X1257D01*
X1332D02*
X1341D01*
X1419D02*
X1431D01*
X1492D02*
X1510D01*
X1564D02*
X1601D01*
X1669D02*
X1691D01*
X1731D02*
X1767D01*
X1773D02*
X1788D01*
X1815D02*
X1834D01*
X1982D02*
X2039D01*
X2083D02*
X2104D01*
X2124D02*
X2136D01*
X2168D02*
X2225D01*
X2254D02*
X2299D01*
X2304D02*
X2317D01*
X2348D02*
X2393D01*
X2408D02*
X2466D01*
X2495D02*
X2540D01*
X2556D02*
X2613D01*
X1222Y131D02*
X1264D01*
X1333D02*
X1342D01*
X1420D02*
X1432D01*
X1493D02*
X1511D01*
X1564D02*
X1600D01*
X1670D02*
X1691D01*
X1732D02*
X1766D01*
X1773D02*
X1789D01*
X1815D02*
X1833D01*
X1981D02*
X2040D01*
X2083D02*
X2105D01*
X2124D02*
X2136D01*
X2167D02*
X2226D01*
X2255D02*
X2300D01*
X2305D02*
X2317D01*
X2348D02*
X2394D01*
X2408D02*
X2467D01*
X2495D02*
X2541D01*
X2555D02*
X2614D01*
X1223Y132D02*
X1273D01*
X1333D02*
X1342D01*
X1421D02*
X1432D01*
X1493D02*
X1511D01*
X1562D02*
X1599D01*
X1670D02*
X1690D01*
X1733D02*
X1764D01*
X1774D02*
X1790D01*
X1815D02*
X1833D01*
X1981D02*
X2040D01*
X2084D02*
X2105D01*
X2124D02*
X2137D01*
X2167D02*
X2226D01*
X2255D02*
X2300D01*
X2305D02*
X2317D01*
X2349D02*
X2394D01*
X2408D02*
X2467D01*
X2496D02*
X2541D01*
X2555D02*
X2614D01*
X1224Y133D02*
X1281D01*
X1333D02*
X1342D01*
X1422D02*
X1433D01*
X1494D02*
X1511D01*
X1561D02*
X1598D01*
X1670D02*
X1689D01*
X1734D02*
X1763D01*
X1774D02*
X1790D01*
X1816D02*
X1832D01*
X1980D02*
X2020D01*
X2022D02*
X2041D01*
X2084D02*
X2105D01*
X2124D02*
X2137D01*
X2166D02*
X2206D01*
X2208D02*
X2227D01*
X2256D02*
X2282D01*
X2305D02*
X2318D01*
X2350D02*
X2376D01*
X2407D02*
X2447D01*
X2449D02*
X2468D01*
X2497D02*
X2523D01*
X2554D02*
X2594D01*
X2596D02*
X2615D01*
X1226Y134D02*
X1290D01*
X1334D02*
X1343D01*
X1422D02*
X1434D01*
X1495D02*
X1512D01*
X1559D02*
X1597D01*
X1671D02*
X1689D01*
X1735D02*
X1761D01*
X1774D02*
X1791D01*
X1816D02*
X1832D01*
X1980D02*
X2018D01*
X2023D02*
X2042D01*
X2084D02*
X2106D01*
X2125D02*
X2137D01*
X2166D02*
X2204D01*
X2209D02*
X2228D01*
X2257D02*
X2279D01*
X2305D02*
X2318D01*
X2351D02*
X2373D01*
X2407D02*
X2445D01*
X2450D02*
X2469D01*
X2498D02*
X2520D01*
X2554D02*
X2592D01*
X2597D02*
X2616D01*
X1228Y135D02*
X1296D01*
X1334D02*
X1343D01*
X1423D02*
X1434D01*
X1495D02*
X1512D01*
X1557D02*
X1595D01*
X1671D02*
X1688D01*
X1736D02*
X1760D01*
X1774D02*
X1791D01*
X1816D02*
X1831D01*
X1979D02*
X2015D01*
X2023D02*
X2042D01*
X2084D02*
X2106D01*
X2125D02*
X2137D01*
X2165D02*
X2201D01*
X2209D02*
X2228D01*
X2258D02*
X2276D01*
X2306D02*
X2318D01*
X2352D02*
X2370D01*
X2406D02*
X2442D01*
X2450D02*
X2469D01*
X2499D02*
X2517D01*
X2553D02*
X2589D01*
X2597D02*
X2616D01*
X1230Y136D02*
X1302D01*
X1335D02*
X1344D01*
X1424D02*
X1435D01*
X1496D02*
X1513D01*
X1556D02*
X1594D01*
X1672D02*
X1688D01*
X1738D02*
X1758D01*
X1775D02*
X1792D01*
X1816D02*
X1831D01*
X1979D02*
X2012D01*
X2024D02*
X2043D01*
X2084D02*
X2106D01*
X2125D02*
X2138D01*
X2165D02*
X2198D01*
X2210D02*
X2229D01*
X2259D02*
X2272D01*
X2306D02*
X2318D01*
X2353D02*
X2366D01*
X2406D02*
X2439D01*
X2451D02*
X2470D01*
X2500D02*
X2513D01*
X2553D02*
X2586D01*
X2598D02*
X2617D01*
X1232Y137D02*
X1309D01*
X1335D02*
X1344D01*
X1425D02*
X1436D01*
X1498D02*
X1513D01*
X1554D02*
X1592D01*
X1672D02*
X1687D01*
X1739D02*
X1755D01*
X1775D02*
X1793D01*
X1816D02*
X1831D01*
X1978D02*
X2010D01*
X2024D02*
X2044D01*
X2083D02*
X2106D01*
X2125D02*
X2138D01*
X2164D02*
X2196D01*
X2210D02*
X2230D01*
X2260D02*
X2273D01*
X2306D02*
X2319D01*
X2354D02*
X2367D01*
X2405D02*
X2437D01*
X2451D02*
X2471D01*
X2501D02*
X2514D01*
X2552D02*
X2584D01*
X2598D02*
X2618D01*
X1234Y138D02*
X1315D01*
X1335D02*
X1344D01*
X1425D02*
X1437D01*
X1500D02*
X1514D01*
X1552D02*
X1590D01*
X1672D02*
X1687D01*
X1740D02*
X1750D01*
X1775D02*
X1793D01*
X1816D02*
X1830D01*
X1978D02*
X2009D01*
X2025D02*
X2044D01*
X2083D02*
X2106D01*
X2126D02*
X2138D01*
X2164D02*
X2195D01*
X2211D02*
X2230D01*
X2261D02*
X2274D01*
X2306D02*
X2319D01*
X2355D02*
X2368D01*
X2405D02*
X2436D01*
X2452D02*
X2471D01*
X2502D02*
X2515D01*
X2552D02*
X2583D01*
X2599D02*
X2618D01*
X1237Y139D02*
X1325D01*
X1336D02*
X1345D01*
X1426D02*
X1437D01*
X1503D02*
X1515D01*
X1551D02*
X1588D01*
X1673D02*
X1686D01*
X1741D02*
X1746D01*
X1775D02*
X1794D01*
X1817D02*
X1830D01*
X1977D02*
X2008D01*
X2026D02*
X2045D01*
X2083D02*
X2107D01*
X2126D02*
X2138D01*
X2163D02*
X2194D01*
X2212D02*
X2231D01*
X2262D02*
X2275D01*
X2307D02*
X2319D01*
X2356D02*
X2369D01*
X2404D02*
X2435D01*
X2453D02*
X2472D01*
X2503D02*
X2516D01*
X2551D02*
X2582D01*
X2600D02*
X2619D01*
X1239Y140D02*
X1345D01*
X1427D02*
X1438D01*
X1505D02*
X1515D01*
X1549D02*
X1586D01*
X1673D02*
X1685D01*
X1776D02*
X1794D01*
X1817D02*
X1830D01*
X1977D02*
X2007D01*
X2026D02*
X2046D01*
X2083D02*
X2107D01*
X2126D02*
X2138D01*
X2163D02*
X2193D01*
X2212D02*
X2232D01*
X2263D02*
X2276D01*
X2307D02*
X2319D01*
X2356D02*
X2370D01*
X2404D02*
X2434D01*
X2453D02*
X2473D01*
X2503D02*
X2517D01*
X2551D02*
X2581D01*
X2600D02*
X2620D01*
X1241Y141D02*
X1351D01*
X1427D02*
X1439D01*
X1508D02*
X1516D01*
X1546D02*
X1588D01*
X1674D02*
X1686D01*
X1776D02*
X1795D01*
X1817D02*
X1830D01*
X1976D02*
X2006D01*
X2027D02*
X2046D01*
X2082D02*
X2107D01*
X2126D02*
X2139D01*
X2162D02*
X2192D01*
X2213D02*
X2232D01*
X2263D02*
X2277D01*
X2307D02*
X2319D01*
X2357D02*
X2371D01*
X2403D02*
X2433D01*
X2454D02*
X2473D01*
X2504D02*
X2518D01*
X2550D02*
X2580D01*
X2601D02*
X2620D01*
X1244Y141D02*
X1356D01*
X1428D02*
X1439D01*
X1510D02*
X1517D01*
X1544D02*
X1584D01*
X1585D02*
X1591D01*
X1654D02*
X1655D01*
X1674D02*
X1687D01*
X1776D02*
X1796D01*
X1817D02*
X1830D01*
X1976D02*
X2005D01*
X2027D02*
X2047D01*
X2082D02*
X2107D01*
X2127D02*
X2139D01*
X2162D02*
X2191D01*
X2213D02*
X2233D01*
X2264D02*
X2278D01*
X2307D02*
X2320D01*
X2358D02*
X2372D01*
X2403D02*
X2432D01*
X2454D02*
X2474D01*
X2505D02*
X2519D01*
X2550D02*
X2579D01*
X2601D02*
X2621D01*
X1246Y142D02*
X1357D01*
X1428D02*
X1440D01*
X1512D02*
X1517D01*
X1542D02*
X1582D01*
X1586D02*
X1593D01*
X1647D02*
X1657D01*
X1675D02*
X1687D01*
X1776D02*
X1796D01*
X1817D02*
X1829D01*
X1976D02*
X2003D01*
X2028D02*
X2047D01*
X2080D02*
X2107D01*
X2127D02*
X2139D01*
X2162D02*
X2189D01*
X2214D02*
X2233D01*
X2265D02*
X2279D01*
X2308D02*
X2320D01*
X2359D02*
X2373D01*
X2403D02*
X2430D01*
X2455D02*
X2474D01*
X2506D02*
X2520D01*
X2550D02*
X2577D01*
X2602D02*
X2621D01*
X1265Y143D02*
X1358D01*
X1429D02*
X1441D01*
X1515D02*
X1518D01*
X1539D02*
X1580D01*
X1587D02*
X1595D01*
X1641D02*
X1658D01*
X1675D02*
X1688D01*
X1776D02*
X1797D01*
X1818D02*
X1829D01*
X1976D02*
X2002D01*
X2028D02*
X2047D01*
X2078D02*
X2108D01*
X2127D02*
X2139D01*
X2162D02*
X2188D01*
X2214D02*
X2233D01*
X2265D02*
X2281D01*
X2308D02*
X2320D01*
X2359D02*
X2374D01*
X2403D02*
X2429D01*
X2455D02*
X2474D01*
X2506D02*
X2522D01*
X2550D02*
X2576D01*
X2602D02*
X2621D01*
X1276Y144D02*
X1360D01*
X1430D02*
X1442D01*
X1517D02*
X1518D01*
X1537D02*
X1579D01*
X1589D02*
X1597D01*
X1642D02*
X1659D01*
X1676D02*
X1689D01*
X1776D02*
X1797D01*
X1818D02*
X1829D01*
X1975D02*
X2002D01*
X2029D02*
X2048D01*
X2076D02*
X2108D01*
X2127D02*
X2140D01*
X2161D02*
X2188D01*
X2215D02*
X2234D01*
X2266D02*
X2282D01*
X2308D02*
X2320D01*
X2360D02*
X2376D01*
X2402D02*
X2429D01*
X2456D02*
X2475D01*
X2507D02*
X2523D01*
X2549D02*
X2576D01*
X2603D02*
X2622D01*
X1321Y145D02*
X1361D01*
X1430D02*
X1442D01*
X1534D02*
X1577D01*
X1590D02*
X1599D01*
X1642D02*
X1660D01*
X1676D02*
X1689D01*
X1777D02*
X1798D01*
X1818D02*
X1829D01*
X1975D02*
X2002D01*
X2029D02*
X2048D01*
X2074D02*
X2108D01*
X2128D02*
X2140D01*
X2161D02*
X2188D01*
X2215D02*
X2234D01*
X2267D02*
X2283D01*
X2308D02*
X2321D01*
X2360D02*
X2377D01*
X2402D02*
X2429D01*
X2456D02*
X2475D01*
X2508D02*
X2524D01*
X2549D02*
X2576D01*
X2603D02*
X2622D01*
X1332Y146D02*
X1362D01*
X1431D02*
X1443D01*
X1532D02*
X1575D01*
X1592D02*
X1601D01*
X1643D02*
X1662D01*
X1677D02*
X1690D01*
X1777D02*
X1798D01*
X1818D02*
X1829D01*
X1975D02*
X2001D01*
X2029D02*
X2048D01*
X2070D02*
X2108D01*
X2128D02*
X2140D01*
X2161D02*
X2187D01*
X2215D02*
X2234D01*
X2267D02*
X2283D01*
X2308D02*
X2321D01*
X2361D02*
X2377D01*
X2402D02*
X2428D01*
X2456D02*
X2475D01*
X2508D02*
X2524D01*
X2549D02*
X2575D01*
X2603D02*
X2622D01*
X1338Y147D02*
X1347D01*
X1351D02*
X1363D01*
X1431D02*
X1444D01*
X1529D02*
X1573D01*
X1593D02*
X1602D01*
X1644D02*
X1662D01*
X1678D02*
X1690D01*
X1777D02*
X1799D01*
X1818D02*
X1829D01*
X1975D02*
X2001D01*
X2029D02*
X2048D01*
X2061D02*
X2109D01*
X2128D02*
X2140D01*
X2161D02*
X2187D01*
X2215D02*
X2234D01*
X2267D02*
X2284D01*
X2309D02*
X2321D01*
X2361D02*
X2378D01*
X2402D02*
X2428D01*
X2456D02*
X2475D01*
X2508D02*
X2525D01*
X2549D02*
X2575D01*
X2603D02*
X2622D01*
X1339Y148D02*
X1348D01*
X1361D02*
X1364D01*
X1432D02*
X1445D01*
X1527D02*
X1571D01*
X1594D02*
X1604D01*
X1644D02*
X1663D01*
X1678D02*
X1691D01*
X1777D02*
X1799D01*
X1819D02*
X1830D01*
X1975D02*
X2001D01*
X2030D02*
X2049D01*
X2061D02*
X2109D01*
X2128D02*
X2141D01*
X2161D02*
X2187D01*
X2216D02*
X2235D01*
X2267D02*
X2285D01*
X2309D02*
X2321D01*
X2361D02*
X2379D01*
X2402D02*
X2428D01*
X2457D02*
X2476D01*
X2508D02*
X2526D01*
X2549D02*
X2575D01*
X2604D02*
X2623D01*
X1339Y149D02*
X1348D01*
X1432D02*
X1445D01*
X1525D02*
X1569D01*
X1596D02*
X1605D01*
X1645D02*
X1663D01*
X1679D02*
X1692D01*
X1777D02*
X1800D01*
X1819D02*
X1830D01*
X1974D02*
X2000D01*
X2030D02*
X2049D01*
X2061D02*
X2109D01*
X2128D02*
X2141D01*
X2160D02*
X2186D01*
X2216D02*
X2235D01*
X2268D02*
X2286D01*
X2309D02*
X2322D01*
X2361D02*
X2380D01*
X2401D02*
X2427D01*
X2457D02*
X2476D01*
X2508D02*
X2527D01*
X2548D02*
X2574D01*
X2604D02*
X2623D01*
X1339Y150D02*
X1348D01*
X1433D02*
X1446D01*
X1522D02*
X1567D01*
X1597D02*
X1607D01*
X1645D02*
X1663D01*
X1679D02*
X1692D01*
X1777D02*
X1800D01*
X1819D02*
X1830D01*
X1974D02*
X2000D01*
X2030D02*
X2049D01*
X2062D02*
X2109D01*
X2129D02*
X2141D01*
X2160D02*
X2186D01*
X2216D02*
X2235D01*
X2268D02*
X2286D01*
X2309D02*
X2322D01*
X2362D02*
X2380D01*
X2401D02*
X2427D01*
X2457D02*
X2476D01*
X2509D02*
X2527D01*
X2548D02*
X2574D01*
X2604D02*
X2623D01*
X1340Y151D02*
X1349D01*
X1433D02*
X1447D01*
X1520D02*
X1565D01*
X1599D02*
X1610D01*
X1646D02*
X1663D01*
X1680D02*
X1693D01*
X1777D02*
X1800D01*
X1820D02*
X1830D01*
X1974D02*
X1999D01*
X2030D02*
X2050D01*
X2062D02*
X2108D01*
X2129D02*
X2141D01*
X2160D02*
X2185D01*
X2216D02*
X2236D01*
X2268D02*
X2287D01*
X2310D02*
X2322D01*
X2362D02*
X2381D01*
X2401D02*
X2426D01*
X2457D02*
X2476D01*
X2509D02*
X2528D01*
X2548D02*
X2573D01*
X2604D02*
X2624D01*
X1340Y152D02*
X1349D01*
X1434D02*
X1448D01*
X1518D02*
X1564D01*
X1600D02*
X1613D01*
X1647D02*
X1664D01*
X1681D02*
X1694D01*
X1777D02*
X1801D01*
X1820D02*
X1831D01*
X1974D02*
X1999D01*
X2030D02*
X2050D01*
X2062D02*
X2108D01*
X2129D02*
X2142D01*
X2160D02*
X2185D01*
X2216D02*
X2236D01*
X2268D02*
X2288D01*
X2310D02*
X2322D01*
X2362D02*
X2382D01*
X2401D02*
X2426D01*
X2457D02*
X2477D01*
X2509D02*
X2529D01*
X2548D02*
X2573D01*
X2604D02*
X2624D01*
X1340Y153D02*
X1349D01*
X1435D02*
X1448D01*
X1516D02*
X1562D01*
X1602D02*
X1617D01*
X1647D02*
X1664D01*
X1682D02*
X1695D01*
X1777D02*
X1801D01*
X1820D02*
X1831D01*
X1974D02*
X1999D01*
X2030D02*
X2050D01*
X2062D02*
X2108D01*
X2129D02*
X2142D01*
X2160D02*
X2185D01*
X2216D02*
X2236D01*
X2268D02*
X2289D01*
X2310D02*
X2322D01*
X2362D02*
X2383D01*
X2401D02*
X2426D01*
X2457D02*
X2477D01*
X2509D02*
X2530D01*
X2548D02*
X2573D01*
X2604D02*
X2624D01*
X1340Y154D02*
X1350D01*
X1435D02*
X1449D01*
X1515D02*
X1560D01*
X1605D02*
X1620D01*
X1648D02*
X1664D01*
X1682D02*
X1697D01*
X1777D02*
X1801D01*
X1821D02*
X1831D01*
X1973D02*
X1999D01*
X2030D02*
X2050D01*
X2062D02*
X2108D01*
X2130D02*
X2142D01*
X2160D02*
X2185D01*
X2216D02*
X2236D01*
X2269D02*
X2289D01*
X2310D02*
X2323D01*
X2363D02*
X2383D01*
X2400D02*
X2426D01*
X2457D02*
X2477D01*
X2510D02*
X2530D01*
X2547D02*
X2573D01*
X2604D02*
X2624D01*
X1341Y155D02*
X1350D01*
X1436D02*
X1450D01*
X1513D02*
X1558D01*
X1607D02*
X1624D01*
X1648D02*
X1664D01*
X1683D02*
X1698D01*
X1777D02*
X1802D01*
X1821D02*
X1831D01*
X1973D02*
X1999D01*
X2030D02*
X2050D01*
X2063D02*
X2108D01*
X2130D02*
X2142D01*
X2159D02*
X2185D01*
X2217D02*
X2236D01*
X2269D02*
X2290D01*
X2311D02*
X2323D01*
X2363D02*
X2384D01*
X2400D02*
X2426D01*
X2457D02*
X2477D01*
X2510D02*
X2531D01*
X2547D02*
X2573D01*
X2604D02*
X2624D01*
X1341Y156D02*
X1351D01*
X1436D02*
X1451D01*
X1512D02*
X1556D01*
X1609D02*
X1627D01*
X1649D02*
X1664D01*
X1684D02*
X1699D01*
X1777D02*
X1802D01*
X1821D02*
X1832D01*
X1973D02*
X1998D01*
X2031D02*
X2051D01*
X2063D02*
X2107D01*
X2130D02*
X2142D01*
X2159D02*
X2184D01*
X2217D02*
X2237D01*
X2269D02*
X2290D01*
X2311D02*
X2323D01*
X2363D02*
X2384D01*
X2400D02*
X2425D01*
X2458D02*
X2478D01*
X2510D02*
X2531D01*
X2547D02*
X2572D01*
X2605D02*
X2625D01*
X1341Y156D02*
X1351D01*
X1437D02*
X1451D01*
X1511D02*
X1558D01*
X1612D02*
X1636D01*
X1649D02*
X1663D01*
X1685D02*
X1700D01*
X1777D02*
X1802D01*
X1822D02*
X1832D01*
X1973D02*
X1998D01*
X2031D02*
X2051D01*
X2063D02*
X2107D01*
X2130D02*
X2143D01*
X2159D02*
X2184D01*
X2217D02*
X2237D01*
X2269D02*
X2291D01*
X2311D02*
X2323D01*
X2363D02*
X2385D01*
X2400D02*
X2425D01*
X2458D02*
X2478D01*
X2510D02*
X2532D01*
X2547D02*
X2572D01*
X2605D02*
X2625D01*
X1342Y157D02*
X1351D01*
X1437D02*
X1452D01*
X1511D02*
X1554D01*
X1554D02*
X1559D01*
X1614D02*
X1663D01*
X1686D02*
X1701D01*
X1777D02*
X1803D01*
X1822D02*
X1832D01*
X1973D02*
X1998D01*
X2031D02*
X2051D01*
X2063D02*
X2107D01*
X2131D02*
X2143D01*
X2159D02*
X2184D01*
X2217D02*
X2237D01*
X2270D02*
X2291D01*
X2311D02*
X2324D01*
X2364D02*
X2385D01*
X2400D02*
X2425D01*
X2458D02*
X2478D01*
X2511D02*
X2532D01*
X2547D02*
X2572D01*
X2605D02*
X2625D01*
X1342Y158D02*
X1352D01*
X1438D02*
X1453D01*
X1511D02*
X1552D01*
X1555D02*
X1561D01*
X1616D02*
X1663D01*
X1687D02*
X1702D01*
X1777D02*
X1803D01*
X1823D02*
X1832D01*
X1973D02*
X1998D01*
X2031D02*
X2051D01*
X2063D02*
X2106D01*
X2131D02*
X2143D01*
X2159D02*
X2184D01*
X2217D02*
X2237D01*
X2270D02*
X2291D01*
X2311D02*
X2324D01*
X2364D02*
X2385D01*
X2400D02*
X2425D01*
X2458D02*
X2478D01*
X2511D02*
X2532D01*
X2547D02*
X2572D01*
X2605D02*
X2625D01*
X1342Y159D02*
X1352D01*
X1439D02*
X1453D01*
X1511D02*
X1550D01*
X1555D02*
X1562D01*
X1619D02*
X1662D01*
X1688D02*
X1703D01*
X1777D02*
X1804D01*
X1823D02*
X1833D01*
X1907D02*
X1907D01*
X1972D02*
X1998D01*
X2031D02*
X2051D01*
X2064D02*
X2106D01*
X2131D02*
X2143D01*
X2158D02*
X2184D01*
X2217D02*
X2237D01*
X2270D02*
X2292D01*
X2312D02*
X2324D01*
X2364D02*
X2386D01*
X2399D02*
X2425D01*
X2458D02*
X2478D01*
X2511D02*
X2533D01*
X2546D02*
X2572D01*
X2605D02*
X2625D01*
X1343Y160D02*
X1352D01*
X1439D02*
X1454D01*
X1510D02*
X1548D01*
X1555D02*
X1564D01*
X1621D02*
X1661D01*
X1689D02*
X1705D01*
X1777D02*
X1804D01*
X1823D02*
X1833D01*
X1906D02*
X1907D01*
X1973D02*
X1998D01*
X2031D02*
X2051D01*
X2064D02*
X2105D01*
X2131D02*
X2144D01*
X2159D02*
X2184D01*
X2217D02*
X2237D01*
X2270D02*
X2292D01*
X2312D02*
X2324D01*
X2364D02*
X2386D01*
X2400D02*
X2425D01*
X2458D02*
X2478D01*
X2511D02*
X2533D01*
X2547D02*
X2572D01*
X2605D02*
X2625D01*
X1343Y161D02*
X1353D01*
X1440D02*
X1455D01*
X1510D02*
X1547D01*
X1556D02*
X1565D01*
X1624D02*
X1660D01*
X1691D02*
X1706D01*
X1777D02*
X1804D01*
X1824D02*
X1834D01*
X1906D02*
X1907D01*
X1973D02*
X1997D01*
X2031D02*
X2051D01*
X2064D02*
X2104D01*
X2131D02*
X2144D01*
X2159D02*
X2183D01*
X2217D02*
X2237D01*
X2270D02*
X2292D01*
X2312D02*
X2325D01*
X2363D02*
X2386D01*
X2400D02*
X2424D01*
X2458D02*
X2478D01*
X2510D02*
X2533D01*
X2547D02*
X2571D01*
X2605D02*
X2625D01*
X1343Y162D02*
X1353D01*
X1440D02*
X1456D01*
X1510D02*
X1545D01*
X1556D02*
X1566D01*
X1626D02*
X1659D01*
X1692D02*
X1707D01*
X1777D02*
X1804D01*
X1824D02*
X1834D01*
X1905D02*
X1908D01*
X1973D02*
X1997D01*
X2031D02*
X2052D01*
X2064D02*
X2103D01*
X2132D02*
X2144D01*
X2159D02*
X2183D01*
X2217D02*
X2238D01*
X2269D02*
X2293D01*
X2312D02*
X2325D01*
X2363D02*
X2387D01*
X2400D02*
X2424D01*
X2458D02*
X2479D01*
X2510D02*
X2534D01*
X2547D02*
X2571D01*
X2605D02*
X2626D01*
X1344Y163D02*
X1354D01*
X1441D02*
X1456D01*
X1509D02*
X1543D01*
X1556D02*
X1567D01*
X1629D02*
X1657D01*
X1693D02*
X1709D01*
X1776D02*
X1804D01*
X1824D02*
X1835D01*
X1905D02*
X1908D01*
X1973D02*
X1997D01*
X2031D02*
X2052D01*
X2064D02*
X2103D01*
X2132D02*
X2144D01*
X2159D02*
X2183D01*
X2217D02*
X2238D01*
X2269D02*
X2293D01*
X2313D02*
X2325D01*
X2363D02*
X2387D01*
X2400D02*
X2424D01*
X2458D02*
X2479D01*
X2510D02*
X2534D01*
X2547D02*
X2571D01*
X2605D02*
X2626D01*
X1344Y164D02*
X1354D01*
X1442D02*
X1457D01*
X1509D02*
X1541D01*
X1556D02*
X1567D01*
X1631D02*
X1653D01*
X1694D02*
X1710D01*
X1776D02*
X1804D01*
X1825D02*
X1835D01*
X1905D02*
X1908D01*
X1973D02*
X1997D01*
X2031D02*
X2052D01*
X2064D02*
X2102D01*
X2132D02*
X2145D01*
X2159D02*
X2183D01*
X2217D02*
X2238D01*
X2269D02*
X2293D01*
X2313D02*
X2325D01*
X2363D02*
X2387D01*
X2400D02*
X2424D01*
X2458D02*
X2479D01*
X2510D02*
X2534D01*
X2547D02*
X2571D01*
X2605D02*
X2626D01*
X1344Y165D02*
X1354D01*
X1442D02*
X1458D01*
X1509D02*
X1539D01*
X1557D02*
X1568D01*
X1636D02*
X1650D01*
X1696D02*
X1711D01*
X1776D02*
X1805D01*
X1825D02*
X1836D01*
X1904D02*
X1909D01*
X1974D02*
X1998D01*
X2031D02*
X2052D01*
X2065D02*
X2099D01*
X2132D02*
X2145D01*
X2160D02*
X2184D01*
X2217D02*
X2238D01*
X2269D02*
X2294D01*
X2313D02*
X2326D01*
X2362D02*
X2387D01*
X2401D02*
X2425D01*
X2458D02*
X2479D01*
X2510D02*
X2534D01*
X2548D02*
X2572D01*
X2605D02*
X2626D01*
X1345Y166D02*
X1355D01*
X1443D02*
X1459D01*
X1508D02*
X1537D01*
X1557D02*
X1569D01*
X1642D02*
X1646D01*
X1697D02*
X1713D01*
X1776D02*
X1805D01*
X1825D02*
X1836D01*
X1904D02*
X1909D01*
X1974D02*
X1998D01*
X2031D02*
X2052D01*
X2065D02*
X2094D01*
X2133D02*
X2145D01*
X2160D02*
X2184D01*
X2217D02*
X2238D01*
X2268D02*
X2294D01*
X2313D02*
X2326D01*
X2362D02*
X2388D01*
X2401D02*
X2425D01*
X2458D02*
X2479D01*
X2509D02*
X2535D01*
X2548D02*
X2572D01*
X2605D02*
X2626D01*
X1345Y167D02*
X1355D01*
X1443D02*
X1459D01*
X1508D02*
X1535D01*
X1557D02*
X1569D01*
X1698D02*
X1714D01*
X1776D02*
X1805D01*
X1826D02*
X1837D01*
X1903D02*
X1909D01*
X1974D02*
X1998D01*
X2031D02*
X2052D01*
X2065D02*
X2072D01*
X2133D02*
X2145D01*
X2160D02*
X2184D01*
X2217D02*
X2238D01*
X2268D02*
X2294D01*
X2314D02*
X2326D01*
X2362D02*
X2388D01*
X2401D02*
X2425D01*
X2458D02*
X2479D01*
X2509D02*
X2535D01*
X2548D02*
X2572D01*
X2605D02*
X2626D01*
X1345Y168D02*
X1356D01*
X1444D02*
X1460D01*
X1509D02*
X1533D01*
X1557D02*
X1570D01*
X1699D02*
X1715D01*
X1776D02*
X1805D01*
X1827D02*
X1837D01*
X1903D02*
X1909D01*
X1974D02*
X1998D01*
X2030D02*
X2052D01*
X2065D02*
X2072D01*
X2133D02*
X2146D01*
X2160D02*
X2184D01*
X2216D02*
X2238D01*
X2268D02*
X2294D01*
X2314D02*
X2326D01*
X2362D02*
X2388D01*
X2401D02*
X2425D01*
X2457D02*
X2479D01*
X2509D02*
X2535D01*
X2548D02*
X2572D01*
X2604D02*
X2626D01*
X1345Y169D02*
X1356D01*
X1445D02*
X1461D01*
X1509D02*
X1532D01*
X1558D02*
X1571D01*
X1701D02*
X1717D01*
X1776D02*
X1805D01*
X1827D02*
X1838D01*
X1902D02*
X1910D01*
X1974D02*
X1998D01*
X2030D02*
X2052D01*
X2065D02*
X2073D01*
X2133D02*
X2146D01*
X2160D02*
X2184D01*
X2216D02*
X2238D01*
X2267D02*
X2294D01*
X2314D02*
X2326D01*
X2361D02*
X2388D01*
X2401D02*
X2425D01*
X2457D02*
X2479D01*
X2508D02*
X2535D01*
X2548D02*
X2572D01*
X2604D02*
X2626D01*
X1346Y170D02*
X1356D01*
X1445D02*
X1462D01*
X1509D02*
X1530D01*
X1558D02*
X1571D01*
X1702D02*
X1719D01*
X1776D02*
X1805D01*
X1828D02*
X1838D01*
X1902D02*
X1910D01*
X1975D02*
X1998D01*
X2029D02*
X2052D01*
X2066D02*
X2073D01*
X2134D02*
X2146D01*
X2161D02*
X2184D01*
X2215D02*
X2238D01*
X2267D02*
X2294D01*
X2314D02*
X2327D01*
X2361D02*
X2388D01*
X2401D02*
X2425D01*
X2456D02*
X2479D01*
X2508D02*
X2535D01*
X2549D02*
X2572D01*
X2603D02*
X2626D01*
X1346Y171D02*
X1357D01*
X1446D02*
X1462D01*
X1509D02*
X1529D01*
X1558D02*
X1572D01*
X1703D02*
X1721D01*
X1775D02*
X1805D01*
X1829D02*
X1839D01*
X1902D02*
X1910D01*
X1975D02*
X1999D01*
X2029D02*
X2051D01*
X2066D02*
X2073D01*
X2134D02*
X2146D01*
X2161D02*
X2185D01*
X2215D02*
X2237D01*
X2267D02*
X2295D01*
X2315D02*
X2327D01*
X2361D02*
X2389D01*
X2402D02*
X2425D01*
X2456D02*
X2478D01*
X2508D02*
X2536D01*
X2549D02*
X2573D01*
X2603D02*
X2625D01*
X1346Y171D02*
X1357D01*
X1446D02*
X1463D01*
X1510D02*
X1528D01*
X1557D02*
X1573D01*
X1704D02*
X1723D01*
X1775D02*
X1805D01*
X1830D02*
X1840D01*
X1901D02*
X1911D01*
X1975D02*
X1999D01*
X2028D02*
X2051D01*
X2066D02*
X2074D01*
X2134D02*
X2146D01*
X2161D02*
X2185D01*
X2214D02*
X2237D01*
X2267D02*
X2295D01*
X2315D02*
X2327D01*
X2360D02*
X2389D01*
X2402D02*
X2426D01*
X2455D02*
X2478D01*
X2507D02*
X2536D01*
X2549D02*
X2573D01*
X2602D02*
X2625D01*
X1347Y172D02*
X1358D01*
X1447D02*
X1464D01*
X1510D02*
X1527D01*
X1557D02*
X1573D01*
X1706D02*
X1726D01*
X1774D02*
X1806D01*
X1830D02*
X1841D01*
X1901D02*
X1911D01*
X1975D02*
X1999D01*
X2028D02*
X2051D01*
X2066D02*
X2074D01*
X2134D02*
X2147D01*
X2161D02*
X2185D01*
X2214D02*
X2237D01*
X2264D02*
X2295D01*
X2315D02*
X2327D01*
X2358D02*
X2389D01*
X2402D02*
X2426D01*
X2455D02*
X2478D01*
X2505D02*
X2536D01*
X2549D02*
X2573D01*
X2602D02*
X2625D01*
X1347Y173D02*
X1358D01*
X1448D02*
X1465D01*
X1510D02*
X1526D01*
X1557D02*
X1574D01*
X1707D02*
X1728D01*
X1774D02*
X1806D01*
X1831D02*
X1843D01*
X1900D02*
X1911D01*
X1975D02*
X1999D01*
X2027D02*
X2051D01*
X2066D02*
X2074D01*
X2135D02*
X2147D01*
X2161D02*
X2185D01*
X2213D02*
X2237D01*
X2245D02*
X2246D01*
X2261D02*
X2294D01*
X2315D02*
X2328D01*
X2339D02*
X2340D01*
X2355D02*
X2388D01*
X2402D02*
X2426D01*
X2454D02*
X2478D01*
X2486D02*
X2487D01*
X2502D02*
X2535D01*
X2549D02*
X2573D01*
X2601D02*
X2625D01*
X1347Y174D02*
X1358D01*
X1448D02*
X1465D01*
X1511D02*
X1526D01*
X1557D02*
X1574D01*
X1710D02*
X1730D01*
X1773D02*
X1806D01*
X1832D02*
X1844D01*
X1900D02*
X1911D01*
X1975D02*
X1999D01*
X2026D02*
X2051D01*
X2067D02*
X2075D01*
X2135D02*
X2147D01*
X2161D02*
X2185D01*
X2212D02*
X2237D01*
X2246D02*
X2250D01*
X2257D02*
X2294D01*
X2315D02*
X2328D01*
X2340D02*
X2344D01*
X2351D02*
X2388D01*
X2402D02*
X2426D01*
X2453D02*
X2478D01*
X2487D02*
X2491D01*
X2498D02*
X2535D01*
X2549D02*
X2573D01*
X2600D02*
X2625D01*
X1347Y175D02*
X1359D01*
X1449D02*
X1466D01*
X1511D02*
X1525D01*
X1556D02*
X1574D01*
X1697D02*
X1698D01*
X1713D02*
X1732D01*
X1773D02*
X1806D01*
X1833D02*
X1846D01*
X1900D02*
X1912D01*
X1976D02*
X2000D01*
X2025D02*
X2051D01*
X2067D02*
X2099D01*
X2135D02*
X2147D01*
X2162D02*
X2186D01*
X2211D02*
X2237D01*
X2247D02*
X2294D01*
X2316D02*
X2328D01*
X2340D02*
X2388D01*
X2403D02*
X2427D01*
X2452D02*
X2478D01*
X2488D02*
X2535D01*
X2550D02*
X2574D01*
X2599D02*
X2625D01*
X1348Y176D02*
X1359D01*
X1449D02*
X1467D01*
X1511D02*
X1525D01*
X1556D02*
X1574D01*
X1696D02*
X1700D01*
X1715D02*
X1732D01*
X1772D02*
X1806D01*
X1833D02*
X1847D01*
X1899D02*
X1912D01*
X1976D02*
X2000D01*
X2024D02*
X2050D01*
X2067D02*
X2101D01*
X2135D02*
X2148D01*
X2162D02*
X2186D01*
X2210D02*
X2236D01*
X2247D02*
X2294D01*
X2316D02*
X2328D01*
X2341D02*
X2388D01*
X2403D02*
X2427D01*
X2451D02*
X2477D01*
X2488D02*
X2535D01*
X2550D02*
X2574D01*
X2598D02*
X2624D01*
X1348Y177D02*
X1360D01*
X1367D02*
X1368D01*
X1448D02*
X1469D01*
X1511D02*
X1525D01*
X1556D02*
X1574D01*
X1694D02*
X1702D01*
X1718D02*
X1732D01*
X1772D02*
X1806D01*
X1834D02*
X1849D01*
X1899D02*
X1912D01*
X1976D02*
X2000D01*
X2023D02*
X2050D01*
X2067D02*
X2103D01*
X2135D02*
X2148D01*
X2162D02*
X2186D01*
X2210D02*
X2236D01*
X2248D02*
X2294D01*
X2316D02*
X2329D01*
X2342D02*
X2388D01*
X2403D02*
X2427D01*
X2450D02*
X2477D01*
X2489D02*
X2535D01*
X2550D02*
X2574D01*
X2597D02*
X2624D01*
X1348Y178D02*
X1360D01*
X1367D02*
X1373D01*
X1441D02*
X1473D01*
X1512D02*
X1524D01*
X1555D02*
X1574D01*
X1692D02*
X1704D01*
X1721D02*
X1732D01*
X1771D02*
X1805D01*
X1835D02*
X1850D01*
X1898D02*
X1912D01*
X1977D02*
X2001D01*
X2023D02*
X2050D01*
X2067D02*
X2106D01*
X2136D02*
X2148D01*
X2163D02*
X2187D01*
X2209D02*
X2236D01*
X2249D02*
X2294D01*
X2316D02*
X2329D01*
X2342D02*
X2387D01*
X2404D02*
X2428D01*
X2450D02*
X2477D01*
X2489D02*
X2534D01*
X2551D02*
X2575D01*
X2597D02*
X2624D01*
X1338Y179D02*
X1338D01*
X1348D02*
X1361D01*
X1368D02*
X1378D01*
X1435D02*
X1477D01*
X1512D02*
X1524D01*
X1554D02*
X1574D01*
X1690D02*
X1706D01*
X1724D02*
X1732D01*
X1770D02*
X1805D01*
X1836D02*
X1852D01*
X1896D02*
X1912D01*
X1977D02*
X2001D01*
X2021D02*
X2049D01*
X2068D02*
X2107D01*
X2136D02*
X2148D01*
X2163D02*
X2187D01*
X2207D02*
X2236D01*
X2249D02*
X2293D01*
X2317D02*
X2329D01*
X2343D02*
X2387D01*
X2404D02*
X2428D01*
X2448D02*
X2476D01*
X2490D02*
X2534D01*
X2551D02*
X2575D01*
X2595D02*
X2623D01*
X1337Y180D02*
X1339D01*
X1348D02*
X1361D01*
X1369D02*
X1384D01*
X1428D02*
X1481D01*
X1513D02*
X1525D01*
X1553D02*
X1573D01*
X1688D02*
X1708D01*
X1727D02*
X1733D01*
X1770D02*
X1805D01*
X1836D02*
X1853D01*
X1893D02*
X1913D01*
X1978D02*
X2001D01*
X2019D02*
X2049D01*
X2068D02*
X2108D01*
X2136D02*
X2149D01*
X2164D02*
X2187D01*
X2205D02*
X2235D01*
X2250D02*
X2293D01*
X2317D02*
X2329D01*
X2344D02*
X2387D01*
X2405D02*
X2428D01*
X2446D02*
X2476D01*
X2491D02*
X2534D01*
X2552D02*
X2575D01*
X2593D02*
X2623D01*
X1335Y181D02*
X1340D01*
X1349D02*
X1361D01*
X1369D02*
X1391D01*
X1418D02*
X1484D01*
X1514D02*
X1525D01*
X1552D02*
X1573D01*
X1688D02*
X1709D01*
X1729D02*
X1733D01*
X1769D02*
X1805D01*
X1837D02*
X1856D01*
X1889D02*
X1913D01*
X1978D02*
X2002D01*
X2016D02*
X2049D01*
X2068D02*
X2108D01*
X2136D02*
X2149D01*
X2164D02*
X2188D01*
X2202D02*
X2235D01*
X2250D02*
X2293D01*
X2317D02*
X2330D01*
X2344D02*
X2387D01*
X2405D02*
X2428D01*
X2443D02*
X2476D01*
X2491D02*
X2534D01*
X2552D02*
X2576D01*
X2590D02*
X2623D01*
X1334Y182D02*
X1340D01*
X1349D02*
X1362D01*
X1370D02*
X1399D01*
X1406D02*
X1484D01*
X1514D02*
X1525D01*
X1551D02*
X1573D01*
X1690D02*
X1711D01*
X1732D02*
X1733D01*
X1769D02*
X1805D01*
X1838D02*
X1861D01*
X1885D02*
X1913D01*
X1979D02*
X2002D01*
X2013D02*
X2048D01*
X2068D02*
X2109D01*
X2137D02*
X2149D01*
X2165D02*
X2188D01*
X2199D02*
X2234D01*
X2251D02*
X2292D01*
X2317D02*
X2330D01*
X2345D02*
X2386D01*
X2406D02*
X2429D01*
X2440D02*
X2475D01*
X2492D02*
X2533D01*
X2553D02*
X2576D01*
X2587D02*
X2622D01*
X1333Y183D02*
X1341D01*
X1349D02*
X1362D01*
X1370D02*
X1485D01*
X1515D02*
X1526D01*
X1550D02*
X1573D01*
X1692D02*
X1713D01*
X1768D02*
X1805D01*
X1839D02*
X1866D01*
X1880D02*
X1913D01*
X1980D02*
X2002D01*
X2008D02*
X2048D01*
X2068D02*
X2109D01*
X2137D02*
X2149D01*
X2166D02*
X2188D01*
X2194D02*
X2234D01*
X2252D02*
X2292D01*
X2318D02*
X2330D01*
X2346D02*
X2386D01*
X2407D02*
X2429D01*
X2435D02*
X2475D01*
X2493D02*
X2533D01*
X2554D02*
X2576D01*
X2582D02*
X2622D01*
X1332Y184D02*
X1342D01*
X1349D02*
X1362D01*
X1371D02*
X1486D01*
X1516D02*
X1526D01*
X1548D02*
X1573D01*
X1694D02*
X1715D01*
X1766D02*
X1805D01*
X1839D02*
X1870D01*
X1873D02*
X1913D01*
X1980D02*
X2002D01*
X2004D02*
X2048D01*
X2069D02*
X2110D01*
X2137D02*
X2150D01*
X2166D02*
X2188D01*
X2190D02*
X2234D01*
X2252D02*
X2291D01*
X2318D02*
X2330D01*
X2346D02*
X2385D01*
X2407D02*
X2429D01*
X2431D02*
X2475D01*
X2493D02*
X2532D01*
X2554D02*
X2576D01*
X2578D02*
X2622D01*
X1331Y185D02*
X1342D01*
X1349D02*
X1362D01*
X1372D02*
X1486D01*
X1517D02*
X1526D01*
X1547D02*
X1572D01*
X1696D02*
X1717D01*
X1765D02*
X1804D01*
X1841D02*
X1913D01*
X1981D02*
X2047D01*
X2069D02*
X2111D01*
X2137D02*
X2150D01*
X2167D02*
X2233D01*
X2253D02*
X2291D01*
X2318D02*
X2330D01*
X2347D02*
X2384D01*
X2408D02*
X2474D01*
X2494D02*
X2531D01*
X2555D02*
X2621D01*
X1330Y186D02*
X1343D01*
X1350D02*
X1362D01*
X1372D02*
X1487D01*
X1518D02*
X1527D01*
X1545D02*
X1572D01*
X1698D02*
X1719D01*
X1764D02*
X1804D01*
X1842D02*
X1913D01*
X1981D02*
X2047D01*
X2069D02*
X2112D01*
X2138D02*
X2150D01*
X2167D02*
X2233D01*
X2254D02*
X2290D01*
X2318D02*
X2331D01*
X2348D02*
X2384D01*
X2408D02*
X2474D01*
X2495D02*
X2531D01*
X2555D02*
X2621D01*
X1329Y186D02*
X1343D01*
X1350D02*
X1363D01*
X1373D02*
X1488D01*
X1518D02*
X1528D01*
X1543D02*
X1571D01*
X1700D02*
X1721D01*
X1762D02*
X1804D01*
X1843D02*
X1913D01*
X1982D02*
X2046D01*
X2069D02*
X2113D01*
X2138D02*
X2150D01*
X2168D02*
X2232D01*
X2254D02*
X2289D01*
X2319D02*
X2331D01*
X2348D02*
X2383D01*
X2409D02*
X2473D01*
X2495D02*
X2530D01*
X2556D02*
X2620D01*
X1328Y187D02*
X1344D01*
X1350D02*
X1363D01*
X1374D02*
X1488D01*
X1519D02*
X1528D01*
X1542D02*
X1571D01*
X1702D02*
X1723D01*
X1761D02*
X1804D01*
X1845D02*
X1913D01*
X1983D02*
X2045D01*
X2069D02*
X2114D01*
X2138D02*
X2150D01*
X2169D02*
X2232D01*
X2255D02*
X2289D01*
X2319D02*
X2331D01*
X2349D02*
X2383D01*
X2410D02*
X2472D01*
X2496D02*
X2530D01*
X2557D02*
X2620D01*
X1325Y188D02*
X1345D01*
X1350D02*
X1363D01*
X1374D02*
X1489D01*
X1520D02*
X1529D01*
X1535D02*
X1570D01*
X1704D02*
X1729D01*
X1759D02*
X1803D01*
X1846D02*
X1914D01*
X1983D02*
X2045D01*
X2070D02*
X2115D01*
X2138D02*
X2151D01*
X2169D02*
X2231D01*
X2256D02*
X2288D01*
X2319D02*
X2331D01*
X2350D02*
X2382D01*
X2410D02*
X2472D01*
X2497D02*
X2529D01*
X2557D02*
X2619D01*
X1322Y189D02*
X1345D01*
X1350D02*
X1363D01*
X1375D02*
X1490D01*
X1521D02*
X1569D01*
X1707D02*
X1735D01*
X1757D02*
X1803D01*
X1847D02*
X1914D01*
X1984D02*
X2044D01*
X2070D02*
X2115D01*
X2139D02*
X2151D01*
X2170D02*
X2230D01*
X2256D02*
X2288D01*
X2319D02*
X2332D01*
X2350D02*
X2382D01*
X2411D02*
X2471D01*
X2497D02*
X2529D01*
X2558D02*
X2618D01*
X1319Y190D02*
X1345D01*
X1351D02*
X1364D01*
X1375D02*
X1490D01*
X1523D02*
X1569D01*
X1709D02*
X1741D01*
X1751D02*
X1802D01*
X1849D02*
X1914D01*
X1984D02*
X2043D01*
X2070D02*
X2116D01*
X2139D02*
X2151D01*
X2170D02*
X2229D01*
X2257D02*
X2286D01*
X2319D02*
X2332D01*
X2351D02*
X2380D01*
X2411D02*
X2470D01*
X2498D02*
X2527D01*
X2558D02*
X2617D01*
X1317Y191D02*
X1345D01*
X1351D02*
X1364D01*
X1376D02*
X1491D01*
X1525D02*
X1568D01*
X1711D02*
X1801D01*
X1850D02*
X1914D01*
X1985D02*
X2043D01*
X2070D02*
X2116D01*
X2139D02*
X2151D01*
X2171D02*
X2229D01*
X2258D02*
X2284D01*
X2320D02*
X2332D01*
X2352D02*
X2378D01*
X2412D02*
X2470D01*
X2499D02*
X2525D01*
X2559D02*
X2617D01*
X1318Y192D02*
X1345D01*
X1351D02*
X1364D01*
X1377D02*
X1492D01*
X1526D02*
X1567D01*
X1713D02*
X1800D01*
X1851D02*
X1914D01*
X1986D02*
X2042D01*
X2070D02*
X2117D01*
X2139D02*
X2152D01*
X2172D02*
X2228D01*
X2258D02*
X2283D01*
X2320D02*
X2332D01*
X2352D02*
X2377D01*
X2413D02*
X2469D01*
X2499D02*
X2524D01*
X2560D02*
X2616D01*
X1319Y193D02*
X1345D01*
X1351D02*
X1364D01*
X1377D02*
X1492D01*
X1528D02*
X1566D01*
X1715D02*
X1800D01*
X1853D02*
X1913D01*
X1988D02*
X2041D01*
X2071D02*
X2117D01*
X2139D02*
X2152D01*
X2174D02*
X2227D01*
X2259D02*
X2281D01*
X2320D02*
X2333D01*
X2353D02*
X2375D01*
X2415D02*
X2468D01*
X2500D02*
X2522D01*
X2562D02*
X2615D01*
X1320Y194D02*
X1345D01*
X1351D02*
X1365D01*
X1378D02*
X1493D01*
X1530D02*
X1564D01*
X1717D02*
X1799D01*
X1854D02*
X1913D01*
X1989D02*
X2040D01*
X2071D02*
X2118D01*
X2140D02*
X2152D01*
X2175D02*
X2226D01*
X2260D02*
X2280D01*
X2320D02*
X2333D01*
X2353D02*
X2374D01*
X2416D02*
X2467D01*
X2501D02*
X2521D01*
X2563D02*
X2614D01*
X1321Y195D02*
X1344D01*
X1352D02*
X1365D01*
X1378D02*
X1494D01*
X1532D02*
X1562D01*
X1719D02*
X1798D01*
X1855D02*
X1913D01*
X1990D02*
X2039D01*
X2071D02*
X2118D01*
X2140D02*
X2152D01*
X2176D02*
X2225D01*
X2260D02*
X2277D01*
X2321D02*
X2333D01*
X2354D02*
X2370D01*
X2417D02*
X2466D01*
X2501D02*
X2518D01*
X2564D02*
X2613D01*
X1322Y196D02*
X1344D01*
X1352D02*
X1365D01*
X1379D02*
X1494D01*
X1534D02*
X1561D01*
X1721D02*
X1797D01*
X1857D02*
X1913D01*
X1992D02*
X2037D01*
X2071D02*
X2119D01*
X2140D02*
X2153D01*
X2178D02*
X2223D01*
X2261D02*
X2271D01*
X2321D02*
X2333D01*
X2355D02*
X2365D01*
X2419D02*
X2464D01*
X2502D02*
X2512D01*
X2566D02*
X2611D01*
X1323Y197D02*
X1344D01*
X1352D02*
X1365D01*
X1379D02*
X1495D01*
X1539D02*
X1557D01*
X1723D02*
X1796D01*
X1859D02*
X1912D01*
X1993D02*
X2036D01*
X2071D02*
X2119D01*
X2140D02*
X2153D01*
X2179D02*
X2222D01*
X2321D02*
X2333D01*
X2420D02*
X2463D01*
X2567D02*
X2610D01*
X1324Y198D02*
X1344D01*
X1352D02*
X1365D01*
X1380D02*
X1495D01*
X1548D02*
X1552D01*
X1725D02*
X1795D01*
X1861D02*
X1912D01*
X1994D02*
X2035D01*
X2072D02*
X2120D01*
X2141D02*
X2153D01*
X2180D02*
X2221D01*
X2321D02*
X2334D01*
X2421D02*
X2462D01*
X2568D02*
X2609D01*
X1325Y199D02*
X1344D01*
X1353D02*
X1365D01*
X1380D02*
X1496D01*
X1727D02*
X1794D01*
X1864D02*
X1912D01*
X1996D02*
X2033D01*
X2115D02*
X2121D01*
X2141D02*
X2153D01*
X2182D02*
X2219D01*
X2322D02*
X2334D01*
X2423D02*
X2460D01*
X2570D02*
X2607D01*
X1325Y200D02*
X1344D01*
X1355D02*
X1366D01*
X1381D02*
X1497D01*
X1729D02*
X1792D01*
X1866D02*
X1912D01*
X1997D02*
X2030D01*
X2120D02*
X2121D01*
X2141D02*
X2153D01*
X2183D02*
X2216D01*
X2322D02*
X2334D01*
X2424D02*
X2457D01*
X2571D02*
X2604D01*
X1326Y200D02*
X1344D01*
X1356D02*
X1366D01*
X1382D02*
X1497D01*
X1732D02*
X1791D01*
X1869D02*
X1912D01*
X2000D02*
X2027D01*
X2141D02*
X2154D01*
X2186D02*
X2213D01*
X2322D02*
X2334D01*
X2427D02*
X2454D01*
X2574D02*
X2601D01*
X1327Y201D02*
X1343D01*
X1357D02*
X1366D01*
X1382D02*
X1498D01*
X1736D02*
X1790D01*
X1871D02*
X1911D01*
X2005D02*
X2024D01*
X2142D02*
X2154D01*
X2191D02*
X2210D01*
X2322D02*
X2335D01*
X2432D02*
X2451D01*
X2579D02*
X2598D01*
X1328Y202D02*
X1342D01*
X1358D02*
X1366D01*
X1383D02*
X1445D01*
X1490D02*
X1499D01*
X1739D02*
X1788D01*
X1874D02*
X1911D01*
X2009D02*
X2019D01*
X2142D02*
X2154D01*
X2195D02*
X2205D01*
X2322D02*
X2335D01*
X2436D02*
X2446D01*
X2583D02*
X2593D01*
X1328Y203D02*
X1341D01*
X1359D02*
X1366D01*
X1383D02*
X1441D01*
X1499D02*
X1499D01*
X1743D02*
X1787D01*
X1877D02*
X1911D01*
X2013D02*
X2013D01*
X2142D02*
X2154D01*
X2199D02*
X2199D01*
X2323D02*
X2335D01*
X2440D02*
X2440D01*
X2587D02*
X2587D01*
X1329Y204D02*
X1339D01*
X1360D02*
X1366D01*
X1384D02*
X1437D01*
X1746D02*
X1786D01*
X1882D02*
X1911D01*
X2142D02*
X2155D01*
X2323D02*
X2335D01*
X1330Y205D02*
X1338D01*
X1361D02*
X1366D01*
X1385D02*
X1433D01*
X1750D02*
X1784D01*
X1887D02*
X1910D01*
X1330Y206D02*
X1334D01*
X1363D02*
X1365D01*
X1390D02*
X1417D01*
X1759D02*
X1775D01*
X1892D02*
X1902D01*
X1250Y1757D02*
X1254D01*
Y1755*
X1253Y1752*
X1251Y1750*
X1248Y1749*
X1245*
X1242Y1750*
X1240Y1752*
X1239Y1755*
Y1761*
X1240Y1764*
X1242Y1766*
X1245Y1768*
X1248*
X1251Y1766*
X1253Y1764*
X1254Y1761*
X1264Y1749D02*
Y1768D01*
X1279Y1749*
Y1768*
X1289Y1749D02*
Y1768D01*
X1298*
X1301Y1766*
X1303Y1764*
X1304Y1761*
Y1755*
X1303Y1752*
X1301Y1750*
X1298Y1749*
X1289*
X1377Y460D02*
X1416D01*
X1396Y440D02*
Y479D01*
X2046Y767D02*
X2085D01*
X2065Y747D02*
Y786D01*
X3554Y1511D02*
X3593D01*
X3573Y1491D02*
Y1531D01*
X3665Y1719D02*
Y1712D01*
X3665Y1708*
X3664Y1706*
X3663Y1705*
X3662Y1703*
X3659Y1702*
X3656Y1701*
X3654Y1701*
X3650Y1701*
X3646Y1702*
X3644Y1704*
X3642Y1707*
X3641Y1709*
Y1712*
Y1719*
X3642Y1721*
X3643Y1721*
X3645Y1722*
X3662*
X3664Y1721*
X3665Y1721*
X3665Y1720*
X3665Y1719*
X3662Y1717D02*
X3645D01*
Y1713*
Y1711*
X3646Y1710*
X3647Y1708*
X3649Y1707*
X3654Y1706*
X3656Y1706*
X3659Y1707*
X3660Y1708*
X3661Y1710*
X3662Y1713*
Y1717*
X3657Y1692D02*
X3644D01*
X3642Y1693*
X3641Y1695*
X3642Y1696*
X3644Y1697*
X3657*
X3659Y1696*
X3660Y1695*
X3659Y1693*
X3657Y1692*
X3662Y1695D02*
X3662Y1696D01*
X3664Y1697*
X3665Y1696*
X3666Y1695*
X3665Y1693*
X3665Y1692*
X3664*
X3662Y1693*
X3662Y1695*
X3656Y1671D02*
X3643D01*
X3639Y1672*
X3636Y1673*
X3635Y1676*
X3634Y1678*
Y1680*
X3635Y1685*
X3636Y1686*
X3637Y1687*
X3638Y1688*
X3639*
X3640Y1688*
X3641Y1686*
X3640Y1686*
X3640Y1685*
X3639Y1684*
X3638Y1683*
X3638Y1682*
Y1680*
Y1679*
X3638Y1678*
X3640Y1676*
X3641Y1676*
X3643*
X3645*
X3643Y1677*
X3642Y1678*
X3641Y1680*
Y1682*
X3642Y1684*
X3643Y1686*
X3644Y1687*
X3646Y1688*
X3648Y1689*
X3651Y1689*
X3654Y1689*
X3657Y1687*
X3658Y1684*
X3659Y1682*
X3658Y1678*
X3657Y1677*
X3656Y1676*
X3656*
X3658Y1675*
X3659Y1673*
X3659Y1673*
X3658Y1672*
X3656Y1671*
X3650Y1684D02*
X3648Y1684D01*
X3646Y1683*
X3645Y1682*
X3645Y1680*
X3645Y1678*
X3647Y1676*
X3650Y1676*
X3653Y1676*
X3654Y1677*
X3655Y1678*
X3656Y1680*
X3655Y1682*
X3654Y1683*
X3653Y1684*
X3650Y1684*
X3657Y1662D02*
X3644D01*
X3642Y1663*
X3641Y1664*
X3642Y1666*
X3644Y1667*
X3657*
X3659Y1666*
X3660Y1664*
X3659Y1663*
X3657Y1662*
X3662Y1664D02*
X3662Y1666D01*
X3664Y1667*
X3665Y1666*
X3666Y1664*
X3665Y1663*
X3665Y1662*
X3664*
X3662Y1663*
X3662Y1664*
X3659Y1657D02*
Y1657D01*
X3662*
X3663*
X3664Y1656*
X3665Y1656*
X3665Y1654*
X3665Y1653*
X3664Y1652*
X3662*
X3659*
Y1650*
X3658Y1649*
X3657Y1649*
X3656*
X3656Y1649*
X3655Y1651*
Y1652*
X3647*
X3646*
X3645Y1652*
X3645Y1650*
Y1649*
X3645Y1649*
X3644Y1647*
X3643Y1647*
X3642Y1647*
X3641Y1648*
X3641Y1650*
Y1652*
Y1654*
X3642Y1655*
X3643Y1656*
X3643Y1656*
X3645Y1657*
X3647*
X3655*
Y1658*
X3656Y1659*
X3657Y1660*
X3658Y1659*
X3659Y1657*
X3644Y1634D02*
X3643Y1636D01*
X3642Y1637*
X3641Y1641*
X3642Y1644*
X3643Y1646*
X3646Y1647*
X3648Y1646*
X3649Y1645*
X3651Y1644*
X3651Y1642*
X3651Y1641*
Y1640*
X3652Y1637*
X3653Y1634*
X3654Y1635*
X3656Y1635*
X3656Y1636*
X3656Y1638*
Y1639*
X3656Y1640*
X3654Y1642*
X3653Y1643*
X3653Y1644*
X3653Y1645*
X3654Y1646*
X3656Y1645*
X3657Y1645*
X3658Y1644*
X3659Y1642*
X3659Y1640*
X3660Y1638*
X3659Y1635*
X3659Y1633*
X3658Y1632*
X3656Y1631*
X3655Y1630*
X3653*
X3650*
X3647*
X3645Y1630*
X3643Y1629*
X3643*
X3641Y1630*
X3641Y1631*
X3642Y1633*
X3644Y1634*
X3650Y1634D02*
X3650Y1636D01*
X3649Y1637*
X3649Y1639*
Y1640*
X3648Y1641*
X3647Y1642*
X3646Y1641*
X3645Y1641*
X3644Y1639*
X3645Y1637*
X3646Y1635*
X3647Y1634*
X3649*
X3650*
X3644Y1625D02*
X3664D01*
X3665Y1624*
X3666Y1623*
X3665Y1621*
X3664Y1621*
X3644*
X3643*
X3642Y1621*
X3641Y1623*
X3642Y1624*
X3644Y1625*
X3642Y1621D02*
X3666D01*
X3641Y1622D02*
X3666D01*
X3641Y1623D02*
X3666D01*
X3642Y1624D02*
X3666D01*
X3644Y1625D02*
X3664D01*
X3641Y1630D02*
X3646D01*
X3641Y1631D02*
X3656D01*
X3641Y1632D02*
X3658D01*
X3642Y1633D02*
X3659D01*
X3643Y1634D02*
X3659D01*
X3643Y1635D02*
X3647D01*
X3650D02*
X3653D01*
X3654D02*
X3659D01*
X3643Y1635D02*
X3646D01*
X3650D02*
X3653D01*
X3656D02*
X3659D01*
X3642Y1636D02*
X3645D01*
X3650D02*
X3652D01*
X3656D02*
X3659D01*
X3642Y1637D02*
X3645D01*
X3649D02*
X3652D01*
X3656D02*
X3660D01*
X3642Y1638D02*
X3644D01*
X3649D02*
X3652D01*
X3656D02*
X3660D01*
X3641Y1639D02*
X3644D01*
X3649D02*
X3651D01*
X3656D02*
X3659D01*
X3641Y1640D02*
X3645D01*
X3649D02*
X3651D01*
X3656D02*
X3659D01*
X3641Y1641D02*
X3645D01*
X3648D02*
X3651D01*
X3655D02*
X3659D01*
X3641Y1642D02*
X3651D01*
X3654D02*
X3659D01*
X3642Y1643D02*
X3651D01*
X3653D02*
X3658D01*
X3642Y1644D02*
X3650D01*
X3653D02*
X3658D01*
X3643Y1645D02*
X3650D01*
X3653D02*
X3657D01*
X3644Y1646D02*
X3649D01*
X3642Y1648D02*
X3644D01*
X3641Y1649D02*
X3645D01*
X3656D02*
X3657D01*
X3641Y1650D02*
X3645D01*
X3656D02*
X3659D01*
X3641Y1650D02*
X3645D01*
X3655D02*
X3659D01*
X3641Y1651D02*
X3645D01*
X3655D02*
X3659D01*
X3641Y1652D02*
X3664D01*
X3641Y1653D02*
X3665D01*
X3641Y1654D02*
X3665D01*
X3642Y1655D02*
X3665D01*
X3643Y1656D02*
X3665D01*
X3655Y1657D02*
X3659D01*
X3655Y1658D02*
X3659D01*
X3656Y1659D02*
X3658D01*
X3642Y1663D02*
X3659D01*
X3662D02*
X3665D01*
X3641Y1664D02*
X3659D01*
X3662D02*
X3666D01*
X3641Y1665D02*
X3659D01*
X3662D02*
X3666D01*
X3642Y1665D02*
X3659D01*
X3662D02*
X3665D01*
X3643Y1666D02*
X3657D01*
X3663D02*
X3664D01*
X3639Y1672D02*
X3659D01*
X3637Y1673D02*
X3659D01*
X3636Y1674D02*
X3659D01*
X3635Y1675D02*
X3658D01*
X3635Y1676D02*
X3641D01*
X3645D02*
X3650D01*
X3651D02*
X3656D01*
X3635Y1677D02*
X3639D01*
X3643D02*
X3647D01*
X3654D02*
X3657D01*
X3634Y1678D02*
X3638D01*
X3643D02*
X3646D01*
X3655D02*
X3658D01*
X3634Y1679D02*
X3638D01*
X3642D02*
X3645D01*
X3655D02*
X3659D01*
X3634Y1680D02*
X3638D01*
X3642D02*
X3645D01*
X3656D02*
X3659D01*
X3634Y1680D02*
X3638D01*
X3641D02*
X3645D01*
X3656D02*
X3659D01*
X3635Y1681D02*
X3638D01*
X3641D02*
X3645D01*
X3655D02*
X3659D01*
X3635Y1682D02*
X3638D01*
X3642D02*
X3646D01*
X3655D02*
X3659D01*
X3635Y1683D02*
X3638D01*
X3642D02*
X3646D01*
X3654D02*
X3659D01*
X3635Y1684D02*
X3639D01*
X3642D02*
X3649D01*
X3651D02*
X3658D01*
X3635Y1685D02*
X3640D01*
X3643D02*
X3658D01*
X3636Y1686D02*
X3641D01*
X3643D02*
X3657D01*
X3636Y1687D02*
X3641D01*
X3644D02*
X3656D01*
X3637Y1688D02*
X3640D01*
X3645D02*
X3655D01*
X3649Y1689D02*
X3652D01*
X3643Y1693D02*
X3658D01*
X3663D02*
X3665D01*
X3642Y1694D02*
X3659D01*
X3662D02*
X3666D01*
X3641Y1695D02*
X3660D01*
X3662D02*
X3666D01*
X3642Y1695D02*
X3659D01*
X3662D02*
X3665D01*
X3642Y1696D02*
X3658D01*
X3662D02*
X3665D01*
X3652Y1701D02*
X3655D01*
X3648Y1702D02*
X3660D01*
X3646Y1703D02*
X3661D01*
X3644Y1704D02*
X3662D01*
X3644Y1705D02*
X3663D01*
X3643Y1706D02*
X3664D01*
X3642Y1707D02*
X3650D01*
X3657D02*
X3664D01*
X3642Y1708D02*
X3648D01*
X3659D02*
X3665D01*
X3642Y1709D02*
X3646D01*
X3661D02*
X3665D01*
X3641Y1709D02*
X3646D01*
X3661D02*
X3665D01*
X3641Y1710D02*
X3646D01*
X3661D02*
X3665D01*
X3641Y1711D02*
X3645D01*
X3661D02*
X3665D01*
X3641Y1712D02*
X3645D01*
X3661D02*
X3665D01*
X3641Y1713D02*
X3645D01*
X3662D02*
X3665D01*
X3641Y1714D02*
X3645D01*
X3662D02*
X3665D01*
X3641Y1715D02*
X3645D01*
X3662D02*
X3665D01*
X3641Y1716D02*
X3645D01*
X3662D02*
X3665D01*
X3641Y1717D02*
X3665D01*
X3641Y1718D02*
X3665D01*
X3642Y1719D02*
X3665D01*
X3642Y1720D02*
X3665D01*
X3642Y1721D02*
X3665D01*
X3645Y1722D02*
X3663D01*
D02*
D12*
X3Y3D02*
X3937D01*
Y1811*
X3*
Y3*
X19Y1308D02*
X239D01*
Y1388*
X19*
Y1308*
X20Y1433D02*
X240D01*
Y1513*
X20*
Y1433*
X73Y1075D02*
X70Y1072D01*
X64Y1069*
X54*
X48Y1072*
X45Y1075*
X42Y1081*
Y1094*
X45Y1100*
X48Y1103*
X54Y1106*
X64*
X70Y1103*
X73Y1100*
X117Y1069D02*
X92D01*
X114Y1090*
X117Y1097*
X114Y1103*
X107Y1106*
X98*
X92Y1103*
X148Y1069D02*
X161D01*
X154D02*
Y1106D01*
X148Y1100*
X97Y1137D02*
Y1297D01*
X27*
Y1137*
X97*
X117Y1240D02*
X113Y1244D01*
X110Y1250*
Y1259*
X113Y1265*
X117Y1269*
X123Y1272*
X135*
X142Y1269*
X145Y1265*
X148Y1259*
Y1250*
X145Y1244*
X142Y1240*
X110Y1215D02*
Y1203D01*
Y1209D02*
X148D01*
X142Y1215*
X113Y1169D02*
X110Y1162D01*
Y1156*
X113Y1150*
X120Y1147*
X126Y1150*
X129Y1156*
Y1162*
Y1156D02*
X132Y1150D01*
X138Y1147*
X145Y1150*
X148Y1156*
Y1162*
X145Y1169*
X109Y1393D02*
Y1431D01*
X131*
X137Y1428*
X140Y1421*
X137Y1415*
X131Y1412*
X109*
X131D02*
X140Y1393D01*
X165D02*
X178D01*
X171D02*
Y1431D01*
X165Y1425*
X215Y1393D02*
X228D01*
X221D02*
Y1431D01*
X215Y1425*
X111Y1517D02*
Y1555D01*
X133*
X139Y1552*
X142Y1545*
X139Y1539*
X133Y1536*
X111*
X133D02*
X142Y1517D01*
X167D02*
X180D01*
X173D02*
Y1555D01*
X167Y1549*
X214Y1520D02*
X220Y1517D01*
X226*
X233Y1520*
X236Y1527*
Y1545*
X233Y1552*
X226Y1555*
X220*
X214Y1552*
X211Y1545*
Y1527*
X214Y1520*
X233Y1552*
X167Y909D02*
X387D01*
Y989*
X167*
Y909*
X177Y698D02*
X337D01*
Y768*
X177*
Y698*
X191Y1130D02*
Y1092D01*
X223*
X241D02*
Y1130D01*
X273*
X266Y1111D02*
X241D01*
Y1092D02*
X273D01*
X291D02*
Y1130D01*
X310*
X316Y1127*
X320Y1123*
X323Y1117*
Y1105*
X320Y1098*
X316Y1095*
X310Y1092*
X291*
X348D02*
X360D01*
X354D02*
Y1130D01*
X348Y1123*
X246Y653D02*
X243Y650D01*
X237Y647*
X228*
X221Y650*
X218Y653*
X215Y660*
Y672*
X218Y678*
X221Y682*
X228Y685*
X237*
X243Y682*
X246Y678*
X268Y650D02*
X274Y647D01*
X281*
X287Y650*
X290Y657*
X287Y663*
X281Y666*
X274*
X281D02*
X287Y669D01*
X290Y675*
X287Y682*
X281Y685*
X274*
X268Y682*
X226Y1137D02*
Y1297D01*
X156*
Y1137*
X226*
X235Y856D02*
Y893D01*
X257*
X263Y890*
X266Y884*
X263Y878*
X257Y875*
X235*
X257D02*
X266Y856D01*
X310D02*
X285D01*
X307Y878*
X310Y884*
X307Y890*
X300Y893*
X291*
X285Y890*
X283Y1160D02*
Y1574D01*
X704*
Y1152*
X291*
X283Y1160*
X315Y1663D02*
X475D01*
Y1733*
X315*
Y1663*
X368Y1756D02*
X365Y1753D01*
X359Y1750*
X350*
X343Y1753*
X340Y1756*
X337Y1762*
Y1775*
X340Y1781*
X343Y1784*
X350Y1787*
X359*
X365Y1784*
X368Y1781*
X393Y1750D02*
X406D01*
X400D02*
Y1787D01*
X393Y1781*
X453Y1750D02*
Y1787D01*
X437Y1762*
X462*
X357Y289D02*
X388Y326D01*
X357D02*
X388Y289D01*
X422D02*
Y326D01*
X407D02*
X438D01*
X457Y289D02*
X472Y326D01*
X488Y289*
X463Y305D02*
X482D01*
X507Y326D02*
Y289D01*
X538*
X582D02*
X557D01*
X579Y311*
X582Y317*
X579Y323*
X572Y326*
X563*
X557Y323*
X358Y1084D02*
X198D01*
Y1014*
X358*
Y1084*
X385Y1152D02*
X388Y1153D01*
X389Y1156*
X388Y1159*
X385Y1161*
X382Y1159*
X381Y1156*
X382Y1153*
X385Y1152*
X381Y1155D02*
X389D01*
X381Y1158D02*
X389D01*
X522Y797D02*
X553Y834D01*
X522D02*
X553Y797D01*
X588D02*
Y834D01*
X572D02*
X603D01*
X622Y797D02*
X638Y834D01*
X653Y797*
X628Y812D02*
X647D01*
X672Y834D02*
Y797D01*
X703*
X728D02*
X741D01*
X735D02*
Y834D01*
X728Y828*
X542Y1626D02*
Y1598D01*
X545Y1591*
X551Y1588*
X564*
X570Y1591*
X573Y1598*
Y1626*
X607Y1588D02*
Y1626D01*
X592Y1601*
X617*
X577Y1067D02*
X574Y1064D01*
X568Y1061*
X558*
X552Y1064*
X549Y1067*
X546Y1073*
Y1086*
X549Y1092*
X552Y1095*
X558Y1098*
X568*
X574Y1095*
X577Y1092*
X602Y1061D02*
X615D01*
X608D02*
Y1098D01*
X602Y1092*
X579Y788D02*
Y355D01*
X369*
Y788*
X468*
Y782*
X480*
Y788*
X579*
X644Y512D02*
X641Y509D01*
X635Y506*
X625*
X619Y509*
X616Y512*
X613Y518*
Y531*
X616Y537*
X619Y540*
X625Y543*
X635*
X641Y540*
X644Y537*
X678Y506D02*
Y543D01*
X663Y518*
X688*
X652Y1044D02*
X492D01*
Y974*
X652*
Y1044*
X686Y614D02*
Y774D01*
X616*
Y614*
X686*
X735Y1622D02*
X731Y1619D01*
X725Y1616*
X716*
X710Y1619*
X706Y1622*
X703Y1628*
Y1641*
X706Y1647*
X710Y1650*
X716Y1653*
X725*
X731Y1650*
X735Y1647*
X760Y1616D02*
X772D01*
X766D02*
Y1653D01*
X760Y1647*
X803Y1619D02*
X810Y1616D01*
X819*
X825Y1619*
X828Y1625*
Y1628*
X825Y1635*
X819Y1638*
X803*
Y1653*
X828*
X730Y940D02*
X741Y939D01*
X751Y935*
X761Y930*
X769Y922*
X775Y912*
X778Y902*
X780Y890*
X778Y879*
X775Y869*
X769Y859*
X761Y851*
X751Y845*
X741Y842*
X730Y840*
X530*
X519Y842*
X508Y845*
X498Y851*
X491Y859*
X485Y869*
X481Y879*
X480Y890*
X481Y902*
X485Y912*
X491Y922*
X498Y930*
X508Y935*
X519Y939*
X530Y940*
X730*
X770Y1067D02*
X767Y1064D01*
X761Y1061*
X751*
X745Y1064*
X742Y1067*
X739Y1073*
Y1086*
X742Y1092*
X745Y1095*
X751Y1098*
X761*
X767Y1095*
X770Y1092*
X814Y1061D02*
X789D01*
X811Y1083*
X814Y1089*
X811Y1095*
X804Y1098*
X795*
X789Y1095*
X782Y291D02*
X779Y288D01*
X772Y285*
X763*
X757Y288*
X754Y291*
X751Y298*
Y310*
X754Y316*
X757Y319*
X763Y323*
X772*
X779Y319*
X782Y316*
X807Y285D02*
X819D01*
X813D02*
Y323D01*
X807Y316*
X851Y285D02*
X876Y323D01*
X851*
X754Y1600D02*
Y1440D01*
X824*
Y1600*
X754*
X778Y636D02*
Y674D01*
X800*
X806Y671*
X809Y665*
X806Y658*
X800Y655*
X778*
X800D02*
X809Y636D01*
X834D02*
X847D01*
X841D02*
Y674D01*
X834Y668*
X788Y902D02*
Y682D01*
X868*
Y902*
X788*
X858Y1740D02*
X896D01*
Y1718*
X893Y1712*
X886Y1709*
X880Y1712*
X877Y1718*
Y1740*
X896Y1690D02*
X858D01*
Y1659*
X877Y1631D02*
Y1625D01*
X880Y1618*
X886Y1615*
X893Y1618*
X896Y1625*
Y1631*
X893Y1637*
X886Y1640*
X880Y1637*
X877Y1631*
X874Y1637*
X868Y1640*
X861Y1637*
X858Y1631*
Y1625*
X861Y1618*
X868Y1615*
X874Y1618*
X877Y1625*
X849Y1044D02*
X689D01*
Y974*
X849*
Y1044*
X876Y1441D02*
X1096D01*
Y1521*
X876*
Y1441*
X883Y345D02*
Y629D01*
X743*
Y345*
X883*
X947Y1533D02*
Y1571D01*
X969*
X976Y1567*
X979Y1561*
X976Y1555*
X969Y1552*
X947*
X969D02*
X979Y1533D01*
X1001Y1536D02*
X1007Y1533D01*
X1013*
X1019Y1536*
X1022Y1542*
X1019Y1549*
X1013Y1552*
X1007*
X1013D02*
X1019Y1555D01*
X1022Y1561*
X1019Y1567*
X1013Y1571*
X1007*
X1001Y1567*
X960Y835D02*
X1287D01*
Y355*
X960*
Y580*
X975*
Y610*
X960*
Y835*
X1054Y885D02*
X1058Y878D01*
X1064Y875*
X1076*
X1083Y878*
X1086Y885*
X1083Y891*
X1076Y894*
X1064*
X1058Y897*
X1054Y903*
X1058Y910*
X1064Y913*
X1076*
X1083Y910*
X1086Y903*
X1104Y913D02*
X1108Y875D01*
X1120Y894*
X1133Y875*
X1136Y913*
X1161Y875D02*
X1173D01*
X1167D02*
Y913D01*
X1161Y906*
X1211Y1537D02*
Y1575D01*
X1233*
X1239Y1571*
X1242Y1565*
X1239Y1559*
X1233Y1556*
X1211*
X1233D02*
X1242Y1537D01*
X1277D02*
Y1575D01*
X1261Y1550*
X1286*
X1329Y639D02*
Y355D01*
X1469*
Y639*
X1329*
X1341Y659D02*
Y697D01*
X1363*
X1369Y693*
X1372Y687*
X1369Y681*
X1363Y678*
X1341*
X1363D02*
X1372Y659D01*
X1391Y662D02*
X1397Y659D01*
X1407*
X1413Y662*
X1416Y668*
Y672*
X1413Y678*
X1407Y681*
X1391*
Y697*
X1416*
X1380Y307D02*
X1377Y304D01*
X1371Y301*
X1361*
X1355Y304*
X1352Y307*
X1349Y314*
Y326*
X1352Y332*
X1355Y335*
X1361Y339*
X1371*
X1377Y335*
X1380Y332*
X1408Y320D02*
X1415D01*
X1421Y323*
X1424Y329*
X1421Y335*
X1415Y339*
X1408*
X1402Y335*
X1399Y329*
X1402Y323*
X1408Y320*
X1402Y317*
X1399Y310*
X1402Y304*
X1408Y301*
X1415*
X1421Y304*
X1424Y310*
X1421Y317*
X1415Y320*
X1371Y1521D02*
X1151D01*
Y1441*
X1371*
Y1521*
X1400Y1753D02*
X1437D01*
Y1731*
X1434Y1725*
X1428Y1722*
X1422Y1725*
X1419Y1731*
Y1753*
X1437Y1703D02*
X1400D01*
Y1672*
Y1637D02*
X1437D01*
X1412Y1653*
Y1628*
X1419Y721D02*
Y941D01*
X1339*
Y721*
X1419*
X1422Y1008D02*
X1642D01*
Y1088*
X1422*
Y1008*
X1496Y1485D02*
X1656D01*
Y1555*
X1496*
Y1485*
X1499Y1145D02*
Y1108D01*
X1530*
X1574D02*
X1549D01*
X1570Y1130*
X1574Y1136*
X1570Y1142*
X1564Y1145*
X1555*
X1549Y1142*
X1542Y1429D02*
X1539Y1426D01*
X1532Y1423*
X1523*
X1517Y1426*
X1514Y1429*
X1510Y1435*
Y1448*
X1514Y1454*
X1517Y1457*
X1523Y1460*
X1532*
X1539Y1457*
X1542Y1454*
X1585Y1423D02*
X1560D01*
X1582Y1445*
X1585Y1451*
X1582Y1457*
X1576Y1460*
X1567*
X1560Y1457*
X1610Y1426D02*
X1617Y1423D01*
X1626*
X1632Y1426*
X1635Y1432*
Y1435*
X1632Y1442*
X1626Y1445*
X1610*
Y1460*
X1635*
X1609Y750D02*
Y787D01*
X1631*
X1637Y784*
X1640Y778*
X1637Y771*
X1631Y768*
X1609*
X1631D02*
X1640Y750D01*
X1668Y768D02*
X1674D01*
X1681Y771*
X1684Y778*
X1681Y784*
X1674Y787*
X1668*
X1662Y784*
X1659Y778*
X1662Y771*
X1668Y768*
X1662Y765*
X1659Y759*
X1662Y753*
X1668Y750*
X1674*
X1681Y753*
X1684Y759*
X1681Y765*
X1674Y768*
X1640Y289D02*
Y326D01*
X1662*
X1668Y323*
X1672Y317*
X1668Y311*
X1662Y308*
X1640*
X1690Y326D02*
Y289D01*
X1722*
X1740D02*
X1765Y326D01*
X1740*
X1695Y961D02*
X1692Y957D01*
X1686Y954*
X1676*
X1670Y957*
X1667Y961*
X1664Y967*
Y979*
X1667Y986*
X1670Y989*
X1676Y992*
X1686*
X1692Y989*
X1695Y986*
X1739Y954D02*
X1714D01*
X1736Y976*
X1739Y982*
X1736Y989*
X1730Y992*
X1720*
X1714Y989*
X1773Y973D02*
X1780D01*
X1786Y976*
X1789Y982*
X1786Y989*
X1780Y992*
X1773*
X1767Y989*
X1764Y982*
X1767Y976*
X1773Y973*
X1767Y970*
X1764Y964*
X1767Y957*
X1773Y954*
X1780*
X1786Y957*
X1789Y964*
X1786Y970*
X1780Y973*
X1688Y508D02*
Y479D01*
X1691Y473*
X1697Y470*
X1709*
X1716Y473*
X1719Y479*
Y508*
X1763Y470D02*
X1738D01*
X1759Y492*
X1763Y498*
X1759Y504*
X1753Y508*
X1744*
X1738Y504*
X1754Y1753D02*
X1792D01*
Y1731*
X1789Y1725*
X1782Y1722*
X1776Y1725*
X1773Y1731*
Y1753*
X1792Y1703D02*
X1754D01*
Y1672*
X1757Y1650D02*
X1754Y1643D01*
Y1637*
X1757Y1631*
X1764Y1628*
X1770Y1631*
X1773Y1637*
Y1643*
Y1637D02*
X1776Y1631D01*
X1782Y1628*
X1789Y1631*
X1792Y1637*
Y1643*
X1789Y1650*
X1819Y1224D02*
X1856D01*
Y1203*
X1853Y1196*
X1847Y1193*
X1841Y1196*
X1838Y1203*
Y1224*
Y1203D02*
X1819Y1193D01*
Y1174D02*
X1856Y1149D01*
Y1174*
X1823Y1110D02*
X1860D01*
Y1088*
X1857Y1082*
X1851Y1079*
X1845Y1082*
X1842Y1088*
Y1110*
Y1088D02*
X1823Y1079D01*
X1832Y1060D02*
X1839Y1057D01*
X1842Y1051*
Y1045*
X1839Y1038*
X1832Y1035*
X1826Y1038*
X1823Y1045*
Y1051*
X1826Y1057*
X1832Y1060*
X1842*
X1851Y1057*
X1857Y1051*
X1860Y1045*
X1819Y734D02*
X1599D01*
Y654*
X1819*
Y734*
X1823Y940D02*
X1663D01*
Y870*
X1823*
Y940*
X1841Y632D02*
Y519D01*
X1616*
Y632*
X1714*
Y617*
X1743*
Y632*
X1841*
X1850Y1485D02*
X2010D01*
Y1555*
X1850*
Y1485*
X1904Y1433D02*
X1901Y1430D01*
X1894Y1427*
X1885*
X1879Y1430*
X1876Y1433*
X1873Y1439*
Y1452*
X1876Y1458*
X1879Y1461*
X1885Y1464*
X1894*
X1901Y1461*
X1904Y1458*
X1948Y1427D02*
X1923D01*
X1944Y1449*
X1948Y1455*
X1944Y1461*
X1938Y1464*
X1929*
X1923Y1461*
X1988Y1427D02*
Y1464D01*
X1973Y1439*
X1998*
X1885Y629D02*
Y345D01*
X2025*
Y629*
X1885*
X1886Y877D02*
Y657D01*
X1966*
Y877*
X1886*
X1892Y289D02*
Y326D01*
X1914*
X1920Y323*
X1924Y317*
X1920Y311*
X1914Y308*
X1892*
X1914D02*
X1924Y289D01*
X1949D02*
X1961D01*
X1955D02*
Y326D01*
X1949Y320*
X2017Y289D02*
X1992D01*
X2014Y311*
X2017Y317*
X2014Y323*
X2008Y326*
X1999*
X1992Y323*
X1896Y891D02*
Y929D01*
X1918*
X1924Y926*
X1927Y919*
X1924Y913*
X1918Y910*
X1896*
X1918D02*
X1927Y891D01*
X1956D02*
X1962Y894D01*
X1968Y901*
X1971Y910*
Y919*
X1968Y926*
X1962Y929*
X1956*
X1949Y926*
X1946Y919*
X1949Y913*
X1956Y910*
X1962*
X1968Y913*
X1971Y919*
X2077Y591D02*
X2074Y587D01*
X2068Y584*
X2058*
X2052Y587*
X2049Y591*
X2046Y597*
Y609*
X2049Y616*
X2052Y619*
X2058Y622*
X2068*
X2074Y619*
X2077Y616*
X2121Y584D02*
X2096D01*
X2118Y606*
X2121Y612*
X2118Y619*
X2111Y622*
X2102*
X2096Y619*
X2146Y584D02*
X2171Y622D01*
X2146*
X2109Y1753D02*
X2146D01*
Y1731*
X2143Y1725*
X2137Y1722*
X2130Y1725*
X2127Y1731*
Y1753*
X2146Y1703D02*
X2109D01*
Y1672*
Y1628D02*
Y1653D01*
X2130Y1631*
X2137Y1628*
X2143Y1631*
X2146Y1637*
Y1647*
X2143Y1653*
X2104Y1117D02*
X1884D01*
Y1037*
X2104*
Y1117*
Y1231D02*
X1884D01*
Y1151*
X2104*
Y1231*
X2133Y660D02*
Y944D01*
X1993*
Y660*
X2133*
X2174Y1237D02*
X3784D01*
Y327*
X2174*
Y776*
X2180*
Y788*
X2174*
Y1237*
X2195Y1299D02*
Y1271D01*
X2199Y1265*
X2205Y1261*
X2217*
X2224Y1265*
X2227Y1271*
Y1299*
X2252Y1261D02*
X2264D01*
X2258D02*
Y1299D01*
X2252Y1293*
X2205Y1485D02*
X2365D01*
Y1555*
X2205*
Y1485*
X2250Y1429D02*
X2247Y1426D01*
X2241Y1423*
X2232*
X2225Y1426*
X2222Y1429*
X2219Y1435*
Y1448*
X2222Y1454*
X2225Y1457*
X2232Y1460*
X2241*
X2247Y1457*
X2250Y1454*
X2294Y1423D02*
X2269D01*
X2291Y1445*
X2294Y1451*
X2291Y1457*
X2285Y1460*
X2275*
X2269Y1457*
X2322Y1426D02*
X2328Y1423D01*
X2335*
X2341Y1426*
X2344Y1432*
X2341Y1438*
X2335Y1442*
X2328*
X2335D02*
X2341Y1445D01*
X2344Y1451*
X2341Y1457*
X2335Y1460*
X2328*
X2322Y1457*
X2463Y1753D02*
X2500D01*
Y1731*
X2497Y1725*
X2491Y1722*
X2485Y1725*
X2482Y1731*
Y1753*
X2500Y1703D02*
X2463D01*
Y1672*
Y1647D02*
Y1634D01*
Y1640D02*
X2500D01*
X2494Y1647*
X2559Y1485D02*
X2719D01*
Y1555*
X2559*
Y1485*
X2609Y1425D02*
X2605Y1422D01*
X2599Y1419*
X2590*
X2584Y1422*
X2580Y1425*
X2577Y1431*
Y1444*
X2580Y1450*
X2584Y1453*
X2590Y1456*
X2599*
X2605Y1453*
X2609Y1450*
X2652Y1419D02*
X2627D01*
X2649Y1441*
X2652Y1447*
X2649Y1453*
X2643Y1456*
X2634*
X2627Y1453*
X2702Y1419D02*
X2677D01*
X2699Y1441*
X2702Y1447*
X2699Y1453*
X2693Y1456*
X2684*
X2677Y1453*
X2798Y1753D02*
X2835D01*
Y1731*
X2832Y1725*
X2826Y1722*
X2819Y1725*
X2816Y1731*
Y1753*
X2835Y1703D02*
X2798D01*
Y1672*
X2801Y1650D02*
X2798Y1643D01*
Y1637*
X2801Y1631*
X2807Y1628*
X2826*
X2832Y1631*
X2835Y1637*
Y1643*
X2832Y1650*
X2826Y1653*
X2807*
X2801Y1650*
X2832Y1631*
X2894Y1485D02*
X3054D01*
Y1555*
X2894*
Y1485*
X2951Y1433D02*
X2948Y1430D01*
X2942Y1427*
X2932*
X2926Y1430*
X2923Y1433*
X2920Y1439*
Y1452*
X2923Y1458*
X2926Y1461*
X2932Y1464*
X2942*
X2948Y1461*
X2951Y1458*
X2995Y1427D02*
X2970D01*
X2992Y1449*
X2995Y1455*
X2992Y1461*
X2985Y1464*
X2976*
X2970Y1461*
X3020Y1436D02*
X3023Y1442D01*
X3029Y1446*
X3035*
X3042Y1442*
X3045Y1436*
X3042Y1430*
X3035Y1427*
X3029*
X3023Y1430*
X3020Y1436*
Y1446*
X3023Y1455*
X3029Y1461*
X3035Y1464*
X3452Y1742D02*
Y1780D01*
X3473*
X3480Y1777*
X3483Y1770*
X3480Y1764*
X3473Y1761*
X3452*
X3502Y1780D02*
Y1742D01*
X3533*
X3552Y1752D02*
X3555Y1758D01*
X3561Y1761*
X3567*
X3573Y1758*
X3577Y1752*
X3573Y1745*
X3567Y1742*
X3561*
X3555Y1745*
X3552Y1752*
Y1761*
X3555Y1770*
X3561Y1777*
X3567Y1780*
X3677Y1581D02*
X3393D01*
Y1441*
X3677*
Y1581*
X3735Y1476D02*
X3738Y1473D01*
X3741Y1467*
Y1457*
X3738Y1451*
X3735Y1448*
X3729Y1445*
X3716*
X3710Y1448*
X3707Y1451*
X3704Y1457*
Y1467*
X3707Y1473*
X3710Y1476*
X3741Y1520D02*
Y1495D01*
X3719Y1517*
X3713Y1520*
X3707Y1517*
X3704Y1511*
Y1501*
X3707Y1495*
X3738Y1548D02*
X3741Y1554D01*
Y1561*
X3738Y1567*
X3732Y1570*
X3713*
X3707Y1567*
X3704Y1561*
Y1554*
X3707Y1548*
X3713Y1545*
X3732*
X3738Y1548*
X3707Y1567*
D02*
D13*
X916Y1628D02*
X1316D01*
Y1728*
X916*
Y1628*
X1600Y353D02*
X1800D01*
Y453*
X1600*
Y353*
X1665Y1728D02*
X1465D01*
Y1628*
X1665*
Y1728*
X2020D02*
X1820D01*
Y1628*
X2020*
Y1728*
X2374D02*
X2174D01*
Y1628*
X2374*
Y1728*
X2728D02*
X2528D01*
Y1628*
X2728*
Y1728*
X3063D02*
X2863D01*
Y1628*
X3063*
Y1728*
X3619Y1723D02*
X3419D01*
Y1623*
X3619*
Y1723*
D02*
D128*
X156Y1657D03*
X159Y162D03*
X3781D03*
X3782Y1653D03*
X0Y0D02*
M02*
