%FSLAX23Y23*%
%MOIN*%
G04 EasyPC Gerber Version 12.0.1 Build 2704 *
%ADD126R,0.08000X0.08000*%
%ADD86C,0.02500*%
%ADD87C,0.03000*%
%ADD127C,0.05189*%
%ADD92C,0.05200*%
%ADD125C,0.08000*%
%ADD124C,0.14402*%
X0Y0D02*
D02*
D86*
X3Y3D02*
X3937D01*
Y1811*
X3*
Y3*
X262Y1756D02*
Y1522D01*
X12*
Y556*
X262*
Y306*
X1462*
Y1306*
X3812*
Y1756*
X262*
X43Y1413D02*
X44Y1422D01*
X48Y1430*
X55Y1437*
X63Y1441*
X71Y1442*
X80Y1441*
X88Y1437*
X94Y1430*
X99Y1422*
X100Y1413*
X99Y1405*
X94Y1397*
X88Y1390*
X80Y1386*
X71Y1385*
X63Y1386*
X55Y1390*
X48Y1397*
X44Y1405*
X43Y1413*
X187Y812D02*
X189Y820D01*
X193Y828*
X200Y834*
X209Y837*
X217*
X226Y834*
X232Y828*
X237Y820*
X238Y812*
X237Y803*
X232Y795*
X226Y790*
X217Y787*
X209*
X200Y790*
X193Y795*
X189Y803*
X187Y812*
X233Y1272D02*
X234Y1280D01*
X239Y1288*
X246Y1294*
X254Y1297*
X263*
X271Y1294*
X278Y1288*
X282Y1280*
X284Y1272*
X282Y1263*
X278Y1255*
X271Y1250*
X263Y1247*
X254*
X246Y1250*
X239Y1255*
X234Y1263*
X233Y1272*
X293Y1189D02*
X294Y1198D01*
X298Y1206*
X305Y1212*
X313Y1216*
X321Y1217*
X330Y1216*
X338Y1212*
X344Y1206*
X348Y1198*
X350Y1189*
X348Y1180*
X344Y1172*
X338Y1166*
X330Y1162*
X321Y1161*
X313Y1162*
X305Y1166*
X298Y1172*
X294Y1180*
X293Y1189*
X383Y1323D02*
X384Y1332D01*
X389Y1339*
X395Y1345*
X404Y1348*
X412*
X421Y1345*
X428Y1339*
X432Y1332*
X433Y1323*
X432Y1314*
X428Y1307*
X421Y1301*
X412Y1298*
X404*
X395Y1301*
X389Y1307*
X384Y1314*
X383Y1323*
X401Y1607D02*
X396Y1600D01*
X390Y1594*
X382Y1591*
X373Y1590*
X365Y1592*
X358Y1596*
X352Y1603*
X348Y1610*
X347Y1619*
X348Y1627*
X352Y1635*
X358Y1641*
X365Y1645*
X374Y1647*
X382Y1646*
X390Y1643*
X397Y1637*
X401Y1630*
X406Y1637*
X414Y1641*
X422Y1644*
X430Y1643*
X438Y1639*
X444Y1634*
X448Y1626*
X449Y1618*
X448Y1610*
X444Y1602*
X437Y1597*
X430Y1593*
X421Y1593*
X413Y1595*
X406Y1600*
X401Y1607*
X418Y1366D02*
X420Y1375D01*
X424Y1383*
X431Y1388*
X439Y1391*
X448*
X456Y1388*
X463Y1383*
X467Y1375*
X469Y1366*
X467Y1358*
X463Y1350*
X456Y1344*
X448Y1341*
X439*
X431Y1344*
X424Y1350*
X420Y1358*
X418Y1366*
X424Y772D02*
X434Y771D01*
X444Y767*
X452Y761*
X458Y753*
X462Y743*
X463Y733*
X462Y723*
X458Y713*
X452Y705*
X444Y699*
X434Y695*
X424Y693*
X414Y695*
X404Y699*
X396Y705*
X390Y713*
X386Y723*
X384Y733*
X386Y743*
X390Y753*
X396Y761*
X404Y767*
X414Y771*
X424Y772*
X426Y1280D02*
X427Y1288D01*
X432Y1296*
X439Y1302*
X447Y1305*
X456*
X464Y1302*
X471Y1296*
X475Y1288*
X477Y1280*
X475Y1271*
X471Y1263*
X464Y1258*
X456Y1255*
X447*
X439Y1258*
X432Y1263*
X427Y1271*
X426Y1280*
X506Y1284D02*
X507Y1292D01*
X511Y1300*
X517Y1307*
X525Y1311*
X534Y1312*
X543Y1311*
X551Y1307*
X557Y1300*
X561Y1292*
X562Y1284*
X561Y1275*
X557Y1267*
X551Y1261*
X543Y1256*
X534Y1255*
X525Y1256*
X517Y1261*
X511Y1267*
X507Y1275*
X506Y1284*
X524Y772D02*
X534Y771D01*
X544Y767*
X552Y761*
X558Y753*
X562Y743*
X563Y733*
X562Y723*
X558Y713*
X552Y705*
X544Y699*
X534Y695*
X524Y693*
X514Y695*
X504Y699*
X496Y705*
X490Y713*
X486Y723*
X484Y733*
X486Y743*
X490Y753*
X496Y761*
X504Y767*
X514Y771*
X524Y772*
X530Y851D02*
X519Y852D01*
X510Y856*
X502Y863*
X495Y871*
X492Y880*
X490Y890*
X492Y901*
X495Y910*
X502Y918*
X510Y925*
X519Y929*
X530Y930*
X540Y929*
X549Y925*
X558Y918*
X564Y910*
X568Y901*
X569Y890*
X568Y880*
X564Y871*
X558Y862*
X549Y856*
X540Y852*
X530Y851*
X556Y1402D02*
X557Y1410D01*
X562Y1418*
X569Y1424*
X577Y1427*
X586*
X594Y1424*
X601Y1418*
X605Y1410*
X607Y1402*
X605Y1393*
X601Y1385*
X594Y1380*
X586Y1377*
X577*
X569Y1380*
X562Y1385*
X557Y1393*
X556Y1402*
Y1457D02*
X557Y1465D01*
X562Y1473*
X569Y1479*
X577Y1482*
X586*
X594Y1479*
X601Y1473*
X605Y1465*
X607Y1457*
X605Y1448*
X601Y1440*
X594Y1435*
X586Y1432*
X577*
X569Y1435*
X562Y1440*
X557Y1448*
X556Y1457*
X591Y953D02*
X593Y962D01*
X597Y969*
X604Y975*
X612Y978*
X621*
X629Y975*
X636Y969*
X641Y962*
X642Y953*
X641Y944*
X636Y936*
X629Y931*
X621Y928*
X612*
X604Y931*
X597Y936*
X593Y944*
X591Y953*
X625Y575D02*
X627Y584D01*
X631Y592*
X638Y598*
X647Y601*
X655*
X664Y598*
X670Y592*
X675Y584*
X676Y575*
X675Y567*
X670Y559*
X664Y553*
X655Y550*
X647*
X638Y553*
X631Y559*
X627Y567*
X625Y575*
X645Y1599D02*
X647Y1608D01*
X651Y1615*
X658Y1621*
X666Y1624*
X675*
X683Y1621*
X690Y1615*
X695Y1608*
X696Y1599*
X695Y1590*
X690Y1583*
X683Y1577*
X675Y1574*
X666*
X658Y1577*
X651Y1583*
X647Y1590*
X645Y1599*
X663Y380D02*
X664Y389D01*
X668Y397*
X675Y403*
X683Y407*
X691Y408*
X700Y407*
X708Y403*
X715Y397*
X719Y389*
X720Y380*
X719Y371*
X715Y363*
X708Y357*
X700Y353*
X691Y351*
X683Y353*
X675Y357*
X668Y363*
X664Y371*
X663Y380*
X701Y1520D02*
X703Y1529D01*
X707Y1537*
X713Y1543*
X721Y1547*
X730Y1549*
X738Y1547*
X746Y1543*
X753Y1537*
X757Y1529*
X758Y1520*
X757Y1512*
X753Y1504*
X746Y1497*
X738Y1493*
X730Y1492*
X721Y1493*
X713Y1497*
X707Y1504*
X703Y1512*
X701Y1520*
X704Y1461D02*
X706Y1470D01*
X710Y1478*
X717Y1483*
X725Y1486*
X734*
X742Y1483*
X749Y1478*
X754Y1470*
X755Y1461*
X754Y1453*
X749Y1445*
X742Y1439*
X734Y1436*
X725*
X717Y1439*
X710Y1445*
X706Y1453*
X704Y1461*
X730Y851D02*
X719Y852D01*
X710Y856*
X702Y863*
X695Y871*
X692Y880*
X690Y890*
X692Y901*
X695Y910*
X702Y918*
X710Y925*
X719Y929*
X730Y930*
X740Y929*
X749Y925*
X758Y918*
X764Y910*
X768Y901*
X769Y890*
X768Y880*
X764Y871*
X758Y862*
X749Y856*
X740Y852*
X730Y851*
X921Y949D02*
X922Y958D01*
X927Y966*
X933Y972*
X942Y975*
X951*
X959Y972*
X966Y966*
X970Y958*
X972Y949*
X970Y941*
X966Y933*
X959Y927*
X951Y924*
X942*
X933Y927*
X927Y933*
X922Y941*
X921Y949*
X923Y1635D02*
Y1720D01*
X1008*
Y1635*
X923*
X1026Y1638D02*
Y1717D01*
X1105*
Y1638*
X1026*
X1126D02*
Y1717D01*
X1205*
Y1638*
X1126*
X1226D02*
Y1717D01*
X1305*
Y1638*
X1226*
X1272Y910D02*
X1273Y919D01*
X1278Y927*
X1284Y933*
X1292Y937*
X1301Y939*
X1309Y937*
X1317Y933*
X1324Y927*
X1328Y919*
X1329Y910*
X1328Y901*
X1324Y893*
X1317Y887*
X1309Y883*
X1301Y882*
X1292Y883*
X1284Y887*
X1278Y893*
X1273Y901*
X1272Y910*
X1349Y1048D02*
X1350Y1057D01*
X1355Y1064*
X1362Y1070*
X1370Y1073*
X1379*
X1387Y1070*
X1394Y1064*
X1398Y1057*
X1400Y1048*
X1398Y1039*
X1394Y1032*
X1387Y1026*
X1379Y1023*
X1370*
X1362Y1026*
X1355Y1032*
X1350Y1039*
X1349Y1048*
X1555Y1717D02*
Y1638D01*
X1476*
Y1717*
X1555*
X1655D02*
Y1638D01*
X1576*
Y1717*
X1655*
X1909D02*
Y1638D01*
X1830*
Y1717*
X1909*
X2009D02*
Y1638D01*
X1930*
Y1717*
X2009*
X2264D02*
Y1638D01*
X2185*
Y1717*
X2264*
X2364D02*
Y1638D01*
X2285*
Y1717*
X2364*
X2618D02*
Y1638D01*
X2539*
Y1717*
X2618*
X2718D02*
Y1638D01*
X2639*
Y1717*
X2718*
X2953D02*
Y1638D01*
X2874*
Y1717*
X2953*
X3053D02*
Y1638D01*
X2974*
Y1717*
X3053*
X3509Y1713D02*
Y1634D01*
X3430*
Y1713*
X3509*
X3612Y1716D02*
Y1631D01*
X3527*
Y1716*
X3612*
X262Y307D02*
X1462D01*
X262Y330D02*
X1462D01*
X262Y353D02*
X684D01*
X699D02*
X1462D01*
X262Y376D02*
X663D01*
X720D02*
X1462D01*
X262Y399D02*
X670D01*
X713D02*
X1462D01*
X262Y422D02*
X1462D01*
X262Y445D02*
X1462D01*
X262Y468D02*
X1462D01*
X262Y491D02*
X1462D01*
X262Y514D02*
X1462D01*
X262Y537D02*
X1462D01*
X12Y560D02*
X631D01*
X671D02*
X1462D01*
X12Y583D02*
X626D01*
X675D02*
X1462D01*
X12Y606D02*
X1462D01*
X12Y629D02*
X1462D01*
X12Y652D02*
X1462D01*
X12Y675D02*
X1462D01*
X12Y698D02*
X406D01*
X441D02*
X506D01*
X541D02*
X1462D01*
X12Y721D02*
X386D01*
X461D02*
X486D01*
X561D02*
X1462D01*
X12Y744D02*
X386D01*
X462D02*
X486D01*
X562D02*
X1462D01*
X12Y767D02*
X403D01*
X444D02*
X503D01*
X544D02*
X1462D01*
X12Y790D02*
X200D01*
X226D02*
X1462D01*
X12Y813D02*
X188D01*
X238D02*
X1462D01*
X12Y836D02*
X204D01*
X222D02*
X1462D01*
X12Y859D02*
X506D01*
X553D02*
X706D01*
X753D02*
X1462D01*
X12Y882D02*
X491D01*
X568D02*
X691D01*
X768D02*
X1462D01*
X12Y905D02*
X493D01*
X567D02*
X693D01*
X767D02*
X1273D01*
X1328D02*
X1462D01*
X12Y928D02*
X516D01*
X543D02*
X613D01*
X620D02*
X716D01*
X743D02*
X933D01*
X959D02*
X1278D01*
X1323D02*
X1462D01*
X12Y951D02*
X591D01*
X642D02*
X921D01*
X972D02*
X1462D01*
X12Y974D02*
X602D01*
X631D02*
X938D01*
X954D02*
X1462D01*
X12Y997D02*
X1462D01*
X12Y1020D02*
X1462D01*
X12Y1043D02*
X1349D01*
X1399D02*
X1462D01*
X12Y1066D02*
X1356D01*
X1393D02*
X1462D01*
X12Y1089D02*
X1462D01*
X12Y1112D02*
X1462D01*
X12Y1135D02*
X1462D01*
X12Y1158D02*
X1462D01*
X12Y1181D02*
X294D01*
X349D02*
X1462D01*
X12Y1204D02*
X297D01*
X346D02*
X1462D01*
X12Y1227D02*
X1462D01*
X12Y1250D02*
X246D01*
X271D02*
X1462D01*
X12Y1273D02*
X233D01*
X284D02*
X427D01*
X476D02*
X508D01*
X560D02*
X1462D01*
X12Y1296D02*
X250D01*
X267D02*
X432D01*
X471D02*
X508D01*
X560D02*
X1462D01*
X12Y1319D02*
X383D01*
X433D02*
X3812D01*
X12Y1342D02*
X391D01*
X425D02*
X437D01*
X450D02*
X3812D01*
X12Y1365D02*
X418D01*
X469D02*
X3812D01*
X12Y1388D02*
X59D01*
X83D02*
X430D01*
X457D02*
X560D01*
X602D02*
X3812D01*
X12Y1411D02*
X43D01*
X100D02*
X557D01*
X605D02*
X3812D01*
X12Y1434D02*
X51D01*
X92D02*
X571D01*
X592D02*
X3812D01*
X12Y1457D02*
X556D01*
X607D02*
X705D01*
X755D02*
X3812D01*
X12Y1480D02*
X570D01*
X593D02*
X712D01*
X747D02*
X3812D01*
X12Y1503D02*
X707D01*
X752D02*
X3812D01*
X262Y1526D02*
X702D01*
X758D02*
X3812D01*
X262Y1549D02*
X726D01*
X733D02*
X3812D01*
X262Y1572D02*
X3812D01*
X262Y1595D02*
X360D01*
X390D02*
X414D01*
X433D02*
X646D01*
X696D02*
X3812D01*
X262Y1618D02*
X347D01*
X449D02*
X653D01*
X688D02*
X3812D01*
X262Y1641D02*
X357D01*
X394D02*
X412D01*
X436D02*
X923D01*
X1008D02*
X1026D01*
X1105D02*
X1126D01*
X1205D02*
X1226D01*
X1305D02*
X1476D01*
X1555D02*
X1576D01*
X1655D02*
X1830D01*
X1909D02*
X1930D01*
X2009D02*
X2185D01*
X2264D02*
X2285D01*
X2364D02*
X2539D01*
X2618D02*
X2639D01*
X2718D02*
X2874D01*
X2953D02*
X2974D01*
X3053D02*
X3430D01*
X3509D02*
X3527D01*
X3612D02*
X3812D01*
X262Y1664D02*
X923D01*
X1008D02*
X1026D01*
X1105D02*
X1126D01*
X1205D02*
X1226D01*
X1305D02*
X1476D01*
X1555D02*
X1576D01*
X1655D02*
X1830D01*
X1909D02*
X1930D01*
X2009D02*
X2185D01*
X2264D02*
X2285D01*
X2364D02*
X2539D01*
X2618D02*
X2639D01*
X2718D02*
X2874D01*
X2953D02*
X2974D01*
X3053D02*
X3430D01*
X3509D02*
X3527D01*
X3612D02*
X3812D01*
X262Y1687D02*
X923D01*
X1008D02*
X1026D01*
X1105D02*
X1126D01*
X1205D02*
X1226D01*
X1305D02*
X1476D01*
X1555D02*
X1576D01*
X1655D02*
X1830D01*
X1909D02*
X1930D01*
X2009D02*
X2185D01*
X2264D02*
X2285D01*
X2364D02*
X2539D01*
X2618D02*
X2639D01*
X2718D02*
X2874D01*
X2953D02*
X2974D01*
X3053D02*
X3430D01*
X3509D02*
X3527D01*
X3612D02*
X3812D01*
X262Y1710D02*
X923D01*
X1008D02*
X1026D01*
X1105D02*
X1126D01*
X1205D02*
X1226D01*
X1305D02*
X1476D01*
X1555D02*
X1576D01*
X1655D02*
X1830D01*
X1909D02*
X1930D01*
X2009D02*
X2185D01*
X2264D02*
X2285D01*
X2364D02*
X2539D01*
X2618D02*
X2639D01*
X2718D02*
X2874D01*
X2953D02*
X2974D01*
X3053D02*
X3430D01*
X3509D02*
X3527D01*
X3612D02*
X3812D01*
X262Y1733D02*
X3812D01*
X1512Y542D02*
Y306D01*
X3812*
Y1256*
X1512*
Y592*
X1520Y592*
X1528Y588*
X1534Y583*
X1538Y575*
X1540Y567*
X1538Y559*
X1534Y551*
X1528Y546*
X1520Y542*
X1512Y542*
X1536Y536D02*
X1538Y544D01*
X1542Y552*
X1549Y558*
X1557Y561*
X1566*
X1574Y558*
X1581Y552*
X1585Y544*
X1587Y536*
X1585Y527*
X1581Y519*
X1574Y513*
X1566Y510*
X1557*
X1549Y513*
X1542Y519*
X1538Y527*
X1536Y536*
X1607Y361D02*
Y446D01*
X1692*
Y361*
X1607*
X1688Y1048D02*
X1690Y1057D01*
X1694Y1064*
X1701Y1070*
X1709Y1073*
X1718*
X1727Y1070*
X1733Y1064*
X1738Y1057*
X1739Y1048*
X1738Y1039*
X1733Y1032*
X1727Y1026*
X1718Y1023*
X1710*
X1701Y1026*
X1694Y1032*
X1690Y1039*
X1688Y1048*
X1710Y364D02*
Y443D01*
X1789*
Y364*
X1710*
X1753Y768D02*
X1754Y777D01*
X1759Y784*
X1765Y790*
X1774Y793*
X1783*
X1791Y790*
X1798Y784*
X1802Y777*
X1804Y768*
X1802Y759*
X1798Y751*
X1791Y746*
X1783Y743*
X1774*
X1765Y746*
X1759Y751*
X1754Y759*
X1753Y768*
X2038Y826D02*
X2039Y835D01*
X2044Y843*
X2051Y848*
X2059Y852*
X2068*
X2076Y848*
X2083Y843*
X2087Y835*
X2089Y826*
X2087Y818*
X2083Y810*
X2076Y804*
X2068Y801*
X2059*
X2051Y804*
X2044Y810*
X2039Y818*
X2038Y826*
X2062Y388D02*
X2064Y397D01*
X2068Y405*
X2075Y410*
X2084Y414*
X2092*
X2101Y410*
X2107Y405*
X2112Y397*
X2113Y388*
X2112Y380*
X2107Y372*
X2101Y366*
X2092Y363*
X2084*
X2075Y366*
X2068Y372*
X2064Y380*
X2062Y388*
X2189Y382D02*
X2191Y392D01*
X2194Y402*
X2201Y410*
X2209Y416*
X2218Y420*
X2229Y422*
X2239Y420*
X2248Y416*
X2257Y410*
X2263Y402*
X2267Y392*
X2268Y382*
X2267Y372*
X2263Y362*
X2257Y354*
X2248Y348*
X2239Y344*
X2229Y343*
X2218Y344*
X2209Y348*
X2201Y354*
X2194Y362*
X2191Y372*
X2189Y382*
Y1182D02*
X2191Y1192D01*
X2194Y1202*
X2201Y1210*
X2209Y1216*
X2218Y1220*
X2229Y1222*
X2239Y1220*
X2248Y1216*
X2257Y1210*
X2263Y1202*
X2267Y1192*
X2268Y1182*
X2267Y1172*
X2263Y1162*
X2257Y1154*
X2248Y1148*
X2239Y1144*
X2229Y1143*
X2218Y1144*
X2209Y1148*
X2201Y1154*
X2194Y1162*
X2191Y1172*
X2189Y1182*
X2289Y382D02*
X2291Y392D01*
X2294Y402*
X2301Y410*
X2309Y416*
X2318Y420*
X2329Y422*
X2339Y420*
X2348Y416*
X2357Y410*
X2363Y402*
X2367Y392*
X2368Y382*
X2367Y372*
X2363Y362*
X2357Y354*
X2348Y348*
X2339Y344*
X2329Y343*
X2318Y344*
X2309Y348*
X2301Y354*
X2294Y362*
X2291Y372*
X2289Y382*
Y1182D02*
X2291Y1192D01*
X2294Y1202*
X2301Y1210*
X2309Y1216*
X2318Y1220*
X2329Y1222*
X2339Y1220*
X2348Y1216*
X2357Y1210*
X2363Y1202*
X2367Y1192*
X2368Y1182*
X2367Y1172*
X2363Y1162*
X2357Y1154*
X2348Y1148*
X2339Y1144*
X2329Y1143*
X2318Y1144*
X2309Y1148*
X2301Y1154*
X2294Y1162*
X2291Y1172*
X2289Y1182*
X2389Y382D02*
X2391Y392D01*
X2394Y402*
X2401Y410*
X2409Y416*
X2418Y420*
X2429Y422*
X2439Y420*
X2448Y416*
X2457Y410*
X2463Y402*
X2467Y392*
X2468Y382*
X2467Y372*
X2463Y362*
X2457Y354*
X2448Y348*
X2439Y344*
X2429Y343*
X2418Y344*
X2409Y348*
X2401Y354*
X2394Y362*
X2391Y372*
X2389Y382*
Y1182D02*
X2391Y1192D01*
X2394Y1202*
X2401Y1210*
X2409Y1216*
X2418Y1220*
X2429Y1222*
X2439Y1220*
X2448Y1216*
X2457Y1210*
X2463Y1202*
X2467Y1192*
X2468Y1182*
X2467Y1172*
X2463Y1162*
X2457Y1154*
X2448Y1148*
X2439Y1144*
X2429Y1143*
X2418Y1144*
X2409Y1148*
X2401Y1154*
X2394Y1162*
X2391Y1172*
X2389Y1182*
X2489Y382D02*
X2491Y392D01*
X2494Y402*
X2501Y410*
X2509Y416*
X2518Y420*
X2529Y422*
X2539Y420*
X2548Y416*
X2557Y410*
X2563Y402*
X2567Y392*
X2568Y382*
X2567Y372*
X2563Y362*
X2557Y354*
X2548Y348*
X2539Y344*
X2529Y343*
X2518Y344*
X2509Y348*
X2501Y354*
X2494Y362*
X2491Y372*
X2489Y382*
Y1182D02*
X2491Y1192D01*
X2494Y1202*
X2501Y1210*
X2509Y1216*
X2518Y1220*
X2529Y1222*
X2539Y1220*
X2548Y1216*
X2557Y1210*
X2563Y1202*
X2567Y1192*
X2568Y1182*
X2567Y1172*
X2563Y1162*
X2557Y1154*
X2548Y1148*
X2539Y1144*
X2529Y1143*
X2518Y1144*
X2509Y1148*
X2501Y1154*
X2494Y1162*
X2491Y1172*
X2489Y1182*
X2589Y382D02*
X2591Y392D01*
X2594Y402*
X2601Y410*
X2609Y416*
X2618Y420*
X2629Y422*
X2639Y420*
X2648Y416*
X2657Y410*
X2663Y402*
X2667Y392*
X2668Y382*
X2667Y372*
X2663Y362*
X2657Y354*
X2648Y348*
X2639Y344*
X2629Y343*
X2618Y344*
X2609Y348*
X2601Y354*
X2594Y362*
X2591Y372*
X2589Y382*
Y1182D02*
X2591Y1192D01*
X2594Y1202*
X2601Y1210*
X2609Y1216*
X2618Y1220*
X2629Y1222*
X2639Y1220*
X2648Y1216*
X2657Y1210*
X2663Y1202*
X2667Y1192*
X2668Y1182*
X2667Y1172*
X2663Y1162*
X2657Y1154*
X2648Y1148*
X2639Y1144*
X2629Y1143*
X2618Y1144*
X2609Y1148*
X2601Y1154*
X2594Y1162*
X2591Y1172*
X2589Y1182*
X2689Y382D02*
X2691Y392D01*
X2694Y402*
X2701Y410*
X2709Y416*
X2718Y420*
X2729Y422*
X2739Y420*
X2748Y416*
X2757Y410*
X2763Y402*
X2767Y392*
X2768Y382*
X2767Y372*
X2763Y362*
X2757Y354*
X2748Y348*
X2739Y344*
X2729Y343*
X2718Y344*
X2709Y348*
X2701Y354*
X2694Y362*
X2691Y372*
X2689Y382*
Y1182D02*
X2691Y1192D01*
X2694Y1202*
X2701Y1210*
X2709Y1216*
X2718Y1220*
X2729Y1222*
X2739Y1220*
X2748Y1216*
X2757Y1210*
X2763Y1202*
X2767Y1192*
X2768Y1182*
X2767Y1172*
X2763Y1162*
X2757Y1154*
X2748Y1148*
X2739Y1144*
X2729Y1143*
X2718Y1144*
X2709Y1148*
X2701Y1154*
X2694Y1162*
X2691Y1172*
X2689Y1182*
X2789Y382D02*
X2791Y392D01*
X2794Y402*
X2801Y410*
X2809Y416*
X2818Y420*
X2829Y422*
X2839Y420*
X2848Y416*
X2857Y410*
X2863Y402*
X2867Y392*
X2868Y382*
X2867Y372*
X2863Y362*
X2857Y354*
X2848Y348*
X2839Y344*
X2829Y343*
X2818Y344*
X2809Y348*
X2801Y354*
X2794Y362*
X2791Y372*
X2789Y382*
Y1182D02*
X2791Y1192D01*
X2794Y1202*
X2801Y1210*
X2809Y1216*
X2818Y1220*
X2829Y1222*
X2839Y1220*
X2848Y1216*
X2857Y1210*
X2863Y1202*
X2867Y1192*
X2868Y1182*
X2867Y1172*
X2863Y1162*
X2857Y1154*
X2848Y1148*
X2839Y1144*
X2829Y1143*
X2818Y1144*
X2809Y1148*
X2801Y1154*
X2794Y1162*
X2791Y1172*
X2789Y1182*
X2889Y382D02*
X2891Y392D01*
X2894Y402*
X2901Y410*
X2909Y416*
X2918Y420*
X2929Y422*
X2939Y420*
X2948Y416*
X2957Y410*
X2963Y402*
X2967Y392*
X2968Y382*
X2967Y372*
X2963Y362*
X2957Y354*
X2948Y348*
X2939Y344*
X2929Y343*
X2918Y344*
X2909Y348*
X2901Y354*
X2894Y362*
X2891Y372*
X2889Y382*
Y1182D02*
X2891Y1192D01*
X2894Y1202*
X2901Y1210*
X2909Y1216*
X2918Y1220*
X2929Y1222*
X2939Y1220*
X2948Y1216*
X2957Y1210*
X2963Y1202*
X2967Y1192*
X2968Y1182*
X2967Y1172*
X2963Y1162*
X2957Y1154*
X2948Y1148*
X2939Y1144*
X2929Y1143*
X2918Y1144*
X2909Y1148*
X2901Y1154*
X2894Y1162*
X2891Y1172*
X2889Y1182*
X2989Y382D02*
X2991Y392D01*
X2994Y402*
X3001Y410*
X3009Y416*
X3018Y420*
X3029Y422*
X3039Y420*
X3048Y416*
X3057Y410*
X3063Y402*
X3067Y392*
X3068Y382*
X3067Y372*
X3063Y362*
X3057Y354*
X3048Y348*
X3039Y344*
X3029Y343*
X3018Y344*
X3009Y348*
X3001Y354*
X2994Y362*
X2991Y372*
X2989Y382*
Y1182D02*
X2991Y1192D01*
X2994Y1202*
X3001Y1210*
X3009Y1216*
X3018Y1220*
X3029Y1222*
X3039Y1220*
X3048Y1216*
X3057Y1210*
X3063Y1202*
X3067Y1192*
X3068Y1182*
X3067Y1172*
X3063Y1162*
X3057Y1154*
X3048Y1148*
X3039Y1144*
X3029Y1143*
X3018Y1144*
X3009Y1148*
X3001Y1154*
X2994Y1162*
X2991Y1172*
X2989Y1182*
X3089Y382D02*
X3091Y392D01*
X3094Y402*
X3101Y410*
X3109Y416*
X3118Y420*
X3129Y422*
X3139Y420*
X3148Y416*
X3157Y410*
X3163Y402*
X3167Y392*
X3168Y382*
X3167Y372*
X3163Y362*
X3157Y354*
X3148Y348*
X3139Y344*
X3129Y343*
X3118Y344*
X3109Y348*
X3101Y354*
X3094Y362*
X3091Y372*
X3089Y382*
Y1182D02*
X3091Y1192D01*
X3094Y1202*
X3101Y1210*
X3109Y1216*
X3118Y1220*
X3129Y1222*
X3139Y1220*
X3148Y1216*
X3157Y1210*
X3163Y1202*
X3167Y1192*
X3168Y1182*
X3167Y1172*
X3163Y1162*
X3157Y1154*
X3148Y1148*
X3139Y1144*
X3129Y1143*
X3118Y1144*
X3109Y1148*
X3101Y1154*
X3094Y1162*
X3091Y1172*
X3089Y1182*
X3189Y382D02*
X3191Y392D01*
X3194Y402*
X3201Y410*
X3209Y416*
X3218Y420*
X3229Y422*
X3239Y420*
X3248Y416*
X3257Y410*
X3263Y402*
X3267Y392*
X3268Y382*
X3267Y372*
X3263Y362*
X3257Y354*
X3248Y348*
X3239Y344*
X3229Y343*
X3218Y344*
X3209Y348*
X3201Y354*
X3194Y362*
X3191Y372*
X3189Y382*
Y1182D02*
X3191Y1192D01*
X3194Y1202*
X3201Y1210*
X3209Y1216*
X3218Y1220*
X3229Y1222*
X3239Y1220*
X3248Y1216*
X3257Y1210*
X3263Y1202*
X3267Y1192*
X3268Y1182*
X3267Y1172*
X3263Y1162*
X3257Y1154*
X3248Y1148*
X3239Y1144*
X3229Y1143*
X3218Y1144*
X3209Y1148*
X3201Y1154*
X3194Y1162*
X3191Y1172*
X3189Y1182*
X3289Y382D02*
X3291Y392D01*
X3294Y402*
X3301Y410*
X3309Y416*
X3318Y420*
X3329Y422*
X3339Y420*
X3348Y416*
X3357Y410*
X3363Y402*
X3367Y392*
X3368Y382*
X3367Y372*
X3363Y362*
X3357Y354*
X3348Y348*
X3339Y344*
X3329Y343*
X3318Y344*
X3309Y348*
X3301Y354*
X3294Y362*
X3291Y372*
X3289Y382*
Y1182D02*
X3291Y1192D01*
X3294Y1202*
X3301Y1210*
X3309Y1216*
X3318Y1220*
X3329Y1222*
X3339Y1220*
X3348Y1216*
X3357Y1210*
X3363Y1202*
X3367Y1192*
X3368Y1182*
X3367Y1172*
X3363Y1162*
X3357Y1154*
X3348Y1148*
X3339Y1144*
X3329Y1143*
X3318Y1144*
X3309Y1148*
X3301Y1154*
X3294Y1162*
X3291Y1172*
X3289Y1182*
X3389Y382D02*
X3391Y392D01*
X3394Y402*
X3401Y410*
X3409Y416*
X3418Y420*
X3429Y422*
X3439Y420*
X3448Y416*
X3457Y410*
X3463Y402*
X3467Y392*
X3468Y382*
X3467Y372*
X3463Y362*
X3457Y354*
X3448Y348*
X3439Y344*
X3429Y343*
X3418Y344*
X3409Y348*
X3401Y354*
X3394Y362*
X3391Y372*
X3389Y382*
Y1182D02*
X3391Y1192D01*
X3394Y1202*
X3401Y1210*
X3409Y1216*
X3418Y1220*
X3429Y1222*
X3439Y1220*
X3448Y1216*
X3457Y1210*
X3463Y1202*
X3467Y1192*
X3468Y1182*
X3467Y1172*
X3463Y1162*
X3457Y1154*
X3448Y1148*
X3439Y1144*
X3429Y1143*
X3418Y1144*
X3409Y1148*
X3401Y1154*
X3394Y1162*
X3391Y1172*
X3389Y1182*
X3489Y382D02*
X3491Y392D01*
X3494Y402*
X3501Y410*
X3509Y416*
X3518Y420*
X3529Y422*
X3539Y420*
X3548Y416*
X3557Y410*
X3563Y402*
X3567Y392*
X3568Y382*
X3567Y372*
X3563Y362*
X3557Y354*
X3548Y348*
X3539Y344*
X3529Y343*
X3518Y344*
X3509Y348*
X3501Y354*
X3494Y362*
X3491Y372*
X3489Y382*
Y1182D02*
X3491Y1192D01*
X3494Y1202*
X3501Y1210*
X3509Y1216*
X3518Y1220*
X3529Y1222*
X3539Y1220*
X3548Y1216*
X3557Y1210*
X3563Y1202*
X3567Y1192*
X3568Y1182*
X3567Y1172*
X3563Y1162*
X3557Y1154*
X3548Y1148*
X3539Y1144*
X3529Y1143*
X3518Y1144*
X3509Y1148*
X3501Y1154*
X3494Y1162*
X3491Y1172*
X3489Y1182*
X3589Y382D02*
X3591Y392D01*
X3594Y402*
X3601Y410*
X3609Y416*
X3618Y420*
X3629Y422*
X3639Y420*
X3648Y416*
X3657Y410*
X3663Y402*
X3667Y392*
X3668Y382*
X3667Y372*
X3663Y362*
X3657Y354*
X3648Y348*
X3639Y344*
X3629Y343*
X3618Y344*
X3609Y348*
X3601Y354*
X3594Y362*
X3591Y372*
X3589Y382*
Y1182D02*
X3591Y1192D01*
X3594Y1202*
X3601Y1210*
X3609Y1216*
X3618Y1220*
X3629Y1222*
X3639Y1220*
X3648Y1216*
X3657Y1210*
X3663Y1202*
X3667Y1192*
X3668Y1182*
X3667Y1172*
X3663Y1162*
X3657Y1154*
X3648Y1148*
X3639Y1144*
X3629Y1143*
X3618Y1144*
X3609Y1148*
X3601Y1154*
X3594Y1162*
X3591Y1172*
X3589Y1182*
X3686Y382D02*
X3688Y393D01*
X3692Y403*
X3699Y412*
X3707Y419*
X3718Y423*
X3729Y425*
X3740Y423*
X3750Y419*
X3759Y412*
X3765Y403*
X3770Y393*
X3771Y382*
X3770Y371*
X3765Y361*
X3759Y352*
X3750Y345*
X3740Y341*
X3729Y340*
X3718Y341*
X3707Y345*
X3699Y352*
X3692Y361*
X3688Y371*
X3686Y382*
X3689Y1182D02*
X3691Y1192D01*
X3694Y1202*
X3701Y1210*
X3709Y1216*
X3718Y1220*
X3729Y1222*
X3739Y1220*
X3748Y1216*
X3757Y1210*
X3763Y1202*
X3767Y1192*
X3768Y1182*
X3767Y1172*
X3763Y1162*
X3757Y1154*
X3748Y1148*
X3739Y1144*
X3729Y1143*
X3718Y1144*
X3709Y1148*
X3701Y1154*
X3694Y1162*
X3691Y1172*
X3689Y1182*
X1512Y312D02*
X3812D01*
X1512Y335D02*
X3812D01*
X1512Y358D02*
X2198D01*
X2260D02*
X2298D01*
X2360D02*
X2398D01*
X2460D02*
X2498D01*
X2560D02*
X2598D01*
X2660D02*
X2698D01*
X2760D02*
X2798D01*
X2860D02*
X2898D01*
X2960D02*
X2998D01*
X3060D02*
X3098D01*
X3160D02*
X3198D01*
X3260D02*
X3298D01*
X3360D02*
X3398D01*
X3460D02*
X3498D01*
X3560D02*
X3598D01*
X3660D02*
X3694D01*
X3763D02*
X3812D01*
X1512Y381D02*
X1607D01*
X1692D02*
X1710D01*
X1789D02*
X2064D01*
X2112D02*
X2189D01*
X2268D02*
X2289D01*
X2368D02*
X2389D01*
X2468D02*
X2489D01*
X2568D02*
X2589D01*
X2668D02*
X2689D01*
X2768D02*
X2789D01*
X2868D02*
X2889D01*
X2968D02*
X2989D01*
X3068D02*
X3089D01*
X3168D02*
X3189D01*
X3268D02*
X3289D01*
X3368D02*
X3389D01*
X3468D02*
X3489D01*
X3568D02*
X3589D01*
X3668D02*
X3686D01*
X3771D02*
X3812D01*
X1512Y404D02*
X1607D01*
X1692D02*
X1710D01*
X1789D02*
X2068D01*
X2108D02*
X2196D01*
X2262D02*
X2296D01*
X2362D02*
X2396D01*
X2462D02*
X2496D01*
X2562D02*
X2596D01*
X2662D02*
X2696D01*
X2762D02*
X2796D01*
X2862D02*
X2896D01*
X2962D02*
X2996D01*
X3062D02*
X3096D01*
X3162D02*
X3196D01*
X3262D02*
X3296D01*
X3362D02*
X3396D01*
X3462D02*
X3496D01*
X3562D02*
X3596D01*
X3662D02*
X3692D01*
X3765D02*
X3812D01*
X1512Y427D02*
X1607D01*
X1692D02*
X1710D01*
X1789D02*
X3812D01*
X1512Y450D02*
X3812D01*
X1512Y473D02*
X3812D01*
X1512Y496D02*
X3812D01*
X1512Y519D02*
X1542D01*
X1581D02*
X3812D01*
X1517Y542D02*
X1537D01*
X1586D02*
X3812D01*
X1540Y565D02*
X3812D01*
X1529Y588D02*
X3812D01*
X1512Y611D02*
X3812D01*
X1512Y634D02*
X3812D01*
X1512Y657D02*
X3812D01*
X1512Y680D02*
X3812D01*
X1512Y703D02*
X3812D01*
X1512Y726D02*
X3812D01*
X1512Y749D02*
X1761D01*
X1795D02*
X3812D01*
X1512Y772D02*
X1753D01*
X1803D02*
X3812D01*
X1512Y795D02*
X3812D01*
X1512Y818D02*
X2039D01*
X2087D02*
X3812D01*
X1512Y841D02*
X2042D01*
X2084D02*
X3812D01*
X1512Y864D02*
X3812D01*
X1512Y887D02*
X3812D01*
X1512Y910D02*
X3812D01*
X1512Y933D02*
X3812D01*
X1512Y956D02*
X3812D01*
X1512Y979D02*
X3812D01*
X1512Y1002D02*
X3812D01*
X1512Y1025D02*
X1704D01*
X1724D02*
X3812D01*
X1512Y1048D02*
X1688D01*
X1739D02*
X3812D01*
X1512Y1071D02*
X1703D01*
X1725D02*
X3812D01*
X1512Y1094D02*
X3812D01*
X1512Y1117D02*
X3812D01*
X1512Y1140D02*
X3812D01*
X1512Y1163D02*
X2194D01*
X2263D02*
X2294D01*
X2363D02*
X2394D01*
X2463D02*
X2494D01*
X2563D02*
X2594D01*
X2663D02*
X2694D01*
X2763D02*
X2794D01*
X2863D02*
X2894D01*
X2963D02*
X2994D01*
X3063D02*
X3094D01*
X3163D02*
X3194D01*
X3263D02*
X3294D01*
X3363D02*
X3394D01*
X3463D02*
X3494D01*
X3563D02*
X3594D01*
X3663D02*
X3694D01*
X3763D02*
X3812D01*
X1512Y1186D02*
X2189D01*
X2268D02*
X2289D01*
X2368D02*
X2389D01*
X2468D02*
X2489D01*
X2568D02*
X2589D01*
X2668D02*
X2689D01*
X2768D02*
X2789D01*
X2868D02*
X2889D01*
X2968D02*
X2989D01*
X3068D02*
X3089D01*
X3168D02*
X3189D01*
X3268D02*
X3289D01*
X3368D02*
X3389D01*
X3468D02*
X3489D01*
X3568D02*
X3589D01*
X3668D02*
X3689D01*
X3768D02*
X3812D01*
X1512Y1209D02*
X2199D01*
X2258D02*
X2299D01*
X2358D02*
X2399D01*
X2458D02*
X2499D01*
X2558D02*
X2599D01*
X2658D02*
X2699D01*
X2758D02*
X2799D01*
X2858D02*
X2899D01*
X2958D02*
X2999D01*
X3058D02*
X3099D01*
X3158D02*
X3199D01*
X3258D02*
X3299D01*
X3358D02*
X3399D01*
X3458D02*
X3499D01*
X3558D02*
X3599D01*
X3658D02*
X3699D01*
X3758D02*
X3812D01*
X1512Y1232D02*
X3812D01*
X1512Y1255D02*
X3812D01*
D02*
D87*
X60Y1413D02*
X40D01*
X71Y1402D02*
Y1382D01*
Y1424D02*
Y1444D01*
X82Y1413D02*
X102D01*
X310Y1189D02*
X290D01*
X321Y1178D02*
Y1158D01*
Y1200D02*
Y1220D01*
X332Y1189D02*
X352D01*
X364Y1619D02*
X344D01*
X375Y1608D02*
Y1588D01*
Y1630D02*
Y1650D01*
X523Y1284D02*
X503D01*
X534Y1273D02*
Y1253D01*
Y1294D02*
Y1314D01*
X545Y1284D02*
X565D01*
X680Y380D02*
X660D01*
X691Y369D02*
Y349D01*
Y391D02*
Y411D01*
X702Y380D02*
X722D01*
X719Y1520D02*
X699D01*
X730Y1509D02*
Y1489D01*
Y1531D02*
Y1551D01*
X741Y1520D02*
X761D01*
X941Y1678D02*
X921D01*
X966Y1653D02*
Y1633D01*
Y1703D02*
Y1723D01*
X991Y1678D02*
X1011D01*
X1290Y910D02*
X1270D01*
X1301Y899D02*
Y879D01*
Y921D02*
Y941D01*
X1311Y910D02*
X1331D01*
X1625Y403D02*
X1605D01*
X1650Y378D02*
Y358D01*
Y428D02*
Y448D01*
X1675Y403D02*
X1695D01*
X3544Y1673D02*
X3524D01*
X3569Y1648D02*
Y1628D01*
Y1698D02*
Y1718D01*
X3594Y1673D02*
X3614D01*
X3704Y382D02*
X3684D01*
X3729Y357D02*
Y337D01*
Y407D02*
Y427D01*
X3754Y382D02*
X3774D01*
D02*
D92*
X71Y1413D03*
X691Y380D03*
X1778Y768D03*
D02*
D124*
X156Y1657D03*
X159Y162D03*
X3781D03*
X3782Y1653D03*
D02*
D125*
X424Y733D03*
X524D03*
X530Y890D03*
X730D03*
X2229Y382D03*
Y1182D03*
X2329Y382D03*
Y1182D03*
X2429Y382D03*
Y1182D03*
X2529Y382D03*
Y1182D03*
X2629Y382D03*
Y1182D03*
X2729Y382D03*
Y1182D03*
X2829Y382D03*
Y1182D03*
X2929Y382D03*
Y1182D03*
X3029Y382D03*
Y1182D03*
X3129Y382D03*
Y1182D03*
X3229Y382D03*
Y1182D03*
X3329Y382D03*
Y1182D03*
X3429Y382D03*
Y1182D03*
X3529Y382D03*
Y1182D03*
X3629Y382D03*
Y1182D03*
X3729Y382D03*
Y1182D03*
D02*
D126*
X966Y1678D03*
X1066D03*
X1166D03*
X1266D03*
X1515D03*
X1615D03*
X1650Y403D03*
X1750D03*
X1870Y1678D03*
X1970D03*
X2224D03*
X2324D03*
X2578D03*
X2678D03*
X2913D03*
X3013D03*
X3469Y1673D03*
X3569D03*
D02*
D127*
X213Y812D03*
X258Y1272D03*
X321Y1189D03*
X375Y1619D03*
X408Y1323D03*
X424Y1618D03*
X443Y1366D03*
X451Y1280D03*
X534Y1284D03*
X581Y1402D03*
Y1457D03*
X617Y953D03*
X651Y575D03*
X671Y1599D03*
X730Y1461D03*
Y1520D03*
X946Y949D03*
X1301Y910D03*
X1374Y1048D03*
X1514Y567D03*
X1562Y536D03*
X1714Y1048D03*
X2063Y826D03*
X2088Y388D03*
X0Y0D02*
M02*
